<svg xmlns="http://www.w3.org/2000/svg" viewBox="0 0 222.94 506.47"><defs><style>.cls-1{fill:#fefdfd;}.cls-2{fill:none;}.cls-3{fill:#fff;}.cls-4{fill:#de1927;}</style></defs><title>Ресурс 1</title><g id="Шар_2" data-name="Шар 2"><g id="Слой_1" data-name="Слой 1"><path class="cls-1" d="M179.63,134.29c3.56,5.89,6.95,11.45,10.26,17,1.06,1.79,2.49,2.72,4.35,1.67s1.76-2.8.84-4.36c-3.92-6.62-8-13.18-12.2-20.19l-3.23,5.6a12.63,12.63,0,0,1-.86-1.07c-5.71-9-11.7-17.9-17.86-26.64-1-1.39-1.68-2.81-4.12-2.1a2.53,2.53,0,0,1-2.8-3.75c1.42-2.06.37-3.11-.68-4.52q-8.54-11.39-17.8-22.19A311.55,311.55,0,0,0,97.34,35.9a226.51,226.51,0,0,0-20.44-15l5.67-2.54C74.77,12.21,58.77,4.64,48,2A67.53,67.53,0,0,0,33.72,0a2.48,2.48,0,0,0-2.78,1.87c-.35,1.44.58,2.21,1.75,2.82a5.24,5.24,0,0,0,2.52.69c7.3-.08,14.1,2.2,20.76,4.79A111.47,111.47,0,0,1,76.75,20.94C60.93,28.46,49,39.67,40.08,54.81c-3.35-5.4-6.39-10.23-9.35-15.12-1.19-2-2.7-3.72-5-2.25-2.11,1.36-1.18,3.48-.06,5.27,3.28,5.23,6.47,10.52,9.88,15.67a4.93,4.93,0,0,1,.51,5.15q-12.32,31,.53,61.83a4,4,0,0,1-.35,4.22,134.14,134.14,0,0,0-12.39,23.71c-2.12,5.47-3.88,11.05-3.62,17,.18,4.07,1.6,7.53,5.25,9.76,1.59,1,3.22,1.8,4.67-.09,1.33-1.74.4-3-1.06-4.19-2.57-2.07-3.29-4.88-2.88-8,1.64-12.52,7.88-23.05,14.33-34,.8,1.19,1.3,1.9,1.76,2.62a80.67,80.67,0,0,0,29.58,27.84c1.22.67,2.23,1.3,3.91.46,2.24-1.12,3.58.14,3.8,3.18a21.58,21.58,0,0,0-3.06-1.26c-.72-.18-1.43-1.48-2.24-.27a2.19,2.19,0,0,0,.4,2.75c1,1.25,2.64,1.9,3.74.65,1.59-1.81,3-1.1,4.65-.5a79.55,79.55,0,0,0,51.34,1A5.87,5.87,0,0,1,140,171a119.68,119.68,0,0,0,22.26,11.47c8.15,3.14,16.42,5.68,25.32,5.24,1.59-.08,3-.48,3-2.31s-1.18-2.46-2.83-2.49c-10.34-.18-19.83-3.57-29.08-7.79a90.08,90.08,0,0,1-15-8.37A81.86,81.86,0,0,0,179.63,134.29Z"/><path class="cls-1" d="M83.18,18.28c41.91,29.14,72.09,68.08,99.63,110,9.16-20.63,10.14-40.92,3-61.58a2.58,2.58,0,0,0-2.48-2c-2.13-.3-3.58-2.11-2.16-4.08s.66-3.13-.19-4.68a88,88,0,0,0-6.21-9.77,82.35,82.35,0,0,0-24.65-22,133.53,133.53,0,0,1,23.64-12.3c4.44-1.71,8.95-3.19,13.78-3.16,2.64,0,4.88.51,6,3.55.82,2.2,2.91,2.35,5,1.35s1.17-2.57.59-3.9c-2-4.5-5.59-6.64-10.4-6.95a29.66,29.66,0,0,0-9.17,1c-11.93,3-22.51,8.91-32.76,15.44a5.84,5.84,0,0,1-6.07.5C122,12.09,103,11.7,83.18,18.28Z"/><path class="cls-2" d="M126.29,214c0-7.2-5.2-13.08-11.66-13s-11.51,5.78-11.55,12.82c0,7.21,5.2,13.07,11.66,13S126.24,221,126.29,214Z"/><path class="cls-1" d="M198.72,38c0-2-1-3.06-2.79-3.13a2.69,2.69,0,0,0-3,2.8,2.9,2.9,0,0,0,5.78.33Z"/><path class="cls-1" d="M54.3,181c-.17-1.72-1.07-2.82-2.93-2.8a2.62,2.62,0,0,0-2.86,2.89A2.65,2.65,0,0,0,51.4,184C53.16,184,54.18,182.9,54.3,181Z"/><path class="cls-1" d="M25.38,2.09c-1.78.19-3,1.14-3,2.9a2.7,2.7,0,0,0,2.83,3,2.67,2.67,0,0,0,3-2.8C28.24,3.31,27.07,2.43,25.38,2.09Z"/><path class="cls-1" d="M20.14,16.43C21.81,16.2,23,15.38,23,13.52a2.63,2.63,0,0,0-2.8-2.94,2.65,2.65,0,0,0-3,2.8C17.19,15.18,18.36,16.13,20.14,16.43Z"/><path class="cls-1" d="M20.09,20.51a2.68,2.68,0,0,0-2.68,3,2.67,2.67,0,0,0,2.94,2.84,2.72,2.72,0,0,0,2.83-3C23.11,21.61,22.08,20.53,20.09,20.51Z"/><path class="cls-1" d="M194.41,49.09c-.27-1.72-1.17-2.88-3-2.85a2.63,2.63,0,0,0-2.86,2.89,2.65,2.65,0,0,0,2.9,2.87C193.24,52,194.17,50.84,194.41,49.09Z"/><path class="cls-1" d="M205.08,177.13c-.18-1.74-1.07-2.94-2.86-3a2.88,2.88,0,1,0-.26,5.76C203.78,180,204.74,178.87,205.08,177.13Z"/><path class="cls-1" d="M26.75,32.81c-.37-1.57-1.17-2.88-3-2.84a2.69,2.69,0,0,0-2.88,2.92,2.67,2.67,0,0,0,2.88,2.91C25.58,35.82,26.43,34.59,26.75,32.81Z"/><path class="cls-1" d="M197.71,156.45a2.8,2.8,0,0,0-2.9,3,2.75,2.75,0,0,0,3,2.86,2.67,2.67,0,0,0,2.81-3A2.73,2.73,0,0,0,197.71,156.45Z"/><path class="cls-1" d="M204.54,167.76a2.81,2.81,0,0,0-2.94-3,2.73,2.73,0,0,0-2.93,2.9,2.68,2.68,0,0,0,2.92,2.87A2.73,2.73,0,0,0,204.54,167.76Z"/><path class="cls-1" d="M64.42,171.86c-1.69.36-2.9,1.29-2.81,3.09a2.68,2.68,0,0,0,3,2.78,2.63,2.63,0,0,0,2.77-3C67.36,172.89,66.14,172.1,64.42,171.86Z"/><path class="cls-1" d="M199.7,185.18c-.3-1.66-1.09-2.89-3-2.87a2.91,2.91,0,0,0,0,5.81C198.47,188.14,199.42,186.94,199.7,185.18Z"/><circle class="cls-3" cx="110.95" cy="93.38" r="79.61"/><path class="cls-1" d="M202.53,24.45a2.87,2.87,0,0,0-3-2.93,2.73,2.73,0,0,0-2.87,3,2.67,2.67,0,0,0,3,2.82C201.45,27.28,202.34,26.16,202.53,24.45Z"/><path class="cls-1" d="M38.3,182.35c-1.73.17-2.89,1-2.94,2.87a2.67,2.67,0,0,0,2.75,3,2.72,2.72,0,0,0,3-2.8C41.19,183.69,40.09,182.63,38.3,182.35Z"/><path class="cls-1" d="M182.76,59.22,185,64.37c1.48-.89,2.05-2.11,1.42-3.63A2.57,2.57,0,0,0,182.76,59.22Z"/><path class="cls-4" d="M179.63,134.29a81.86,81.86,0,0,1-35.93,32.49,90.08,90.08,0,0,0,15,8.37c9.25,4.22,18.74,7.61,29.08,7.79,1.65,0,2.9.68,2.83,2.49s-1.44,2.23-3,2.31c-8.9.44-17.17-2.1-25.32-5.24A119.68,119.68,0,0,1,140,171a5.87,5.87,0,0,0-5.52-.74,79.55,79.55,0,0,1-51.34-1c-1.67-.6-3.06-1.31-4.65.5-1.1,1.25-2.7.6-3.74-.65a2.19,2.19,0,0,1-.4-2.75c.82-1.21,1.53.09,2.24.27a21.58,21.58,0,0,1,3.06,1.26c-.22-3-1.56-4.3-3.8-3.18-1.68.84-2.69.22-3.91-.46a80.67,80.67,0,0,1-29.58-27.84c-.46-.73-1-1.43-1.76-2.62-6.44,10.92-12.69,21.45-14.33,34-.41,3.13.31,5.94,2.88,8,1.45,1.17,2.39,2.45,1.06,4.19-1.45,1.9-3.08,1.06-4.67.09-3.66-2.23-5.08-5.69-5.25-9.76-.26-6,1.5-11.55,3.62-17a134.14,134.14,0,0,1,12.39-23.71,4,4,0,0,0,.35-4.22q-12.92-30.79-.53-61.83a4.93,4.93,0,0,0-.51-5.15c-3.41-5.15-6.6-10.44-9.88-15.67-1.13-1.79-2.05-3.91.06-5.27,2.28-1.48,3.79.27,5,2.25,3,4.89,6,9.72,9.35,15.12C49,39.67,60.93,28.46,76.75,20.94A111.47,111.47,0,0,0,56,10.16C49.3,7.58,42.51,5.3,35.21,5.38a5.24,5.24,0,0,1-2.52-.69c-1.17-.61-2.1-1.38-1.75-2.82A2.48,2.48,0,0,1,33.72,0,67.53,67.53,0,0,1,48,2C58.77,4.64,74.77,12.21,82.57,18.4L76.9,20.94a226.51,226.51,0,0,1,20.44,15,311.55,311.55,0,0,1,38.19,37.88q9.23,10.83,17.8,22.19c1.05,1.4,2.1,2.46.68,4.52a2.53,2.53,0,0,0,2.8,3.75c2.44-.71,3.14.71,4.12,2.1,6.16,8.74,12.15,17.6,17.86,26.64a12.63,12.63,0,0,0,.86,1.07l3.23-5.6c4.25,7,8.28,13.56,12.2,20.19.92,1.55.88,3.39-.84,4.36s-3.29.11-4.35-1.67C186.58,145.74,183.19,140.19,179.63,134.29ZM152.4,110.12a2.72,2.72,0,0,0-3-2.74,2.63,2.63,0,0,0-2.81,3,2.69,2.69,0,0,0,3,2.86C151.32,113.15,152.31,112,152.4,110.12Zm-9.64,9.7c-.21-1.45-.88-2.82-2.7-3a2.92,2.92,0,0,0-.66,5.81C141.24,122.85,142.24,121.74,142.76,119.83ZM119.52,141c1.56-.25,2.84-1,2.87-2.87a2.64,2.64,0,0,0-2.78-3,2.66,2.66,0,0,0-3,2.76C116.51,139.69,117.65,140.7,119.52,141Zm-7.5,5.19c-.2-1.72-1.05-2.9-2.91-2.92a2.66,2.66,0,0,0-2.92,2.87,2.69,2.69,0,0,0,2.84,3C110.84,149.13,111.78,148,112,146.19Zm-9.73,8c-.38-1.76-1.36-2.95-3.15-2.83a2.68,2.68,0,0,0-2.73,3.07,2.65,2.65,0,0,0,3,2.74C101.33,157.13,102.06,155.85,102.29,154.21Zm30-24.93a2.86,2.86,0,0,0-2.95-3,2.74,2.74,0,0,0-2.95,2.9,2.68,2.68,0,0,0,2.91,2.89A2.79,2.79,0,0,0,132.26,129.28ZM88,163.44c1.77-.1,3-1,3.07-2.78a2.92,2.92,0,0,0-5.83-.31C85.11,162.19,86.24,163.12,88,163.44Z"/><path class="cls-4" d="M83.18,18.28C103,11.7,122,12.09,140.77,19.7a5.84,5.84,0,0,0,6.07-.5c10.25-6.53,20.83-12.44,32.76-15.44a29.66,29.66,0,0,1,9.17-1c4.8.31,8.43,2.45,10.4,6.95.58,1.32,1.54,2.88-.59,3.9s-4.18.85-5-1.35c-1.14-3-3.38-3.54-6-3.55-4.83,0-9.34,1.46-13.78,3.16a133.53,133.53,0,0,0-23.64,12.3,82.35,82.35,0,0,1,24.65,22A88,88,0,0,1,181,56c.85,1.55,1.57,2.76.19,4.68s0,3.78,2.16,4.08a2.58,2.58,0,0,1,2.48,2c7.12,20.67,6.14,40.95-3,61.58C155.27,86.36,125.1,47.42,83.18,18.28Zm91.31,63.81c-.2-1.73-1.08-3-2.87-3a2.92,2.92,0,0,0-.25,5.84C173.27,85,174.1,83.77,174.49,82.09Zm-7.77,9.18c-.29-1.63-1.28-2.83-3-2.8a2.73,2.73,0,0,0-2.9,2.95,2.67,2.67,0,0,0,2.94,2.86C165.59,94.28,166.48,93.15,166.72,91.27Zm12-16.37c1.69-.32,2.8-1.24,2.72-3.09a2.65,2.65,0,0,0-3-2.81,2.7,2.7,0,0,0-2.81,3C175.72,73.75,176.89,74.74,178.72,74.9Z"/><path class="cls-3" d="M108.5,364q3.7-21.5,7.39-43,2.46-14.35,4.87-28.7a8.32,8.32,0,0,1,2.5-5.15c6-5.51,7.28-13,8.54-20.57,1-6.19,2.43-12.33,3.5-18.52a6.05,6.05,0,0,1,4.11-5c4.79-2,9.36-4.52,14.24-6.22,8.57-3,15.5-8.15,21.72-14.57,3.61-3.72,7.54-7.13,11.29-10.72,1.48-1.42,3-2,4.57-.34s1,3.16-.49,4.56l-21.2,20c-1.91,1.8-4.45,2.39-6.74,3.44q-9.62,4.42-19.38,8.54a3.89,3.89,0,0,0-2.64,3.29c-1.58,8.56-3.33,17.09-5,25.65-.56,2.94-1,5.91-3.3,8.1-6,5.65-6.79,13.22-8,20.73-3.62,21.75-7.48,43.47-11.12,65.22-.52,3.13-2.84,4.83-4.47,7.11-.41.57-.89.52-1.28,0-1.85-2.53-4.41-4.47-5-8-4.16-24.91-8.47-49.79-12.72-74.68A7.84,7.84,0,0,0,88,290.75c-5.94-5.9-8-13.41-9.24-21.38-.93-6.1-2.29-12.13-3.41-18.2a4,4,0,0,0-2.65-3.35c-6.1-2.55-12.05-5.48-18.19-7.92a38.14,38.14,0,0,1-12.88-8.42c-5.27-5.19-10.72-10.2-16.1-15.28-1.56-1.47-2.85-3-.83-5,1.85-1.83,3.34-.71,4.83.68,6.35,6,12.76,11.9,19.09,17.91A14.91,14.91,0,0,0,53,232.7c8,3.5,15.91,7.11,23.92,10.51a5.92,5.92,0,0,1,3.86,4.85c1.75,9.43,3.72,18.82,5.39,28.26.62,3.51,2.8,6,4.92,8.42,3,3.47,4.33,7.36,5.07,11.85,3.62,22.09,7.5,44.13,11.31,66.19a6.74,6.74,0,0,0,.43,1.17Z"/><path class="cls-3" d="M121.56,212.26c0,7-5.23,12.79-11.56,12.82s-11.7-5.84-11.66-13c0-7,5.23-12.79,11.55-12.82S121.6,205.06,121.56,212.26ZM116.9,212c-.06-4.5-3.22-8.16-7-8.12s-6.88,3.75-6.89,8.24,3.27,8.44,7.17,8.28S117,216.48,116.9,212Z"/><path class="cls-4" d="M198.72,38a2.9,2.9,0,0,1-5.78-.33,2.69,2.69,0,0,1,3-2.8C197.7,34.91,198.71,36,198.72,38Z"/><path class="cls-4" d="M54.3,181c-.11,1.88-1.14,3-2.9,3a2.65,2.65,0,0,1-2.88-2.89,2.62,2.62,0,0,1,2.86-2.89C53.23,178.21,54.12,179.31,54.3,181Z"/><path class="cls-4" d="M25.38,2.09c1.69.34,2.86,1.22,2.78,3.09a2.67,2.67,0,0,1-3,2.8,2.7,2.7,0,0,1-2.83-3C22.4,3.23,23.6,2.28,25.38,2.09Z"/><path class="cls-4" d="M20.14,16.43c-1.78-.3-2.95-1.25-2.87-3.05a2.65,2.65,0,0,1,3-2.8A2.63,2.63,0,0,1,23,13.52C23,15.38,21.81,16.2,20.14,16.43Z"/><path class="cls-4" d="M20.09,20.51c2,0,3,1.09,3.09,2.83a2.72,2.72,0,0,1-2.83,3,2.67,2.67,0,0,1-2.94-2.84A2.68,2.68,0,0,1,20.09,20.51Z"/><path class="cls-4" d="M194.41,49.09c-.24,1.75-1.17,2.92-3,2.91a2.65,2.65,0,0,1-2.9-2.87,2.63,2.63,0,0,1,2.86-2.89C193.24,46.21,194.14,47.36,194.41,49.09Z"/><path class="cls-4" d="M205.08,177.13c-.34,1.74-1.3,2.85-3.12,2.75a2.88,2.88,0,1,1,.26-5.76C204,174.19,204.91,175.39,205.08,177.13Z"/><path class="cls-4" d="M26.75,32.81c-.32,1.78-1.17,3-3,3a2.67,2.67,0,0,1-2.88-2.91A2.69,2.69,0,0,1,23.73,30C25.58,29.93,26.38,31.24,26.75,32.81Z"/><path class="cls-4" d="M197.71,156.45a2.73,2.73,0,0,1,2.89,2.87,2.67,2.67,0,0,1-2.81,3,2.75,2.75,0,0,1-3-2.86A2.8,2.8,0,0,1,197.71,156.45Z"/><path class="cls-4" d="M204.54,167.76a2.73,2.73,0,0,1-2.94,2.78,2.68,2.68,0,0,1-2.92-2.87,2.73,2.73,0,0,1,2.93-2.9A2.81,2.81,0,0,1,204.54,167.76Z"/><path class="cls-4" d="M64.42,171.86c1.71.24,2.93,1,3,2.9a2.63,2.63,0,0,1-2.77,3,2.68,2.68,0,0,1-3-2.78C61.52,173.16,62.74,172.23,64.42,171.86Z"/><path class="cls-4" d="M199.7,185.18c-.28,1.75-1.23,3-3,2.94a2.91,2.91,0,0,1,0-5.81C198.61,182.29,199.4,183.52,199.7,185.18Z"/><path class="cls-4" d="M202.53,24.45c-.19,1.71-1.07,2.83-2.92,2.85a2.67,2.67,0,0,1-3-2.82,2.73,2.73,0,0,1,2.87-3A2.87,2.87,0,0,1,202.53,24.45Z"/><path class="cls-4" d="M38.3,182.35c1.79.29,2.89,1.34,2.82,3.09a2.72,2.72,0,0,1-3,2.8,2.67,2.67,0,0,1-2.75-3C35.41,183.37,36.57,182.52,38.3,182.35Z"/><path class="cls-1" d="M152.4,110.12c-.09,1.89-1.09,3-2.85,3.07a2.69,2.69,0,0,1-3-2.86,2.63,2.63,0,0,1,2.81-3A2.72,2.72,0,0,1,152.4,110.12Z"/><path class="cls-1" d="M142.76,119.83c-.53,1.92-1.53,3-3.36,2.8a2.92,2.92,0,0,1,.66-5.81C141.89,117,142.56,118.37,142.76,119.83Z"/><path class="cls-1" d="M119.52,141c-1.87-.3-3-1.31-2.93-3.08a2.66,2.66,0,0,1,3-2.76,2.64,2.64,0,0,1,2.78,3C122.36,140,121.08,140.75,119.52,141Z"/><path class="cls-1" d="M112,146.19c-.24,1.78-1.18,2.94-3,2.91a2.69,2.69,0,0,1-2.84-3,2.66,2.66,0,0,1,2.92-2.87C111,143.29,111.81,144.47,112,146.19Z"/><path class="cls-1" d="M102.29,154.21c-.23,1.64-1,2.92-2.85,3a2.65,2.65,0,0,1-3-2.74,2.68,2.68,0,0,1,2.73-3.07C100.92,151.26,101.9,152.45,102.29,154.21Z"/><path class="cls-1" d="M132.26,129.28a2.79,2.79,0,0,1-3,2.79,2.68,2.68,0,0,1-2.91-2.89,2.74,2.74,0,0,1,2.95-2.9A2.86,2.86,0,0,1,132.26,129.28Z"/><path class="cls-1" d="M88,163.44c-1.74-.31-2.87-1.25-2.76-3.09a2.92,2.92,0,0,1,5.83.31C91,162.44,89.75,163.33,88,163.44Z"/><path class="cls-1" d="M174.49,82.09c-.39,1.68-1.23,2.9-3.12,2.79a2.92,2.92,0,0,1,.25-5.84C173.42,79.11,174.29,80.36,174.49,82.09Z"/><path class="cls-1" d="M166.72,91.27c-.24,1.88-1.13,3-3,3a2.67,2.67,0,0,1-2.94-2.86,2.73,2.73,0,0,1,2.9-2.95C165.45,88.44,166.43,89.64,166.72,91.27Z"/><path class="cls-1" d="M178.72,74.9c-1.84-.16-3-1.15-3.05-2.9a2.7,2.7,0,0,1,2.81-3,2.65,2.65,0,0,1,3,2.81C181.53,73.66,180.41,74.58,178.72,74.9Z"/><circle class="cls-4" cx="76.9" cy="167.24" r="3.37"/><circle class="cls-4" cx="183.59" cy="61.83" r="3.66"/><path class="cls-3" d="M34.15,404.37l14.11,31.92c0,.19-.67.62-2,1.25a8,8,0,0,1-2.54.91l-3.94-9.27h-16l-3.94,9.22a8,8,0,0,1-2.54-.91c-1.3-.62-1.92-1.06-1.92-1.25L27.86,408.3H25.7a2.78,2.78,0,0,1-2-2,1.93,1.93,0,0,1,.72-1.2c.53-.53.91-.77,1.25-.77Zm-2.35,6L25.46,425.1H38.14Z"/><path class="cls-3" d="M46.25,408.45v-4.08H74.42v4.08H62.86V438H57.77V408.45Z"/><path class="cls-3" d="M79.51,438v-33.6H84.6v29.52h16.56V438Z"/><path class="cls-3" d="M122.38,404.37l14.11,31.92c0,.19-.67.62-2,1.25a8,8,0,0,1-2.54.91L128,429.18H112l-3.94,9.22a8,8,0,0,1-2.54-.91c-1.3-.62-1.92-1.06-1.92-1.25l12.48-27.94h-2.16a2.78,2.78,0,0,1-2-2,1.93,1.93,0,0,1,.72-1.2c.53-.53.91-.77,1.25-.77Zm-2.35,6-6.34,14.69h12.67Z"/><path class="cls-3" d="M147.48,413.68V438h-4.61V408.3h-2.59a2.78,2.78,0,0,1-2-2,1.93,1.93,0,0,1,.72-1.2c.53-.53.91-.77,1.25-.77h5.57L166,428.66V404.37h4.56V438h-2.93Z"/><path class="cls-3" d="M175.65,408.45v-4.08h28.18v4.08H192.26V438h-5.09V408.45Z"/><path class="cls-3" d="M46.61,443c6.58,0,10.8,3.6,10.8,8.83a7.83,7.83,0,0,1-4.27,7.25c3.79,1.49,6,4.51,6,8.35a8.24,8.24,0,0,1-3.07,6.63A12.25,12.25,0,0,1,48,476.63H34.6V447H32a2.78,2.78,0,0,1-2-2,1.93,1.93,0,0,1,.72-1.2c.53-.53.91-.77,1.25-.77Zm-6.86,4.08v10.32h6.67c3.65,0,5.86-2.11,5.86-5.18s-2.21-5.14-5.86-5.14Zm0,14.4v11h8c3.84,0,6.19-2.26,6.19-5.52s-2.35-5.52-6.19-5.52Z"/><path class="cls-3" d="M65.47,476.63V443h5.09v29.52H87.12v4.08Z"/><path class="cls-3" d="M108.33,443,122.45,475c0,.19-.67.62-2,1.25a8,8,0,0,1-2.54.91L114,467.85H98L94,477.07a8,8,0,0,1-2.54-.91c-1.3-.62-1.92-1.06-1.92-1.25L102,447H99.88a2.78,2.78,0,0,1-2-2,1.93,1.93,0,0,1,.72-1.2c.53-.53.91-.77,1.25-.77Zm-2.35,6-6.34,14.69h12.67Z"/><path class="cls-3" d="M149.9,449.56a11.49,11.49,0,0,0-7.68-2.54,11.22,11.22,0,0,0-8.74,3.5,13.31,13.31,0,0,0-3.17,9.26c0,3.89,1.06,7,3.22,9.36a11.22,11.22,0,0,0,8.74,3.5,12.5,12.5,0,0,0,9.26-3.46c.38,0,1,.38,1.78,1.2s1.2,1.39,1.2,1.78a18.24,18.24,0,0,1-24.82,0,16.94,16.94,0,0,1-4.85-12.39A16.59,16.59,0,0,1,142,442.6a16.09,16.09,0,0,1,12,4.75v6c0,.34-.29.72-.82,1.25s-.91.77-1.25.77-.72-.24-1.25-.77-.77-.91-.77-1.25Z"/><path class="cls-3" d="M167.08,443v14.5l3.75-.38,11.67-14.55c.38,0,1.1.48,2.16,1.39s1.58,1.54,1.58,1.92l-10.9,13.39,11.52,14.4c0,.38-.53,1.06-1.54,2s-1.73,1.39-2.11,1.39l-12.62-15.65-3.5.38v14.83h-5.14V447h-2.59a2.78,2.78,0,0,1-2-2,1.93,1.93,0,0,1,.72-1.2c.53-.53.91-.77,1.25-.77Z"/><path class="cls-4" d="M8.57,489.43a8.1,8.1,0,0,1,6,2.38,8.82,8.82,0,0,1,0,12,8.1,8.1,0,0,1-6,2.38H2.28V491.39H1A1.07,1.07,0,0,1,.36,491a1.07,1.07,0,0,1-.36-.62,1,1,0,0,1,.36-.6c.26-.26.46-.38.62-.38ZM4.85,504.19H8.57a5.27,5.27,0,0,0,4.15-1.73,7.72,7.72,0,0,0,0-9.24,5.21,5.21,0,0,0-4.15-1.75H4.85Z"/><path class="cls-4" d="M31.95,489.43v2H23.35v5.18h7.58v2H23.35v5.5h8.71v2H20.78V491.39h-1.3a1.39,1.39,0,0,1-1-1,1,1,0,0,1,.36-.6c.26-.26.46-.38.62-.38Z"/><path class="cls-4" d="M36.72,503.2a5.17,5.17,0,0,0,3.43,1.1c2.14,0,3.48-1,3.48-2.45a1.57,1.57,0,0,0-.7-1.32,18,18,0,0,0-2.69-1.39l-.65-.29a13.73,13.73,0,0,1-3.67-2.21,3.86,3.86,0,0,1-1.06-2.83c0-2.81,2-4.61,5.59-4.61a6.89,6.89,0,0,1,5,1.8v2.93a1.05,1.05,0,0,1-.38.65c-.26.26-.46.38-.62.38a1.52,1.52,0,0,1-1-1v-1.56a4.79,4.79,0,0,0-3-1c-1.92,0-3.07.94-3.07,2.26a1.81,1.81,0,0,0,.82,1.51,20.4,20.4,0,0,0,3,1.63,15.61,15.61,0,0,1,3.94,2.38,3.27,3.27,0,0,1,1,2.52c0,3-2.09,4.78-5.9,4.78a8.47,8.47,0,0,1-5.5-1.82v-2.9a1.06,1.06,0,0,1,.36-.62c.26-.26.46-.41.62-.41s.38.14.65.41.41.46.41.62Z"/><path class="cls-4" d="M49,506.23a1.39,1.39,0,0,1-1-1,1,1,0,0,1,.36-.6c.26-.26.46-.38.62-.38h2.11V491.39H49a1.39,1.39,0,0,1-1-1,1,1,0,0,1,.36-.6c.26-.26.46-.38.62-.38h6.79c.17,0,.36.12.6.38s.38.43.38.6-.12.36-.38.62a1,1,0,0,1-.6.36H53.71v12.87h2.11c.17,0,.36.12.6.38s.38.43.38.6-.12.36-.38.62a1,1,0,0,1-.6.36Z"/><path class="cls-4" d="M73.3,497.56v6.67a8,8,0,0,1-5.9,2.21,8.3,8.3,0,0,1-8.67-8.62,8.3,8.3,0,0,1,8.57-8.62,8,8,0,0,1,6,2.38v2.59c0,.17-.14.38-.41.65s-.46.38-.62.38-.36-.12-.62-.38a1,1,0,0,1-.38-.65v-1.49a5.75,5.75,0,0,0-3.84-1.27A5.63,5.63,0,0,0,63,493.19a6.66,6.66,0,0,0-1.58,4.63,6.58,6.58,0,0,0,1.61,4.66,5.68,5.68,0,0,0,4.42,1.75,5.81,5.81,0,0,0,3.38-.91v-3.79H68.11a1.39,1.39,0,0,1-1-1,1,1,0,0,1,.36-.6c.26-.26.46-.38.62-.38Z"/><path class="cls-4" d="M79.82,494.08v12.15h-2.3V491.39h-1.3a1.39,1.39,0,0,1-1-1,1,1,0,0,1,.36-.6c.26-.26.46-.38.62-.38H79l10.06,12.15V489.43h2.28v16.8H89.88Z"/><path class="cls-4" d="M109.56,489.43l7.06,16c0,.1-.34.31-1,.62a4,4,0,0,1-1.27.46l-2-4.63h-8l-2,4.61a4,4,0,0,1-1.27-.46c-.65-.31-1-.53-1-.62l6.24-14h-1.08c-.17,0-.36-.12-.62-.36a1.07,1.07,0,0,1-.36-.62,1,1,0,0,1,.36-.6c.26-.26.46-.38.62-.38Zm-1.18,3-3.17,7.34h6.34Z"/><path class="cls-4" d="M130.34,492.69a5.75,5.75,0,0,0-3.84-1.27,5.61,5.61,0,0,0-4.37,1.75,7.59,7.59,0,0,0,0,9.31,5.61,5.61,0,0,0,4.37,1.75,6.25,6.25,0,0,0,4.63-1.73c.19,0,.48.19.89.6s.6.7.6.89a9.12,9.12,0,0,1-12.41,0,8.47,8.47,0,0,1-2.42-6.19,8.3,8.3,0,0,1,8.57-8.62,8,8,0,0,1,6,2.38v3c0,.17-.14.36-.41.62s-.46.38-.62.38-.36-.12-.62-.38-.38-.46-.38-.62Z"/><path class="cls-4" d="M143.66,489.43l7.06,16c0,.1-.34.31-1,.62a4,4,0,0,1-1.27.46l-2-4.63h-8l-2,4.61a4,4,0,0,1-1.27-.46c-.65-.31-1-.53-1-.62l6.24-14h-1.08c-.17,0-.36-.12-.62-.36a1.07,1.07,0,0,1-.36-.62,1,1,0,0,1,.36-.6c.26-.26.46-.38.62-.38Zm-1.18,3-3.17,7.34h6.34Z"/><path class="cls-4" d="M160.2,489.43a8.1,8.1,0,0,1,6,2.38,8.82,8.82,0,0,1,0,12,8.1,8.1,0,0,1-6,2.38h-6.29V491.39h-1.3a1.39,1.39,0,0,1-1-1,1,1,0,0,1,.36-.6c.26-.26.46-.38.62-.38Zm-3.72,14.76h3.72a5.27,5.27,0,0,0,4.15-1.73,7.72,7.72,0,0,0,0-9.24,5.21,5.21,0,0,0-4.15-1.75h-3.72Z"/><path class="cls-4" d="M183.58,489.43v2H175v5.18h7.58v2H175v5.5h8.71v2H172.41V491.39h-1.3a1.39,1.39,0,0,1-1-1,1,1,0,0,1,.36-.6c.26-.26.46-.38.62-.38Z"/><path class="cls-4" d="M191.16,489.43l5.23,12.72,5.14-12.72h2.83l2,16.51q0,.11-1,.29a10.91,10.91,0,0,1-1.37.14l-1.51-12.91-5.06,12.29h-2.14l-5-12.29-1.54,12.91a11.21,11.21,0,0,1-1.39-.14c-.65-.12-1-.22-1-.29l1.78-14.54h-1.22a1.39,1.39,0,0,1-1-1,1,1,0,0,1,.36-.6c.26-.26.46-.38.62-.38Z"/><path class="cls-4" d="M214.27,506.23V499l-6.12-8.33c0-.19.26-.48.77-.89a2.37,2.37,0,0,1,1.1-.6l5.52,7.68,5.52-7.68a2.22,2.22,0,0,1,1.08.6c.53.41.79.7.79.89l-6.12,8.35v7.18Z"/></g></g></svg>