<svg width="18" height="18" viewBox="0 0 18 18" fill="none" xmlns="http://www.w3.org/2000/svg">
<path d="M7.00431 14.0086C8.71268 14.0086 10.2657 13.4029 11.4771 12.3779L16.9129 17.8136C17.0371 17.9379 17.1924 18 17.3632 18C17.5341 18 17.6894 17.9379 17.8136 17.8136C18.0621 17.5651 18.0621 17.1613 17.8136 16.9129L12.3779 11.4771C13.3874 10.2657 14.0086 8.69715 14.0086 7.00431C14.0086 3.13719 10.8714 0 7.00431 0C3.15272 0 0 3.15272 0 7.00431C0 10.8714 3.15272 14.0086 7.00431 14.0086ZM7.00431 1.27351C10.1726 1.27351 12.7351 3.8516 12.7351 7.00431C12.7351 10.1726 10.1726 12.7351 7.00431 12.7351C3.83607 12.7351 1.27351 10.157 1.27351 7.00431C1.27351 3.8516 3.8516 1.27351 7.00431 1.27351Z" fill="black"/>
</svg>
