<svg width="16" height="22" viewBox="0 0 16 22" fill="none" xmlns="http://www.w3.org/2000/svg">
<path d="M2.56667 0C1.15111 0 0 1.15625 0 2.57813C0 4.00679 1.14905 5.15625 2.56667 5.15625C4.00969 5.15625 5.13333 3.98514 5.13333 2.57813C5.13333 1.15625 3.98223 0 2.56667 0Z" transform="translate(5.13379 5.15625)" fill="#4C62D7"/>
<path d="M7.7 0C3.45396 0 0 3.46938 0 7.73438C0 9.17512 0.397277 10.5813 1.14863 11.8011L7.2614 21.6951C7.51486 22.1062 8.11246 22.0999 8.35801 21.6862L14.3147 11.6966C15.024 10.5026 15.4 9.13232 15.4 7.73438C15.4 3.46938 11.946 0 7.7 0ZM7.7 11.6102C5.54635 11.6102 3.84144 9.84934 3.84144 7.73438C3.84144 5.60188 5.57698 3.85859 7.7 3.85859C9.82302 3.85859 11.5586 5.60188 11.5586 7.73438C11.5586 9.83069 9.87658 11.6102 7.7 11.6102Z" fill="#4C62D7"/>
</svg>
