<svg width="27" height="39" viewBox="0 0 27 39" fill="none" xmlns="http://www.w3.org/2000/svg">
<path d="M4.5 0C2.01818 0 0 2.04971 0 4.57031C0 7.10295 2.01458 9.14063 4.5 9.14063C7.02998 9.14063 9 7.06456 9 4.57031C9 2.04971 6.98183 0 4.5 0Z" transform="translate(9.00098 9.14062)" fill="#4C62D7"/>
<path d="M13.5 0C6.05565 0 0 6.15027 0 13.7109C0 16.265 0.696525 18.7577 2.01382 20.9202L12.731 38.4594C13.1754 39.1883 14.2231 39.1772 14.6536 38.4438L25.0972 20.7349C26.3408 18.6182 27 16.1891 27 13.7109C27 6.15027 20.9444 0 13.5 0ZM13.5 20.5816C9.72412 20.5816 6.735 17.4602 6.735 13.7109C6.735 9.9306 9.77782 6.84024 13.5 6.84024C17.2222 6.84024 20.265 9.9306 20.265 13.7109C20.265 17.4271 17.3161 20.5816 13.5 20.5816Z" fill="#4C62D7"/>
</svg>
