<svg xmlns="http://www.w3.org/2000/svg" xmlns:xlink="http://www.w3.org/1999/xlink" viewBox="0 0 792.157 458.209"><defs><style>.a{fill:url(#a);}.b{fill:#fff;font-size:50px;font-family:YuGothic-Bold, Yu Gothic;font-weight:700;opacity:0.85;}.c{fill:#dfdfdf;font-size:20px;font-family:SegoeUI, Segoe UI;letter-spacing:0.023em;}.d{fill:url(#b);}.e{fill:url(#d);}.f{fill:url(#f);}.g{opacity:0.8;fill:url(#g);}.h{fill:url(#h);}.i{fill:url(#i);}.j{opacity:0.49;fill:url(#j);}</style><linearGradient id="a" x1="0.5" x2="0.5" y2="1" gradientUnits="objectBoundingBox"><stop offset="0" stop-color="#647283"/><stop offset="1" stop-color="#474b56"/></linearGradient><linearGradient id="b" x1="0.5" x2="0.5" y2="1" gradientUnits="objectBoundingBox"><stop offset="0" stop-color="#fff"/><stop offset="1" stop-color="gray"/></linearGradient><linearGradient id="d" x1="0.5" x2="0.5" y2="1" gradientUnits="objectBoundingBox"><stop offset="0" stop-color="#d9d9d9"/><stop offset="1" stop-color="#606e7e"/></linearGradient><linearGradient id="f" x1="0.5" x2="0.5" y2="1" gradientUnits="objectBoundingBox"><stop offset="0" stop-color="#7c8695"/><stop offset="1" stop-color="#657383"/></linearGradient><linearGradient id="g" x1="0.5" x2="-0.047" y2="0.407" gradientUnits="objectBoundingBox"><stop offset="0" stop-color="#596b7c"/><stop offset="1" stop-color="#637587"/></linearGradient><linearGradient id="h" x2="0.5" y2="1" xlink:href="#g"/><linearGradient id="i" x1="0.5" x2="0.5" y2="1" gradientUnits="objectBoundingBox"><stop offset="0" stop-color="#7d8897"/><stop offset="1" stop-color="#515b68"/></linearGradient><linearGradient id="j" x1="0.917" y1="0.721" x2="0.41" y2="0.045" gradientUnits="objectBoundingBox"><stop offset="0" stop-color="#8b959e"/><stop offset="1" stop-color="#637587"/></linearGradient></defs><g transform="translate(-277 -277.791)"><g transform="translate(51.581 -205)"><path class="a" d="M1237.419,516.224h476.189l198.811,196.739V909h-675Z" transform="translate(-1012 32)"/><text class="b" transform="translate(289.356 651)"><tspan x="0" y="49">Hi, I’m Svyat.</tspan><tspan x="0" y="99">Nice to meet </tspan></text><text class="c" transform="translate(292.356 800)"><tspan x="0" y="22">Front-end / WordPress Developer</tspan></text><rect class="d" width="314" height="3" transform="translate(292.419 938)"/></g><path class="d" d="M980.667,543.754Z" transform="translate(-30 -12)"/><path class="e" d="M872.455,358.629l29.361-82.841L987.8,493.9l64.631-135.273h0" transform="translate(-281 67)"/><path class="d" d="M621.108,438.685h0Z" transform="translate(-30 -11)"/><path class="f" d="M819.291,353.788h86.967l-78.649,58.731Z" transform="translate(1816.523 635.532) rotate(166)"/><path class="g" d="M819.291,353.788h50.38L824.11,397.835Z" transform="matrix(-0.799, -0.602, 0.602, -0.799, 1344.396, 1118.897)"/><path class="h" d="M819.291,353.788h73.053l-66.065,49.659Z" transform="matrix(-0.719, -0.695, 0.695, -0.719, 1205.462, 1218.943)"/><path class="i" d="M819.291,353.788H988.035l-152.6,133.627Z" transform="matrix(0.5, -0.866, 0.866, 0.5, 153.025, 1068.957)"/><path class="j" d="M1012.974,292.567l44.94,29.863V292.567Z" transform="matrix(0.766, -0.643, 0.643, 0.766, -76.947, 803.485)"/></g></svg>