<svg xmlns="http://www.w3.org/2000/svg" viewBox="0 0 792.157 458.209"><defs><style>.a,.b,.d,.e,.f{fill:#fff;}.b{font-size:50px;font-family:YuGothic-Bold, Yu Gothic;font-weight:700;}.c{fill:#dfdfdf;font-size:20px;font-family:SegoeUI, Segoe UI;letter-spacing:0.023em;}.d{opacity:0.22;}.e{opacity:0.55;}.f{opacity:0.49;}</style></defs><g transform="translate(-277 -277.791)"><g transform="translate(51.581 -205)"><path class="a" d="M1237.419,516.224h476.189l198.811,196.739V909h-675Z" transform="translate(-1012 32)"/><text class="b" transform="translate(289.356 651)"><tspan x="0" y="49">Hi, I’m Svyat.</tspan><tspan x="0" y="99">Nice to meet </tspan></text><text class="c" transform="translate(292.356 800)"><tspan x="0" y="22">Front-end / WordPress Developer</tspan></text><rect class="a" width="314" height="3" transform="translate(292.419 938)"/></g><path class="a" d="M980.667,543.754Z" transform="translate(-30 -12)"/><path class="a" d="M872.455,358.629l29.361-82.841L987.8,493.9l64.631-135.273h0" transform="translate(-281 67)"/><path class="a" d="M621.108,438.685h0Z" transform="translate(-30 -11)"/><path class="a" d="M819.291,353.788h86.967l-78.649,58.731Z" transform="translate(1816.523 635.532) rotate(166)"/><path class="d" d="M819.291,353.788h50.38L824.11,397.835Z" transform="matrix(-0.799, -0.602, 0.602, -0.799, 1344.396, 1118.897)"/><path class="e" d="M819.291,353.788h73.053l-66.065,49.659Z" transform="matrix(-0.719, -0.695, 0.695, -0.719, 1205.462, 1218.943)"/><path class="a" d="M819.291,353.788H988.035l-152.6,133.627Z" transform="matrix(0.5, -0.866, 0.866, 0.5, 153.025, 1068.957)"/><path class="f" d="M1012.974,292.567l44.94,29.863V292.567Z" transform="matrix(0.766, -0.643, 0.643, 0.766, -76.947, 803.485)"/></g></svg>