<svg xmlns="http://www.w3.org/2000/svg" xmlns:xlink="http://www.w3.org/1999/xlink" viewBox="0 0 792.157 458.209">
  <defs>
    <style>
      .cls-1 {
        fill: url(#linear-gradient);
      }

      .cls-2 {
        fill: #fff;
        font-size: 50px;
        font-family: YuGothic-Bold, Yu Gothic;
        font-weight: 700;
        opacity: 0.85;
      }

      .cls-3 {
        fill: #dfdfdf;
        font-size: 20px;
        font-family: SegoeUI, Segoe UI;
        letter-spacing: 0.023em;
      }

      .cls-4 {
        fill: url(#linear-gradient-2);
      }

      .cls-5 {
        fill: url(#linear-gradient-3);
      }

      .cls-6 {
        opacity: 0.8;
        fill: url(#linear-gradient-5);
      }

      .cls-7 {
        fill: url(#linear-gradient-6);
      }

      .cls-8 {
        fill: url(#linear-gradient-7);
      }

      .cls-9 {
        fill: url(#linear-gradient-8);
      }

      .cls-10 {
        opacity: 0.49;
        fill: url(#linear-gradient-9);
      }
    </style>
    <linearGradient id="linear-gradient" x1="0.5" x2="0.5" y2="1" gradientUnits="objectBoundingBox">
      <stop offset="0" stop-color="#647283"/>
      <stop offset="1" stop-color="#5c6271"/>
    </linearGradient>
    <linearGradient id="linear-gradient-2" x1="0.5" x2="0.5" y2="1" gradientUnits="objectBoundingBox">
      <stop offset="0" stop-color="#fff"/>
      <stop offset="1" stop-color="gray"/>
    </linearGradient>
    <linearGradient id="linear-gradient-3" x1="0.5" x2="0.5" y2="1" gradientUnits="objectBoundingBox">
      <stop offset="0" stop-color="#c9cccf"/>
      <stop offset="1" stop-color="#606e7e"/>
    </linearGradient>
    <linearGradient id="linear-gradient-5" x1="0.5" x2="-0.047" y2="0.407" gradientUnits="objectBoundingBox">
      <stop offset="0" stop-color="#596b7c"/>
      <stop offset="1" stop-color="#637587"/>
    </linearGradient>
    <linearGradient id="linear-gradient-6" x2="0.5" y2="1" xlink:href="#linear-gradient-5"/>
    <linearGradient id="linear-gradient-7" x1="0.5" x2="0.5" y2="1" gradientUnits="objectBoundingBox">
      <stop offset="0" stop-color="#7c8695"/>
      <stop offset="1" stop-color="#657383"/>
    </linearGradient>
    <linearGradient id="linear-gradient-8" x1="0.5" x2="0.5" y2="1" gradientUnits="objectBoundingBox">
      <stop offset="0" stop-color="#7d8897"/>
      <stop offset="1" stop-color="#515b68"/>
    </linearGradient>
    <linearGradient id="linear-gradient-9" x1="0.917" y1="0.721" x2="0.41" y2="0.045" gradientUnits="objectBoundingBox">
      <stop offset="0" stop-color="#8b959e"/>
      <stop offset="1" stop-color="#637587"/>
    </linearGradient>
  </defs>
  <g id="slogo-main" transform="translate(1380 -288.791)">
    <g id="slogo-side">
      <path id="Path_142" data-name="Path 142" class="cls-1" d="M1237.419,516.224h476.189l198.811,196.739V909h-675Z" transform="translate(-2617.419 -162)"/>
      <text id="Hi_I_m_Svyat._Nice_to_meet_you." data-name="Hi, I’m Svyat.
Nice to meet you." class="cls-2" transform="translate(-1316.063 457)"><tspan x="0" y="49">Hi, I’m Svyat.</tspan><tspan x="0" y="99">Nice to meet </tspan></text>
      <text id="Front-end_WordPress_Developer" data-name="Front-end / WordPress Developer" class="cls-3" transform="translate(-1313.063 606)"><tspan x="0" y="22">Front-end / WordPress Developer</tspan></text>
      <rect id="Rectangle_4" data-name="Rectangle 4" class="cls-4" width="314" height="3" transform="translate(-1313 744)"/>
    </g>
    <path id="slogo-tria-1" class="cls-5" d="M872.455,358.629l29.361-82.841L987.8,493.9l64.631-135.273h0" transform="translate(-1938 78)"/>
    <path id="Path_84" data-name="Path 84" class="cls-4" d="M621.108,438.685h0Z" transform="translate(-1687)"/>
    <path id="Path_86" data-name="Path 86" class="cls-6" d="M819.291,353.788h50.38L824.11,397.835Z" transform="matrix(-0.799, -0.602, 0.602, -0.799, -312.604, 1129.897)"/>
    <path id="Path_87" data-name="Path 87" class="cls-7" d="M819.291,353.788h73.053l-66.065,49.659Z" transform="matrix(-0.719, -0.695, 0.695, -0.719, -451.538, 1229.943)"/>
    <g id="slogo-tria-2">
      <path id="Path_85" data-name="Path 85" class="cls-8" d="M819.291,353.788h86.967l-78.649,58.731Z" transform="translate(159.523 646.532) rotate(166)"/>
      <path id="Path_88" data-name="Path 88" class="cls-9" d="M819.291,353.788H988.035l-152.6,133.627Z" transform="matrix(0.5, -0.866, 0.866, 0.5, -1503.975, 1079.957)"/>
    </g>
    <path id="Path_90" data-name="Path 90" class="cls-10" d="M1012.974,292.567l44.94,29.863V292.567Z" transform="matrix(0.766, -0.643, 0.643, 0.766, -1733.947, 814.485)"/>
  </g>
</svg>
