<svg width="22" height="22" viewBox="0 0 22 22" fill="none" xmlns="http://www.w3.org/2000/svg">
<path fill-rule="evenodd" clip-rule="evenodd" d="M9.1575 0C4.0975 0 0 4.10667 0 9.16667C0 14.2267 4.0975 18.3333 9.1575 18.3333C14.2267 18.3333 18.3333 14.2267 18.3333 9.16667C18.3333 4.10667 14.2267 0 9.1575 0Z" transform="translate(1.8335 1.83333)" fill="#4C62D7"/>
<path fill-rule="evenodd" clip-rule="evenodd" d="M1.375 0H0V5.5L4.8125 8.3875L5.5 7.26L1.375 4.8125V0Z" transform="translate(10.083 6.41667)" fill="white"/>
<mask id="mask0" mask-type="alpha" maskUnits="userSpaceOnUse" x="10" y="6" width="6" height="9">
<path fill-rule="evenodd" clip-rule="evenodd" d="M1.375 0H0V5.5L4.8125 8.3875L5.5 7.26L1.375 4.8125V0Z" transform="translate(10.083 6.41667)" fill="white"/>
</mask>
<g mask="url(#mask0)">
<path fill-rule="evenodd" clip-rule="evenodd" d="M0 0H22V22H0V0Z" fill="white"/>
</g>
</svg>
