<svg width="29" height="22" viewBox="0 0 29 22" fill="none" xmlns="http://www.w3.org/2000/svg">
<path d="M0.379156 4.47594e-07C0.133846 0.43993 0 0.968006 0 1.49601V16.8961C0 17.402 0.111538 17.8861 0.33469 18.3041L9.59231 9.17406L0.379156 4.47594e-07Z" transform="translate(0 1.80405)" fill="#4C62D7"/>
<path d="M15.9054 0L14.9685 0.946006C13.6299 2.26616 11.5332 2.26616 10.1946 0.946006L9.25769 0L-5.67314e-08 9.12999C0.423846 9.35006 0.91469 9.46006 1.42769 9.46006H23.7354C24.2484 9.46006 24.7392 9.35006 25.1631 9.12999L15.9054 0Z" transform="translate(1.91895 12.5399)" fill="#4C62D7"/>
<path d="M23.6462 0H1.33839C0.869851 0 0.401538 0.0879268 -4.08466e-08 0.286001C11.4534 11.7083 9.4305 9.69664 11.7115 11.9461C12.1131 12.3641 12.8715 12.3641 13.273 11.9461C15.5537 9.69693 13.5279 11.7115 24.9845 0.286001C24.583 0.0879268 24.1146 0 23.6462 0Z" transform="translate(2.0083)" fill="#4C62D7"/>
<path d="M9.21315 4.47594e-07L0 9.17406L9.25762 18.3041C9.48077 17.8861 9.59231 17.402 9.59231 16.8961V1.49601C9.59231 0.968006 9.45846 0.43993 9.21315 4.47594e-07Z" transform="translate(19.4082 1.80405)" fill="#4C62D7"/>
</svg>
