<?xml-stylesheet href="../css/style.css" type="text/css"?>
<svg class="view" width="12" height="12" viewBox="0 0 12 12" fill="none" xmlns="http://www.w3.org/2000/svg">
	<path class="view_content" fill-rule="evenodd" clip-rule="evenodd" d="M0 2.66667H2.68085V0H0V2.66667V2.66667ZM4.02124 10.6667H6.70209V8H4.02124V10.6667V10.6667ZM0 10.6667H2.68085V8H0V10.6667V10.6667ZM0 6.66667H2.68085V4H0V6.66667V6.66667ZM4.02124 6.66667H6.70209V4H4.02124V6.66667V6.66667ZM8.04248 0V2.66667H10.7233V0H8.04248V0ZM4.02124 2.66667H6.70209V0H4.02124V2.66667V2.66667ZM8.04248 6.66667H10.7233V4H8.04248V6.66667V6.66667ZM8.04248 10.6667H10.7233V8H8.04248V10.6667V10.6667Z" transform="translate(0.680908 0.666672)" fill="rgba(26, 26, 26, 0.4)"/>
	<mask id="mask0" mask-type="alpha" maskUnits="userSpaceOnUse" x="0" y="0" width="12" height="12">
		<path fill-rule="evenodd" clip-rule="evenodd" d="M0 2.66667H2.68085V0H0V2.66667V2.66667ZM4.02124 10.6667H6.70209V8H4.02124V10.6667V10.6667ZM0 10.6667H2.68085V8H0V10.6667V10.6667ZM0 6.66667H2.68085V4H0V6.66667V6.66667ZM4.02124 6.66667H6.70209V4H4.02124V6.66667V6.66667ZM8.04248 0V2.66667H10.7233V0H8.04248V0ZM4.02124 2.66667H6.70209V0H4.02124V2.66667V2.66667ZM8.04248 6.66667H10.7233V4H8.04248V6.66667V6.66667ZM8.04248 10.6667H10.7233V8H8.04248V10.6667V10.6667Z" transform="translate(0.680908 0.666672)" fill="white"/>
	</mask>
	<g mask="url(#mask0)">
		<path class="view_content" fill-rule="evenodd" clip-rule="evenodd" d="M0 0H8.20635V9H0V0Z" transform="translate(1.49194 1.5)" fill="rgba(26, 26, 26, 0.4)"/>
	</g>
</svg>
