<svg xmlns="http://www.w3.org/2000/svg" viewBox="0 0 838.86 664.71"><defs><style>.cls-1{isolation:isolate;}.cls-2{fill:#dadcd2;}.cls-2,.cls-3,.cls-4{stroke:#fff;stroke-linecap:square;stroke-linejoin:bevel;stroke-width:2.02px;}.cls-3,.cls-6{fill:#b5b9a6;}.cls-4{fill:#cb9b63;}.cls-5{opacity:0.45;}.cls-5,.cls-7{mix-blend-mode:multiply;}.cls-8,.cls-9{fill-rule:evenodd;}.cls-10,.cls-9{fill:#231f20;}</style></defs><title>Ресурс 3</title><g class="cls-1"><g id="Шар_2" data-name="Шар 2"><g id="Layer_1" data-name="Layer 1"><path class="cls-2" d="M723.42,416.29H669.24V377.12h.69v-205h4V130.2h.17v-6.56H663.2v22.6H646.46V149h-409v54h.69v1.38l-7.59,4.32-.69-1.21,1.38-.86V203.7h-23v5.18H192.64V203.7H174.36v5.18H158.65V203.7H130.36v48.49h28.29V247h15.71v5.18h9.14v90.42l15.88-9.32,5.34,9.32,2.08,3.28-21.75,21.57H133.12l-1.21,1,8.28,8.28,35,35.21,1,.86,1-.86.86.86,2.42,2.93h1.89v1.38h19.16L215.25,431l4,4,32.44,32.62,45.55,45.72h49.7l46.59-45.72h85.93l11.39,11.39,34.68,34.16,2.25,2.24v62.12H580l62.46-62.12,2.24-2.24V469.61H668.2l2.07-2.07.52-.52.52.52,1.73,1.9,1.72-1.9.52-.52,45.38-44.86.86-.87L720,419.74Zm-239-239.16h32.78v10.53h36.24V177.13h86.62V201.8h-23v52.63h21.4v-2.24h1.55v26.57H607.29V268.07H571.4v10.69H510.66v-.69l-2.24-.17-.86-3.62-.18-3.8.69-3.79-1.89-1.39-.69-.34-.87-.86-.69.86-.51.34L497,258.92l1.21-1-1.9-2.93-.34-.52-.18-.17-1.55.17L492,255H488.4l-3.79-.86L484.44,197ZM198.86,275l5-15,15.19,5-5,15ZM620.75,419.74v2.42h-2.93v56.77H553.11v-44H445.61v-4l-13.29-13.81-1.38-1.38-2.76-2.93-1-.86-34-35.21V315.34H272.88V197H455.79V306.89H619.37V416.12h1.38v3.62Z"/><polygon class="cls-3" points="674.07 130.19 673.9 130.19 673.9 172.13 714.97 172.13 714.97 130.19 714.97 123.64 714.97 90.68 714.97 82.22 714.97 75.67 714.97 74.46 714.97 63.24 714.97 56.17 714.97 50.3 714.97 33.22 714.97 27.87 714.97 20.28 714.97 16.83 714.97 0.95 668.89 16.83 650.6 20.28 614.02 27.87 587.28 33.22 489.78 50.3 441.12 56.17 390.05 63.24 309.64 74.46 299.8 75.67 236.99 82.22 236.99 90.68 236.99 92.41 330.52 92.41 330.52 142.28 330.52 149 343.63 149 343.63 142.28 346.74 142.28 346.74 92.41 346.74 90.68 647.84 90.68 647.84 123.64 647.84 146.24 663.2 146.24 663.2 123.64 674.07 123.64 674.07 130.19"/><polygon class="cls-3" points="507.21 525.86 395.05 525.86 395.05 541.91 395.05 556.4 395.05 582.8 420.76 582.8 420.76 583.15 420.76 638.71 478.57 639.23 478.57 638.71 478.57 583.15 507.21 583.15 507.21 582.8 507.21 556.4 527.75 556.4 527.75 541.91 507.21 541.91 507.21 525.86"/><polygon class="cls-3" points="669.93 364.52 669.93 377.12 669.24 377.12 669.24 379.88 725.66 379.88 725.66 383.85 725.66 388.16 797.96 388.16 802.28 383.85 802.28 379.88 802.28 377.12 802.28 364.52 669.93 364.52"/><polygon class="cls-3" points="195.58 475.13 202.31 468.4 195.06 462.19 195.06 440.62 195.06 420.95 195.06 417.15 182.46 417.15 182.46 420.95 177.63 420.95 177.63 440.62 161.24 440.62 161.24 462.19 161.24 468.4 161.24 475.13 161.24 506.53 204.21 506.53 227.33 529.66 238.37 541.04 249.76 529.66 226.81 506.53 195.58 475.13"/><polygon class="cls-4" points="261.84 479.1 239.23 456.32 216.29 479.1 207.83 487.55 230.44 510.33 253.38 487.55 261.84 479.1"/><rect class="cls-4" x="507.21" y="556.4" width="19.67" height="19.67"/><polygon class="cls-4" points="202.14 264.96 198.86 274.97 214.04 279.97 215.6 274.97 219.05 264.96 203.86 259.96 202.14 264.96"/><polygon class="cls-4" points="268.22 511.37 281.17 498.6 262.88 480.13 244.59 498.6 231.64 511.37 249.76 529.66 268.22 511.37"/><polygon class="cls-4" points="667 470.82 645.43 470.82 645.43 479.96 645.43 498.77 645.43 503.77 645.43 512.06 659.23 526.03 663.54 530.17 667.86 534.49 672.17 530.17 667.69 530.17 667.69 526.03 672.17 526.03 672.17 512.06 672.17 503.77 669.93 503.77 669.93 498.77 672.17 498.77 672.17 479.96 667 479.96 667 470.82"/><polygon class="cls-4" points="622.82 535.87 581.58 576.76 603.32 598.5 625.24 576.76 666.48 535.87 644.74 514.13 622.82 535.87"/><polygon class="cls-4" points="580.2 578.14 507.21 578.14 507.21 583.15 478.57 583.15 478.57 599.89 478.57 634.91 478.57 639.23 501.35 639.23 501.35 634.91 507.04 634.91 507.04 639.23 554.49 639.23 554.49 634.91 563.12 634.91 563.12 638.37 566.74 634.91 601.94 599.89 585.21 583.15 580.2 578.14"/><polygon class="cls-4" points="507.21 541.91 526.88 541.91 526.88 525.86 526.88 515.85 486.85 476.17 479.08 468.57 453.03 468.57 453.03 476.17 446.13 476.17 446.13 468.57 425.59 468.57 425.59 476.17 425.59 515.85 425.59 525.86 507.21 525.86 507.21 541.91"/><polygon class="cls-4" points="364.68 497.22 379.18 512.23 396.78 512.23 396.78 525.86 423.87 525.86 423.87 512.23 423.87 497.22 423.87 468.57 394.02 468.57 364.68 497.22"/><polygon class="cls-4" points="395.05 580.73 395.05 543.63 395.05 541.39 395.05 538.46 395.05 514.3 395.05 513.95 378.49 513.95 364.68 499.63 363.47 498.43 362.1 499.63 347.77 513.95 347.25 514.3 296.7 514.3 296.35 513.95 282.37 499.63 268.05 513.95 267.71 514.3 243.2 538.46 246.14 541.39 243.72 543.63 280.47 580.73 282.55 582.8 282.72 582.98 282.89 582.8 284.96 580.73 287.03 582.8 289.45 585.22 287.21 587.46 322.06 622.49 325.34 625.77 328.62 622.49 331.9 625.77 333.79 627.67 330.35 630.95 334.14 634.74 346.91 634.74 346.91 635.26 346.91 638.71 393.32 638.71 393.32 635.26 399.02 635.26 399.02 638.71 420.76 638.71 420.76 635.26 420.76 634.74 420.76 630.95 420.76 627.67 420.76 625.77 420.76 622.49 420.76 587.46 420.76 585.22 420.76 582.8 395.05 582.8 395.05 580.73"/><polygon class="cls-4" points="319.13 197.84 319.13 198.01 319.13 203.36 319.13 251.84 319.13 253.92 341.21 253.92 341.21 251.84 346.39 251.84 346.39 252.71 346.39 253.92 396.78 253.92 396.78 252.71 402.64 252.71 402.64 253.92 424.9 253.92 424.9 252.71 424.9 251.84 424.9 203.36 424.9 202.84 424.9 197.84 402.99 197.84 402.99 202.84 396.95 202.84 396.95 197.84 347.6 197.84 347.6 202.84 347.6 203.36 342.6 203.36 342.6 198.01 319.13 197.84"/><polygon class="cls-4" points="273.75 197.84 273.75 202.67 273.75 252.54 273.75 253.92 285.31 253.92 285.31 252.54 291.86 252.54 291.86 253.92 317.23 253.92 317.23 252.54 317.23 202.67 317.23 197.84 292.55 197.84 292.55 202.67 286 202.67 286 197.84 273.75 197.84"/><polygon class="cls-4" points="428.53 197.84 428.53 203.53 428.53 250.12 425.77 250.12 425.77 252.71 425.77 257.54 425.77 307.06 425.77 309.65 449.58 309.65 449.58 307.06 454.93 307.06 454.93 257.54 450.44 257.54 450.44 252.71 454.93 252.71 454.93 250.12 454.93 203.53 450.61 203.53 450.61 197.84 428.53 197.84"/><polygon class="cls-4" points="341.73 307.41 341.73 306.72 342.94 306.72 342.94 305.16 342.94 258.06 341.21 258.06 341.21 257.37 341.21 255.81 291.86 255.81 291.86 257.37 285.31 257.37 285.31 255.81 273.75 255.81 273.75 257.37 273.75 258.06 273.75 305.16 273.75 314.48 284.96 314.48 284.96 305.16 288.41 305.16 288.41 306.72 288.41 307.41 291.52 307.41 291.52 312.24 288.41 312.24 288.41 312.93 288.41 314.48 342.94 314.48 342.94 312.93 341.73 312.93 341.73 312.24 341.73 307.41"/><polygon class="cls-4" points="344.84 312.93 344.84 314.48 371.41 314.48 371.41 312.93 371.41 306.72 371.41 258.06 371.41 255.81 346.39 255.81 346.39 258.06 344.84 258.06 344.84 306.72 346.05 306.72 346.05 312.93 344.84 312.93"/><polygon class="cls-4" points="450.1 361.42 450.96 361.42 450.96 360.21 450.96 315.35 450.96 312.76 449.58 312.76 449.58 312.07 449.58 311.2 424.9 311.2 424.9 307.24 424.9 257.54 424.9 255.81 402.64 255.81 402.64 257.54 396.78 257.54 396.78 255.81 373.31 255.81 373.31 257.54 373.31 307.24 373.31 313.27 373.31 314.48 393.15 314.48 393.15 313.27 396.09 313.27 396.09 307.24 402.13 307.24 402.13 311.2 402.13 312.07 400.92 312.07 400.92 312.76 400.92 315.35 394.02 315.35 394.02 360.21 394.02 364.18 395.57 364.18 395.57 360.21 400.92 360.21 400.92 361.42 400.92 364.35 450.1 364.35 450.1 361.42"/><polygon class="cls-4" points="614.37 364.18 614.37 360.21 618.51 360.21 618.51 360.04 618.51 312.93 613.68 312.93 613.68 312.76 613.68 307.75 564.67 307.75 564.67 312.76 559.15 312.76 559.15 312.58 559.15 307.75 509.11 307.75 509.11 312.58 504.62 312.58 504.62 307.75 454.93 307.75 454.93 312.58 454.93 312.76 452.86 312.76 452.86 312.93 452.86 360.04 452.86 361.42 453.55 361.42 453.55 364 453.55 364.35 503.59 364.35 503.59 364 504.62 364 504.62 361.42 504.62 360.04 509.11 360.04 509.11 360.21 508.94 364 511.01 364 511.01 364.18 511.01 364.35 559.84 364.18 559.84 364 559.84 360.21 563.98 360.21 563.98 364.18 566.22 364.18 566.22 368.49 562.09 368.49 562.09 368.84 562.09 416.12 562.09 416.98 565.53 416.98 565.53 418.01 614.88 418.01 614.88 416.98 614.88 416.12 618.51 416.12 618.51 368.84 614.37 368.84 614.37 368.49 614.37 364.18"/><polygon class="cls-4" points="447.68 366.25 400.92 366.25 400.92 370.73 394.02 370.73 394.02 371.6 394.02 376.43 417.31 400.41 440.26 424.05 445.61 429.75 445.61 424.05 445.61 400.41 448.03 400.41 448.03 376.43 448.03 371.6 447.68 371.6 447.68 370.73 447.68 366.25"/><polygon class="cls-4" points="553.97 433.2 560.19 433.2 560.19 424.05 560.19 421.81 554.49 421.81 554.49 414.91 560.19 414.91 560.19 413.7 560.19 371.6 560.19 371.08 560.19 369.7 556.22 369.7 556.22 366.25 511.01 366.25 511.01 369.7 511.01 371.08 503.59 371.08 503.59 366.25 454.93 366.25 454.93 371.08 454.93 371.6 449.58 371.6 449.58 413.7 454.41 413.7 454.41 414.91 454.41 421.81 454.41 424.05 449.58 424.05 449.58 433.2 449.58 434.06 553.97 434.06 553.97 433.2"/><polygon class="cls-4" points="584.69 472.71 584.69 471.33 584.69 469.78 584.69 468.4 616.96 468.4 616.96 434.93 616.96 422.16 614.88 422.16 614.88 421.12 614.88 419.74 565.53 419.74 565.53 421.12 562.09 421.12 562.09 422.16 562.09 434.93 553.97 434.93 553.97 468.4 553.97 469.78 561.22 469.78 561.22 471.33 565.19 471.33 565.19 472.71 584.69 472.71"/><polygon class="cls-4" points="675.45 198.53 675.45 199.74 710.65 199.74 710.65 198.53 712.38 198.53 712.38 197.84 712.38 175.75 705.13 175.75 705.13 172.99 705.13 172.13 673.9 172.13 673.9 172.99 670.79 172.99 670.79 175.75 670.79 197.84 675.45 197.84 675.45 198.53"/><polygon class="cls-4" points="675.11 308.1 675.11 309.48 709.79 309.48 709.79 308.1 712.38 308.1 712.38 307.58 712.38 258.23 712.38 257.54 710.65 257.54 710.65 253.4 712.38 253.4 712.38 252.19 712.38 203.36 712.38 202.84 710.65 202.84 710.65 201.29 675.45 201.29 675.45 202.84 675.45 203.36 670.79 203.36 670.79 252.19 675.45 252.19 675.45 253.4 675.45 257.54 675.45 258.23 670.79 258.23 670.79 307.58 675.11 307.58 675.11 308.1"/><polygon class="cls-4" points="675.11 361.76 675.11 362.97 709.79 362.97 709.79 361.76 712.38 361.76 712.38 360.21 712.38 313.1 712.38 312.58 709.79 312.58 709.79 311.03 675.11 311.03 675.11 312.58 675.11 313.1 670.79 313.1 670.79 360.21 675.11 360.21 675.11 361.76"/><polygon class="cls-4" points="802.28 364.7 802.28 383.85 797.96 388.16 725.66 388.16 725.66 379.88 669.93 379.88 669.93 388.16 669.93 398.17 669.93 400.07 669.93 401.97 669.93 403.87 669.93 415.6 723.42 415.6 723.42 416.29 728.94 416.29 728.94 418.01 728.94 420.43 749.65 420.43 749.65 418.01 754.83 418.01 754.83 420.43 775.7 420.43 775.7 418.01 780.54 418.01 780.54 420.43 781.92 420.43 784.33 418.01 786.06 416.29 786.75 415.6 799 403.87 797.1 401.97 799 400.07 800.9 398.17 802.79 400.07 804.69 398.17 815.05 388.16 819.36 383.85 838.86 364.7 802.28 364.7"/><polygon class="cls-4" points="348.46 142.79 348.46 143.14 348.46 148.14 397.64 148.14 397.64 143.14 403.85 143.14 403.85 148.14 451.13 148.14 451.13 143.14 451.13 142.79 455.45 142.79 455.45 148.14 480.81 148.14 480.81 142.79 480.81 142.28 480.81 95.69 480.81 93.79 480.81 92.06 456.13 92.06 456.13 93.79 451.82 93.79 451.82 92.06 352.95 92.06 352.95 93.79 352.95 95.69 346.74 95.69 346.74 142.28 348.46 142.28 348.46 142.79"/><polygon class="cls-4" points="562.77 143.31 566.74 143.31 566.74 143.48 566.74 148.14 616.09 148.14 616.09 143.48 620.23 143.48 620.23 146.24 620.23 148.14 645.43 148.14 645.43 146.24 646.46 146.24 646.46 143.48 646.46 143.31 646.46 93.96 646.46 92.06 621.1 92.06 621.1 93.96 617.13 93.96 617.13 92.06 567.26 92.06 567.26 93.96 563.29 93.96 563.29 92.06 538.1 92.06 538.1 93.96 538.1 143.31 538.1 148.14 562.77 148.14 562.77 143.31"/><polygon class="cls-4" points="506.87 142.79 511.18 142.79 511.18 148.14 536.54 148.14 536.54 142.79 536.54 93.79 536.54 92.06 511.35 92.06 511.35 93.79 507.04 93.79 507.04 92.06 482.54 92.06 482.54 93.79 482.54 142.79 482.54 148.14 506.87 148.14 506.87 142.79"/><polygon class="cls-4" points="293.25 148.14 329.13 148.14 329.13 143.48 329.13 92.41 290.31 92.41 290.31 143.48 293.25 143.48 293.25 148.14"/><polygon class="cls-4" points="286.52 143.48 288.76 143.48 288.76 92.41 263.39 92.41 263.39 143.48 263.39 148.14 286.52 148.14 286.52 143.48"/><polygon class="cls-4" points="160.03 208.88 172.97 208.88 172.97 200.42 179.36 200.42 179.36 197.84 183.67 197.84 183.67 200.42 194.03 200.42 194.03 208.88 206.97 208.88 206.97 200.42 232.85 200.42 232.85 197.84 234.06 197.84 234.06 148.66 232.68 148.66 232.68 142.62 234.06 142.62 234.06 111.04 237.51 111.04 237.51 149 262.36 149 262.01 111.04 262.01 96.2 262.01 92.41 234.06 92.41 234.06 87.4 175.56 92.41 131.73 96.2 131.73 111.04 131.73 142.62 131.73 148.66 131.73 197.84 131.73 200.42 160.03 200.42 160.03 208.88"/><polygon class="cls-4" points="205.59 343.82 200.76 335.53 186.61 343.82 180.22 347.61 180.22 343.82 180.22 315.86 178.84 315.86 178.84 310.34 178.84 309.82 179.7 309.82 179.7 305.86 180.22 305.86 180.22 304.13 180.22 258.23 179.36 258.23 179.36 255.47 172.97 255.47 172.97 247.01 160.03 247.01 160.03 255.47 129.84 255.47 129.84 258.23 129.84 304.13 131.73 304.13 131.73 305.86 131.73 309.82 131.73 310.34 129.84 310.34 129.84 315.86 129.84 343.82 129.84 347.61 129.84 360.21 179.01 360.21 199.38 347.61 205.59 343.82"/><polygon class="cls-4" points="224.74 468.4 231.13 462.19 238.2 455.29 201.27 418.01 195.06 418.01 195.06 455.29 195.06 462.19 202.31 468.4 195.58 475.13 206.8 486.35 218.19 475.13 224.74 468.4"/><polygon class="cls-3" points="126.6 117.73 117.85 71.18 0.99 93.13 9.73 139.68 10.42 139.55 48.93 321.08 116.33 306.78 78.16 126.82 126.6 117.73"/><polygon class="cls-3" points="65.42 362.11 49.76 290.6 8.91 299.54 24.56 371.06 28.71 370.15 33.37 391.4 64.28 384.63 59.62 363.38 65.42 362.11"/><g class="cls-5"><path class="cls-6" d="M212,393.68l.69,1.9,4.31-1.9-1-2.76-.34-1-.7-3.8v-.34l-4.62.34-.21-2.41.3-2.41,4.53.51.18-.52.69-3.62.52-1.21.86-2.59-4.17-2,0-.07,1-2.07,1.21-1.55.3-.43,3.67,2.67,2.41-2.76.35-.35,3.11-2.58-.52-.87-2-3,2-1.35.86-.52,3.62-1.55,2.42-.69,2.24-.52,5-.34,2.4.22-.16.81-.17,1.73-.17,2.07,4,.86,3.8,1.38.86-1.38.35-.86.81-1.94,1.6.73.7.34,2,1.43-2.21,3.06L252,365l3.11,2.76.35.35,2.24,2.76,3.77-2.63.37.56.52.86.52.52,1.2-.52,1.38-.86-1.55-2.59-.52-.86L261,362.8l-.35-.52L258,359.86l-.34-.34-2.76-1.73-.69-.51-1.73-.87-.14-.14,1.87,1,1.89,1.2,1.56,1,1.9,1.72,1,1,2.07,2.24.69.87,1.73,2.76.34.69,1.21-.69L265,365.39l-.52-.87,1.38,2.25.52.69.34.69,1.38-.69,1-.69-1.38-2.25L266.5,363l-1.38-1.73-1.56-1.89-1-.87-2.42-2.07-.34-.34-2.93-1.9-.52-.52-2.07-1-1.73-.87-.34-.17-.35-.17-.69-.17L247.86,350l-1-.17-3.45-.7-1.56-.17-3.1-.17-4.66.17-.52.17-4,.7-.69.17-3.62,1.21-.52.17-.35.17-.17.17-1.55.7-1.72.86-.7.51-2.93,1.73-.17.17L214.56,358l-.86.86-1.9,1.9-1.21,1.55-1.21,1.55L208,366.08l-.86,1.38L205.76,370l-.35,1.21-1.2,3.28v.69l-.87,3.8v.34l-.34,4.32.17,4.14v.34l.69,4,.17.69,1,3.28.34,1,1.39,2.93.68,1.21,1.56,2.41,1,1.73,1.56,1.72,1.55,1.9,1.21.86,2.41,2.25.52.34,2.93,1.9.52.35,1.73.86,2.59,1.21v.34l-.18,1.56v.17l.18,1.55.17.52.34,1,.52,1,.17.17.52.69.17.35.35.34,1.72,1.21,1.9.86L233,427l2.07-.35,1.9-.86h.17l1.56-1.21.34-.34.17-.35.7-.69.17-.34.34-.87.52-1v-.52l.17-1.55v-.17l-.17-1.56v-.34l-.52-1.21-.17-.69-.34-.52-.7-.86-.17-.17-.17-.18-.52-.52-1-.86-.69-.34-1.21-.52-.86-.17-1.21-.18-2.07.18-.52.17-.52.17h0l-4-1.55-1-.52-2.76-1.72-.64-.43,2.19-3.2.52-.52-3.11-2.76-.34-.51-2.25-2.59L215,399.82l-.3-.44-1-1.55-1-2.25-1-2.24-.32-1.41m48.8-25.68,1,1.55-1.55-2.06Zm-4-4,.52.52.52.51-2-1.68Zm3.46-2.93,2.07,1.89-2.07-1.72-1.21-1Zm-7.6-3.28h0l-.36-.17Zm-46.07,23.29v.18l-.17,4.14Zm21.74,39.35.18-1.56.17-.34.69-1.21.69-.86.52-.35,1.38-.86,1.72-.17,1.73.17,1.55.86.35.52.86.69.52,1.21.17.34.34,1.56-.17.17-.17,1.55-.35.52-.34,1-1,.87-.17.34-1.55.69-1.73.35-1.72-.35-1.38-.69-.35-.17-.86-1-.52-1-.34-.52-.18-1.55Zm-14-13.28h0l-1.38-1.73Zm-1.05-41.6-.52.87-.12.18Zm35.54-6h0Z"/><polygon class="cls-6" points="216.46 412.84 215.6 413.36 215.25 414.22 215.6 415.25 216.46 415.6 217.49 415.25 217.84 414.22 217.49 413.36 216.46 412.84"/><polygon class="cls-6" points="211.63 408.7 210.59 409.04 210.25 410.08 210.59 410.94 211.63 411.46 212.66 410.94 213.01 410.08 212.66 409.04 211.63 408.7"/><polygon class="cls-6" points="207.49 403.69 206.62 404.04 206.1 405.07 206.62 405.94 207.49 406.45 208.52 405.94 208.87 405.07 208.52 404.04 207.49 403.69"/><polygon class="cls-6" points="204.38 398 203.34 398.34 203 399.38 203.34 400.24 204.38 400.76 205.24 400.24 205.76 399.38 205.24 398.34 204.38 398"/><polygon class="cls-6" points="203.52 393.17 203.17 392.3 202.14 391.96 201.27 392.3 200.93 393.17 201.27 394.2 202.14 394.55 203.17 394.2 203.52 393.17"/><polygon class="cls-6" points="202.14 387.82 202.48 386.78 202.14 385.92 201.1 385.4 200.24 385.92 199.72 386.78 200.24 387.82 201.1 388.16 202.14 387.82"/><polygon class="cls-6" points="201.27 381.78 202.14 381.26 202.65 380.4 202.14 379.36 201.27 379.02 200.24 379.36 199.89 380.4 200.24 381.26 201.27 381.78"/><polygon class="cls-6" points="202.48 375.39 203.34 374.88 203.86 374.01 203.34 372.98 202.48 372.63 201.45 372.98 201.1 374.01 201.45 374.88 202.48 375.39"/><polygon class="cls-6" points="204.72 369.18 205.76 368.84 206.1 367.97 205.76 366.94 204.72 366.59 203.86 366.94 203.34 367.97 203.86 368.84 204.72 369.18"/><polygon class="cls-6" points="208 363.66 209.04 363.31 209.38 362.28 209.04 361.42 208 360.9 207.14 361.42 206.8 362.28 207.14 363.31 208 363.66"/><polygon class="cls-6" points="212.32 358.83 213.35 358.31 213.7 357.45 213.35 356.41 212.32 356.07 211.28 356.41 210.94 357.45 211.28 358.31 212.32 358.83"/><polygon class="cls-6" points="217.32 354.69 218.36 354.34 218.7 353.31 218.36 352.27 217.32 351.93 216.46 352.27 215.94 353.31 216.46 354.34 217.32 354.69"/><polygon class="cls-6" points="223.02 351.41 223.88 351.06 224.4 350.2 223.88 349.17 223.02 348.82 221.98 349.17 221.63 350.2 221.98 351.06 223.02 351.41"/><polygon class="cls-6" points="229.05 349.34 230.09 348.99 230.44 347.96 230.09 347.1 229.05 346.58 228.19 347.1 227.85 347.96 228.19 348.99 229.05 349.34"/><polygon class="cls-6" points="235.44 348.3 236.47 347.96 236.82 346.92 236.47 346.06 235.44 345.54 234.57 346.06 234.23 346.92 234.57 347.96 235.44 348.3"/><polygon class="cls-6" points="242 348.48 243.03 347.96 243.38 347.1 243.03 346.06 242 345.71 241.13 346.06 240.62 347.1 241.13 347.96 242 348.48"/><polygon class="cls-6" points="248.38 349.68 249.41 349.17 249.76 348.3 249.41 347.27 248.38 346.92 247.34 347.27 247 348.3 247.34 349.17 248.38 349.68"/><polygon class="cls-6" points="254.42 351.93 255.46 351.58 255.8 350.55 255.46 349.51 254.42 349.17 253.56 349.51 253.04 350.55 253.56 351.58 254.42 351.93"/><polygon class="cls-6" points="260.11 355.21 260.98 354.86 261.32 353.82 260.98 352.96 260.11 352.44 259.08 352.96 258.73 353.82 259.08 354.86 260.11 355.21"/><polygon class="cls-6" points="264.95 359.52 265.98 359 266.32 358.14 265.98 357.1 264.95 356.76 263.91 357.1 263.56 358.14 263.91 359 264.95 359.52"/><polygon class="cls-6" points="269.09 364.52 269.95 364 270.47 363.14 269.95 362.11 269.09 361.76 268.05 362.11 267.71 363.14 268.05 364 269.09 364.52"/><polygon class="cls-6" points="224.22 419.74 224.57 418.71 224.22 417.84 223.19 417.32 222.15 417.84 221.81 418.71 222.15 419.74 223.19 420.08 224.22 419.74"/><polygon class="cls-6" points="224.57 422.33 223.53 422.67 223.19 423.71 223.53 424.57 224.57 425.09 225.43 424.57 225.95 423.71 225.43 422.67 224.57 422.33"/><polygon class="cls-6" points="228.19 425.95 227.16 426.3 226.81 427.33 227.16 428.2 228.19 428.71 229.05 428.2 229.4 427.33 229.05 426.3 228.19 425.95"/><polygon class="cls-6" points="233.02 427.33 232.16 427.68 231.64 428.54 232.16 429.58 233.02 429.92 234.06 429.58 234.4 428.54 234.06 427.68 233.02 427.33"/><polygon class="cls-6" points="238.03 425.95 236.99 426.3 236.65 427.33 236.99 428.2 238.03 428.71 238.89 428.2 239.41 427.33 238.89 426.3 238.03 425.95"/><polygon class="cls-6" points="241.65 422.33 240.62 422.67 240.27 423.71 240.62 424.57 241.65 425.09 242.51 424.57 242.86 423.71 242.51 422.67 241.65 422.33"/><polygon class="cls-6" points="242.86 417.32 242 417.84 241.48 418.71 242 419.74 242.86 420.08 243.89 419.74 244.24 418.71 243.89 417.84 242.86 417.32"/><polygon class="cls-6" points="242.86 413.87 242.51 412.84 241.65 412.49 240.62 412.84 240.27 413.87 240.62 414.74 241.65 415.25 242.51 414.74 242.86 413.87"/><polygon class="cls-6" points="236.99 409.21 236.65 410.25 236.99 411.29 238.03 411.63 238.89 411.29 239.41 410.25 238.89 409.21 238.03 408.87 236.99 409.21"/><polygon class="cls-6" points="232.16 408.01 231.64 408.87 232.16 409.9 233.02 410.25 234.06 409.9 234.4 408.87 234.06 408.01 233.02 407.49 232.16 408.01"/><path class="cls-6" d="M263.91,403.17l.37-.5,3.77,2.57,2.42-2.58.34-.52,3.11-2.59-.52-.69-2.22-3.08,2.05-1.41.86-.34,1.46-.69,1,2.07.34.69.52,1.38,4-1.38,4-.69-.18-2.24-.17-1.56-.17-.85,2.59-.18V383.5l-4.66.18-4.49,1-4.49,1.38-.51.35-1.73.86-1.89.86-.7.52-2.76,1.9-.34.17-2.42,2.07-1,1-1.73,1.89-1.38,1.56-1,1.55-1.56,2.25-.52,1.37-1.37,2.76-.35,1-1.21,3.28-.17.69-.69,4v.34l-.35,4.15.35,4.31v.34l.69,3.8.17.69,1.21,3.45.35,1,1.37,2.76.52,1.38,2.42-1.38,1.21-.69L259,431.82l.6,1,.69,1.56,2.59-1.56-1-2.07-1-2.41-.11-.52.29.86.86,1.9,4.31-1.9-1-2.59-.35-1.2-.69-3.63-.17-.51-4.61.51-.22-2.58.21-2.42,4.62.52.17-.52.69-3.63.35-1.2,1-2.59-4.31-2.07-.86,2.07-.35,1,.17-.86,1-2.24,1-2.07Zm18.46-12.25,2.36-.16-4,.72Zm-3.75,1.16-1.57.54.66-.32Zm-.88-4.41-.37.15-1.21.34Zm-22.8,27.07-.17,4,.17,4.14V423l-.17-4.31.17-4.15Zm.86,12.42-.31-1.72.31,1.37Zm0-16.39-.38,1.68.38-2.2Zm4.14,14.15V425l-.35-1.28-.18-.86-.09-1.15Zm6.9-25.37-1.79,2.08.76-1,.86-.87.18-.17Zm1-5.18-.73.63,1.07-1,1.73-1.21.84-.5L268.22,394Zm.44,3.71.94-.94.69-.52.94-.64Zm-1.82-4.22,1-1,3.11-2.07.34-.17-1.72,1.21-1.73,1-1.2,1.21-2.07,1.72Zm-10.18,20.7.86-3.79-.69,3.1-.17.87Zm0,8.46v-.17l.17.86.69,3.1Zm1.38,9.32-.52-1,1.21,2.42Zm0-4h0l.69,2.41Zm2.24-15.7-.62,3.26.1-1.18.18-.87.35-1.28Zm-.34-7.93-.6,1,1.29-2.58Zm1.38-5-1.9,2.76-.35.69-1.55,3.11.52-1,1.38-2.76.86-1.37,1.55-2.25Zm1,.87-.35.52.87-1.39.69-.86,1-1-1.65,1.9Z"/><polygon class="cls-6" points="250.28 414.22 249.24 414.56 248.9 415.6 249.24 416.46 250.28 416.81 251.14 416.46 251.66 415.6 251.14 414.56 250.28 414.22"/><polygon class="cls-6" points="251.14 423.02 251.66 421.98 251.14 421.12 250.28 420.6 249.24 421.12 248.9 421.98 249.24 423.02 250.28 423.36 251.14 423.02"/><polygon class="cls-6" points="252.7 428.37 252.35 427.5 251.31 426.99 250.45 427.5 249.94 428.37 250.45 429.4 251.31 429.75 252.35 429.4 252.7 428.37"/><polygon class="cls-6" points="253.56 433.2 252.7 433.54 252.18 434.58 252.7 435.44 253.56 435.79 254.59 435.44 254.94 434.58 254.59 433.54 253.56 433.2"/><polygon class="cls-6" points="252.7 409.21 252.35 408.18 251.31 407.83 250.45 408.18 249.94 409.21 250.45 410.08 251.31 410.42 252.35 410.08 252.7 409.21"/><polygon class="cls-6" points="253.56 404.38 254.59 404.04 254.94 403 254.59 402.14 253.56 401.62 252.7 402.14 252.18 403 252.7 404.04 253.56 404.38"/><polygon class="cls-6" points="255.8 396.45 255.46 397.48 255.8 398.34 256.83 398.86 257.87 398.34 258.22 397.48 257.87 396.45 256.83 396.1 255.8 396.45"/><polygon class="cls-6" points="260.11 391.44 259.6 392.48 260.11 393.34 260.98 393.86 262.01 393.34 262.36 392.48 262.01 391.44 260.98 391.1 260.11 391.44"/><polygon class="cls-6" points="264.95 387.3 264.6 388.33 264.95 389.2 265.98 389.72 267.02 389.2 267.36 388.33 267.02 387.3 265.98 386.96 264.95 387.3"/><polygon class="cls-6" points="270.64 385.92 271.68 386.44 272.54 385.92 272.88 385.06 272.54 384.02 271.68 383.68 270.64 384.02 270.29 385.06 270.64 385.92"/><polygon class="cls-6" points="277.71 384.19 278.58 383.85 279.1 382.81 278.58 381.78 277.71 381.43 276.68 381.78 276.33 382.81 276.68 383.85 277.71 384.19"/><polygon class="cls-6" points="284.1 382.99 284.96 382.64 285.48 381.61 284.96 380.74 284.1 380.4 283.06 380.74 282.72 381.61 283.06 382.64 284.1 382.99"/><path class="cls-6" d="M294.11,423.19l.34-.34.35-.87.34-1,.17-.52.18-1.72-.18-1.56-.17-.52-.34-1-.35-.86-.34-.35-.52-.86-.17-.17-.35-.35-1.72-1.38-1.9-.69-2.07-.35-2.07.35-2.07.69L281.51,413l-.17.35-.17.17-.7.86-.17.35-.34.86-.52,1v.52l-.34,1.56.34,1.72V421l.52,1,.34.87.17.34.7.69.17.35.17.34,1.73,1.21,2.07.86,2.07.35,2.07-.35,1.9-.86,1.72-1.21.35-.34.17-.35Zm-1.56-2.76-.34.52-.52,1-.86.87-.35.34-1.55.69-1.55.35-1.73-.35-1.55-.69-.35-.34-.86-.87-.52-1-.17-.52-.34-1.72.34-1.56.17-.52.52-1,.86-.86.35-.35,1.55-.86,1.73-.17,1.55.17,1.55.86.35.35.86.86.52,1,.34.52.18,1.56Z"/><polygon class="cls-6" points="292.21 425.95 291.35 426.3 290.83 427.33 291.35 428.2 292.21 428.71 293.25 428.2 293.59 427.33 293.25 426.3 292.21 425.95"/><polygon class="cls-6" points="286.34 427.68 286 428.54 286.34 429.58 287.38 429.92 288.24 429.58 288.76 428.54 288.24 427.68 287.38 427.33 286.34 427.68"/><polygon class="cls-6" points="281.51 426.3 280.99 427.33 281.51 428.2 282.37 428.71 283.41 428.2 283.75 427.33 283.41 426.3 282.37 425.95 281.51 426.3"/><polygon class="cls-6" points="278.75 425.09 279.79 424.57 280.13 423.71 279.79 422.67 278.75 422.33 277.89 422.67 277.37 423.71 277.89 424.57 278.75 425.09"/><polygon class="cls-6" points="276.16 418.71 276.51 419.74 277.54 420.08 278.4 419.74 278.92 418.71 278.4 417.84 277.54 417.32 276.51 417.84 276.16 418.71"/><polygon class="cls-6" points="278.75 415.25 279.79 414.74 280.13 413.87 279.79 412.84 278.75 412.49 277.89 412.84 277.37 413.87 277.89 414.74 278.75 415.25"/><polygon class="cls-6" points="282.37 411.63 283.41 411.29 283.75 410.25 283.41 409.21 282.37 408.87 281.51 409.21 280.99 410.25 281.51 411.29 282.37 411.63"/><polygon class="cls-6" points="286.34 408.01 286 408.87 286.34 409.9 287.38 410.25 288.24 409.9 288.76 408.87 288.24 408.01 287.38 407.49 286.34 408.01"/><polygon class="cls-6" points="290.83 410.25 291.35 411.29 292.21 411.63 293.25 411.29 293.59 410.25 293.25 409.21 292.21 408.87 291.35 409.21 290.83 410.25"/><polygon class="cls-6" points="294.45 413.87 294.97 414.74 295.83 415.25 296.87 414.74 297.21 413.87 296.87 412.84 295.83 412.49 294.97 412.84 294.45 413.87"/><polygon class="cls-6" points="298.07 419.74 298.6 418.71 298.07 417.84 297.21 417.32 296.18 417.84 295.83 418.71 296.18 419.74 297.21 420.08 298.07 419.74"/><polygon class="cls-6" points="295.83 425.09 296.87 424.57 297.21 423.71 296.87 422.67 295.83 422.33 294.97 422.67 294.45 423.71 294.97 424.57 295.83 425.09"/><path class="cls-6" d="M282.72,453.73l4.66.35,4.48-.35,4.66-.86,4.32-1.55.69-.17,1.55-.87,1.9-.86.69-.52,2.76-1.9.35-.17,2.58-2.24.86-.86,1.73-1.9,1.38-1.56,1.21-1.72,1.38-2.07.69-1.38,1.38-2.76.35-1,1-3.45.17-.69.87-3.8V423l.17-4.31-.17-4.15v-.34l-.87-4-.17-.69-1-3.28-.35-1-1.38-2.76-.69-1.37-1.38-2.25-1.21-1.55L314,395.75l-1.73-1.89-.86-1-2.58-2.07-.35-.17L305,388.16l-1.38,2.42.34.17,3.28,2.07,1,1,2.07,1.89-1.9-1.72-1.21-1.21-1.9-1-1.72-1.21-.69,1.21,1.89,1,1.56,1.21.66.6-.32-.26-.34-.34-3.45-2.24L301.7,394l-.34.34,3.44,2.25.7.52,2.58,2.58.87.87.46.69-1.5-1.73-.69-.69-3.79-3.11-2.07,3.11-.52.69,3.1,2.59.35.52,2.24,2.58,3.85-2.5.29.43,1,1.56,1,2.07,0,.07-4.17,2,.86,2.59.52,1.2.69,3.63v.52l4.62-.52.21,2.42-.21,2.58-4.62-.51v.51l-.69,3.63-.52,1.2-.86,2.59,4.23,1.86-.09.21-1,2.07-1,1.56-.3.42-3.84-2.67-2.24,2.76-.35.35-3.1,2.76.52.69,2,3.06-2,1.43-.7.34-1.39.67-1-2.05-.35-.69-.69-1.55-3.79,1.55-4,.69.17,2.07.17,1.73v.78l-2.41.25-2.57-.26L285,446l.17-1.73.18-2.07-4-.69-4-1.55-.52,1.55-.34.69-1,2.05-1.4-.67-.86-.34-.18.34-1,1.73-.34.52L271,447l1.39.69,2.41,1.21H275l2.42.86.86.18.69.34-2.76-.86-1.38-.52L271,447l-1,1.9-.34.52,1.89.86,1.73.87.51.17,4.49,1.55Zm36.92-39.51v.34l.35,4.15-.35,4.31v.34l-.31,1.38.31-1.72v-.17l.35-4.14-.35-4v-.18l-.38-2.1Zm-1-4.66.17.69-1.21-3.45-.17-.52Zm-.52,4.31-.52-3.1.69,3.79v.18Zm.17,9V423l-.69,3.79.52-3.1Zm-.69,7.93,1.21-3.62-.17.69-1.21,3.45Zm-7.76-33.64-.35-.52,1.9,2.24.69.86Zm4.83,39.34h0l.87-1.39Zm0-35.39-.85-1.37-.52-.86Zm-1,7.78-.24-.72.41.89.31,1Zm1.2,3.79v-.07l.35,1.28v.87l.08.89Zm.35-7.93-.69-1.56,1.55,3.11.17.52Zm-.35,20.19.42-2.92-.07.85v.86l-.35,1.28Zm.35,7.93,1-2.07-.17.52-1.55,3.11Zm-1.55-4.14.34-.84-.17.5-.31.71Zm-.87,8.11.57-.79-1.26,1.83ZM307.91,438l1.43-1.76-.39.55-.87,1-.68.68Zm-.29,4.37-1.26,1.15.34-.34Zm-.4-3.68-1.72,1.73-.7.34-.78.55Zm-1.9,7.08,1.9-1.21,1.21-1,1.9-1.72.86-1,2.07-2.24-1.55,1.72-1.38,1.56-2.07,1.9-1,.86-3.28,2.24-.34.17Zm-3.79.69,1.38-.69-1.39.69Zm-1.73,2.41-1.38.52-2.59.86.69-.34.69-.18,2.42-.86Zm-.83-4.54-1.93.92-1.47.34Zm.31,3.33-3.62,1.21h-.17Zm-6.08-1.47-1,.27-1.21.13Zm-9.68.39-1.15-.12-1-.27Zm-4.52-1-1.29-.32-1.88-.9Zm-3.7,2.09,4,1.21h-.17Z"/><polygon class="cls-6" points="271.68 451.14 270.64 451.49 270.29 452.53 270.64 453.39 271.68 453.91 272.54 453.39 272.88 452.53 272.54 451.49 271.68 451.14"/><polygon class="cls-6" points="279.1 454.77 278.58 453.73 277.71 453.39 276.68 453.73 276.33 454.77 276.68 455.63 277.71 456.15 278.58 455.63 279.1 454.77"/><polygon class="cls-6" points="285.48 455.8 284.96 454.94 284.1 454.42 283.06 454.94 282.72 455.8 283.06 456.84 284.1 457.19 284.96 456.84 285.48 455.8"/><polygon class="cls-6" points="291.52 456.84 291.86 455.8 291.52 454.94 290.65 454.42 289.62 454.94 289.28 455.8 289.62 456.84 290.65 457.19 291.52 456.84"/><polygon class="cls-6" points="297.9 455.63 298.25 454.77 297.9 453.73 297.04 453.39 296 453.73 295.66 454.77 296 455.63 297.04 456.15 297.9 455.63"/><polygon class="cls-6" points="302.04 451.49 301.7 452.53 302.04 453.39 303.08 453.91 303.94 453.39 304.46 452.53 303.94 451.49 303.08 451.14 302.04 451.49"/><polygon class="cls-6" points="307.74 448.38 307.39 449.25 307.74 450.28 308.6 450.63 309.64 450.28 309.98 449.25 309.64 448.38 308.6 447.87 307.74 448.38"/><polygon class="cls-6" points="312.74 444.07 312.22 445.11 312.74 445.97 313.61 446.49 314.64 445.97 314.99 445.11 314.64 444.07 313.61 443.73 312.74 444.07"/><polygon class="cls-6" points="316.88 439.24 316.54 440.1 316.88 441.14 317.75 441.48 318.78 441.14 319.13 440.1 318.78 439.24 317.75 438.72 316.88 439.24"/><polygon class="cls-6" points="320.16 433.54 319.64 434.58 320.16 435.44 321.03 435.79 322.06 435.44 322.4 434.58 322.06 433.54 321.03 433.2 320.16 433.54"/><polygon class="cls-6" points="323.27 429.75 324.3 429.4 324.65 428.37 324.3 427.5 323.27 426.99 322.4 427.5 321.89 428.37 322.4 429.4 323.27 429.75"/><polygon class="cls-6" points="325.69 421.98 325.34 421.12 324.48 420.6 323.44 421.12 323.1 421.98 323.44 423.02 324.48 423.36 325.34 423.02 325.69 421.98"/><polygon class="cls-6" points="325.34 414.56 324.48 414.22 323.44 414.56 323.1 415.6 323.44 416.46 324.48 416.81 325.34 416.46 325.69 415.6 325.34 414.56"/><polygon class="cls-6" points="321.89 409.21 322.4 410.08 323.27 410.42 324.3 410.08 324.65 409.21 324.3 408.18 323.27 407.83 322.4 408.18 321.89 409.21"/><polygon class="cls-6" points="321.03 404.38 322.06 404.04 322.4 403 322.06 402.14 321.03 401.62 320.16 402.14 319.64 403 320.16 404.04 321.03 404.38"/><polygon class="cls-6" points="317.75 398.86 318.78 398.34 319.13 397.48 318.78 396.45 317.75 396.1 316.88 396.45 316.54 397.48 316.88 398.34 317.75 398.86"/><polygon class="cls-6" points="313.61 393.86 314.64 393.34 314.99 392.48 314.64 391.44 313.61 391.1 312.74 391.44 312.22 392.48 312.74 393.34 313.61 393.86"/><polygon class="cls-6" points="308.6 389.72 309.64 389.2 309.98 388.33 309.64 387.3 308.6 386.96 307.74 387.3 307.39 388.33 307.74 389.2 308.6 389.72"/><path class="cls-6" d="M334.31,491.35l-.52.35,1.73-1.21,1.9-1.21-.52-.52-.35-.52-.68.52-.87.52-.12.08,1.33-.94.34-.18-.34-.51-1.55-1.9-2.09,1.35-.5-.66-.69-1.38-1.38-1.9-3.45,1.9-4,1.38.17.69.52,2.41.33,1.33-2.4.57-2.42.09v-1.12l-.17-3.45-4.14-.18-4-.86-.35.86V487l-1,3.45,4.35.93-1.93-.24-2.42-.69-2.42-.69-2.16-1.18,1.3-2.45.86-1.72-2.76-1.56-.69-.51-3.1-2.76-2.94,2.76-.43.43-.6-.61L295,480.65l-.69-.86-.69-1-.15.14.15-.31.52-.69.34-.69.35-.52.51-1.38v-.17l.18-1.73v-.17l-.18-1.55-.17-.52-.34-.86-.52-1-.17-.17-.52-.86-.17-.17-.35-.52-1.72-1.21-1.9-.86-2.07-.18-2.07.18-2.07.86-1.56,1.21-.34.52-.17.17-.7.86-.17.17-.34,1-.52.86v.52l-.17,1.55v.17l.17,1.73v.17l.52,1.38.17.52.34.69.7.69.17.35,1.55,1.38,1.9.86,2.07.34,2.42,3.63.17.17,2.93,3.45h.17l3.28,2.76.18.35,3.1,1.9.86.51,1.73.87,1.55.86.35.17h.17l.35.17,3.79,1.21.52.17,4.14.87h.52l4.48.34,3.63-.34h1l3.8-.87.69-.17,3.62-1.21.52-.17H331l.52-.34,1.73-.87,1.9-.86.69-.52,2.76-1.89.51-.35-1.72-2.07Zm-41.07-12.42h.15l-1,.86-.54.39Zm-4.31-.35-1.55.35-1.73-.35-1.55-.69-.52-.69-.69-.52-.69-1.38v-.17l-.34-1.73v-.17l.34-1.55.35-.52.34-.86,1-1,.17-.17,1.55-.86,1.73-.17,1.55.17,1.55.86.18.17,1,1,.52.86.34.52.18,1.55v.17l-.18,1.73-.17.17-.69,1.38-.52.52-.69.69Zm2.59,2.59-.17-.17-.18-.35-.69.35-.69.17,1.8-.82-.42.3,1.21,1.55,1.55,2.25Zm11.29,6.56h-.08l-.58-.42Zm-4.22-3.28,1.27,1.26-.58-.4-.86-.86-.78-.78Zm.18,4.31-1.38-1h.17l2.76,2.07,1,.69Zm2.24,3.11-.35-.35,1.9,1,2.59,1.21Zm16.56-.22-1.2.05-1.81-.16Zm1.21,4.53H316l-2.76-.17-4.14-.86,3.8.69.34.17,4.31.17,2.29-.12ZM326,495l.52-.17.16,0Zm0-4.48h-.52l-.8.19,2.53-.75Zm4.83,1.21-1.38.69-1,.33.44-.16.52-.17,1.21-.69.46-.16Zm.86-4-.69.51-.51.18-.5.23,2.13-1.2Z"/><polygon class="cls-6" points="286.17 482.55 285.13 482.89 284.79 483.93 285.13 484.79 286.17 485.31 287.03 484.79 287.38 483.93 287.03 482.89 286.17 482.55"/><polygon class="cls-6" points="281.34 479.79 280.3 480.31 279.96 481.17 280.3 482.2 281.34 482.55 282.2 482.2 282.72 481.17 282.2 480.31 281.34 479.79"/><polygon class="cls-6" points="278.23 475.82 277.2 476.17 276.85 477.2 277.2 478.06 278.23 478.41 279.1 478.06 279.61 477.2 279.1 476.17 278.23 475.82"/><polygon class="cls-6" points="278.58 473.06 278.92 472.02 278.58 471.16 277.54 470.64 276.68 471.16 276.16 472.02 276.68 473.06 277.54 473.4 278.58 473.06"/><polygon class="cls-6" points="279.61 468.75 280.47 468.4 280.99 467.37 280.47 466.33 279.61 465.98 278.58 466.33 278.23 467.37 278.58 468.4 279.61 468.75"/><polygon class="cls-6" points="282.72 463.4 282.2 464.26 282.72 465.29 283.58 465.64 284.62 465.29 284.96 464.26 284.62 463.4 283.58 462.88 282.72 463.4"/><polygon class="cls-6" points="288.76 462.36 287.72 462.71 287.38 463.74 287.72 464.61 288.76 464.95 289.62 464.61 289.97 463.74 289.62 462.71 288.76 462.36"/><polygon class="cls-6" points="292.38 464.61 292.04 465.64 292.38 466.68 293.42 467.02 294.28 466.68 294.8 465.64 294.28 464.61 293.42 464.26 292.38 464.61"/><polygon class="cls-6" points="295.14 469.78 295.49 470.64 296.52 470.99 297.39 470.64 297.73 469.78 297.39 468.75 296.52 468.4 295.49 468.75 295.14 469.78"/><polygon class="cls-6" points="297.04 476.17 298.07 475.65 298.42 474.79 298.07 473.75 297.04 473.4 296.18 473.75 295.66 474.79 296.18 475.65 297.04 476.17"/><polygon class="cls-6" points="290.14 487.73 289.1 488.07 288.76 488.94 289.1 489.97 290.14 490.31 291 489.97 291.52 488.94 291 488.07 290.14 487.73"/><polygon class="cls-6" points="337.59 493.42 336.55 493.94 336.21 494.8 336.55 495.83 337.59 496.18 338.63 495.83 338.97 494.8 338.63 493.94 337.59 493.42"/><polygon class="cls-6" points="331.9 496.53 330.86 496.87 330.52 497.91 330.86 498.77 331.9 499.29 332.76 498.77 333.28 497.91 332.76 496.87 331.9 496.53"/><polygon class="cls-6" points="325.69 498.6 324.65 498.94 324.3 499.81 324.65 500.84 325.69 501.19 326.72 500.84 327.06 499.81 326.72 498.94 325.69 498.6"/><polygon class="cls-6" points="319.3 499.46 318.26 499.81 317.92 500.84 318.26 501.7 319.3 502.22 320.16 501.7 320.68 500.84 320.16 499.81 319.3 499.46"/><polygon class="cls-6" points="312.74 499.12 311.88 499.63 311.36 500.5 311.88 501.53 312.74 501.88 313.78 501.53 314.12 500.5 313.78 499.63 312.74 499.12"/><polygon class="cls-6" points="306.36 497.91 305.5 498.25 305.15 499.29 305.5 500.15 306.36 500.5 307.39 500.15 307.74 499.29 307.39 498.25 306.36 497.91"/><polygon class="cls-6" points="300.49 495.49 299.46 495.83 299.11 496.7 299.46 497.73 300.49 498.08 301.36 497.73 301.7 496.7 301.36 495.83 300.49 495.49"/><polygon class="cls-6" points="294.97 492.04 293.94 492.38 293.59 493.42 293.94 494.28 294.97 494.63 295.83 494.28 296.35 493.42 295.83 492.38 294.97 492.04"/><path class="cls-6" d="M374.34,414.56v-.34l-.69-3.45-.17-.18-1-3.62-.18-.17-1.55-3.28-.17-.35L369,400.59l-.7-.87-1.89-2.41-.69-.69-2.25-2.25L363,394l-1.73-1.38-1.21-.86-.34-.18-1.56-1-1.2-.52-1-.69-1.72-.69-.69-.17-1.38-.52-.7-.34-.86-.18-4-.86h-.17l-4.66-.35-4.14.35h-.17l-4.14.86-.52.18-.86.34-2.25.86h-.34l-2.42,1.38-1.38.69.52.87.17.17.35.52,1,1.89.18.35.51-.35,1.74-.83.85,2,.35.87.69,1.38,4-1.38,4-.87-.17-2.07-.17-1.72-.16-.78,2.4-.26,2.59.18-.17.68v1.73l-.35,2.24,4.14.69,3.8,1.38.69-1.38.35-.69,1-2.15,1.25.6.86.34,2.06,1.41-2.06,3.08-.52.86,3.11,2.59.34.35,2.25,2.76,3.85-2.68.29.43,1.21,1.56.86,2.07,0,.06-4.17,2,1,2.59.52,1.2.52,3.63.17.52,4.63-.52.2,2.42-.2,2.4-4.63-.33v.34l-.69,3.8-.34,1-1,2.76,4.32,1.9.68-1.9L369,427l-.31,1.41-1,2.24-1,2.24-1,1.56-.36.5-3.78-2.75-2.24,2.76-.52.52-3.1,2.59.51.69,2.14,3.12-2,1.37-.69.34-1.47.7-.95-1.91-.34-.86-.69-1.38-3.8,1.38-4,.86.17,2.07.18,1.73v.78l-2.42.26-2.42-.18v-.69l.18-1.72.17-2.25-4-.69-4-1.38-.52,1.38-.34.69-1,2.11-2-.9h-.35l-1.21,1.9-.34.69L326,447l-.17.35,1.38.52,2.58,1.38,2.42.69.69.17.86.34,2.94.52,1.21.35,4.31.17,2.76-.17,2.76-.35,2.07-.52,1-.34,1.21-.17.86-.35,1.55-.52.35-.17,1.89-.86.52-.35,1.21-.69,1.9-1,.17-.17,1.9-1.56.86-.69,1.38-1,1.38-1.73,1.38-1.38,1-1.55,1.38-1.9.86-1.55.69-1.38,1-2.42.51-1.21.69-2.59.35-1.2.34-2.76.18-.87v-1.55l.17-1.72-.17-2.25Zm-46.58-23.29h0l0,0Zm2.06-1,3.63-1.38h.17l-3.28,1.21Zm.58,3.13,1.84-.88,1.54-.42Zm5.3-1.79,1.2-.3,1.2-.13Zm6-3.92-3.1.34h-.87l4-.34h.17l4,.34Zm2.66,3.28,2.35.17,1.21.34Zm6,1.14,1,.23,1.34.64Zm3.77-1.84-.35-.17-3.62-1.21-.35-.17,2.25.69,1.72.69,1.21.52.21.11Zm8.28,9.49-.69-.86L358.22,396l.94.64.86.52,2.59,2.58.86.87,1,1.43Zm1.9-2.58-.35-.52.52.69,2.07,2.41ZM333,445.56l-.38-.11-.37-.16Zm-2.63,2.31,3.45,1.2.35.18Zm7.08-1-1.21-.34,3.61.51Zm4.83,3.28,3.28-.17h.86Zm4.83-3.45-1.2.13,2.72-.49ZM350,446l-.14,0,2.36-.87-.32.15Zm3.28,2.07-1.3.44,1.65-.61.52-.18Zm8.79-9.31-1.71,1.72-.65.32Zm.36,3.79-1.21,1-1,.69-2.08,1.56-.34.17-1.75.81.2-.12,1.55-.69.86-.69,2.59-1.73.35-.34,2.76-2.42Zm1.38-5.7-.86,1-.86.86.51-.69,2-2.27Zm4.48-27.95-.27-.66.45.83.23,1Zm1.38,5h0l.17.69.1,1.25Zm-.17,11.06.35-1.9v.69l-.36,1.3Zm.35,8.11-.69,1.38.69-1.56,1.21-2.24Zm1.72-24-.86-2.24-1-2.07-.69-1.56.17.35,1.55,3.28.17.17,1.21,3.62ZM373.14,422l-.18.87-.25,1.35.08-.49.17-.86.18-2.07Zm-.18-7.42-.17-.69-.46-2.17.63,2.52v.34l.18,1.9.17,2.25Z"/><path class="cls-6" d="M408.17,424.4l.69-1.38.51-1.21v-.69l.35-2.24-.35-2.07v-.69l-.51-1.21-.69-1.38-.18-.35-1-1.2-.52-.69-.17-.18-.35-.34-1.72-1.21-2.59-1-2.76-.51-2.94.51-2.58,1-1.56,1.21-.34.34-.35.18-.52.69-.86,1.2-.34.35-.52,1.38-.52,1.21-.17.69-.17,2.07.17,2.24.17.69.52,1.21.52,1.38.34.34.86,1.21.52.69.35.17.34.35,1.56,1.21,2.58,1,2.94.35,2.76-.35,2.59-1,1.72-1.21.35-.35.17-.17L407,426l1-1.21Zm-1.56-3.28-.17.69-.52,1.21-1,1.38-.35.34L402.82,426l-1.38.69-.52.17-2.07.35-2.07-.35-.52-.17-1.55-.69L393,424.74l-.17-.34-1-1.38-.51-1.21-.35-.69-.17-2.24.17-2.07.35-.69.51-1.21,1-1.38.17-.35,1.73-1.2,1.55-.69.52-.18,2.07-.34,2.07.34.52.18,1.38.69,1.72,1.2.35.35,1,1.38.52,1.21.17.69.35,2.07Z"/><polygon class="cls-6" points="409.2 424.57 408.34 425.09 407.82 425.95 408.34 426.99 409.2 427.33 410.24 426.99 410.58 425.95 410.24 425.09 409.2 424.57"/><polygon class="cls-6" points="404.37 428.88 403.33 429.23 402.99 430.27 403.33 431.3 404.37 431.65 405.23 431.3 405.75 430.27 405.23 429.23 404.37 428.88"/><polygon class="cls-6" points="397.99 430.09 396.95 430.61 396.61 431.47 396.95 432.51 397.99 432.86 398.85 432.51 399.37 431.47 398.85 430.61 397.99 430.09"/><polygon class="cls-6" points="391.77 428.02 390.74 428.37 390.39 429.4 390.74 430.44 391.77 430.78 392.81 430.44 393.15 429.4 392.81 428.37 391.77 428.02"/><polygon class="cls-6" points="387.46 423.19 386.6 423.54 386.08 424.57 386.6 425.44 387.46 425.78 388.5 425.44 388.84 424.57 388.5 423.54 387.46 423.19"/><polygon class="cls-6" points="387.29 419.05 387.63 418.01 387.29 417.15 386.25 416.81 385.21 417.15 384.87 418.01 385.21 419.05 386.25 419.39 387.29 419.05"/><polygon class="cls-6" points="388.32 413.36 389.36 412.84 389.7 411.98 389.36 410.94 388.32 410.6 387.46 410.94 386.94 411.98 387.46 412.84 388.32 413.36"/><polygon class="cls-6" points="393.32 409.04 394.19 408.52 394.71 407.66 394.19 406.63 393.32 406.28 392.29 406.63 391.95 407.66 392.29 408.52 393.32 409.04"/><polygon class="cls-6" points="399.71 407.83 400.57 407.32 401.09 406.45 400.57 405.42 399.71 405.07 398.68 405.42 398.33 406.45 398.68 407.32 399.71 407.83"/><polygon class="cls-6" points="405.92 409.9 406.78 409.39 407.13 408.52 406.78 407.49 405.92 407.14 404.89 407.49 404.54 408.52 404.89 409.39 405.92 409.9"/><polygon class="cls-6" points="410.06 414.74 411.1 414.39 411.44 413.36 411.1 412.49 410.06 412.15 409.2 412.49 408.68 413.36 409.2 414.39 410.06 414.74"/><polygon class="cls-6" points="411.44 418.53 410.41 418.88 410.06 419.74 410.41 420.78 411.44 421.12 412.31 420.78 412.65 419.74 412.31 418.88 411.44 418.53"/><path class="cls-6" d="M593,540.87l1.38-2.93.35-.86,1-3.45.17-.69.7-3.8-2.77-.35v.35l-.69,3.8-.17.69-1.21,3.45-.34.86L590,540.87l-.86,1.38-1.56,2.25.52-.87,1.9-2.76.17-.69,1.55-3.1.18-.52,1.2-3.62v-.35l.69-3.8-1.38-.17v.17l-.69,3.8v.35l-1.21,3.62-.17.52-1.55,3.1,1.21-2.59.51-1,1-3.45.17-.52.69-4-2.93-.34-.17.34-.35,2-4.48-1-.35,1-.86,2.94-.86,1.72-1,1.9,3.94,2.46-.32.47-.86,1.73-1.72,1.72,0,0-.32-.21L579,540.53l-2.93,2.93-.52.35-2.93,1.89.86,1.38,1.32,2.64-2.18,1.16-2.25.84-1-3.25-.17-.35-.35-.86-4,.86-4,.35-.18,3.27V553l-2.41-.09-2.4-.48.15-1.24.52-2.25.17-1-3.79-1.21-3.8-1.73-1,1.73-.69,1.21-.67,1-.54-.31-1.55-1-.7,1-1,1.38-.35.52-.51.69,1.72,1,1.9,1.21,1.21.52,2.59,1.38-3.8-1.9-.34-.17-1-.52-2.24-1.55-1.21,1.55-.34.52.17.17,2.76,1.9.86.52,1.55.68,1.73.87.35.17.51.17,3.63,1.21.86.35,3.62.69h.87l4.65.34,2.77-.34h1.72l3.28-.69,1.38-.35,3.1-1.21.7-.17.51-.17.35-.17,1.72-.87,2.07-1,.52-.35L583,553l.52-.17,2.24-2.24,1.21-.87,1.55-1.89,1.38-1.73,1-1.55,1.38-2.25Zm-4.83-7.24.66-1.89-.15.85-.17.52-.75,1.89Zm-43.66,17.6-.76-.62,1.36.94Zm10,1-1.07-.13-1.43-.58Zm-5.73-2-.18-.17-.92-.53,2.26,1.18Zm3.61,6h0ZM550,554l3.1,1,.69.35Zm3.62,2.58,3.45.7.69.17Zm1.43-1,2.19.33.69.17Zm8.06-2.44-1.21,0,1.87-.07ZM584,546.74l-1,1-1,.86Zm-5.63.76-1.45,1.14-1,.51Zm-8.19,4.29-.33.13-1.9.51-.77.11Zm.19,4.61-4.15.87,2.94-.7,1.21-.17.34-.17.5-.12Zm0-1.38H570l2.76-1,1-.35Zm8.28-2.24-.35.17L574.51,555l-1.21.35-1.76.62.21-.1,2.41-.87h.35l2.41-1.38,1.38-.69,1.41-.93Zm.69-2.24-1.73,1.38,1.21-1,2.07-1.38Zm1.55-5-1.2.94.86-.77.81-.74Zm1.9,4.14-1,.87,1.2-1,1.9-1.72Zm3.1-5.17-.46.54,1.16-1.41Zm1.21-7.94-.34,1-.54.81.54-1.15.57-1.25Z"/><polygon class="cls-6" points="542.07 555.37 541.03 555.71 540.69 556.75 541.03 557.61 542.07 558.13 542.93 557.61 543.28 556.75 542.93 555.71 542.07 555.37"/><polygon class="cls-6" points="547.76 558.3 546.9 558.65 546.38 559.68 546.9 560.54 547.76 561.06 548.8 560.54 549.14 559.68 548.8 558.65 547.76 558.3"/><polygon class="cls-6" points="553.97 560.2 553.11 560.54 552.59 561.41 553.11 562.44 553.97 562.79 555.01 562.44 555.35 561.41 555.01 560.54 553.97 560.2"/><polygon class="cls-6" points="560.53 560.89 559.5 561.23 559.15 562.27 559.5 563.13 560.53 563.65 561.39 563.13 561.74 562.27 561.39 561.23 560.53 560.89"/><polygon class="cls-6" points="566.91 560.54 566.05 560.89 565.53 561.92 566.05 562.79 566.91 563.13 567.95 562.79 568.29 561.92 567.95 560.89 566.91 560.54"/><polygon class="cls-6" points="573.3 558.99 572.26 559.34 571.92 560.37 572.26 561.23 573.3 561.75 574.16 561.23 574.68 560.37 574.16 559.34 573.3 558.99"/><polygon class="cls-6" points="579.17 556.4 578.3 556.75 577.79 557.78 578.3 558.65 579.17 559.16 580.2 558.65 580.55 557.78 580.2 556.75 579.17 556.4"/><polygon class="cls-6" points="584.69 552.78 583.65 553.3 583.31 554.16 583.65 555.2 584.69 555.54 585.55 555.2 585.89 554.16 585.55 553.3 584.69 552.78"/><polygon class="cls-6" points="589.35 548.29 588.31 548.81 587.97 549.67 588.31 550.71 589.35 551.05 590.21 550.71 590.73 549.67 590.21 548.81 589.35 548.29"/><polygon class="cls-6" points="593.14 543.12 592.28 543.63 591.76 544.5 592.28 545.53 593.14 545.88 594.18 545.53 594.52 544.5 594.18 543.63 593.14 543.12"/><polygon class="cls-6" points="596.08 537.42 595.21 537.77 594.7 538.8 595.21 539.66 596.08 540.01 597.11 539.66 597.46 538.8 597.11 537.77 596.08 537.42"/><polygon class="cls-6" points="598.84 531.55 597.97 531.21 596.94 531.55 596.6 532.59 596.94 533.45 597.97 533.8 598.84 533.45 599.36 532.59 598.84 531.55"/><path class="cls-6" d="M544,509.47l2.94-2.76.52-.35,2.93-1.9-.86-1.55-1.32-2.63,2.18-1.16,2.29-.72,1,3.13.17.35.34.86,4-.86,4-.35.18-3.28V497l2.41.08,2.4.48-.15,1.25L566.4,501l-.18,1,4,1.21,3.63,1.72,1-1.72.69-1.21.63-.95,2.13,1.29.17.18,1.65,1.47-3,3.53,2.76,2.93.69,1L582.1,514l4.1-2.39.56,1,.69,1.21,2.76-1.21,1.21-.51L589.86,509l-.34-.69L590.9,511l.52,1,2.41-1-1.38-2.76-.69-1.38-1.38-2.07-1.2-1.73-1.39-1.55-1.72-1.9-.86-.86-2.59-2.07-.35-.17-2.76-1.9-.86-.52-1.55-.69-1.73-.86-.34-.17-.52-.18L571.05,491l-1-.17-3.62-.69-.87-.17-4.65-.35-2.77.35-1.72.17-3.28.69-1.21.17-3.28,1.21-.68.18-.52.17-.35.17-1.72.86-2.07,1-.52.52L540,497l-.52.35-2.24,2.07-1,1-1.73,1.9L533.1,504l1.2.86,1,.69v.17l1,.69,2.42,1.9,1.66-1.83.41.28Zm37.4-4.31.57.51.62.74Zm1.6-2.77L580.2,500l-.34-.17-2.76-1.73-.35-.35L575.2,497l-.35-.17-.7-.35h0l2.59,1.2,1.72,1L580.2,500l1.9,1.55,1.21,1,1.9,2.24.68.86-2.58-3.1Zm2.59,8.11-1.47-2.27.61.72.34.52.87,1.56Zm-12.08-15.87,3.8,1.9.34.17,3.28,2.07,1,.86,2.24,1.9,1.38,1.55,1.55,1.73,1.15,1.72-.63-.86-.52-.86L585,502.57l-.86-1-1.9-1.55-1.38-1.21-1.72-1-1.9-1.2-1-.52-2.76-1.21Zm.69,5.18.17.17.54.33-1.59-.83ZM571,493.88l-.46-.11-.14-.07Zm-1.5-.46-3.45-.69-.86-.17Zm-.51,1.21.17.17-3.45-.69-.69-.17ZM550.18,496l-1,.34,1.73-.6Zm8.62,1,1-.17,1.61.06-3.78.27Zm-4.94.94,1.15-.42,2.21-.3Zm.28-3.18-1.2.17,4-.86Zm-4.48-.17,2.93-1,4.14-.86-2.93.69-1.21.17-.34.18-.52.17-.35.17L549,495l-.35.18Zm-5.35,2.76.52-.35-1.73,1.21-1.9,1.21Zm-.68,2.07-1.56,1,1.55-1Zm-1.56,5,1.15-.8-.81.8L541,505.73Zm-5,1.06v0l.14-.14Z"/><polygon class="cls-6" points="534.65 501.19 534.99 500.32 534.65 499.29 533.61 498.94 532.75 499.29 532.23 500.32 532.75 501.19 533.61 501.7 534.65 501.19"/><polygon class="cls-6" points="538.44 497.22 539.31 496.87 539.65 495.83 539.31 494.8 538.44 494.46 537.41 494.8 537.06 495.83 537.41 496.87 538.44 497.22"/><polygon class="cls-6" points="543.79 493.59 544.83 493.25 545.17 492.21 544.83 491.35 543.79 490.83 542.76 491.35 542.41 492.21 542.76 493.25 543.79 493.59"/><polygon class="cls-6" points="549.66 491 550.7 490.66 551.04 489.62 550.7 488.76 549.66 488.42 548.8 488.76 548.45 489.62 548.8 490.66 549.66 491"/><polygon class="cls-6" points="556.04 489.62 557.08 489.11 557.42 488.24 557.08 487.21 556.04 486.86 555.18 487.21 554.66 488.24 555.18 489.11 556.04 489.62"/><polygon class="cls-6" points="562.6 489.11 563.46 488.76 563.81 487.73 563.46 486.86 562.6 486.52 561.57 486.86 561.22 487.73 561.57 488.76 562.6 489.11"/><polygon class="cls-6" points="568.99 489.97 570.02 489.45 570.37 488.59 570.02 487.55 568.99 487.21 567.95 487.55 567.61 488.59 567.95 489.45 568.99 489.97"/><polygon class="cls-6" points="575.2 491.7 576.23 491.35 576.58 490.49 576.23 489.45 575.2 489.11 574.16 489.45 573.82 490.49 574.16 491.35 575.2 491.7"/><polygon class="cls-6" points="594.18 508.61 595.21 508.26 595.56 507.4 595.21 506.36 594.18 506.02 593.32 506.36 592.8 507.4 593.32 508.26 594.18 508.61"/><polygon class="cls-6" points="590.73 503.25 591.59 502.91 592.11 501.88 591.59 501.01 590.73 500.5 589.69 501.01 589.35 501.88 589.69 502.91 590.73 503.25"/><polygon class="cls-6" points="586.24 498.6 587.1 498.08 587.62 497.22 587.1 496.18 586.24 495.83 585.21 496.18 584.86 497.22 585.21 498.08 586.24 498.6"/><polygon class="cls-6" points="581.06 494.63 581.93 494.28 582.27 493.25 581.93 492.38 581.06 492.04 580.03 492.38 579.68 493.25 580.03 494.28 581.06 494.63"/><path class="cls-6" d="M280,362.28v.35l-.17,1.72.17,1.73v.34l.51,1.21.35.86.17.35.69.69.18.34.17.35,1.72,1.2,2.07.87,2.07.17,2.08-.17,1.89-.87,1.73-1.2.34-.35.18-.34.51-.69.35-.35.34-.86.35-1.21.17-.34.18-1.73-.18-1.72-.17-.35-.35-1-.34-1-.35-.17-.51-.87-.18-.17-.34-.34-1.73-1.38-1.89-.87-2.08-.17-2.07.17-2.07.87L282,358.66l-.17.34-.18.17L281,360l-.17.17-.35,1Zm2.76.35.17-.35.52-1,.86-1,.35-.17,1.55-.87,1.72-.17,1.73.17L291,360l.35.17.86,1,.69,1,.17.35.17,1.72-.17,1.73-.17.34-.69,1.21-.86.86-.35.35-1.38.69-1.73.34-1.72-.34-1.55-.69-.35-.35-.86-.86-.52-1.21-.17-.34-.35-1.73Z"/><polygon class="cls-6" points="278.06 365.73 278.92 365.39 279.44 364.35 278.92 363.49 278.06 362.97 277.03 363.49 276.68 364.35 277.03 365.39 278.06 365.73"/><polygon class="cls-6" points="279.27 367.97 278.4 368.32 278.06 369.36 278.4 370.22 279.27 370.73 280.3 370.22 280.65 369.36 280.3 368.32 279.27 367.97"/><polygon class="cls-6" points="284.27 372.98 283.93 371.94 282.89 371.6 282.03 371.94 281.51 372.98 282.03 373.84 282.89 374.19 283.93 373.84 284.27 372.98"/><polygon class="cls-6" points="289.28 374.19 288.76 373.32 287.89 372.81 286.86 373.32 286.52 374.19 286.86 375.22 287.89 375.57 288.76 375.22 289.28 374.19"/><polygon class="cls-6" points="293.76 373.84 294.11 372.98 293.76 371.94 292.73 371.6 291.86 371.94 291.52 372.98 291.86 373.84 292.73 374.19 293.76 373.84"/><polygon class="cls-6" points="297.39 370.22 297.73 369.36 297.39 368.32 296.35 367.97 295.49 368.32 294.97 369.36 295.49 370.22 296.35 370.73 297.39 370.22"/><polygon class="cls-6" points="296.7 363.49 296.35 364.35 296.7 365.39 297.73 365.73 298.77 365.39 299.11 364.35 298.77 363.49 297.73 362.97 296.7 363.49"/><polygon class="cls-6" points="296.35 360.73 297.39 360.38 297.73 359.52 297.39 358.48 296.35 358.14 295.49 358.48 294.97 359.52 295.49 360.38 296.35 360.73"/><polygon class="cls-6" points="292.73 357.28 293.76 356.76 294.11 355.89 293.76 354.86 292.73 354.51 291.86 354.86 291.52 355.89 291.86 356.76 292.73 357.28"/><polygon class="cls-6" points="287.89 355.89 288.76 355.55 289.28 354.51 288.76 353.48 287.89 353.13 286.86 353.48 286.52 354.51 286.86 355.55 287.89 355.89"/><polygon class="cls-6" points="282.89 357.28 283.93 356.76 284.27 355.89 283.93 354.86 282.89 354.51 282.03 354.86 281.51 355.89 282.03 356.76 282.89 357.28"/><polygon class="cls-6" points="279.27 360.73 280.3 360.38 280.65 359.52 280.3 358.48 279.27 358.14 278.4 358.48 278.06 359.52 278.4 360.38 279.27 360.73"/><path class="cls-6" d="M337.07,412.49l-.69.87-.17.69-.69,1.55v.34l-.34,2.07.34,2.07v.35l.69,1.55.17.87.69.69.69,1,.18.17.17.18,1.9,1.38,2.24.86,2.42.34,2.41-.34,2.42-.86,1.89-1.38v-.18l.18-.17.86-1,.52-.69.34-.87.52-1.55.17-.35.18-2.07-.18-2.07-.17-.34-.52-1.55-.34-.69-.52-.87-.86-.86-.18-.34-1.89-1.56-2.42-.86-2.41-.35-2.42.35-2.24.86-1.9,1.56h-.17l-.18.34Zm1.21,3.45.17-.34.69-1.55.87-.69.69-.87,1.9-.86,1.72-.34h.86l1.56.34,1.89.86.87.87.69.69.86,1.55.17.34.35,2.07-.35,2.07-.17.35-.86,1.55-.69.87-.87.69-1.89,1-1.56.17-.51.18-.35-.18-1.72-.17-1.9-1-.69-.69-.87-.87-.69-1.55-.17-.35-.34-2.07Z"/><polygon class="cls-6" points="335 411.11 334.14 411.46 333.62 412.49 334.14 413.36 335 413.7 336.04 413.36 336.38 412.49 336.04 411.46 335 411.11"/><polygon class="cls-6" points="332.59 416.98 332.07 418.01 332.59 419.05 333.45 419.39 334.49 419.05 334.83 418.01 334.49 416.98 333.45 416.63 332.59 416.98"/><polygon class="cls-6" points="335 422.33 333.97 422.67 333.62 423.71 333.97 424.57 335 424.92 335.87 424.57 336.38 423.71 335.87 422.67 335 422.33"/><polygon class="cls-6" points="339.14 426.3 338.11 426.81 337.76 427.68 338.11 428.71 339.14 429.06 340.01 428.71 340.35 427.68 340.01 426.81 339.14 426.3"/><polygon class="cls-6" points="343.63 428.37 343.29 429.23 343.63 430.27 344.67 430.61 345.7 430.27 346.05 429.23 345.7 428.37 344.67 427.85 343.63 428.37"/><polygon class="cls-6" points="350.19 426.47 349.32 426.81 348.98 427.85 349.32 428.71 350.19 429.06 351.22 428.71 351.57 427.85 351.22 426.81 350.19 426.47"/><polygon class="cls-6" points="353.47 422.67 352.95 423.71 353.47 424.57 354.33 425.09 355.36 424.57 355.71 423.71 355.36 422.67 354.33 422.33 353.47 422.67"/><polygon class="cls-6" points="356.92 419.05 357.26 418.01 356.92 417.15 355.88 416.81 355.02 417.15 354.5 418.01 355.02 419.05 355.88 419.39 356.92 419.05"/><polygon class="cls-6" points="354.5 411.11 353.47 411.46 353.12 412.49 353.47 413.53 354.5 413.87 355.36 413.53 355.71 412.49 355.36 411.46 354.5 411.11"/><polygon class="cls-6" points="351.22 409.39 351.74 408.35 351.22 407.49 350.36 406.97 349.32 407.49 348.98 408.35 349.32 409.39 350.36 409.73 351.22 409.39"/><polygon class="cls-6" points="339.14 409.73 340.01 409.21 340.53 408.35 340.01 407.32 339.14 406.97 338.11 407.32 337.76 408.35 338.11 409.21 339.14 409.73"/><polygon class="cls-6" points="345.7 407.83 346.05 406.8 345.7 405.94 344.67 405.42 343.8 405.94 343.46 406.8 343.8 407.83 344.67 408.18 345.7 407.83"/></g><g class="cls-7"><path class="cls-6" d="M647.11,657.25l-.76.78-.74-.72,3.47-3.57a3.19,3.19,0,0,1,4.75-.09,3,3,0,0,1,.66,3.82l0,0a1.18,1.18,0,0,1,.61,0l3.57,1.12c.37.13.57,0,.86-.33l.16-.17.74.73-.36.36c-.66.69-1,.81-1.76.55l-3.58-1.13a1,1,0,0,0-1.33.36l-1.38,1.41,3.55,3.45-.82.83Zm6,.59a2.16,2.16,0,0,0-.13-3.29,2.13,2.13,0,0,0-3.25,0l-1.82,1.87,3.38,3.3Z"/><path class="cls-6" d="M654.32,650.37a.33.33,0,0,0-.52,0l-.5.52-.74-.72.86-.89a.87.87,0,0,1,1.44,0l4.76,4.63a3.16,3.16,0,1,0,4.39-4.55l-4.74-4.61a.87.87,0,0,1,0-1.44l.87-.89.74.72-.5.52a.32.32,0,0,0,0,.52l4.53,4.4a4.34,4.34,0,0,1-6,6.21Z"/><path class="cls-6" d="M668.32,649.31l.15-.15a.53.53,0,0,0,.16-.69l-4.73-10,.87-.9,10.08,4.45c.31.14.46.06.69-.17l.14-.15.74.72-.37.39a1.18,1.18,0,0,1-1.67.32L671.69,642l-3.25,3.34,1.27,2.68a1.15,1.15,0,0,1-.27,1.65l-.38.4Zm2.42-7.82-4.09-1.81c-.53-.24-1.4-.73-1.4-.73l0,0s.52.85.77,1.38l1.93,4Z"/><path class="cls-6" d="M673.31,630.33l-.76.77-.74-.72,3.28-3.37c2.47-2.54,5.66-2.72,8.31-.14s2.57,5.78.1,8.32l-1.81,1.87a.87.87,0,0,1-1.44,0Zm8,5.64,1.37-1.42c2-2.07,2.12-4.62-.13-6.81a4.44,4.44,0,0,0-6.8.07l-1.63,1.68,6.67,6.48A.33.33,0,0,0,681.31,636Z"/><path class="cls-6" d="M681.63,621.77l-.76.78-.74-.72,4.68-4.81a.87.87,0,0,1,1.44,0l.84.81-.77.8-.56-.55a.33.33,0,0,0-.52,0l-2.8,2.88,3.07,3,3.07-3.16.74.72-3.07,3.16,2.86,2.78a.32.32,0,0,0,.52,0l2.87-2.95a.32.32,0,0,0,0-.52l-.57-.55.76-.78.84.82a.87.87,0,0,1,0,1.44L690,628.51a.87.87,0,0,1-1.44,0Z"/><path class="cls-6" d="M693.7,607.6a5.89,5.89,0,0,1,3.89-1.94l.15,1.09a5.37,5.37,0,0,0-3.24,1.61,5,5,0,0,0,7.11,6.93,5.06,5.06,0,0,0,1.35-3.85l-1-1a.33.33,0,0,0-.52,0l-.5.52-.74-.73.81-.83a.87.87,0,0,1,1.44,0l3.2,3.11-.75.76-.63-.61c-.18-.18-.35-.37-.35-.37l0,0a5.29,5.29,0,0,1-1.54,3.85,5.81,5.81,0,0,1-8.38-.13A5.88,5.88,0,0,1,693.7,607.6Z"/><path class="cls-6" d="M702.26,598.8a5.93,5.93,0,0,1,8.47-.11,6,6,0,1,1-8.34,8.57A5.93,5.93,0,0,1,702.26,598.8Zm7.91,7.69a4.88,4.88,0,0,0-.29-6.93,4.76,4.76,0,1,0-6.64,6.82A4.86,4.86,0,0,0,710.17,606.49Z"/><path class="cls-6" d="M715.16,601.17l.5-.51a.32.32,0,0,0,0-.52l-7.41-7.21.74-.76,10.18,1.53c.7.12,1.76.39,1.76.39l0,0s-.72-.58-1.16-1l-5.27-5.13a.87.87,0,0,1,0-1.44l.86-.88.75.72-.51.52a.33.33,0,0,0,0,.52l7.41,7.2-.75.77-10.17-1.54c-.7-.1-1.76-.37-1.76-.37l0,0a14.35,14.35,0,0,1,1.16,1l5.26,5.12a.87.87,0,0,1,0,1.44l-.87.88Z"/><path class="cls-6" d="M720.19,580.38c1.16-1.2,3.57-2.65,4.84-1.42l.7.68-.77.79-.47-.46c-.79-.76-2.55.18-3.49,1.15a4.62,4.62,0,0,0,.28,6.7,4.76,4.76,0,0,0,6.84.23,5.57,5.57,0,0,0,1.54-3.93l1.06.1a6.32,6.32,0,0,1-1.73,4.51l.41.61a1.2,1.2,0,0,1,1.66,0c.7.67.4,1.48-.17,2.07a3.93,3.93,0,0,1-.63.52l-.57-.55a2.66,2.66,0,0,0,.56-.44c.3-.31.5-.68.17-1s-.65-.15-1.07.28l-.15.18-.75-1.17a5.83,5.83,0,0,1-8-.53A5.76,5.76,0,0,1,720.19,580.38Z"/><path class="cls-6" d="M731.73,584.14l.16-.16a.51.51,0,0,0,.15-.68l-4.73-10,.88-.9,10.08,4.45c.31.14.46.06.68-.17l.14-.14.74.72-.37.38a1.17,1.17,0,0,1-1.66.32l-2.69-1.2-3.25,3.33,1.26,2.68a1.16,1.16,0,0,1-.26,1.66l-.38.39Zm2.42-7.83-4.08-1.81c-.54-.24-1.4-.73-1.4-.73l0,0s.52.86.78,1.39l1.93,4Z"/><path class="cls-6" d="M733.82,568.66a.32.32,0,0,0-.52,0l-.5.51-.74-.72.86-.89a.87.87,0,0,1,1.44,0l6.68,6.5a.33.33,0,0,0,.52,0l2.71-2.79a.33.33,0,0,0,0-.52l-.56-.54.77-.79.84.81a.87.87,0,0,1,0,1.44l-3.39,3.48a.87.87,0,0,1-1.44,0Z"/><path class="cls-6" d="M742.21,557.74a5.93,5.93,0,0,1,8.46-.1,6,6,0,1,1-8.34,8.57A5.93,5.93,0,0,1,742.21,557.74Zm7.91,7.7a4.89,4.89,0,0,0-.3-6.93,4.76,4.76,0,1,0-6.64,6.82A4.88,4.88,0,0,0,750.12,565.44Z"/><path class="cls-6" d="M757.79,555.52a4.29,4.29,0,0,0,3.15-1.18,2.14,2.14,0,0,0,.12-3.12c-2.08-2-5.7,2.53-8.31,0-1.17-1.14-1.16-3.12.35-4.67.79-.82,2.56-1.94,3.66-.87l.6.59-.77.78-.4-.38c-.5-.49-1.54-.15-2.3.62-1.06,1.09-1,2.34-.32,3,1.95,1.9,5.51-2.72,8.28,0a3.28,3.28,0,0,1-.16,4.81,5,5,0,0,1-3.79,1.5Z"/><path class="cls-6" d="M764,551l.15-.16a.52.52,0,0,0,.16-.68l-4.73-10,.87-.9,10.08,4.46c.31.13.46.05.69-.18l.14-.14.74.72-.37.38a1.17,1.17,0,0,1-1.66.32l-2.7-1.2L764.07,547l1.27,2.67a1.16,1.16,0,0,1-.27,1.66l-.38.39Zm2.42-7.82-4.09-1.81c-.53-.24-1.4-.74-1.4-.74l0,0s.52.86.77,1.39l1.93,4Z"/><path class="cls-6" d="M771.71,543.05l.43-.44a.33.33,0,0,0,0-.52l-6.84-7.79.83-.85,7.06,2.53c.62.22,1.4.55,1.4.55l0,0s-.35-.77-.6-1.38l-2.73-7,.83-.85,8,6.62a.33.33,0,0,0,.52,0l.44-.45.74.72L781,535c-.5.52-.89.48-1.44,0l-5.49-4.58c-.49-.4-1.21-1.1-1.21-1.1l0,0a14.31,14.31,0,0,1,.76,1.58l2.33,6.15-.74.75-6.2-2.17c-.61-.21-1.63-.72-1.63-.72l0,0s.74.72,1.16,1.2l4.72,5.36c.48.54.52.93,0,1.44l-.78.8Z"/><path class="cls-6" d="M775.61,525.19l-.76.78-.74-.73,3.46-3.55a3.4,3.4,0,0,1,5.06-.13,3.44,3.44,0,0,1,0,5.1l-1.89,1.94,3.3,3.21-.81.84Zm6.22.86a2.39,2.39,0,0,0,0-3.63,2.34,2.34,0,0,0-3.57.09l-1.8,1.84,3.63,3.53Z"/><path class="cls-6" d="M788.17,526.14l.15-.16a.52.52,0,0,0,.16-.68l-4.73-10,.87-.9,10.08,4.45c.31.14.46.06.69-.17l.13-.14.75.72-.37.38a1.18,1.18,0,0,1-1.67.32l-2.69-1.2-3.25,3.33,1.27,2.68a1.16,1.16,0,0,1-.27,1.66l-.38.39Zm2.42-7.83-4.09-1.81c-.53-.24-1.4-.73-1.4-.73l0,0s.52.86.78,1.38l1.93,4Z"/><path class="cls-6" d="M796.21,517.87l.77-.79-6.93-6.74-.77.79-.74-.72,2.34-2.4.74.72-.78.8,6.93,6.74.78-.8.74.72-2.34,2.4Z"/><path class="cls-6" d="M795.88,502.58a5.94,5.94,0,0,1,8.47-.11A6,6,0,1,1,796,511,5.91,5.91,0,0,1,795.88,502.58Zm7.91,7.69a4.87,4.87,0,0,0-.29-6.92,4.76,4.76,0,1,0-6.64,6.82A4.86,4.86,0,0,0,803.79,510.27Z"/></g><g class="cls-7"><path class="cls-6" d="M93.59,518.94l-.76-.77.74-.72L97,521a3.19,3.19,0,0,1-.05,4.75,3,3,0,0,1-3.83.56l0,0a1.13,1.13,0,0,1,0,.61l-1.22,3.54c-.14.36,0,.56.3.86l.17.17-.75.72-.36-.37c-.66-.68-.77-1-.49-1.78L92,526.55a1,1,0,0,0-.32-1.34l-1.37-1.41-3.55,3.44-.81-.84Zm-.77,6a2.17,2.17,0,0,0,3.3,0,2.14,2.14,0,0,0,.11-3.25l-1.83-1.88L91,523.07Z"/><path class="cls-6" d="M100.26,526.35a.33.33,0,0,0,0-.52l-.5-.52.74-.72.86.89a.87.87,0,0,1,0,1.44l-4.76,4.63a3.16,3.16,0,1,0,4.43,4.51l4.74-4.6a.87.87,0,0,1,1.44,0l.86.89-.74.72-.5-.52a.33.33,0,0,0-.52,0l-4.53,4.4a4.33,4.33,0,0,1-6-6.22Z"/><path class="cls-6" d="M100.92,540.37l.15.15c.21.22.37.32.68.18l10.09-4.45.87.9-4.74,10c-.15.3-.07.45.16.68l.13.15-.74.72-.37-.39a1.16,1.16,0,0,1-.27-1.66l1.28-2.66-3.25-3.35-2.7,1.19c-.79.34-1.07.29-1.65-.31l-.39-.39Zm7.75,2.64,1.92-4c.26-.52.78-1.38.78-1.38l0,0s-.87.49-1.41.73l-4.07,1.82Z"/><path class="cls-6" d="M122.92,549.15l-.76-.77.74-.73,3.28,3.38c2.47,2.54,2.56,5.73-.1,8.31s-5.85,2.4-8.32-.13L116,557.34a.87.87,0,0,1,0-1.44ZM117.05,557l1.38,1.41c2,2.07,4.55,2.25,6.81.07a4.43,4.43,0,0,0,.12-6.8L123.73,550l-6.67,6.48A.33.33,0,0,0,117.05,557Z"/><path class="cls-6" d="M135.48,560.31a5.94,5.94,0,0,1-.14,8.47A6,6,0,1,1,127,560.2,5.93,5.93,0,0,1,135.48,560.31ZM127.56,568a4.87,4.87,0,0,0,6.93-.1,4.76,4.76,0,1,0-6.63-6.82A4.86,4.86,0,0,0,127.56,568Z"/><path class="cls-6" d="M146.73,573.67l-.76-.77.74-.73,3.48,3.59a2.89,2.89,0,0,1,.09,4.33,2.71,2.71,0,0,1-2.88.7l0,0a2.87,2.87,0,0,1-.71,3.44,3.24,3.24,0,0,1-4.81-.22l-2.1-2.17a.87.87,0,0,1,0-1.44Zm-5.87,7.84,1.75,1.79a2.11,2.11,0,0,0,3.23.05,2.19,2.19,0,0,0,.06-3.27l-2-2-3,3A.33.33,0,0,0,140.86,581.51Zm5.67-2.22a1.92,1.92,0,0,0,2.85,0,1.88,1.88,0,0,0,.05-2.84l-1.89-1.94-2.91,2.83Z"/><path class="cls-6" d="M158,583.55a5.93,5.93,0,0,1-.13,8.47,6,6,0,1,1-8.33-8.58A5.92,5.92,0,0,1,158,583.55Zm-7.91,7.69a4.87,4.87,0,0,0,6.93-.1,4.76,4.76,0,1,0-6.63-6.83A4.87,4.87,0,0,0,150.13,591.24Z"/><path class="cls-6" d="M155.07,596.14l.43.44a.33.33,0,0,0,.52,0l8-6.61.83.85-2.74,7c-.23.62-.59,1.39-.59,1.39l0,0s.77-.33,1.39-.56l7.06-2.53.82.85L164,604.77a.34.34,0,0,0,0,.52l.44.45-.74.73-.79-.82c-.5-.52-.46-.9,0-1.44l4.73-5.36c.42-.48,1.14-1.18,1.14-1.18l0,0s-1,.49-1.59.71l-6.22,2.15-.73-.75,2.34-6.14c.23-.6.77-1.61.77-1.61l0,0s-.74.72-1.23,1.12l-5.5,4.57c-.55.47-.94.5-1.44,0l-.77-.8Z"/><path class="cls-6" d="M172.81,612.57a4.3,4.3,0,0,0,1.09,3.18A2.15,2.15,0,0,0,177,616c2.09-2-2.37-5.77.24-8.31,1.18-1.14,3.15-1.07,4.66.48.79.82,1.86,2.62.76,3.69l-.6.58-.77-.79.4-.39c.5-.48.2-1.54-.56-2.32-1.06-1.09-2.31-1.1-3-.41-2,1.9,2.57,5.59-.21,8.29a3.29,3.29,0,0,1-4.8-.3,5,5,0,0,1-1.4-3.83Z"/><path class="cls-6" d="M184.8,613.42a.32.32,0,0,0,0-.52l-.5-.52.75-.72.86.89a.87.87,0,0,1,0,1.44l-4.76,4.63a3.16,3.16,0,1,0,4.43,4.51l4.74-4.6a.87.87,0,0,1,1.44,0l.86.88-.74.73-.5-.52a.33.33,0,0,0-.52,0l-4.53,4.4a4.33,4.33,0,0,1-6-6.22Z"/><path class="cls-6" d="M197.62,624.31c1.16,1.2,2.54,3.65,1.27,4.88l-.69.68-.77-.79.47-.46c.79-.76-.11-2.55-1.05-3.52a4.63,4.63,0,0,0-6.71.09,4.81,4.81,0,0,0-.38,6.87,5.38,5.38,0,0,0,3.86,1.6l-.15,1.07a6.18,6.18,0,0,1-4.51-1.92,5.87,5.87,0,0,1,.33-8.49A5.78,5.78,0,0,1,197.62,624.31Z"/><path class="cls-6" d="M201.57,630.15l-.76-.78.74-.72,4.68,4.82a.87.87,0,0,1,0,1.44l-.84.81-.77-.79.56-.55a.33.33,0,0,0,0-.52L202.38,631l-3.07,3,3.07,3.16-.74.72-3.07-3.16-2.86,2.78a.33.33,0,0,0,0,.52l2.87,3a.33.33,0,0,0,.52,0l.57-.55.75.78-.84.82a.87.87,0,0,1-1.44,0l-3.53-3.64a.87.87,0,0,1,0-1.44Z"/><path class="cls-6" d="M201.73,642.35a4.27,4.27,0,0,0,1.08,3.18,2.16,2.16,0,0,0,3.12.21c2.08-2-2.37-5.77.24-8.31,1.17-1.14,3.14-1.07,4.65.48.79.82,1.87,2.62.76,3.68l-.6.59-.76-.79.39-.39c.51-.49.2-1.54-.55-2.32-1.06-1.09-2.31-1.11-3-.41-1.95,1.9,2.56,5.59-.22,8.28a3.29,3.29,0,0,1-4.8-.29,5,5,0,0,1-1.39-3.84Z"/><path class="cls-6" d="M207.75,648.55a4.25,4.25,0,0,0,1.09,3.18,2.15,2.15,0,0,0,3.11.21c2.08-2-2.37-5.77.24-8.31,1.17-1.14,3.14-1.07,4.65.48.8.82,1.87,2.62.77,3.69l-.6.58-.77-.79.39-.39c.51-.48.2-1.54-.55-2.32-1.06-1.09-2.31-1.11-3-.41-2,1.9,2.56,5.59-.22,8.29a3.29,3.29,0,0,1-4.8-.3,5,5,0,0,1-1.39-3.83Z"/><path class="cls-6" d="M224.34,651.84a5.92,5.92,0,0,1-.13,8.46,6,6,0,1,1-8.33-8.58A5.92,5.92,0,0,1,224.34,651.84Zm-7.91,7.68a4.88,4.88,0,0,0,6.93-.09,4.76,4.76,0,1,0-6.63-6.83A4.85,4.85,0,0,0,216.43,659.52Z"/></g><g class="cls-7"><path d="M373.47,74.42a1.1,1.1,0,0,0-.2-.31h0l0,0a1,1,0,0,0-.27-.18.94.94,0,0,0-.37-.07h-3.28a.95.95,0,1,0,0,1.89h1l-6.05,6a1,1,0,0,0,.67,1.62,1,1,0,0,0,.67-.28l6.05-6v1.08a.94.94,0,0,0,1.88,0V74.78A.92.92,0,0,0,373.47,74.42Z"/><path d="M374.43,58.82h-6.91a.7.7,0,0,0-.7.7V63.2h-3.89a.71.71,0,0,0-.71.71V67.6h-3.89a.7.7,0,0,0-.7.7V72h-3.89a.71.71,0,0,0-.7.71v3.68h-3.89a.71.71,0,0,0-.7.71v3.69h-3.88a.7.7,0,0,0-.71.7v2.27a.7.7,0,0,0,.71.7h6.91a.7.7,0,0,0,.69-.7V80.05h3.9a.69.69,0,0,0,.69-.7V75.66h3.9a.7.7,0,0,0,.7-.7V71.27h3.89a.7.7,0,0,0,.7-.7V66.83h3.89a.7.7,0,0,0,.71-.7V62.44h3.88a.7.7,0,0,0,.71-.7V59.52A.7.7,0,0,0,374.43,58.82Z"/><path d="M364.06,82.8a1,1,0,0,0,.21.31h0l0,0a.9.9,0,0,0,.26.17.83.83,0,0,0,.37.08h3.28a.95.95,0,1,0,0-1.89h-1l6.06-6a.94.94,0,0,0-.67-1.61.92.92,0,0,0-.67.27l-6.05,6V79.09a.95.95,0,1,0-1.89,0v3.35A.86.86,0,0,0,364.06,82.8Z"/></g><g class="cls-7"><path d="M652.27,226.49a.79.79,0,0,0-.2-.31h0l0,0a1.1,1.1,0,0,0-.26-.18,1,1,0,0,0-.38-.07h-3.28a.95.95,0,0,0,0,1.89h1l-6,6a.93.93,0,0,0,0,1.34.9.9,0,0,0,.66.28.94.94,0,0,0,.67-.28l6.05-6.05v1.08a.94.94,0,1,0,1.88,0v-3.36A.92.92,0,0,0,652.27,226.49Z"/><path d="M653.24,210.89h-6.91a.7.7,0,0,0-.7.7v3.69h-3.89a.7.7,0,0,0-.71.7v3.69h-3.89a.7.7,0,0,0-.7.7v3.74h-3.89a.7.7,0,0,0-.7.7v3.69H628a.7.7,0,0,0-.7.7v3.69h-3.89a.7.7,0,0,0-.7.7v2.27a.7.7,0,0,0,.7.7h6.91a.7.7,0,0,0,.7-.7v-3.74h3.9a.69.69,0,0,0,.69-.7v-3.69h3.9a.7.7,0,0,0,.7-.7v-3.69h3.89a.71.71,0,0,0,.7-.7V218.9h3.89a.7.7,0,0,0,.7-.7v-3.69h3.89a.7.7,0,0,0,.7-.7v-2.22A.7.7,0,0,0,653.24,210.89Z"/><path d="M642.87,234.88a.88.88,0,0,0,.2.3h0s0,0,0,0a1,1,0,0,0,.27.17,1,1,0,0,0,.37.08H647a.95.95,0,0,0,0-1.89h-1l6.05-6a1,1,0,0,0,0-1.34,1,1,0,0,0-.67-.27,1,1,0,0,0-.67.27l-6.05,6v-1.07a.94.94,0,1,0-1.88,0v3.35A.94.94,0,0,0,642.87,234.88Z"/></g><g class="cls-7"><path d="M742.32,150a1.43,1.43,0,0,0-.2-.3h0l0,0a1.59,1.59,0,0,0-.27-.18.94.94,0,0,0-.37-.07h-3.28a.95.95,0,0,0,0,1.89h1l-6,6a1,1,0,0,0,0,1.34,1,1,0,0,0,.66.28,1,1,0,0,0,.68-.28l6-6v1.08a.94.94,0,0,0,1.88,0v-3.36A1,1,0,0,0,742.32,150Z"/><path d="M743.29,134.37h-6.91a.7.7,0,0,0-.7.7v3.69h-3.89a.7.7,0,0,0-.71.7v3.69h-3.89a.7.7,0,0,0-.7.7v3.74H722.6a.7.7,0,0,0-.7.7V152H718a.7.7,0,0,0-.7.7v3.68h-3.89a.71.71,0,0,0-.71.71v2.27a.7.7,0,0,0,.71.7h6.91a.7.7,0,0,0,.7-.7V155.6h3.89a.7.7,0,0,0,.7-.7v-3.69h3.89a.7.7,0,0,0,.7-.7v-3.69h3.9a.71.71,0,0,0,.7-.7v-3.74h3.88a.7.7,0,0,0,.71-.7V138h3.89a.71.71,0,0,0,.7-.7v-2.22A.7.7,0,0,0,743.29,134.37Z"/><path d="M732.92,158.36a1,1,0,0,0,.2.3h0l0,0a1,1,0,0,0,.65.26h3.28a1,1,0,0,0,0-1.9h-1l6-6a1,1,0,0,0,0-1.34,1,1,0,0,0-.67-.27.94.94,0,0,0-.67.27l-6,6.05v-1.07a.95.95,0,1,0-1.89,0V158A1,1,0,0,0,732.92,158.36Z"/></g><g class="cls-7"><path d="M329.31,57H311.37a3.68,3.68,0,0,0-3.68,3.68V82.77a3.67,3.67,0,0,0,3.68,3.67h17.94A3.67,3.67,0,0,0,333,82.77V60.7A3.68,3.68,0,0,0,329.31,57Zm.74,25.75a.74.74,0,0,1-.74.73H311.37a.73.73,0,0,1-.73-.73V60.7a.73.73,0,0,1,.73-.74h17.94a.74.74,0,0,1,.74.74Z"/><path class="cls-8" d="M318.54,65.76a1.67,1.67,0,1,1-1.66-1.67A1.66,1.66,0,0,1,318.54,65.76Z"/><path class="cls-8" d="M317.63,79.46a.76.76,0,0,1-.75-.76V75.62c0-.42.11-.33-.22-.33s-.25-.09-.25.33V78.7a.75.75,0,0,1-.75.76h-.23a.76.76,0,0,1-.75-.76V75.61a.49.49,0,0,1,0-.12,1.6,1.6,0,0,1-.79-1.27l.16-4.85c.15-.92.67-1.5,1.5-1.5h2.26a1.46,1.46,0,0,1,1.5,1.5l.18,4.85a1.74,1.74,0,0,1-.89,1.27.49.49,0,0,1,0,.12V78.7a.76.76,0,0,1-.75.76Z"/><path class="cls-8" d="M325.24,65.76a1.67,1.67,0,1,1-1.67-1.67A1.67,1.67,0,0,1,325.24,65.76Z"/><path class="cls-8" d="M324.33,79.46a.76.76,0,0,1-.76-.76V75.62c0-.42.1-.33-.22-.33s-.24-.09-.24.33V78.7a.76.76,0,0,1-.76.76h-.23a.76.76,0,0,1-.75-.76V75.61a.49.49,0,0,1,0-.12,1.61,1.61,0,0,1-.8-1.27l.17-4.85c.15-.92.67-1.5,1.5-1.5h2.26a1.46,1.46,0,0,1,1.5,1.5l.18,4.85a1.72,1.72,0,0,1-.89,1.27.49.49,0,0,1,0,.12V78.7a.76.76,0,0,1-.76.76Z"/><path d="M316.09,54.24a.81.81,0,0,0,.35.07h0a.81.81,0,0,0,.31-.06.85.85,0,0,0,.31-.21l2.29-2.28a.93.93,0,1,0-1.32-1.31l-.7.7V42.73a.93.93,0,0,0-.94-.93.91.91,0,0,0-.65.27.9.9,0,0,0-.27.66v8.41l-.74-.75a.94.94,0,0,0-1.32,0,.92.92,0,0,0,0,1.32L315.78,54A.83.83,0,0,0,316.09,54.24Z"/><path d="M325.84,41.87a.92.92,0,0,0-.36-.07h0a1.08,1.08,0,0,0-.31.07.85.85,0,0,0-.31.21l-2.29,2.28a.93.93,0,0,0,1.32,1.31l.7-.7v8.42a.92.92,0,0,0,.93.92.92.92,0,0,0,.93-.93V45l.75.75a.93.93,0,1,0,1.31-1.32l-2.33-2.33A.88.88,0,0,0,325.84,41.87Z"/></g><g class="cls-7"><path d="M506.61,249.9H488.67a3.68,3.68,0,0,0-3.68,3.68v22.07a3.67,3.67,0,0,0,3.68,3.68h17.94a3.68,3.68,0,0,0,3.68-3.68V253.58A3.68,3.68,0,0,0,506.61,249.9Zm.73,25.75a.73.73,0,0,1-.73.74H488.67a.74.74,0,0,1-.74-.74V253.58a.74.74,0,0,1,.74-.73h17.94a.73.73,0,0,1,.73.73Z"/><path class="cls-8" d="M495.84,258.65a1.67,1.67,0,1,1-1.67-1.67A1.67,1.67,0,0,1,495.84,258.65Z"/><path class="cls-8" d="M494.93,272.35a.76.76,0,0,1-.75-.76V268.5c0-.41.1-.32-.22-.32s-.24-.09-.24.32v3.09a.77.77,0,0,1-.76.76h-.23a.76.76,0,0,1-.75-.76V268.5a.57.57,0,0,1,0-.13,1.6,1.6,0,0,1-.8-1.26l.16-4.85c.15-.93.68-1.51,1.5-1.51h2.26c.83,0,1.39.51,1.51,1.51l.17,4.85a1.71,1.71,0,0,1-.88,1.26s0,.09,0,.13v3.09a.77.77,0,0,1-.76.76Z"/><path class="cls-8" d="M502.53,258.65a1.67,1.67,0,1,1-1.67-1.67A1.67,1.67,0,0,1,502.53,258.65Z"/><path class="cls-8" d="M501.62,272.35a.76.76,0,0,1-.75-.76V268.5c0-.41.1-.32-.22-.32s-.25-.09-.25.32v3.09a.76.76,0,0,1-.75.76h-.23a.76.76,0,0,1-.75-.76v-3.22a1.62,1.62,0,0,1-.8-1.26l.18-4.85c.15-.93.67-1.51,1.5-1.51h2.25c.83,0,1.39.51,1.5,1.51l.18,4.85a1.71,1.71,0,0,1-.88,1.26s0,.09,0,.13v3.09a.76.76,0,0,1-.75.76Z"/><path d="M493.38,247.13a1.09,1.09,0,0,0,.35.07h0a1.13,1.13,0,0,0,.31-.06,1,1,0,0,0,.31-.21l2.28-2.28a.94.94,0,0,0,0-1.32.93.93,0,0,0-1.31,0l-.7.7v-8.41a.92.92,0,0,0-.93-.93.91.91,0,0,0-.66.28.92.92,0,0,0-.27.65V244l-.74-.74a.93.93,0,0,0-1.31,0,.91.91,0,0,0,0,1.31l2.32,2.34A1.1,1.1,0,0,0,493.38,247.13Z"/><path d="M503.13,234.76a.86.86,0,0,0-.36-.08h0a1.14,1.14,0,0,0-.3.06,1.06,1.06,0,0,0-.31.21l-2.28,2.29a.93.93,0,0,0,1.31,1.31l.71-.7v8.41a.92.92,0,0,0,.93.93.94.94,0,0,0,.66-.27,1,1,0,0,0,.27-.66v-8.41l.74.74a.93.93,0,1,0,1.32-1.31L503.44,235A.87.87,0,0,0,503.13,234.76Z"/></g><g class="cls-7"><path d="M700.6,131.87H682.66a3.68,3.68,0,0,0-3.68,3.68v22.07a3.68,3.68,0,0,0,3.68,3.68H700.6a3.68,3.68,0,0,0,3.68-3.68V135.55A3.68,3.68,0,0,0,700.6,131.87Zm.74,25.75a.73.73,0,0,1-.74.73H682.66a.72.72,0,0,1-.73-.73V135.55a.73.73,0,0,1,.73-.73H700.6a.74.74,0,0,1,.74.73Z"/><path class="cls-8" d="M689.83,140.61a1.66,1.66,0,1,1-1.66-1.66A1.66,1.66,0,0,1,689.83,140.61Z"/><path class="cls-8" d="M688.92,154.31a.75.75,0,0,1-.75-.75v-3.08c0-.42.11-.33-.22-.33s-.24-.09-.24.33v3.08a.75.75,0,0,1-.75.75h-.24a.75.75,0,0,1-.75-.75v-3.09a.27.27,0,0,1,0-.13,1.57,1.57,0,0,1-.8-1.27l.16-4.84c.16-.93.67-1.51,1.51-1.51h2.25c.83,0,1.39.51,1.5,1.51l.18,4.84a1.7,1.7,0,0,1-.89,1.27.51.51,0,0,1,0,.13v3.09a.76.76,0,0,1-.76.75Z"/><path class="cls-8" d="M696.53,140.61a1.67,1.67,0,1,1-1.67-1.66A1.67,1.67,0,0,1,696.53,140.61Z"/><path class="cls-8" d="M695.62,154.31a.75.75,0,0,1-.76-.75v-3.08c0-.42.1-.33-.22-.33s-.24-.09-.24.33v3.08a.75.75,0,0,1-.75.75h-.24a.75.75,0,0,1-.75-.75v-3.09a.53.53,0,0,1,0-.13,1.6,1.6,0,0,1-.8-1.27l.17-4.84c.15-.93.67-1.51,1.51-1.51h2.24a1.47,1.47,0,0,1,1.51,1.51l.18,4.84a1.7,1.7,0,0,1-.89,1.27.51.51,0,0,1,0,.13v3.09a.75.75,0,0,1-.76.75Z"/><path d="M687.38,129.1a1,1,0,0,0,.35.07h0a1,1,0,0,0,.3-.06,1,1,0,0,0,.32-.21l2.27-2.29a.92.92,0,0,0,0-1.31.94.94,0,0,0-1.32,0l-.7.71v-8.42a.93.93,0,0,0-1.58-.66,1,1,0,0,0-.28.66V126l-.74-.75a.92.92,0,0,0-1.32,0,.91.91,0,0,0,0,1.31l2.33,2.33A1,1,0,0,0,687.38,129.1Z"/><path d="M697.13,116.73a.86.86,0,0,0-.36-.08h0a.66.66,0,0,0-.3.07.79.79,0,0,0-.31.2l-2.28,2.28a.93.93,0,1,0,1.31,1.32l.7-.71v8.42a.93.93,0,0,0,1.6.65.89.89,0,0,0,.26-.65v-8.42l.75.75a.93.93,0,0,0,1.31-1.31l-2.32-2.34A1,1,0,0,0,697.13,116.73Z"/></g><g class="cls-7"><path d="M330.76,184.3h-6.15a6.6,6.6,0,1,1,0-13.2h1l16.89-16.84a1.18,1.18,0,0,1,.84-.34h7.05a6.61,6.61,0,0,1,0,13.22h-1.93L331.6,184A1.18,1.18,0,0,1,330.76,184.3Zm-6.15-10.82a4.22,4.22,0,0,0,0,8.44h5.66l16.87-16.81a1.22,1.22,0,0,1,.84-.35h2.43a4.24,4.24,0,0,0,0-8.47h-6.56L327,173.13a1.16,1.16,0,0,1-.84.35Z"/><path d="M352.48,173.68a1,1,0,0,0-.22-.32h0l0,0a.84.84,0,0,0-.28-.18,1,1,0,0,0-.4-.09h-3.49a1,1,0,1,0,0,2h1.07l-6.44,6.44a1,1,0,0,0,.71,1.72,1,1,0,0,0,.71-.29l6.44-6.45v1.14a1,1,0,0,0,1,1,1,1,0,0,0,1-1v-3.56A.92.92,0,0,0,352.48,173.68Z"/><path d="M342.46,182.62a1.27,1.27,0,0,0,.22.33h0l0,0a1.21,1.21,0,0,0,.28.18,1,1,0,0,0,.4.08h3.49a1,1,0,1,0,0-2h-1.07l6.44-6.45a1,1,0,0,0-.71-1.72,1,1,0,0,0-.71.3l-6.44,6.44v-1.14a1,1,0,0,0-1-1,1,1,0,0,0-1,1v3.57A1,1,0,0,0,342.46,182.62Z"/></g><g class="cls-7"><path d="M336.36,351.06H330.2a6.6,6.6,0,0,1,0-13.2h1L348.12,321a1.18,1.18,0,0,1,.84-.34H356a6.61,6.61,0,0,1,0,13.22h-1.94L337.2,350.72A1.18,1.18,0,0,1,336.36,351.06Zm-6.16-10.82a4.22,4.22,0,1,0,0,8.44h5.67l16.87-16.81a1.19,1.19,0,0,1,.84-.35H356a4.24,4.24,0,0,0,0-8.47h-6.56l-16.89,16.84a1.16,1.16,0,0,1-.84.35Z"/><path d="M358.07,340.44a.85.85,0,0,0-.21-.32h0l0,0a.84.84,0,0,0-.28-.18,1,1,0,0,0-.4-.09h-3.49a1,1,0,0,0,0,2h1.07l-6.44,6.44A1,1,0,0,0,349,350a1,1,0,0,0,.72-.29l6.44-6.45v1.14a1,1,0,1,0,2,0v-3.57A.91.91,0,0,0,358.07,340.44Z"/><path d="M348.06,349.38a.91.91,0,0,0,.22.33h0l0,0a1.21,1.21,0,0,0,.28.18.92.92,0,0,0,.4.08h3.49a1,1,0,0,0,0-2h-1.07l6.44-6.45a1,1,0,0,0,0-1.42,1,1,0,0,0-1.43,0L350,346.56v-1.14a1,1,0,0,0-2,0V349A.85.85,0,0,0,348.06,349.38Z"/></g><path class="cls-9" d="M663.88,93a3.18,3.18,0,1,1-3.17-3.17A3.17,3.17,0,0,1,663.88,93Z"/><path class="cls-9" d="M662.15,117.66a1.44,1.44,0,0,1-1.43-1.44v-4.48c0-.79.19-.61-.42-.61s-.47-.18-.47.61v4.48a1.44,1.44,0,0,1-1.43,1.44H658a1.45,1.45,0,0,1-1.44-1.44v-4.48a1,1,0,0,1,0-.25,3.16,3.16,0,0,1-1.62-2.41l.41-9.24c.29-1.76,1.29-2.87,2.87-2.87h4.29c1.59,0,2.65,1,2.87,2.87l.33,9.24a3.25,3.25,0,0,1-1.68,2.41,2,2,0,0,1,0,.25v4.48a1.44,1.44,0,0,1-1.44,1.44Z"/><path class="cls-9" d="M670.87,52.65c0-.69.29-1.25.64-1.25h0c.36,0,.65.56.65,1.25v29.7c0,.68-.29,1.24-.65,1.24h0c-.35,0-.64-.56-.64-1.24Z"/><path class="cls-9" d="M664.59,76v4a1.44,1.44,0,0,1-1.44,1.43h-.44A1.44,1.44,0,0,1,661.27,80V76h-1.12v4a1.44,1.44,0,0,1-1.44,1.43h-.45A1.43,1.43,0,0,1,656.83,80V76a2.86,2.86,0,0,1-1.92-4.06l1.3-7.94c.43-2.17,1.68-3.24,3.74-3.24h1.26c2.07,0,2.92.85,3.74,3.24l1.63,7.94A2.94,2.94,0,0,1,664.59,76Z"/><path class="cls-9" d="M663.47,56.74a3.18,3.18,0,1,1-3.18-3.18A3.17,3.17,0,0,1,663.47,56.74Z"/><path class="cls-10" d="M688,54.76a2.61,2.61,0,1,1-2.61-2.6A2.61,2.61,0,0,1,688,54.76Z"/><path class="cls-10" d="M695,76.12a9.48,9.48,0,1,1-12.12-13.34l.17,2.07A7.51,7.51,0,1,0,694,73.42Z"/><path class="cls-10" d="M693.79,62.85a1,1,0,0,1,0,2H689l.16,1.36a1.52,1.52,0,0,0,1.52,1.51H693a4.6,4.6,0,0,1,4.18,2.71l2.52,6.39a1.68,1.68,0,0,1-1.52,2.39,1.66,1.66,0,0,1-1.5-.94l-2.31-5.85a2.36,2.36,0,0,0-2.12-1.31h-4a4.23,4.23,0,0,1-4.15-3.38l-.75-7.3a2.43,2.43,0,0,1,2.56-2.55,2.67,2.67,0,0,1,2.55,2.55c.22,1.52.32,2.45.32,2.45Z"/><path class="cls-8" d="M199.12,174.67h-11.4c0-4.49,2.73-7.5,5.61-7.5C196.39,167.17,199.14,170.56,199.12,174.67Z"/><path class="cls-8" d="M186.7,174.67H175.3c0-4.49,2.73-7.5,5.6-7.5C184,167.17,186.72,170.56,186.7,174.67Z"/><path class="cls-8" d="M174.27,174.67H162.88c0-4.49,2.73-7.5,5.6-7.5C171.55,167.17,174.29,170.56,174.27,174.67Z"/><path class="cls-8" d="M183.87,149.58a3,3,0,1,1-3-3A3,3,0,0,1,183.87,149.58Z"/><path class="cls-8" d="M190,155.58a3,3,0,1,1-3-3A3,3,0,0,1,190,155.58Z"/><path class="cls-8" d="M177.58,155.58a3,3,0,1,1-3-3A3,3,0,0,1,177.58,155.58Z"/><path class="cls-8" d="M183.87,162.09a3,3,0,1,1-3-3A3,3,0,0,1,183.87,162.09Z"/><path class="cls-8" d="M171.42,162.09a3,3,0,1,1-3-3A3,3,0,0,1,171.42,162.09Z"/><path class="cls-8" d="M196.2,162.09a3,3,0,1,1-3-3A3,3,0,0,1,196.2,162.09Z"/><path class="cls-8" d="M173.52,332.66h-11.4c0-4.5,2.73-7.5,5.61-7.5C170.79,325.16,173.54,328.54,173.52,332.66Z"/><path class="cls-8" d="M161.1,332.66H149.7c0-4.5,2.74-7.5,5.61-7.5C158.37,325.16,161.12,328.54,161.1,332.66Z"/><path class="cls-8" d="M148.67,332.66H137.28c0-4.5,2.73-7.5,5.6-7.5C146,325.16,148.7,328.54,148.67,332.66Z"/><path class="cls-8" d="M158.28,307.56a3,3,0,1,1-3-3A3,3,0,0,1,158.28,307.56Z"/><path class="cls-8" d="M164.35,313.56a3,3,0,1,1-3-3A3,3,0,0,1,164.35,313.56Z"/><path class="cls-8" d="M152,313.56a3,3,0,1,1-3-3A3,3,0,0,1,152,313.56Z"/><path class="cls-8" d="M158.28,320.08a3,3,0,1,1-3-3A3,3,0,0,1,158.28,320.08Z"/><path class="cls-8" d="M145.82,320.08a3,3,0,1,1-3-3A3,3,0,0,1,145.82,320.08Z"/><path class="cls-8" d="M170.6,320.08a3,3,0,1,1-3-3A3,3,0,0,1,170.6,320.08Z"/><g class="cls-7"><path d="M302.86,428.87l.1-31.18c-5.35.15-5.94,3.6-5.94,5.48v2.31c0,1.3-.3,3.18,1.82,4.57h0c1.46,1,1.3,3.23,1.3,4.07l.24,14.75h0V429a1.24,1.24,0,1,0,2.48,0s0-.08,0-.11Z"/><path d="M293.09,405.27c0,.05,0,0,0,0Z"/><path d="M293.09,405.27v-6.62a.95.95,0,0,0-1.89,0v5.8h0a.8.8,0,0,1-.79.78.81.81,0,0,1-.81-.78h0v-5.8a.94.94,0,0,0-1.88,0v5.8h0a.79.79,0,0,1-1.57,0h0v-5.8a.94.94,0,0,0-1.88,0V405c0,.06,0,.12,0,.17v.42c0,1.3-.3,3.17,1.81,4.57h0c1.45,1,1.3,3.45,1.3,4.29l.05,14.6a1.15,1.15,0,0,0,2.29,0L290,414c0-.84-.16-2.89,1.3-3.85h0C293.34,408.79,293.1,406.57,293.09,405.27Z"/></g><g class="cls-7"><path d="M589.45,535.3l.11-31.17c-5.35.15-5.94,3.6-5.94,5.47v2.31c0,1.31-.3,3.18,1.82,4.57h0c1.45,1,1.3,3.24,1.3,4.08L587,535.3h0v.11a1.24,1.24,0,1,0,2.47,0v-.11Z"/><path d="M579.69,511.7c0,.06,0-.05,0,0Z"/><path d="M579.69,511.7v-6.61a.95.95,0,0,0-1.89,0v5.79h0a.8.8,0,0,1-.79.79.82.82,0,0,1-.81-.79h0v-5.79a.94.94,0,0,0-1.88,0v5.79h0a.79.79,0,0,1-.79.77.79.79,0,0,1-.78-.77h0v-5.79a.94.94,0,0,0-1.88,0v6.39c0,.06,0,.11,0,.17v.41c0,1.3-.3,3.18,1.81,4.58h0c1.45,1,1.3,3.45,1.3,4.28l0,14.6a1.15,1.15,0,1,0,2.3,0l.23-15.08c0-.84-.16-2.88,1.3-3.84h0C579.94,515.23,579.7,513,579.69,511.7Z"/></g><g class="cls-7"><path d="M244.8,226.87a1.43,1.43,0,0,0-.2-.3h0l0,0a1.59,1.59,0,0,0-.27-.18,1.16,1.16,0,0,0-.37-.07h-3.28a.95.95,0,0,0,0,1.89h1l-6.05,6a.94.94,0,0,0,.66,1.61,1,1,0,0,0,.68-.27l6.05-6v1.08a.94.94,0,0,0,1.88,0v-3.36A1,1,0,0,0,244.8,226.87Z"/><path d="M235.4,235.26a.79.79,0,0,0,.2.3h0l0,0a1.06,1.06,0,0,0,.27.18,1,1,0,0,0,.38.07h3.27a.95.95,0,1,0,0-1.89h-1l6-6a1,1,0,0,0,0-1.34.94.94,0,0,0-.67-.28.91.91,0,0,0-.67.28l-6,6.05v-1.07a.95.95,0,1,0-1.89,0v3.35A.76.76,0,0,0,235.4,235.26Z"/></g><path d="M242.57,220.48a1.44,1.44,0,0,0-1.31-.87H235a.7.7,0,0,0-.7.71V224h-3.89a.71.71,0,0,0-.71.71v3.68h-3.88a.71.71,0,0,0-.71.71v2.27a.7.7,0,0,0,.71.69h6.91a.69.69,0,0,0,.69-.69v-3.74h3.9a.7.7,0,0,0,.7-.7v-3.69h3.89a.7.7,0,0,0,.7-.7v-.22a1.39,1.39,0,0,0,.12-.57v-.7A1.35,1.35,0,0,0,242.57,220.48Z"/><path class="cls-6" d="M211,340.74l-6.19-9.69c25.81-16.47,25.8-35.32,25.79-55.26v-24.2h11.51v24.19c0,21.14,0,45.1-31.11,65Z"/></g></g></g></svg>