<?xml version="1.0" encoding="UTF-8" standalone="no"?>
<!-- Created with Inkscape (http://www.inkscape.org/) -->

<svg
   xmlns:dc="http://purl.org/dc/elements/1.1/"
   xmlns:cc="http://creativecommons.org/ns#"
   xmlns:rdf="http://www.w3.org/1999/02/22-rdf-syntax-ns#"
   xmlns:svg="http://www.w3.org/2000/svg"
   xmlns="http://www.w3.org/2000/svg"
   xmlns:sodipodi="http://sodipodi.sourceforge.net/DTD/sodipodi-0.dtd"
   xmlns:inkscape="http://www.inkscape.org/namespaces/inkscape"
   version="1.1"
   id="svg3783"
   width="77"
   height="105"
   viewBox="0 0 77 105"
   sodipodi:docname="03.svg"
   inkscape:version="0.92.3 (2405546, 2018-03-11)">
  <metadata
     id="metadata3789">
    <rdf:RDF>
      <cc:Work
         rdf:about="">
        <dc:format>image/svg+xml</dc:format>
        <dc:type
           rdf:resource="http://purl.org/dc/dcmitype/StillImage" />
        <dc:title></dc:title>
      </cc:Work>
    </rdf:RDF>
  </metadata>
  <defs
     id="defs3787" />
  <sodipodi:namedview
     pagecolor="#ffffff"
     bordercolor="#666666"
     borderopacity="1"
     objecttolerance="10"
     gridtolerance="10"
     guidetolerance="10"
     inkscape:pageopacity="0"
     inkscape:pageshadow="2"
     inkscape:window-width="1920"
     inkscape:window-height="1017"
     id="namedview3785"
     showgrid="false"
     inkscape:zoom="2.247619"
     inkscape:cx="107.72637"
     inkscape:cy="64.398561"
     inkscape:window-x="-8"
     inkscape:window-y="-8"
     inkscape:window-maximized="1"
     inkscape:current-layer="svg3783" />
  <path
     style="fill:#050505"
     d="M 23.808258,93.970657 C 11.4522,88.125572 1.2208955,83.24827 1.0720245,83.13221 0.92315349,83.01615 1.2833935,78.467995 1.8725585,73.025199 3.7685125,55.510052 9.4545305,25.684041 11.237573,23.900998 c 0.286729,-0.286729 9.874892,1.090108 21.307029,3.059637 11.432139,1.96953 21.094509,3.263175 21.471929,2.874767 0.37743,-0.388408 1.63366,-2.956196 2.79164,-5.706196 2.53536,-6.021038 2.97961,-10.50567 -4.01197,40.5 -2.90256,21.175 -5.5575,38.830494 -5.89988,39.234434 -0.34238,0.40394 -10.732005,-4.047899 -23.088063,-9.892983 z m 29.179753,-4.091451 c 0.99281,-7.0125 3.83678,-27.33302 6.31994,-45.15671 2.48316,-17.823691 4.66492,-32.556795 4.84836,-32.740231 0.57827,-0.578272 5.60171,21.887657 7.66286,34.269981 2.36275,14.194234 4.02353,30.236892 4.02353,38.866283 0,6.795975 -0.63312,7.463169 -7.11408,7.497022 -2.35454,0.0123 -2.67721,-0.446976 -3.25,-4.625916 -0.34976,-2.551764 -0.63592,-6.151764 -0.63592,-8 0,-1.848236 -0.45,-3.360429 -1,-3.360429 -0.56555,0 -1.04331,3.149787 -1.09968,7.25 -0.0548,3.9875 -0.39233,8.230872 -0.75,9.429717 -0.52726,1.767232 -8.97169,9.320277 -10.42022,9.320277 -0.21444,0 0.42241,-5.737494 1.41521,-12.749994 z M 27.842698,23.151489 C 17.667698,21.33609 9.2256825,19.800913 9.0826635,19.739985 8.9396435,19.679055 10.88612,15.520544 13.408168,10.498847 l 4.585542,-9.1303601 6.174494,0.6012093 c 3.395972,0.3306652 13.042717,1.1418394 21.437217,1.8026095 13.78556,1.0851265 15.20897,1.3707248 14.70743,2.9509502 -0.30541,0.9622526 -2.27291,5.7222411 -4.37223,10.5777501 -3.4852,8.060894 -4.06818,8.842237 -6.70744,8.989704 -1.58976,0.08883 -11.215483,-1.323822 -21.390483,-3.139221 z m 5.52648,-6.605716 c 0.733079,-2.309726 -0.135754,-3.916567 -2.117721,-3.916567 -1.89412,0 -3.496021,4.105289 -2.220481,5.690559 1.258842,1.564516 3.579837,0.615408 4.338202,-1.773992 z"
     id="path3793"
     inkscape:connector-curvature="0" />
</svg>
