<?xml version="1.0" encoding="UTF-8" standalone="no"?>
<!-- Created with Inkscape (http://www.inkscape.org/) -->

<svg
   xmlns:dc="http://purl.org/dc/elements/1.1/"
   xmlns:cc="http://creativecommons.org/ns#"
   xmlns:rdf="http://www.w3.org/1999/02/22-rdf-syntax-ns#"
   xmlns:svg="http://www.w3.org/2000/svg"
   xmlns="http://www.w3.org/2000/svg"
   xmlns:sodipodi="http://sodipodi.sourceforge.net/DTD/sodipodi-0.dtd"
   xmlns:inkscape="http://www.inkscape.org/namespaces/inkscape"
   version="1.1"
   id="svg3795"
   width="174"
   height="111"
   viewBox="0 0 174 111"
   sodipodi:docname="04.svg"
   inkscape:version="0.92.3 (2405546, 2018-03-11)">
  <metadata
     id="metadata3801">
    <rdf:RDF>
      <cc:Work
         rdf:about="">
        <dc:format>image/svg+xml</dc:format>
        <dc:type
           rdf:resource="http://purl.org/dc/dcmitype/StillImage" />
        <dc:title></dc:title>
      </cc:Work>
    </rdf:RDF>
  </metadata>
  <defs
     id="defs3799" />
  <sodipodi:namedview
     pagecolor="#ffffff"
     bordercolor="#666666"
     borderopacity="1"
     objecttolerance="10"
     gridtolerance="10"
     guidetolerance="10"
     inkscape:pageopacity="0"
     inkscape:pageshadow="2"
     inkscape:window-width="1920"
     inkscape:window-height="1017"
     id="namedview3797"
     showgrid="false"
     inkscape:zoom="1.6321839"
     inkscape:cx="164.16827"
     inkscape:cy="91.973652"
     inkscape:window-x="-8"
     inkscape:window-y="-8"
     inkscape:window-maximized="1"
     inkscape:current-layer="svg3795" />
  <path
     style="fill:#030303"
     d="m 161.93317,108.18323 c 0.0293,-4.0642 -4.13254,-25.15365 -5.86626,-29.726077 -2.55294,-6.732975 -6.5932,-9.023926 -15.91436,-9.023926 h -7.46861 l 0.70037,6.75 c 0.64115,6.17924 1.02715,7.04595 4.56493,10.25 3.62508,3.283106 7.95558,9.45211 7.96395,11.34502 0.002,0.46476 -1.98889,-0.32274 -4.42433,-1.75 -5.83069,-3.41701 -7.60385,-3.26872 -10.42335,0.8717 -2.49216,3.659743 -8.41714,7.064993 -14.17257,8.145383 l -3.47601,0.6525 3.75,-3.92446 c 6.13927,-6.424903 4.90244,-7.565173 -5.25,-4.840143 -7.57262,2.03258 -9.8755,1.89473 -19.060592,-1.14098 -4.39493,-1.45254 -8.26553,-2.36623 -8.60133,-2.03043 -0.3358,0.3358 0.35076,2.84516 1.52569,5.57636 1.17493,2.731203 2.13623,5.241513 2.13623,5.578473 0,0.33696 -2.00375,-0.76596 -4.45278,-2.45094 -5.71025,-3.928753 -9.77373,-4.769313 -12.96083,-2.681043 -1.68933,1.106893 -2.55425,1.244973 -2.81922,0.450073 -0.2849,-0.854713 -2.70852,-0.813263 -9.51798,0.16277 -11.71672,1.67942 -15.7144,0.99616 -26.90851,-4.599023 -10.22918,-5.11288 -16.54714,-10.528775 -18.46294,-15.82684 -0.71303,-1.971836 -1.96536,-3.540889 -2.8286204,-3.543997 -2.59083,-0.0093 -9.04911995,-2.038987 -9.04911995,-2.843883 0,-0.415498 2.24999995,-1.56454 4.99999995,-2.553426 5.5730704,-2.004047 6.0375904,-3.234601 3.28168,-8.693476 -2.10506,-4.169681 -2.32392,-14.118521 -0.41036,-18.653638 0.75423,-1.7875 1.7104804,-3.25 2.1250004,-3.25 0.41453,0 1.03963,1.4625 1.38913,3.25 0.34949,1.7875 1.86824,7.430018 3.375,12.538929 2.62776,8.909874 2.84157,9.264873 5.23955,8.699418 5.21077,-1.228723 11.58037,-5.113997 13.74856,-8.38623 3.10429,-4.684996 2.89622,-10.185928 -0.86368,-22.833507 -5.78565,-19.461872 -2.10716,-28.0284667 14.09076,-32.81504868 2.40068,-0.7094136 2.37853,-0.6209669 -0.7313,2.92093498 -5.7515,6.5505957 -6.57669,9.0882787 -5.8375,17.9518287 0.36387,4.363156 1.09325,8.739571 1.62083,9.725366 1.59129,2.973349 4.00346,4.948309 6.04376,4.948309 1.67268,0 1.92857,-0.73506 1.92857,-5.539838 0,-9.040613 3.61629,-14.572244 12.01799,-18.383215 6.63318,-3.0087827 7.6518,-2.5607237 3.82021,1.680389 -5.71575,6.326658 -6.36062,8.976783 -4.88987,20.095439 1.19574,9.039647 1.49971,9.858081 4.82653,12.995241 4.30713,4.061585 5.32866,3.853538 16.43897,-3.348016 7.83178,-5.076456 9.60246,-7.482271 5.53617,-7.521962 -4.25429,-0.04153 -10.58212,-3.763602 -13.6883,-8.05156 -1.68393,-2.324605 -3.0617,-4.593046 -3.0617,-5.040979 0,-0.447933 1.93045,0.01306 4.28988,1.024433 7.36245,3.155912 10.01984,3.358412 15.83637,1.206771 15.240442,-5.637715 18.046382,-6.902352 20.599472,-9.284162 3.17633,-2.963249 5.57447,-4.268564 9.62371,-5.238216 l 2.84943,-0.68234 -2.09943,2.948378 c -3.32516,4.669757 -2.76642,5.474053 5.15418,7.41935 10.19323,2.503456 17.43328,6.25381 20.56518,10.652784 2.52908,3.552279 2.85776,3.693208 8.65506,3.71106 3.81091,0.01174 7.68037,0.751055 10.52615,2.01118 l 4.5,1.992623 -8.5,1.93126 -8.5,1.931259 -0.3075,4.245061 c -0.36481,5.036255 -1.42946,5.354479 -3.88596,1.161511 -1.53749,-2.624314 -2.26175,-3.01068 -4.86303,-2.594272 -8.51469,1.363011 -14.43125,6.66007 -14.43977,12.927821 -0.003,2.346981 0.40714,2.75 2.79992,2.75 4.70411,0 12.48541,4.648499 20.95944,12.521046 10.21158,9.486751 12.69789,14.218377 11.98775,22.813484 -0.70029,8.475743 -5.78647,18.600453 -5.73461,11.415473 z M 53.416928,91.759017 c 6.05,-2.021502 11.62691,-3.832376 12.39313,-4.024163 3.51618,-0.88011 -0.89181,-1.215719 -19.67332,-1.49786 -13.02702,-0.195696 -20.21293,0.052 -20.1982,0.696233 0.0404,1.76502 3.38853,5.35374 6.47839,6.94383 4.56045,2.34688 8.96763,1.90237 21,-2.11804 z m 57.737402,-4.551736 11.759,-5.274054 0.002,-3.668213 c 9.9e-4,-2.017516 0.27494,-4.380016 0.60879,-5.25 0.49408,-1.287559 -0.20346,-1.594861 -3.75,-1.652072 -2.39635,-0.03866 -5.23583,-0.414086 -6.30997,-0.834286 -1.59724,-0.624839 -2.7165,0.273177 -6.14475,4.930132 -4.87142,6.617075 -10.086512,9.574317 -18.652472,10.576844 -3.1625,0.370127 -5.75,0.898892 -5.75,1.175034 0,0.810143 3.26292,3.211106 6.5,4.782921 4.31157,2.09354 8.41034,1.19104 21.737402,-4.786306 z M 95.629178,74.444022 c 5.066742,-2.036785 9.919232,-4.289985 10.783312,-5.007111 1.41747,-1.176399 1.38372,-1.509153 -0.34528,-3.403775 -3.41027,-3.736956 -5.15498,-8.392767 -5.28673,-14.107833 l -0.12893,-5.592698 -3.117312,0.661605 c -1.71452,0.363882 -3.79231,1.21108 -4.61731,1.88266 -2.55793,2.082251 -8.6739,4.555843 -13.4881,5.455232 -5.33742,0.997139 -6.16982,1.573398 -4.80573,3.326959 1.91996,2.468151 7.29383,16.667189 7.29383,19.272036 0,3.089088 -0.28989,3.141668 13.71225,-2.487075 z m -52.71225,-1.343058 c 8.92535,-3.915633 9.64171,-4.45337 11.84262,-8.889782 1.83798,-3.704824 2.19603,-5.589746 1.66211,-8.75 -0.37429,-2.215375 -1.2397,-4.027955 -1.92315,-4.027955 -0.68344,0 -3.45639,-1.123117 -6.1621,-2.495815 -6.00205,-3.045042 -6.06444,-3.047383 -6.7752,-0.254185 -0.95487,3.752554 -10.41868,18.375247 -14.1878,21.921832 l -3.537,3.328168 2.15104,1.75 c 3.14235,2.556479 6.32148,2.071565 16.92948,-2.582263 z m 21.5,-5.824816 c 0,-3.93697 0.45,-7.307941 1,-7.491046 0.55,-0.183105 2.73704,2.362816 4.86009,5.657603 2.12305,3.294787 4.03555,5.990522 4.25,5.990522 0.21445,0 0.38991,-1.881051 0.38991,-4.180113 0,-3.685246 -0.54917,-4.691526 -4.63883,-8.5 -2.55136,-2.375938 -4.98341,-4.319887 -5.40454,-4.319887 -0.42114,0 -2.21591,2.5875 -3.98838,5.75 -1.77247,3.1625 -4.33318,7.6625 -5.69048,10 l -2.46781,4.25 5.84502,5.24e-4 5.84502,5.24e-4 z M 131.41693,53.218997 c 2.75,-3.92529 6.45947,-8.796572 8.24326,-10.82507 l 3.24326,-3.688178 -2.52796,-4.886261 c -1.39037,-2.687444 -4.16231,-6.348761 -6.15986,-8.136261 -3.05102,-2.730186 -4.4155,-3.25 -8.53105,-3.25 -6.47271,0 -8.76765,1.313108 -8.76765,5.016624 0,4.02976 2.02708,16.97452 3.09014,19.733376 0.48945,1.270216 0.48932,2.25 -2.9e-4,2.25 -0.477,0 -1.16873,1.606956 -1.53719,3.571014 -0.36846,1.964057 -0.90542,4.184694 -1.19325,4.934749 -0.37225,0.970075 0.58283,1.478377 3.30864,1.760883 2.10757,0.218431 4.28195,0.455393 4.83195,0.526582 0.55,0.07119 3.25,-3.082168 6,-7.007458 z"
     id="path3805"
     inkscape:connector-curvature="0" />
</svg>
