<?xml version="1.0" encoding="UTF-8" standalone="no"?>
<!-- Created with Inkscape (http://www.inkscape.org/) -->

<svg
   xmlns:dc="http://purl.org/dc/elements/1.1/"
   xmlns:cc="http://creativecommons.org/ns#"
   xmlns:rdf="http://www.w3.org/1999/02/22-rdf-syntax-ns#"
   xmlns:svg="http://www.w3.org/2000/svg"
   xmlns="http://www.w3.org/2000/svg"
   xmlns:sodipodi="http://sodipodi.sourceforge.net/DTD/sodipodi-0.dtd"
   xmlns:inkscape="http://www.inkscape.org/namespaces/inkscape"
   version="1.1"
   id="svg3759"
   width="90"
   height="102"
   viewBox="0 0 90 102"
   sodipodi:docname="01.svg"
   inkscape:version="0.92.3 (2405546, 2018-03-11)">
  <metadata
     id="metadata3765">
    <rdf:RDF>
      <cc:Work
         rdf:about="">
        <dc:format>image/svg+xml</dc:format>
        <dc:type
           rdf:resource="http://purl.org/dc/dcmitype/StillImage" />
        <dc:title></dc:title>
      </cc:Work>
    </rdf:RDF>
  </metadata>
  <defs
     id="defs3763" />
  <sodipodi:namedview
     pagecolor="#ffffff"
     bordercolor="#666666"
     borderopacity="1"
     objecttolerance="10"
     gridtolerance="10"
     guidetolerance="10"
     inkscape:pageopacity="0"
     inkscape:pageshadow="2"
     inkscape:window-width="1920"
     inkscape:window-height="1017"
     id="namedview3761"
     showgrid="false"
     inkscape:zoom="4.1568627"
     inkscape:cx="60.453949"
     inkscape:cy="55.140078"
     inkscape:window-x="-8"
     inkscape:window-y="-8"
     inkscape:window-maximized="1"
     inkscape:current-layer="svg3759" />
  <path
     style="fill:#0b0b0b"
     d="m 45.625043,95.490563 c 0.36206,-3.7125 0.92801,-15.749997 1.25767,-26.749997 l 0.59937,-20 -3.35374,-1.944165 c -4.7127,-2.731949 -11.76502,-9.417775 -13.52595,-12.823035 -0.81654,-1.579015 -2.13069,-6.327356 -2.92032,-10.551869 -1.67837,-8.979191 -3.93966,-15.5367496 -6.74018,-19.5459176 l -2.00127,-2.864987 2.13751,0.67842 c 8.89069,2.821796 18.96413,11.8381726 23.17588,20.7439006 3.45898,7.314018 4.63461,12.876709 5.52573,26.145901 l 0.66071,9.838248 3.26668,-4.838248 c 6.65603,-9.858182 16.95661,-17.436924 28.43401,-20.920571 6.73361,-2.043803 7.3176,-1.774383 3.97166,1.832323 -3.78465,4.079604 -5.51616,7.352781 -8.44516,15.964398 -3.90351,11.476814 -7.08322,14.673564 -20.30732,20.416178 -8.76626,3.806783 -8.36911,2.936832 -9.64142,21.119421 -0.40683,5.81397 -1.15758,10.249997 -1.7347,10.249997 -0.65447,0 -0.78261,-2.408107 -0.35916,-6.749997 z m -11.88739,-6.02631 C 19.865053,82.087722 14.48767,75.629359 12.319511,63.740566 10.631122,54.482518 8.3620079,48.552856 4.6433299,43.681122 c -1.87152,-2.451824 -3.402764,-4.675102 -3.402764,-4.940616 0,-1.294895 14.0316611,5.032316 20.0861171,9.057309 8.64924,5.750005 14.88793,12.848667 19.50587,22.194662 3.52463,7.1333 3.59403,7.498231 2.90537,15.277976 -0.43727,4.93975 -1.14121,7.96011 -1.85144,7.9438 -0.63025,-0.0145 -4.29723,-1.70197 -8.14883,-3.75 z m 18.1509,-50.473687 c -1.09538,-9.119431 -0.69884,-13.098788 1.85106,-18.576155 3.42931,-7.36638 17.77661,-21.1693296 14.99269,-14.4238446 -1.67923,4.0688016 -2.29249,8.7803826 -1.78406,13.7066406 0.3089,2.992874 0.0188,6.842239 -0.67391,8.941033 -1.12416,3.406261 -11.28775,15.602326 -13.00219,15.602326 -0.41415,0 -1.03676,-2.3625 -1.38359,-5.25 z"
     id="path3769"
     inkscape:connector-curvature="0" />
</svg>
