<?xml version="1.0" encoding="UTF-8" standalone="no"?>
<!-- Created with Inkscape (http://www.inkscape.org/) -->

<svg
   xmlns:dc="http://purl.org/dc/elements/1.1/"
   xmlns:cc="http://creativecommons.org/ns#"
   xmlns:rdf="http://www.w3.org/1999/02/22-rdf-syntax-ns#"
   xmlns:svg="http://www.w3.org/2000/svg"
   xmlns="http://www.w3.org/2000/svg"
   xmlns:sodipodi="http://sodipodi.sourceforge.net/DTD/sodipodi-0.dtd"
   xmlns:inkscape="http://www.inkscape.org/namespaces/inkscape"
   version="1.1"
   id="svg3771"
   width="103"
   height="80"
   viewBox="0 0 103 80"
   sodipodi:docname="02.svg"
   inkscape:version="0.92.3 (2405546, 2018-03-11)">
  <metadata
     id="metadata3777">
    <rdf:RDF>
      <cc:Work
         rdf:about="">
        <dc:format>image/svg+xml</dc:format>
        <dc:type
           rdf:resource="http://purl.org/dc/dcmitype/StillImage" />
        <dc:title></dc:title>
      </cc:Work>
    </rdf:RDF>
  </metadata>
  <defs
     id="defs3775" />
  <sodipodi:namedview
     pagecolor="#ffffff"
     bordercolor="#666666"
     borderopacity="1"
     objecttolerance="10"
     gridtolerance="10"
     guidetolerance="10"
     inkscape:pageopacity="0"
     inkscape:pageshadow="2"
     inkscape:window-width="1920"
     inkscape:window-height="1017"
     id="namedview3773"
     showgrid="false"
     inkscape:zoom="1.9496925"
     inkscape:cx="-39.529935"
     inkscape:cy="90.626416"
     inkscape:window-x="-8"
     inkscape:window-y="-8"
     inkscape:window-maximized="1"
     inkscape:current-layer="svg3771" />
  <path
     style="fill:#0a0a0a"
     d="m 56.879014,76.846224 c -0.58133,-1.501995 -1.94925,-5.0934 -3.03984,-7.9809 -1.09058,-2.8875 -2.06304,-5.243225 -2.16102,-5.234944 -0.098,0.0083 -1.97815,0.66353 -4.178154,1.456108 -6.34518,2.285931 -16.11786,1.920657 -22,-0.822297 C 14.938316,59.339077 5.8337881,46.244666 2.4754501,31.149576 1.5610391,27.039476 0.96748615,23.245456 1.1564431,22.718419 1.6141961,21.441655 16.840653,26.449635 25,30.560564 c 16.687318,8.407581 26.922804,20.722713 33.644094,40.479912 2.79311,8.210303 2.69171,7.232011 0.82389,7.948759 -1.03689,0.397893 -1.8736,-0.294691 -2.58897,-2.143011 z M 55.489534,55.481797 C 50.796814,45.488242 38.991272,34.150554 27.14835,28.263768 22.004942,25.707124 17.092442,23.615324 16.231683,23.615324 c -0.860759,0 -1.314797,-0.25022 -1.008973,-0.556043 1.335656,-1.335656 21.442891,5.02567 27.77729,8.7879 5.457774,3.241572 11.068654,8.897946 12.996404,13.101785 l 1.75798,3.833642 2.08443,-6.862518 c 3.95201,-13.011127 9.75101,-21.57103 19.66119,-29.021854 5.03677,-3.7868277 20.23881,-12.28291209 21.977796,-12.28291209 0.28721,0 0.5222,2.22785049 0.5222,4.95077889 0,12.3804272 -5.197636,25.3443162 -12.959156,32.3225882 -5.86322,5.271538 -11.38042,7.071518 -20.16864,6.579991 l -6.31782,-0.353358 -2.03766,8.866473 -2.03765,8.866474 z m 0.92639,-21.462934 c -1.7531,-9.344815 5.61585,-18.455576 20.96762,-25.9237747 5.06478,-2.4638706 9.56314,-4.4797644 9.99635,-4.4797644 0.43321,0 -2.60874,2.2716524 -6.7599,5.0481164 -9.11038,6.0933937 -15.48993,13.3124387 -19.6833,22.2734677 -1.71886,3.673129 -3.2874,6.678416 -3.48564,6.678416 -0.19823,0 -0.66404,-1.618408 -1.03513,-3.596461 z"
     id="path3781"
     inkscape:connector-curvature="0" />
</svg>
