<?xml version="1.0" encoding="UTF-8" standalone="no"?>
<!-- Created with Inkscape (http://www.inkscape.org/) -->

<svg
   xmlns:dc="http://purl.org/dc/elements/1.1/"
   xmlns:cc="http://creativecommons.org/ns#"
   xmlns:rdf="http://www.w3.org/1999/02/22-rdf-syntax-ns#"
   xmlns:svg="http://www.w3.org/2000/svg"
   xmlns="http://www.w3.org/2000/svg"
   xmlns:sodipodi="http://sodipodi.sourceforge.net/DTD/sodipodi-0.dtd"
   xmlns:inkscape="http://www.inkscape.org/namespaces/inkscape"
   version="1.1"
   id="svg3807"
   width="183"
   height="172"
   viewBox="0 0 183 172"
   sodipodi:docname="05.svg"
   inkscape:version="0.92.3 (2405546, 2018-03-11)">
  <metadata
     id="metadata3813">
    <rdf:RDF>
      <cc:Work
         rdf:about="">
        <dc:format>image/svg+xml</dc:format>
        <dc:type
           rdf:resource="http://purl.org/dc/dcmitype/StillImage" />
        <dc:title></dc:title>
      </cc:Work>
    </rdf:RDF>
  </metadata>
  <defs
     id="defs3811" />
  <sodipodi:namedview
     pagecolor="#ffffff"
     bordercolor="#666666"
     borderopacity="1"
     objecttolerance="10"
     gridtolerance="10"
     guidetolerance="10"
     inkscape:pageopacity="0"
     inkscape:pageshadow="2"
     inkscape:window-width="1920"
     inkscape:window-height="1017"
     id="namedview3809"
     showgrid="false"
     inkscape:zoom="0.97021628"
     inkscape:cx="50.805574"
     inkscape:cy="236.5874"
     inkscape:window-x="-8"
     inkscape:window-y="-8"
     inkscape:window-maximized="1"
     inkscape:current-layer="svg3807" />
  <path
     style="fill:#040404"
     d="m 144.5,169.8515 c -12.99281,-3.38278 -21.43502,-14.13664 -21.47804,-27.35917 -0.0121,-3.7125 -0.45198,-6.75 -0.97755,-6.75 -0.52558,0 -2.6039,1.11857 -4.6185,2.48571 -3.81565,2.58938 -9.36717,4.49915 -13.10636,4.50871 -1.47876,0.004 -2.28328,-0.69638 -2.5,-2.17571 -0.48484,-3.30956 -13.083953,-9.94199 -18.212973,-9.58767 -3.62633,0.25051 -4.03795,-0.005 -6,-3.73104 -2.77888,-5.27658 -2.93267,-17.39631 -0.28302,-22.30419 5.09208,-9.43196 14.99521,-15.536043 25.181423,-15.521322 7.61851,0.01101 12.22888,1.542215 17.67172,5.869164 2.37782,1.890314 4.6608,3.441304 5.0733,3.446634 0.4125,0.005 0.75,-1.985995 0.75,-4.42519 0,-7.824185 1.04143,-9.186361 7.53569,-9.856628 8.89805,-0.91836 16.80526,-5.365075 22.22465,-12.498291 1.59528,-2.099779 2.03014,-2.189395 5.23966,-1.079801 5.57154,1.926189 11.25282,6.0168 10.04039,7.229233 -1.52093,1.520931 -1.29056,3.953644 1.03429,10.921932 2.52833,7.578167 4.4559,10.718455 6.57922,10.718455 2.46686,0 1.07167,6.194214 -2.72942,12.117694 -4.33116,6.74953 -5.76435,7.35516 -10.2279,4.3221 -5.34449,-3.63167 -8.53411,-4.61053 -15.07373,-4.62594 C 144.28031,111.54128 133,115.27652 133,117.39169 c 0,0.65118 -0.5625,1.38487 -1.25,1.6304 -0.6875,0.24554 -0.9779,0.74264 -0.64534,1.10467 0.33257,0.36203 3.03257,-0.47197 6,-1.85333 6.38512,-2.97231 14.20487,-3.32644 21.15565,-0.95807 8.8905,3.0293 17.73969,14.58323 17.73969,23.16181 0,2.25823 -0.11244,2.29981 -2.22251,0.82186 -3.80244,-2.66333 -7.38919,-1.945 -11.67172,2.33753 -4.47533,4.47533 -6.07809,10.34416 -4.11756,15.0773 1.29036,3.11521 5.99571,5.63235 8.63527,4.61946 1.367,-0.52457 1.44401,-0.37724 0.43704,0.83608 -3.48266,4.19636 -16.08045,7.36924 -22.56052,5.6821 z m 17.7,-11.30917 c -3.75241,-3.75241 1.92908,-15.8 7.45108,-15.8 2.41253,0 4.34892,3.18286 4.34892,7.14835 0,6.74367 -7.9091,12.54255 -11.8,8.65165 z m -71.407473,-16.1639 c -3.2745,-1.4531 -7.79253,-5.26258 -7.79253,-6.57047 0,-2.33468 2.48863,-1.91792 9.00975,1.50883 5.64766,2.96776 6.79582,3.95489 5.88149,5.0566 -1.35452,1.63208 -3.42889,1.63356 -7.09871,0.005 z M 69.370437,95.316492 c -5.41175,-1.693207 -7.62655,-3.322216 -12.87214,-9.467579 -3.25094,-3.808577 -4.64961,-6.518487 -5.51438,-10.684036 -0.63725,-3.069639 -0.91803,-5.821776 -0.62394,-6.115861 0.29408,-0.294084 1.74408,0.416603 3.22222,1.579306 3.25809,2.562812 6.15332,2.683817 9.4453,0.394761 3.82457,-2.659392 5.83908,-5.429029 7.02994,-9.665045 1.78594,-6.352831 -0.5977,-11.147217 -6.32971,-12.731397 -1.94218,-0.536766 -1.58682,-0.912822 2.77227,-2.933793 14.86155,-6.890136 33.621803,1.341004 38.090363,16.712309 1.97396,6.790199 3.90532,7.131439 3.03033,0.535411 -0.63438,-4.782157 -0.61913,-4.814338 3.73478,-7.883259 C 117.64192,50.626212 122,41.629328 122,33.082604 c 0,-4.712963 0.35291,-6.340278 1.375,-6.340278 0.75625,0 2.85678,-0.296355 4.66784,-0.658567 2.72971,-0.545943 3.19016,-0.390995 2.69244,0.906044 -0.76764,2.000421 1.25241,3.736563 8.97825,7.716432 4.51478,2.325726 7.24286,3.109952 9.97847,2.868455 3.71258,-0.327742 3.79609,-0.255885 6.00574,5.167636 2.67307,6.560952 2.84344,10.814639 0.71961,17.96637 -2.15516,7.257192 -9.87347,15.053813 -16.91735,17.088989 -7.17531,2.073148 -15.07572,1.741913 -20.90454,-0.87645 -2.69749,-1.211742 -5.08888,-2.018827 -5.31418,-1.793522 -0.2253,0.225304 1.20976,3.625343 3.18902,7.555641 l 3.59867,7.145997 -2.86707,-1.482618 c -1.67456,-0.865951 -4.46298,-4.211498 -6.70402,-8.043513 -2.11033,-3.608492 -4.16058,-6.560894 -4.55613,-6.560894 -0.39554,0 -0.99997,1.49682 -1.34318,3.326267 -0.90798,4.839952 -2.59563,6.558151 -7.098573,7.227064 -5.87536,0.872786 -13.48477,4.658496 -17.70043,8.806035 -4.06979,4.004024 -4.45145,4.085074 -10.42913,2.2148 z M 175.65907,88.242326 c -2.40918,-7.165476 -2.43654,-7.5 -0.61341,-7.5 3.24729,0 7.67074,9.167466 6.38227,13.227072 -1.17963,3.716678 -3.30213,1.60955 -5.76886,-5.727072 z m -120.459073,-20.7 c -0.66,-0.66 -1.2,-3.073636 -1.2,-5.363636 0,-5.009728 3.72298,-9.436364 7.93637,-9.436364 3.44011,0 5.06363,1.688326 5.06363,5.265741 0,7.217196 -7.80816,13.526097 -11.8,9.534259 z M 101.66583,49.246913 C 95.873697,42.317669 90.193797,39.480689 81.053607,38.951571 c -6.78048,-0.392516 -8.34089,-0.13193 -13.3228,2.22489 -5.58485,2.642057 -5.69719,2.652861 -10.93681,1.051806 -2.9117,-0.88972 -13.39841,-2.24429 -23.30381,-3.010155 C 14.770197,37.77072 2.4425175,35.059094 1.3233675,32.142618 c -0.96353,-2.510914 0.24084,-2.614889 6.82999,-0.589641 7.4295995,2.283567 11.4714095,2.83934 30.4262395,4.18379 7.74378,0.54926 16.29378,1.670337 19,2.491283 7.10669,2.15585 7.43885,2.06541 6.3506,-1.729122 -3.04938,-10.632563 3.31242,-23.805421 14.14871,-29.2965861 5.54732,-2.8110427 7.21283,-3.0183446 8.80798,-1.0963079 0.62248,0.7500396 4.74069,2.3912989 9.15157,3.6472429 6.353753,1.8091481 8.520523,2.0553891 10.430123,1.1853181 2.14039,-0.9752271 2.75332,-0.707571 5.47301,2.389984 4.55866,5.192035 6.32864,10.053827 6.34064,17.416586 0.0144,8.802624 -2.92728,14.562619 -10.84028,21.226293 -1.99097,1.676631 -2.16635,1.593908 -5.77612,-2.724545 z M 140.6167,31.112154 c -6.17943,-3.170656 -6.72679,-3.688309 -5.3528,-5.062298 1.27146,-1.271462 2.12968,-1.332742 5.07081,-0.36208 4.77252,1.575073 8.66529,4.776846 8.66529,7.12713 0,2.511458 -0.28144,2.454293 -8.3833,-1.702752 z M 95.999997,6.1442526 C 88.401517,3.7797126 88.607587,3.9200785 90.098047,2.1241857 92.717737,-1.032344 105,2.3808484 105,6.2653785 c 0,1.8124754 -2.9123,1.7732804 -9.000003,-0.1211259 z"
     id="path3817"
     inkscape:connector-curvature="0" />
</svg>
