<?xml version="1.0" encoding="utf-8"?>
<!-- Generator: Adobe Illustrator 21.0.0, SVG Export Plug-In . SVG Version: 6.00 Build 0)  -->
<svg version="1.1" id="Layer_1" xmlns="http://www.w3.org/2000/svg" xmlns:xlink="http://www.w3.org/1999/xlink" x="0px" y="0px"
	 viewBox="0 0 512 512" style="enable-background:new 0 0 512 512;" xml:space="preserve">
<style type="text/css">
	.st0{fill:#686868;}
</style>
<g>
	<g>
		<path class="st0" d="M501.8,188.5H495C488.3,154.7,454.2,95.2,439,70c7.1-4.9,11.7-13,11.7-22.3c0-14.9-12.1-27-27-27
			s-27,12.1-27,27c0,9.2,4.7,17.4,11.8,22.3c-15.1,25.2-49.3,84.7-55.9,118.5h-6.8c-5.6,0-10.2,4.6-10.2,10.2
			c0,48.7,39.6,88.2,88.2,88.2s88.2-39.6,88.2-88.2C512,193,507.4,188.5,501.8,188.5z M423.8,41.1c3.7,0,6.6,3,6.6,6.6
			s-3,6.6-6.6,6.6s-6.6-3-6.6-6.6S420.1,41.1,423.8,41.1z M423.7,84.2c17.3,29.1,43.9,77.7,50.5,104.3H373.3
			C379.5,163.6,403.5,118.2,423.7,84.2z M423.8,266.5c-33.9,0-62.1-25.1-67.1-57.6h134.2C485.9,241.5,457.7,266.5,423.8,266.5z"/>
	</g>
</g>
<g>
	<g>
		<path class="st0" d="M346.8,432.7h-27v-25.9c0-5.6-4.6-10.2-10.2-10.2h-25.9V111.7c6.7-6.6,11-15.6,11.5-25.6l43.1-9.3
			c5.5-1.2,9-6.6,7.8-12.1c-1.2-5.5-6.6-9-12.1-7.8l-43.2,9.3c-6.5-12.3-19.4-20.7-34.3-20.7c-20.6,0-37.4,16.1-38.6,36.4
			l-107.8,23.2C105.1,98.4,97.2,94,88.2,94c-14.9,0-27,12.1-27,27c0,9.2,4.7,17.4,11.8,22.3C57.8,168.5,23.7,227.9,17,261.7h-6.8
			c-5.6,0-10.2,4.6-10.2,10.2c0,48.7,39.6,88.2,88.2,88.2s88.2-39.6,88.2-88.2c0-5.6-4.6-10.2-10.2-10.2h-6.8
			c-6.7-33.8-40.8-93.3-55.9-118.5c6.1-4.2,10.4-10.8,11.5-18.4l107.1-23.1c1.9,3.7,4.3,7,7.2,9.8v284.9h-25.9
			c-5.6,0-10.2,4.6-10.2,10.2v25.9h-27c-5.6,0-10.2,4.6-10.2,10.2v38.2c0,5.6,4.6,10.2,10.2,10.2h180.5c5.6,0,10.2-4.6,10.2-10.2
			v-38.2C357,437.2,352.4,432.7,346.8,432.7z M88.2,114.4c3.7,0,6.6,3,6.6,6.6s-3,6.6-6.6,6.6s-6.6-3-6.6-6.6S84.6,114.4,88.2,114.4
			z M88.2,339.8c-33.9,0-62.1-25.1-67.1-57.6h134.2C150.4,314.7,122.2,339.8,88.2,339.8z M138.7,261.7H37.8
			C44,236.8,68,191.5,88.2,157.5C105.5,186.6,132.1,235.1,138.7,261.7z M256.5,65.9c10.1,0,18.3,8.2,18.3,18.3s-8.2,18.3-18.3,18.3
			s-18.3-8.2-18.3-18.3S246.4,65.9,256.5,65.9z M263.3,122.3v274.3h-13.6V122.3c2.2,0.4,4.5,0.6,6.8,0.6
			C258.9,122.9,261.1,122.6,263.3,122.3z M213.6,417h85.8v15.7h-85.8L213.6,417L213.6,417z M336.6,470.9H176.5v-17.8h160.1V470.9z"
			/>
	</g>
</g>
<g>
	<g>
		<path class="st0" d="M385.4,56.9c-1.2-5.5-6.6-9-12.1-7.8l-7.4,1.6c-5.5,1.2-9,6.6-7.8,12.1c1,4.8,5.3,8.1,10,8.1
			c0.7,0,1.4-0.1,2.2-0.2l7.4-1.6C383.1,67.8,386.6,62.4,385.4,56.9z"/>
	</g>
</g>
</svg>
