<svg id="Capa_1" enable-background="new 0 0 512 512" height="512" viewBox="0 0 512 512" width="512" xmlns="http://www.w3.org/2000/svg"><g><path d="m256 0-20.016 372.552 203.681-20.016c25.482-36.369 40.443-80.649 40.443-128.429-.001-123.771-100.337-224.107-224.108-224.107z" fill="#0051bf"/><path d="m256 0c-123.771 0-224.107 100.336-224.107 224.107 0 47.78 14.96 92.06 40.443 128.429l183.664 20.016z" fill="#6e76e5"/><path d="m235.984 436.338 135.29-20.016c27.03-16.245 50.347-38.033 68.391-63.785h-183.665z" fill="#ebebf0"/><path d="m256 352.536h-183.665c18.044 25.752 41.361 47.54 68.391 63.785l115.274 20.017z" fill="#fff5f5"/><g fill="#ebebf0"><path d="m291.962 64.306h31.893v30h-31.893z"/><path d="m366.378 117.46h31.894v30h-31.894z"/><path d="m323.855 191.876h31.893v30h-31.893z"/><path d="m387.64 272.671h31.894v30h-31.894z"/></g><path d="m240.054 272.671h31.893v30h-31.893z" fill="#fff5f5"/><path d="m134.991 223.769h31.893v30h-31.893z" fill="#fff5f5"/><path d="m188.145 138.722h31.893v30h-31.893z" fill="#fff5f5"/><path d="m92.466 149.353h31.894v30h-31.894z" fill="#fff5f5"/><path d="m256 512h147.167l-31.893-95.678h-115.274l-20.016 47.839z" fill="#e50058"/><path d="m140.726 416.322-31.893 95.678h147.167v-95.678z" fill="#ff415b"/></g></svg>