<svg id="Layer_1" data-name="Layer 1" xmlns="http://www.w3.org/2000/svg" viewBox="0 0 69.25 69.25"><defs><style>.cls-1{fill:#fff;}</style></defs><title>site-mobille-elementos</title><path class="cls-1" d="M31.16,34.88l-2.73,2.34-3.08-.1a1,1,0,0,0-1,1.05V40a1,1,0,0,0,1,1h4.41a1,1,0,0,0,.89-.5l9.85-8.41h3.4a1,1,0,0,0,1-1V29.26a1,1,0,0,0-1-1.05H39.36a.84.84,0,0,0-.79.34l-5.3,4.52m10.81-2a.18.18,0,0,1-.18.18H40.18L30,40l0,0,0,.07a.2.2,0,0,1-.17.11H25.35a.18.18,0,0,1-.18-.19V38.16a.18.18,0,0,1,.18-.18h3.4l10.38-8.86a.16.16,0,0,1,.15,0H43.9a.18.18,0,0,1,.18.19Z"/></svg>