<?xml version="1.0" encoding="utf-8"?>
<!-- Generator: Adobe Illustrator 19.0.0, SVG Export Plug-In . SVG Version: 6.00 Build 0)  -->
<svg version="1.0" id="Camada_1" xmlns="http://www.w3.org/2000/svg" xmlns:xlink="http://www.w3.org/1999/xlink" x="0px" y="0px"
	 viewBox="0 0 225.4 82" style="enable-background:new 0 0 225.4 82;" xml:space="preserve">
<g id="XMLID_2_">
	<path id="XMLID_101_" style="fill:#12100B;" d="M105.6,45.1c-4,0-6.2-3-6.2-5.2l0-9.2c0-2.2,2.3-5.2,6.2-5.2h3.2
		c2.3,0,4.1,1.3,5.3,3.4l-3.4,1.9c-0.7-1.2-1.6-1.6-2.4-1.6l-2.6,0c-1.1,0-2.5,0.8-2.5,2.2v7.9c0,1.4,1.4,2.2,2.5,2.2h2.6
		c0.8,0,1.7-0.4,2.4-1.6l3.5,1.8c-1.2,2.2-3.1,3.5-5.4,3.5L105.6,45.1z"/>
	<polygon id="XMLID_100_" style="fill:#12100B;" points="117.8,41.6 121.5,41.6 121.5,29.1 117.8,29.1 117.8,25.5 129.1,25.5 
		129.1,29.1 125.4,29.1 125.4,41.6 129.1,41.6 129.1,45.1 117.8,45.1 	"/>
	<path id="XMLID_97_" style="fill:#12100B;" d="M135.3,45.1c-1.7,0-2.6-1.2-2.6-2.8l0-14.1c0-1.5,0.9-2.7,2.6-2.7h6.3
		c4,0,6.2,3,6.2,5.2l0,9.2c0,2.2-2.3,5.2-6.2,5.2L135.3,45.1z M143.9,31.4c0-1.4-1.4-2.2-2.5-2.2l-4.7,0l0,12.2h4.7
		c1.1,0,2.5-0.8,2.5-2.2L143.9,31.4z"/>
	<path id="XMLID_94_" style="fill:#12100B;" d="M164.1,41.2l-7.7,0l-1.5,3.9h-4.2l6.7-17.5c0.5-1.4,1.4-2.3,2.7-2.3
		c1.8,0,2.4,1,2.9,2.3l6.7,17.5h-4.2L164.1,41.2z M157.8,37.4l4.8,0l-2.4-6.4L157.8,37.4z"/>
	<path id="XMLID_91_" style="fill:#12100B;" d="M175.3,45c-1.7,0-2.6-1.2-2.6-2.7l0-14.1c0-1.5,0.9-2.7,2.6-2.7h6.3
		c4,0,6.2,3,6.2,5.1v9.2c0,2.2-2.3,5.2-6.2,5.2L175.3,45z M183.8,31.4c0-1.4-1.4-2.2-2.5-2.2h-4.7l0,12.2l4.7,0
		c1.1,0,2.5-0.8,2.5-2.2L183.8,31.4z"/>
	<path id="XMLID_90_" style="fill:#12100B;" d="M191.4,42.3l0-14.1c0-1.5,0.9-2.7,2.6-2.7l11.2,0l0,3.7l-9.9,0l0,4.2l7.9,0v3.7
		l-7.9,0v4.3l9.9,0v3.7l-11.2,0C192.3,45.1,191.4,43.8,191.4,42.3"/>
	<path id="XMLID_87_" style="fill:#12100B;" d="M101.3,70.1c-1,0-1.7-0.7-1.7-1.9l0-15.7c0-1.3,0.6-1.9,1.7-1.9l7,0
		c3.7,0,5.7,2.8,5.7,4.6l0,10.3c0,1.8-2,4.6-5.7,4.6H101.3z M112,55.9c0-2.4-2.4-3.6-4-3.6h-6.5l0,15.9h6.5c1.6,0,4-1.2,4-3.6V55.9z
		"/>
	<path id="XMLID_84_" style="fill:#12100B;" d="M124.2,70.1c-3.7,0-5.7-2.8-5.7-4.6l0-10.3c0-1.8,2-4.6,5.7-4.6h3
		c3.7,0,5.7,2.8,5.7,4.6l0,10.3c0,1.8-2,4.6-5.7,4.6H124.2z M131,56c0-2.4-2.4-3.6-4-3.6l-2.7,0c-1.6,0-4,1.2-4,3.6l0,8.7
		c0,2.4,2.4,3.6,4,3.6l2.7,0c1.6,0,4-1.2,4-3.6L131,56z"/>
	<path id="XMLID_81_" style="fill:#12100B;" d="M141.1,63.3l0,6.8h-3.9l0-16.8c0-1.5,0.9-2.7,2.6-2.7h6.4c4.6,0,6.2,3.5,6.2,5.8
		l0,1.1c0,2.6-1.9,5.9-6.8,5.9L141.1,63.3z M148.4,56.3c0-0.8-0.6-2.1-2.4-2.1h-4.9l0,5.2h4.9c1.5,0,2.4-1.2,2.4-2.1V56.3z"/>
	<path id="XMLID_78_" style="fill:#12100B;" d="M162.2,70.1c-4,0-6.2-3-6.2-5.2l0-9.2c0-2.2,2.3-5.2,6.2-5.2h2.7c4,0,6.2,3,6.2,5.2
		l0,9.2c0,2.2-2.3,5.2-6.2,5.2H162.2z M167.2,56.4c0-1.4-1.4-2.2-2.5-2.2h-2.4c-1.1,0-2.5,0.8-2.5,2.2v7.8c0,1.4,1.4,2.2,2.5,2.2
		h2.4c1,0,2.5-0.8,2.5-2.2L167.2,56.4z"/>
	<path id="XMLID_75_" style="fill:#12100B;" d="M190.8,70.1l-4.2,0l-2.9-7.2l-4.3,0v7.2l-3.9,0l0-16.8c0-1.5,0.9-2.8,2.6-2.8l6.4,0
		c4.6,0,6.1,3.5,6.1,5.8V57c0,1.8-0.8,3.9-3,5.1L190.8,70.1z M184.4,54.2l-4.9,0V59h4.9c1.5,0,2.3-1.2,2.3-2.1v-0.7
		C186.7,55.5,186.1,54.2,184.4,54.2"/>
	<polygon id="XMLID_74_" style="fill:#12100B;" points="202.7,70.1 198.8,70.1 198.8,54.1 193.8,54.1 193.8,50.5 207.7,50.5 
		207.7,54.2 202.7,54.1 	"/>
	<path id="XMLID_71_" style="fill:#12100B;" d="M216.6,70.1c-4,0-6.2-3.1-6.2-5.2l0-9.2c0-2.2,2.3-5.2,6.2-5.2h2.6
		c4,0,6.2,3,6.2,5.2l0,9.2c0,2.2-2.3,5.2-6.2,5.2H216.6z M221.6,56.4c0-1.4-1.4-2.2-2.5-2.2l-2.4,0c-1.1,0-2.5,0.8-2.5,2.2v7.8
		c0,1.4,1.4,2.2,2.5,2.2l2.4,0c1.1,0,2.5-0.8,2.5-2.2V56.4z"/>
	<path id="XMLID_70_" style="fill:#12100B;" d="M103.2,20.2h-1.9c-0.9,0-1.6-0.4-1.9-1.1l0.9-0.5c0.2,0.4,0.6,0.6,1.1,0.6h1.8
		c0.4,0,1.2-0.3,1.2-1v-0.8c0-0.7-0.7-1-1.2-1h-1.7c-1.4,0-2.1-1.1-2.1-1.8v-1.1c0-0.7,0.8-1.7,2.1-1.7h1.8c0.9,0,1.6,0.4,1.9,1.1
		l-0.9,0.5c-0.2-0.4-0.6-0.6-1.1-0.6h-1.7c-0.4,0-1.2,0.3-1.2,1v0.7c0,0.7,0.7,1,1.2,1h1.7c1.4,0,2.1,1,2.1,1.7v1.1
		C105.3,19.1,104.5,20.2,103.2,20.2"/>
	<polygon id="XMLID_69_" style="fill:#12100B;" points="114.3,20.2 114.3,16.6 110.1,16.6 110.1,20.2 109.1,20.2 109.1,11.9 
		110.1,11.9 110.1,15.6 114.3,15.6 114.3,11.9 115.3,11.9 115.3,20.2 	"/>
	<path id="XMLID_66_" style="fill:#12100B;" d="M123,20.2h-1.2c-1.6,0-2.5-1.2-2.5-2V14c0-0.8,0.9-2,2.5-2h1.2c1.6,0,2.5,1.2,2.5,2
		v4.2C125.4,19,124.6,20.2,123,20.2 M124.4,14.3c0-0.9-0.9-1.4-1.5-1.4h-1.1c-0.6,0-1.5,0.5-1.5,1.4v3.6c0,0.9,0.9,1.4,1.5,1.4h1.1
		c0.6,0,1.5-0.5,1.5-1.4V14.3z"/>
	<path id="XMLID_63_" style="fill:#12100B;" d="M132.9,17.1h-2.4v3.1h-1v-7.4c0-0.6,0.3-0.9,0.8-0.9h2.9c1.8,0,2.5,1.4,2.5,2.3v0.5
		C135.6,15.8,134.9,17.1,132.9,17.1 M134.6,14.2c0-0.5-0.4-1.3-1.5-1.3h-2.6V16h2.6c0.9,0,1.5-0.7,1.5-1.3V14.2z"/>
	<path id="XMLID_60_" style="fill:#12100B;" d="M142.5,17.1h-2.4v3.1h-1v-7.4c0-0.6,0.3-0.9,0.8-0.9h2.9c1.8,0,2.4,1.4,2.4,2.3v0.5
		C145.3,15.8,144.6,17.1,142.5,17.1 M144.2,14.2c0-0.5-0.4-1.3-1.5-1.3h-2.6V16h2.6c0.9,0,1.5-0.7,1.5-1.3V14.2z"/>
	<polygon id="XMLID_59_" style="fill:#12100B;" points="148.7,20.2 148.7,19.3 150.4,19.3 150.4,12.9 148.7,12.9 148.7,11.9 
		153.2,11.9 153.2,12.9 151.5,12.9 151.5,19.3 153.2,19.3 153.2,20.2 	"/>
	<path id="XMLID_58_" style="fill:#12100B;" d="M162.5,20.3c-0.6,0-0.8-0.2-1.1-0.8l-3-6.5v7.1h-1V13c0-0.8,0.4-1.1,0.9-1.1
		c0.6,0,0.8,0.2,1,0.8l3.1,6.6v-7.3h1v7.4C163.4,19.8,163.1,20.2,162.5,20.3"/>
	<path id="XMLID_57_" style="fill:#12100B;" d="M173.2,13l-0.9,0.5c-0.3-0.4-0.8-0.6-1.2-0.6h-1.2c-0.6,0-1.5,0.4-1.5,1.3v3.6
		c0,0.9,0.9,1.4,1.5,1.4h1.1c0.6,0,1.5-0.5,1.5-1.4v-1.3h-1.3v-1h2.3v2.3c0,1.2-1,2.3-2.3,2.3h-1.4c-1.6,0-2.5-1.2-2.5-2V14
		c0-0.8,0.9-2,2.5-2h1.4C172.1,11.9,172.8,12.4,173.2,13"/>
	<g id="XMLID_4_">
		<defs>
			<path id="XMLID_5_" d="M23.8,58.3c-9.7-9.6-9.7-25.1,0-34.7c9.7-9.6,25.3-9.6,35,0c9.7,9.6,9.7,25.1,0,34.7
				c-4.8,4.8-11.2,7.2-17.5,7.2C35,65.6,28.6,63.1,23.8,58.3 M12.1,12C-4,28-4,54,12.1,69.9c16.1,16,42.3,16,58.4,0
				C86.6,54,86.6,28,70.5,12C62.4,4,51.9,0,41.3,0C30.7,0,20.2,4,12.1,12"/>
		</defs>
		<clipPath id="XMLID_168_">
			<use xlink:href="#XMLID_5_"  style="overflow:visible;"/>
		</clipPath>
		<path id="XMLID_56_" style="clip-path:url(#XMLID_168_);fill:#FFEACA;" d="M41.2,8.9c-3.3-2.2-8.6-4-15.6-5.4l-0.3-0.1l0.2-0.2
			c6.7-10,15.7-19.3,15.8-19.4l0.1-0.1l0.1,0.1c0.1,0.1,9,9.4,15.7,19.4l0.2,0.2l-0.3,0.1C50,4.9,44.8,6.7,41.4,8.9L41.3,9L41.2,8.9
			z"/>
		<path id="XMLID_55_" style="clip-path:url(#XMLID_168_);fill:#878E54;" d="M79.1,56.6c-1.4-7-3.2-12.2-5.4-15.5L73.6,41l0.1-0.1
			c2.2-3.3,4-8.5,5.5-15.5l0.1-0.3l0.2,0.2C89.5,31.9,98.9,40.8,99,40.9l0.1,0.1L99,41.1c-0.1,0.1-9.5,8.9-19.6,15.6l-0.2,0.2
			L79.1,56.6z"/>
		<path id="XMLID_54_" style="clip-path:url(#XMLID_168_);fill:#EF7D00;" d="M3.2,56.8c-10.1-6.7-19.5-15.6-19.6-15.7l-0.1-0.1
			l0.1-0.1c0.1-0.1,9.5-8.9,19.6-15.6L3.5,25l0.1,0.3c1.4,7,3.2,12.3,5.5,15.6L9,41L9,41.1c-2.2,3.3-4,8.5-5.5,15.5l-0.1,0.3
			L3.2,56.8z"/>
		<path id="XMLID_53_" style="clip-path:url(#XMLID_168_);fill:#F9B233;" d="M3.1,25.4C0.8,13.6,0.4,0.7,0.4,0.6l0-0.2l0.2,0
			c0.1,0,13.1,0.3,25,2.7l0.3,0.1l-0.2,0.2c-4,5.9-6.4,10.9-7.2,14.8l0,0.1l-0.1,0c-3.9,0.8-8.9,3.2-14.9,7.2l-0.2,0.2L3.1,25.4z"/>
		<path id="XMLID_52_" style="clip-path:url(#XMLID_168_);fill:#CF7014;" d="M32.9,21.3c-3.6-2.1-7.7-3.3-11.9-3.3
			c-0.8,0-1.7,0.1-2.7,0.3l-0.3,0.1l0.1-0.3c0.8-4,3.3-9,7.3-15l0.1-0.1l0.1,0C32.7,4.5,38,6.4,41.4,8.6l0.2,0.2l-0.2,0.2
			c-0.8,0.5-1.5,1.1-2.1,1.7c-3,2.9-5.1,6.6-6.1,10.7l-0.1,0.3L32.9,21.3z"/>
		<path id="XMLID_51_" style="clip-path:url(#XMLID_168_);fill:#E30F18;" d="M8.7,41.1c-2.2-3.4-4.1-8.6-5.5-15.7l0-0.1l0.1-0.1
			c6-4,11.1-6.4,15.1-7.2l0.3-0.1l-0.1,0.3c-0.2,1-0.3,1.9-0.3,2.6c0,4.2,1.1,8.3,3.3,11.8l0.1,0.2L21.4,33c-4,1-7.7,3.1-10.7,6
			c-0.6,0.6-1.2,1.3-1.7,2.1l-0.2,0.2L8.7,41.1z"/>
		<path id="XMLID_50_" style="clip-path:url(#XMLID_168_);fill:#C73118;" d="M33.1,33.1c-2-0.5-4.1-0.8-6.1-0.8
			c-1.9,0-3.8,0.2-5.6,0.7l-0.1,0l-0.1-0.1c-2.2-3.6-3.4-7.8-3.4-12c0-0.8,0.1-1.7,0.3-2.7l0-0.1l0.1,0c1-0.2,1.9-0.3,2.8-0.3
			c4.3,0,8.4,1.2,12.1,3.3l0.1,0.1l0,0.1c-1,3.8-0.9,7.9,0.2,11.7l0.1,0.3L33.1,33.1z"/>
		<path id="XMLID_49_" style="clip-path:url(#XMLID_168_);fill:#56BAA2;" d="M82,81.6c-0.1,0-13.1-0.3-25-2.7l-0.3-0.1l0.2-0.2
			c4-5.9,6.4-10.9,7.2-14.8l0-0.1l0.1,0c3.9-0.8,9-3.2,14.9-7.2l0.2-0.2l0.1,0.3c2.4,11.8,2.7,24.7,2.7,24.8v0.2L82,81.6z"/>
		<path id="XMLID_48_" style="clip-path:url(#XMLID_168_);fill:#457155;" d="M64.1,63.7c0.2-1,0.3-1.9,0.3-2.6
			c0-4.2-1.1-8.3-3.3-11.8L61,49.1l0.3-0.1c4.1-1,7.7-3.1,10.7-6c0.6-0.6,1.2-1.3,1.7-2.1l0.2-0.2l0.2,0.2c2.2,3.4,4.1,8.6,5.5,15.7
			l0,0.1l-0.1,0.1c-6,4-11.1,6.4-15.1,7.2L64,64L64.1,63.7z"/>
		<path id="XMLID_47_" style="clip-path:url(#XMLID_168_);fill:#C0C0AC;" d="M79.2,25.5c-6-4-11-6.4-14.9-7.2l-0.1,0l0-0.1
			c-0.8-3.9-3.2-8.9-7.2-14.8l-0.2-0.2L57,3.1c11.9-2.3,24.9-2.7,25-2.7l0.2,0v0.2c0,0.1-0.4,13-2.7,24.8l-0.1,0.3L79.2,25.5z"/>
		<path id="XMLID_46_" style="clip-path:url(#XMLID_168_);fill:#928456;" d="M49.4,21.2c-1-4-3.1-7.7-6.1-10.6
			C42.7,10,42,9.4,41.2,8.9l-0.2-0.2l0.2-0.2c3.4-2.2,8.7-4.1,15.8-5.5l0.1,0l0.1,0.1c4,6,6.4,11,7.3,14.9l0.1,0.3l-0.3-0.1
			c-1-0.2-1.9-0.3-2.7-0.3c-4.2,0-8.3,1.1-11.9,3.3l-0.2,0.1L49.4,21.2z"/>
		<path id="XMLID_45_" style="clip-path:url(#XMLID_168_);fill:#6B5E4E;" d="M73.6,41.1c-0.5-0.8-1.1-1.5-1.7-2.1
			c-3-2.9-6.7-5-10.7-6L61,32.9l0.1-0.2c2.2-3.5,3.3-7.6,3.3-11.8c0-0.8-0.1-1.7-0.3-2.7L64,17.9l0.3,0.1c4,0.8,9.1,3.2,15.1,7.2
			l0.1,0.1l0,0.1c-1.4,7-3.3,12.3-5.5,15.7l-0.2,0.2L73.6,41.1z"/>
		<path id="XMLID_44_" style="clip-path:url(#XMLID_168_);fill:#413436;" d="M49.2,32.9c1.1-3.8,1.1-7.8,0.2-11.7l0-0.1l0.1-0.1
			c3.6-2.2,7.8-3.3,12.1-3.3c0.8,0,1.8,0.1,2.8,0.3l0.1,0l0,0.1c0.2,1,0.3,1.9,0.3,2.8c0,4.2-1.2,8.4-3.3,12L61.4,33l-0.1,0
			c-1.8-0.4-3.7-0.7-5.6-0.7c-2.1,0-4.2,0.3-6.2,0.8l-0.3,0.1L49.2,32.9z"/>
		<path id="XMLID_43_" style="clip-path:url(#XMLID_168_);fill:#8F571D;" d="M41.1,29.7c-2-3.4-4.8-6.3-8.2-8.3l-0.1-0.1l0-0.1
			c1-4.1,3.2-7.9,6.2-10.8c0.6-0.6,1.3-1.2,2.2-1.7l0.1-0.1l0.1,0.1c0.9,0.6,1.6,1.1,2.2,1.7c3,3,5.1,6.7,6.2,10.8l0,0.1l-0.1,0.1
			c-3.4,2-6.2,4.9-8.2,8.3L41.3,30L41.1,29.7z"/>
		<path id="XMLID_42_" style="clip-path:url(#XMLID_168_);fill:#35261C;" d="M43.5,35.4c-0.5-2-1.3-3.9-2.3-5.7l-0.1-0.1l0.1-0.1
			c2-3.5,4.9-6.4,8.3-8.5l0.2-0.1l0.1,0.3c1,3.9,0.9,8-0.2,11.8l0,0.1l-0.1,0c-2,0.6-3.9,1.4-5.7,2.4l-0.2,0.1L43.5,35.4z"/>
		<path id="XMLID_41_" style="clip-path:url(#XMLID_168_);fill:#953019;" d="M38.9,35.6c-1.8-1.1-3.7-1.9-5.7-2.4l-0.1,0l0-0.1
			c-1.1-3.9-1.1-8-0.1-11.9l0.1-0.3l0.2,0.1c3.5,2.1,6.3,5,8.3,8.5l0.1,0.1l-0.1,0.1c-1,1.8-1.8,3.7-2.3,5.7l-0.1,0.3L38.9,35.6z"/>
		<path id="XMLID_40_" style="clip-path:url(#XMLID_168_);fill:#341F1A;" d="M41.2,37.1c-0.8-0.6-1.5-1.1-2.3-1.6l-0.1-0.1l0-0.1
			c0.5-2,1.3-4,2.4-5.9l0.2-0.3l0.2,0.3c1,1.8,1.8,3.8,2.4,5.8l0,0.1l-0.1,0.1c-0.8,0.5-1.6,1-2.3,1.6l-0.1,0.1L41.2,37.1z"/>
		<path id="XMLID_39_" style="clip-path:url(#XMLID_168_);fill:#464F3A;" d="M61.1,49.3c-2-3.4-5-6.2-8.4-8.1L52.4,41l0.3-0.2
			c3.5-1.9,6.4-4.8,8.4-8.1l0.1-0.1l0.1,0c4.1,1,7.9,3.1,10.9,6.1c0.6,0.6,1.2,1.3,1.7,2.1L74,41L74,41.1c-0.6,0.8-1.2,1.6-1.8,2.2
			c-3,3-6.8,5.1-10.9,6.1l-0.1,0L61.1,49.3z"/>
		<path id="XMLID_38_" style="clip-path:url(#XMLID_168_);fill:#1B2417;" d="M52.7,41.1c-1.8-1-3.8-1.8-5.8-2.3l-0.3-0.1l0.1-0.2
			c1.1-1.8,1.9-3.7,2.4-5.7l0-0.1l0.1,0c2-0.6,4.2-0.8,6.3-0.8c1.9,0,3.8,0.2,5.7,0.7l0.3,0.1l-0.1,0.2c-2.1,3.4-5,6.3-8.6,8.3H52.7
			L52.7,41.1z"/>
		<path id="XMLID_37_" style="clip-path:url(#XMLID_168_);fill:#1B2115;" d="M46.9,38.8c-0.9-0.2-1.8-0.4-2.8-0.5l-0.2,0l0-0.1
			c-0.1-0.9-0.3-1.9-0.5-2.8l0-0.1l0.1-0.1c1.8-1.1,3.8-1.9,5.8-2.5l0.3-0.1L49.6,33c-0.6,2-1.4,4-2.5,5.8L47,38.9L46.9,38.8z"/>
		<path id="XMLID_36_" style="clip-path:url(#XMLID_168_);fill:#251912;" d="M44.1,38.3c-0.6-0.1-1.1-0.1-1.6-0.1l-0.1,0l-0.1,0
			c-0.4-0.3-0.8-0.7-1.2-1L41,37l0.2-0.2c0.8-0.6,1.6-1.1,2.4-1.6l0.2-0.1l0.1,0.2c0.2,0.9,0.4,1.8,0.5,2.8l0,0.3L44.1,38.3z"/>
		<path id="XMLID_35_" style="clip-path:url(#XMLID_168_);fill:#EA5172;" d="M0.4,81.3c0-0.1,0.4-13,2.7-24.8l0.1-0.3l0.2,0.2
			c6,4,11,6.4,14.9,7.2l0.1,0l0,0.1c0.8,3.9,3.2,8.9,7.2,14.8l0.2,0.2l-0.3,0.1c-11.9,2.3-24.9,2.7-25,2.7l-0.2,0L0.4,81.3z"/>
		<path id="XMLID_34_" style="clip-path:url(#XMLID_168_);fill:#CE181D;" d="M18.3,64c-4-0.8-9-3.2-15.1-7.2l-0.1-0.1l0-0.1
			c1.4-7,3.3-12.3,5.5-15.7l0.2-0.2L9,40.9c0.5,0.8,1.1,1.5,1.7,2.1c3,3,6.7,5,10.7,6l0.3,0.1l-0.1,0.2c-2.1,3.5-3.3,7.6-3.3,11.8
			c0,0.8,0.1,1.7,0.3,2.7l0.1,0.3L18.3,64z"/>
		<path id="XMLID_33_" style="clip-path:url(#XMLID_168_);fill:#B71B1B;" d="M21.3,49.4c-4.1-1-7.9-3.1-10.9-6.1
			c-0.6-0.6-1.2-1.3-1.7-2.1L8.6,41l0.1-0.1c0.6-0.8,1.2-1.6,1.8-2.2c3-3,6.8-5.1,10.9-6.1l0.1,0l0.1,0.1c2,3.4,4.9,6.2,8.4,8.1
			l0.3,0.2l-0.3,0.2c-3.5,2-6.4,4.8-8.4,8.1l-0.1,0.1L21.3,49.4z"/>
		<path id="XMLID_32_" style="clip-path:url(#XMLID_168_);fill:#D01519;" d="M29.7,41.1c-3.5-2-6.5-4.8-8.5-8.2L21,32.7l0.3-0.1
			c1.9-0.5,3.8-0.7,5.7-0.7c2.1,0,4.2,0.3,6.2,0.8l0.1,0l0,0.1c0.6,2,1.4,3.9,2.4,5.7l0.1,0.2l-0.2,0.1c-2,0.5-4,1.3-5.8,2.3H29.7
			L29.7,41.1z"/>
		<path id="XMLID_31_" style="clip-path:url(#XMLID_168_);fill:#911918;" d="M35.5,38.8C34.4,37,33.6,35,33,33l-0.1-0.3l0.3,0.1
			c2.1,0.6,4,1.4,5.8,2.5l0.1,0.1l0,0.1c-0.2,0.9-0.4,1.8-0.5,2.7l0,0.1l-0.2,0c-1,0.1-1.9,0.3-2.8,0.5l-0.1,0L35.5,38.8z"/>
		<path id="XMLID_30_" style="clip-path:url(#XMLID_168_);fill:#9ABDBF;" d="M41.1,98.2c-0.1-0.1-9-9.4-15.7-19.4l-0.2-0.2l0.3-0.1
			c7.1-1.4,12.3-3.2,15.7-5.4l0.1-0.1l0.1,0.1c3.3,2.2,8.6,4,15.6,5.4l0.3,0.1l-0.2,0.2c-6.7,10-15.7,19.3-15.8,19.4l-0.1,0.1
			L41.1,98.2z"/>
		<path id="XMLID_29_" style="clip-path:url(#XMLID_168_);fill:#207553;" d="M57,78.9c-7.1-1.4-12.4-3.2-15.8-5.5L41,73.2l0.2-0.2
			c0.8-0.5,1.5-1.1,2.1-1.7c3-2.9,5.1-6.6,6.1-10.7l0.1-0.3l0.2,0.1c3.6,2.1,7.7,3.2,11.8,3.2c0.8,0,1.7-0.1,2.7-0.3l0.3-0.1
			l-0.1,0.3c-0.8,3.9-3.3,9-7.3,15l-0.1,0.1L57,78.9z"/>
		<path id="XMLID_28_" style="clip-path:url(#XMLID_168_);fill:#114133;" d="M61.5,64.3c-4.2,0-8.4-1.1-12-3.3l-0.1-0.1l0-0.1
			c1-3.8,0.9-7.9-0.2-11.7l-0.1-0.3l0.3,0.1c2,0.5,4.1,0.8,6.1,0.8c1.9,0,3.8-0.2,5.6-0.7l0.1,0l0.1,0.1c2.2,3.6,3.3,7.8,3.3,12
			c0,0.8-0.1,1.7-0.3,2.7l0,0.1l-0.1,0C63.3,64.2,62.4,64.3,61.5,64.3L61.5,64.3z"/>
		<path id="XMLID_27_" style="clip-path:url(#XMLID_168_);fill:#1C2718;" d="M55.6,50.1c-2.1,0-4.2-0.3-6.2-0.8l-0.1,0l0-0.1
			c-0.6-2-1.4-3.9-2.5-5.7l-0.1-0.2l0.3-0.1c2-0.5,4-1.3,5.8-2.3l0.1-0.1l0.1,0.1c3.5,2,6.5,4.8,8.6,8.3l0.1,0.2l-0.3,0.1
			C59.5,49.8,57.6,50.1,55.6,50.1"/>
		<path id="XMLID_26_" style="clip-path:url(#XMLID_168_);fill:#1A1D14;" d="M46.8,43.4c-0.5-0.8-1-1.6-1.6-2.3L45.1,41l0.1-0.1
			c0.6-0.7,1.1-1.5,1.6-2.3l0.1-0.1l0.1,0c2.1,0.5,4,1.3,5.9,2.3l0.3,0.2l-0.3,0.2c-1.9,1-3.8,1.8-5.9,2.3l-0.1,0L46.8,43.4z"/>
		<path id="XMLID_25_" style="clip-path:url(#XMLID_168_);fill:#14130E;" d="M45.2,41.1c-0.4-0.5-0.7-0.9-1-1.2l0-0.1v-0.1
			c0-0.5-0.1-1-0.1-1.6l0-0.2l0.2,0c1,0.1,1.9,0.3,2.8,0.5l0.2,0.1l-0.1,0.2c-0.5,0.8-1,1.6-1.6,2.3l-0.2,0.2L45.2,41.1z"/>
		<path id="XMLID_24_" style="clip-path:url(#XMLID_168_);fill:#742D41;" d="M25.4,78.8c-4-6-6.5-11-7.3-15l-0.1-0.3l0.3,0.1
			c1,0.2,1.9,0.3,2.7,0.3c4.2,0,8.3-1.1,11.9-3.3l0.2-0.1l0.1,0.3c1,4,3.1,7.7,6.1,10.6c0.6,0.6,1.3,1.2,2.2,1.7l0.2,0.2l-0.2,0.2
			c-3.4,2.2-8.7,4.1-15.8,5.5l-0.1,0L25.4,78.8z"/>
		<path id="XMLID_23_" style="clip-path:url(#XMLID_168_);fill:#6F211C;" d="M21,64.3c-0.8,0-1.7-0.1-2.7-0.3l-0.1,0l0-0.1
			c-0.2-1-0.3-1.9-0.3-2.8c0-4.2,1.2-8.4,3.3-12l0.1-0.1l0.1,0c1.8,0.5,3.7,0.7,5.6,0.7c2.1,0,4.2-0.3,6.2-0.8l0.3-0.1l-0.1,0.3
			c-1,3.8-1.1,7.8-0.1,11.6l0,0.1L33.1,61C29.5,63.1,25.3,64.3,21,64.3L21,64.3z"/>
		<path id="XMLID_22_" style="clip-path:url(#XMLID_168_);fill:#781E1E;" d="M27,50.1c-1.9,0-3.8-0.2-5.7-0.7L21,49.3l0.1-0.2
			c2.1-3.4,5-6.3,8.6-8.3l0.1-0.1l0.1,0.1c1.8,1,3.8,1.8,5.8,2.3l0.2,0.1l-0.1,0.2c-1.1,1.8-1.9,3.7-2.5,5.7l0,0.1l-0.1,0
			C31.2,49.8,29.1,50.1,27,50.1"/>
		<path id="XMLID_21_" style="clip-path:url(#XMLID_168_);fill:#781E1E;" d="M35.6,43.5c-2.1-0.5-4-1.3-5.9-2.3L29.4,41l0.3-0.2
			c1.9-1,3.8-1.8,5.9-2.3l0.1,0l0.1,0.1c0.5,0.8,1,1.6,1.6,2.3l0.1,0.1l-0.1,0.1c-0.6,0.8-1.1,1.5-1.6,2.3l-0.1,0.1L35.6,43.5z"/>
		<path id="XMLID_20_" style="clip-path:url(#XMLID_168_);fill:#413436;" d="M41.2,73.4c-0.9-0.6-1.6-1.2-2.2-1.8
			c-3-3-5.1-6.7-6.2-10.8l0-0.1l0.1-0.1c3.4-2,6.2-4.9,8.2-8.3l0.2-0.3l0.2,0.3c2,3.4,4.8,6.3,8.2,8.4l0.1,0.1l0,0.1
			c-1,4.1-3.2,7.9-6.2,10.8c-0.6,0.6-1.3,1.2-2.2,1.7l-0.1,0.1L41.2,73.4z"/>
		<path id="XMLID_19_" style="clip-path:url(#XMLID_168_);fill:#24211E;" d="M49.5,61c-3.5-2.1-6.4-5-8.4-8.5l-0.1-0.1l0.1-0.1
			c1-1.8,1.8-3.7,2.3-5.7l0.1-0.3l0.2,0.1c1.8,1.1,3.7,1.9,5.8,2.4l0.1,0l0,0.1c1.1,3.9,1.1,8,0.2,11.9l-0.1,0.2L49.5,61z"/>
		<path id="XMLID_18_" style="clip-path:url(#XMLID_168_);fill:#3F2923;" d="M32.8,60.8c-1-3.9-0.9-8,0.1-11.8l0-0.1l0.1,0
			c2-0.6,3.9-1.4,5.7-2.4l0.2-0.1l0.1,0.2c0.5,2,1.3,3.9,2.3,5.8l0,0.1l0,0.1c-2,3.5-4.9,6.4-8.3,8.5l-0.2,0.1L32.8,60.8z"/>
		<path id="XMLID_17_" style="clip-path:url(#XMLID_168_);fill:#271D1C;" d="M41.1,52.5c-1.1-1.8-1.9-3.8-2.4-5.8l0-0.1l0.1-0.1
			c0.8-0.5,1.6-1,2.3-1.6l0.1-0.1l0.1,0.1c0.8,0.6,1.5,1.1,2.3,1.6l0.1,0.1l0,0.1c-0.5,2-1.3,4-2.4,5.8l-0.2,0.3L41.1,52.5z"/>
		<path id="XMLID_16_" style="clip-path:url(#XMLID_168_);fill:#3F2722;" d="M33,49c0.6-2,1.4-4,2.5-5.8l0.1-0.1l0.1,0
			c0.9,0.2,1.8,0.4,2.8,0.5l0.2,0l0,0.1c0.1,1,0.3,1.9,0.5,2.7l0,0.1l-0.1,0.1c-1.8,1.1-3.8,1.9-5.8,2.5l-0.3,0.1L33,49z"/>
		<path id="XMLID_15_" style="clip-path:url(#XMLID_168_);fill:#321C18;" d="M38.4,44c-1-0.1-1.9-0.3-2.8-0.5l-0.3-0.1l0.1-0.2
			c0.5-0.8,1-1.6,1.6-2.3l0.2-0.2l0.2,0.2c0.4,0.5,0.7,0.9,1,1.2l0,0l0,0.1c0,0.5,0.1,1,0.1,1.6l0,0.2L38.4,44z"/>
		<path id="XMLID_14_" style="clip-path:url(#XMLID_168_);fill:#201917;" d="M38.8,46.6c-0.2-0.9-0.4-1.8-0.5-2.8l0-0.2l0.2,0
			c0.6,0.1,1.1,0.1,1.6,0.1l0.1,0l0.1,0.1c0.4,0.3,0.8,0.7,1.2,1l0.2,0.1l-0.2,0.2c-0.8,0.6-1.6,1.1-2.4,1.6l-0.2,0.1L38.8,46.6z"/>
		<path id="XMLID_13_" style="clip-path:url(#XMLID_168_);fill:#5E2320;" d="M37.1,41.1c-0.6-0.8-1.1-1.5-1.6-2.3l-0.1-0.2l0.3-0.1
			c0.9-0.2,1.9-0.4,2.8-0.5l0.2,0l0,0.2c-0.1,0.6-0.1,1.1-0.1,1.6l0,0.1l-0.1,0.1c-0.3,0.4-0.7,0.8-1,1.2l-0.2,0.2L37.1,41.1z"/>
		<path id="XMLID_12_" style="clip-path:url(#XMLID_168_);fill:#1A1C15;" d="M49.4,49.2c-2.1-0.6-4-1.4-5.9-2.5l-0.1-0.1l0-0.1
			c0.2-0.9,0.4-1.8,0.5-2.7l0-0.2l0.2,0c1-0.1,1.9-0.3,2.8-0.5l0.1,0l0.1,0.1c1.1,1.8,1.9,3.7,2.5,5.8l0.1,0.3L49.4,49.2z"/>
		<path id="XMLID_11_" style="clip-path:url(#XMLID_168_);fill:#18120E;" d="M43.5,46.7c-0.8-0.5-1.6-1-2.3-1.6L41,45l0.2-0.1
			c0.5-0.4,0.9-0.7,1.2-1l0,0l0.1,0c0.5,0,1-0.1,1.6-0.1l0.2,0l0,0.2c-0.1,1-0.3,1.9-0.5,2.8l-0.1,0.3L43.5,46.7z"/>
		<path id="XMLID_10_" style="clip-path:url(#XMLID_168_);fill:#341D1A;" d="M38.3,38.1c0.1-1,0.3-1.9,0.5-2.8l0.1-0.3l0.2,0.1
			c0.8,0.5,1.6,1,2.4,1.6l0.2,0.2l-0.2,0.1c-0.5,0.4-0.9,0.7-1.2,1l0,0l-0.1,0c-0.5,0-1,0.1-1.6,0.1l-0.2,0L38.3,38.1z"/>
		<path id="XMLID_9_" style="clip-path:url(#XMLID_168_);fill:#2B2523;" d="M45.6,41c0-2.3-1.9-4.3-4.3-4.3c-2.4,0-4.3,1.9-4.3,4.3
			c0,2.3,1.9,4.3,4.3,4.3C43.7,45.2,45.6,43.3,45.6,41"/>
		<path id="XMLID_8_" style="clip-path:url(#XMLID_168_);fill:#000200;" d="M44,43.8c0.1-0.6,0.1-1.1,0.2-1.6v-0.1l0-0.1
			c0.3-0.4,0.7-0.8,1-1.2l0.1-0.2l0.2,0.2c0.6,0.8,1.1,1.5,1.6,2.3l0.1,0.2L47,43.5c-0.9,0.2-1.9,0.4-2.8,0.5l-0.3,0L44,43.8z"/>
	</g>
	<path id="XMLID_3_" style="fill-rule:evenodd;clip-rule:evenodd;fill:#12100B;" d="M35.4,35.2c3.2-3.2,8.5-3.2,11.7,0
		c3.2,3.2,3.2,8.4,0,11.6c-3.2,3.2-8.5,3.2-11.7,0C32.2,43.6,32.2,38.4,35.4,35.2"/>
</g>
</svg>
