<svg id="Layer_1" data-name="Layer 1" xmlns="http://www.w3.org/2000/svg" viewBox="0 0 69.25 69.25"><defs><style>.cls-1{fill:#fff;}</style></defs><title>site-mobille-elementos</title><path class="cls-1" d="M30.41,25A2.41,2.41,0,1,1,28,27.4,2.41,2.41,0,0,1,30.41,25"/><path class="cls-1" d="M34,37.58l-.55-5.48A1.21,1.21,0,0,0,32.27,31h-.66a.6.6,0,0,0-.42.18l-.78.78-.78-.78A.62.62,0,0,0,29.2,31h-.65a1.2,1.2,0,0,0-1.2,1.09l-.55,5.48A.6.6,0,0,0,27,38a.61.61,0,0,0,.45.2h.66l.49,4.94a1.2,1.2,0,0,0,1.2,1.08h1.32a1.2,1.2,0,0,0,1.2-1.08l.49-4.94h.66a.61.61,0,0,0,.45-.2.6.6,0,0,0,.15-.46"/><path class="cls-1" d="M38.84,25a2.41,2.41,0,1,1-2.41,2.41A2.41,2.41,0,0,1,38.84,25"/><path class="cls-1" d="M41.48,37h.37a.59.59,0,0,0,.45-.2.58.58,0,0,0,.15-.47l-.54-4.27A1.21,1.21,0,0,0,40.71,31H37a1.21,1.21,0,0,0-1.2,1.07l-.54,4.28a.58.58,0,0,0,.15.47.59.59,0,0,0,.45.2h.37l-.94,2.82a.63.63,0,0,0,.08.55.61.61,0,0,0,.49.25h.69l.44,2.6a1.2,1.2,0,0,0,1.19,1h1.38a1.2,1.2,0,0,0,1.19-1l.44-2.6h.69a.61.61,0,0,0,.49-.25.63.63,0,0,0,.08-.55Z"/></svg>