<svg xmlns="http://www.w3.org/2000/svg" viewBox="0 0 843.39 667.53">
	<defs><style>.cls-1{isolation:isolate;}.cls-2{mix-blend-mode:multiply;}.cls-3,.cls-4{fill:#b5b9a6;}.cls-4,.cls-5,.cls-6{stroke:#fff;stroke-linecap:square;stroke-linejoin:bevel;stroke-width:2.02px;}.cls-5{fill:#cb9b63;}.cls-6{fill:#dadcd2;}.cls-7,.cls-8{fill-rule:evenodd;}.cls-8,.cls-9{fill:#231f20;}</style></defs><title>Ресурс 8</title><g class="cls-1"><g id="Шар_2" data-name="Шар 2"><g id="Layer_1" data-name="Layer 1"><g class="cls-2"><path class="cls-3" d="M647.85,660.06l-.76.78-.74-.72,3.47-3.57a3.17,3.17,0,0,1,4.74-.08,3,3,0,0,1,.67,3.81l0,0a1.14,1.14,0,0,1,.62,0l3.57,1.12c.36.13.56,0,.85-.33l.17-.16.74.72-.36.37c-.67.68-1,.8-1.77.54l-3.58-1.13a1,1,0,0,0-1.33.36l-1.37,1.41,3.54,3.45-.81.84Zm6,.59a2.16,2.16,0,0,0-.12-3.29,2.13,2.13,0,0,0-3.25,0l-1.83,1.88,3.39,3.29Z"/><path class="cls-3" d="M655.06,653.18a.32.32,0,0,0-.52,0l-.5.51-.74-.72.86-.89a.87.87,0,0,1,1.44,0l4.76,4.64a3.16,3.16,0,1,0,4.39-4.56L660,647.54a.87.87,0,0,1,0-1.44l.86-.89.74.73-.5.51a.33.33,0,0,0,0,.52l4.52,4.4a4.33,4.33,0,0,1-6,6.21Z"/><path class="cls-3" d="M669.05,652.13l.16-.16a.51.51,0,0,0,.15-.68l-4.73-10,.88-.9,10.08,4.45c.31.14.46.06.68-.17l.14-.14.74.72-.37.38a1.17,1.17,0,0,1-1.66.32l-2.7-1.2-3.24,3.33,1.26,2.68a1.14,1.14,0,0,1-.26,1.65l-.38.4Zm2.42-7.83-4.08-1.81c-.54-.24-1.4-.73-1.4-.73l0,0s.52.86.78,1.38l1.93,4Z"/><path class="cls-3" d="M674.05,633.14l-.76.78-.74-.73,3.28-3.37c2.47-2.54,5.65-2.72,8.31-.14s2.57,5.79.1,8.32l-1.82,1.87a.87.87,0,0,1-1.44,0Zm8,5.64,1.38-1.41c2-2.07,2.12-4.62-.13-6.81a4.43,4.43,0,0,0-6.8.07l-1.63,1.67,6.66,6.49A.33.33,0,0,0,682,638.78Z"/><path class="cls-3" d="M682.37,624.59l-.76.77-.74-.72,4.68-4.81a.87.87,0,0,1,1.44,0l.84.82-.77.79-.57-.55a.32.32,0,0,0-.51,0l-2.8,2.87,3.06,3,3.08-3.16.74.72L687,627.45l2.86,2.78a.32.32,0,0,0,.51,0l2.88-3a.33.33,0,0,0,0-.52l-.56-.55.76-.77.84.81a.87.87,0,0,1,0,1.44l-3.53,3.64a.87.87,0,0,1-1.44,0Z"/><path class="cls-3" d="M694.44,610.41a5.87,5.87,0,0,1,3.89-1.94l.14,1.1a5.29,5.29,0,0,0-3.23,1.6,5,5,0,0,0,7.1,6.94,5.12,5.12,0,0,0,1.36-3.86l-1.05-1a.32.32,0,0,0-.51,0l-.51.52-.74-.72.82-.84a.87.87,0,0,1,1.44,0l3.19,3.11-.74.76-.64-.61c-.18-.18-.34-.36-.34-.36l0,0a5.32,5.32,0,0,1-1.54,3.86,6.07,6.07,0,0,1-8.61-8.55Z"/><path class="cls-3" d="M703,601.61a5.93,5.93,0,0,1,8.46-.11,6,6,0,1,1-8.33,8.57A5.91,5.91,0,0,1,703,601.61Zm7.91,7.69a4.86,4.86,0,0,0-.3-6.92A4.76,4.76,0,1,0,704,609.2,4.86,4.86,0,0,0,710.91,609.3Z"/><path class="cls-3" d="M715.9,604l.5-.51a.33.33,0,0,0,0-.52l-7.4-7.21.74-.76,10.17,1.53c.7.12,1.77.39,1.77.39l0,0s-.71-.58-1.16-1l-5.26-5.12a.87.87,0,0,1,0-1.44l.86-.89.74.72-.5.52a.33.33,0,0,0,0,.52l7.4,7.2-.74.77-10.17-1.54c-.7-.09-1.77-.36-1.77-.36l0,0s.72.56,1.16,1l5.26,5.12a.87.87,0,0,1,0,1.44l-.86.88Z"/><path class="cls-3" d="M720.92,583.19c1.17-1.2,3.58-2.65,4.85-1.41l.69.67-.77.79-.46-.45c-.79-.77-2.55.17-3.49,1.14a4.61,4.61,0,0,0,.28,6.7,4.76,4.76,0,0,0,6.84.23,5.62,5.62,0,0,0,1.54-3.93l1.06.1a6.32,6.32,0,0,1-1.73,4.51l.41.61a1.2,1.2,0,0,1,1.66,0,1.38,1.38,0,0,1-.17,2.07,4.44,4.44,0,0,1-.63.53l-.58-.56a2.41,2.41,0,0,0,.56-.44c.31-.31.5-.67.18-1s-.65-.14-1.07.29a1.56,1.56,0,0,0-.15.18l-.75-1.17a6.09,6.09,0,0,1-8.27-8.86Z"/><path class="cls-3" d="M732.47,587l.15-.16a.52.52,0,0,0,.16-.68l-4.73-10,.87-.9L739,579.71c.31.13.46,0,.68-.18l.14-.14.74.72-.37.38a1.17,1.17,0,0,1-1.66.32l-2.7-1.2L732.59,583l1.27,2.67c.36.78.32,1.06-.26,1.66l-.39.39Zm2.42-7.82-4.08-1.81c-.54-.24-1.41-.74-1.41-.74l0,0s.52.86.77,1.39l1.93,4Z"/><path class="cls-3" d="M734.56,571.47a.33.33,0,0,0-.52,0l-.5.51-.74-.72.86-.88a.87.87,0,0,1,1.44,0l6.67,6.49a.32.32,0,0,0,.52,0l2.72-2.78a.33.33,0,0,0,0-.52l-.56-.55.77-.79.83.82a.87.87,0,0,1,0,1.44L742.68,578a.87.87,0,0,1-1.44,0Z"/><path class="cls-3" d="M742.94,560.56a5.94,5.94,0,0,1,8.47-.11,6,6,0,1,1-8.34,8.57A5.92,5.92,0,0,1,742.94,560.56Zm7.91,7.69a4.87,4.87,0,0,0-.29-6.92,4.76,4.76,0,1,0-6.64,6.82A4.87,4.87,0,0,0,750.85,568.25Z"/><path class="cls-3" d="M758.53,558.33a4.27,4.27,0,0,0,3.14-1.18,2.15,2.15,0,0,0,.13-3.12c-2.08-2-5.71,2.54-8.31,0-1.18-1.14-1.17-3.11.35-4.67.79-.81,2.55-1.93,3.66-.86l.59.58-.76.79-.4-.39c-.5-.49-1.55-.15-2.3.63-1.06,1.08-1,2.34-.33,3,2,1.9,5.51-2.72,8.29,0a3.28,3.28,0,0,1-.16,4.8,5,5,0,0,1-3.79,1.51Z"/><path class="cls-3" d="M764.69,553.84l.15-.15c.21-.22.3-.39.15-.69l-4.73-10,.88-.9,10.08,4.46c.31.14.46,0,.68-.18l.14-.14.74.72-.37.38a1.16,1.16,0,0,1-1.66.32l-2.69-1.2-3.25,3.34,1.26,2.67a1.15,1.15,0,0,1-.26,1.66l-.38.39ZM767.1,546,763,544.21c-.54-.24-1.4-.74-1.4-.74l0,0s.52.85.78,1.38l1.93,4Z"/><path class="cls-3" d="M772.45,545.86l.43-.44a.34.34,0,0,0,0-.52L766,537.11l.82-.85,7.06,2.54c.63.21,1.4.54,1.4.54l0,0s-.36-.76-.6-1.37L772,531l.83-.85,8,6.62a.33.33,0,0,0,.52,0l.44-.45.75.72-.79.81c-.51.52-.9.49-1.45,0l-5.49-4.57c-.49-.41-1.21-1.11-1.21-1.11l0,0a15.55,15.55,0,0,1,.75,1.57l2.33,6.15-.73.76-6.21-2.17c-.6-.22-1.62-.73-1.62-.73l0,0s.75.72,1.17,1.2l4.72,5.36c.48.54.52.93,0,1.44l-.78.8Z"/><path class="cls-3" d="M776.35,528l-.76.78-.74-.72,3.45-3.56a3.56,3.56,0,1,1,5.11,5l-1.88,1.94,3.3,3.21-.82.84Zm6.22.86a2.39,2.39,0,0,0,0-3.63,2.35,2.35,0,0,0-3.58.09l-1.79,1.84,3.62,3.53Z"/><path class="cls-3" d="M788.9,529l.16-.16a.51.51,0,0,0,.15-.68l-4.73-10,.88-.9,10.08,4.46c.31.13.46,0,.68-.18l.14-.14.74.72-.37.38a1.17,1.17,0,0,1-1.66.32l-2.7-1.2L789,525l1.26,2.67a1.15,1.15,0,0,1-.26,1.66l-.38.39Zm2.42-7.82-4.08-1.81c-.54-.24-1.41-.74-1.41-.74l0,0s.52.86.78,1.39l1.93,4Z"/><path class="cls-3" d="M797,520.68l.77-.78-6.93-6.75-.77.79-.74-.72,2.34-2.4.74.72-.78.8,6.93,6.74.78-.8.74.72-2.34,2.41Z"/><path class="cls-3" d="M796.62,505.39a5.93,5.93,0,0,1,8.46-.1,6,6,0,1,1-8.33,8.56A5.91,5.91,0,0,1,796.62,505.39Zm7.91,7.7a4.88,4.88,0,0,0-.3-6.93A4.76,4.76,0,1,0,797.6,513,4.86,4.86,0,0,0,804.53,513.09Z"/></g><g class="cls-2"><path class="cls-3" d="M94.32,521.76l-.75-.78.74-.72,3.46,3.57a3.17,3.17,0,0,1,0,4.74,3,3,0,0,1-3.84.56l0,0a1.12,1.12,0,0,1-.06.62l-1.22,3.53c-.13.36,0,.57.31.87l.16.17-.74.72-.36-.38c-.66-.68-.78-1-.49-1.77l1.23-3.55a1,1,0,0,0-.32-1.34L91,526.61l-3.54,3.44-.81-.84Zm-.76,6a2.17,2.17,0,0,0,3.3,0,2.12,2.12,0,0,0,.1-3.24l-1.82-1.88-3.39,3.29Z"/><path class="cls-3" d="M101,529.16a.33.33,0,0,0,0-.52l-.5-.51.74-.72.86.88a.87.87,0,0,1,0,1.44l-4.77,4.63a3.16,3.16,0,1,0,4.43,4.52l4.75-4.61a.87.87,0,0,1,1.44,0l.86.89-.75.72-.5-.52a.33.33,0,0,0-.52,0l-4.52,4.39a4.33,4.33,0,0,1-6-6.21Z"/><path class="cls-3" d="M101.65,543.18l.15.16a.53.53,0,0,0,.69.17l10.08-4.44.88.9-4.74,9.95c-.15.3-.07.46.15.69l.14.14-.74.72-.37-.38a1.17,1.17,0,0,1-.27-1.67l1.28-2.66-3.25-3.34-2.71,1.19a1.16,1.16,0,0,1-1.65-.31l-.38-.4Zm7.75,2.64,1.93-4c.25-.53.78-1.38.78-1.38l0,0s-.87.5-1.4.74l-4.08,1.82Z"/><path class="cls-3" d="M123.65,552l-.75-.78.74-.72,3.28,3.37c2.47,2.54,2.56,5.73-.1,8.31s-5.85,2.41-8.32-.13l-1.81-1.87a.87.87,0,0,1,0-1.44Zm-5.86,7.83,1.37,1.41c2,2.08,4.56,2.26,6.81.07a4.43,4.43,0,0,0,.13-6.8l-1.63-1.68-6.67,6.48A.33.33,0,0,0,117.79,559.8Z"/><path class="cls-3" d="M136.21,563.13a5.92,5.92,0,0,1-.13,8.46,6,6,0,1,1-8.33-8.57A5.91,5.91,0,0,1,136.21,563.13Zm-7.91,7.68a4.88,4.88,0,0,0,6.93-.09,4.76,4.76,0,1,0-6.63-6.83A4.85,4.85,0,0,0,128.3,570.81Z"/><path class="cls-3" d="M147.46,576.49l-.75-.78.74-.72,3.48,3.58a2.89,2.89,0,0,1,.09,4.33,2.69,2.69,0,0,1-2.88.7l0,0a2.84,2.84,0,0,1-.71,3.43,3.22,3.22,0,0,1-4.8-.22l-2.1-2.17a.87.87,0,0,1,0-1.44Zm-5.86,7.83,1.74,1.8a2.13,2.13,0,0,0,3.24,0,2.19,2.19,0,0,0,.06-3.27l-2-2-3,2.95A.33.33,0,0,0,141.6,584.32Zm5.66-2.22a1.92,1.92,0,0,0,2.86,0,1.87,1.87,0,0,0,0-2.83l-1.88-1.94-2.91,2.82Z"/><path class="cls-3" d="M158.78,586.37a5.93,5.93,0,0,1-.14,8.46,6,6,0,1,1-8.32-8.57A5.91,5.91,0,0,1,158.78,586.37Zm-7.92,7.68a4.88,4.88,0,0,0,6.93-.09,4.76,4.76,0,1,0-6.62-6.83A4.86,4.86,0,0,0,150.86,594.05Z"/><path class="cls-3" d="M155.8,599l.44.45a.33.33,0,0,0,.52,0l8-6.61.82.85-2.73,7c-.24.62-.59,1.38-.59,1.38l0,0s.78-.33,1.39-.55l7.06-2.53.83.85-6.84,7.78a.34.34,0,0,0,0,.52l.44.46-.74.72-.79-.82c-.5-.51-.46-.9,0-1.44l4.73-5.36c.42-.47,1.14-1.17,1.14-1.17l0,0a14.79,14.79,0,0,1-1.6.71l-6.21,2.15-.74-.75,2.35-6.14c.23-.6.77-1.61.77-1.61l0,0s-.74.72-1.23,1.13l-5.5,4.57c-.55.46-.94.49-1.44,0l-.78-.81Z"/><path class="cls-3" d="M173.55,615.38a4.3,4.3,0,0,0,1.09,3.18,2.14,2.14,0,0,0,3.11.21c2.08-2-2.37-5.77.24-8.3,1.17-1.14,3.14-1.08,4.66.48.79.81,1.86,2.61.76,3.68l-.6.58-.77-.79.4-.38c.5-.49.19-1.55-.56-2.33-1.06-1.08-2.31-1.1-3-.4-1.95,1.89,2.56,5.58-.22,8.28a3.29,3.29,0,0,1-4.8-.3,5,5,0,0,1-1.39-3.83Z"/><path class="cls-3" d="M185.54,616.23a.33.33,0,0,0,0-.52l-.5-.51.74-.72.86.88a.87.87,0,0,1,0,1.44l-4.76,4.63a3.16,3.16,0,1,0,4.43,4.51l4.74-4.6a.87.87,0,0,1,1.44,0l.86.89-.74.72-.5-.52a.33.33,0,0,0-.52,0l-4.53,4.39a4.33,4.33,0,0,1-6-6.21Z"/><path class="cls-3" d="M198.35,627.12c1.17,1.2,2.55,3.65,1.28,4.89l-.7.67-.76-.79.46-.45c.79-.77-.1-2.55-1-3.52a4.62,4.62,0,0,0-6.71.09,4.79,4.79,0,0,0-.38,6.86,5.33,5.33,0,0,0,3.86,1.6l-.15,1.08a6.26,6.26,0,0,1-4.52-1.92,5.89,5.89,0,0,1,.34-8.5A5.76,5.76,0,0,1,198.35,627.12Z"/><path class="cls-3" d="M202.3,633l-.75-.77.74-.72,4.67,4.81a.87.87,0,0,1,0,1.44l-.84.81-.76-.79.56-.54a.33.33,0,0,0,0-.52l-2.79-2.88-3.07,3,3.07,3.16-.74.72-3.07-3.16-2.86,2.78a.33.33,0,0,0,0,.52l2.87,3a.33.33,0,0,0,.52,0l.56-.55.76.78-.84.81a.87.87,0,0,1-1.44,0l-3.53-3.64a.87.87,0,0,1,0-1.44Z"/><path class="cls-3" d="M202.46,645.16a4.3,4.3,0,0,0,1.09,3.18,2.15,2.15,0,0,0,3.11.21c2.09-2-2.37-5.77.24-8.31,1.18-1.14,3.15-1.07,4.66.49.79.81,1.86,2.61.76,3.68l-.6.58-.77-.79.4-.38c.5-.49.2-1.55-.56-2.33-1.06-1.09-2.31-1.1-3-.41-2,1.9,2.56,5.59-.22,8.29a3.29,3.29,0,0,1-4.8-.3,5,5,0,0,1-1.4-3.83Z"/><path class="cls-3" d="M208.49,651.36a4.27,4.27,0,0,0,1.08,3.18,2.15,2.15,0,0,0,3.12.21c2.08-2-2.38-5.77.24-8.31,1.17-1.13,3.14-1.07,4.65.49.79.81,1.86,2.61.76,3.68l-.6.58-.76-.79.39-.38c.5-.49.2-1.55-.56-2.33-1.05-1.08-2.3-1.1-3-.41-2,1.9,2.56,5.59-.22,8.29a3.28,3.28,0,0,1-4.8-.3,5,5,0,0,1-1.4-3.83Z"/><path class="cls-3" d="M225.08,654.65a5.93,5.93,0,0,1-.14,8.46,6,6,0,1,1-8.32-8.57A5.91,5.91,0,0,1,225.08,654.65Zm-7.92,7.69a4.88,4.88,0,0,0,6.94-.1,4.76,4.76,0,1,0-6.63-6.83A4.87,4.87,0,0,0,217.16,662.34Z"/></g><polygon class="cls-4" points="118.67 75.49 0.98 94.65 6.51 118.63 46.36 291.01 7.37 300.33 22.21 367.8 22.38 368.32 22.55 369.35 27.39 368.32 32.56 391.78 32.91 392.99 38.26 391.78 46.36 403.17 47.92 405.24 49.13 407.14 50.16 408.69 50.85 409.56 51.2 409.9 85.19 409.9 87.43 409.56 89.33 408.69 90.89 407.14 91.92 405.24 92.44 403.17 92.44 391.78 92.44 368.32 92.44 367.8 124.01 367.8 124.01 300.33 124.01 291.01 124.19 118.63 121.08 94.65 118.67 75.49"/><polygon class="cls-4" points="717.08 132.09 717.08 124.67 717.08 93.44 717.08 76.01 717.08 64.97 717.08 58.41 717.08 52.54 717.08 35.29 717.08 30.11 717.08 22.35 717.08 17.34 717.08 0.95 670.66 17.34 650.48 22.35 614.07 30.11 587.32 35.29 489.65 52.54 440.99 58.41 388.71 64.97 307.44 76.01 307.44 93.44 307.44 93.78 326.94 93.78 326.94 97.41 326.94 144.51 326.94 150.55 341.26 150.55 341.26 144.51 345.4 144.51 345.4 97.41 350.92 97.41 350.92 93.78 403.38 93.78 403.38 93.44 647.02 93.44 647.02 124.67 647.02 148.14 662.38 148.14 662.38 124.67 673.08 124.67 673.08 132.09 672.91 132.09 672.91 138.13 672.91 146.24 672.56 146.24 672.56 152.45 672.56 174.02 716.22 174.02 716.22 152.45 718.63 152.45 718.63 146.24 718.63 138.13 717.08 138.13 717.08 132.09"/><polygon class="cls-4" points="176.3 443.2 171.81 443.2 171.81 443.55 163.87 443.55 163.87 443.2 161.28 443.2 161.28 443.55 161.28 508.6 193.9 508.6 193.9 443.55 193.9 443.2 193.9 430.61 176.3 430.61 176.3 443.2"/><polygon class="cls-4" points="840.46 366.93 839.25 368.32 835.45 371.77 832.17 368.32 830.79 366.93 781.96 366.93 781.96 368.32 725.19 368.32 725.19 371.77 725.19 390.4 805.77 390.4 805.77 404.38 819.75 390.4 838.56 371.77 842.01 368.32 843.39 366.93 840.46 366.93"/><polygon class="cls-4" points="409.42 513.43 395.44 513.43 395.44 528.79 394.92 528.79 394.92 546.22 394.92 581.07 422.88 581.07 422.88 546.22 478.61 546.22 478.61 586.08 507.25 586.08 507.25 546.22 507.25 528.79 409.42 528.79 409.42 513.43"/><polygon class="cls-5" points="176.99 254.09 182.68 254.09 182.68 257.19 229.96 257.19 229.96 254.09 236 254.09 236 205.25 230.31 205.25 230.31 199.39 232.9 199.39 232.9 149.86 230.48 149.86 230.48 144 232.9 144 232.9 111.38 236.17 111.38 236 150.55 263.78 150.55 263.78 111.38 263.78 100.51 263.78 94.47 263.78 93.78 231.17 93.61 231.17 89.12 232.72 89.12 232.72 86.19 195.45 89.12 140.24 93.61 138.68 93.78 130.92 94.47 131.26 100.51 126.77 100.51 126.77 111.38 126.77 144 126.77 149.86 126.77 199.39 126.77 205.25 126.77 254.09 126.77 257.19 176.99 257.19 176.99 254.09"/><polygon class="cls-5" points="400.96 426.3 397.51 426.3 397.51 447.34 448.41 447.34 448.41 426.3 448.41 415.94 400.96 415.94 400.96 426.3"/><polygon class="cls-5" points="672.22 473.57 670.32 471.68 647.89 449.07 617.34 449.07 617.34 441.82 618.38 441.82 618.38 426.3 618.38 426.12 618.38 424.23 613.2 424.23 613.2 424.05 613.2 423.19 613.2 419.05 613.2 418.36 618.38 418.36 618.38 415.94 561.44 415.94 561.44 418.36 561.44 419.05 565.58 419.05 565.58 423.19 561.44 423.19 561.44 424.05 554.53 424.05 554.53 415.94 509.5 415.94 509.5 424.05 509.5 424.23 509.5 426.12 503.12 426.12 503.12 415.94 454.45 415.94 454.45 426.12 454.45 426.3 450.14 426.3 450.14 441.82 450.14 449.07 397.51 449.07 397.51 471.68 400.27 471.68 400.27 473.57 400.27 479.27 400.27 480.13 397.51 480.13 397.51 493.42 397.51 511.19 397.51 513.43 409.42 513.43 409.42 528.79 507.25 528.79 507.25 553.98 507.25 585.56 507.25 586.08 478.61 586.08 478.61 546.22 451.35 546.22 451.35 586.08 451.35 638.19 451.35 642.5 502.08 642.5 502.08 638.19 507.77 638.19 507.77 642.5 554.53 642.5 554.53 638.19 563.16 638.19 563.16 642.5 567.48 638.19 619.76 586.08 620.28 585.56 620.28 553.98 638.57 536.56 670.15 536.56 672.22 534.49 667.73 534.49 667.73 528.45 672.22 528.45 672.22 493.42 672.22 480.13 672.22 479.27 666.35 479.27 666.35 473.57 672.22 473.57"/><polygon class="cls-5" points="394.41 472.54 394.41 471.68 395.79 471.68 395.79 426.3 394.92 426.3 394.92 423.53 394.92 417.67 350.23 417.67 350.23 423.53 343.16 423.53 343.16 422.84 340.74 422.84 340.74 423.53 340.74 426.3 340.74 471.68 340.74 472.54 340.74 474.44 343.16 474.44 343.16 472.54 350.23 472.54 350.23 479.27 343.16 479.27 343.16 478.58 340.74 478.58 340.74 479.27 340.74 480.13 340.74 513.43 340.74 528.1 340.74 528.79 342.3 528.79 342.3 528.1 349.37 528.1 349.37 528.79 349.37 535 342.3 535 342.3 533.45 342.3 533.1 338.15 533.1 338.15 529.48 289.84 529.48 289.84 533.1 289.84 533.45 285.69 533.45 285.69 535 285.69 561.4 339.36 614.72 394.92 614.72 394.92 561.4 394.92 535 394.92 528.79 395.44 528.79 395.44 528.1 395.44 513.43 395.79 513.43 395.79 480.13 394.41 480.13 394.41 479.27 394.41 472.54"/><polygon class="cls-5" points="422.88 581.07 398.38 581.07 398.38 586.08 396.65 586.08 396.65 616.27 338.67 616.27 312.1 589.88 306.58 584.35 284.14 562.09 284.14 546.91 284.14 543.8 284.14 539.83 284.14 527.93 339.01 527.93 339.01 509.64 339.01 506.88 339.01 502.91 339.01 418.87 343.16 418.87 343.16 416.81 348.33 416.81 348.33 399.89 348.33 371.59 343.33 371.59 343.33 370.21 340.74 370.21 340.74 366.07 341.6 366.07 341.6 362.1 345.75 362.1 345.06 361.59 231.17 361.59 230.65 362.1 226.85 366.07 222.72 370.21 221.51 371.59 193.9 399.89 193.9 416.81 193.9 418.87 193.9 502.91 193.9 507.22 202.01 507.22 206.32 502.91 210.12 506.88 207.18 509.64 224.78 527.93 236.35 539.83 239.28 542.94 242.39 539.83 246.35 543.8 243.25 546.91 258.26 562.09 280.52 584.35 282.07 586.08 284.14 587.98 284.14 586.08 284.14 584.35 289.84 584.35 289.84 589.88 286.04 589.88 312.62 616.27 334.53 638.19 335.22 639.05 338.67 642.33 338.67 639.05 338.67 638.19 347.13 638.19 347.13 639.05 347.13 642.5 393.37 642.5 393.37 639.05 399.07 639.05 399.07 642.5 449.8 642.5 449.8 639.05 449.8 638.19 449.8 616.27 449.8 586.08 449.8 581.07 449.8 546.22 422.88 546.22 422.88 581.07"/><polygon class="cls-5" points="220.82 278.42 220.82 259.78 125.74 259.78 125.74 278.42 125.74 306.02 130.74 306.02 130.74 316.38 125.74 316.38 125.74 361.93 129.02 361.93 133.68 366.25 134.19 366.76 134.71 366.25 138.85 361.93 183.72 316.38 193.9 306.02 220.82 278.42"/><polygon class="cls-5" points="670.66 309.48 674.63 309.48 674.63 310.17 674.63 311.55 709.83 311.55 709.83 310.17 712.25 310.17 712.25 309.48 712.25 308.1 712.25 260.47 712.25 259.78 710.52 259.78 710.52 255.47 712.25 255.47 712.25 254.78 712.25 205.43 712.25 205.08 710.52 205.08 710.52 200.77 712.25 200.77 712.25 199.9 712.25 177.65 703.79 177.65 703.79 174.71 703.79 174.02 673.08 174.02 673.08 174.71 669.97 174.71 669.97 177.65 669.97 199.9 675.49 199.9 675.49 200.77 675.49 205.08 675.49 205.43 669.97 205.43 669.97 254.78 675.49 254.78 675.49 255.47 675.49 259.78 675.49 260.47 669.97 260.47 669.97 308.1 670.66 308.1 670.66 309.48"/><polygon class="cls-5" points="561.96 370.73 561.96 382.12 619.41 382.12 619.41 370.73 619.41 366.42 619.41 362.45 619.41 362.1 619.41 345.71 562.82 345.71 562.82 362.1 563.85 362.45 563.85 366.42 566.1 366.42 566.1 370.73 561.96 370.73"/><polygon class="cls-5" points="619.41 315.17 613.72 315.17 613.72 314.82 613.72 309.13 564.72 309.13 564.72 314.82 562.82 314.82 562.82 315.17 562.82 342.26 619.41 342.26 619.41 315.17"/><polygon class="cls-5" points="559.71 366.42 559.71 366.07 559.71 362.45 561.09 362.45 561.09 362.27 561.09 344.16 561.09 316.89 561.09 314.82 559.02 314.82 559.02 314.65 559.02 309.13 508.98 309.13 508.98 314.65 504.49 314.65 504.49 314.48 504.49 309.13 454.63 309.13 454.63 314.48 451 314.48 450.66 314.65 450.49 314.82 447.9 316.89 447.9 344.16 450.14 344.16 450.14 362.27 453.94 362.27 453.94 362.45 453.94 366.07 455.32 366.07 455.32 366.42 455.32 371.94 455.32 373.32 450.14 373.32 450.14 382.12 560.23 382.12 560.23 373.32 560.23 371.94 556.26 371.94 556.26 366.42 559.71 366.42"/><polygon class="cls-5" points="674.46 372.11 709.66 372.11 709.66 364.35 712.25 364.35 712.25 362.45 712.25 316.38 712.25 315.17 712.25 314.65 709.83 314.65 709.83 313.1 674.63 313.1 674.63 314.65 674.63 315.17 670.66 315.17 670.66 316.38 669.97 316.38 669.97 362.45 674.46 362.45 674.46 364.35 674.46 372.11"/><polygon class="cls-5" points="347.47 144.69 347.47 145.03 347.47 149.86 394.75 149.86 394.75 145.03 403.38 145.03 403.38 149.86 449.62 149.86 449.62 145.03 449.62 144.69 451.87 144.69 451.87 144.51 451.87 97.41 451.87 96.89 450.66 96.89 450.66 93.78 450.66 93.44 403.38 93.44 403.38 93.78 350.92 93.78 350.92 96.89 350.92 97.41 345.4 97.41 345.4 144.51 347.47 144.51 347.47 144.69"/><polygon class="cls-5" points="455.66 149.86 504.67 149.86 504.67 144.69 510.71 144.69 510.71 149.86 559.88 149.86 559.88 144.69 565.92 144.69 565.92 149.86 614.75 149.86 614.75 144.69 620.8 144.69 620.8 148.14 620.8 149.86 646.16 149.86 646.16 148.14 647.02 148.14 647.02 144.69 647.02 96.89 647.02 93.44 620.45 93.44 620.45 96.89 615.97 96.89 615.97 93.44 565.58 93.44 565.58 96.89 561.09 96.89 561.09 93.44 510.19 93.44 510.19 96.89 505.88 96.89 505.88 93.44 455.14 93.44 455.14 96.89 453.59 96.89 453.59 144.69 455.66 144.69 455.66 149.86"/><polygon class="cls-5" points="284.14 145.03 292.94 145.03 292.94 149.86 326.94 149.86 326.94 145.03 326.94 93.78 265.34 93.78 265.34 145.03 265.34 149.86 284.14 149.86 284.14 145.03"/><polygon class="cls-5" points="725.19 390.4 725.19 382.81 710.87 382.81 703.45 390.4 696.72 397.31 700.17 400.76 703.28 403.86 705.52 406.1 717.42 417.84 722.6 422.84 722.95 423.19 722.95 422.84 722.95 417.84 728.3 417.84 728.3 420.08 728.3 422.84 777.82 422.84 777.82 420.08 781.96 420.08 781.96 422.84 784.03 422.84 786.62 420.08 788.86 417.84 801.29 406.1 799.22 403.86 802.49 400.76 803.88 400.76 803.88 397.31 803.88 390.4 725.19 390.4"/><path class="cls-6" d="M683.61,415.35l12.58-13.51-17.25-16.09,2.25-2.25,7.94,7.94.86.86.86-.86.69.86,4.32,4.31,4.31-4.31.86-.86,7.77-7.94.69-.69,1-.86h14.67V368.32h-6.38l-.52.34h-7.08V373h-42.1V174h3.45V146.24h.35V132.09h.17v-7.42h-10.7v23.47H647v2.41H236V264.44l-52.11,53-42.45,43.31-10.52,10.87L159,400.07l11.39,11.56,3.28,3.45h.17l.69.69.69-.69h.17l3.46-3.45,3.27,3.45v8.45H179.4v6.9l13.12.18V400.07l27.95-28.48L231,360.72H345.57l3.63,3.8V416.8h45.72v-1.72H619.24v32.26h28.3l-8.11-8.28,24.5-24,7.6-7.59-7.08-7.25,1.9-1.9ZM484.31,179h87v10.35h36.41V179H640v26.91H638.4V203.7H617.17v52.63h21.57V217.5H640v63.16H510.71V280h-2.42v-.17l-.69-3.63-.17-3.79.52-3.8-.7-.34-1.2-1L504.49,266l-1.2,1.21L496.9,261l1.38-1.38L496,257v-.17l-.17-.52-.18-.35-1.55.35-2.07.52-3.8-.18-3.62-.69h-.34V179Zm-38,185.49V317.41H268.61V198.52H455.66V308.27H620.28v74.54H446.34Z"/><polygon class="cls-5" points="425.14 297.38 425.99 278.91 454.63 278.91 454.63 199.39 269.48 199.39 269.48 279.97 269.48 298.26 269.48 309.48 269.48 316.38 394.06 316.38 394.06 309.48 394.8 309.48 394.92 298.23 425.14 297.38"/><polygon class="cls-5" points="402.34 309.48 402.34 312.24 424.26 312.24 424.26 315.51 446.86 315.51 450.83 312.24 454.11 309.48 454.63 309.13 454.63 298.26 454.63 279.97 454.63 278.91 425.99 278.91 425.14 297.38 394.92 298.23 394.8 309.48 395.44 309.48 402.34 309.48"/><g class="cls-2"><path d="M374.21,77.23a.9.9,0,0,0-.21-.3h0l0,0a1.59,1.59,0,0,0-.27-.18.94.94,0,0,0-.37-.07h-3.28a.95.95,0,1,0,0,1.89h1l-6,6a1,1,0,0,0,0,1.34.93.93,0,0,0,.66.27,1,1,0,0,0,.67-.27l6.06-6.05V81a.94.94,0,1,0,1.88,0V77.6A.94.94,0,0,0,374.21,77.23Z"/><path d="M375.17,61.63h-6.91a.7.7,0,0,0-.7.7V66h-3.89a.71.71,0,0,0-.71.7v3.69h-3.89a.71.71,0,0,0-.7.71v3.73h-3.89a.7.7,0,0,0-.7.7v3.69h-3.89a.7.7,0,0,0-.7.7v3.69H345.3a.7.7,0,0,0-.7.7V86.6a.7.7,0,0,0,.7.7h6.91a.7.7,0,0,0,.7-.7V82.86h3.9a.69.69,0,0,0,.69-.7V78.47h3.9a.69.69,0,0,0,.69-.7V74.08H366a.7.7,0,0,0,.7-.7V69.64h3.89a.69.69,0,0,0,.7-.69v-3.7h3.89a.7.7,0,0,0,.71-.69V62.33A.71.71,0,0,0,375.17,61.63Z"/><path d="M364.8,85.62a1.27,1.27,0,0,0,.2.31h0l0,0a1.59,1.59,0,0,0,.27.18,1,1,0,0,0,.37.07H369a.95.95,0,1,0,0-1.89h-1l6.05-6a1,1,0,0,0,0-1.34.9.9,0,0,0-.66-.28.89.89,0,0,0-.67.28l-6.05,6V81.9a.95.95,0,0,0-1.89,0v3.35A.94.94,0,0,0,364.8,85.62Z"/></g><g class="cls-2"><path d="M653,229.3a1.21,1.21,0,0,0-.2-.3h0s0,0,0,0a1.51,1.51,0,0,0-.26-.18,1.27,1.27,0,0,0-.38-.07h-3.28a.95.95,0,1,0,0,1.89h1l-6,6a.94.94,0,0,0,.66,1.61,1,1,0,0,0,.67-.27L651.2,232V233a.94.94,0,1,0,1.88,0v-3.35A1,1,0,0,0,653,229.3Z"/><path d="M654,213.7h-6.91a.7.7,0,0,0-.7.71v3.69h-3.89a.7.7,0,0,0-.71.69v3.69h-3.89a.71.71,0,0,0-.7.7v3.74h-3.89a.7.7,0,0,0-.7.7v3.69H628.7a.71.71,0,0,0-.71.7v3.69h-3.88a.7.7,0,0,0-.7.7v2.28a.7.7,0,0,0,.7.7H631a.7.7,0,0,0,.7-.7v-3.75h3.89a.7.7,0,0,0,.7-.7v-3.68h3.9a.7.7,0,0,0,.69-.71v-3.68h3.9a.7.7,0,0,0,.69-.71v-3.73h3.9a.71.71,0,0,0,.7-.71v-3.69H654a.7.7,0,0,0,.7-.7v-2.21A.7.7,0,0,0,654,213.7Z"/><path d="M643.61,237.69a.75.75,0,0,0,.2.3h0s0,0,0,0a1.27,1.27,0,0,0,.27.18.94.94,0,0,0,.37.07h3.28a.95.95,0,0,0,0-1.89h-1l6-6a.94.94,0,0,0,0-1.33,1,1,0,0,0-.67-.28,1,1,0,0,0-.67.28l-6.05,6V234a.94.94,0,0,0-1.88,0v3.36A.92.92,0,0,0,643.61,237.69Z"/></g><g class="cls-2"><path d="M743.06,152.78a1,1,0,0,0-.2-.3h0l0,0a1.59,1.59,0,0,0-.27-.18,1.16,1.16,0,0,0-.37-.07H738.9a.95.95,0,0,0,0,1.89h1l-6,6a.94.94,0,0,0,.66,1.61,1,1,0,0,0,.68-.27l6-6v1.07a.94.94,0,1,0,1.88,0v-3.35A.94.94,0,0,0,743.06,152.78Z"/><path d="M744,137.18h-6.91a.7.7,0,0,0-.7.71v3.68h-3.89a.71.71,0,0,0-.71.7V146h-3.89a.71.71,0,0,0-.71.7v3.74h-3.88a.7.7,0,0,0-.7.7v3.69h-3.89a.7.7,0,0,0-.7.7v3.69h-3.89a.7.7,0,0,0-.71.7v2.27a.7.7,0,0,0,.71.7h6.91a.69.69,0,0,0,.69-.7v-3.74h3.9a.7.7,0,0,0,.7-.7V154h3.89a.7.7,0,0,0,.7-.71v-3.68h3.9a.71.71,0,0,0,.7-.71v-3.74h3.88a.7.7,0,0,0,.71-.7V140.8H744a.7.7,0,0,0,.7-.7v-2.21A.71.71,0,0,0,744,137.18Z"/><path d="M733.66,161.17a.88.88,0,0,0,.2.3h0l0,0a1.48,1.48,0,0,0,.27.19,1,1,0,0,0,.38.07h3.27a.95.95,0,1,0,0-1.89h-1l6.05-6.05a1,1,0,0,0,0-1.33.94.94,0,0,0-.67-.28.91.91,0,0,0-.67.28l-6,6v-1.07a.95.95,0,0,0-1.89,0v3.35A.77.77,0,0,0,733.66,161.17Z"/></g><g class="cls-2"><path d="M330.05,59.83H312.11a3.69,3.69,0,0,0-3.69,3.68V85.58a3.69,3.69,0,0,0,3.69,3.68h17.94a3.68,3.68,0,0,0,3.68-3.68V63.51A3.68,3.68,0,0,0,330.05,59.83Zm.74,25.75a.74.74,0,0,1-.74.74H312.11a.73.73,0,0,1-.73-.74V63.51a.73.73,0,0,1,.73-.74h17.94a.74.74,0,0,1,.74.74Z"/><path class="cls-7" d="M319.28,68.58a1.67,1.67,0,0,1-3.33,0,1.67,1.67,0,1,1,3.33,0Z"/><path class="cls-7" d="M318.37,82.27a.76.76,0,0,1-.75-.75V78.43c0-.41.11-.32-.22-.32s-.25-.09-.25.32v3.09a.75.75,0,0,1-.75.75h-.23a.75.75,0,0,1-.75-.75V78.43a.57.57,0,0,1,0-.13,1.6,1.6,0,0,1-.8-1.26l.16-4.85c.16-.93.68-1.51,1.51-1.51h2.25a1.47,1.47,0,0,1,1.51,1.51l.18,4.85a1.73,1.73,0,0,1-.89,1.26.57.57,0,0,1,0,.13v3.09a.76.76,0,0,1-.75.75Z"/><path class="cls-7" d="M326,68.58a1.67,1.67,0,1,1-1.67-1.67A1.66,1.66,0,0,1,326,68.58Z"/><path class="cls-7" d="M325.07,82.27a.76.76,0,0,1-.76-.75V78.43c0-.41.1-.32-.22-.32s-.24-.09-.24.32v3.09a.76.76,0,0,1-.76.75h-.24a.75.75,0,0,1-.74-.75V78.43a.57.57,0,0,1,0-.13,1.6,1.6,0,0,1-.8-1.26l.17-4.85c.15-.93.67-1.51,1.5-1.51h2.25c.84,0,1.39.51,1.51,1.51l.18,4.85A1.7,1.7,0,0,1,326,78.3a.57.57,0,0,1,0,.13v3.09a.76.76,0,0,1-.76.75Z"/><path d="M316.82,57.06a1.1,1.1,0,0,0,.36.07h0a1.07,1.07,0,0,0,.31-.06.85.85,0,0,0,.31-.21l2.28-2.29a.93.93,0,0,0,0-1.31.94.94,0,0,0-1.32,0l-.71.7V45.54a.92.92,0,0,0-.93-.93.9.9,0,0,0-.65.27.92.92,0,0,0-.27.66V54l-.75-.74a.93.93,0,0,0-1.31,1.31l2.33,2.33A.9.9,0,0,0,316.82,57.06Z"/><path d="M326.58,44.69a.94.94,0,0,0-.36-.08h-.05a1.07,1.07,0,0,0-.3.06.85.85,0,0,0-.31.21l-2.29,2.28a.93.93,0,1,0,1.32,1.32l.7-.71V56.2a.93.93,0,0,0,.93.93.94.94,0,0,0,.93-.93V47.78l.75.75a.93.93,0,0,0,1.31-1.31l-2.33-2.34A.85.85,0,0,0,326.58,44.69Z"/></g><g class="cls-2"><path d="M507.35,252.72h-18a3.68,3.68,0,0,0-3.68,3.68v22.07a3.68,3.68,0,0,0,3.68,3.68h18a3.68,3.68,0,0,0,3.68-3.68V256.4A3.68,3.68,0,0,0,507.35,252.72Zm.73,25.75a.73.73,0,0,1-.73.73h-18a.72.72,0,0,1-.73-.73V256.4a.73.73,0,0,1,.73-.74h18a.74.74,0,0,1,.73.74Z"/><path class="cls-7" d="M496.58,261.46a1.67,1.67,0,1,1-1.67-1.66A1.66,1.66,0,0,1,496.58,261.46Z"/><path class="cls-7" d="M495.67,275.16a.76.76,0,0,1-.76-.75v-3.09c0-.42.11-.33-.22-.33s-.23-.09-.23.33v3.09a.76.76,0,0,1-.76.75h-.24a.76.76,0,0,1-.75-.75v-3.1a.25.25,0,0,1,0-.12,1.59,1.59,0,0,1-.8-1.27l.16-4.85c.15-.93.68-1.5,1.5-1.5h2.26a1.46,1.46,0,0,1,1.5,1.5l.18,4.85a1.73,1.73,0,0,1-.88,1.27s0,.08,0,.12v3.1a.76.76,0,0,1-.76.75Z"/><path class="cls-7" d="M503.27,261.46a1.67,1.67,0,1,1-1.67-1.66A1.67,1.67,0,0,1,503.27,261.46Z"/><path class="cls-7" d="M502.36,275.16a.75.75,0,0,1-.75-.75v-3.09c0-.42.1-.33-.22-.33s-.25-.09-.25.33v3.09a.75.75,0,0,1-.75.75h-.24a.76.76,0,0,1-.75-.75v-3.1s0-.08,0-.12a1.64,1.64,0,0,1-.8-1.27l.18-4.85c.15-.93.67-1.5,1.5-1.5h2.25a1.46,1.46,0,0,1,1.5,1.5l.18,4.85a1.73,1.73,0,0,1-.88,1.27s0,.08,0,.12v3.1a.76.76,0,0,1-.75.75Z"/><path d="M494.12,249.94a.84.84,0,0,0,.35.07h0a.89.89,0,0,0,.31-.06,1.06,1.06,0,0,0,.31-.21l2.28-2.28a.93.93,0,0,0,0-1.31.94.94,0,0,0-1.32,0l-.69.7v-8.42a.93.93,0,0,0-1.59-.65.9.9,0,0,0-.27.65v8.42l-.74-.75a.93.93,0,1,0-1.32,1.32l2.33,2.33A.79.79,0,0,0,494.12,249.94Z"/><path d="M503.87,237.57a.89.89,0,0,0-.36-.07h-.05a.8.8,0,0,0-.3.06,1,1,0,0,0-.31.21l-2.28,2.28a.94.94,0,0,0,0,1.32.93.93,0,0,0,1.31,0l.7-.71v8.41a.93.93,0,0,0,1.59.66,1,1,0,0,0,.27-.66v-8.41l.74.75a.93.93,0,1,0,1.31-1.32l-2.32-2.33A1,1,0,0,0,503.87,237.57Z"/></g><g class="cls-2"><path d="M701.34,134.69H683.4a3.68,3.68,0,0,0-3.68,3.68v22.06a3.68,3.68,0,0,0,3.68,3.68h17.94a3.67,3.67,0,0,0,3.68-3.68V138.37A3.67,3.67,0,0,0,701.34,134.69Zm.74,25.74a.74.74,0,0,1-.74.74H683.4a.74.74,0,0,1-.74-.74V138.37a.74.74,0,0,1,.74-.74h17.94a.74.74,0,0,1,.74.74Z"/><path class="cls-7" d="M690.57,143.43a1.67,1.67,0,1,1-1.66-1.67A1.66,1.66,0,0,1,690.57,143.43Z"/><path class="cls-7" d="M689.66,157.13a.76.76,0,0,1-.75-.76v-3.08c0-.42.11-.33-.22-.33s-.24-.09-.24.33v3.08a.76.76,0,0,1-.76.76h-.23a.76.76,0,0,1-.75-.76v-3.09a.23.23,0,0,1,0-.12,1.6,1.6,0,0,1-.81-1.27l.17-4.85c.16-.92.67-1.5,1.51-1.5h2.25a1.46,1.46,0,0,1,1.5,1.5l.18,4.85a1.72,1.72,0,0,1-.89,1.27.43.43,0,0,1,0,.12v3.09a.77.77,0,0,1-.76.76Z"/><path class="cls-7" d="M697.27,143.43a1.67,1.67,0,1,1-1.67-1.67A1.67,1.67,0,0,1,697.27,143.43Z"/><path class="cls-7" d="M696.36,157.13a.76.76,0,0,1-.76-.76v-3.08c0-.42.1-.33-.22-.33s-.24-.09-.24.33v3.08a.76.76,0,0,1-.76.76h-.23a.76.76,0,0,1-.75-.76v-3.09a.45.45,0,0,1,0-.12,1.61,1.61,0,0,1-.8-1.27l.17-4.85c.15-.92.67-1.5,1.51-1.5h2.24A1.47,1.47,0,0,1,698,147l.17,4.85a1.71,1.71,0,0,1-.88,1.27.43.43,0,0,1,0,.12v3.09a.76.76,0,0,1-.76.76Z"/><path d="M688.12,131.91a.84.84,0,0,0,.35.07h0a1.07,1.07,0,0,0,.3-.06,1,1,0,0,0,.32-.21l2.27-2.28a.93.93,0,1,0-1.31-1.32l-.7.71v-8.42a.92.92,0,0,0-1.58-.65,1,1,0,0,0-.28.65v8.42l-.74-.75a.94.94,0,0,0-1.32,0,.92.92,0,0,0,0,1.32l2.33,2.33A1.1,1.1,0,0,0,688.12,131.91Z"/><path d="M697.87,119.54a.9.9,0,0,0-.36-.08h0a1.09,1.09,0,0,0-.3.07.74.74,0,0,0-.31.21L694.57,122a.93.93,0,0,0,1.31,1.31l.7-.7v8.41a.93.93,0,0,0,.93.93,1,1,0,0,0,.67-.27.91.91,0,0,0,.26-.66v-8.41l.75.75a.93.93,0,0,0,1.31-1.32l-2.32-2.33A.87.87,0,0,0,697.87,119.54Z"/></g><g class="cls-2"><path d="M331.5,187.12h-6.15a6.6,6.6,0,0,1,0-13.2h1l16.89-16.85a1.22,1.22,0,0,1,.84-.34h7a6.62,6.62,0,0,1,0,13.23h-1.93l-16.88,16.81A1.19,1.19,0,0,1,331.5,187.12Zm-6.15-10.83a4.23,4.23,0,1,0,0,8.45H331l16.87-16.82a1.21,1.21,0,0,1,.84-.34h2.43a4.24,4.24,0,0,0,0-8.47h-6.56L327.7,176a1.2,1.2,0,0,1-.84.34Z"/><path d="M353.21,176.5a.85.85,0,0,0-.21-.32h0l0,0a1.07,1.07,0,0,0-.28-.19,1.14,1.14,0,0,0-.4-.08h-3.49a1,1,0,1,0,0,2h1.07l-6.44,6.44a1,1,0,0,0,.71,1.73,1,1,0,0,0,.71-.29l6.44-6.45v1.14a1,1,0,1,0,2,0v-3.57A.78.78,0,0,0,353.21,176.5Z"/><path d="M343.2,185.44a1.21,1.21,0,0,0,.22.32h0l0,0a1,1,0,0,0,.28.18,1,1,0,0,0,.4.09h3.49a1,1,0,0,0,0-2h-1.07L353,177.6a1,1,0,0,0,0-1.42,1,1,0,0,0-1.43,0l-6.44,6.43v-1.14a1,1,0,0,0-2,0v3.58A1.07,1.07,0,0,0,343.2,185.44Z"/></g><g class="cls-2"><path d="M349,352.56H342.8a6.6,6.6,0,0,1,0-13.2h1l16.9-16.84a1.17,1.17,0,0,1,.84-.35h7a6.62,6.62,0,0,1,0,13.23h-1.93L349.8,352.21A1.19,1.19,0,0,1,349,352.56Zm-6.16-10.83a4.23,4.23,0,0,0,0,8.45h5.67l16.87-16.81a1.15,1.15,0,0,1,.84-.35h2.42a4.24,4.24,0,0,0,0-8.47h-6.55l-16.89,16.84a1.22,1.22,0,0,1-.85.34Z"/><path d="M370.67,341.94a.85.85,0,0,0-.21-.32h0l0,0a1.26,1.26,0,0,0-.28-.19,1.19,1.19,0,0,0-.4-.08h-3.49a1,1,0,1,0,0,2h1.07l-6.44,6.45a1,1,0,0,0,.7,1.72,1,1,0,0,0,.72-.29l6.44-6.45v1.14a1,1,0,1,0,2,0v-3.57A.91.91,0,0,0,370.67,341.94Z"/><path d="M360.65,350.88a1,1,0,0,0,.23.32h0s0,0,0,0a1.07,1.07,0,0,0,.28.19,1.1,1.1,0,0,0,.4.08h3.49a1,1,0,0,0,0-2H364l6.44-6.45a1,1,0,0,0,0-1.42,1,1,0,0,0-1.43,0l-6.44,6.44v-1.14a1,1,0,1,0-2,0v3.57A1.07,1.07,0,0,0,360.65,350.88Z"/></g><g class="cls-2"><path d="M616.25,556.6H610.1a6.6,6.6,0,1,1,0-13.2h1L628,526.55a1.24,1.24,0,0,1,.84-.34h7a6.62,6.62,0,0,1,0,13.23H634l-16.88,16.81A1.17,1.17,0,0,1,616.25,556.6Zm-6.15-10.83a4.23,4.23,0,0,0,0,8.45h5.66l16.87-16.81a1.18,1.18,0,0,1,.84-.35h2.43a4.24,4.24,0,0,0,0-8.47h-6.56l-16.89,16.84a1.2,1.2,0,0,1-.84.34Z"/><path d="M638,546a.87.87,0,0,0-.22-.32h0l0,0a1.07,1.07,0,0,0-.28-.19,1.1,1.1,0,0,0-.4-.08h-3.49a1,1,0,1,0,0,2h1.07l-6.44,6.45a1,1,0,0,0,0,1.43,1,1,0,0,0,1.43,0L636,548.8v1.14a1,1,0,0,0,2,0v-3.57A.91.91,0,0,0,638,546Z"/><path d="M628,554.92a1.21,1.21,0,0,0,.22.32h0l0,0a1.26,1.26,0,0,0,.28.19,1.19,1.19,0,0,0,.41.08h3.48a1,1,0,0,0,0-2h-1.07l6.44-6.44a1,1,0,0,0,0-1.42,1,1,0,0,0-1.42,0l-6.44,6.44V551a1,1,0,1,0-2,0v3.57A1.07,1.07,0,0,0,628,554.92Z"/></g><g class="cls-2"><path d="M649,414.16h-6.15a6.6,6.6,0,0,1,0-13.2h1l16.89-16.84a1.19,1.19,0,0,1,.84-.35h7a6.62,6.62,0,0,1,0,13.23h-1.93l-16.86,16.82A1.22,1.22,0,0,1,649,414.16Zm-6.15-10.82a4.22,4.22,0,1,0,0,8.44h5.66L665.34,395a1.23,1.23,0,0,1,.85-.35h2.42a4.24,4.24,0,0,0,0-8.47h-6.55L645.17,403a1.24,1.24,0,0,1-.84.34Z"/><path d="M670.69,403.54a1,1,0,0,0-.22-.32h0l0,0a1.38,1.38,0,0,0-.28-.19,1.12,1.12,0,0,0-.4-.07h-3.49a1,1,0,1,0,0,2h1.07l-6.44,6.44a1,1,0,0,0,1.42,1.43l6.45-6.45v1.15a1,1,0,0,0,2,0v-3.58A1.07,1.07,0,0,0,670.69,403.54Z"/><path d="M660.67,412.49a1.08,1.08,0,0,0,.22.32h0l0,0a1.26,1.26,0,0,0,.28.19,1.14,1.14,0,0,0,.4.08h3.49a1,1,0,1,0,0-2H664l6.44-6.45a1,1,0,0,0-.71-1.71,1,1,0,0,0-.71.29l-6.45,6.44v-1.14a1,1,0,0,0-1-1,1,1,0,0,0-1,1v3.57A1.16,1.16,0,0,0,660.67,412.49Z"/></g><path class="cls-8" d="M667.25,95.61a3.18,3.18,0,1,1-3.17-3.18A3.17,3.17,0,0,1,667.25,95.61Z"/><path class="cls-8" d="M665.52,120.3a1.44,1.44,0,0,1-1.44-1.43v-4.48c0-.79.2-.62-.42-.62s-.46-.17-.46.62v4.48a1.44,1.44,0,0,1-1.44,1.43h-.44a1.44,1.44,0,0,1-1.44-1.43v-4.49a1.94,1.94,0,0,1,0-.24,3.17,3.17,0,0,1-1.61-2.41l.41-9.24c.29-1.77,1.28-2.87,2.87-2.87h4.29c1.59,0,2.65,1,2.87,2.87l.33,9.24a3.25,3.25,0,0,1-1.68,2.41,1.94,1.94,0,0,1,0,.24v4.49A1.44,1.44,0,0,1,666,120.3Z"/><path class="cls-8" d="M674.24,55.29c0-.69.29-1.25.64-1.25h0c.36,0,.65.56.65,1.25V85c0,.69-.29,1.25-.65,1.25h0c-.35,0-.64-.56-.64-1.25Z"/><path class="cls-8" d="M668,78.62v4a1.44,1.44,0,0,1-1.43,1.44h-.45a1.44,1.44,0,0,1-1.43-1.44v-4h-1.13v4a1.44,1.44,0,0,1-1.43,1.44h-.45a1.44,1.44,0,0,1-1.43-1.44v-4a2.87,2.87,0,0,1-1.93-4.07l1.31-7.94c.43-2.17,1.67-3.23,3.74-3.23h1.26c2.06,0,2.92.85,3.74,3.23l1.62,7.94A2.93,2.93,0,0,1,668,78.62Z"/><path class="cls-8" d="M666.84,59.38a3.18,3.18,0,1,1-3.18-3.17A3.18,3.18,0,0,1,666.84,59.38Z"/><path class="cls-9" d="M691.33,57.41a2.61,2.61,0,1,1-2.61-2.61A2.61,2.61,0,0,1,691.33,57.41Z"/><path class="cls-9" d="M698.35,78.77a9.48,9.48,0,1,1-12.13-13.35l.18,2.07a7.51,7.51,0,1,0,10.94,8.58Z"/><path class="cls-9" d="M697.15,65.49a1,1,0,1,1,0,2h-4.81l.16,1.36A1.52,1.52,0,0,0,694,70.34h2.37a4.6,4.6,0,0,1,4.19,2.7l2.52,6.39a1.72,1.72,0,0,1,.15.72,1.67,1.67,0,0,1-3.17.74L697.76,75a2.37,2.37,0,0,0-2.12-1.31h-4a4.25,4.25,0,0,1-4.16-3.38l-.74-7.29a2.43,2.43,0,0,1,2.56-2.56,2.69,2.69,0,0,1,2.55,2.56c.21,1.51.32,2.44.32,2.44Z"/></g></g></g></svg>