<svg xmlns="http://www.w3.org/2000/svg" viewBox="0 0 833.69 704.31"><defs><style>.cls-1{isolation:isolate;}.cls-2,.cls-9{fill:#dadcd2;}.cls-3{fill:#fff;}.cls-4,.cls-5{fill:#b5b9a6;}.cls-5,.cls-8,.cls-9{stroke:#fff;}.cls-10,.cls-5,.cls-8,.cls-9{stroke-linecap:square;stroke-linejoin:bevel;stroke-width:2.02px;}.cls-6{fill:#cb9b63;}.cls-7{mix-blend-mode:multiply;}.cls-10,.cls-8{fill:none;}.cls-10{stroke:#dadcd2;}.cls-11{fill-rule:evenodd;}</style></defs><title>Ресурс 6</title><g class="cls-1"><g id="Шар_2" data-name="Шар 2"><g id="Layer_1" data-name="Layer 1"><path class="cls-2" d="M463.79,475.52l-1-1V430l1-1h100V387.74l.31-.72L609.5,343.2l.7-.28h7.16V312.25H499l-29.43,29.43-.72.3H346.77l-1-1V252.52l-54.49-55.69-.38-.39H225.72v4.38l-1,1H148.2l-1-1V153.87l1-1H324.55v-1.43l1-1H645.88v-1.25l1-1h13.77V126.05l1-1h11l1,1v7l-.53.52v41.73l-1,1h-4V426.1l3.19,3.18,4.88,5.06,0,1.42-10.78,10.6L654,457.66H652.6l-10.42-10.58-28.49,28.16-.71.29ZM388.54,258.58v-1.94l1-1h8.52l1,1v.55h46V257l1-1h28.2v-1.25l1-1h6.47V197.13H386.9v61.45Z"/><path class="cls-3" d="M672.62,126.05v7h-.53v42.25h-5V426.51l3.48,3.48,4.87,5.05-10.79,10.6L653.32,457l-11.13-11.31L613,474.51H463.79V430h101V387.74l45.38-43.82h8.17V311.24H498.57L468.83,341H346.77V252.11l-54.78-56-.68-.69h-66.6v5.39H148.2V153.87H325.56v-2.44H646.89v-2.25h14.78V126.05h11M385.9,259.59h3.64v-2.95h8.52v1.56h48V257h29.21v-2.25h7.47V196.12H385.9v63.47M672.62,124h-11l-2,2v21.11H646.89l-2,2v.24H325.56l-2,2v.42H148.2l-2,2v46.95l2,2h76.51l2-2v-3.37h63.75l.09.09,54.19,55.4v88l2,2H468.83l1.43-.59,29.14-29.14h117v28.66H610.2l-1.4.56-45.38,43.82-.62,1.45V428h-99l-2,2v44.52l2,2H613l1.42-.58,27.77-27.44,9.72,9.86h2.86l11.3-11.3,10.77-10.59,0-2.84L672,428.59l-2.92-2.91V177.27h3l2-2V133.53l.53-.52v-7l-2-2ZM387.91,198.14h92.82v54.57h-5.46l-2,2V255H446.06l-1.22,1.21H399.63l-1.57-1.56h-8.52l-1.63,1.63V198.14Z"/><polygon class="cls-2" points="56.74 387.36 55.75 386.57 51.23 366.05 50.9 364.9 50.86 364.62 50.86 364.09 51.64 363.11 55.87 362.12 51.23 342.42 47.06 325.38 47.81 324.17 75.98 317.56 77.36 317.21 77.61 317.18 98.64 317.18 124.93 317.52 124.93 309.11 110.81 309.11 109.83 308.34 95.63 247.93 83.04 250.83 81.83 250.07 81.14 246.94 59.58 153.93 54.36 131.32 55.17 130.1 118.21 118.8 115.03 93.83 115.95 92.7 148.12 90.1 149.21 91.1 149.21 153.7 148.2 154.71 147.12 154.71 147.12 342.19 146.82 342.9 125.95 363.59 124.81 364.73 124.52 365.17 123.68 365.63 117.21 365.63 117.21 365.83 116.2 366.84 79.31 366.84 79.31 386.35 78.3 387.36 56.74 387.36"/><path class="cls-3" d="M148.2,91.1v62.6h-2.09V342.18l-20.87,20.7L124,364.09l-.35.53H116.2v1.21H78.3v20.52H56.74l-4.52-20.52-.35-1.21v-.53l5.22-1.21-4.87-20.7-4.18-17,28.17-6.61,1.39-.35h21l27.3.35V308.11H110.82L96.38,246.73l-13.56,3.12-.7-3.12-21.56-93-5.22-22.61,64-11.47L116,93.71,148.2,91.1m-.16-2L115.87,91.7,114,94l3.06,24L55,129.11l-1.61,2.43,5.22,22.61,21.56,93,.69,3.11,2.42,1.53,11.61-2.68,14,59.43,2,1.55h13.11v6.38l-25.26-.33H77.6l-.49.06-1.39.36-28.14,6.59-1.49,2.44,4.17,17,4.4,18.71-3.25.76-1.56,2v.53l.08.56.33,1.15,4.51,20.45,2,1.58H78.3l2-2v-18.5H116.2l1.22-1.22h6.26l1.68-.9.24-.36,1.07-1.07,20.86-20.68.6-1.44V155.71h.07l2-2V91.1l-2.17-2Z"/><polygon class="cls-4" points="671.75 537.41 670.75 536.41 670.75 533.42 668.45 533.42 667.44 532.41 667.44 482.68 668.45 481.67 670.75 481.67 670.75 477.95 667.23 477.95 666.23 476.94 666.23 471.11 653.83 458.88 653.83 457.44 663.4 448.05 664.82 448.06 698.72 481.97 710.38 493.79 710.67 494.5 710.67 536.41 709.66 537.41 671.75 537.41"/><path class="cls-3" d="M664.1,448.77l9.39,9.39L686,470.68l6.26,6.26,5.74,5.74,11.65,11.82v41.91H671.75v-4h-3.3V482.68h3.3v-5.74h-4.52v-6.26l-12.69-12.52,9.56-9.39m-1.41-1.44-9.56,9.39v2.87l12.1,11.94v5.41l2,2h2.51v1.71h-1.29l-2,2v49.73l2,2h1.29v2l2,2h37.91l2-2V494.5l-.58-1.41-11.66-11.82-5.74-5.75-6.26-6.26-12.53-12.53-9.38-9.38-2.84,0Z"/><polygon class="cls-4" points="672.1 176.27 671.09 175.26 671.09 133.01 671.61 132.48 671.61 127.06 662.68 127.06 662.68 149.18 661.67 150.19 647.93 150.19 646.92 149.18 646.92 91.41 422.55 91.41 422.55 107.1 421.54 108.11 339.61 108.11 339.61 145.52 338.6 146.53 337.17 146.53 337.17 151.44 336.16 152.44 325.56 152.44 324.55 151.44 324.55 146.53 323.64 146.53 322.63 145.52 322.63 105.15 149.94 105.84 148.2 105.84 147.19 104.84 147.19 91.1 148.12 90.1 156.99 89.4 177.85 87.66 207.93 85.06 227.6 83.83 246.52 82.1 258.86 80.88 267.36 79.84 276.06 78.8 295.18 76.54 312.04 74.45 331.85 71.67 349.07 69.41 367.51 66.98 385.75 64.37 438.63 57.76 463.15 54.8 487.66 51.67 536.65 43.16 585.85 34.47 631.21 25.26 669.73 16.41 713.32 0.95 714.67 1.9 714.67 44.15 714.5 52.69 714.5 133.01 714.32 175.26 713.31 176.27 672.1 176.27"/><path class="cls-3" d="M713.66,1.9V44.15l-.17,8.52V133l-.18,42.25H672.09V133h.53v-7h-11v23.13H647.93V90.4H421.54v16.7H338.6v38.42h-2.44v5.91h-10.6v-5.91h-1.92V104.14l-173.7.7H148.2V91.1l8.87-.7,20.86-1.73L208,86.06l19.65-1.22,19-1.74L259,81.89l8.52-1,8.7-1,19.12-2.26,16.87-2.09L332,72.67l17.21-2.26L367.64,68l18.26-2.6,26.42-3.31,26.43-3.3,24.52-3,24.51-3.13,49-8.52L586,35.46l45.38-9.22L670,17.37,713.66,1.9M713,0,669.45,15.44,631,24.27l-45.34,9.21-49.18,8.69-49,8.51L463,53.8l-24.5,3-26.44,3.3-26.42,3.31L367.35,66l-18.41,2.43-17.21,2.26-19.84,2.79-16.84,2.08-19.11,2.25-8.7,1-8.53,1L246.42,81.1l-18.91,1.73-19.62,1.22-30.13,2.61L156.9,88.4l-8.86.69-1.86,2v13.74l2,2h1.74l171.69-.68v39.35l1.91,1.92v4l2,2h10.6l2-2v-3.89h.42l2-2V109.11h80.93l2-2V92.42H645.91v56.76l2,2h13.74l2-2V128.06h6.91v4.42l-.52.53v42.25l2,2h41.22l2-2L715.5,133V52.67l.18-8.48V1.9L713,0Z"/><polygon class="cls-4" points="724.96 394.14 723.96 393.13 723.96 385.62 668.45 385.62 667.44 384.61 667.44 374.87 668.45 373.86 671.96 373.86 671.96 369.48 672.97 368.47 712.83 368.47 712.83 367.05 713.83 366.04 724.79 366.04 724.97 365.87 802.86 365.87 803.87 366.88 803.87 389.31 803.55 390.04 799.56 393.86 799.4 394.02 798.68 394.31 724.96 394.14"/><path class="cls-3" d="M802.86,366.88v22.43l-4,3.82-.17.18L725,393.13v-8.52H668.45v-9.74H673v-5.39h40.86v-2.43H725v-.17h77.9m0-2H725l-.17.18h-11l-2,2v.42H673l-2,2v3.37h-2.5l-2,2v9.74l2,2H723v6.51l2,2,73.72.17,1.43-.59.18-.17,4-3.8.62-1.45V366.88l-2-2Z"/><path class="cls-5" d="M492.83,532.58H475.61v-9.91h2.26V474.51H462.22v46.25H386.41l-1.91,1.91-9.73,9.91-5.39,5.57-26.78,27.3-26.78-27.3-5.57-5.74-23.12-23.48-.69-.69-.52-.52V490.33h.34V476.42h-2.95v-1l.17-54.43.17-49.55H284V312.1h2.08V242.38h4.52V195.43H224.71v11.3h2.43V318h.52V421h-.17v54.43h-4.35v11.47L219.32,483l-.7-.7-5.92-6.25L185.41,447.9,180,442.17H147.15v5.73l28.17,28.18h.7v5.56h-3v1.56H156.72v29.21h16.34V522.5h-5.39l-7.82,8-.7.69.87,1,32.52,34.25,14.26,15.13,15.12-15.13-34.08-34.25-.87-1-.69-.69,7.65-8,9.91-10.09,3.31-3.46,23.47,23.46h61.2l5.74,5.74,26.6,27.3,19,19.12H345v1.22l1.05-1.22,19.12-19.12,27.13-27.3v55.46h28V553.45h56.16v40.16h28.87V548.93H492.83Z"/><polygon class="cls-6" points="149.91 523.21 140 513.12 111.31 483.91 109.75 482.35 104.35 476.78 80.01 451.92 79.72 451.21 79.72 447.9 80.07 371.39 80.07 367.74 81.08 366.74 119.68 366.74 120.69 367.74 120.69 370.39 124.41 370.39 124.41 365.83 124.71 365.12 146.44 343.39 148.16 344.1 148.16 447.48 151.17 450.5 176.04 475.36 175.32 477.08 172.51 477.08 172.51 480.63 173.06 480.63 174.07 481.64 174.07 483.2 173.06 484.21 157.72 484.21 157.72 511.41 173.06 511.41 174.07 512.41 174.07 522.5 173.06 523.51 168.1 523.51 159.88 531.9 158.44 531.9 149.91 523.21"/><path class="cls-3" d="M147.15,344.1V447.9l3.31,3.31,24.86,24.87H171.5v5.56h1.56v1.56H156.72v29.21h16.34V522.5h-5.39l-8.51,8.69-8.53-8.69-9.91-10.09L112,483.2l-1.56-1.56-5.4-5.56L80.73,451.21V447.9l.35-76.5v-3.66h38.6v3.66h5.74v-5.57l21.73-21.73m-1.42-1.43L124,364.41l-.59,1.42v3.55h-1.7v-1.64l-2-2H81.08l-2,2v3.66l-.34,76.49v3.32l.57,1.41,24.34,24.87L109,483l1.58,1.58,28.68,29.21,9.91,10.08,8.53,8.69h2.87l7.93-8.09h4.54l2-2V512.41l-2-2H158.73V485.22h14.33l2-2v-1.56l-1.55-1.56v-2h1.8l1.43-3.44-24.87-24.86-2.71-2.72v-103l-3.44-1.43Z"/><polygon class="cls-6" points="51.23 318.76 48.45 306.59 36.97 256.69 36.12 253.6 7.07 126.97 4.46 115.32 0.98 100.02 1.8 98.8 108.91 81.41 110.08 82.28 112.33 99.67 114.25 114.97 113.43 116.09 49.96 127.55 78.93 253.1 79.41 255.25 92.16 252.35 93.36 253.11 94.06 256.24 105.88 306.13 105.13 307.35 52.44 319.52 51.23 318.76"/><path class="cls-3" d="M109.08,82.41l2.25,17.39,1.92,15.3L48.74,126.75,78,253.33l.69,3.13,13.74-3.13.7,3.13,11.82,49.91L52.22,318.54l-2.79-12.17L38,256.46l-.87-3.13-29-126.58L5.44,115.1,2,99.8,109.08,82.41m-.33-2L1.64,97.81,0,100.24l3.47,15.3,2.61,11.65L35.13,253.78l0,.09L36,257l11.47,49.86L50.25,319l2.42,1.51,52.68-12.17,1.51-2.43L95,256l-.69-3.11-2.42-1.53-11.76,2.69-.25-1.16L51.18,128.35l62.43-11.27,1.64-2.23-1.92-15.31-2.26-17.39-2.32-1.73Z"/><polygon class="cls-6" points="341.9 261.47 340.89 260.46 340.89 257.3 337 257.3 337 258.2 335.99 259.21 288.18 259.21 287.17 258.2 287.17 257.99 286.08 257.99 285.08 256.98 285.08 242.38 286.08 241.37 289.59 241.37 289.59 195.78 291.32 195.07 337.06 241.67 346.8 251.58 347.08 252.29 347.08 260.46 346.08 261.47 341.9 261.47"/><path class="cls-3" d="M290.6,195.78l45.74,46.6,9.74,9.91v8.17H341.9v-4.17H336v1.91H288.18V257h-2.1v-14.6h4.52v-46.6m1.44-1.42-3.45,1.42v44.58h-2.51l-2,2V257l2,2H287l1.22,1.21H336l1.91-1.9h2v2.15l2,2h4.18l2-2v-8.17l-.58-1.42-9.74-9.9L292,194.36Z"/><polygon class="cls-6" points="286.08 288.08 285.08 287.07 285.08 260.98 286.08 259.98 287.17 259.98 287.17 259.77 288.18 258.76 335.99 258.76 337 259.77 337 261.19 346.08 261.19 347.08 262.2 347.08 287.07 346.08 288.08 286.08 288.08"/><path class="cls-3" d="M336,259.77v2.43h10.09v24.87h-60V261h2.1v-1.21H336m0-2H288.18L287,259h-.88l-2,2v26.09l2,2h60l2-2V262.2l-2-2H338v-.41l-2-2Z"/><polygon class="cls-6" points="284 341.98 282.99 340.97 282.99 315.75 284 314.75 287.51 314.75 287.51 313.11 286.08 313.11 285.08 312.1 285.08 288.8 286.08 287.79 346.08 287.79 347.08 288.8 347.08 340.97 346.08 341.98 284 341.98"/><path class="cls-3" d="M346.08,288.8V341H284V315.75h4.52V312.1h-2.44V288.8h60m0-2h-60l-2,2v23.3l1.64,1.64H284l-2,2V341l2,2h62.08l2-2V288.8l-2-2Z"/><polygon class="cls-6" points="385.9 260.6 384.89 259.59 384.89 196.12 385.9 195.12 482.74 195.12 483.75 196.12 483.75 254.73 482.74 255.73 476.27 255.73 476.27 256.98 475.27 257.99 447.06 257.99 447.06 258.2 446.06 259.21 398.06 259.21 397.06 258.2 397.06 257.64 390.55 257.64 390.55 259.59 389.54 260.6 385.9 260.6"/><path class="cls-3" d="M482.74,196.12v58.61h-7.47V257H446.06v1.22h-48v-1.56h-8.52v2.95H385.9V196.12h96.84m0-2H385.9l-2,2v63.47l2,2h3.64l2-2v-.94h4.94l1.56,1.56h48l1.21-1.21h28l2-2v-.24h5.46l2-2V196.12l-2-2Z"/><path class="cls-6" d="M324.34,703.3l-.72-.3L217.72,594.32l-1.93-2.11-4-4.16-5.71-5.72V580.9l14.41-14.42-28.16-28.32-5-5-1.77-2,0-1.38,20.86-21.56h1.44L231,531.4h49.49l1,1v4h3.72v-4l1-1h5.56l.73.31,4.87,5,28.68,29,14.78,15.13,2.95,3-.71,1.72h-3.34v1.78l-1,1h-3.86v2.16H344v-4.73l.3-.71,47.29-47.64,1.73.71V592.6h26V553.45l1-1h56.16l1,1V592.6h26.85v-59H504l-1-1V484.25l1-1h2v-8.73l1-1H555.6l.26.26.26-.26h56.17l.83.83,3.84-3.84,24.18-23.83h1.41l24,23.82.3.71v10.47h.21l1,1v54.81h3l.7-.7h37.91l.72,1.72-55.82,55.82L545.71,703l-.71.29ZM558.76,482.19v-.38l1-1h3v-2.15h-3l-1-1v-.56h-2.64l-.26-.26-.26.26h-2.12v5.11Zm58.08-.52V478H613l0,0v3.76Z"/><path class="cls-3" d="M641.84,447.38l24,23.82v11.48h1.22V538.5h4.69v-.7h37.91l-.7.7-55.11,55.11L545,702.29H324.34L218.45,593.61l-1.92-2.08-4-4.17-2.78-2.79-2.95-3,15.12-15.13-28.86-29-5.05-5-1.73-1.91,20.86-21.57L228.7,530.5l1.92,1.91h49.9v5h5.74v-5h5.56l4.87,5,28.69,29,14.78,15.13,3,3h-4.35v2.79H333.9v4.17H345v-5.74l47-47.29.35-.35v55.46h28V553.45h56.16v40.16h28.87v-61H504V484.25h3v-9.74H555.6v1.57h-3.13v7.12h7.3v-1.39h4v-4.17h-4v-1.56h-3.65v-1.57h56.17v2.43h-.36v5.74h5.92v-5.74H613v-1l4.69-4.7,24.17-23.82m67.82,90.42h0M640.43,446l-24.18,23.82-3.34,3.35-.62-.63H556.12l-.26.26-.26-.26H506.91l-2,2v7.72H504l-2,2v48.33l1.39,1.4V591.6H478.5V553.45l-2-2H420.32l-2,2V591.6h-24V538.15l-3.45-1.42-.34.35-46.2,46.54.19-.47-3-3-14.77-15.11-28.69-29-4.86-5-1.45-.61h-5.56l-2,2v3h-1.7v-3l-2-2H231.45l-1.32-1.33-21.56-21.56-2.87,0-20.87,21.56,0,2.76,1.73,1.91.07.08,5,5,27.45,27.6-13.71,13.71V583l2.95,3,2.79,2.78,4,4.15L217,595l0,0L322.9,703.7l1.44.61H545l1.42-.59L655.27,595l55.12-55.12.7-.7-1.42-3.43H671.75l-.7.7h-2v-53.8l-1.21-1.22V471.2l-.6-1.43-24-23.82Zm-85.95,32.14h1.12l.26-.26.26.26h2.09l1.56,1.56h2v.14h-2l-1.39,1.39h-3.9v-3.09ZM614,479h1.88v1.71H614V479ZM340.78,586.59H343v2.93h-7.1v-.15h2.85l2-2v-.77Z"/><polygon class="cls-6" points="492.83 549.94 491.82 548.93 491.82 533.59 475.61 533.59 474.61 532.58 474.61 522.67 475.61 521.66 476.87 521.66 476.87 475.2 477.87 474.19 499.27 474.19 500.27 475.2 500.27 483.24 502.57 483.24 503.58 484.25 503.58 532.58 502.71 533.45 502.71 540.44 503.26 540.44 504.27 541.45 504.27 548.93 503.26 549.94 492.83 549.94"/><path class="cls-3" d="M499.27,475.2v9.05h3.3v48.33h-.87v8.87h1.56v7.48H492.83V532.58H475.61v-9.91h2.26V475.2h21.4m0-2h-21.4l-2,2v45.46h-.25l-2,2v9.91l2,2h15.21v14.33l2,2h10.43l2-2v-7.48l-1.57-1.56v-6.44l.87-.87V484.25l-2-2h-1.29v-7l-2-2Z"/><polygon class="cls-6" points="341.88 566.15 298.06 521.46 285.2 508.43 284.91 507.72 284.91 490.33 285.6 489.64 285.6 489.64 285.25 489.29 285.25 477.43 283.31 477.43 282.3 476.42 282.3 427.04 283.31 426.03 285.43 426.03 285.43 421.96 283.65 421.96 282.64 420.95 282.64 371.4 283.65 370.39 285.77 370.39 285.77 365.63 284 365.63 282.99 364.62 282.99 342.71 284 341.7 467.09 341.7 467.8 343.42 445.33 365.73 445.33 428.99 463.09 428.99 464.1 429.99 464.1 474.51 463.23 475.37 463.23 520.76 462.23 521.77 386.84 521.77 343.32 566.15 341.88 566.15"/><path class="cls-3" d="M467.09,342.71,445,364.62l-.69.69V430h18.77v44.52h-.87v46.25H386.41L342.6,565.45l-43.82-44.69-12.86-13V490.33h.69v-1h-.35V476.42h-2.95V427h3.13V421h-2.79V371.4h3.13v-6.78H284V342.71H467.09m0-2H284l-2,2v21.91l2,2h.77v2.75h-1.12l-2,2V421l2,2h.77v2h-1.11l-2,2v49.38l2,2h.93v10.86l.35.35h0l-.69.69v17.39l.58,1.41,12.87,13,43.81,44.69H344l43.22-44.09h75l2-2V475.37l.87-.86V430l-2-2H446.33V366.15l.11-.11,22.07-21.9-1.42-3.45Zm0,4h0Z"/><polygon class="cls-6" points="507.61 429.61 506.6 428.6 506.6 419.87 500.97 419.87 500.97 428.6 499.96 429.61 452.49 429.61 451.48 428.6 451.48 419.53 444.84 419.53 443.83 418.52 443.83 375.92 444.84 374.91 452 374.91 452 369.79 451.1 369.79 450.09 368.79 450.09 366.14 447.76 366.14 447.76 368.79 446.75 369.79 444.84 369.79 443.83 368.79 443.83 365.66 444.23 364.85 444.87 364.37 470.56 338.69 493.16 316.25 498.2 311.22 498.91 310.92 502.57 310.92 503.58 311.93 503.58 316.11 504.44 316.97 504.44 338.39 507.13 338.39 507.13 311.93 508.13 310.92 556.12 310.92 557.13 311.93 557.13 316.14 560.68 316.14 560.68 311.93 561.68 310.92 612.63 310.92 613.64 311.93 613.64 316.31 617.67 316.31 618.68 317.32 618.68 340.27 617.67 341.28 558.87 341.28 558.87 342.92 609.15 342.92 609.86 344.65 587.95 365.86 576.64 376.64 565.13 387.82 565.13 422.17 564.13 423.17 559.08 423.17 558.07 422.17 558.07 421.09 552.44 421.09 552.44 428.6 551.43 429.61 507.61 429.61"/><path class="cls-3" d="M612.63,311.93v5.39h5v22.95H557.86v3.65h51.29l-21.91,21.21-3.82,3.66-7.48,7.13-11.81,11.47v34.78h-5v-2.09h-7.65v8.52H507.61v-9.73H500v9.73H452.49V418.52h-7.65v-42.6H453v-7.13H451.1v-3.66h-4.35v3.66h-1.91v-3.13l.69-.53,21.22-21.21,3.64-3.65.88-.87L493.87,317l5-5h3.66v5h.86V339.4h4.7V311.93h48v5.21h5.56v-5.21h51m0-2h-51l-2,2v3.2h-1.53v-3.2l-2-2h-48l-2,2v25.46h-.67V317l-.87-.86v-4.18l-2-2h-3.66l-1.42.59-5,5L469.85,338l-.88.87-3.65,3.66-21.11,21.11-.58.44-.81,1.61v3.13l2,2h1.91l2-2v-1.64h.31v1.64L451,370.7v3.2h-6.16l-2,2v42.6l2,2h5.63v8.07l2,2H500l2-2v-7.72h3.61v7.72l2,2h43.82l2-2v-6.51h3.62v.08l2,2h5l2-2V388.25l11.21-10.89,7.46-7.12,3.83-3.65,21.92-21.22-1.25-3.08h8.36l2-2V317.32l-2-2h-3v-3.37l-2-2Z"/><polygon class="cls-6" points="664.61 448.26 664.61 446.84 676.42 435.03 669.64 428.09 670.36 426.38 671.44 426.38 671.44 422.31 667.75 422.31 666.74 421.3 666.74 384.61 667.75 383.6 724.97 383.6 725.97 384.61 725.97 392.3 798.28 392.3 801.85 388.88 801.85 370.53 802.86 369.52 832.25 369.52 832.97 371.23 814.53 390.01 810.53 394.02 782.71 422.01 776.8 428.09 769.32 435.75 756.98 448.26 711.59 494 710.16 494 664.61 448.26"/><path class="cls-3" d="M832.25,370.53h0m0,0-18.44,18.78-4,4L782,421.3l-5.91,6.08L768.6,435l-12.34,12.51-45.39,45.74-45.55-45.74L677.84,435l-7.48-7.66h2.09V421.3h-4.7V384.61H725v8.7h73.73l4.17-4V370.53h29.39m0-2H802.86l-2,2v17.92l-3,2.84H727v-6.68l-2-2H667.75l-2,2V421.3l2,2h2.69v2.06h-.08l-1.44,3.42L675,435l-11.1,11.11V449l45.56,45.74h2.85L757.69,449,770,436.46l7.48-7.67,5.92-6.09,27.81-28,4-4,18.45-18.79-1.44-3.42Zm0,4Z"/><polygon class="cls-6" points="672.97 368.75 671.96 367.74 671.96 366.14 668.1 366.14 667.1 365.13 667.1 342.71 668.1 341.7 710.88 341.7 711.88 342.71 711.88 367.05 710.88 368.06 710.18 368.06 709.48 368.75 672.97 368.75"/><path class="cls-3" d="M710.87,342.71v24.34h-1.39v.69H673v-2.61H668.1V342.71h42.77m0-2H668.1l-2,2v22.42l2,2H671v.59l2,2h36.51l.7-.69h.69l2-2V342.71l-2-2Z"/><polygon class="cls-6" points="668.1 342.32 667.1 341.32 667.1 317.49 668.1 316.48 671.79 316.48 671.79 312.76 668.1 312.76 667.1 311.75 667.1 262.55 668.1 261.54 672.83 261.54 672.83 257.64 668.1 257.64 667.1 256.63 667.1 232.64 668.1 231.63 710.88 231.63 711.88 232.64 711.88 257.33 710.88 258.34 709.97 258.34 709.97 260.67 710.88 260.67 711.88 261.68 711.88 312.45 710.88 313.46 710.49 313.46 710.49 315.96 710.88 315.96 711.88 316.97 711.88 341.32 710.88 342.32 668.1 342.32"/><path class="cls-3" d="M710.87,232.64v24.69H709v4.35h1.91v50.77h-1.39V317h1.39v24.35H668.1V317.49h4.69v-5.74H668.1v-49.2h5.74v-5.91H668.1v-24h42.77m0-2H668.1l-2,2v24l2,2h3.73v1.88H668.1l-2,2v49.2l2,2h2.68v1.71H668.1l-2,2v23.83l2,2h42.77l2-2V317l-1.39-1.39v-1.74l1.39-1.39V261.68L711,259.76v-.52l1.91-1.91V232.64l-2-2Z"/><polygon class="cls-6" points="668.1 232.08 667.1 231.07 667.1 206.91 668.1 205.9 672.65 205.9 672.65 202.35 668.1 202.35 667.1 201.34 667.1 175.95 668.1 174.94 671.76 174.94 672.45 174.25 705.14 174.25 706.14 175.26 706.14 177.91 710.88 177.91 711.88 178.91 711.88 202.21 710.88 203.22 710.32 203.22 710.32 205.38 710.88 205.38 711.88 206.38 711.88 231.07 710.88 232.08 668.1 232.08"/><path class="cls-3" d="M705.14,175.26v3.65h5.73v23.3h-1.56v4.17h1.56v24.7H668.1V206.91h5.56v-5.57H668.1V176h4.35v-.69h32.69m0-2H672.45l-.69.7H668.1l-2,2v25.39l2,2h3.55v1.54H668.1l-2,2v24.17l2,2h42.77l2-2v-24.7l-1.56-1.56v-1l1.56-1.57v-23.3l-2-2h-3.72v-1.64l-2-2Z"/><polygon class="cls-6" points="507.44 151.75 506.43 150.74 506.43 144.1 505.69 144.1 504.69 143.09 504.69 98.75 505.69 97.74 507.13 97.74 507.13 91.97 508.13 90.96 556.64 90.96 557.65 91.97 557.65 97.74 559.08 97.74 560.09 98.75 560.09 143.09 559.08 144.1 557.65 144.1 557.65 150.74 556.64 151.75 507.44 151.75"/><path class="cls-3" d="M556.64,92v6.78h2.44v44.34h-2.44v7.65h-49.2v-7.65h-1.75V98.75h2.44V92h48.51m0-2H508.13l-2,2v4.76h-.43l-2,2v44.34l1.74,1.74v5.91l2,2h49.2l2-2v-5.63h.42l2-2V98.75l-2-2h-.42V92l-2-2Z"/><polygon class="cls-6" points="399.28 151.75 398.27 150.74 398.27 146.53 389.68 146.53 389.68 150.74 388.68 151.75 342.25 151.75 341.24 150.74 341.24 146.53 340.34 146.53 339.33 145.52 339.33 108.84 340.34 107.83 421.54 107.83 422.55 108.84 422.55 150.74 421.54 151.75 399.28 151.75"/><path class="cls-3" d="M421.54,108.84v41.9H399.28v-5.22H388.67v5.22H342.25v-5.22h-1.91V108.84h81.2m0-2h-81.2l-2,2v36.68l1.92,1.92v3.3l2,2h46.42l2-2v-3.2h6.57v3.2l2,2h22.26l2-2v-41.9l-2-2Z"/><path class="cls-6" d="M289.56,154l-1-1v-5.6h-7.9V153l-1,1H228l-.78-.78-.78.78h-52l-.78-.78-.78.78H149.94l-1-1V106.23l1-1,172-.7,1,1v44.73h1.95l1,1V153l-1,1Zm-116.67-3.75.78.78.78-.78h1.26v-3.73H172v3.73Zm53.56,0,.78.78.78-.78h1.25v-3.73h-3.72v3.73Z"/><path class="cls-3" d="M321.9,105.53v45.73h3V153h-35.3v-6.61h-9.91V153H228v-1.74h2.26v-5.74h-5.74v5.74h1.92V153h-52v-1.74h2.27v-5.74H171v5.74h1.92V153H149.94V106.23l172-.7m0-2-172,.69-2,2V153l2,2h22.95l.78-.78.78.78h52l.78-.78.78.78h51.64l2-2v-4.59h5.88V153l2,2h35.3l2-2v-1.74l-2-2h-.94V105.53l-2-2Zm-95.34,44h1.7v1.71H228l-.78.78-.68-.68v-1.81Zm-53.56,0h1.71v1.71h-.25l-.78.78-.68-.68v-1.81Z"/><polygon class="cls-6" points="211.29 476.08 179.59 443.17 148.2 443.17 147.19 442.17 147.19 201.51 148.2 200.5 171.15 200.5 172.16 201.51 172.16 205.72 175.71 205.72 175.71 201.51 176.72 200.5 224.71 200.5 225.72 201.51 225.72 205.72 227.14 205.72 228.15 206.73 228.15 255.76 227.14 256.77 225.54 256.77 225.54 260.67 227.14 260.67 228.15 261.68 228.15 309.5 227.14 310.5 226.41 310.5 226.41 317.01 227.66 317.01 228.67 318.01 228.67 366.35 227.66 367.36 225.89 367.36 225.89 370.91 227.66 370.91 228.67 371.92 228.67 420.95 227.66 421.96 225.37 421.96 225.37 425.51 227.49 425.51 228.5 426.51 228.5 475.38 227.49 476.39 224.15 476.39 224.15 486.85 222.42 487.55 211.29 476.08"/><path class="cls-3" d="M224.71,201.51v5.22h2.43v49h-2.61v5.92h2.61V309.5H225.4V318h2.26v48.34h-2.78v5.57h2.78v49h-3.3v5.56h3.13v48.87h-4.35v11.47L212,475.38l-32-33.21H148.2V201.51h23v5.22h5.57v-5.22h48m0-2h-48l-2,2v3.21h-1.54v-3.21l-2-2h-23l-2,2V442.17l2,2h31l31.4,32.6,11.13,11.47,3.47-1.4V477.4h2.33l2-2V426.51l-2-2h-1.11V423h1.28l2-2v-49l-2-2h-.77v-1.53h.77l2-2V318l-2-2h-.24v-4.76l1.74-1.74V261.68l-2-2h-.59v-1.88h.59l2-2v-49l-2-2h-.42v-3.21l-2-2Z"/><polygon class="cls-6" points="455.62 151.75 454.61 150.74 454.61 146.53 444.8 146.53 444.8 150.74 443.8 151.75 423.27 151.75 422.27 150.74 422.27 91.97 423.27 90.96 446.06 90.96 447.06 91.97 447.06 97.74 451.65 97.74 451.65 91.97 452.66 90.96 501.7 90.96 502.71 91.97 502.71 97.74 504.13 97.74 505.13 98.75 505.13 143.09 504.13 144.1 502.36 144.1 502.36 150.74 501.35 151.75 455.62 151.75"/><path class="cls-3" d="M501.7,92v6.78h2.43v44.34h-2.78v7.65H455.62v-5.22H443.8v5.22H423.27V92h22.79v6.78h6.6V92h49m0-2h-49l-2,2v4.76h-2.58V92l-2-2H423.27l-2,2v58.77l2,2H443.8l2-2v-3.2h7.79v3.2l2,2h45.73l2-2v-5.63h.76l2-2V98.75l-2-2h-.42V92l-2-2Z"/><polygon class="cls-6" points="618.72 151.75 617.71 150.74 617.71 144.1 616.46 144.1 615.45 143.09 615.45 98.93 616.46 97.92 618.23 97.92 618.23 91.97 619.24 90.96 646.2 90.96 647.2 91.97 647.2 150.74 646.2 151.75 618.72 151.75"/><path class="cls-3" d="M646.19,92v58.77H618.72v-7.65h-2.26V98.93h2.78V92h27m0-2h-27l-2,2v4.94h-.76l-2,2v44.16l2,2h.24v5.63l2,2h27.47l2-2V92l-2-2Z"/><polygon class="cls-6" points="562.73 151.75 561.72 150.74 561.72 144.1 560.64 144.1 559.63 143.09 559.63 98.75 560.64 97.74 562.07 97.74 562.07 91.97 563.08 90.96 612.63 90.96 613.64 91.97 613.64 97.92 614.89 97.92 615.9 98.93 615.9 143.09 614.89 144.1 613.64 144.1 613.64 150.74 612.63 151.75 562.73 151.75"/><path class="cls-3" d="M612.63,92v7h2.26v44.16h-2.26v7.65h-49.9v-7.65h-2.09V98.75h2.43V92h49.56m0-2H563.07l-2,2v4.76h-.42l-2,2v44.34l2,2h.07v5.63l2,2h49.9l2-2v-5.63h.24l2-2V98.93l-2-2h-.24V92l-2-2Z"/><g class="cls-7"><path class="cls-4" d="M645.8,662.79l-.75.77-.75-.72,3.47-3.56a3.18,3.18,0,0,1,4.75-.09,3,3,0,0,1,.66,3.81l0,0a1.11,1.11,0,0,1,.61,0l3.57,1.13c.37.12.57,0,.86-.34l.16-.16.74.72-.36.37c-.66.68-.94.8-1.76.54l-3.58-1.13a1,1,0,0,0-1.33.36L650.74,666l3.55,3.45-.82.84Zm6,.59a2.17,2.17,0,0,0-.13-3.3,2.14,2.14,0,0,0-3.25,0L646.62,662l3.38,3.29Z"/><path class="cls-4" d="M653,655.9a.33.33,0,0,0-.52,0l-.5.51-.74-.72.86-.89a.87.87,0,0,1,1.44,0l4.76,4.63a3.16,3.16,0,1,0,4.39-4.56L658,650.26a.87.87,0,0,1,0-1.44l.87-.88.74.72-.5.51a.33.33,0,0,0,0,.52l4.53,4.4a4.34,4.34,0,0,1-6.05,6.21Z"/><path class="cls-4" d="M667,654.85l.15-.16a.51.51,0,0,0,.15-.68l-4.72-10,.87-.9,10.08,4.45c.31.14.46.06.69-.17l.14-.14.74.72-.38.38a1.17,1.17,0,0,1-1.66.32l-2.69-1.2-3.25,3.34,1.27,2.67a1.16,1.16,0,0,1-.26,1.66l-.39.39Zm2.42-7.83-4.09-1.8c-.53-.24-1.4-.74-1.4-.74l0,0s.52.86.77,1.39l1.93,4Z"/><path class="cls-4" d="M672,635.86l-.76.78-.74-.72,3.28-3.38c2.47-2.53,5.66-2.72,8.31-.14s2.57,5.79.1,8.33l-1.81,1.86a.87.87,0,0,1-1.44,0Zm8,5.64,1.37-1.41c2-2.07,2.12-4.62-.13-6.81a4.43,4.43,0,0,0-6.8.07L672.81,635l6.67,6.49A.33.33,0,0,0,680,641.5Z"/><path class="cls-4" d="M680.32,627.31l-.76.78-.74-.73,4.68-4.81a.87.87,0,0,1,1.44,0l.84.82-.77.79-.56-.55a.33.33,0,0,0-.52,0l-2.79,2.87,3.06,3,3.07-3.16.74.72-3.07,3.16L687.8,633a.33.33,0,0,0,.52,0l2.87-3a.32.32,0,0,0,0-.52l-.57-.54.76-.78.84.81a.87.87,0,0,1,0,1.44L688.7,634a.87.87,0,0,1-1.44,0Z"/><path class="cls-4" d="M692.39,613.13a5.89,5.89,0,0,1,3.89-1.94l.15,1.1a5.32,5.32,0,0,0-3.24,1.6,5,5,0,0,0,7.11,6.94,5.09,5.09,0,0,0,1.35-3.86l-1-1a.33.33,0,0,0-.52,0l-.5.51-.74-.72.81-.84a.87.87,0,0,1,1.44,0l3.2,3.11-.75.77-.63-.62-.35-.36,0,0a5.32,5.32,0,0,1-1.54,3.86,5.82,5.82,0,0,1-8.38-.13A5.89,5.89,0,0,1,692.39,613.13Z"/><path class="cls-4" d="M701,604.33a5.93,5.93,0,0,1,8.47-.1,6,6,0,1,1-8.34,8.56A5.93,5.93,0,0,1,701,604.33Zm7.91,7.69a4.87,4.87,0,0,0-.29-6.92,4.76,4.76,0,1,0-6.64,6.82A4.86,4.86,0,0,0,708.86,612Z"/><path class="cls-4" d="M713.85,606.71l.5-.52a.32.32,0,0,0,0-.52l-7.41-7.2.75-.77,10.17,1.54c.7.12,1.76.39,1.76.39l0,0s-.72-.58-1.16-1l-5.27-5.12a.87.87,0,0,1,0-1.44l.86-.89.75.72-.5.52a.32.32,0,0,0,0,.52l7.41,7.2-.75.77-10.17-1.54c-.7-.09-1.76-.36-1.76-.36l0,0s.72.56,1.16,1l5.27,5.12a.87.87,0,0,1,0,1.44l-.87.89Z"/><path class="cls-4" d="M718.88,585.91c1.16-1.2,3.57-2.65,4.84-1.41l.7.67-.77.79-.47-.45c-.79-.77-2.55.17-3.49,1.14a4.62,4.62,0,0,0,.28,6.7,4.76,4.76,0,0,0,6.84.23,5.56,5.56,0,0,0,1.54-3.93l1.06.1a6.26,6.26,0,0,1-1.73,4.51l.41.61a1.21,1.21,0,0,1,1.66,0c.7.68.4,1.48-.17,2.07a3.73,3.73,0,0,1-.63.53l-.57-.56a2.81,2.81,0,0,0,.56-.43c.3-.32.5-.68.17-1s-.65-.14-1.07.29a1.56,1.56,0,0,0-.15.18l-.75-1.17a6.08,6.08,0,0,1-8.26-8.86Z"/><path class="cls-4" d="M730.43,589.67l.15-.15c.21-.22.3-.39.15-.69l-4.73-10,.88-.89L737,582.43c.31.14.46.05.68-.18l.14-.14.74.72-.37.39a1.17,1.17,0,0,1-1.66.31l-2.7-1.2-3.24,3.34,1.26,2.67a1.15,1.15,0,0,1-.26,1.66l-.38.39Zm2.41-7.82L728.76,580c-.54-.24-1.41-.74-1.41-.74l0,0s.52.85.78,1.38l1.93,4Z"/><path class="cls-4" d="M732.51,574.19a.33.33,0,0,0-.52,0l-.5.51-.74-.72.86-.88a.87.87,0,0,1,1.44,0l6.68,6.49a.33.33,0,0,0,.52,0l2.71-2.79a.33.33,0,0,0,0-.52l-.56-.55.77-.79.84.82a.87.87,0,0,1,0,1.44l-3.39,3.48a.87.87,0,0,1-1.44,0Z"/><path class="cls-4" d="M740.9,563.28a5.93,5.93,0,0,1,8.46-.11,6,6,0,1,1-8.34,8.57A5.92,5.92,0,0,1,740.9,563.28Zm7.91,7.69a4.88,4.88,0,0,0-.3-6.92,4.76,4.76,0,1,0-6.64,6.82A4.88,4.88,0,0,0,748.81,571Z"/><path class="cls-4" d="M756.48,561.05a4.29,4.29,0,0,0,3.15-1.18,2.15,2.15,0,0,0,.12-3.12c-2.08-2-5.7,2.54-8.31,0-1.17-1.14-1.16-3.11.35-4.67.79-.81,2.56-1.93,3.66-.86l.6.58-.77.79-.39-.38c-.51-.49-1.55-.16-2.31.62-1.06,1.09-1,2.34-.32,3,2,1.89,5.51-2.72,8.28,0a3.27,3.27,0,0,1-.16,4.8,5,5,0,0,1-3.79,1.51Z"/><path class="cls-4" d="M762.64,556.56l.15-.15a.53.53,0,0,0,.16-.69l-4.73-10,.87-.89,10.08,4.45c.31.14.47,0,.69-.17L770,549l.74.72-.37.39a1.18,1.18,0,0,1-1.66.32l-2.7-1.21-3.25,3.34,1.27,2.67c.36.78.32,1.06-.26,1.66l-.39.4Zm2.42-7.82L761,546.93c-.53-.24-1.4-.74-1.4-.74l0,0s.52.85.77,1.38l1.93,4Z"/><path class="cls-4" d="M770.4,548.59l.43-.45c.17-.16.16-.33,0-.52L764,539.83l.83-.85,7,2.54c.63.21,1.4.54,1.4.54l0,0s-.35-.76-.6-1.37l-2.73-7,.83-.85,8,6.62a.33.33,0,0,0,.52,0l.44-.45.74.72-.79.81c-.5.52-.89.49-1.44,0L772.76,536c-.49-.41-1.21-1.11-1.21-1.11l0,0a14.79,14.79,0,0,1,.76,1.57l2.33,6.15-.74.76-6.2-2.17c-.61-.22-1.63-.72-1.63-.72l0,0s.74.72,1.16,1.2l4.72,5.36c.48.54.52.93,0,1.45l-.78.8Z"/><path class="cls-4" d="M774.3,530.72l-.76.78-.74-.72,3.46-3.56a3.56,3.56,0,1,1,5.11,5l-1.89,1.94,3.3,3.22-.81.83Zm6.22.86a2.38,2.38,0,0,0,0-3.62,2.34,2.34,0,0,0-3.57.08l-1.8,1.84,3.63,3.53Z"/><path class="cls-4" d="M786.86,531.67l.15-.15a.53.53,0,0,0,.16-.69l-4.73-10,.87-.89,10.08,4.45c.31.14.46.05.69-.18l.14-.14.74.72-.37.39a1.18,1.18,0,0,1-1.67.31l-2.69-1.2L787,527.67l1.26,2.67c.37.78.33,1.06-.26,1.66l-.38.39Zm2.42-7.82L785.19,522c-.53-.24-1.4-.74-1.4-.74l0,0s.52.85.77,1.38l1.93,4Z"/><path class="cls-4" d="M794.9,523.41l.77-.79-6.93-6.74-.77.79-.74-.73,2.34-2.4.74.72-.78.8,6.93,6.74.78-.8.74.72-2.34,2.41Z"/><path class="cls-4" d="M794.57,508.11A5.93,5.93,0,0,1,803,508a6,6,0,1,1-8.33,8.56A5.91,5.91,0,0,1,794.57,508.11Zm7.91,7.7a4.88,4.88,0,0,0-.29-6.93,4.76,4.76,0,1,0-6.64,6.82A4.86,4.86,0,0,0,802.48,515.81Z"/></g><g class="cls-7"><path class="cls-4" d="M92.28,524.48l-.76-.78.74-.72,3.47,3.57a3.18,3.18,0,0,1,0,4.74,3,3,0,0,1-3.83.56l0,0a1.17,1.17,0,0,1,0,.62L90.55,536c-.14.37,0,.57.3.87l.17.17-.75.72-.36-.37c-.66-.69-.77-1-.49-1.78l1.23-3.55a1,1,0,0,0-.32-1.34L89,529.33l-3.55,3.44-.81-.84Zm-.77,6a2.17,2.17,0,0,0,3.3,0,2.13,2.13,0,0,0,.11-3.24l-1.83-1.88-3.39,3.29Z"/><path class="cls-4" d="M99,531.88a.33.33,0,0,0,0-.52l-.5-.51.74-.72.86.88a.87.87,0,0,1,0,1.44l-4.76,4.63a3.16,3.16,0,1,0,4.43,4.52l4.74-4.61a.87.87,0,0,1,1.44,0l.86.89-.74.72-.5-.51a.32.32,0,0,0-.52,0l-4.53,4.39a4.33,4.33,0,0,1-6-6.21Z"/><path class="cls-4" d="M99.61,545.9l.15.16c.21.21.37.31.68.17l10.09-4.44.87.9-4.74,9.95c-.15.31-.07.46.16.69l.13.14-.74.72-.37-.38a1.17,1.17,0,0,1-.27-1.67l1.28-2.66-3.25-3.34-2.7,1.19c-.79.34-1.07.29-1.65-.31l-.39-.4Zm7.75,2.64,1.92-4c.26-.53.78-1.38.78-1.38l0,0s-.87.5-1.41.74l-4.07,1.82Z"/><path class="cls-4" d="M121.61,554.69l-.76-.78.74-.72,3.28,3.37c2.47,2.54,2.56,5.73-.1,8.31s-5.85,2.41-8.32-.13l-1.81-1.87a.87.87,0,0,1,0-1.44Zm-5.87,7.83,1.38,1.42c2,2.07,4.55,2.25,6.81.06a4.43,4.43,0,0,0,.12-6.8l-1.63-1.67L115.75,562A.33.33,0,0,0,115.74,562.52Z"/><path class="cls-4" d="M134.17,565.85a5.93,5.93,0,0,1-.14,8.46,6,6,0,1,1-8.32-8.57A5.91,5.91,0,0,1,134.17,565.85Zm-7.92,7.69a4.88,4.88,0,0,0,6.93-.1,4.76,4.76,0,1,0-6.63-6.83A4.87,4.87,0,0,0,126.25,573.54Z"/><path class="cls-4" d="M145.42,579.21l-.76-.78.74-.72,3.48,3.58a2.89,2.89,0,0,1,.09,4.33,2.7,2.7,0,0,1-2.88.71l0,0a2.85,2.85,0,0,1-.71,3.43,3.23,3.23,0,0,1-4.81-.22l-2.1-2.17a.87.87,0,0,1,0-1.44ZM139.55,587l1.75,1.8a2.12,2.12,0,0,0,3.23,0,2.19,2.19,0,0,0,.06-3.27l-2-2-3,2.95A.33.33,0,0,0,139.55,587Zm5.67-2.21a1.91,1.91,0,0,0,2.85,0,1.87,1.87,0,0,0,.05-2.83l-1.89-1.94-2.91,2.82Z"/><path class="cls-4" d="M156.73,589.09a5.92,5.92,0,0,1-.13,8.46,6,6,0,1,1-8.33-8.57A5.91,5.91,0,0,1,156.73,589.09Zm-7.91,7.68a4.87,4.87,0,0,0,6.93-.09,4.76,4.76,0,1,0-6.63-6.83A4.85,4.85,0,0,0,148.82,596.77Z"/><path class="cls-4" d="M153.76,601.67l.43.45a.33.33,0,0,0,.52,0l8-6.61.83.85-2.74,7c-.23.62-.59,1.38-.59,1.38l0,0s.77-.34,1.39-.56l7.06-2.53.82.85-6.84,7.79a.32.32,0,0,0,0,.51l.44.46-.74.72-.79-.81c-.5-.52-.46-.91,0-1.44l4.73-5.37c.42-.47,1.14-1.17,1.14-1.17l0,0a16.09,16.09,0,0,1-1.59.7l-6.22,2.16-.73-.76,2.34-6.14c.23-.6.77-1.6.77-1.6l0,0s-.74.72-1.23,1.13l-5.5,4.57c-.54.46-.94.49-1.44,0l-.77-.8Z"/><path class="cls-4" d="M171.5,618.1a4.3,4.3,0,0,0,1.09,3.18,2.14,2.14,0,0,0,3.11.22c2.09-2-2.37-5.78.24-8.31,1.18-1.14,3.15-1.08,4.66.48.79.81,1.86,2.61.76,3.68l-.6.58-.77-.79.4-.38c.5-.49.2-1.54-.56-2.32-1.06-1.09-2.31-1.11-3-.41-2,1.89,2.57,5.58-.21,8.28a3.29,3.29,0,0,1-4.8-.29,5,5,0,0,1-1.4-3.84Z"/><path class="cls-4" d="M183.5,619a.33.33,0,0,0,0-.52l-.5-.51.75-.72.86.88a.87.87,0,0,1,0,1.44l-4.76,4.63a3.16,3.16,0,1,0,4.43,4.52l4.74-4.61a.87.87,0,0,1,1.44,0l.86.89-.74.72-.5-.51a.32.32,0,0,0-.52,0L185,629.56a4.33,4.33,0,0,1-6-6.21Z"/><path class="cls-4" d="M196.31,629.85c1.16,1.19,2.54,3.65,1.27,4.88l-.69.67-.77-.79.46-.45c.8-.77-.1-2.55-1-3.52a4.62,4.62,0,0,0-6.71.09,4.8,4.8,0,0,0-.38,6.86,5.33,5.33,0,0,0,3.86,1.6l-.15,1.08a6.23,6.23,0,0,1-4.51-1.92,5.88,5.88,0,0,1,.33-8.5A5.78,5.78,0,0,1,196.31,629.85Z"/><path class="cls-4" d="M200.26,635.69l-.76-.78.74-.72,4.68,4.81a.87.87,0,0,1,0,1.44l-.84.82-.77-.8.56-.54a.33.33,0,0,0,0-.52l-2.79-2.88-3.07,3,3.07,3.16-.74.72-3.07-3.16L194.4,643a.33.33,0,0,0,0,.52l2.87,3a.33.33,0,0,0,.52,0l.57-.55.75.78-.84.81a.87.87,0,0,1-1.44,0l-3.53-3.64a.87.87,0,0,1,0-1.44Z"/><path class="cls-4" d="M200.42,647.88a4.27,4.27,0,0,0,1.08,3.18,2.15,2.15,0,0,0,3.12.21c2.08-2-2.37-5.77.24-8.3,1.17-1.14,3.14-1.08,4.65.48.79.81,1.87,2.61.76,3.68l-.6.58-.76-.79.39-.38c.5-.49.2-1.55-.55-2.33-1.06-1.08-2.31-1.1-3-.4-1.95,1.89,2.56,5.58-.22,8.28a3.29,3.29,0,0,1-4.8-.3,5,5,0,0,1-1.39-3.83Z"/><path class="cls-4" d="M206.44,654.08a4.25,4.25,0,0,0,1.09,3.18,2.14,2.14,0,0,0,3.11.22c2.08-2-2.37-5.78.24-8.31,1.17-1.14,3.14-1.08,4.66.48.79.81,1.86,2.61.76,3.68l-.6.58-.77-.79.39-.38c.51-.49.2-1.55-.55-2.32-1.06-1.09-2.31-1.11-3-.41-2,1.89,2.56,5.58-.22,8.28a3.28,3.28,0,0,1-4.8-.3,5,5,0,0,1-1.39-3.83Z"/><path class="cls-4" d="M223,657.37a5.92,5.92,0,0,1-.13,8.46,6,6,0,1,1-8.33-8.57A5.92,5.92,0,0,1,223,657.37Zm-7.91,7.69a4.87,4.87,0,0,0,6.93-.1,4.76,4.76,0,1,0-6.63-6.83A4.87,4.87,0,0,0,215.12,665.06Z"/></g><polygon class="cls-8" points="484.05 263.56 484.05 256.31 476.88 256.31 476.88 266.86 478.87 268.85 484.05 263.56"/><polygon class="cls-8" points="503.44 283.44 510.68 283.44 510.68 290.6 500.13 290.6 498.14 288.62 503.44 283.44"/><polygon class="cls-9" points="484.36 182.76 484.36 256.36 495.14 256.31 510.44 271.96 510.44 289.71 612.16 289.71 612.16 182.76 484.36 182.76"/><rect class="cls-10" x="617.6" y="206.97" width="21.48" height="52.5"/><g class="cls-7"><path d="M365.69,85.74a.79.79,0,0,0-.2-.31h0l0,0a1,1,0,0,0-.27-.18.94.94,0,0,0-.37-.07h-3.28a.95.95,0,0,0,0,1.89h1l-6,6a.93.93,0,0,0,0,1.34.94.94,0,0,0,.66.28,1,1,0,0,0,.67-.28l6.06-6.05v1.08a.94.94,0,1,0,1.87,0V86.1A.92.92,0,0,0,365.69,85.74Z"/><path d="M366.66,70.14h-6.91a.7.7,0,0,0-.7.7v3.68h-3.89a.71.71,0,0,0-.71.71v3.69h-3.89a.7.7,0,0,0-.7.7v3.73H346a.71.71,0,0,0-.7.71v3.68h-3.89a.71.71,0,0,0-.71.71v3.69h-3.88a.7.7,0,0,0-.7.7v2.27a.7.7,0,0,0,.7.7h6.91a.7.7,0,0,0,.7-.7V91.37h3.9a.69.69,0,0,0,.69-.7V87h3.9a.71.71,0,0,0,.7-.7V82.59h3.89a.7.7,0,0,0,.7-.7V78.15h3.89a.7.7,0,0,0,.7-.7V73.76h3.89a.71.71,0,0,0,.71-.7V70.84A.71.71,0,0,0,366.66,70.14Z"/><path d="M356.29,94.12a1.1,1.1,0,0,0,.2.31h0l0,0a1.11,1.11,0,0,0,.27.17.83.83,0,0,0,.37.08h3.28a.95.95,0,0,0,0-1.89h-1l6.05-6a1,1,0,0,0,0-1.34,1,1,0,0,0-.67-.27,1,1,0,0,0-.67.27l-6,6V90.41a.95.95,0,1,0-1.89,0v3.35A.86.86,0,0,0,356.29,94.12Z"/></g><g class="cls-7"><path d="M642.22,234.45a1,1,0,0,0-.2-.3h0l0,0a1.48,1.48,0,0,0-.27-.19,1,1,0,0,0-.38-.07h-3.28a.95.95,0,1,0,0,1.89h1l-6,6.05a.94.94,0,0,0,.66,1.61,1,1,0,0,0,.67-.27l6-6.05v1.07a.95.95,0,0,0,1.89,0v-3.35A1,1,0,0,0,642.22,234.45Z"/><path d="M643.19,218.85h-6.91a.7.7,0,0,0-.71.7v3.7h-3.88a.7.7,0,0,0-.71.69v3.69h-3.89a.7.7,0,0,0-.7.7v3.74H622.5a.71.71,0,0,0-.71.7v3.69h-3.88a.7.7,0,0,0-.7.7v3.69h-3.89a.71.71,0,0,0-.71.7v2.28a.7.7,0,0,0,.71.69h6.9a.7.7,0,0,0,.71-.69v-3.75h3.89a.7.7,0,0,0,.7-.7V235.7h3.89a.7.7,0,0,0,.7-.71v-3.68H634a.7.7,0,0,0,.69-.71v-3.73h3.9a.71.71,0,0,0,.7-.71v-3.69h3.89a.7.7,0,0,0,.7-.7v-2.22A.71.71,0,0,0,643.19,218.85Z"/><path d="M632.82,242.84a.75.75,0,0,0,.2.3h0s0,0,0,0a1.27,1.27,0,0,0,.27.18.94.94,0,0,0,.37.07H637a.95.95,0,0,0,0-1.89h-1l6-6.05a.94.94,0,0,0,0-1.33.94.94,0,0,0-.68-.28.92.92,0,0,0-.66.28l-6,6v-1.07a.94.94,0,0,0-1.88,0v3.35A.94.94,0,0,0,632.82,242.84Z"/></g><g class="cls-7"><path d="M743.56,153.86a.88.88,0,0,0-.2-.3h0l0,0a1.51,1.51,0,0,0-.26-.18,1.27,1.27,0,0,0-.38-.07h-3.27a.95.95,0,1,0,0,1.89h1l-6,6.05a.94.94,0,0,0,.67,1.61,1,1,0,0,0,.67-.27l6-6.05v1.07a.95.95,0,1,0,1.89,0v-3.35A1,1,0,0,0,743.56,153.86Z"/><path d="M744.53,138.26h-6.91a.7.7,0,0,0-.7.71v3.68H733a.71.71,0,0,0-.71.7V147h-3.89a.71.71,0,0,0-.7.7v3.74h-3.89a.7.7,0,0,0-.7.7v3.69h-3.89a.7.7,0,0,0-.7.7v3.69h-3.89a.7.7,0,0,0-.7.7v2.27a.7.7,0,0,0,.7.7h6.91a.7.7,0,0,0,.7-.7v-3.74h3.89a.7.7,0,0,0,.7-.7v-3.68h3.9a.7.7,0,0,0,.7-.71v-3.68h3.89a.7.7,0,0,0,.7-.71v-3.74h3.89a.7.7,0,0,0,.7-.7v-3.69h3.89a.7.7,0,0,0,.7-.7V139A.7.7,0,0,0,744.53,138.26Z"/><path d="M734.16,162.25a.88.88,0,0,0,.2.3h0l0,0a1.26,1.26,0,0,0,.28.19,1,1,0,0,0,.37.07h3.28a.95.95,0,1,0,0-1.89h-1l6.05-6.05a.95.95,0,0,0-.67-1.61.92.92,0,0,0-.67.28l-6,6v-1.07a.95.95,0,0,0-1.89,0v3.35A.91.91,0,0,0,734.16,162.25Z"/></g><g class="cls-7"><path d="M699.06,75.11a4.56,4.56,0,1,1-4.56,4.56A4.56,4.56,0,0,1,699.06,75.11Z"/><path d="M709.38,91.53a37.28,37.28,0,0,0-1.9-3.42c-1-1.65-2.07-3-4.35-3h-7.44c-3.51,0-4.78,3.62-5.89,5.73A16.78,16.78,0,0,0,688,96.31a6.15,6.15,0,0,0,2.08,4.82,11.8,11.8,0,0,0,6.34,2.31c2.22.19,4.21-.89,4.42-2.11.24-1.45-.68-2.46-2.58-2.37a11.23,11.23,0,0,1-5.48-1c-1.46-.74.29-.71.66-.74a4.46,4.46,0,0,0,2.31-.67c.47-.39,0-.27-.58-2.19-.46-1.46.21-2.07.59-2.19.9-.3,1.43.1,2,1.09a11.93,11.93,0,0,0,1.08,1.67,5,5,0,0,0,1.42,1.36,4.6,4.6,0,0,0,2,.66,3.49,3.49,0,0,0,1.18-.1c-.62.58-2.73,2.06-1.27,3.64.78.84,2.53.52,3.35.2a9.54,9.54,0,0,0,3.43-2.78A5.45,5.45,0,0,0,709.38,91.53Zm-6.62,4.72a3.34,3.34,0,1,1,3.32-3.34A3.34,3.34,0,0,1,702.76,96.25Z"/></g><g class="cls-7"><path d="M410.76,314.06l.11-31.18c-5.35.15-5.94,3.6-5.94,5.48v2.31c0,1.3-.3,3.17,1.82,4.57h0c1.45,1,1.29,3.23,1.29,4.07l.24,14.75h0v.11a1.24,1.24,0,1,0,2.47,0v-.11Z"/><path d="M401,290.46c0,.05,0-.06,0,0Z"/><path d="M401,290.46v-6.62a.94.94,0,0,0-1.88,0v5.79h0a.81.81,0,0,1-.8.79.82.82,0,0,1-.81-.79h0v-5.79a.94.94,0,0,0-1.87,0v5.79h0a.8.8,0,0,1-.8.77.79.79,0,0,1-.78-.77h0v-5.79a.95.95,0,0,0-1.89,0v6.39a.88.88,0,0,0,0,.17v.42c0,1.29-.31,3.17,1.8,4.57h0c1.46,1,1.3,3.45,1.3,4.29l.05,14.6a1.15,1.15,0,0,0,2.29,0l.23-15.08c0-.84-.16-2.89,1.3-3.85h0C401.26,294,401,291.76,401,290.46Z"/></g><g class="cls-7"><path d="M559.45,248.42l.12-31.18c-5.36.15-6,3.59-6,5.48V225c0,1.31-.3,3.18,1.82,4.58h0c1.46,1,1.3,3.23,1.3,4.07l.24,14.75h0v.1a1.24,1.24,0,1,0,2.47,0v-.1Z"/><path d="M549.69,224.82c0,.05,0-.06,0,0Z"/><path d="M549.69,224.82v-6.61a.95.95,0,1,0-1.89,0V224h0a.8.8,0,0,1-.79.79.81.81,0,0,1-.81-.79h0v-5.78a.94.94,0,1,0-1.88,0V224h0a.79.79,0,0,1-1.57,0h0v-5.78a.95.95,0,1,0-1.89,0v6.39c0,.05,0,.11,0,.16v.41c0,1.3-.3,3.18,1.81,4.58h0c1.45,1,1.3,3.45,1.3,4.29l0,14.59a1.15,1.15,0,1,0,2.29,0l.23-15.07c0-.84-.16-2.89,1.3-3.85h0C550,228.34,549.7,226.12,549.69,224.82Z"/></g><g class="cls-7"><path d="M668.26,74.83a2.77,2.77,0,1,1-2.76-2.77A2.77,2.77,0,0,1,668.26,74.83Z"/><path d="M675.71,97.5a10.06,10.06,0,1,1-12.87-14.16l.19,2.19a8,8,0,1,0,11.61,9.1Z"/><path d="M674.45,83.41a1,1,0,0,1,0,2.09h-5.12l.18,1.44a1.61,1.61,0,0,0,1.6,1.61h2.52a4.87,4.87,0,0,1,4.44,2.87l2.67,6.78a1.78,1.78,0,0,1-3.2,1.55l-2.45-6.21a2.52,2.52,0,0,0-2.25-1.39H668.6a4.49,4.49,0,0,1-4.4-3.58l-.79-7.74a2.57,2.57,0,0,1,2.71-2.71,2.84,2.84,0,0,1,2.71,2.71c.22,1.6.34,2.59.34,2.59Z"/></g><g class="cls-7"><path d="M321.54,68.34H303.6A3.68,3.68,0,0,0,299.92,72V94.09a3.67,3.67,0,0,0,3.68,3.67h17.94a3.67,3.67,0,0,0,3.68-3.67V72A3.68,3.68,0,0,0,321.54,68.34Zm.74,25.75a.74.74,0,0,1-.74.73H303.6a.73.73,0,0,1-.73-.73V72a.73.73,0,0,1,.73-.74h17.94a.74.74,0,0,1,.74.74Z"/><path class="cls-11" d="M310.77,77.08a1.67,1.67,0,1,1-1.66-1.67A1.66,1.66,0,0,1,310.77,77.08Z"/><path class="cls-11" d="M309.86,90.78a.76.76,0,0,1-.75-.76V86.94c0-.42.11-.33-.22-.33s-.25-.09-.25.33V90a.75.75,0,0,1-.75.76h-.23a.75.75,0,0,1-.75-.76V86.93a.49.49,0,0,1,0-.12,1.61,1.61,0,0,1-.8-1.27l.16-4.85c.16-.92.68-1.5,1.51-1.5H310a1.47,1.47,0,0,1,1.51,1.5l.17,4.85a1.73,1.73,0,0,1-.88,1.27.49.49,0,0,1,0,.12V90a.76.76,0,0,1-.75.76Z"/><path class="cls-11" d="M317.47,77.08a1.67,1.67,0,1,1-1.67-1.67A1.67,1.67,0,0,1,317.47,77.08Z"/><path class="cls-11" d="M316.56,90.78a.76.76,0,0,1-.76-.76V86.94c0-.42.1-.33-.22-.33s-.24-.09-.24.33V90a.76.76,0,0,1-.76.76h-.23a.76.76,0,0,1-.75-.76V86.93a.49.49,0,0,1,0-.12,1.61,1.61,0,0,1-.8-1.27l.17-4.85c.15-.92.67-1.5,1.5-1.5h2.26c.83,0,1.38.51,1.5,1.5l.18,4.85a1.74,1.74,0,0,1-.89,1.27.49.49,0,0,1,0,.12V90a.76.76,0,0,1-.76.76Z"/><path d="M308.31,65.56a.87.87,0,0,0,.35.07h0a.81.81,0,0,0,.31-.06.85.85,0,0,0,.31-.21l2.28-2.28a.93.93,0,0,0,0-1.31.94.94,0,0,0-1.32,0l-.71.7V54.05a.92.92,0,0,0-.93-.93.9.9,0,0,0-.65.27.87.87,0,0,0-.27.66v8.41l-.75-.75A.93.93,0,0,0,305.68,63L308,65.36A.88.88,0,0,0,308.31,65.56Z"/><path d="M318.06,53.19a.84.84,0,0,0-.35-.07h0a1.23,1.23,0,0,0-.32.07.9.9,0,0,0-.3.21l-2.29,2.28A.93.93,0,1,0,316.08,57l.7-.7v8.42a.92.92,0,0,0,.93.92.88.88,0,0,0,.66-.27.92.92,0,0,0,.27-.66V56.29l.74.75a.93.93,0,0,0,1.32-1.32l-2.33-2.33A.83.83,0,0,0,318.06,53.19Z"/></g><g class="cls-7"><path d="M503,260.54H485.06a3.68,3.68,0,0,0-3.68,3.68v22.07a3.68,3.68,0,0,0,3.68,3.68H503a3.69,3.69,0,0,0,3.69-3.68V264.22A3.69,3.69,0,0,0,503,260.54Zm.74,25.75a.73.73,0,0,1-.74.73H485.06a.73.73,0,0,1-.74-.73V264.22a.73.73,0,0,1,.74-.73H503a.73.73,0,0,1,.74.73Z"/><path class="cls-11" d="M492.24,269.28a1.67,1.67,0,1,1-1.67-1.66A1.67,1.67,0,0,1,492.24,269.28Z"/><path class="cls-11" d="M491.33,283a.76.76,0,0,1-.76-.75v-3.09c0-.42.11-.33-.22-.33s-.24-.09-.24.33v3.09a.76.76,0,0,1-.76.75h-.23a.76.76,0,0,1-.75-.75v-3.1a.49.49,0,0,1,0-.12,1.6,1.6,0,0,1-.79-1.27l.16-4.85c.15-.93.68-1.5,1.5-1.5h2.25a1.47,1.47,0,0,1,1.51,1.5l.18,4.85a1.74,1.74,0,0,1-.89,1.27.49.49,0,0,1,0,.12v3.1a.76.76,0,0,1-.75.75Z"/><path class="cls-11" d="M498.93,269.28a1.67,1.67,0,1,1-1.67-1.66A1.67,1.67,0,0,1,498.93,269.28Z"/><path class="cls-11" d="M498,283a.76.76,0,0,1-.76-.75v-3.09c0-.42.11-.33-.22-.33s-.24-.09-.24.33v3.09a.76.76,0,0,1-.76.75h-.23a.75.75,0,0,1-.75-.75v-3.1a.49.49,0,0,1,0-.12,1.61,1.61,0,0,1-.8-1.27l.17-4.85c.15-.93.67-1.5,1.51-1.5h2.25a1.47,1.47,0,0,1,1.5,1.5l.18,4.85A1.72,1.72,0,0,1,499,279a.49.49,0,0,1,0,.12v3.1a.76.76,0,0,1-.75.75Z"/><path d="M489.77,257.76a.92.92,0,0,0,.36.07h.05a.89.89,0,0,0,.31-.06.9.9,0,0,0,.3-.21l2.28-2.28a.92.92,0,0,0,0-1.31.94.94,0,0,0-1.32,0l-.7.7v-8.42a.93.93,0,0,0-1.59-.65.88.88,0,0,0-.27.65v8.42l-.75-.75a.93.93,0,1,0-1.31,1.32l2.33,2.33A.83.83,0,0,0,489.77,257.76Z"/><path d="M499.53,245.39a1.15,1.15,0,0,0-.36-.07h-.05a.8.8,0,0,0-.3.06,1.11,1.11,0,0,0-.32.21l-2.27,2.28a.93.93,0,1,0,1.31,1.32l.7-.71v8.41a.92.92,0,0,0,.93.93.88.88,0,0,0,.65-.27.93.93,0,0,0,.28-.66v-8.41l.75.75a.93.93,0,0,0,1.31-1.32l-2.33-2.33A.88.88,0,0,0,499.53,245.39Z"/></g><g class="cls-7"><path d="M701.85,135.77h-18a3.68,3.68,0,0,0-3.68,3.68v22.06a3.68,3.68,0,0,0,3.68,3.68h18a3.67,3.67,0,0,0,3.67-3.68V139.45A3.67,3.67,0,0,0,701.85,135.77Zm.73,25.74a.73.73,0,0,1-.73.74h-18a.73.73,0,0,1-.73-.74V139.45a.73.73,0,0,1,.73-.74h18a.73.73,0,0,1,.73.74Z"/><path class="cls-11" d="M691.08,144.51a1.67,1.67,0,1,1-1.67-1.67A1.67,1.67,0,0,1,691.08,144.51Z"/><path class="cls-11" d="M690.16,158.21a.76.76,0,0,1-.75-.76v-3.08c0-.42.11-.33-.21-.33s-.25-.09-.25.33v3.08a.76.76,0,0,1-.75.76H688a.75.75,0,0,1-.75-.76v-3.09a.45.45,0,0,1,0-.12,1.61,1.61,0,0,1-.8-1.27l.17-4.85c.15-.92.66-1.5,1.5-1.5h2.25a1.48,1.48,0,0,1,1.51,1.5L692,153a1.72,1.72,0,0,1-.89,1.27.43.43,0,0,1,0,.12v3.09a.76.76,0,0,1-.76.76Z"/><path class="cls-11" d="M697.77,144.51a1.67,1.67,0,1,1-1.67-1.67A1.67,1.67,0,0,1,697.77,144.51Z"/><path class="cls-11" d="M696.86,158.21a.75.75,0,0,1-.75-.76v-3.08c0-.42.1-.33-.22-.33s-.25-.09-.25.33v3.08a.76.76,0,0,1-.75.76h-.23a.75.75,0,0,1-.75-.76v-3.21a1.6,1.6,0,0,1-.79-1.27l.16-4.85c.16-.92.68-1.5,1.51-1.5H697a1.48,1.48,0,0,1,1.51,1.5l.17,4.85a1.72,1.72,0,0,1-.89,1.27.43.43,0,0,1,0,.12v3.09a.76.76,0,0,1-.76.76Z"/><path d="M688.62,133a.84.84,0,0,0,.35.07h0a1,1,0,0,0,.3-.06,1,1,0,0,0,.32-.21l2.28-2.28a.94.94,0,0,0,0-1.32.93.93,0,0,0-1.31,0l-.71.71v-8.42a.93.93,0,0,0-.93-.93,1,1,0,0,0-.66.28,1,1,0,0,0-.27.65v8.42l-.74-.75a.94.94,0,0,0-1.32,0,.92.92,0,0,0,0,1.32l2.33,2.33A1.1,1.1,0,0,0,688.62,133Z"/><path d="M698.37,120.62a.86.86,0,0,0-.36-.08h0a1.08,1.08,0,0,0-.31.07.9.9,0,0,0-.31.21l-2.28,2.28a.93.93,0,0,0,1.31,1.31l.7-.7v8.41a.93.93,0,0,0,.93.93.94.94,0,0,0,.67-.27,1,1,0,0,0,.27-.66v-8.41l.75.75a.93.93,0,0,0,1.31-1.32l-2.32-2.33A.87.87,0,0,0,698.37,120.62Z"/></g><g class="cls-7"><path d="M323,195.62h-6.16a6.6,6.6,0,0,1,0-13.2h1l16.9-16.84a1.18,1.18,0,0,1,.84-.34h7a6.61,6.61,0,1,1,0,13.22H340.7l-16.87,16.82A1.18,1.18,0,0,1,323,195.62Zm-6.16-10.82a4.22,4.22,0,0,0,0,8.44h5.67l16.87-16.81a1.21,1.21,0,0,1,.84-.35h2.42a4.24,4.24,0,0,0,0-8.47h-6.55l-16.89,16.84a1.16,1.16,0,0,1-.84.35Z"/><path d="M344.7,185a.85.85,0,0,0-.21-.32h0l0,0a.85.85,0,0,0-.29-.19,1,1,0,0,0-.4-.09h-3.49a1,1,0,1,0,0,2h1.07l-6.44,6.44a1,1,0,0,0,.71,1.72,1,1,0,0,0,.71-.29l6.44-6.45V189a1,1,0,1,0,2,0V185.4A.8.8,0,0,0,344.7,185Z"/><path d="M334.69,193.94a.91.91,0,0,0,.22.33h0l0,0a1.21,1.21,0,0,0,.28.18,1,1,0,0,0,.4.08h3.49a1,1,0,1,0,0-2h-1.07l6.44-6.45a1,1,0,0,0,0-1.42,1,1,0,0,0-1.43,0l-6.44,6.44V190a1,1,0,0,0-2,0v3.57A1,1,0,0,0,334.69,193.94Z"/></g><g class="cls-7"><path d="M627.36,437H621.2a6.6,6.6,0,0,1,0-13.2h1l16.9-16.85a1.2,1.2,0,0,1,.83-.34h7a6.62,6.62,0,0,1,0,13.23h-1.93L628.2,436.6A1.21,1.21,0,0,1,627.36,437Zm-6.16-10.82a4.22,4.22,0,0,0,0,8.44h5.66l16.87-16.81a1.21,1.21,0,0,1,.84-.35H647a4.24,4.24,0,0,0,0-8.47h-6.56l-16.89,16.84a1.19,1.19,0,0,1-.84.35Z"/><path d="M649.07,426.33a.87.87,0,0,0-.22-.32h0l0,0a1.12,1.12,0,0,0-.29-.19,1.13,1.13,0,0,0-.39-.08h-3.5a1,1,0,0,0,0,2h1.08l-6.44,6.44a1,1,0,0,0,0,1.43,1,1,0,0,0,.7.29,1,1,0,0,0,.72-.29l6.44-6.45v1.14a1,1,0,1,0,2,0v-3.57A1.09,1.09,0,0,0,649.07,426.33Z"/><path d="M639.06,435.27a1,1,0,0,0,.21.32h0s0,0,0,0a1.15,1.15,0,0,0,.28.19,1.06,1.06,0,0,0,.4.08h3.49a1,1,0,0,0,0-2h-1.08l6.44-6.44a1,1,0,0,0,0-1.42,1,1,0,0,0-1.42,0L641,432.45v-1.14a1,1,0,0,0-1-1,1,1,0,0,0-1,1v3.57A1.07,1.07,0,0,0,639.06,435.27Z"/></g><path class="cls-3" d="M113.52,179.05l22.56,0-10.46-10.41h3.95l11.87,11.87-11.9,11.89H125.6L136.06,182H113.52Z"/></g></g></g></svg>