<svg xmlns="http://www.w3.org/2000/svg" viewBox="0 0 846.81 676.99"><defs><style>.cls-1{isolation:isolate;}.cls-2{mix-blend-mode:multiply;}.cls-3,.cls-6{fill:#b5b9a6;}.cls-4{fill:#cb9b63;}.cls-4,.cls-5,.cls-6{stroke:#fff;stroke-linecap:square;stroke-linejoin:bevel;stroke-width:2.02px;}.cls-5{fill:#dadcd2;}.cls-11,.cls-7,.cls-9{fill-rule:evenodd;}.cls-8{fill:#fff;}.cls-10,.cls-9{fill:#231f20;}.cls-11{stroke:#231f20;stroke-linecap:round;stroke-linejoin:round;stroke-width:0.06px;}</style></defs><title>Ресурс 7</title><g class="cls-1"><g id="Шар_2" data-name="Шар 2"><g id="Layer_1" data-name="Layer 1"><g class="cls-2"><path class="cls-3" d="M646.82,659.15l-.76.77-.74-.72,3.47-3.56a3.17,3.17,0,0,1,4.74-.09,3,3,0,0,1,.67,3.81l0,0a1.1,1.1,0,0,1,.62,0l3.57,1.11c.36.13.56,0,.85-.33l.16-.16.75.72-.36.37c-.67.68-.95.8-1.77.54l-3.58-1.13a1,1,0,0,0-1.33.36l-1.37,1.41,3.54,3.45-.81.84Zm6,.59a2.17,2.17,0,0,0-.12-3.3,2.14,2.14,0,0,0-3.25,0l-1.83,1.88L651,661.6Z"/><path class="cls-3" d="M654,652.26a.33.33,0,0,0-.52,0l-.5.51-.74-.72.86-.89a.87.87,0,0,1,1.44,0l4.76,4.63a3.16,3.16,0,1,0,4.39-4.56L659,646.62a.87.87,0,0,1,0-1.44l.86-.88.74.72-.5.51a.33.33,0,0,0,0,.52l4.52,4.4a4.33,4.33,0,0,1-6,6.21Z"/><path class="cls-3" d="M668,651.21l.16-.16a.52.52,0,0,0,.15-.68l-4.73-10,.88-.9L674.56,644c.31.13.46,0,.68-.18l.14-.14.74.72-.37.38a1.17,1.17,0,0,1-1.66.32l-2.69-1.2-3.25,3.34,1.26,2.67a1.16,1.16,0,0,1-.26,1.66l-.38.39Zm2.42-7.83-4.08-1.8c-.54-.24-1.4-.74-1.4-.74l0,0s.52.86.78,1.39l1.93,4Z"/><path class="cls-3" d="M673,632.22l-.75.78-.74-.72,3.28-3.38c2.47-2.53,5.65-2.72,8.31-.13s2.57,5.78.1,8.32L681.39,639a.87.87,0,0,1-1.44,0Zm8,5.64,1.38-1.41c2-2.07,2.12-4.62-.13-6.81a4.43,4.43,0,0,0-6.8.07l-1.63,1.67,6.66,6.49A.33.33,0,0,0,681,637.86Z"/><path class="cls-3" d="M681.34,623.67l-.76.78-.74-.73,4.68-4.81a.87.87,0,0,1,1.44,0l.84.81-.77.79-.57-.55a.32.32,0,0,0-.51,0l-2.8,2.87,3.06,3,3.08-3.16.74.72L686,626.53l2.86,2.78a.31.31,0,0,0,.51,0l2.88-3a.33.33,0,0,0,0-.52l-.56-.54.76-.78.83.81a.87.87,0,0,1,0,1.44l-3.54,3.64a.87.87,0,0,1-1.44,0Z"/><path class="cls-3" d="M693.41,609.49a5.87,5.87,0,0,1,3.89-1.94l.14,1.1a5.29,5.29,0,0,0-3.23,1.6,5,5,0,0,0,7.1,6.94,5.12,5.12,0,0,0,1.36-3.86l-1-1a.33.33,0,0,0-.52,0l-.51.51-.74-.72.82-.84a.87.87,0,0,1,1.44,0l3.19,3.11-.74.77-.64-.62c-.18-.17-.34-.36-.34-.36l0,0A5.32,5.32,0,0,1,702,618a5.81,5.81,0,0,1-8.37-.13A5.88,5.88,0,0,1,693.41,609.49Z"/><path class="cls-3" d="M702,600.69a5.92,5.92,0,0,1,8.46-.1,6,6,0,1,1-8.33,8.56A5.91,5.91,0,0,1,702,600.69Zm7.91,7.69a4.86,4.86,0,0,0-.3-6.92,4.76,4.76,0,1,0-6.63,6.82A4.86,4.86,0,0,0,709.88,608.38Z"/><path class="cls-3" d="M714.87,603.06l.5-.51a.33.33,0,0,0,0-.52l-7.4-7.21.74-.76,10.17,1.54c.7.12,1.77.39,1.77.39l0,0s-.71-.58-1.16-1l-5.26-5.12a.87.87,0,0,1,0-1.44l.86-.89.74.73-.5.51a.33.33,0,0,0,0,.52l7.4,7.21-.74.76-10.17-1.54c-.7-.09-1.77-.36-1.77-.36l0,0s.72.56,1.16,1l5.26,5.12a.87.87,0,0,1,0,1.44l-.86.89Z"/><path class="cls-3" d="M719.89,582.27c1.17-1.2,3.58-2.65,4.85-1.41l.69.67-.77.79-.46-.45c-.79-.77-2.55.17-3.49,1.14a4.62,4.62,0,0,0,.28,6.71,4.76,4.76,0,0,0,6.84.22,5.61,5.61,0,0,0,1.54-3.93l1.06.1a6.32,6.32,0,0,1-1.73,4.51l.41.61a1.21,1.21,0,0,1,1.66,0,1.38,1.38,0,0,1-.17,2.07,3.73,3.73,0,0,1-.63.53l-.58-.56a2.53,2.53,0,0,0,.56-.43c.31-.31.5-.68.18-1s-.65-.14-1.07.29a1.56,1.56,0,0,0-.15.18l-.75-1.17a6.09,6.09,0,0,1-8.27-8.86Z"/><path class="cls-3" d="M731.44,586l.15-.15a.53.53,0,0,0,.16-.69l-4.73-10,.87-.9L738,578.79c.31.14.46.05.68-.18l.14-.14.74.72-.37.39a1.17,1.17,0,0,1-1.66.31l-2.7-1.2L731.56,582l1.27,2.67c.36.78.32,1.06-.26,1.66l-.39.39Zm2.42-7.82-4.09-1.81c-.53-.24-1.4-.74-1.4-.74l0,0s.52.85.77,1.38l1.93,4Z"/><path class="cls-3" d="M733.53,570.55a.33.33,0,0,0-.52,0l-.5.52-.74-.73.86-.88a.87.87,0,0,1,1.44,0l6.68,6.49a.32.32,0,0,0,.51,0l2.72-2.79a.33.33,0,0,0,0-.52l-.56-.55.77-.79.83.82a.87.87,0,0,1,0,1.44L741.65,577a.88.88,0,0,1-1.45,0Z"/><path class="cls-3" d="M741.91,559.64a5.94,5.94,0,0,1,8.47-.11A6,6,0,1,1,742,568.1,5.92,5.92,0,0,1,741.91,559.64Zm7.91,7.69a4.87,4.87,0,0,0-.29-6.92,4.76,4.76,0,1,0-6.64,6.82A4.86,4.86,0,0,0,749.82,567.33Z"/><path class="cls-3" d="M757.5,557.41a4.3,4.3,0,0,0,3.15-1.18,2.14,2.14,0,0,0,.12-3.11c-2.08-2-5.71,2.53-8.31,0-1.18-1.14-1.17-3.11.35-4.67.79-.81,2.56-1.93,3.65-.86l.6.58-.76.79-.4-.38c-.5-.49-1.55-.16-2.3.62-1.06,1.09-1.05,2.34-.33,3,2,1.89,5.51-2.72,8.29,0a3.28,3.28,0,0,1-.16,4.8,5,5,0,0,1-3.79,1.51Z"/><path class="cls-3" d="M763.66,552.92l.15-.15c.21-.22.3-.38.15-.69l-4.73-10,.88-.89,10.08,4.45c.31.14.46.05.68-.17l.14-.15.74.72-.37.39a1.17,1.17,0,0,1-1.66.32L767,545.58l-3.25,3.34L765,551.6a1.14,1.14,0,0,1-.26,1.65l-.38.4Zm2.41-7.82L762,543.29c-.54-.24-1.4-.74-1.4-.74l0,0s.52.85.78,1.38l1.93,4Z"/><path class="cls-3" d="M771.42,544.94l.43-.44a.34.34,0,0,0,0-.52L765,536.19l.82-.85,7.06,2.54c.63.21,1.4.55,1.4.55l0,0s-.36-.76-.6-1.37L771,530l.83-.85,8,6.62a.33.33,0,0,0,.52,0l.44-.45.75.72-.8.82c-.5.51-.89.48-1.44,0l-5.49-4.57c-.49-.41-1.21-1.11-1.21-1.11l0,0a15.55,15.55,0,0,1,.75,1.57l2.33,6.15-.73.76-6.21-2.17c-.6-.22-1.62-.72-1.62-.72l0,0s.75.72,1.17,1.2l4.72,5.37c.48.53.52.92,0,1.44l-.78.8Z"/><path class="cls-3" d="M775.31,527.08l-.75.78-.74-.72,3.45-3.56a3.56,3.56,0,1,1,5.11,5l-1.88,1.94,3.3,3.22-.82.83Zm6.23.86a2.38,2.38,0,0,0,0-3.62,2.35,2.35,0,0,0-3.58.08l-1.79,1.84,3.63,3.53Z"/><path class="cls-3" d="M787.87,528l.16-.15c.21-.22.3-.39.15-.69l-4.73-10,.88-.9,10.08,4.46c.31.14.46.05.68-.18l.14-.14.74.72-.37.39a1.17,1.17,0,0,1-1.66.31l-2.69-1.2L788,524l1.26,2.67a1.15,1.15,0,0,1-.26,1.66l-.38.39Zm2.42-7.82-4.08-1.81c-.54-.24-1.41-.74-1.41-.74l0,0s.52.85.78,1.38l1.93,4Z"/><path class="cls-3" d="M795.92,519.77l.76-.79-6.92-6.74L789,513l-.74-.73,2.34-2.4.74.72-.78.8,6.93,6.74.78-.8.74.72-2.34,2.41Z"/><path class="cls-3" d="M795.59,504.47a5.93,5.93,0,0,1,8.46-.1,6,6,0,1,1-8.33,8.57A5.93,5.93,0,0,1,795.59,504.47Zm7.91,7.7a4.88,4.88,0,0,0-.3-6.93,4.76,4.76,0,1,0-6.63,6.82A4.86,4.86,0,0,0,803.5,512.17Z"/></g><g class="cls-2"><path class="cls-3" d="M93.29,520.84l-.75-.78.74-.72,3.46,3.57a3.17,3.17,0,0,1,0,4.74,3,3,0,0,1-3.84.56l0,0a1.12,1.12,0,0,1-.06.62l-1.22,3.53c-.13.37,0,.57.31.87l.16.17-.74.72-.36-.37c-.66-.69-.78-1-.49-1.78l1.23-3.55a1,1,0,0,0-.32-1.34L90,525.69l-3.54,3.44-.82-.84Zm-.76,6a2.16,2.16,0,0,0,3.29,0,2.11,2.11,0,0,0,.11-3.24l-1.82-1.88L90.72,525Z"/><path class="cls-3" d="M100,528.24a.33.33,0,0,0,0-.52l-.5-.51.74-.72.86.88a.87.87,0,0,1,0,1.44l-4.77,4.63a3.16,3.16,0,1,0,4.43,4.52l4.74-4.61a.88.88,0,0,1,1.45,0l.86.89L107,535l-.5-.51a.32.32,0,0,0-.52,0l-4.52,4.39a4.33,4.33,0,0,1-6-6.21Z"/><path class="cls-3" d="M100.62,542.26l.15.16a.53.53,0,0,0,.69.17l10.08-4.44.88.9-4.74,10c-.15.31-.07.46.15.69l.14.14-.74.72-.37-.38a1.16,1.16,0,0,1-.27-1.67l1.28-2.66-3.25-3.34-2.71,1.19a1.16,1.16,0,0,1-1.65-.31l-.38-.4Zm7.75,2.64,1.93-4c.25-.53.77-1.38.77-1.38l0,0s-.87.49-1.4.73L105.57,542Z"/><path class="cls-3" d="M122.62,551.05l-.75-.78.74-.72,3.28,3.38c2.46,2.53,2.56,5.72-.1,8.31s-5.86,2.4-8.32-.14l-1.81-1.87a.87.87,0,0,1,0-1.44Zm-5.86,7.83,1.37,1.42c2,2.07,4.56,2.25,6.81.06a4.43,4.43,0,0,0,.13-6.8l-1.63-1.67-6.67,6.47A.33.33,0,0,0,116.76,558.88Z"/><path class="cls-3" d="M135.18,562.21a5.92,5.92,0,0,1-.13,8.46,6,6,0,1,1-8.33-8.57A5.91,5.91,0,0,1,135.18,562.21Zm-7.91,7.69a4.88,4.88,0,0,0,6.93-.1,4.76,4.76,0,1,0-6.63-6.83A4.87,4.87,0,0,0,127.27,569.9Z"/><path class="cls-3" d="M146.43,575.57l-.75-.78.74-.72,3.48,3.58A2.9,2.9,0,0,1,150,582a2.7,2.7,0,0,1-2.88.71l0,0a2.84,2.84,0,0,1-.71,3.43,3.21,3.21,0,0,1-4.8-.22l-2.1-2.17a.87.87,0,0,1,0-1.44Zm-5.86,7.83,1.74,1.8a2.13,2.13,0,0,0,3.24,0,2.19,2.19,0,0,0,.06-3.27l-2-2.05-3,3A.33.33,0,0,0,140.57,583.4Zm5.66-2.21a1.93,1.93,0,0,0,2.86,0,1.87,1.87,0,0,0,0-2.83l-1.88-1.94-2.91,2.82Z"/><path class="cls-3" d="M157.75,585.45a5.93,5.93,0,0,1-.14,8.46,6,6,0,1,1-8.32-8.57A5.91,5.91,0,0,1,157.75,585.45Zm-7.92,7.69a4.88,4.88,0,0,0,6.93-.1,4.76,4.76,0,1,0-6.63-6.83A4.87,4.87,0,0,0,149.83,593.14Z"/><path class="cls-3" d="M154.77,598l.44.45a.33.33,0,0,0,.51,0l8-6.62.82.85-2.73,7c-.24.62-.59,1.38-.59,1.38l0,0s.78-.34,1.39-.56l7.06-2.53.83.85-6.84,7.79a.34.34,0,0,0,0,.52l.44.45-.74.72-.79-.81c-.5-.52-.46-.91,0-1.44l4.73-5.36c.42-.48,1.14-1.18,1.14-1.18l0,0a15,15,0,0,1-1.59.7l-6.22,2.16-.73-.76,2.35-6.14c.23-.6.77-1.6.77-1.6l0,0s-.74.72-1.23,1.13l-5.5,4.57c-.55.46-.94.49-1.44,0l-.78-.8Z"/><path class="cls-3" d="M172.52,614.46a4.25,4.25,0,0,0,1.09,3.18,2.14,2.14,0,0,0,3.11.22c2.08-2-2.37-5.78.24-8.31,1.17-1.14,3.14-1.08,4.66.48.79.81,1.86,2.61.76,3.68l-.6.58-.77-.79.39-.38c.51-.49.2-1.54-.55-2.32-1.06-1.09-2.31-1.11-3-.41-1.95,1.89,2.56,5.58-.22,8.28a3.28,3.28,0,0,1-4.8-.3,5,5,0,0,1-1.39-3.83Z"/><path class="cls-3" d="M184.51,615.31a.33.33,0,0,0,0-.52l-.5-.51.74-.72.86.88a.87.87,0,0,1,0,1.44l-4.77,4.63a3.16,3.16,0,1,0,4.43,4.52l4.75-4.61a.87.87,0,0,1,1.44,0l.86.89-.74.72-.5-.52a.33.33,0,0,0-.52,0L186,625.92a4.33,4.33,0,0,1-6-6.21Z"/><path class="cls-3" d="M197.32,626.21c1.16,1.19,2.55,3.65,1.28,4.88l-.7.67-.77-.79.47-.45c.79-.77-.1-2.55-1-3.52a4.62,4.62,0,0,0-6.71.09,4.8,4.8,0,0,0-.39,6.86,5.37,5.37,0,0,0,3.86,1.61l-.14,1.07a6.26,6.26,0,0,1-4.52-1.92,5.89,5.89,0,0,1,.34-8.5A5.76,5.76,0,0,1,197.32,626.21Z"/><path class="cls-3" d="M201.27,632.05l-.75-.78.74-.72,4.67,4.81a.87.87,0,0,1,0,1.44l-.84.81-.76-.78.56-.55a.33.33,0,0,0,0-.52l-2.79-2.88-3.07,3,3.07,3.16-.74.72-3.07-3.16-2.86,2.78a.32.32,0,0,0,0,.52l2.87,3a.33.33,0,0,0,.52,0l.56-.55.76.78-.84.81a.87.87,0,0,1-1.44,0l-3.54-3.64a.87.87,0,0,1,0-1.44Z"/><path class="cls-3" d="M201.43,644.24a4.3,4.3,0,0,0,1.09,3.18,2.14,2.14,0,0,0,3.11.21c2.09-2-2.37-5.77.24-8.3,1.18-1.14,3.15-1.08,4.66.48.79.81,1.86,2.61.76,3.68l-.6.58-.77-.79.4-.38c.5-.49.2-1.55-.56-2.32-1.06-1.09-2.31-1.11-3-.41-1.95,1.89,2.57,5.58-.21,8.28a3.29,3.29,0,0,1-4.8-.3,5,5,0,0,1-1.4-3.83Z"/><path class="cls-3" d="M207.45,650.44a4.3,4.3,0,0,0,1.09,3.18,2.14,2.14,0,0,0,3.11.22c2.09-2-2.37-5.78.25-8.31,1.17-1.14,3.14-1.08,4.65.48.79.81,1.86,2.61.76,3.68l-.6.58-.76-.79.39-.38c.5-.49.2-1.55-.56-2.32-1.05-1.09-2.31-1.11-3-.41-2,1.89,2.56,5.58-.22,8.28a3.29,3.29,0,0,1-4.8-.29,5,5,0,0,1-1.4-3.84Z"/><path class="cls-3" d="M224.05,653.73a5.93,5.93,0,0,1-.14,8.46,6,6,0,1,1-8.32-8.57A5.92,5.92,0,0,1,224.05,653.73Zm-7.92,7.69a4.87,4.87,0,0,0,6.93-.1,4.76,4.76,0,1,0-6.62-6.83A4.88,4.88,0,0,0,216.13,661.42Z"/></g><polygon class="cls-4" points="347.3 143.48 347.3 143.82 347.3 148.65 394.57 148.65 394.57 143.82 403.2 143.82 403.2 148.65 449.45 148.65 449.45 143.82 449.45 143.48 455.49 143.48 455.49 148.65 504.49 148.65 504.49 143.48 506.91 143.48 506.91 143.31 506.91 96.2 506.91 95.68 505.7 95.68 505.7 92.23 454.97 92.23 454.97 95.68 450.48 95.68 450.48 92.57 450.48 92.23 403.2 92.23 403.2 92.57 350.75 92.57 350.75 95.68 350.75 96.2 345.23 96.2 345.23 143.31 347.3 143.31 347.3 143.48"/><polygon class="cls-4" points="236 143.82 236 148.65 283.97 148.65 283.97 143.82 292.77 143.82 292.77 148.65 326.76 148.65 326.76 143.82 326.76 142.79 326.76 92.57 307.26 92.57 307.26 92.4 307.26 87.92 307.26 84.64 307.26 76.7 234.1 84.64 234.1 87.92 235.31 87.92 235.31 92.4 234.1 92.4 234.1 92.57 234.1 142.79 236 142.79 236 143.82"/><polygon class="cls-4" points="620.62 146.93 620.62 148.65 645.99 148.65 645.99 146.93 646.85 146.93 646.85 143.48 646.85 95.68 646.85 92.23 620.28 92.23 620.28 95.68 618.72 95.68 618.72 143.48 620.62 143.48 620.62 146.93"/><polygon class="cls-4" points="614.58 143.48 617 143.48 617 95.68 615.79 95.68 615.79 92.23 576.97 92.23 576.97 95.68 576.97 143.48 576.97 148.65 614.58 148.65 614.58 143.48"/><polygon class="cls-4" points="510.53 148.65 559.71 148.65 559.71 143.48 565.75 143.48 565.75 148.65 575.24 148.65 575.24 143.48 575.24 95.68 575.24 92.23 565.4 92.23 565.4 95.68 560.92 95.68 560.92 92.23 510.02 92.23 510.02 95.68 508.63 95.68 508.63 143.48 510.53 143.48 510.53 148.65"/><polygon class="cls-4" points="177.16 142.79 182.85 142.79 182.85 148.65 230.31 148.65 230.31 142.79 232.55 142.79 232.55 92.4 231 92.4 231 91.02 231 87.92 232.55 87.92 232.55 84.81 192.34 87.92 154.38 91.02 154.38 92.4 154.38 142.79 154.38 148.65 177.16 148.65 177.16 142.79"/><polygon class="cls-4" points="703.62 176.44 703.62 173.5 703.62 172.81 672.9 172.81 672.9 173.5 669.8 173.5 669.8 176.44 669.8 198.7 675.15 198.7 675.15 199.56 675.15 203.87 675.15 204.22 669.8 204.22 669.8 253.57 675.15 253.57 675.15 254.26 675.15 255.47 710.35 255.47 710.35 254.26 712.08 254.26 712.08 253.57 712.08 204.22 712.08 203.87 710.35 203.87 710.35 199.56 712.08 199.56 712.08 198.7 712.08 176.44 703.62 176.44"/><polygon class="cls-4" points="235.83 204.05 230.13 204.05 230.13 198.18 182.51 198.18 182.51 204.05 176.99 204.05 176.99 237.69 176.99 251.5 177.5 251.84 177.5 252.88 182.51 252.88 182.51 258.57 177.5 258.57 177.5 259.61 176.99 259.95 176.99 305.85 182.16 305.85 182.16 316.21 176.99 316.21 176.99 317.58 181.13 317.58 182.51 316.21 192.52 305.85 237.55 259.95 238.07 259.61 238.93 258.57 241 256.67 235.31 256.67 235.31 258.57 229.79 258.57 229.79 252.88 235.31 252.88 235.31 254.95 242.56 254.95 244.63 252.88 245.66 251.84 246.01 251.5 259.47 237.69 259.47 204.05 259.47 198.18 235.83 198.18 235.83 204.05"/><polygon class="cls-4" points="341.78 252.88 346.95 252.88 346.95 255.12 370.76 255.12 370.76 252.88 370.76 223.37 370.76 204.05 370.76 198.18 346.95 198.18 346.95 204.05 341.08 204.05 341.08 198.18 338.15 198.18 332.11 204.05 312.1 223.37 341.78 252.88"/><polygon class="cls-4" points="403.03 255.12 423.56 255.12 423.56 253.57 423.56 203.35 423.56 198.18 403.03 198.18 403.03 203.35 394.4 203.35 394.4 198.18 372.32 198.18 372.32 203.35 372.32 253.57 372.32 255.12 394.4 255.12 394.4 253.57 403.03 253.57 403.03 255.12"/><polygon class="cls-4" points="341.08 254.6 340.05 253.57 335.39 248.91 334.87 248.39 324.18 237.69 310.89 224.58 297.25 237.69 286.39 248.39 286.9 248.91 282.07 253.57 280.69 254.95 280.35 254.6 280.17 254.43 280 254.6 279.65 254.95 279.48 255.12 283.28 255.12 283.28 254.95 283.28 253.57 291.91 253.57 291.91 254.6 291.91 255.12 341.08 255.12 341.08 254.6"/><polygon class="cls-4" points="710.35 257.19 675.15 257.19 675.15 258.57 675.15 259.26 669.8 259.26 669.8 306.89 670.49 306.89 670.49 308.27 674.46 308.27 674.46 308.96 674.46 313.44 674.46 313.96 670.49 313.96 670.49 315.17 669.8 315.17 669.8 361.24 674.29 361.24 674.29 363.14 674.29 369.7 674.29 370.9 698.44 370.9 698.44 369.7 709.49 369.7 709.49 363.14 712.08 363.14 712.08 361.24 712.08 315.17 712.08 313.96 712.08 313.44 709.66 313.44 709.66 308.96 712.08 308.96 712.08 308.27 712.08 306.89 712.08 259.26 712.08 258.57 710.35 258.57 710.35 257.19"/><polygon class="cls-4" points="342.64 307.58 342.64 258.57 341.08 258.57 341.08 256.67 316.41 256.67 316.41 258.57 316.41 307.58 316.41 313.27 316.41 315.17 342.64 315.17 342.64 313.27 341.08 313.27 341.08 307.58 342.64 307.58"/><polygon class="cls-4" points="453.76 259.95 453.76 258.57 449.62 258.57 449.62 258.05 449.62 256.67 449.62 252.88 453.76 252.88 453.76 251.67 454.45 251.67 454.45 250.81 454.45 204.05 449.62 204.05 449.62 198.18 427.36 198.18 427.36 204.05 427.36 250.81 425.12 250.81 425.12 251.67 425.12 252.88 425.12 256.67 403.03 256.67 403.03 258.05 399.75 258.05 399.75 258.57 399.75 259.95 399.75 307.92 399.75 308.27 402.34 308.27 402.34 311.03 424.08 311.03 424.08 312.41 424.08 314.31 446.69 314.31 449.28 312.41 449.28 311.03 449.28 308.27 449.28 307.92 454.45 307.92 454.45 259.95 453.76 259.95"/><polygon class="cls-4" points="393.89 313.27 393.89 308.27 398.03 308.27 398.03 307.58 398.03 258.57 398.03 258.05 394.4 258.05 394.4 256.67 346.95 256.67 346.95 258.05 346.95 258.57 344.36 258.57 344.36 307.58 346.95 307.58 346.95 308.27 346.95 313.27 344.36 313.27 344.36 315.17 393.89 315.17 393.89 313.27"/><polygon class="cls-4" points="287.94 312.58 287.94 315.17 314.86 315.17 314.86 312.58 314.86 308.27 314.86 306.02 314.86 273.58 314.86 258.05 314.86 256.67 291.91 256.67 291.91 258.05 283.28 258.05 283.28 256.67 277.76 256.67 276.38 258.05 260.5 273.58 260.5 306.02 260.5 315.17 284.49 315.17 284.49 306.02 289.49 306.02 289.49 308.27 292.25 308.27 292.25 312.58 287.94 312.58"/><polygon class="cls-4" points="619.24 313.96 613.55 313.96 613.55 313.62 613.55 307.92 564.54 307.92 564.54 313.62 562.64 313.62 562.64 313.96 562.64 341.05 619.24 341.05 619.24 313.96"/><polygon class="cls-4" points="559.54 365.21 559.54 365.04 559.54 361.24 560.92 361.24 560.92 360.9 560.92 342.95 560.92 315.69 560.92 313.62 558.85 313.62 558.85 313.44 558.85 307.92 508.81 307.92 508.81 313.44 505.7 313.44 504.32 313.44 504.32 313.27 504.32 307.92 454.45 307.92 454.45 313.27 450.83 313.27 450.48 313.44 450.31 313.62 447.72 315.69 447.72 342.95 449.97 342.95 449.97 360.9 449.97 361.07 453.76 361.07 453.76 364.87 455.14 364.87 455.14 365.04 455.14 372.11 449.97 372.11 449.97 380.91 505.7 380.91 505.7 372.11 503.46 372.11 503.46 365.04 504.32 365.04 504.32 364.87 504.32 361.07 504.32 360.9 508.81 360.9 508.81 361.24 508.81 365.04 510.88 365.04 510.88 365.21 510.88 370.73 510.88 372.11 507.43 372.11 507.43 380.91 560.06 380.91 560.06 372.11 560.06 370.73 556.09 370.73 556.09 365.21 559.54 365.21"/><polygon class="cls-4" points="614.06 365.21 614.06 361.24 619.24 361.24 619.24 344.5 562.64 344.5 562.64 361.24 563.85 361.24 563.85 365.21 565.92 365.21 565.92 369.52 561.78 369.52 561.78 369.7 561.78 380.91 619.24 380.91 619.24 369.7 614.06 369.7 614.06 369.52 614.06 365.21"/><polygon class="cls-4" points="180.61 412.14 181.99 413.87 181.99 416.63 181.99 420.6 229.27 420.6 229.27 416.63 234.79 416.63 234.79 420.6 258.95 420.6 258.95 416.63 258.95 413.87 258.95 412.14 258.95 360.38 231.17 360.38 180.61 412.14"/><polygon class="cls-4" points="339.01 417.67 342.98 417.67 342.98 415.6 348.68 415.6 374.56 390.06 345.05 360.38 316.24 360.38 316.24 390.06 316.24 415.6 316.24 417.67 316.24 420.08 339.01 420.08 339.01 417.67"/><polygon class="cls-4" points="289.84 420.08 314.34 420.08 314.34 416.63 314.34 367.63 314.34 360.72 314.34 360.38 288.28 360.38 288.28 360.72 290.18 360.72 290.18 367.63 284.49 367.63 284.49 361.93 286.39 361.93 286.39 360.38 260.5 360.38 260.5 361.93 260.5 367.63 260.5 416.63 260.5 420.6 283.97 420.6 283.97 416.63 289.84 416.63 289.84 420.08"/><polygon class="cls-4" points="672.04 472.37 671.01 471.33 647.71 447.87 640.98 441.13 639.95 440.27 637.53 437.86 635.12 440.27 634.25 441.13 626.66 441.13 626.66 440.27 620.11 440.27 620.11 441.13 617.17 441.13 617.17 433.71 618.21 433.71 618.21 425.08 618.21 424.91 618.21 423.02 613.03 423.02 613.03 422.84 613.03 421.98 613.03 417.84 613.03 417.15 618.21 417.15 618.21 414.73 561.26 414.73 561.26 417.15 561.26 417.84 565.4 417.84 565.4 421.98 561.26 421.98 561.26 422.84 554.36 422.84 554.36 416.46 552.98 416.46 552.98 414.73 509.32 414.73 509.32 416.46 509.32 422.84 509.32 423.02 509.32 424.91 502.94 424.91 502.94 414.73 454.28 414.73 454.28 424.91 454.28 425.08 448.24 425.08 448.24 414.73 400.79 414.73 400.79 425.08 394.75 425.08 394.75 422.32 394.75 416.8 394.75 414.73 398.89 414.73 396.47 412.14 375.77 391.44 354.72 412.14 352.3 414.73 350.06 416.8 350.06 422.32 344.71 422.32 344.71 425.08 344.71 433.71 344.71 441.13 344.71 447.87 344.71 471.33 350.06 471.33 350.06 472.37 350.06 478.06 340.22 478.06 340.22 480.99 338.32 480.99 338.32 478.4 338.32 475.13 331.77 475.13 331.77 478.4 329.35 478.4 329.35 477.37 329.35 475.13 289.66 475.13 289.66 477.37 286.04 477.37 286.04 478.4 286.04 480.99 286.04 509.29 286.04 512.23 286.04 514.3 286.04 520.68 286.04 526.72 289.66 526.72 289.66 527.58 289.66 532.24 286.04 532.24 286.04 541.73 286.04 544.66 286.04 583.14 289.66 583.14 289.66 584.87 289.66 588.67 285.7 588.67 302.43 605.23 301.74 605.92 308.82 613 331.42 635.26 331.6 635.6 332.11 635.95 332.46 635.6 332.63 635.26 332.97 635.6 333.67 636.29 334.36 636.98 335.05 637.85 338.5 641.3 338.5 637.85 338.5 636.98 346.95 636.98 346.95 637.85 346.95 641.3 393.2 641.3 393.2 637.85 392.68 637.85 392.68 636.98 395.79 636.98 395.79 636.29 396.47 636.29 396.47 636.98 399.24 636.98 399.24 637.85 398.89 637.85 398.89 641.3 412 641.3 412 637.85 412 636.98 412 636.29 412 635.6 412 635.26 412 613 421.15 613 421.15 605.92 421.15 605.23 421.15 588.67 421.15 584.87 394.75 584.87 394.75 583.14 394.75 544.66 386.98 544.66 386.98 541.73 394.75 541.73 394.75 532.24 394.75 527.58 395.27 527.58 395.27 526.72 395.27 520.68 396.65 520.68 396.65 514.3 395.27 514.3 395.27 512.23 496.21 512.23 496.21 509.29 504.49 509.29 504.49 512.05 507.08 512.23 507.08 518.09 507.08 520.68 507.08 538.28 507.08 555.19 507.08 584.36 507.08 584.87 479.82 584.87 479.82 606.27 479.82 606.79 479.82 613 489.14 613 489.14 635.6 489.14 635.95 489.14 636.98 489.14 641.3 501.9 641.3 501.9 636.98 507.6 636.98 507.6 641.3 554.36 641.3 554.36 636.98 562.99 636.98 562.99 641.3 567.3 636.98 568.34 635.95 568.68 635.6 569.03 635.95 569.2 636.12 569.2 635.95 569.55 635.6 592.15 613 598.36 606.79 597.85 606.27 619.59 584.87 620.11 584.36 620.11 555.19 603.37 538.28 621.14 520.68 623.9 518.09 626.49 520.68 632.87 527.24 638.57 533.28 640.47 535.35 669.97 535.35 672.04 533.28 667.56 533.28 667.56 527.24 672.04 527.24 672.04 520.68 672.04 518.09 672.04 512.23 672.04 512.05 672.04 509.29 672.04 480.99 672.04 478.06 666.18 478.06 666.18 472.37 672.04 472.37"/><path class="cls-5" d="M750.38,464.78V451.83l-11.9-11.73-11.74,11.73-5.35,5.35-5-5.35-16-16.22L679,413.87l-6-6.21,17.25-16.91,4.14,4.48,4.14,4V371.77h-29.5v-199h3.45V146.93H646.85v2.42H154.38v2.06h-3.1v187.4L130.4,359.52,129,360.9,133.5,365l-3.28,3.28v23.47h-4v3.44l.87,4.15,1.72,3.79,2.25,3.63,2.93,3.1.69.52,1.9,1.21.86.69,2.25,1.21,1.55.69,4.14,1.2,4.31.35H152v-2.24h23.64l1-1.21.86-.69,1.21-1.21,1.21,1.21,1.38-1.21.52-.52,2.93-3.1,3.45-3.63,3.8-3.79,4.14-4.15,3.28-3.44,22.78-23.47,3.27-3.28,4-4.14,1.38-1.38H345.4l21.91,22.08,9,9.15L393,407.66l6,6.21h220v25.37h14.32l3.8-3.63,16.22,16.22,5.17,5.35,7.77,7.6,7.59,7.59,10,10.18,4.31,4.14,4.14,4.14,3.8,4,3.62,3.62,1.56,1.55h13.11v9.67h18.64l4.14-.35,4.14-1,4-1.55,3.62-2.25,3.28-2.76,1.38-1.73,1.21-1.55,2.24-3.62,1.56-4,1-4.14.35-4.14V464.78Zm-266.25-287h33v10.35h36.24V177.82h86.45v24.67H617v52.63h21.22v-2.24h1.56v26.57H607.16v-10.7H571.1v10.7H510.53v-.69l-2.41-.17-.69-3.62-.18-3.8.52-3.8L506.05,266l-1.73-1.2-1.21,1.2-1.21-1.2-5-5.18,1.21-1.21L496,255.64v-.17l-.17-.35-.35-.34-1.55.34-1.9.35-.17.17-3.8-.17-3.62-.69-.18-57.46ZM176,197.32H260.5v40.89l-34.34,34.86-42.27,43.14-2.42,2.41H176Zm270.22,162.2V316.21H259.47V273.07l36.06-34.86,42.1-40.89H455.49V307.06H619.93V381.6H446.17Z"/><polygon class="cls-6" points="709.49 364.35 709.49 364.87 709.49 369.7 698.44 369.7 698.44 399.2 702.24 403.17 704.23 405.32 687.05 422.15 688.44 423.53 704.65 440.1 721.39 457.18 738.65 440.1 722.26 423.53 750.38 451.83 750.38 464.77 760.05 464.77 772.99 451.83 801.63 423.53 806.63 418.53 807.84 416.12 808.71 413.35 808.71 410.59 808.19 408 807.15 405.42 805.6 403.17 809.57 399.2 840.8 369.7 845.8 364.87 845.8 364.35 709.49 364.35"/><polygon class="cls-6" points="289.84 422.84 283.97 422.84 283.97 422.32 177.33 421.98 177.33 422.32 177.33 422.84 177.33 442 161.11 442 161.11 450.63 141.27 450.63 141.09 450.63 140.23 449.42 140.23 449.24 139.03 448.38 138.85 448.38 137.47 447.87 135.75 447.87 134.19 448.38 132.98 449.24 132.81 449.42 131.95 450.63 131.43 452.18 131.43 453.73 131.78 455.28 132.81 456.66 134.02 457.7 134.02 471.68 134.02 497.56 161.11 497.56 161.11 507.39 203.56 507.39 238.41 543.29 239.62 544.66 241.87 546.91 244.63 544.66 246.18 543.29 283.97 543.29 283.97 507.39 283.97 497.56 283.97 471.68 289.66 471.68 289.66 473.23 289.66 474.26 338.32 474.26 338.32 473.23 342.98 473.23 342.98 471.68 342.98 457.7 342.98 456.66 342.98 455.28 342.98 453.73 342.98 452.18 342.98 450.63 342.98 442 342.98 422.84 342.98 421.64 289.84 421.64 289.84 422.84"/><polygon class="cls-6" points="674.8 473.23 673.94 472.37 673.94 473.23 673.94 499.97 673.94 527.58 673.94 533.62 672.22 535.35 671.01 536.56 670.84 544.66 670.84 538.28 671.01 536.56 669.97 535.35 640.47 535.35 626.49 520.68 623.9 518.09 621.14 520.68 606.47 535.35 605.26 536.56 603.37 538.28 609.58 544.66 611.82 546.91 620.11 555.19 620.11 584.36 620.97 585.73 670.66 585.73 670.66 584.36 670.84 555.19 670.84 558.47 683.43 558.64 683.43 558.47 694.99 546.91 697.24 544.66 705.52 536.56 706.73 535.35 708.28 533.62 714.49 527.58 714.49 499.97 701.38 499.97 674.8 473.23"/><polygon class="cls-6" points="504.49 509.29 496.21 509.29 496.21 512.05 496.21 512.23 395.27 512.23 395.27 514.3 396.65 514.3 396.65 520.68 395.27 520.68 395.27 527.58 394.75 541.73 386.98 541.73 386.98 544.66 394.75 544.66 394.75 584.87 421.15 584.87 421.15 613 412 613 412 641.3 398.89 641.3 398.89 675.98 501.73 675.98 501.9 641.3 489.14 641.3 489.14 613 479.82 613 479.82 584.87 507.08 584.87 507.08 544.66 507.08 541.73 507.08 527.58 507.08 520.68 507.08 514.3 507.08 512.23 504.49 512.05 504.49 509.29"/><polygon class="cls-6" points="646.85 146.58 646.85 146.93 672.39 146.58 672.39 172.81 713.46 172.81 713.46 146.58 713.46 92.23 713.46 74.8 713.46 63.76 713.46 51.33 713.46 34.08 713.46 28.9 713.46 21.14 713.46 16.14 713.46 0.95 670.49 16.14 650.3 21.14 613.89 28.9 587.15 34.08 489.48 51.33 388.54 63.76 307.26 74.8 307.26 92.23 307.26 92.57 326.76 92.57 326.76 143.31 326.76 149.34 341.26 149.34 341.26 143.31 345.23 143.31 345.23 92.57 345.23 92.23 646.85 92.23 646.85 146.58"/><path class="cls-6" d="M151.28,321.55V151.41h1.38V89.3l-31.93,2.76.18,1.38-2.42-19.15L1,93.44,6.5,117.6,9.09,129l26.4,114.75.69,3.11,10,43-39,9.32,1.73,7.77,3.28,14.66,8.28,37.62.34,1.21,1.39,6.73.34,1,4.66-1,4,17.94,1.55,6.74,5.35-1.21L46,401.79l.69.86.86,1.39,1.21,1.55,1,1.55L51,408.7H85l-.35-1.56v-1.55l.52-1.55,1-1.39,1.38-.86V361.93h36.24v-1.21h5l.35-.34,1.38-1.21,20.71-20.36Z"/><g class="cls-2"><path d="M372.44,77.29a1.21,1.21,0,0,0-.2-.3h0l0,0a1.27,1.27,0,0,0-.27-.18,1.16,1.16,0,0,0-.37-.07h-3.28a.95.95,0,0,0,0,1.89h1l-6.05,6.05a1,1,0,0,0,0,1.34.94.94,0,0,0,1.34,0l6.05-6V81a.94.94,0,1,0,1.88,0V77.66A1,1,0,0,0,372.44,77.29Z"/><path d="M373.4,61.7h-6.9a.69.69,0,0,0-.7.69v3.69h-3.89a.7.7,0,0,0-.71.7v3.7h-3.89a.7.7,0,0,0-.7.7v3.73h-3.89a.71.71,0,0,0-.7.7V79.3h-3.89a.71.71,0,0,0-.71.71v3.68h-3.88a.71.71,0,0,0-.71.71v2.27a.7.7,0,0,0,.71.69h6.91a.69.69,0,0,0,.7-.69V82.93h3.9a.69.69,0,0,0,.69-.7V78.54h3.89a.7.7,0,0,0,.7-.71V74.15h3.9a.69.69,0,0,0,.69-.7V69.7h3.9a.7.7,0,0,0,.7-.69V65.32h3.88a.71.71,0,0,0,.71-.7V62.39A.7.7,0,0,0,373.4,61.7Z"/><path d="M363,85.68a.87.87,0,0,0,.2.31h0l0,0a1.06,1.06,0,0,0,.26.17,1.08,1.08,0,0,0,.38.08h3.28a1,1,0,0,0,0-1.9h-1l6.05-6a1,1,0,0,0-.67-1.62.91.91,0,0,0-.67.28l-6,6.05V82A.94.94,0,1,0,363,82v3.36A.92.92,0,0,0,363,85.68Z"/></g><g class="cls-2"><path d="M651.25,229.36a1,1,0,0,0-.21-.3h0l0,0a.85.85,0,0,0-.25-.17,1,1,0,0,0-.38-.07h-3.28a.94.94,0,1,0,0,1.88h1l-6,6.05a.93.93,0,0,0,0,1.34.88.88,0,0,0,.66.28.94.94,0,0,0,.67-.28l6-6.05v1.07a.95.95,0,1,0,1.89,0v-3.35A1,1,0,0,0,651.25,229.36Z"/><path d="M652.21,213.77H645.3a.7.7,0,0,0-.7.7v3.69h-3.89a.7.7,0,0,0-.71.7v3.69h-3.88a.7.7,0,0,0-.71.7V227h-3.88a.71.71,0,0,0-.71.71v3.69h-3.88a.7.7,0,0,0-.71.7v3.69h-3.89a.7.7,0,0,0-.7.7v2.27a.71.71,0,0,0,.7.7h6.91a.7.7,0,0,0,.7-.7V235h3.9a.7.7,0,0,0,.7-.7v-3.68h3.89a.7.7,0,0,0,.7-.71v-3.68H643a.7.7,0,0,0,.7-.7v-3.74h3.89a.71.71,0,0,0,.71-.7v-3.69h3.88a.7.7,0,0,0,.71-.7v-2.22A.7.7,0,0,0,652.21,213.77Z"/><path d="M641.84,237.76a1,1,0,0,0,.21.3h0l0,0a.76.76,0,0,0,.26.18,1,1,0,0,0,.38.08H646a.95.95,0,0,0,0-1.89h-1l6-6a.94.94,0,0,0-.67-1.61,1,1,0,0,0-.67.27l-6,6.05V234a1,1,0,0,0-.95-.95.94.94,0,0,0-.93.95v3.35A1.24,1.24,0,0,0,641.84,237.76Z"/></g><g class="cls-2"><path d="M741.29,152.84a.93.93,0,0,0-.2-.3h0s0,0,0,0a2.11,2.11,0,0,0-.27-.18,1.21,1.21,0,0,0-.37-.07h-3.28a.95.95,0,1,0,0,1.89h1l-6,6a.94.94,0,0,0,.66,1.61,1,1,0,0,0,.68-.27l6-6v1.08a.94.94,0,1,0,1.88,0v-3.36A.83.83,0,0,0,741.29,152.84Z"/><path d="M742.26,137.24h-6.91a.7.7,0,0,0-.69.71v3.69h-3.9a.7.7,0,0,0-.71.7V146h-3.88a.7.7,0,0,0-.71.7v3.73h-3.88a.71.71,0,0,0-.71.71v3.68H717a.71.71,0,0,0-.7.7v3.69H712.4a.71.71,0,0,0-.71.71v2.27a.7.7,0,0,0,.71.69h6.9a.69.69,0,0,0,.7-.69v-3.74h3.9a.71.71,0,0,0,.7-.7v-3.69h3.89a.7.7,0,0,0,.7-.7V149.7h3.9a.7.7,0,0,0,.69-.71v-3.73h3.89a.7.7,0,0,0,.71-.7v-3.69h3.88a.7.7,0,0,0,.7-.7V138A.7.7,0,0,0,742.26,137.24Z"/><path d="M731.89,161.23a1,1,0,0,0,.21.3h0l0,0a1.1,1.1,0,0,0,.28.18,1,1,0,0,0,.37.07h3.28a.95.95,0,1,0,0-1.89h-1l6-6a1,1,0,0,0-.67-1.62.88.88,0,0,0-.66.28l-6,6.05v-1.07a.95.95,0,1,0-1.89,0v3.35A.89.89,0,0,0,731.89,161.23Z"/></g><g class="cls-2"><path d="M328.29,59.9H310.35a3.69,3.69,0,0,0-3.69,3.68V85.65a3.68,3.68,0,0,0,3.69,3.67h17.94A3.67,3.67,0,0,0,332,85.65V63.58A3.68,3.68,0,0,0,328.29,59.9ZM329,85.65a.73.73,0,0,1-.73.73H310.35a.74.74,0,0,1-.74-.73V63.58a.74.74,0,0,1,.74-.74h17.94a.74.74,0,0,1,.73.74Z"/><path class="cls-7" d="M317.52,68.64A1.67,1.67,0,1,1,315.86,67,1.67,1.67,0,0,1,317.52,68.64Z"/><path class="cls-7" d="M316.61,82.34a.76.76,0,0,1-.75-.76V78.5c0-.42.1-.33-.22-.33s-.25-.09-.25.33v3.08a.76.76,0,0,1-.75.76h-.24a.76.76,0,0,1-.75-.76V78.49a.43.43,0,0,1,0-.12,1.61,1.61,0,0,1-.8-1.27l.16-4.85c.16-.92.67-1.51,1.51-1.51h2.25c.83,0,1.39.52,1.51,1.51l.17,4.85a1.73,1.73,0,0,1-.88,1.27s0,.08,0,.12v3.09a.76.76,0,0,1-.76.76Z"/><path class="cls-7" d="M324.21,68.64A1.67,1.67,0,1,1,322.55,67,1.67,1.67,0,0,1,324.21,68.64Z"/><path class="cls-7" d="M323.3,82.34a.76.76,0,0,1-.75-.76V78.5c0-.42.1-.33-.22-.33s-.25-.09-.25.33v3.08a.75.75,0,0,1-.75.76h-.24a.75.75,0,0,1-.74-.76V78.49a.45.45,0,0,1,0-.12,1.61,1.61,0,0,1-.8-1.27l.16-4.85c.16-.92.68-1.51,1.51-1.51h2.25a1.47,1.47,0,0,1,1.5,1.51l.18,4.85a1.73,1.73,0,0,1-.88,1.27s0,.08,0,.12v3.09a.76.76,0,0,1-.76.76Z"/><path d="M315.06,57.12a1.09,1.09,0,0,0,.35.07h0a.81.81,0,0,0,.31-.06,1.06,1.06,0,0,0,.31-.21l2.28-2.28a.93.93,0,1,0-1.31-1.32l-.71.7v-8.4a.93.93,0,0,0-.93-.94.87.87,0,0,0-.65.28.9.9,0,0,0-.28.66V54l-.74-.74a.93.93,0,0,0-1.32,1.32l2.34,2.33A.93.93,0,0,0,315.06,57.12Z"/><path d="M324.81,44.75a1.05,1.05,0,0,0-.35-.08h0a1.07,1.07,0,0,0-.32.07.79.79,0,0,0-.31.2l-2.28,2.29a.92.92,0,0,0,0,1.31.94.94,0,0,0,1.32,0l.7-.7v8.41a.92.92,0,0,0,.93.93.88.88,0,0,0,.65-.27.93.93,0,0,0,.28-.66V47.85l.74.74a.93.93,0,1,0,1.32-1.31L325.11,45A.69.69,0,0,0,324.81,44.75Z"/></g><g class="cls-2"><path d="M505.58,252.78H487.64a3.68,3.68,0,0,0-3.68,3.68v22.07a3.68,3.68,0,0,0,3.68,3.68h17.94a3.69,3.69,0,0,0,3.69-3.68V256.46A3.69,3.69,0,0,0,505.58,252.78Zm.74,25.75a.73.73,0,0,1-.74.73H487.64a.73.73,0,0,1-.74-.73V256.46a.74.74,0,0,1,.74-.73h17.94a.74.74,0,0,1,.74.73Z"/><path class="cls-7" d="M494.82,261.53a1.67,1.67,0,1,1-1.67-1.67A1.67,1.67,0,0,1,494.82,261.53Z"/><path class="cls-7" d="M493.9,275.23a.76.76,0,0,1-.75-.76v-3.09c0-.42.11-.32-.22-.32s-.24-.1-.24.32v3.09a.77.77,0,0,1-.76.76h-.23a.76.76,0,0,1-.75-.76v-3.09a.53.53,0,0,1,0-.13,1.6,1.6,0,0,1-.79-1.27l.16-4.85c.15-.92.67-1.5,1.5-1.5h2.25a1.47,1.47,0,0,1,1.51,1.5l.18,4.85a1.72,1.72,0,0,1-.89,1.27.53.53,0,0,1,0,.13v3.09a.76.76,0,0,1-.75.76Z"/><path class="cls-7" d="M501.51,261.53a1.67,1.67,0,1,1-1.68-1.67A1.68,1.68,0,0,1,501.51,261.53Z"/><path class="cls-7" d="M500.6,275.23a.77.77,0,0,1-.76-.76v-3.09c0-.42.11-.32-.22-.32s-.24-.1-.24.32v3.09a.77.77,0,0,1-.76.76h-.23a.76.76,0,0,1-.75-.76v-3.09a.53.53,0,0,1,0-.13,1.64,1.64,0,0,1-.8-1.27l.17-4.85c.15-.92.67-1.5,1.51-1.5h2.25a1.47,1.47,0,0,1,1.5,1.5l.18,4.85a1.72,1.72,0,0,1-.89,1.27.53.53,0,0,1,0,.13v3.09a.76.76,0,0,1-.75.76Z"/><path d="M492.35,250a.94.94,0,0,0,.36.08h.05a1.07,1.07,0,0,0,.3-.06.85.85,0,0,0,.31-.21l2.28-2.29a.92.92,0,0,0,0-1.31.94.94,0,0,0-1.32,0l-.7.7v-8.41a.93.93,0,0,0-.93-.93.89.89,0,0,0-.66.28.85.85,0,0,0-.27.65v8.41l-.75-.74a.93.93,0,0,0-1.31,1.31l2.33,2.33A.83.83,0,0,0,492.35,250Z"/><path d="M502.11,237.63a1.15,1.15,0,0,0-.36-.07h-.05a1.07,1.07,0,0,0-.3.06,1,1,0,0,0-.31.21l-2.28,2.28a.93.93,0,0,0,1.31,1.32l.7-.71v8.42a.93.93,0,0,0,.92.93,1,1,0,0,0,.94-.93v-8.42l.75.75a.93.93,0,1,0,1.31-1.31l-2.33-2.33A.9.9,0,0,0,502.11,237.63Z"/></g><g class="cls-2"><path d="M699.58,134.75h-18a3.68,3.68,0,0,0-3.67,3.68V160.5a3.68,3.68,0,0,0,3.67,3.68h18a3.68,3.68,0,0,0,3.68-3.68V138.43A3.68,3.68,0,0,0,699.58,134.75Zm.74,25.75a.74.74,0,0,1-.74.73h-18a.73.73,0,0,1-.73-.73V138.43a.73.73,0,0,1,.73-.73h18a.73.73,0,0,1,.74.73Z"/><path class="cls-7" d="M688.81,143.49a1.67,1.67,0,1,1-1.67-1.67A1.67,1.67,0,0,1,688.81,143.49Z"/><path class="cls-7" d="M687.9,157.19a.75.75,0,0,1-.75-.76v-3.08c0-.42.1-.32-.22-.32s-.25-.1-.25.32v3.08a.75.75,0,0,1-.75.76h-.23a.75.75,0,0,1-.75-.76v-3.08a.53.53,0,0,1,0-.13,1.61,1.61,0,0,1-.8-1.27l.17-4.84c.15-.93.67-1.51,1.5-1.51h2.25a1.47,1.47,0,0,1,1.51,1.51l.17,4.84a1.71,1.71,0,0,1-.88,1.27.53.53,0,0,1,0,.13v3.08a.75.75,0,0,1-.76.76Z"/><path class="cls-7" d="M695.51,143.49a1.67,1.67,0,1,1-1.68-1.67A1.68,1.68,0,0,1,695.51,143.49Z"/><path class="cls-7" d="M694.6,157.19a.75.75,0,0,1-.76-.76v-3.08c0-.42.1-.32-.22-.32s-.25-.1-.25.32v3.08a.75.75,0,0,1-.75.76h-.23a.75.75,0,0,1-.75-.76v-3.08a.53.53,0,0,1,0-.13,1.59,1.59,0,0,1-.8-1.27l.17-4.84c.15-.93.67-1.51,1.5-1.51h2.25c.83,0,1.39.51,1.51,1.51l.17,4.84a1.73,1.73,0,0,1-.88,1.27.53.53,0,0,1,0,.13v3.08a.75.75,0,0,1-.75.76Z"/><path d="M686.35,132a.87.87,0,0,0,.35.07h.06a.65.65,0,0,0,.3-.06,1.27,1.27,0,0,0,.31-.2l2.28-2.29a.93.93,0,1,0-1.31-1.31l-.7.7v-8.42a.93.93,0,0,0-1.86,0v8.42l-.74-.75a.93.93,0,0,0-1.32,1.32l2.34,2.33A.83.83,0,0,0,686.35,132Z"/><path d="M696.1,119.6a.84.84,0,0,0-.35-.07h0a.89.89,0,0,0-.31.06,1.06,1.06,0,0,0-.31.21l-2.28,2.28a.93.93,0,0,0,1.32,1.32l.7-.71v8.42a.93.93,0,0,0,1.59.65.91.91,0,0,0,.27-.65V122.7l.74.75a.93.93,0,0,0,1.32-1.32l-2.33-2.33A1.1,1.1,0,0,0,696.1,119.6Z"/></g><g class="cls-2"><path d="M329.74,187.18h-6.16a6.6,6.6,0,0,1,0-13.2h1l16.9-16.84a1.17,1.17,0,0,1,.84-.35h7a6.62,6.62,0,0,1,0,13.23h-1.93l-16.87,16.81A1.19,1.19,0,0,1,329.74,187.18Zm-6.16-10.83a4.23,4.23,0,0,0,0,8.45h5.67L346.11,168a1.19,1.19,0,0,1,.85-.35h2.42a4.24,4.24,0,0,0,0-8.47h-6.55L325.94,176a1.22,1.22,0,0,1-.85.34Z"/><path d="M351.45,176.56a.85.85,0,0,0-.21-.32h0l0,0a1.26,1.26,0,0,0-.28-.19,1.19,1.19,0,0,0-.4-.08H347a1,1,0,1,0,0,2h1.07l-6.45,6.44a1,1,0,0,0,0,1.43,1,1,0,0,0,1.43,0l6.44-6.45v1.14a1,1,0,1,0,2,0V177A.91.91,0,0,0,351.45,176.56Z"/><path d="M341.43,185.5a1.21,1.21,0,0,0,.22.32h0s0,0,0,0a1.41,1.41,0,0,0,.29.18,1.1,1.1,0,0,0,.4.08h3.49a1,1,0,0,0,0-2H344.8l6.44-6.45a1,1,0,0,0-.72-1.72,1,1,0,0,0-.71.3l-6.44,6.44v-1.14a1,1,0,1,0-2,0v3.57A1,1,0,0,0,341.43,185.5Z"/></g><g class="cls-2"><path d="M347.2,352.62H341a6.6,6.6,0,1,1,0-13.2h1L359,322.58a1.16,1.16,0,0,1,.83-.34h7a6.61,6.61,0,1,1,0,13.22h-1.93L348,352.28A1.2,1.2,0,0,1,347.2,352.62ZM341,341.8a4.22,4.22,0,0,0,0,8.44h5.66l16.87-16.81a1.22,1.22,0,0,1,.84-.35h2.43a4.24,4.24,0,0,0,0-8.47h-6.56L343.4,341.45a1.2,1.2,0,0,1-.85.35Z"/><path d="M368.91,342a1,1,0,0,0-.21-.32h0s0,0,0,0a1,1,0,0,0-.29-.18.93.93,0,0,0-.4-.09h-3.48a1,1,0,1,0,0,2h1.07l-6.45,6.44a1,1,0,0,0,0,1.43,1,1,0,0,0,1.43,0l6.44-6.45V346a1,1,0,1,0,2,0V342.4A.92.92,0,0,0,368.91,342Z"/><path d="M358.89,350.94a1.27,1.27,0,0,0,.22.33h0l0,0a1.21,1.21,0,0,0,.28.18,1,1,0,0,0,.41.08h3.49a1,1,0,0,0,0-2h-1.07l6.44-6.45a1,1,0,0,0-.72-1.72,1,1,0,0,0-.71.3l-6.44,6.44V347a1,1,0,0,0-2,0v3.57A1,1,0,0,0,358.89,350.94Z"/></g><g class="cls-2"><path d="M641.65,431.93h-6.16a6.6,6.6,0,1,1,0-13.19h1l16.9-16.85a1.16,1.16,0,0,1,.83-.34h7a6.62,6.62,0,0,1,0,13.23h-1.93l-16.87,16.81A1.21,1.21,0,0,1,641.65,431.93Zm-6.16-10.81a4.22,4.22,0,1,0,0,8.44h5.66L658,412.74a1.21,1.21,0,0,1,.84-.35h2.43a4.23,4.23,0,0,0,0-8.46h-6.56l-16.89,16.84a1.19,1.19,0,0,1-.84.35Z"/><path d="M663.36,421.32a1,1,0,0,0-.22-.33h0l0,0a.87.87,0,0,0-.28-.19,1.14,1.14,0,0,0-.4-.08h-3.49a1,1,0,1,0,0,2H660l-6.44,6.44a1,1,0,0,0,0,1.43,1,1,0,0,0,.7.3,1,1,0,0,0,.72-.3l6.44-6.45v1.15a1,1,0,0,0,2,0v-3.57A1,1,0,0,0,663.36,421.32Z"/><path d="M653.34,430.26a1,1,0,0,0,.22.32h0l0,0a1.31,1.31,0,0,0,.27.19,1.14,1.14,0,0,0,.4.08h3.5a1,1,0,0,0,1-1,1,1,0,0,0-1-1H656.7l6.44-6.44a1,1,0,0,0-1.42-1.43l-6.44,6.44v-1.14a1,1,0,0,0-2,0v3.57A1.09,1.09,0,0,0,653.34,430.26Z"/></g><path class="cls-8" d="M143.17,397.79l17.15-14.67L145.6,382l3-2.56,16.74,1.31L164,397.51l-3,2.56,1.19-14.71L145.06,400Z"/><path class="cls-8" d="M741.65,497.46,727,480.31,725.85,495l-2.56-3,1.32-16.74,16.77,1.33,2.56,3-14.71-1.19,14.63,17.14Z"/><path class="cls-9" d="M665.49,95.67a3.18,3.18,0,1,1-3.18-3.18A3.18,3.18,0,0,1,665.49,95.67Z"/><path class="cls-9" d="M663.75,120.36a1.43,1.43,0,0,1-1.43-1.43v-4.48c0-.79.2-.61-.42-.61s-.47-.18-.47.61v4.48a1.43,1.43,0,0,1-1.43,1.43h-.45a1.43,1.43,0,0,1-1.43-1.43v-4.49a1,1,0,0,1,0-.24,3.17,3.17,0,0,1-1.61-2.41l.41-9.24c.29-1.76,1.28-2.87,2.86-2.87h4.29c1.59,0,2.65,1,2.88,2.87l.32,9.24a3.25,3.25,0,0,1-1.68,2.41,1.94,1.94,0,0,1,0,.24v4.49a1.43,1.43,0,0,1-1.43,1.43Z"/><path class="cls-9" d="M672.48,55.36c0-.69.28-1.26.64-1.26h0c.35,0,.64.57.64,1.26V85.05c0,.69-.29,1.25-.64,1.25h0c-.36,0-.64-.56-.64-1.25Z"/><path class="cls-9" d="M666.19,78.69v4a1.43,1.43,0,0,1-1.44,1.43h-.44a1.43,1.43,0,0,1-1.43-1.43v-4h-1.13v4a1.44,1.44,0,0,1-1.44,1.43h-.44a1.44,1.44,0,0,1-1.44-1.43v-4a2.87,2.87,0,0,1-1.92-4.06l1.3-7.94c.43-2.17,1.68-3.24,3.75-3.24h1.25c2.07,0,2.92.85,3.75,3.24l1.62,7.94A2.94,2.94,0,0,1,666.19,78.69Z"/><path class="cls-9" d="M665.07,59.45a3.18,3.18,0,1,1-3.17-3.18A3.17,3.17,0,0,1,665.07,59.45Z"/><path class="cls-10" d="M689.56,57.47A2.61,2.61,0,1,1,687,54.86,2.6,2.6,0,0,1,689.56,57.47Z"/><path class="cls-10" d="M696.59,78.83a9.48,9.48,0,1,1-12.13-13.34l.18,2.07a7.51,7.51,0,1,0,10.93,8.57Z"/><path class="cls-10" d="M695.39,65.56a1,1,0,0,1,0,2h-4.81l.15,1.35a1.52,1.52,0,0,0,1.52,1.52h2.37a4.58,4.58,0,0,1,4.18,2.71l2.52,6.39a1.65,1.65,0,0,1,.16.71,1.68,1.68,0,0,1-1.68,1.68,1.66,1.66,0,0,1-1.5-.94L696,75.09a2.36,2.36,0,0,0-2.11-1.31h-4a4.25,4.25,0,0,1-4.15-3.38L685,63.11a2.42,2.42,0,0,1,2.55-2.55,2.69,2.69,0,0,1,2.56,2.55c.21,1.52.32,2.45.32,2.45Z"/><path class="cls-7" d="M236.19,172.05a1.45,1.45,0,1,1-1.45-1.45A1.45,1.45,0,0,1,236.19,172.05Z"/><path class="cls-11" d="M242.81,183.32c-1.66-.28-3.71-2.33-4.81-3.39a5.91,5.91,0,0,1-1.33-1.42c-.66-1.42-.22-4.16-2.14-4.1-.77,0-1.11.64-1.43,1.25a13.17,13.17,0,0,0-7.39-2.77V160.51l-8.3-4.64-7.83,4.73v24.89h2.19v-1.34a.38.38,0,0,1,.38-.38h4.44a.38.38,0,0,1,.38.38v1.34h8.74V176.1c4,.31,6.31,2.55,8.64,4.73,2.54,2.38,5.16,5.35,9.53,5.7H247v-2.89C245.26,183.49,244.08,183.53,242.81,183.32Zm-25.84-1a.38.38,0,0,1-.38.38h-4.44a.38.38,0,0,1-.38-.38v-1.76a.38.38,0,0,1,.38-.38h4.44a.38.38,0,0,1,.38.38Zm0-3.56a.38.38,0,0,1-.38.38h-4.44a.38.38,0,0,1-.38-.38V177a.38.38,0,0,1,.38-.38h4.44a.38.38,0,0,1,.38.38Zm6.55-6.65a.38.38,0,0,1-.37.38h-11a.38.38,0,0,1-.38-.38v-9.72a.38.38,0,0,1,.38-.38h11a.38.38,0,0,1,.37.38Z"/><polygon class="cls-4" points="445.87 326.22 408.18 326.22 425.19 368.5 445.87 368.45 445.87 326.22"/></g></g></g></svg>