<svg xmlns="http://www.w3.org/2000/svg" viewBox="0 0 790.01 200.5"><defs><style>.cls-1{fill:#f97500;}.cls-1,.cls-2{fill-rule:evenodd;}.cls-2,.cls-3{fill:#fff;}</style></defs><title>Ресурс 2</title><g id="Шар_2" data-name="Шар 2"><g id="Шар_1-2" data-name="Шар 1"><path class="cls-1" d="M145.43,88.12a23.64,23.64,0,1,1,23.64-23.64,23.64,23.64,0,0,1-23.64,23.64M97.78,78.61a13.52,13.52,0,0,1,3.81,9.6c-.34,8.41-12.52,10.71-5.18,18.07,2.29,2.3,6,6.44,8.36,8.28,5.77,4.56,9.42-8.24,19.72-6.2a12,12,0,0,1,8.43,6.75c4.54,10.6-5,14.39,12.25,13.76,16.16-.59,9.55-1,11.68-11.67,1.41-7,12-13,19.52-5.52a21,21,0,0,0,4.42,3.19c1.58,1.17,2.05,1.2,3.77.64,2.49-1.32,7.07-6.28,9.17-8.46,1.63-1.7,3.17-2.75,3.12-4.63,0-1.55-1.55-3.67-2.88-5.31-3.28-4.06-4.92-6.4-4.65-10.18.75-10.27,9.61-10.74,15.18-11.46,5.92-.77,5.25-2.35,5.31-7.08.18-15.11.84-14.08-7.16-15-3.06-.34-6.64-.58-9.27-3.39-3.52-3.76-4.19-7-3.67-10.38s3.16-6.11,5.67-9.32c3.62-4.64,1.42-5.56-2.41-9.6-1.7-1.79-7-7.52-8.78-7.76-5.31-.72-9.52,11.64-20.63,6.19-9.71-4.76-4.4-16-8.76-18.57C153.46-.22,142.6,0,139.88.07c-7.07.12-4.25,6.4-6,12.07-2.56,8.37-12.1,10.06-17.59,6.3-2.67-1.83-6.58-6.39-9.34-5.54-1.54.47-7.86,6.86-9.43,8.51-3.72,3.88-4.8,4.86-1,9.54,3.34,4.17,5.42,6.62,5.23,10.56a12.72,12.72,0,0,1-5,9.16c-3.23,2.23-7.11,2.29-10.23,2.55-5.82.48-5.12,2.64-5.31,6.83s-1.08,13.21,1.92,14.56C86.3,76,92.16,74.39,97.78,78.61Z"/><path class="cls-2" d="M187.07,159c6.44.09,6.48-1.32,7.32-6.24-10.56,0-92.5-.25-108.94-.25-4.39,0-5.29-.64-7.44,2.63-2.93,4.45-4.58,8.9.87,10.78a53.49,53.49,0,0,1,4.7-7.16c34.44,0,69.11-.25,103.49.25M63.59,90.1h15l114,0c.58,0,1.08,0,1.55,0,6.13,0,7.6-.15,6.72,3.3-2,7.87-2.41,7.79-14.61,7.91-25-.15-82.2-.13-105.26-.13-2.71,0-4.95-.05-6.6,0-7.22.24,1.86,19.7,4.06,23.37h13.4l95,.07c6.11,0,7.57-.41,6.79,3.21-1.65,7.66-2.37,7.42-12.3,7.69-20.51.56-84.24,0-100.27,0-10.24,0-11-.74-13.16-5.52C55.7,103.25,44.92,75,33.2,48c-3.07-7.08-1.65-6.4-9.77-6.58-5.8-.14-13.24.06-17,.09-10,0-6.17,5.42-3.35,12.12,3.47,8.26,4.76,11.11,10.23,11.24,3.63.09,9.94.66,8.39-5.16A2,2,0,0,0,21,58.46c-1.59-1.08-4.87.87-7.56-.89-1.45-1.08-3.88-6.71-5-9.83L21,47.88c4.52.06,4.48,0,6.22,3.87,7.64,16.87,37.43,89.89,39.33,90.76,5.75.5,47.51.65,81.26.49,13.43-.06,27.29-.39,40.56-.1,11,.24,11.28-12.72,13.62-24.94-11.49-.21-23.05-.19-34.62-.17-26.32,0-61,.37-76.85.22-6.41-.06-8,1.36-10.63-4.88-3-7,1.92-5.95,9.19-6,36.25-.15,71.71.23,107.69.46,9.6.06,10.24-9.6,12.72-23.47-39.41-.27-92.67-.08-133.64-.11-6.93-.12-8.51,1.3-11.15-4.94-3-7,1.92-5.95,9.62-6,31.26-.21,114.32,0,130.84.12,6.86,0,7.7-1.57,8.42-6.61-2.16,0-6.57,0-9.67,0-22.76.1-106.2-.17-137,0-3.42.09-5.66,0-7.32.09-7.22.24,1.86,19.7,4.06,23.37h13.4ZM62.8,176a9.42,9.42,0,1,1-9.42,9.42A9.42,9.42,0,0,1,62.8,176Zm0-5.7a15.12,15.12,0,1,1-15.12,15.12A15.12,15.12,0,0,1,62.8,170.26ZM171.35,176a9.42,9.42,0,1,1-9.42,9.42A9.42,9.42,0,0,1,171.35,176Zm0-5.7a15.12,15.12,0,1,1-15.12,15.12A15.12,15.12,0,0,1,171.35,170.26Z"/><path class="cls-3" d="M262,111.81q0,8.06-5.85,12.57t-15.87,4.51q-10.86,0-16.7-2.8v-6.85a43.89,43.89,0,0,0,8.18,2.51,43,43,0,0,0,8.77.92q7.1,0,10.69-2.69a8.84,8.84,0,0,0,3.59-7.5,9.63,9.63,0,0,0-1.27-5.2,11.85,11.85,0,0,0-4.26-3.74,59.66,59.66,0,0,0-9.08-3.88q-8.52-3-12.17-7.22t-3.65-10.9a13.55,13.55,0,0,1,5.3-11.23q5.3-4.18,14-4.18a41.35,41.35,0,0,1,16.75,3.34l-2.21,6.18a37.85,37.85,0,0,0-14.7-3.17q-5.64,0-8.81,2.42a8,8,0,0,0-3.17,6.72,10.31,10.31,0,0,0,1.17,5.2,11,11,0,0,0,3.95,3.72,49,49,0,0,0,8.5,3.74q9.6,3.42,13.22,7.35A14.46,14.46,0,0,1,262,111.81Z"/><path class="cls-3" d="M327.44,97.44q0,14.66-7.41,23.05t-20.61,8.39q-13.49,0-20.82-8.25t-7.33-23.28q0-14.91,7.35-23.11T299.5,66q13.15,0,20.54,8.35T327.44,97.44Zm-48.65,0q0,12.4,5.28,18.81t15.35,6.41q10.15,0,15.33-6.39t5.18-18.83q0-12.32-5.16-18.69T299.5,72.39q-10.15,0-15.43,6.41T278.79,97.44Z"/><path class="cls-3" d="M348.15,128.05h-7.1V67h34V73.3H348.15V95.65h25.31V102H348.15Z"/><path class="cls-3" d="M409.29,128.05h-7.1V73.3H382.85V67h45.77V73.3H409.29Z"/><path class="cls-3" d="M492.34,128.05,471.63,73.93h-.33q.58,6.43.58,15.28v38.84h-6.56V67H476l19.33,50.36h.33L515.19,67h10.61v61.05h-7.1V88.71q0-6.76.58-14.7h-.33l-20.88,54Z"/><path class="cls-3" d="M580.91,128.05l-7.6-19.42H548.84l-7.52,19.42h-7.18l24.14-61.3h6l24,61.3Zm-9.81-25.81L564,83.33q-1.38-3.59-2.84-8.81a79.2,79.2,0,0,1-2.63,8.81l-7.18,18.92Z"/><path class="cls-3" d="M603.76,102.66v25.39h-7.1V67H613.4q11.23,0,16.6,4.3t5.37,12.95q0,12.11-12.28,16.37l16.58,27.44h-8.39l-14.78-25.39Zm0-6.1h9.73q7.52,0,11-3t3.51-9q0-6.05-3.57-8.73T613,73.22h-9.23Z"/><path class="cls-3" d="M693.62,128.05h-8.35L663,98.44l-6.39,5.68v23.93h-7.1V67h7.1V97.27L684.31,67h8.39L668.15,93.52Z"/><path class="cls-3" d="M736,128.05H702V67h34V73.3H709.11V93h25.31v6.26H709.11V121.7H736Z"/><path class="cls-3" d="M770.68,128.05h-7.1V73.3H744.25V67H790V73.3H770.68Z"/><path class="cls-3" d="M237.66,168l-.49-2.3h-.12a6.81,6.81,0,0,1-2.41,2.06,7.36,7.36,0,0,1-3,.54,5.4,5.4,0,0,1-3.77-1.24,4.52,4.52,0,0,1-1.36-3.53q0-4.9,7.83-5.13l2.74-.09v-1a4.1,4.1,0,0,0-.82-2.81,3.37,3.37,0,0,0-2.62-.91,10.67,10.67,0,0,0-4.57,1.24l-.75-1.87a11.48,11.48,0,0,1,2.62-1,11.32,11.32,0,0,1,2.85-.37,6.16,6.16,0,0,1,4.29,1.28,5.36,5.36,0,0,1,1.39,4.12v11Zm-5.53-1.73a5,5,0,0,0,3.59-1.25,4.64,4.64,0,0,0,1.31-3.51v-1.46l-2.45.1a8.92,8.92,0,0,0-4.21.91,2.74,2.74,0,0,0-1.29,2.5,2.52,2.52,0,0,0,.8,2A3.33,3.33,0,0,0,232.12,166.29Z"/><path class="cls-3" d="M266.69,155.9a3.06,3.06,0,0,1-.91,2.4,5,5,0,0,1-2.54,1.1v.13a5.25,5.25,0,0,1,3,1.21,3.42,3.42,0,0,1,1,2.57,4.07,4.07,0,0,1-1.66,3.48A8.09,8.09,0,0,1,260.7,168h-7.12V151.85h7.09Q266.69,151.85,266.69,155.9Zm-2.39.24a1.75,1.75,0,0,0-.91-1.67,6,6,0,0,0-2.75-.49H256v4.56h4.14a6.6,6.6,0,0,0,3.2-.56A2,2,0,0,0,264.3,156.14Zm.46,7a2.06,2.06,0,0,0-1-1.91,6.74,6.74,0,0,0-3.3-.6H256V166h4.5Q264.76,166,264.76,163.14Z"/><path class="cls-3" d="M290.72,153.94h-5.25V168H283V153.94h-5.19v-2.09h12.89Z"/><path class="cls-3" d="M316.94,159.91a8.92,8.92,0,0,1-2,6.17,7,7,0,0,1-5.5,2.22,7.29,7.29,0,0,1-3.85-1,6.72,6.72,0,0,1-2.6-2.92,10.18,10.18,0,0,1-.91-4.45,8.9,8.9,0,0,1,2-6.16,7,7,0,0,1,5.49-2.21,6.84,6.84,0,0,1,5.39,2.26A8.88,8.88,0,0,1,316.94,159.91Zm-12.32,0a7.67,7.67,0,0,0,1.24,4.72,4.92,4.92,0,0,0,7.29,0,7.63,7.63,0,0,0,1.25-4.73,7.51,7.51,0,0,0-1.25-4.68,4.38,4.38,0,0,0-3.68-1.6,4.31,4.31,0,0,0-3.63,1.58A7.6,7.6,0,0,0,304.62,159.91Z"/><path class="cls-3" d="M338.69,165.65l.46-1.37.63-1.74,4.38-10.66h3.11V168H345.1V154.66l-.29.86-.86,2.26L339.78,168h-2l-4.17-10.27a30,30,0,0,1-1.08-3.08V168h-2.18V151.87h3l4.23,10.25A36.94,36.94,0,0,1,338.69,165.65Z"/><path class="cls-3" d="M371.5,168l-.49-2.3h-.12a6.81,6.81,0,0,1-2.41,2.06,7.36,7.36,0,0,1-3,.54,5.4,5.4,0,0,1-3.77-1.24,4.52,4.52,0,0,1-1.36-3.53q0-4.9,7.83-5.13l2.74-.09v-1a4.1,4.1,0,0,0-.82-2.81,3.37,3.37,0,0,0-2.62-.91,10.67,10.67,0,0,0-4.57,1.24l-.75-1.87a11.48,11.48,0,0,1,2.62-1,11.32,11.32,0,0,1,2.85-.37,6.16,6.16,0,0,1,4.29,1.28,5.36,5.36,0,0,1,1.39,4.12v11ZM366,166.29a5,5,0,0,0,3.59-1.25,4.64,4.64,0,0,0,1.31-3.51v-1.46l-2.45.1a8.92,8.92,0,0,0-4.21.91,2.74,2.74,0,0,0-1.29,2.5,2.52,2.52,0,0,0,.8,2A3.33,3.33,0,0,0,366,166.29Z"/><path class="cls-3" d="M398.32,153.94h-5.25V168h-2.45V153.94h-5.19v-2.09h12.89Z"/><path class="cls-3" d="M412.88,151.85V162.1l-.1,2.68,0,.84,8.75-13.78h3.05V168h-2.29v-9.88l0-1.95.07-1.92L413.63,168h-3.05V151.85Z"/><path class="cls-3" d="M441.87,158.56q4.59,0,4.59-2.54t-3.72-2.39a9.53,9.53,0,0,0-2.06.21,15.78,15.78,0,0,0-2.43.83l-.87-2a13.26,13.26,0,0,1,5.47-1.12,7.47,7.47,0,0,1,4.4,1.14,3.63,3.63,0,0,1,1.61,3.12q0,2.71-3,3.55v.12a5.48,5.48,0,0,1,2.71,1.56,3.78,3.78,0,0,1,.86,2.53,4,4,0,0,1-1.81,3.49,8.69,8.69,0,0,1-5,1.25,11.35,11.35,0,0,1-5.4-1V165a12.72,12.72,0,0,0,5.46,1.27,5.77,5.77,0,0,0,3.21-.73,2.38,2.38,0,0,0,1.08-2.1q0-2.82-4.59-2.82h-2.24v-2.08Z"/><path class="cls-3" d="M472.38,168l-.49-2.3h-.12a6.81,6.81,0,0,1-2.41,2.06,7.36,7.36,0,0,1-3,.54,5.4,5.4,0,0,1-3.77-1.24,4.52,4.52,0,0,1-1.36-3.53q0-4.9,7.83-5.13l2.74-.09v-1a4.1,4.1,0,0,0-.82-2.81,3.37,3.37,0,0,0-2.62-.91,10.67,10.67,0,0,0-4.57,1.24L463,153a11.48,11.48,0,0,1,2.62-1,11.32,11.32,0,0,1,2.85-.37,6.16,6.16,0,0,1,4.29,1.28,5.36,5.36,0,0,1,1.39,4.12v11Zm-5.53-1.73a5,5,0,0,0,3.59-1.25,4.64,4.64,0,0,0,1.31-3.51v-1.46l-2.45.1a8.92,8.92,0,0,0-4.21.91,2.74,2.74,0,0,0-1.29,2.5,2.52,2.52,0,0,0,.8,2A3.33,3.33,0,0,0,466.85,166.29Z"/><path class="cls-3" d="M504.07,173.6h-2.45V168H488.3V151.85h2.45V165.9h8.58V151.85h2.45V165.9h2.29Z"/><path class="cls-3" d="M518.57,151.85V162.1l-.1,2.68,0,.84,8.75-13.78h3.05V168h-2.29v-9.88l0-1.95.07-1.92L519.33,168h-3.05V151.85Z"/><path class="cls-3" d="M545.29,168h-2.86l4.65-6.83a5,5,0,0,1-2.87-1.6,4.49,4.49,0,0,1-1-3,4.33,4.33,0,0,1,1.49-3.48,6.22,6.22,0,0,1,4.16-1.27h7.2V168h-2.45v-6.46h-4.09Zm.31-11.39q0,2.8,4.07,2.8h3.94V154h-4.44Q545.6,154,545.6,156.62Z"/><path class="cls-3" d="M598.12,153.94h-5.25V168h-2.45V153.94h-5.19v-2.09h12.89Z"/><path class="cls-3" d="M624.34,159.91a8.92,8.92,0,0,1-2,6.17,7,7,0,0,1-5.5,2.22,7.29,7.29,0,0,1-3.85-1,6.72,6.72,0,0,1-2.6-2.92,10.18,10.18,0,0,1-.91-4.45,8.9,8.9,0,0,1,2-6.16,7,7,0,0,1,5.49-2.21,6.84,6.84,0,0,1,5.39,2.26A8.88,8.88,0,0,1,624.34,159.91Zm-12.32,0a7.67,7.67,0,0,0,1.24,4.72,4.92,4.92,0,0,0,7.29,0,7.63,7.63,0,0,0,1.25-4.73,7.51,7.51,0,0,0-1.25-4.68,4.38,4.38,0,0,0-3.68-1.6,4.31,4.31,0,0,0-3.63,1.58A7.6,7.6,0,0,0,612,159.91Z"/><path class="cls-3" d="M645.22,168.31a7,7,0,0,1-2.88-.58,5.42,5.42,0,0,1-2.19-1.79H640a21.66,21.66,0,0,1,.18,2.68v6.65h-2.45V151.85h2l.34,2.21h.12a5.69,5.69,0,0,1,2.2-1.92,6.69,6.69,0,0,1,2.88-.59,6,6,0,0,1,5,2.2,11.7,11.7,0,0,1,0,12.35A6,6,0,0,1,645.22,168.31Zm-.35-14.68a4.34,4.34,0,0,0-3.58,1.37,7.05,7.05,0,0,0-1.14,4.37v.55q0,3.41,1.14,4.88a4.32,4.32,0,0,0,3.64,1.47,3.79,3.79,0,0,0,3.28-1.7,8,8,0,0,0,1.19-4.68,7.75,7.75,0,0,0-1.19-4.64A3.91,3.91,0,0,0,644.86,153.63Z"/><path class="cls-3" d="M675,153.94h-7.29V168h-2.45V151.85H675Z"/><path class="cls-3" d="M701.22,159.91a8.92,8.92,0,0,1-2,6.17,7,7,0,0,1-5.5,2.22,7.29,7.29,0,0,1-3.85-1,6.72,6.72,0,0,1-2.6-2.92,10.18,10.18,0,0,1-.91-4.45,8.9,8.9,0,0,1,2-6.16,7,7,0,0,1,5.49-2.21,6.84,6.84,0,0,1,5.39,2.26A8.88,8.88,0,0,1,701.22,159.91Zm-12.32,0a7.67,7.67,0,0,0,1.24,4.72,4.92,4.92,0,0,0,7.29,0,7.63,7.63,0,0,0,1.25-4.73,7.51,7.51,0,0,0-1.25-4.68,4.38,4.38,0,0,0-3.68-1.6,4.31,4.31,0,0,0-3.63,1.58A7.6,7.6,0,0,0,688.9,159.91Z"/><path class="cls-3" d="M727.69,155.9a3.06,3.06,0,0,1-.91,2.4,5,5,0,0,1-2.54,1.1v.13a5.25,5.25,0,0,1,3,1.21,3.42,3.42,0,0,1,1,2.57,4.07,4.07,0,0,1-1.66,3.48A8.09,8.09,0,0,1,721.7,168h-7.12V151.85h7.09Q727.69,151.85,727.69,155.9Zm-2.39.24a1.75,1.75,0,0,0-.91-1.67,6,6,0,0,0-2.75-.49H717v4.56h4.14a6.6,6.6,0,0,0,3.2-.56A2,2,0,0,0,725.3,156.14Zm.46,7a2.06,2.06,0,0,0-1-1.91,6.74,6.74,0,0,0-3.3-.6H717V166h4.5Q725.75,166,725.75,163.14Z"/><path class="cls-3" d="M752.87,168h-2.48V153.94h-4.85a58.85,58.85,0,0,1-1.11,8.33,11.63,11.63,0,0,1-1.84,4.51,3.5,3.5,0,0,1-2.87,1.43,3.7,3.7,0,0,1-1.27-.18v-1.81a2.8,2.8,0,0,0,.74.09q1.7,0,2.7-3.58a59.17,59.17,0,0,0,1.52-10.89h9.45Z"/><path class="cls-3" d="M769.43,151.85V162.1l-.1,2.68,0,.84L778,151.85h3.05V168h-2.29v-9.88l0-1.95.07-1.92L770.18,168h-3.05V151.85Z"/></g></g></svg>