<svg height="512pt" viewBox="-42 0 512 512.00035" width="512pt" xmlns="http://www.w3.org/2000/svg"><path d="m327.625 69.796875-113.25 37.75-113.253906-37.75c-4.316406-1.441406-8.984375.890625-10.425782 5.210937-1.4375 4.316407.894532 8.988282 5.214844 10.425782l115.855469 38.617187c.84375.285157 1.730469.429688 2.609375.429688.875 0 1.761719-.144531 2.605469-.429688l115.855469-38.617187c4.320312-1.4375 6.652343-6.109375 5.214843-10.425782-1.441406-4.320312-6.109375-6.652343-10.425781-5.210937zm0 0" fill="#db4655"/><path d="m308.484375 24.582031-19.753906-19.75c-7.09375-7.097656-18.828125-6.265625-24.851563 1.765625 0 0-49.503906 66.003906-49.507812 66l-49.503906-66c-6.019532-8.027344-17.757813-8.863281-24.851563-1.765625l-19.753906 19.75c-7.09375 7.097657-6.261719 18.832031 1.765625 24.855469l72.015625 54.011719 41.050781-.292969 71.625-53.71875c8.027344-6.023438 8.863281-17.757812 1.765625-24.855469zm0 0" fill="#db4655"/><path d="m214.375 99.746094 84.632812-84.636719-10.277343-10.277344c-7.09375-7.097656-18.828125-6.265625-24.851563 1.765625 0 0-49.503906 66.003906-49.507812 66l-49.503906-66c-6.019532-8.027344-17.757813-8.863281-24.851563-1.765625l-10.277344 10.277344zm0 0" fill="#e5646e"/><path d="m412.257812 116.234375h-395.769531c-9.105469 0-16.488281 7.382813-16.488281 16.488281v74.207032c0 4.554687 3.691406 8.246093 8.246094 8.246093h412.253906c4.554688 0 8.246094-3.691406 8.246094-8.246093v-74.207032c0-9.105468-7.382813-16.488281-16.488282-16.488281zm0 0" fill="#ffc269"/><path d="m8.246094 215.175781v280.335938c0 9.105469 7.382812 16.488281 16.488281 16.488281h379.277344c9.105469 0 16.488281-7.382812 16.488281-16.488281v-280.335938zm0 0" fill="#ffa95f"/><path d="m420.5 231.667969v-16.492188h-412.253906v280.335938c0 9.105469 7.382812 16.488281 16.488281 16.488281h16.492187v-197.882812c0-45.535157 36.914063-82.449219 82.449219-82.449219zm0 0" fill="#ff8b5a"/><path d="m41.226562 182.195312v-65.960937h-24.738281c-9.105469 0-16.488281 7.382813-16.488281 16.488281v74.207032c0 4.554687 3.691406 8.246093 8.246094 8.246093h412.253906c4.554688 0 8.246094-3.691406 8.246094-8.246093v-8.246094h-371.03125c-9.105469.003906-16.488282-7.378906-16.488282-16.488282zm0 0" fill="#ffa95f"/><path d="m234.984375 95.621094c0 11.386718-9.226563 20.613281-20.609375 20.613281-11.386719 0-20.613281-9.226563-20.613281-20.613281 0-11.382813 9.226562-20.613282 20.613281-20.613282 11.382812 0 20.609375 9.230469 20.609375 20.613282zm0 0" fill="#ff8086"/><path d="m189.636719 116.234375h49.472656v395.765625h-49.472656zm0 0" fill="#e5646e"/><path d="m189.636719 198.6875h49.472656v32.980469h-49.472656zm0 0" fill="#db4655"/><path d="m224.679688 105.929688c-11.382813 0-20.613282-9.230469-20.613282-20.613282 0-3.019531.65625-5.898437 1.824219-8.484375-7.160156 3.230469-12.132813 10.425781-12.132813 18.789063 0 11.382812 9.230469 20.613281 20.613282 20.613281 8.363281 0 15.5625-4.96875 18.792968-12.128906-2.582031 1.167969-5.464843 1.824219-8.484374 1.824219zm0 0" fill="#e5646e"/></svg>