<svg xmlns="http://www.w3.org/2000/svg" xmlns:xlink="http://www.w3.org/1999/xlink" viewBox="0 0 111.132 137.477"><defs><style>.a{fill:url(#a);}.b{fill:rgba(255,255,255,0.69);stroke:#554b65;stroke-width:2px;}.c{fill:#554b65;}.d{filter:url(#b);}</style><linearGradient id="a" y1="0.031" x2="0.731" y2="1.034" gradientUnits="objectBoundingBox"><stop offset="0" stop-color="#d9acb1"/><stop offset="1" stop-color="#a7a1a1"/></linearGradient><filter id="b" x="0.783" y="0" width="110.349" height="137.477" filterUnits="userSpaceOnUse"><feOffset dx="10" dy="3" input="SourceAlpha"/><feGaussianBlur stdDeviation="10" result="c"/><feFlood flood-opacity="0.161"/><feComposite operator="in" in2="c"/><feComposite in="SourceGraphic"/></filter></defs><g transform="translate(-2356 -2219.399)"><rect class="a" width="100" height="100" transform="translate(2356 2236)"/><g class="d" transform="matrix(1, 0, 0, 1, 2356, 2219.4)"><path class="b" d="M2345.1,2296.355s-10.1-33.673-14.138-35.716c-2.779-1.41,29.379-8.95,26.788-8.185-6.921,2.037-13,11.421,5.951,33.111,33.485,38.322,1.86,42.043,1.86,42.043s-20.835,3.349-24.928-17.487,12.65-13.766,12.65-13.766,23.812,10.045,12.278,11.162-12.278,18.432-12.278,18.432" transform="translate(-2309 -2224.4)"/></g><circle class="c" cx="2" cy="2" r="2" transform="translate(2390 2256)"/></g></svg>