<svg xmlns="http://www.w3.org/2000/svg" viewBox="0 0 1278.404 1041.476"><defs><style>.a{fill:#394b5b;}.b{fill:#fff;}.c{fill:#eb4747;}.d{fill:#364450;}</style></defs><g transform="translate(1372 -2689.661)"><path class="a" d="M0,58.53,325.631-105.339,790.357,36.215l464.726,85.467V825.457H0Z" transform="translate(-1372 2795)"/><circle class="b" cx="156.341" cy="156.341" r="156.341" transform="translate(-1309.775 2707.3)"/><path class="c" d="M-126.988,303.084,775.261,84.342V400.3L-54.074,337.8Z" transform="translate(-891.864 3066.846)"/><circle cx="48.225" cy="48.225" r="48.225" transform="translate(-1152.656 2848.863)"/><path class="b" d="M0,28.716,93.461,0l1.223,35.011,14.58,26.749.922,26.392L86.5,88.979,62.4,81.71l-22.96-8.485L14.094,52.306Z" transform="matrix(0.999, 0.035, -0.035, 0.999, -428.534, 3198.677)"/><path class="b" d="M0,19.346,78.242,0,84,31.651l9.639,23.524V71.43H68.387L26.307,51.787,7.6,39.636Z" transform="translate(-530.149 3232.282)"/><path class="b" d="M0,27.128,98.97,0,89.487,37.929,98.97,77.7H77.178L53.44,69.79,21.07,48.21Z" transform="translate(-649.933 3254.565)"/><path class="b" d="M0,21.853,94.077,0,108.3,42.67l-6.884,39.756L30.862,58.474Z" transform="translate(-758.827 3284.592)"/><path class="b" d="M0,17.929,72.767,0l-7.1,57.15L30.7,45.72Z" transform="translate(-852.165 3311.423)"/><path class="b" d="M0,13.339,54.14,0,48.857,42.52l-26.012-8.5Z" transform="translate(-926.836 3334.758)"/><path class="b" d="M0,30.988,108.643,0l1.421,37.782,16.949,28.865,1.071,28.48-27.532.893-28.02-7.844-26.69-9.156L16.384,56.446Z" transform="matrix(0.999, 0.035, -0.035, 0.999, -299.416, 3164.454)"/><path class="b" d="M0,30.988,108.643,0l1.421,37.782,16.949,28.865,1.071,28.48-27.532.893-28.02-7.844-26.69-9.156L16.384,56.446Z" transform="translate(-126.437 3496.365) rotate(-160)"/><path class="b" d="M0,24.544,86.05,0l1.126,29.925L100.6,52.788l.849,22.558-21.807.707L57.449,69.84,36.31,62.588,12.977,44.708Z" transform="translate(-260.221 3479.253) rotate(-160)"/><path class="b" d="M0,17.753,62.24,0l.814,21.645,9.71,16.537L73.378,54.5,57.6,55.009,41.553,50.515,26.263,45.27,9.386,32.337Z" transform="translate(-380.005 3466.808) rotate(-160)"/><path class="b" d="M0,12.871,45.125,0l.59,15.693,7.04,11.989L53.2,39.512l-11.436.371L30.127,36.625l-11.086-3.8L6.805,23.445Z" transform="translate(-468.969 3453.685) rotate(-160)"/><path class="b" d="M0,8.838,30.987,0l.405,10.776,4.834,8.233.306,8.123-7.853.255L20.688,25.15l-7.612-2.611L4.673,16.1Z" transform="translate(-551.418 3444.351) rotate(-160)"/><path class="b" d="M0,8.838,30.987,0l.405,10.776,4.834,8.233.306,8.123-7.853.255L20.688,25.15l-7.612-2.611L4.673,16.1Z" transform="translate(-594.975 3439.684) rotate(-160)"/><path class="b" d="M0,6.938,24.323,0l.318,8.459,3.795,6.463.24,6.376-6.164.2-6.273-1.756-5.975-2.05-6.6-5.054Z" transform="translate(-650.978 3435.017) rotate(-160)"/><path class="d" d="M88.27,84.362,125.748,0,78.509,230.955,0,342.5Z" transform="matrix(0.883, 0.469, -0.469, 0.883, -820.032, 2795.701)"/><path class="d" d="M67.3,154.384,125.748,0,78.509,230.955,0,342.5l15-77.781Z" transform="matrix(0.883, 0.469, -0.469, 0.883, -835.588, 2893.706)"/><path class="d" d="M154.368,159.294,280.9,0,0,546.33l2.846-61.385L48.37,389.631Z" transform="translate(-302.864 2937.16) rotate(49)"/><path class="d" d="M230.689,137.8,345.245,0,5.131,696.078,0,694.005,69.991,510.795l31.3-77.469Z" transform="translate(-759.836 3731.137) rotate(-112)"/></g></svg>