<svg xmlns="http://www.w3.org/2000/svg" viewBox="0 0 1917.93 348"><defs><style>.cls-1{fill:#fff;}</style></defs><title>Ресурс 1</title><g id="Шар_2" data-name="Шар 2"><g id="Шар_1-2" data-name="Шар 1"><path class="cls-1" d="M1917.93,0V348H0a310.1,310.1,0,0,1,30.8-17c157.77-77,323-132.61,493.82-172a2287.6,2287.6,0,0,1,308-49.28c52-4.71,104-8.15,156.18-8.44,46.14-.26,92.33.33,138.43,2.11,36.09,1.4,72.12,4.91,108.13,8,36.17,3.13,72.23,7.77,108.44,10.25,44.53,3.05,89.15,5.43,133.77,6.55,79.59,2,158.91-1.58,237.39-16.29,39.36-7.38,77.91-17.7,114.27-34.87C1865.93,59.71,1898.95,37.88,1917.93,0Z"/></g></g></svg>