<svg id="Layer_1" data-name="Layer 1" xmlns="http://www.w3.org/2000/svg" xmlns:xlink="http://www.w3.org/1999/xlink" viewBox="0 0 119 69"><defs><style>.cls-1{fill:none;}.cls-2,.cls-51{fill:#151310;}.cls-3{clip-path:url(#clip-path);}.cls-4{fill:#ffebca;}.cls-5{fill:#878e54;}.cls-6{fill:#ee7e22;}.cls-7{fill:#f8b333;}.cls-8{fill:#ce7228;}.cls-9{fill:#e21f26;}.cls-10{fill:#c73427;}.cls-11{fill:#58baa3;}.cls-12{fill:#467256;}.cls-13{fill:#c0c1ac;}.cls-14{fill:#928557;}.cls-15{fill:#6b5f4f;}.cls-16{fill:#423537;}.cls-17{fill:#8f5823;}.cls-18{fill:#35261c;}.cls-19{fill:#963220;}.cls-20{fill:#34201a;}.cls-21{fill:#46513b;}.cls-22{fill:#1c2519;}.cls-23{fill:#1d2217;}.cls-24{fill:#251812;}.cls-25{fill:#ea5273;}.cls-26{fill:#ce2127;}.cls-27{fill:#b72025;}.cls-28{fill:#d02027;}.cls-29{fill:#911c1d;}.cls-30{fill:#9abdc1;}.cls-31{fill:#227654;}.cls-32{fill:#134235;}.cls-33{fill:#1e281a;}.cls-34{fill:#1b1e15;}.cls-35{fill:#161612;}.cls-36{fill:#752e42;}.cls-37{fill:#6f221c;}.cls-38{fill:#791f1e;}.cls-39{fill:#24211f;}.cls-40{fill:#3f2a23;}.cls-41{fill:#271d1c;}.cls-42{fill:#3f2722;}.cls-43{fill:#321d18;}.cls-44{fill:#201b18;}.cls-45{fill:#5f2421;}.cls-46{fill:#1b1c16;}.cls-47{fill:#1b1512;}.cls-48{fill:#351e1a;}.cls-49{fill:#2b2524;}.cls-50{fill:#0b0f0b;}.cls-51{fill-rule:evenodd;}</style><clipPath id="clip-path"><path class="cls-1" d="M28.19,40.62a8.6,8.6,0,0,1,0-12.24,8.76,8.76,0,0,1,12.33,0,8.62,8.62,0,0,1,0,12.24,8.78,8.78,0,0,1-12.33,0M24.07,24.3a14.34,14.34,0,0,0,0,20.4,14.62,14.62,0,0,0,20.57,0,14.34,14.34,0,0,0,0-20.4,14.62,14.62,0,0,0-20.57,0"/></clipPath></defs><title>site-mobille-elementos</title><path class="cls-2" d="M57,36a2.08,2.08,0,0,1-2.18-1.83V30.89A2.07,2.07,0,0,1,57,29.07H58.1A2.14,2.14,0,0,1,60,30.28l-1.21.65a1,1,0,0,0-.83-.57H57a.86.86,0,0,0-.88.77V33.9a.86.86,0,0,0,.88.77h.91a1,1,0,0,0,.83-.58l1.23.63A2.16,2.16,0,0,1,58.1,36Z"/><polygon class="cls-2" points="61.29 34.7 62.59 34.71 62.59 30.32 61.3 30.32 61.3 29.06 65.26 29.06 65.26 30.32 63.95 30.32 63.95 34.71 65.26 34.71 65.26 35.96 61.29 35.96 61.29 34.7"/><path class="cls-2" d="M67.46,36a.88.88,0,0,1-.9-1V30a.88.88,0,0,1,.9-1h2.21a2.07,2.07,0,0,1,2.19,1.82v3.24A2.09,2.09,0,0,1,69.67,36Zm3-4.82a.86.86,0,0,0-.88-.78H67.92v4.3h1.67a.86.86,0,0,0,.88-.78Z"/><path class="cls-2" d="M77.6,34.56H74.89l-.52,1.37H72.9l2.37-6.18c.19-.48.49-.8,1-.8a1,1,0,0,1,1,.8l2.36,6.18H78.12Zm-2.21-1.31H77.1L76.24,31Z"/><path class="cls-2" d="M81.52,35.93a.87.87,0,0,1-.9-1V30a.88.88,0,0,1,.91-1h2.2a2.07,2.07,0,0,1,2.19,1.82V34.1a2.08,2.08,0,0,1-2.19,1.83Zm3-4.82a.86.86,0,0,0-.88-.78H82v4.3h1.67a.85.85,0,0,0,.87-.77Z"/><path class="cls-2" d="M87.22,35V30a.87.87,0,0,1,.9-1h4v1.3H88.59v1.49h2.79v1.3h-2.8v1.51h3.5v1.3h-4a.87.87,0,0,1-.9-1"/><path class="cls-2" d="M55.48,44.74c-.36,0-.58-.24-.58-.69V38.54c0-.44.23-.68.59-.68H58a1.91,1.91,0,0,1,2,1.62v3.63a1.9,1.9,0,0,1-2,1.63Zm3.78-5a1.37,1.37,0,0,0-1.4-1.27H55.58v5.59h2.28a1.39,1.39,0,0,0,1.41-1.27Z"/><path class="cls-2" d="M63.53,44.74a1.9,1.9,0,0,1-2-1.63V39.5a1.9,1.9,0,0,1,2-1.64h1a1.9,1.9,0,0,1,2,1.64v3.61a1.9,1.9,0,0,1-2,1.63Zm2.4-5a1.38,1.38,0,0,0-1.4-1.27h-1a1.38,1.38,0,0,0-1.4,1.27v3a1.38,1.38,0,0,0,1.4,1.28h1a1.38,1.38,0,0,0,1.4-1.27Z"/><path class="cls-2" d="M69.49,42.34v2.4H68.11V38.82a.88.88,0,0,1,.91-1h2.25a2,2,0,0,1,2.17,2v.37A2.16,2.16,0,0,1,71,42.35Zm2.56-2.45a.76.76,0,0,0-.83-.73H69.49V41h1.73a.81.81,0,0,0,.83-.74Z"/><path class="cls-2" d="M76.93,44.75a2.08,2.08,0,0,1-2.19-1.83V39.68a2.07,2.07,0,0,1,2.19-1.82h.94a2.06,2.06,0,0,1,2.18,1.82v3.24a2.08,2.08,0,0,1-2.19,1.83Zm1.77-4.82a.86.86,0,0,0-.87-.78H77a.85.85,0,0,0-.87.78v2.74a.87.87,0,0,0,.87.79h.85a.88.88,0,0,0,.88-.79Z"/><path class="cls-2" d="M87,44.75H85.51l-1-2.54H83v2.53H81.63V38.83a.88.88,0,0,1,.91-1h2.24a2,2,0,0,1,2.16,2v.22a2,2,0,0,1-1.06,1.79Zm-2.26-5.59H83v1.7h1.73a.79.79,0,0,0,.82-.73v-.24a.76.76,0,0,0-.82-.73"/><polygon class="cls-2" points="91.2 44.76 89.8 44.76 89.8 39.14 88.05 39.13 88.05 37.86 92.96 37.87 92.95 39.14 91.2 39.14 91.2 44.76"/><path class="cls-2" d="M96.06,44.76a2.09,2.09,0,0,1-2.18-1.84V39.69a2.07,2.07,0,0,1,2.19-1.82H97a2.07,2.07,0,0,1,2.19,1.82v3.24A2.08,2.08,0,0,1,97,44.76Zm1.77-4.82a.84.84,0,0,0-.87-.78h-.85a.87.87,0,0,0-.88.78v2.74a.88.88,0,0,0,.88.79H97a.87.87,0,0,0,.87-.79Z"/><path class="cls-2" d="M56.14,27.18h-.67a.74.74,0,0,1-.69-.38l.32-.17a.42.42,0,0,0,.38.21h.64c.15,0,.41-.1.41-.34v-.27c0-.25-.26-.34-.41-.34h-.6a.71.71,0,0,1-.75-.62v-.39a.71.71,0,0,1,.75-.61h.62a.73.73,0,0,1,.69.39l-.33.16a.43.43,0,0,0-.37-.21h-.59c-.14,0-.41.09-.41.34v.26c0,.24.25.34.41.34h.6a.71.71,0,0,1,.75.61v.4a.71.71,0,0,1-.75.62"/><polygon class="cls-2" points="60.04 27.18 60.04 25.91 58.59 25.91 58.59 27.18 58.22 27.18 58.22 24.27 58.59 24.27 58.59 25.56 60.04 25.56 60.04 24.27 60.41 24.27 60.41 27.18 60.04 27.18"/><path class="cls-2" d="M63.11,27.18h-.43a.83.83,0,0,1-.88-.71V25a.83.83,0,0,1,.88-.71h.43A.83.83,0,0,1,64,25v1.48a.83.83,0,0,1-.87.71m.51-2.08a.52.52,0,0,0-.54-.48H62.7a.53.53,0,0,0-.54.48v1.26a.53.53,0,0,0,.54.47h.38a.52.52,0,0,0,.54-.47Z"/><path class="cls-2" d="M66.59,26.08h-.83v1.1h-.37V24.59c0-.19.1-.32.28-.32h1a.81.81,0,0,1,.86.81v.17c0,.37-.25.83-1,.83m.61-1a.48.48,0,0,0-.52-.46h-.92v1.09h.92a.5.5,0,0,0,.52-.46Z"/><path class="cls-2" d="M70,26.08h-.83v1.1h-.37V24.59c0-.19.1-.32.28-.32h1a.81.81,0,0,1,.86.81v.17c0,.37-.25.83-1,.83m.61-1a.48.48,0,0,0-.52-.46h-.92v1.09h.92a.5.5,0,0,0,.52-.46Z"/><polygon class="cls-2" points="72.19 27.18 72.19 26.86 72.78 26.86 72.78 24.6 72.19 24.6 72.19 24.27 73.74 24.27 73.74 24.6 73.15 24.6 73.15 26.86 73.74 26.86 73.74 27.18 72.19 27.18"/><path class="cls-2" d="M77,27.22c-.21,0-.29-.08-.39-.28l-1.07-2.28v2.52h-.37V24.65c0-.27.13-.41.33-.41s.27.08.36.27L77,26.84V24.27h.37v2.59a.34.34,0,0,1-.31.36"/><path class="cls-2" d="M80.79,24.66l-.33.17a.54.54,0,0,0-.42-.21h-.42a.51.51,0,0,0-.53.47v1.27a.51.51,0,0,0,.53.48H80a.52.52,0,0,0,.52-.49v-.46h-.45v-.35h.82v.81a.83.83,0,0,1-.81.83h-.5a.83.83,0,0,1-.87-.71V25a.83.83,0,0,1,.87-.71h.51a.79.79,0,0,1,.68.39"/><g class="cls-3"><path class="cls-4" d="M34.31,23.2a16.15,16.15,0,0,0-5.51-1.9l-.1,0,.06-.08a57.22,57.22,0,0,1,5.56-6.85l0,0,.05,0A58.57,58.57,0,0,1,40,21.2l.06.08-.1,0a16.22,16.22,0,0,0-5.52,1.9l0,0Z"/><path class="cls-5" d="M47.66,40a15.91,15.91,0,0,0-1.92-5.47l0,0,0,0A16,16,0,0,0,47.66,29l0-.11.09.06a59.84,59.84,0,0,1,6.89,5.51l.06,0-.06.05a59,59,0,0,1-6.9,5.49l-.08.06Z"/><path class="cls-6" d="M21,40.05A59.81,59.81,0,0,1,14,34.54l0,0,0-.05A60,60,0,0,1,20.94,29l.09-.06,0,.1A15.69,15.69,0,0,0,23,34.47l0,0,0,0A16.14,16.14,0,0,0,21.05,40l0,.1Z"/><path class="cls-7" d="M20.92,29a57.75,57.75,0,0,1-1-8.74v-.07H20a59.83,59.83,0,0,1,8.8.95l.1,0-.05.09a15.78,15.78,0,0,0-2.55,5.22v0h0A16.22,16.22,0,0,0,21,29.06l-.09.05Z"/><path class="cls-8" d="M31.41,27.59a8.2,8.2,0,0,0-4.18-1.16,5,5,0,0,0-1,.11l-.1,0,0-.1a16.16,16.16,0,0,1,2.57-5.27l0,0h0a16.42,16.42,0,0,1,5.56,1.93l.09.06-.09.05a4.67,4.67,0,0,0-.74.59,8,8,0,0,0-2.14,3.75l0,.09Z"/><path class="cls-9" d="M22.86,34.55A15.76,15.76,0,0,1,20.92,29l0,0,0,0a16.24,16.24,0,0,1,5.31-2.53l.1,0,0,.1a4.68,4.68,0,0,0-.11.93,8.08,8.08,0,0,0,1.17,4.17l0,.07-.08,0a8.08,8.08,0,0,0-3.77,2.11,5.35,5.35,0,0,0-.61.75l0,.09Z"/><path class="cls-10" d="M31.48,31.73a8.37,8.37,0,0,0-2.16-.28,8.25,8.25,0,0,0-2,.24h0l0-.05a8,8,0,0,1-1.18-4.23,4.9,4.9,0,0,1,.1-1v0h.05a4.45,4.45,0,0,1,1-.11,8.24,8.24,0,0,1,4.25,1.17l0,0v0a8.06,8.06,0,0,0,0,4.11l0,.12Z"/><path class="cls-11" d="M48.67,48.79a60.08,60.08,0,0,1-8.8-.95l-.1,0,.06-.09a15.78,15.78,0,0,0,2.55-5.22v0h0a16.32,16.32,0,0,0,5.26-2.52l.08,0,0,.09a57.75,57.75,0,0,1,1,8.74v.07Z"/><path class="cls-12" d="M42.38,42.51a4.61,4.61,0,0,0,.1-.93,7.94,7.94,0,0,0-1.16-4.16l0-.08.09,0a8.18,8.18,0,0,0,3.77-2.11,6.15,6.15,0,0,0,.6-.75l.06-.08.06.08A16,16,0,0,1,47.79,40v0l0,0a16.17,16.17,0,0,1-5.3,2.54l-.1,0Z"/><path class="cls-13" d="M47.69,29.07a16.17,16.17,0,0,0-5.26-2.53h0v0a16.13,16.13,0,0,0-2.54-5.22l-.06-.08.1,0a59.28,59.28,0,0,1,8.81-.94h.07v.08a58.2,58.2,0,0,1-1,8.72l0,.1Z"/><path class="cls-14" d="M37.2,27.54a8.09,8.09,0,0,0-2.14-3.74,4.37,4.37,0,0,0-.75-.6l-.08-.05.08-.06a16.37,16.37,0,0,1,5.57-1.92h0l0,0a16.17,16.17,0,0,1,2.56,5.26l0,.1-.1,0a4.77,4.77,0,0,0-.94-.11,8.2,8.2,0,0,0-4.19,1.15l-.08.05Z"/><path class="cls-15" d="M45.74,34.54a4.67,4.67,0,0,0-.59-.74,8.13,8.13,0,0,0-3.78-2.12l-.09,0,0-.07a8,8,0,0,0,1.16-4.15,4.71,4.71,0,0,0-.1-.94l0-.11.1,0A16.18,16.18,0,0,1,47.77,29l0,0v0a16.29,16.29,0,0,1-1.94,5.52l-.06.08Z"/><path class="cls-16" d="M37.14,31.65a8.07,8.07,0,0,0,.06-4.11v0l0,0a8.25,8.25,0,0,1,4.26-1.17,4.37,4.37,0,0,1,1,.11h0v.05a4.43,4.43,0,0,1,.11,1,8.14,8.14,0,0,1-1.18,4.22l0,0h-.05a8.17,8.17,0,0,0-2-.24,8.4,8.4,0,0,0-2.17.29l-.12,0Z"/><path class="cls-17" d="M34.29,30.52a8.09,8.09,0,0,0-2.88-2.93l-.05,0v0a8.33,8.33,0,0,1,2.18-3.82,5.44,5.44,0,0,1,.76-.6l0,0,0,0a5,5,0,0,1,.77.61,8.2,8.2,0,0,1,2.17,3.81v0l0,0a8.22,8.22,0,0,0-2.89,2.94l-.06.11Z"/><path class="cls-18" d="M35.11,32.54a8,8,0,0,0-.82-2l0,0,0,0a8.31,8.31,0,0,1,2.94-3l.08,0,0,.09a8.19,8.19,0,0,1,0,4.17v0h0a7.83,7.83,0,0,0-2,.86l-.08,0Z"/><path class="cls-19" d="M33.5,32.59a8.59,8.59,0,0,0-2-.86h0v0a8.12,8.12,0,0,1-.05-4.18l0-.09.08,0a8.29,8.29,0,0,1,2.93,3l0,0,0,0a8.31,8.31,0,0,0-.82,2l0,.09Z"/><path class="cls-20" d="M34.31,33.15a7.86,7.86,0,0,0-.81-.56l0,0v-.05a8.16,8.16,0,0,1,.83-2.06l.06-.1.06.1a8.16,8.16,0,0,1,.83,2.06l0,.05,0,0a7,7,0,0,0-.82.56l0,0Z"/><path class="cls-21" d="M41.32,37.42a8.2,8.2,0,0,0-3-2.86l-.1-.06.1-.06a8.2,8.2,0,0,0,3-2.86l0,0h0a8.41,8.41,0,0,1,3.85,2.17,6.17,6.17,0,0,1,.61.75l0,0,0,0a5,5,0,0,1-.62.76,8.36,8.36,0,0,1-3.84,2.16h0Z"/><path class="cls-22" d="M38.36,34.56a7.9,7.9,0,0,0-2-.81l-.1,0,.05-.08a7.62,7.62,0,0,0,.86-2l0,0h0a8.37,8.37,0,0,1,4.21-.06l.09,0-.05.07a8.19,8.19,0,0,1-3,2.92l0,0Z"/><path class="cls-23" d="M36.33,33.75a8.05,8.05,0,0,0-1-.18H35.3v-.05a7.56,7.56,0,0,0-.18-1v0l0,0a8.06,8.06,0,0,1,2-.87l.12,0,0,.12a8.23,8.23,0,0,1-.88,2l0,0Z"/><path class="cls-24" d="M35.35,33.57l-.57,0h0l0,0c-.13-.11-.27-.23-.43-.35l-.07-.06.07-.05a8.75,8.75,0,0,1,.83-.57l.08,0,0,.09c.08.32.14.65.19,1v.09Z"/><path class="cls-25" d="M20,48.71a58.2,58.2,0,0,1,1-8.72l0-.11.09.06a15.89,15.89,0,0,0,5.25,2.52h0v.05a16.11,16.11,0,0,0,2.54,5.22l.06.08-.1,0a59.33,59.33,0,0,1-8.8.94H20Z"/><path class="cls-26" d="M26.25,42.59A16.2,16.2,0,0,1,21,40.06l0,0v0a16.07,16.07,0,0,1,1.94-5.52l.06-.08,0,.08a5.06,5.06,0,0,0,.59.73,8.13,8.13,0,0,0,3.78,2.12l.09,0-.05.07a8.19,8.19,0,0,0-1.16,4.15,5,5,0,0,0,.11,1l0,.1Z"/><path class="cls-27" d="M27.31,37.46a8.23,8.23,0,0,1-3.85-2.17,4.19,4.19,0,0,1-.6-.74l0,0,0,0a4.43,4.43,0,0,1,.62-.76,8.28,8.28,0,0,1,3.83-2.16h.05l0,.05a8.14,8.14,0,0,0,2.95,2.85l.11.06-.11.06a8.28,8.28,0,0,0-3,2.86l0,0Z"/><path class="cls-28" d="M30.28,34.56a8.24,8.24,0,0,1-3-2.91l-.05-.07.09,0a8.47,8.47,0,0,1,4.2.05h0v0a8.45,8.45,0,0,0,.86,2l0,.08-.09,0a8,8,0,0,0-2,.81l0,0Z"/><path class="cls-29" d="M32.31,33.72a8,8,0,0,1-.88-2l0-.12.11,0a8.11,8.11,0,0,1,2.05.87l0,0,0,0a9.6,9.6,0,0,0-.17,1v.05h0a7.4,7.4,0,0,0-1,.18h-.05Z"/><path class="cls-30" d="M34.29,54.65a59.16,59.16,0,0,1-5.53-6.84l-.06-.08.1,0a16,16,0,0,0,5.53-1.91l0,0,0,0a16.24,16.24,0,0,0,5.5,1.9l.1,0,0,.09a59.93,59.93,0,0,1-5.56,6.84l0,.05Z"/><path class="cls-31" d="M39.88,47.84a16.45,16.45,0,0,1-5.55-1.92l-.09-.06.09-.06a4,4,0,0,0,.73-.58,8.09,8.09,0,0,0,2.15-3.76l0-.09.08.05a8.14,8.14,0,0,0,4.17,1.14,4.88,4.88,0,0,0,1-.1l.1,0,0,.1A15.89,15.89,0,0,1,40,47.81l0,0Z"/><path class="cls-32" d="M41.48,42.7a8.29,8.29,0,0,1-4.24-1.16l0,0v0a8,8,0,0,0-.06-4.11l0-.12.12,0a8.27,8.27,0,0,0,2.16.29,8.17,8.17,0,0,0,2-.24h.05l0,0a8.11,8.11,0,0,1,1.18,4.23,4.29,4.29,0,0,1-.11,1v0h0a4.45,4.45,0,0,1-1,.11Z"/><path class="cls-33" d="M39.4,37.7a8.16,8.16,0,0,1-2.2-.3h0v0a7.8,7.8,0,0,0-.87-2l0-.08.09,0a7.9,7.9,0,0,0,2-.81l0,0,0,0a8.26,8.26,0,0,1,3,2.92l.05.07-.09,0a7.89,7.89,0,0,1-2,.25"/><path class="cls-34" d="M36.28,35.35a6.91,6.91,0,0,0-.56-.81l0,0,0,0a7.86,7.86,0,0,0,.56-.81l0,0,0,0a8.2,8.2,0,0,1,2.07.82l.1.06-.1.06a7.84,7.84,0,0,1-2.07.82h0Z"/><path class="cls-35" d="M35.72,34.54c-.13-.17-.25-.3-.36-.43l0,0v0c0-.17,0-.35-.05-.56v-.08h.09a8.21,8.21,0,0,1,1,.18l.09,0-.05.08a8.63,8.63,0,0,1-.57.82l-.06.07Z"/><path class="cls-36" d="M28.76,47.81a15.8,15.8,0,0,1-2.56-5.27l0-.1.1,0a4.61,4.61,0,0,0,.93.1,8.2,8.2,0,0,0,4.2-1.14l.07-.05,0,.09a8,8,0,0,0,2.13,3.74,4.38,4.38,0,0,0,.76.6l.09.06-.09.06a16.21,16.21,0,0,1-5.57,1.92h0Z"/><path class="cls-37" d="M27.21,42.7a4.29,4.29,0,0,1-1-.11H26.2v-.05a5,5,0,0,1-.1-1,8.13,8.13,0,0,1,1.17-4.22l0,0h.05a8.09,8.09,0,0,0,2,.24,8.42,8.42,0,0,0,2.18-.29l.11,0,0,.12a8,8,0,0,0,0,4.1v0l0,0a8.25,8.25,0,0,1-4.26,1.17Z"/><path class="cls-38" d="M29.3,37.7a7.87,7.87,0,0,1-2-.25l-.09,0,0-.07a8.37,8.37,0,0,1,3-2.92l0,0,0,0a8.35,8.35,0,0,0,2,.81l.09,0,0,.08a8.16,8.16,0,0,0-.87,2v0h0a8.24,8.24,0,0,1-2.21.3"/><path class="cls-38" d="M32.35,35.38a7.71,7.71,0,0,1-2.07-.82l-.11-.06.11-.06a8.2,8.2,0,0,1,2.07-.82l0,0,0,0a6.91,6.91,0,0,0,.56.81l0,0,0,0a7.86,7.86,0,0,0-.56.81l0,0Z"/><path class="cls-16" d="M34.33,45.92a5.3,5.3,0,0,1-.79-.62,8.27,8.27,0,0,1-2.16-3.81l0-.05.05,0a8.2,8.2,0,0,0,2.88-2.94l.06-.11.06.11a8.17,8.17,0,0,0,2.9,2.94l0,0v0a8.16,8.16,0,0,1-2.18,3.82,4.91,4.91,0,0,1-.76.6l0,0Z"/><path class="cls-39" d="M37.24,41.54a8.26,8.26,0,0,1-2.94-3l0,0,0,0a8.37,8.37,0,0,0,.81-2l0-.09.08.05a8.08,8.08,0,0,0,2,.85h0l0,0a8.34,8.34,0,0,1,.05,4.18l0,.08Z"/><path class="cls-40" d="M31.38,41.49a8.08,8.08,0,0,1,.05-4.17v0h0a7.62,7.62,0,0,0,2-.86l.08,0,0,.09a8.4,8.4,0,0,0,.82,2l0,0,0,0a8.29,8.29,0,0,1-2.93,3l-.08,0Z"/><path class="cls-41" d="M34.3,38.55a7.84,7.84,0,0,1-.84-2.06v-.05l0,0a9.66,9.66,0,0,0,.81-.55l0,0,0,0a9.79,9.79,0,0,0,.82.55l0,0v.05a8.16,8.16,0,0,1-.83,2.06l-.06.1Z"/><path class="cls-42" d="M31.43,37.32a8,8,0,0,1,.88-2l0,0h.05a7.71,7.71,0,0,0,1,.18h0v.05a9.6,9.6,0,0,0,.17,1l0,0,0,0a8,8,0,0,1-2.06.87l-.12,0Z"/><path class="cls-43" d="M33.34,35.56a7.87,7.87,0,0,1-1-.18l-.09,0,.05-.08a8.63,8.63,0,0,1,.57-.82l0-.07.06.07c.13.17.25.3.36.43v0c0,.17,0,.35.05.56v.08Z"/><path class="cls-44" d="M33.46,36.49a7.87,7.87,0,0,1-.18-1v-.08h.09l.56,0h0l0,0,.43.36.07,0-.07.05a7.52,7.52,0,0,1-.82.57l-.09,0Z"/><path class="cls-45" d="M32.88,34.54a7.52,7.52,0,0,1-.57-.82l-.05-.08.09,0a7.87,7.87,0,0,1,1-.18h.09v.08a4,4,0,0,0-.05.56v0h0c-.12.13-.23.27-.36.43l-.06.07Z"/><path class="cls-46" d="M37.2,37.4a8,8,0,0,1-2.06-.87l0,0v-.06a7.4,7.4,0,0,0,.18-1v-.05h.06a7.71,7.71,0,0,0,1-.18h.05l0,0a8.42,8.42,0,0,1,.89,2l0,.12Z"/><path class="cls-47" d="M35.14,36.53a7.22,7.22,0,0,1-.83-.57l-.07-.05.07-.06.44-.35v0h0l.56,0h.09v.09c0,.33-.11.66-.19,1l0,.09Z"/><path class="cls-48" d="M33.28,33.49a8.05,8.05,0,0,1,.18-1l0-.08.08,0a8.75,8.75,0,0,1,.83.57l.07.05-.07.06L34,33.5v0h0l-.56,0h-.09Z"/><path class="cls-49" d="M35.86,34.5A1.51,1.51,0,1,0,34.35,36a1.5,1.5,0,0,0,1.51-1.5"/><path class="cls-50" d="M35.29,35.49c0-.22,0-.39.05-.56v0l0,0,.36-.43.05-.07.06.07a7.52,7.52,0,0,1,.57.82l.05.08-.09,0c-.32.07-.65.13-1,.17h-.09Z"/></g><path class="cls-51" d="M32.28,32.46a2.93,2.93,0,0,1,4.11,0,2.86,2.86,0,0,1,0,4.08,2.92,2.92,0,0,1-4.11,0,2.88,2.88,0,0,1,0-4.08"/></svg>