<svg id="Layer_1" data-name="Layer 1" xmlns="http://www.w3.org/2000/svg" viewBox="0 0 69.25 69.25"><defs><style>.cls-1{fill:#c0c1ac;}</style></defs><title>site-mobille-elementos</title><path class="cls-1" d="M41.69,48l-.48,1.94c-1.42.56-2.56,1-3.41,1.28a8.86,8.86,0,0,1-3,.45,5.89,5.89,0,0,1-4-1.27,4.07,4.07,0,0,1-1.44-3.2,11.78,11.78,0,0,1,.11-1.55c.07-.52.19-1.12.34-1.78l1.79-6.3c.15-.61.29-1.18.4-1.72a7.41,7.41,0,0,0,.16-1.48,2.29,2.29,0,0,0-.5-1.68,2.77,2.77,0,0,0-1.9-.48,5.05,5.05,0,0,0-1.42.22c-.49.14-.9.28-1.25.41l.48-1.94c1.17-.48,2.28-.89,3.35-1.22a9.92,9.92,0,0,1,3-.51,5.75,5.75,0,0,1,4,1.24,4.11,4.11,0,0,1,1.39,3.23c0,.27,0,.76-.09,1.45a10.51,10.51,0,0,1-.36,1.9L37.1,43.23A14.79,14.79,0,0,0,36.71,45a8.87,8.87,0,0,0-.18,1.47,2.14,2.14,0,0,0,.56,1.71,3.18,3.18,0,0,0,1.94.45,5.69,5.69,0,0,0,1.47-.23A9.14,9.14,0,0,0,41.69,48Zm.45-26.36a3.66,3.66,0,0,1-1.24,2.79,4.45,4.45,0,0,1-6,0,3.65,3.65,0,0,1-1.26-2.79,3.69,3.69,0,0,1,1.26-2.81,4.45,4.45,0,0,1,6,0A3.71,3.71,0,0,1,42.14,21.6Z"/></svg>