<svg id="Layer_1" data-name="Layer 1" xmlns="http://www.w3.org/2000/svg" viewBox="0 0 69.25 69.25"><defs><style>.cls-1{fill:tomato;}</style></defs><title>site-mobille-elementos</title><path class="cls-1" d="M28.53,30.88a1.1,1.1,0,0,1-.32-.78,1.09,1.09,0,0,1,1.1-1.1,1.11,1.11,0,0,1,1.11,1.1,1.11,1.11,0,0,1-1.11,1.1,1.1,1.1,0,0,1-.78-.32m-1.41,5.26a.35.35,0,0,0,.24.08.33.33,0,0,0,.24-.08.3.3,0,0,0,.11-.26v-3a.08.08,0,0,1,.07-.09l.11,0,.12,0a.08.08,0,0,1,.06.09v6.86a.43.43,0,0,0,.15.34.53.53,0,0,0,.72,0,.46.46,0,0,0,.14-.34v-4.2a.14.14,0,0,1,.1-.15l.13,0,.13,0a.14.14,0,0,1,.08.15v4.2a.43.43,0,0,0,.15.34.52.52,0,0,0,.36.14.49.49,0,0,0,.36-.14.46.46,0,0,0,.14-.34l0-6.86a.09.09,0,0,1,.07-.09l.12,0,.11,0a.08.08,0,0,1,.07.09v3a.3.3,0,0,0,.1.26.34.34,0,0,0,.23.08.32.32,0,0,0,.23-.08.3.3,0,0,0,.11-.26V32.71a1.27,1.27,0,0,0-.31-.82,1,1,0,0,0-.84-.37H28a.85.85,0,0,0-.77.37,1.46,1.46,0,0,0-.24.82v3.17a.3.3,0,0,0,.1.26M39,27.22a.64.64,0,0,1,.21.49V41.39a.64.64,0,0,1-.21.49.7.7,0,0,1-.5.2H25.41a.7.7,0,0,1-.5-.2.64.64,0,0,1-.21-.49V27.71a.64.64,0,0,1,.21-.49.7.7,0,0,1,.5-.2H38.52a.7.7,0,0,1,.5.2m-.94,1H25.85V40.93H38.08Zm-3.49,3a1.09,1.09,0,0,0,1.1-1.1,1.09,1.09,0,0,0-1.1-1.1,1.09,1.09,0,0,0-1.1,1.1,1.09,1.09,0,0,0,1.1,1.1M32.4,36.14a.4.4,0,0,0,.48,0,.3.3,0,0,0,.11-.26v-3a.08.08,0,0,1,.06-.09l.12,0,.11,0a.08.08,0,0,1,.07.09v6.86a.43.43,0,0,0,.15.34.52.52,0,0,0,.36.14.5.5,0,0,0,.35-.14.43.43,0,0,0,.15-.34v-4.2a.14.14,0,0,1,.09-.15l.14,0,.14,0a.14.14,0,0,1,.09.15v4.2a.46.46,0,0,0,.14.34.5.5,0,0,0,.37.14.52.52,0,0,0,.35-.14.43.43,0,0,0,.15-.34V32.9a.08.08,0,0,1,.07-.09.3.3,0,0,1,.12,0l.11,0a.08.08,0,0,1,.07.09v3a.3.3,0,0,0,.1.26.35.35,0,0,0,.24.08.33.33,0,0,0,.24-.08.3.3,0,0,0,.11-.26V32.71a1.23,1.23,0,0,0-.32-.82,1.07,1.07,0,0,0-.85-.37H33.33a.88.88,0,0,0-.78.37,1.39,1.39,0,0,0-.25.82v3.17a.3.3,0,0,0,.1.26M44.34,39.4h-1V36a.16.16,0,0,0-.18-.15H41.57c-.26,0-.21.17-.21.17v3.48H40.25c-.33,0,0,.28,0,.28l2,2.39a.22.22,0,0,0,.33,0c.23-.24,1.91-2.47,1.91-2.47s.3-.29-.1-.29m-4-9.33h1V33.5s0,.14.18.14h1.56c.26,0,.21-.17.21-.17V30H44.4c.32,0,0-.28,0-.28l-2-2.39a.22.22,0,0,0-.33,0c-.24.23-1.92,2.46-1.92,2.46s-.3.3.1.3"/></svg>