<svg id="Layer_1" data-name="Layer 1" xmlns="http://www.w3.org/2000/svg" viewBox="0 0 69.25 69.25"><defs><style>.cls-1{fill:#c0c1ac;}</style></defs><title>site-mobille-elementos</title><path class="cls-1" d="M50.2,45.4H46.41V36.67H50.2a1.29,1.29,0,0,0,0-2.58H46.41V32a1.29,1.29,0,0,0-1.29-1.29H39.46a10.77,10.77,0,0,0-7.66,3.15A9.9,9.9,0,0,0,28.86,41v.36a10.46,10.46,0,0,0,10.6,10.24h5.66a1.34,1.34,0,0,0,.93-.36,1.37,1.37,0,0,0,.36-.93V48.2H50.2a1.29,1.29,0,0,0,1.29-1.29A1.35,1.35,0,0,0,50.2,45.4Z"/><path class="cls-1" d="M25.64,41.18v-.29c0-.5.07-1,.07-1.5a5.94,5.94,0,0,1-4.8-5.88,6,6,0,0,1,5.94-6l16.4-.07a4.75,4.75,0,0,0,4.66-4.87,4.87,4.87,0,0,0-1.43-3.51,4.57,4.57,0,0,0-3.23-1.36H30.58a1.58,1.58,0,1,0,0,3.15H43.25a1.42,1.42,0,0,1,1,.43,1.72,1.72,0,0,1,.5,1.29,1.68,1.68,0,0,1-1.58,1.72H26.78A9.1,9.1,0,0,0,25.64,42.4,7.09,7.09,0,0,0,25.64,41.18Z"/></svg>