<svg id="Layer_1" data-name="Layer 1" xmlns="http://www.w3.org/2000/svg" viewBox="0 0 69.25 69.25"><defs><style>.cls-1{fill:#c0c1ac;}</style></defs><title>site-mobille-elementos</title><path class="cls-1" d="M21,24.42a3.4,3.4,0,1,0-3.4-3.4A3.4,3.4,0,0,0,21,24.42Z"/><path class="cls-1" d="M15.92,39.73h9.15L28,45.59a1.72,1.72,0,0,0,1.53.94A1.7,1.7,0,0,0,31,44.07l-3.4-6.8a1.68,1.68,0,0,0-1.52-.94H21V29.52h6.8a1.7,1.7,0,0,0,1.7-1.7v-3.4a1.7,1.7,0,1,0-3.4,0v1.7H19.31a1.71,1.71,0,0,0-1.6,1.17l-3.4,10.2A1.67,1.67,0,0,0,14.54,39,1.71,1.71,0,0,0,15.92,39.73Z"/><path class="cls-1" d="M48.23,24.42a3.4,3.4,0,1,0-3.4-3.4A3.4,3.4,0,0,0,48.23,24.42Z"/><path class="cls-1" d="M40.75,29.38h0a1.67,1.67,0,0,0,.67.13h6.8v6.81h-5.1a1.68,1.68,0,0,0-1.52.94l-3.4,6.8a1.7,1.7,0,0,0,1.51,2.46,1.72,1.72,0,0,0,1.53-.94l2.93-5.86h9.15A1.71,1.71,0,0,0,54.71,39a1.67,1.67,0,0,0,.23-1.53l-3.4-10.2a1.71,1.71,0,0,0-1.6-1.17H43.13v-1.7a1.7,1.7,0,1,0-3.4,0v3.4a2.07,2.07,0,0,0,0,.35A1.71,1.71,0,0,0,40.75,29.38Z"/><path class="cls-1" d="M53.33,41.43h-6.8a1.7,1.7,0,0,0,0,3.4h1.7v1.7a1.7,1.7,0,0,1-1.7,1.7H36.33V34.62h8.5a1.7,1.7,0,1,0,0-3.4H24.42a1.7,1.7,0,1,0,0,3.4h8.5V48.23H22.72a1.7,1.7,0,0,1-1.7-1.7v-1.7h1.7a1.7,1.7,0,1,0,0-3.4h-6.8a1.7,1.7,0,0,0,0,3.4h1.7v1.7a5.11,5.11,0,0,0,5.1,5.1H46.53a5.11,5.11,0,0,0,5.1-5.1v-1.7h1.7a1.7,1.7,0,1,0,0-3.4Z"/></svg>