<svg id="Layer_1" data-name="Layer 1" xmlns="http://www.w3.org/2000/svg" viewBox="0 0 69.25 69.25"><defs><style>.cls-1{fill:#c0c1ac;}</style></defs><title>site-mobille-elementos</title><path class="cls-1" d="M47.09,34.13a1.39,1.39,0,0,0-1.39,1.39V36.9h-.92V34.13a1.39,1.39,0,0,0-2.77,0V36.9h-.92V33.21a1.39,1.39,0,1,0-2.77,0V36.9H37.4V26.28a1.39,1.39,0,0,0-2.77,0v12c0,1.7-.55,4.16-1.39,4.16h-.06c-1-1.29-1.62-4-1.78-6,0,0,0-.08,0-.13a1.38,1.38,0,0,0-2.76.21,1.09,1.09,0,0,0,0,.17c.36,4.68.59,5.47,1.09,6.93.1.29.21.62.34,1a42.51,42.51,0,0,0,2.39,5.76,1.41,1.41,0,0,0,1.24.76H43.86a1.36,1.36,0,0,0,1.19-.69c.14-.24,3.42-5.91,3.42-9.93V35.52A1.38,1.38,0,0,0,47.09,34.13Z"/><path class="cls-1" d="M24.93,23.55a1.39,1.39,0,1,1-1.38-1.39,1.38,1.38,0,0,1,1.38,1.39"/><path class="cls-1" d="M24.93,27.67a1.39,1.39,0,1,1-1.38-1.39,1.38,1.38,0,0,1,1.38,1.39"/><path class="cls-1" d="M20.78,27.67a1.39,1.39,0,1,1-1.39-1.39,1.38,1.38,0,0,1,1.39,1.39"/><path class="cls-1" d="M29.05,19.42A1.39,1.39,0,1,1,27.67,18a1.38,1.38,0,0,1,1.38,1.38"/><path class="cls-1" d="M29.09,23.55a1.39,1.39,0,1,1-1.39-1.39,1.39,1.39,0,0,1,1.39,1.39"/><path class="cls-1" d="M31.86,19.42A1.38,1.38,0,1,0,33.24,18a1.38,1.38,0,0,0-1.38,1.38"/><path class="cls-1" d="M40.2,19.42A1.39,1.39,0,1,0,41.58,18a1.38,1.38,0,0,0-1.38,1.38"/><path class="cls-1" d="M40.2,23.55a1.39,1.39,0,1,0,1.38-1.39,1.38,1.38,0,0,0-1.38,1.39"/><path class="cls-1" d="M44.32,23.55a1.39,1.39,0,1,0,1.38-1.39,1.38,1.38,0,0,0-1.38,1.39"/><path class="cls-1" d="M48.47,23.55a1.39,1.39,0,1,0,1.39-1.39,1.38,1.38,0,0,0-1.39,1.39"/></svg>