<svg id="Layer_1" data-name="Layer 1" xmlns="http://www.w3.org/2000/svg" viewBox="0 0 69.25 69.25"><defs><style>.cls-1{fill:#c0c1ac;}</style></defs><title>site-mobille-elementos</title><path class="cls-1" d="M50,22.88H42.44V20.23a2.56,2.56,0,0,0-2.56-2.56H29.37a2.56,2.56,0,0,0-2.56,2.56v2.65H18.86A3.83,3.83,0,0,0,15,26.72v21a3.83,3.83,0,0,0,3.84,3.84H50a4.28,4.28,0,0,0,4.27-4.27V27.15A4.28,4.28,0,0,0,50,22.88ZM29.37,20.19H39.88v2.65H29.37ZM39.84,38.51H35.91v3.93a1.29,1.29,0,0,1-2.57,0V38.51H29.41a1.28,1.28,0,0,1,0-2.56h3.93V32a1.29,1.29,0,0,1,2.57,0V36h3.93a1.28,1.28,0,0,1,0,2.56Z"/></svg>