<svg id="Layer_1" data-name="Layer 1" xmlns="http://www.w3.org/2000/svg" viewBox="0 0 69.25 69.25"><defs><style>.cls-1{fill:#c0c1ac;}</style></defs><title>site-mobille-elementos</title><path class="cls-1" d="M27.89,17.71a7.48,7.48,0,0,0-6.48,3.86A8.36,8.36,0,0,0,21,29.19c-4.78,3.88-7.59,20.14,3.71,19.24v3.11H45.09V50.47h1V48.94c10.1-1.53,6-17.2,2.28-19.69a9.05,9.05,0,0,0-.43-7.44c-3.36-6.45-12.11-3.87-13.32-1-.79-1.63-3.68-3.2-6.73-3.14ZM21.4,30.14c2.29,4.81,7.75,9.5,13.31,12.71,6-3.48,11.2-8,13.28-12.65,3.22,2.3,6.59,16.14-1.9,17.6V46h-1V44.94H24.71v2.45c-10.49.79-7.18-14-3.31-17.25ZM41.64,46.37h.88v1.52h1.34v.89H42.52v1.33h-.88V48.78H40.11v-.89h1.53ZM26.38,47.79h3.74v.89H26.38Z"/></svg>