<svg id="Layer_1" data-name="Layer 1" xmlns="http://www.w3.org/2000/svg" viewBox="0 0 69.25 69.25"><defs><style>.cls-1{fill:#c0c1ac;}</style></defs><title>site-mobille-elementos</title><circle class="cls-1" cx="29.27" cy="20.85" r="3.16"/><path class="cls-1" d="M49.76,43.52a1.14,1.14,0,0,0-1.53-.47l-1.81,1h0l-5.57-7.43c-.27-.36-.5-.77-.88-.89a1.51,1.51,0,0,0-.8-.27H32.62V34h4.7a1.31,1.31,0,0,0,1.24-1.38h0c0-.73-.51-1.06-1.24-1.06h-4.7V27.84a3.31,3.31,0,0,0-3.18-3.23h-.87a3.4,3.4,0,0,0-3.28,3.23V37A3.16,3.16,0,0,0,28.57,40h10.6V40l4.49,6a2.09,2.09,0,0,0,2,.89v0L49.3,45A1.11,1.11,0,0,0,49.76,43.52Z"/><path class="cls-1" d="M40.18,44.86l-2.27-3a7.78,7.78,0,0,1-15.47-1.19,6.72,6.72,0,0,1,1.46-4.44V31.86a10.74,10.74,0,0,0-4.55,8.8,10.87,10.87,0,0,0,20.89,4.26S40.19,44.88,40.18,44.86Z"/></svg>