<svg id="Layer_1" data-name="Layer 1" xmlns="http://www.w3.org/2000/svg" viewBox="0 0 69.25 69.25"><defs><style>.cls-1{fill:#c0c1ac;}</style></defs><title>site-mobille-elementos</title><path class="cls-1" d="M34.62,24.16c-4.84,0-8.81.55-8.81,4.41V39a3.9,3.9,0,0,0,3.86,3.86L28,44.54v.55H41.24v-.55l-1.66-1.65A3.9,3.9,0,0,0,43.44,39V28.57c0-3.86-4-4.41-8.82-4.41M29.67,40.68A1.65,1.65,0,1,1,31.32,39a1.7,1.7,0,0,1-1.65,1.65m3.85-6.61H28V28.56h5.51Zm6.06,6.61A1.65,1.65,0,1,1,41.24,39a1.69,1.69,0,0,1-1.66,1.65m1.66-6.61H35.73V28.56h5.51Z"/></svg>