<svg id="Layer_1" data-name="Layer 1" xmlns="http://www.w3.org/2000/svg" viewBox="0 0 69.25 69.25"><defs><style>.cls-1{fill:tomato;}</style></defs><title>site-mobille-elementos</title><path class="cls-1" d="M43.72,34.44a8.61,8.61,0,0,0-2.85-6.29,9.72,9.72,0,0,0-6.55-2.62,8.73,8.73,0,0,0-6.2,2.62,8.93,8.93,0,0,0-2.59,6.29q.36,6.83,5.15,8.69a6.58,6.58,0,0,1,.12-1.64c0,.08.05-.22.17-.9s.41-2.23.82-4.63a4.6,4.6,0,0,1-.32-1.7c.1-1.73.74-2.66,1.91-2.79a1.4,1.4,0,0,1,1.34,1.62,25.93,25.93,0,0,1-.87,3.82c-.1,1.26.37,2,1.38,2.07.72,0,1.29-.61,1.71-1.7a11.17,11.17,0,0,0,.65-4c0-2.11-1.08-3.15-3.16-3.13-2.94,0-4.37,1.41-4.3,4.15a4.31,4.31,0,0,0,.45,2.12.7.7,0,0,1,.1.6c0,.3-.09.58-.14.86s-.17.37-.34.28C29,37.38,28.39,36,28.4,34A5.49,5.49,0,0,1,30,30.14,6.47,6.47,0,0,1,34.7,28.4a7,7,0,0,1,4.14,1.53,4.7,4.7,0,0,1,2,3.53,8.48,8.48,0,0,1-1.78,5.28,5,5,0,0,1-3.67,2.11,2.68,2.68,0,0,1-2.19-1.35c-.52,1.85-.76,2.65-.7,2.41a5.3,5.3,0,0,1-1,1.51,12.87,12.87,0,0,0,2.81.3,9.73,9.73,0,0,0,6.55-2.41,9,9,0,0,0,2.85-6.87"/></svg>