<svg id="Layer_1" data-name="Layer 1" xmlns="http://www.w3.org/2000/svg" viewBox="0 0 69.25 69.25"><defs><style>.cls-1{fill:#c0c1ac;}</style></defs><title>site-mobille-elementos</title><path class="cls-1" d="M43.34,32.25a.46.46,0,0,0-.35-.17H41.27a5.74,5.74,0,0,0-1.6-2.62C37.5,28,31.75,28,29.58,29.46A5.8,5.8,0,0,0,28,32.08H26.26a.46.46,0,0,0-.35.17.45.45,0,0,0-.09.37l.25,1.24a.45.45,0,0,0,.45.35H27a3.1,3.1,0,0,0-.73,2,3,3,0,0,0,.95,2.24h0v1.73a.67.67,0,0,0,.67.67h1.59a.67.67,0,0,0,.67-.67v-.7h8.87v.7a.67.67,0,0,0,.67.67h1.59a.67.67,0,0,0,.67-.67V38.5a3.09,3.09,0,0,0,.2-4.29h.54a.46.46,0,0,0,.45-.36l.25-1.23a.45.45,0,0,0-.09-.37m-13-1.66c1.73-1.14,6.88-1.14,8.61,0a5.72,5.72,0,0,1,1.16,2.2H29.16a5.72,5.72,0,0,1,1.16-2.2m-2,5.79a1.33,1.33,0,1,1,1.33,1.33,1.34,1.34,0,0,1-1.33-1.33m11.34,1.33A1.34,1.34,0,1,1,41,36.38a1.34,1.34,0,0,1-1.33,1.33"/></svg>