<svg id="Layer_1" data-name="Layer 1" xmlns="http://www.w3.org/2000/svg" viewBox="0 0 69.25 69.25"><defs><style>.cls-1{fill:tomato;}</style></defs><title>site-mobille-elementos</title><path class="cls-1" d="M34.62,25.54a9.09,9.09,0,1,0,9.09,9.09,9.09,9.09,0,0,0-9.09-9.09M39.31,37A2.34,2.34,0,0,1,37,39.31H32.28A2.34,2.34,0,0,1,29.94,37V33.74H32.6a2.17,2.17,0,1,0,4,0h2.66Zm-6-2.46a1.31,1.31,0,1,1,1.3,1.3,1.31,1.31,0,0,1-1.3-1.3m6-1.54H36.15a2.16,2.16,0,0,0-3,0H29.94v-.69a2.32,2.32,0,0,1,.93-1.86v2h.51V30.12a1.84,1.84,0,0,1,.51-.14v2.4h.52V29.94H37a2.34,2.34,0,0,1,2.34,2.34Z"/></svg>