<svg id="Layer_1" data-name="Layer 1" xmlns="http://www.w3.org/2000/svg" viewBox="0 0 69.25 69.25"><defs><style>.cls-1,.cls-2{fill:#c0c1ac;}.cls-1{fill-rule:evenodd;}</style></defs><title>site-mobille-elementos</title><path class="cls-1" d="M43.4,33.28h2.29v0a2.17,2.17,0,0,0,1.85-2.15h0a2.19,2.19,0,0,0-2.18-2.18H40.75V40.31H46.6a2.25,2.25,0,0,0,2.25-2.25h0a2.25,2.25,0,0,0-2.25-2.25H43.4a1.27,1.27,0,0,1-1.26-1.27h0a1.27,1.27,0,0,1,1.26-1.26Zm5.39,1.12a4.38,4.38,0,0,1,2.59,3.92h0A4.55,4.55,0,0,1,46.7,42.7H39.49a1.19,1.19,0,0,1-1.23-1.15V27.83a1.21,1.21,0,0,1,1.21-1.2h6a4.6,4.6,0,0,1,4.6,4.59h0A4.6,4.6,0,0,1,48.79,34.4Z"/><path class="cls-2" d="M37.12,41.33a1.45,1.45,0,0,1-1.29,1.59,1.43,1.43,0,0,1-1.59-1.28L33.05,30.72l-4.2,10.67h0l0,0v0h0v.06h0v0h0a1.57,1.57,0,0,1-.3.38h0l0,0a1.44,1.44,0,0,1-.25.18h0l0,0H28a2.07,2.07,0,0,1-.42.08h-.11a1.65,1.65,0,0,1-.47-.1h-.19L26.56,42h0l0,0h0l0,0,0,0h0l-.05,0h0a1.07,1.07,0,0,1-.15-.22h0v0h0l0,0h0v0h0v0h0L21.94,30.72,20.76,41.64a1.45,1.45,0,0,1-1.6,1.28,1.43,1.43,0,0,1-1.28-1.59l1.4-12.87h0a2.39,2.39,0,0,1,.09-.45,2.53,2.53,0,0,1,.18-.42,2.38,2.38,0,0,1,1.8-1.25h.45a3.11,3.11,0,0,1,.44.06,2.37,2.37,0,0,1,1.68,1.45l3.58,9.1,3.58-9.1a2.35,2.35,0,0,1,1.68-1.45,2.75,2.75,0,0,1,.44-.06h.45a2.42,2.42,0,0,1,1.8,1.25,2.47,2.47,0,0,1,.17.42,2.42,2.42,0,0,1,.1.45h0Z"/></svg>