<svg id="Layer_1" data-name="Layer 1" xmlns="http://www.w3.org/2000/svg" viewBox="0 0 69.25 69.25"><defs><style>.cls-1{fill:tomato;}</style></defs><title>site-mobille-elementos</title><path class="cls-1" d="M39.89,41.35A1.25,1.25,0,0,1,39,41l-2.6-2.71a5.46,5.46,0,0,1-2.74.73,5.54,5.54,0,1,1,4.57-2.41l2.56,2.66a1.26,1.26,0,0,1,0,1.76,1.22,1.22,0,0,1-.87.35m-3.32-4.64,3.29,3.43.5-.48-.43.41-3.29-3.42.34-.41a4.26,4.26,0,1,0-.83.77Zm-2.91,1a4.26,4.26,0,1,1,4.25-4.25,4.26,4.26,0,0,1-4.25,4.25m0-7.31a3.06,3.06,0,1,0,3.06,3.06,3.06,3.06,0,0,0-3.06-3.06"/></svg>