<svg id="Layer_1" data-name="Layer 1" xmlns="http://www.w3.org/2000/svg" viewBox="0 0 69.25 69.25"><defs><style>.cls-1{fill:#c0c1ac;}</style></defs><title>site-mobille-elementos</title><path class="cls-1" d="M51,35.32l-3.58-6.44a.63.63,0,0,0-.86-.25,1.81,1.81,0,0,1-.88.23,1.84,1.84,0,0,1-1.49-.79l.91-.62a.65.65,0,0,0,.28-.47.64.64,0,0,0-.19-.51,1.82,1.82,0,0,1-.06-2.58.58.58,0,0,0,.17-.45.6.6,0,0,0-.19-.44l-5.32-5.1a.64.64,0,0,0-.9,0,1.87,1.87,0,0,1-2.58.06.63.63,0,0,0-.89,0l-4.24,4.44a1.83,1.83,0,0,0-.52,1.2,1.84,1.84,0,0,0-1.18.57l-11,11.53a.65.65,0,0,0,0,.9A1.77,1.77,0,0,1,19,37.91a1.8,1.8,0,0,1-.51,1.3.64.64,0,0,0-.17.47.62.62,0,0,0,.21.45l2.74,2.39a1.66,1.66,0,0,1-.49.42.63.63,0,0,0-.25.86l3.58,6.44a.63.63,0,0,0,.86.25,1.81,1.81,0,0,1,.88-.23,1.86,1.86,0,0,1,1.6.93.62.62,0,0,0,.55.33.6.6,0,0,0,.31-.08l14-7.75a1.88,1.88,0,0,0,.85-1,1.72,1.72,0,0,0,.39,0,1.92,1.92,0,0,0,.91-.23l5.36-3a.63.63,0,0,0,.3-.38.64.64,0,0,0,0-.49,1.79,1.79,0,0,1-.16-1.38,1.76,1.76,0,0,1,.87-1.09A.64.64,0,0,0,51,35.32ZM37.68,23.61a1.22,1.22,0,1,1,0,1.73A1.22,1.22,0,0,1,37.68,23.61ZM35.6,28.42a.61.61,0,0,1,.89,0l.89.84a.64.64,0,0,1,0,.9.63.63,0,0,1-.46.2.64.64,0,0,1-.44-.18l-.88-.85A.63.63,0,0,1,35.6,28.42Zm-2.66-2.55a.63.63,0,0,1,.89,0l.89.85a.63.63,0,0,1,0,.89.65.65,0,0,1-.46.2.64.64,0,0,1-.44-.18L33,26.77A.63.63,0,0,1,32.94,25.87Zm-1.17,5.05a.64.64,0,0,1,.59.38.63.63,0,0,1-.13.69l-3,3.11a.66.66,0,0,1-.46.2.62.62,0,0,1-.44-.18.63.63,0,0,1,0-.89C31.5,30.92,31.5,30.92,31.77,30.92Zm-9,5.59,6.79-7.09a.63.63,0,0,1,.92.87l-6.79,7.1a.65.65,0,0,1-.46.2.62.62,0,0,1-.44-.18A.64.64,0,0,1,22.75,36.51ZM26,42.82a.62.62,0,0,1-.55-.33.63.63,0,0,1,.24-.86l8.59-4.77a.63.63,0,0,1,.86.24.65.65,0,0,1-.24.87l-8.59,4.77A.68.68,0,0,1,26,42.82Zm1.5,2.06a.54.54,0,0,1-.3.08.65.65,0,0,1-.56-.32.64.64,0,0,1,.25-.87L35.42,39A.64.64,0,0,1,36,40.11Zm9.78-2.62L28.65,47a.71.71,0,0,1-.31.08.64.64,0,0,1-.56-.33.63.63,0,0,1,.25-.86l8.58-4.77a.64.64,0,0,1,.87.25A.63.63,0,0,1,37.23,42.26Zm2.51-5.61a.6.6,0,0,1-.31.08.63.63,0,0,1-.56-.32l-.59-1.07a.65.65,0,0,1,.24-.87.63.63,0,0,1,.86.25l.6,1.07A.63.63,0,0,1,39.74,36.65Zm1.78,3.22a.54.54,0,0,1-.3.08.63.63,0,0,1-.56-.32l-.59-1.08a.64.64,0,0,1,.24-.86.63.63,0,0,1,.86.25l.6,1.07A.63.63,0,0,1,41.52,39.87Zm3.39-4a1.22,1.22,0,1,1,.48-1.67A1.22,1.22,0,0,1,44.91,35.86Z"/></svg>