<svg id="Layer_1" data-name="Layer 1" xmlns="http://www.w3.org/2000/svg" viewBox="0 0 69.25 69.25"><defs><style>.cls-1{fill:#c0c1ac;}</style></defs><title>site-mobille-elementos</title><path class="cls-1" d="M51.44,44.49a1.22,1.22,0,0,0-.09-.52,4.28,4.28,0,0,0-1.81-1.28c-1.37-.75-2.73-1.53-4.09-2.31a4.9,4.9,0,0,0-2.12-1.12,5.05,5.05,0,0,0-2.5,2.2,5.24,5.24,0,0,1-2.37,2.18,5,5,0,0,1-2.05-1,23.86,23.86,0,0,1-9.77-9.88,5,5,0,0,1-.93-2.08,5.35,5.35,0,0,1,2.16-2.4A5,5,0,0,0,30,25.81a4.86,4.86,0,0,0-1.1-2.15c-.77-1.37-1.54-2.74-2.29-4.14a4.26,4.26,0,0,0-1.26-1.83,1.28,1.28,0,0,0-.5-.08,11,11,0,0,0-3.33.76A6.42,6.42,0,0,0,19,21.32a9.18,9.18,0,0,0-1.21,4.49,18.74,18.74,0,0,0,1.64,6.33,23,23,0,0,0,2,4.23,37.29,37.29,0,0,0,5.15,6.39A36.22,36.22,0,0,0,32.9,48a22.2,22.2,0,0,0,4.17,2,18.58,18.58,0,0,0,6.26,1.67,9.05,9.05,0,0,0,4.44-1.24,6.29,6.29,0,0,0,2.92-2.56,10.78,10.78,0,0,0,.75-3.35"/></svg>