<svg id="Layer_1" data-name="Layer 1" xmlns="http://www.w3.org/2000/svg" viewBox="0 0 69.25 69.25"><defs><style>.cls-1{fill:#c0c1ac;}</style></defs><title>site-mobille-elementos</title><path class="cls-1" d="M59,27A36.68,36.68,0,0,0,34.56,17.6a35.75,35.75,0,0,0-24.3,9.17l0,.05a1.68,1.68,0,0,0,0,2.33l2.61,2.61a1.62,1.62,0,0,0,2.23.06A29,29,0,0,1,34.6,24.5a29.65,29.65,0,0,1,19.6,7.57,1.63,1.63,0,0,0,2.26,0L59,29.44a1.57,1.57,0,0,0,.46-1.19A1.69,1.69,0,0,0,59,27M49.7,36.26a23.38,23.38,0,0,0-15.07-5.59,22.75,22.75,0,0,0-15,5.42l-.09.09a1.53,1.53,0,0,0-.47,1.08,1.58,1.58,0,0,0,.48,1.24L22,41a1.63,1.63,0,0,0,2.2.11,16.23,16.23,0,0,1,10.43-3.7A16.58,16.58,0,0,1,45.16,41.2a1.63,1.63,0,0,0,2.2-.08l2.44-2.44a1.6,1.6,0,0,0,.46-1.24,1.68,1.68,0,0,0-.56-1.18m-11.5,7q-3.5-2.91-7,0c-1.92,2.3-1.9,4.64,0,7q3.51,2.91,7,.05,2.86-3.48,0-7"/></svg>