<svg id="Layer_1" data-name="Layer 1" xmlns="http://www.w3.org/2000/svg" viewBox="0 0 69.25 69.25"><defs><style>.cls-1{fill:#c0c1ac;}.cls-2{font-size:4.3px;fill:#fff;font-family:Museo500-Regular, Museo;letter-spacing:-0.01em;}.cls-3{letter-spacing:0em;}</style></defs><title>site-mobille-elementos</title><circle class="cls-1" cx="37.1" cy="21.33" r="3.7"/><circle class="cls-1" cx="46.11" cy="39.61" r="2.11"/><path class="cls-1" d="M39,34.77a1.23,1.23,0,0,0,1.63-.67,1.25,1.25,0,0,0-.67-1.63l-4.11-1.71-.62-4.35a.91.91,0,0,0-.1-.33A3.1,3.1,0,0,0,33.78,24a3.13,3.13,0,0,0-4.33.83l-1.89,2.79L24.3,32.39l-1.12,2.85L21,40.69h3.26v9.67a1.27,1.27,0,1,0,2.53,0V40.69h5.91l-2.4-6.08,2.91-4.29.21,1.5a1.25,1.25,0,0,0,.79,1h0Z"/><path class="cls-1" d="M39.35,37.52a1,1,0,0,0-.27-1.05l-1.69-1.59A1,1,0,0,0,36,36.35l1,.9-.94,1a1,1,0,0,0-.22.4,2,2,0,0,0-.25,1,2.08,2.08,0,0,0,2.09,2.09h3.87a2.08,2.08,0,0,0,2-1.58.78.78,0,0,0,.07-.31v-4.2a.76.76,0,0,0-.76-.76.77.77,0,0,0-.77.76l-.21,1.94c-.12,0-.23,0-.35,0Z"/><rect class="cls-1" x="35.23" y="42.41" width="12.99" height="1.06"/><circle class="cls-1" cx="49.28" cy="23.3" r="5.62"/><text class="cls-2" transform="translate(45.71 24.62)">W<tspan class="cls-3" x="4.12" y="0">C</tspan></text></svg>