<svg id="svg" version="1.1" width="2400" height="590" xmlns="http://www.w3.org/2000/svg" xmlns:xlink="http://www.w3.org/1999/xlink" style="display: block;"><g id="svgg"><path id="path0" d="M26.995 1.676 C 26.894 1.864,26.836 2.093,26.867 2.183 C 26.897 2.274,27.008 2.120,27.113 1.841 C 27.332 1.260,27.266 1.169,26.995 1.676 M70.583 1.526 C 70.767 1.626,71.010 1.826,71.125 1.969 C 71.240 2.113,71.333 2.146,71.333 2.044 C 71.333 1.761,70.845 1.333,70.530 1.338 C 70.299 1.343,70.308 1.375,70.583 1.526 M75.036 3.677 C 75.194 3.769,75.398 3.973,75.490 4.130 C 75.581 4.288,75.659 4.328,75.662 4.220 C 75.668 3.966,75.200 3.499,74.946 3.505 C 74.838 3.508,74.879 3.585,75.036 3.677 M80.938 7.782 C 81.361 7.865,81.935 8.452,82.047 8.917 C 82.119 9.213,82.130 9.207,82.147 8.867 C 82.172 8.373,81.458 7.660,80.966 7.689 C 80.604 7.711,80.602 7.716,80.938 7.782 M89.618 16.337 C 89.911 16.430,90.268 16.671,90.409 16.873 C 90.551 17.075,90.667 17.163,90.667 17.069 C 90.667 16.697,90.222 16.334,89.667 16.253 L 89.083 16.168 89.618 16.337 M3.505 22.911 C 3.393 23.045,3.340 23.252,3.388 23.369 C 3.443 23.507,3.478 23.482,3.487 23.300 C 3.494 23.144,3.631 22.940,3.792 22.847 C 3.952 22.753,3.999 22.675,3.895 22.672 C 3.792 22.669,3.616 22.777,3.505 22.911 M94.163 22.881 C 94.391 22.996,94.671 23.276,94.786 23.503 C 94.940 23.808,94.996 23.840,94.998 23.625 C 94.999 23.465,94.850 23.183,94.667 23.000 C 94.483 22.817,94.202 22.668,94.042 22.669 C 93.827 22.671,93.859 22.727,94.163 22.881 M96.417 27.199 C 96.600 27.303,96.805 27.470,96.872 27.569 C 96.954 27.690,96.996 27.692,96.997 27.575 C 97.001 27.316,96.637 26.999,96.342 27.005 C 96.150 27.009,96.169 27.059,96.417 27.199 M121.750 33.287 C 121.156 33.433,121.000 33.688,121.017 34.479 C 121.034 35.232,121.037 35.237,121.167 34.688 C 121.358 33.877,121.794 33.530,122.833 33.357 L 123.750 33.206 122.917 33.205 C 122.458 33.205,121.933 33.242,121.750 33.287 M136.333 33.278 C 137.304 33.431,137.522 33.529,137.663 33.880 L 137.812 34.250 137.823 33.881 C 137.836 33.415,137.369 33.160,136.553 33.189 C 136.129 33.204,136.056 33.234,136.333 33.278 M142.542 33.277 C 142.427 33.323,142.333 33.522,142.333 33.718 L 142.333 34.074 142.585 33.715 C 142.724 33.517,143.042 33.324,143.293 33.286 C 143.744 33.217,143.744 33.216,143.250 33.205 C 142.975 33.198,142.656 33.231,142.542 33.277 M167.250 33.236 C 167.342 33.275,167.763 33.354,168.186 33.410 C 169.214 33.548,169.493 33.786,169.770 34.761 L 170.003 35.583 169.942 34.696 C 169.859 33.514,169.624 33.313,168.226 33.232 C 167.598 33.195,167.158 33.197,167.250 33.236 M177.387 33.283 C 176.308 33.493,176.153 36.945,177.210 37.229 C 178.129 37.475,178.812 37.329,177.962 37.068 C 176.879 36.735,176.476 35.828,176.829 34.517 C 177.039 33.737,177.301 33.557,178.530 33.353 L 179.417 33.206 178.583 33.209 C 178.125 33.211,177.587 33.244,177.387 33.283 M190.583 33.276 C 190.767 33.323,191.017 33.486,191.140 33.639 C 191.344 33.892,191.358 33.887,191.305 33.583 C 191.264 33.346,191.103 33.241,190.749 33.220 C 190.458 33.203,190.389 33.226,190.583 33.276 M191.611 33.278 C 191.550 33.339,191.505 33.545,191.512 33.736 C 191.523 34.073,191.527 34.074,191.652 33.754 C 191.723 33.573,191.961 33.374,192.182 33.312 L 192.583 33.200 192.153 33.183 C 191.916 33.174,191.672 33.217,191.611 33.278 M205.875 33.286 C 206.127 33.324,206.540 33.324,206.792 33.286 C 207.044 33.248,206.838 33.217,206.333 33.217 C 205.829 33.217,205.623 33.248,205.875 33.286 M220.412 33.312 C 220.705 33.375,220.994 33.589,221.118 33.834 C 221.307 34.207,221.329 34.214,221.331 33.908 C 221.334 33.421,221.012 33.164,220.425 33.186 L 219.917 33.206 220.412 33.312 M223.958 33.347 C 223.798 33.440,223.671 33.682,223.677 33.883 L 223.688 34.250 223.837 33.880 C 223.978 33.529,224.196 33.431,225.167 33.278 C 225.420 33.238,225.322 33.205,224.917 33.194 C 224.550 33.185,224.119 33.253,223.958 33.347 M238.125 33.284 C 238.331 33.324,238.669 33.324,238.875 33.284 C 239.081 33.245,238.912 33.212,238.500 33.212 C 238.088 33.212,237.919 33.245,238.125 33.284 M263.499 33.382 C 263.745 33.506,263.958 33.795,264.021 34.088 L 264.127 34.583 264.147 34.075 C 264.170 33.488,263.913 33.166,263.425 33.169 C 263.119 33.171,263.127 33.193,263.499 33.382 M266.533 33.367 C 266.423 33.477,266.342 33.758,266.353 33.992 C 266.372 34.392,266.379 34.388,266.478 33.924 C 266.550 33.588,266.716 33.395,267.000 33.316 C 267.349 33.219,267.361 33.197,267.075 33.183 C 266.887 33.174,266.643 33.257,266.533 33.367 M284.579 33.312 C 284.872 33.375,285.160 33.589,285.285 33.834 C 285.473 34.207,285.495 34.214,285.498 33.908 C 285.501 33.421,285.179 33.164,284.592 33.186 L 284.083 33.206 284.579 33.312 M305.033 33.367 C 304.923 33.477,304.841 33.758,304.850 33.992 L 304.867 34.417 304.982 34.001 C 305.046 33.773,305.282 33.493,305.507 33.379 C 305.877 33.191,305.884 33.171,305.575 33.169 C 305.387 33.168,305.143 33.257,305.033 33.367 M316.295 33.324 C 317.195 33.471,317.320 33.603,317.505 34.602 L 317.655 35.417 317.581 34.500 C 317.492 33.418,317.230 33.158,316.260 33.188 L 315.583 33.208 316.295 33.324 M322.111 33.278 C 322.050 33.339,322.000 33.503,322.000 33.643 C 322.000 33.863,322.028 33.861,322.208 33.629 C 322.323 33.482,322.567 33.326,322.750 33.283 C 323.014 33.221,322.994 33.201,322.653 33.186 C 322.416 33.175,322.172 33.217,322.111 33.278 M335.912 33.312 C 336.205 33.375,336.494 33.589,336.618 33.834 C 336.807 34.207,336.829 34.214,336.831 33.908 C 336.834 33.421,336.512 33.164,335.925 33.186 L 335.417 33.206 335.912 33.312 M337.208 33.277 C 337.094 33.323,337.009 33.524,337.019 33.722 C 337.034 34.002,337.056 34.018,337.115 33.793 C 337.156 33.634,337.429 33.434,337.720 33.350 C 338.183 33.216,338.197 33.196,337.833 33.195 C 337.604 33.194,337.323 33.231,337.208 33.277 M380.833 33.287 C 381.441 33.396,381.563 33.577,381.681 34.546 C 381.784 35.396,381.787 35.400,381.810 34.719 C 381.848 33.595,381.608 33.163,380.962 33.189 C 380.508 33.208,380.487 33.225,380.833 33.287 M386.367 33.367 C 386.257 33.477,386.168 33.720,386.169 33.908 C 386.171 34.214,386.193 34.207,386.382 33.834 C 386.506 33.589,386.795 33.375,387.088 33.312 L 387.583 33.206 387.075 33.186 C 386.795 33.176,386.477 33.257,386.367 33.367 M98.875 33.513 C 99.035 33.607,99.173 33.811,99.180 33.967 C 99.188 34.149,99.224 34.174,99.279 34.036 C 99.379 33.788,99.046 33.331,98.771 33.338 C 98.668 33.341,98.715 33.420,98.875 33.513 M137.883 35.333 C 137.883 35.837,137.915 36.044,137.953 35.792 C 137.991 35.540,137.991 35.127,137.953 34.875 C 137.915 34.623,137.883 34.829,137.883 35.333 M191.387 35.500 C 191.387 36.096,191.417 36.340,191.454 36.042 C 191.491 35.744,191.491 35.256,191.454 34.958 C 191.417 34.660,191.387 34.904,191.387 35.500 M223.555 35.583 C 223.555 36.225,223.586 36.467,223.622 36.121 C 223.658 35.775,223.657 35.250,223.620 34.955 C 223.583 34.659,223.554 34.942,223.555 35.583 M121.019 36.032 C 120.996 36.980,121.385 37.339,122.412 37.322 L 123.083 37.310 122.312 37.073 C 121.546 36.837,121.328 36.567,121.112 35.583 C 121.072 35.400,121.030 35.602,121.019 36.032 M264.750 35.415 C 264.842 35.446,265.126 35.517,265.382 35.574 C 265.645 35.632,265.913 35.838,265.997 36.047 C 266.140 36.404,266.146 36.402,266.156 35.976 C 266.168 35.484,265.907 35.327,265.111 35.346 C 264.821 35.354,264.658 35.385,264.750 35.415 M300.572 35.737 C 300.516 35.959,300.506 36.277,300.549 36.445 C 300.597 36.629,300.636 36.549,300.647 36.242 C 300.658 35.962,300.757 35.643,300.867 35.533 C 301.019 35.381,301.019 35.333,300.870 35.333 C 300.762 35.333,300.627 35.515,300.572 35.737 M320.417 35.415 C 320.508 35.446,320.788 35.516,321.037 35.571 C 321.368 35.644,321.534 35.818,321.647 36.210 L 321.803 36.750 321.818 36.242 C 321.838 35.578,321.568 35.330,320.842 35.346 C 320.516 35.354,320.325 35.385,320.417 35.415 M336.801 37.542 C 336.773 38.665,336.790 40.783,336.840 42.250 C 336.917 44.562,336.934 44.291,336.965 40.208 C 337.000 35.458,336.897 33.764,336.801 37.542 M266.195 37.923 C 266.168 39.372,266.181 39.430,266.540 39.457 C 266.830 39.479,266.858 39.451,266.665 39.332 C 266.492 39.226,266.387 38.760,266.320 37.798 L 266.223 36.417 266.195 37.923 M171.694 37.693 C 171.847 37.816,172.010 38.067,172.057 38.250 C 172.107 38.444,172.131 38.375,172.113 38.085 C 172.092 37.730,171.987 37.569,171.750 37.528 C 171.446 37.475,171.441 37.490,171.694 37.693 M291.814 38.036 C 291.890 38.499,291.914 38.523,291.966 38.189 C 292.000 37.972,291.960 37.726,291.876 37.642 C 291.783 37.550,291.759 37.705,291.814 38.036 M191.360 38.445 C 191.328 39.069,191.469 39.500,191.705 39.500 C 191.817 39.500,191.816 39.430,191.701 39.291 C 191.605 39.176,191.496 38.820,191.457 38.499 L 191.387 37.917 191.360 38.445 M223.527 38.445 C 223.492 39.140,223.642 39.500,223.966 39.500 C 224.203 39.500,224.202 39.478,223.958 39.292 C 223.808 39.177,223.656 38.821,223.619 38.500 L 223.553 37.917 223.527 38.445 M298.390 39.750 C 298.391 40.483,298.420 40.763,298.456 40.371 C 298.491 39.979,298.490 39.379,298.454 39.037 C 298.419 38.696,298.390 39.017,298.390 39.750 M154.856 39.800 C 154.811 40.568,154.362 41.146,153.666 41.334 C 153.299 41.432,153.000 41.556,153.000 41.608 C 153.000 41.700,153.948 41.571,154.536 41.398 C 154.849 41.307,155.074 40.451,154.954 39.813 L 154.879 39.417 154.856 39.800 M204.246 51.250 C 204.246 57.758,204.266 60.445,204.292 57.221 C 204.317 53.996,204.317 48.671,204.292 45.387 C 204.266 42.103,204.246 44.742,204.246 51.250 M255.723 40.208 C 255.813 41.236,256.010 41.447,257.008 41.584 C 257.827 41.697,257.833 41.702,257.833 42.312 C 257.833 43.228,258.214 43.667,259.009 43.667 C 259.371 43.667,259.655 43.723,259.640 43.792 C 259.626 43.860,259.659 44.029,259.715 44.167 C 259.771 44.304,259.851 44.604,259.892 44.833 C 259.933 45.063,259.955 44.920,259.941 44.517 C 259.916 43.752,259.832 43.661,258.917 43.392 C 258.510 43.273,258.365 43.091,258.142 42.421 C 257.887 41.652,257.812 41.578,257.059 41.339 C 256.311 41.102,256.228 41.021,255.952 40.250 L 255.654 39.417 255.723 40.208 M279.232 40.375 C 279.288 41.551,279.282 41.546,280.459 41.601 L 281.417 41.646 280.626 41.524 C 279.638 41.371,279.462 41.196,279.310 40.208 L 279.187 39.417 279.232 40.375 M324.040 50.187 L 324.000 60.957 323.236 61.043 C 322.255 61.153,322.131 61.293,322.064 62.365 C 322.008 63.246,322.009 63.247,322.175 62.592 C 322.391 61.739,322.743 61.365,323.453 61.232 C 324.229 61.087,324.175 61.982,324.125 50.083 L 324.081 39.417 324.040 50.187 M366.957 40.295 C 367.065 41.329,367.226 41.471,368.417 41.576 L 369.417 41.665 368.583 41.423 C 367.672 41.158,367.167 40.678,367.167 40.075 C 367.167 39.861,367.101 39.646,367.021 39.596 C 366.941 39.547,366.912 39.861,366.957 40.295 M379.958 39.618 C 380.165 39.657,380.502 39.657,380.708 39.618 C 380.915 39.578,380.746 39.545,380.333 39.545 C 379.921 39.545,379.752 39.578,379.958 39.618 M388.221 40.583 C 388.222 41.225,388.252 41.467,388.288 41.121 C 388.324 40.775,388.324 40.250,388.287 39.955 C 388.250 39.659,388.221 39.942,388.221 40.583 M172.795 39.862 C 173.592 40.040,173.903 40.412,174.075 41.392 C 174.240 42.331,174.370 42.021,174.235 41.008 C 174.088 39.900,173.842 39.662,172.863 39.685 L 172.083 39.702 172.795 39.862 M292.250 39.779 C 293.358 40.022,293.703 40.386,293.886 41.500 C 293.924 41.729,293.965 41.535,293.977 41.067 C 294.006 39.987,293.691 39.659,292.654 39.686 C 292.248 39.697,292.067 39.738,292.250 39.779 M381.467 39.867 C 381.577 39.977,381.675 40.295,381.686 40.575 C 381.698 40.882,381.737 40.963,381.784 40.778 C 381.895 40.349,381.698 39.667,381.463 39.667 C 381.314 39.667,381.315 39.715,381.467 39.867 M208.550 40.667 C 208.550 41.171,208.581 41.377,208.619 41.125 C 208.658 40.873,208.658 40.460,208.619 40.208 C 208.581 39.956,208.550 40.162,208.550 40.667 M144.511 40.869 C 144.497 41.437,144.909 41.673,145.864 41.646 L 146.583 41.625 145.917 41.515 C 145.096 41.380,144.851 41.235,144.666 40.775 C 144.531 40.441,144.520 40.447,144.511 40.869 M311.361 41.250 C 311.405 41.502,311.561 41.590,312.001 41.609 C 312.377 41.626,312.436 41.607,312.167 41.556 C 311.938 41.512,311.650 41.350,311.527 41.197 C 311.322 40.940,311.308 40.945,311.361 41.250 M398.614 41.231 C 398.562 41.366,398.309 41.508,398.052 41.546 C 397.608 41.613,397.612 41.618,398.130 41.642 C 398.630 41.665,399.036 41.313,398.791 41.069 C 398.745 41.023,398.666 41.096,398.614 41.231 M308.794 41.428 C 308.742 41.480,308.336 41.584,307.891 41.659 L 307.083 41.794 307.780 41.814 C 308.167 41.825,308.592 41.950,308.738 42.095 C 308.976 42.333,309.000 42.333,309.000 42.095 C 309.000 41.951,308.873 41.833,308.718 41.833 C 308.472 41.833,308.478 41.802,308.760 41.589 C 308.938 41.454,309.040 41.342,308.986 41.339 C 308.933 41.336,308.846 41.376,308.794 41.428 M236.093 42.124 C 235.957 42.910,235.376 43.500,234.737 43.500 C 234.526 43.500,234.312 43.566,234.263 43.646 C 234.145 43.837,235.690 43.671,235.950 43.465 C 236.169 43.291,236.414 41.985,236.292 41.635 C 236.250 41.515,236.161 41.735,236.093 42.124 M219.954 41.819 C 220.884 41.932,221.088 42.056,221.214 42.583 C 221.275 42.833,221.300 42.801,221.314 42.454 C 221.337 41.899,220.846 41.654,219.781 41.690 C 219.100 41.713,219.104 41.716,219.954 41.819 M266.220 42.667 C 266.220 43.262,266.250 43.506,266.287 43.208 C 266.324 42.910,266.324 42.423,266.287 42.125 C 266.250 41.827,266.220 42.071,266.220 42.667 M386.278 41.778 C 386.217 41.839,386.168 41.970,386.169 42.069 C 386.171 42.189,386.213 42.186,386.294 42.058 C 386.362 41.953,386.604 41.832,386.833 41.789 L 387.250 41.712 386.819 41.689 C 386.583 41.677,386.339 41.717,386.278 41.778 M396.705 42.167 C 396.705 42.487,396.740 42.619,396.782 42.458 C 396.823 42.298,396.823 42.035,396.782 41.875 C 396.740 41.715,396.705 41.846,396.705 42.167 M382.457 41.996 C 383.220 42.177,383.464 42.429,383.642 43.223 L 383.798 43.917 383.815 43.137 C 383.838 42.143,383.544 41.828,382.613 41.850 C 381.921 41.867,381.920 41.868,382.457 41.996 M294.063 44.167 C 294.063 45.221,294.090 45.652,294.123 45.125 C 294.156 44.598,294.156 43.735,294.123 43.208 C 294.090 42.681,294.063 43.112,294.063 44.167 M313.379 43.000 C 313.379 43.413,313.411 43.581,313.451 43.375 C 313.491 43.169,313.491 42.831,313.451 42.625 C 313.411 42.419,313.379 42.587,313.379 43.000 M208.677 43.032 C 208.664 43.593,208.783 43.665,209.871 43.750 C 210.628 43.810,210.658 43.802,210.083 43.696 C 209.256 43.542,209.016 43.397,208.832 42.941 C 208.697 42.606,208.687 42.612,208.677 43.032 M396.379 43.318 C 396.243 43.540,395.941 43.671,395.463 43.717 C 394.930 43.769,394.971 43.779,395.625 43.755 C 396.589 43.719,396.723 43.654,396.640 43.257 C 396.592 43.030,396.552 43.039,396.379 43.318 M225.929 44.095 C 225.765 44.259,225.675 44.619,225.688 45.054 L 225.708 45.750 225.823 45.045 C 225.963 44.188,226.001 44.146,226.790 43.993 L 227.417 43.872 226.804 43.852 C 226.446 43.841,226.081 43.942,225.929 44.095 M253.700 44.033 C 253.590 44.143,253.510 44.425,253.523 44.658 C 253.543 45.033,253.554 45.040,253.616 44.720 C 253.703 44.274,253.956 44.055,254.500 43.955 C 254.873 43.887,254.863 43.876,254.408 43.856 C 254.129 43.844,253.810 43.923,253.700 44.033 M266.000 44.315 C 266.000 44.979,265.541 45.468,264.750 45.648 L 264.083 45.800 264.863 45.817 C 265.861 45.838,266.167 45.546,266.167 44.571 C 266.167 44.165,266.129 43.833,266.083 43.833 C 266.037 43.833,266.000 44.050,266.000 44.315 M309.917 43.915 C 310.008 43.946,310.284 44.015,310.529 44.069 C 310.775 44.123,311.010 44.298,311.052 44.458 C 311.112 44.688,311.132 44.674,311.147 44.393 C 311.169 43.998,310.870 43.827,310.195 43.846 C 309.950 43.854,309.825 43.885,309.917 43.915 M313.517 44.530 C 313.495 45.525,313.788 45.833,314.754 45.833 C 315.470 45.833,315.487 45.846,315.585 46.458 C 315.844 48.069,315.686 47.995,318.875 47.998 C 321.609 48.000,321.846 47.883,321.815 46.542 L 321.798 45.750 321.640 46.453 C 321.377 47.625,320.948 47.833,318.803 47.833 C 316.726 47.833,316.066 47.614,315.908 46.872 C 315.701 45.904,315.547 45.717,314.869 45.608 C 314.091 45.484,313.893 45.281,313.687 44.404 L 313.533 43.750 313.517 44.530 M384.341 43.992 C 384.208 44.076,384.039 44.108,383.966 44.063 C 383.893 44.017,383.838 44.304,383.845 44.698 C 383.855 45.355,383.871 45.381,384.028 45.000 C 384.374 44.165,384.462 44.082,385.100 43.982 L 385.750 43.881 385.167 43.860 C 384.846 43.848,384.474 43.907,384.341 43.992 M371.189 44.553 C 371.158 45.426,371.409 45.836,371.964 45.820 L 372.417 45.807 371.958 45.640 C 371.521 45.480,371.431 45.307,371.278 44.333 C 371.234 44.056,371.204 44.129,371.189 44.553 M343.192 44.783 C 343.175 45.255,343.072 45.539,342.875 45.653 C 342.600 45.813,342.600 45.823,342.872 45.828 C 343.206 45.834,343.393 45.265,343.288 44.562 C 343.234 44.197,343.211 44.249,343.192 44.783 M360.515 44.925 C 360.498 45.516,360.758 45.838,361.242 45.823 C 361.568 45.813,361.567 45.806,361.215 45.664 C 361.004 45.579,360.779 45.281,360.689 44.966 L 360.530 44.417 360.515 44.925 M366.623 45.539 C 366.559 45.706,366.273 45.838,365.884 45.878 L 365.250 45.944 365.833 45.969 C 366.508 45.999,366.906 45.800,366.801 45.486 C 366.747 45.325,366.700 45.339,366.623 45.539 M260.627 45.951 C 260.834 45.991,261.134 45.990,261.294 45.948 C 261.453 45.906,261.283 45.874,260.917 45.875 C 260.550 45.877,260.420 45.911,260.627 45.951 M262.958 45.951 C 263.165 45.991,263.502 45.991,263.708 45.951 C 263.915 45.911,263.746 45.879,263.333 45.879 C 262.921 45.879,262.752 45.911,262.958 45.951 M337.627 45.951 C 337.834 45.991,338.134 45.990,338.294 45.948 C 338.453 45.906,338.283 45.874,337.917 45.875 C 337.550 45.877,337.420 45.911,337.627 45.951 M340.708 45.955 C 341.052 45.991,341.615 45.991,341.958 45.955 C 342.302 45.919,342.021 45.889,341.333 45.889 C 340.646 45.889,340.365 45.919,340.708 45.955 M362.542 45.953 C 362.794 45.991,363.206 45.991,363.458 45.953 C 363.710 45.915,363.504 45.883,363.000 45.883 C 362.496 45.883,362.290 45.915,362.542 45.953 M393.294 45.951 C 393.501 45.991,393.801 45.990,393.960 45.948 C 394.120 45.906,393.950 45.874,393.583 45.875 C 393.217 45.877,393.086 45.911,393.294 45.951 M282.039 46.173 C 281.605 46.347,281.330 46.955,281.341 47.719 C 281.347 48.204,281.373 48.177,281.632 47.417 C 281.896 46.643,281.976 46.563,282.750 46.299 C 283.560 46.023,283.567 46.015,283.000 46.018 C 282.679 46.020,282.247 46.089,282.039 46.173 M298.383 46.833 C 298.383 47.337,298.415 47.544,298.453 47.292 C 298.491 47.040,298.491 46.627,298.453 46.375 C 298.415 46.123,298.383 46.329,298.383 46.833 M314.791 46.118 C 315.033 46.164,315.201 46.348,315.264 46.637 C 315.429 47.384,315.473 47.439,315.487 46.908 C 315.502 46.313,315.237 45.991,314.758 46.023 C 314.449 46.043,314.452 46.052,314.791 46.118 M178.545 47.500 C 178.545 47.913,178.578 48.081,178.618 47.875 C 178.657 47.669,178.657 47.331,178.618 47.125 C 178.578 46.919,178.545 47.087,178.545 47.500 M210.709 47.417 C 210.711 47.783,210.745 47.914,210.785 47.706 C 210.824 47.499,210.823 47.199,210.781 47.040 C 210.739 46.880,210.707 47.050,210.709 47.417 M293.750 47.358 C 293.658 47.568,293.396 47.790,293.167 47.853 L 292.750 47.967 293.167 47.981 C 293.752 48.001,294.039 47.774,293.973 47.345 L 293.917 46.977 293.750 47.358 M392.255 48.447 C 392.073 49.419,391.888 49.640,391.038 49.901 L 390.250 50.143 390.921 50.155 C 391.898 50.172,392.279 49.833,392.418 48.824 C 392.555 47.829,392.427 47.533,392.255 48.447 M298.518 48.676 C 298.494 49.689,298.762 50.014,299.709 50.121 C 300.361 50.194,300.493 50.270,300.553 50.606 C 300.614 50.946,300.621 50.938,300.604 50.553 C 300.587 50.184,300.478 50.076,300.000 49.954 C 299.199 49.750,298.872 49.412,298.690 48.604 L 298.536 47.917 298.518 48.676 M374.949 48.119 C 375.232 48.172,375.330 48.327,375.380 48.802 L 375.445 49.417 375.431 48.750 C 375.418 48.158,375.370 48.082,375.000 48.067 C 374.656 48.054,374.647 48.063,374.949 48.119 M179.985 48.305 C 180.205 48.370,180.448 48.573,180.523 48.754 C 180.643 49.040,180.656 49.029,180.622 48.667 C 180.591 48.332,180.485 48.244,180.083 48.217 C 179.637 48.188,179.627 48.198,179.985 48.305 M210.850 48.855 C 210.830 49.797,211.058 50.020,212.125 50.100 L 212.917 50.159 212.305 49.983 C 211.565 49.769,211.170 49.362,210.997 48.632 C 210.873 48.106,210.867 48.115,210.850 48.855 M318.104 48.344 C 318.910 48.540,319.322 48.941,319.503 49.702 L 319.633 50.250 319.650 49.574 C 319.675 48.585,319.392 48.300,318.320 48.233 L 317.417 48.177 318.104 48.344 M375.513 50.803 C 375.494 51.870,375.704 52.138,376.661 52.265 L 377.483 52.374 377.545 53.145 L 377.607 53.917 377.637 53.121 C 377.664 52.391,377.629 52.312,377.208 52.165 C 376.164 51.801,375.918 51.580,375.722 50.828 L 375.527 50.083 375.513 50.803 M291.696 50.690 C 291.653 51.342,291.125 51.887,290.308 52.121 L 289.583 52.329 290.490 52.252 C 291.640 52.154,291.874 51.926,291.790 50.983 C 291.754 50.580,291.712 50.448,291.696 50.690 M320.298 50.497 C 321.064 50.679,321.463 51.094,321.643 51.896 L 321.798 52.583 321.815 51.792 C 321.839 50.744,321.446 50.327,320.458 50.350 C 319.752 50.367,319.752 50.368,320.298 50.497 M223.545 51.667 C 223.545 52.079,223.578 52.248,223.618 52.042 C 223.657 51.835,223.657 51.498,223.618 51.292 C 223.578 51.085,223.545 51.254,223.545 51.667 M300.677 51.619 C 300.664 52.085,301.131 52.340,301.947 52.311 C 302.371 52.296,302.444 52.266,302.167 52.222 C 301.196 52.069,300.978 51.971,300.837 51.620 L 300.688 51.250 300.677 51.619 M390.153 51.660 C 390.108 51.923,389.934 52.111,389.667 52.185 L 389.250 52.300 389.714 52.317 C 390.202 52.334,390.409 52.061,390.292 51.551 C 390.238 51.317,390.207 51.341,390.153 51.660 M168.000 51.793 C 168.000 52.173,168.598 52.454,169.035 52.279 C 169.153 52.232,169.086 52.187,168.884 52.180 C 168.683 52.173,168.402 52.000,168.259 51.796 L 168.000 51.426 168.000 51.793 M170.048 53.083 C 170.049 53.542,170.081 53.709,170.120 53.456 C 170.158 53.203,170.157 52.828,170.117 52.623 C 170.078 52.418,170.046 52.625,170.048 53.083 M287.958 52.451 C 288.165 52.491,288.502 52.491,288.708 52.451 C 288.915 52.411,288.746 52.379,288.333 52.379 C 287.921 52.379,287.752 52.411,287.958 52.451 M289.375 52.680 C 289.535 52.773,289.673 53.052,289.680 53.300 C 289.687 53.547,289.732 53.653,289.779 53.535 C 289.933 53.152,289.675 52.500,289.372 52.505 C 289.100 52.510,289.100 52.520,289.375 52.680 M212.853 53.675 C 212.829 54.188,213.113 54.506,213.575 54.483 C 213.861 54.469,213.849 54.448,213.500 54.351 C 213.216 54.272,213.050 54.079,212.978 53.743 C 212.879 53.279,212.872 53.275,212.853 53.675 M231.750 53.865 C 231.630 54.143,231.398 54.278,230.917 54.351 L 230.250 54.453 230.843 54.476 C 231.541 54.504,232.061 54.181,231.976 53.771 C 231.927 53.529,231.889 53.545,231.750 53.865 M304.878 54.000 C 304.907 54.311,305.023 54.427,305.333 54.455 C 305.686 54.488,305.700 54.473,305.429 54.360 C 305.253 54.286,305.048 54.081,304.974 53.904 C 304.860 53.633,304.845 53.648,304.878 54.000 M377.694 54.167 C 377.739 54.304,377.995 54.430,378.263 54.447 C 378.569 54.465,378.626 54.443,378.417 54.387 C 378.233 54.338,377.977 54.212,377.848 54.107 C 377.663 53.957,377.630 53.970,377.694 54.167 M321.904 57.750 C 321.904 59.767,321.929 60.569,321.958 59.532 C 321.987 58.496,321.987 56.846,321.958 55.866 C 321.928 54.885,321.904 55.733,321.904 57.750 M145.000 54.648 C 144.689 54.734,144.573 54.889,144.544 55.257 C 144.510 55.692,144.523 55.708,144.658 55.392 C 144.854 54.931,145.099 54.787,145.917 54.652 L 146.583 54.542 146.000 54.537 C 145.679 54.535,145.229 54.585,145.000 54.648 M289.918 54.669 C 289.974 54.759,290.206 54.833,290.434 54.833 C 290.981 54.833,291.662 55.533,291.683 56.117 C 291.692 56.374,291.762 56.771,291.839 57.000 C 291.932 57.279,291.951 57.113,291.896 56.500 C 291.766 55.056,291.692 54.844,291.289 54.764 C 290.183 54.541,289.824 54.516,289.918 54.669 M297.539 54.622 C 296.402 54.724,296.298 55.016,296.363 57.920 C 296.424 60.694,296.497 60.848,297.740 60.816 L 298.417 60.799 297.805 60.636 C 296.777 60.362,296.591 60.012,296.525 58.222 C 296.423 55.454,296.615 55.051,298.182 54.743 C 299.222 54.538,298.980 54.493,297.539 54.622 M303.448 54.640 C 304.527 54.786,304.557 54.818,304.694 55.971 L 304.807 56.917 304.768 55.879 C 304.721 54.614,304.728 54.621,303.541 54.567 L 302.583 54.523 303.448 54.640 M172.183 55.925 C 172.164 56.330,172.464 56.671,172.825 56.655 C 173.006 56.647,172.984 56.605,172.754 56.515 C 172.573 56.444,172.374 56.205,172.312 55.985 C 172.215 55.636,172.198 55.628,172.183 55.925 M253.583 56.998 C 253.666 58.461,253.849 58.676,254.990 58.649 L 255.750 58.631 255.039 58.472 C 254.187 58.281,253.900 57.900,253.676 56.660 C 253.512 55.757,253.512 55.759,253.583 56.998 M309.208 56.333 C 309.246 56.474,309.488 56.595,309.763 56.610 C 310.182 56.633,310.192 56.624,309.833 56.551 C 309.604 56.505,309.355 56.380,309.279 56.275 C 309.187 56.147,309.164 56.166,309.208 56.333 M144.394 58.250 C 144.395 59.167,144.423 59.520,144.456 59.036 C 144.490 58.552,144.490 57.802,144.456 57.369 C 144.421 56.937,144.394 57.333,144.394 58.250 M229.888 57.750 C 229.889 58.392,229.919 58.634,229.955 58.288 C 229.991 57.942,229.990 57.417,229.954 57.121 C 229.917 56.825,229.887 57.108,229.888 57.750 M268.394 58.917 C 268.395 59.833,268.423 60.187,268.456 59.703 C 268.490 59.218,268.490 58.468,268.456 58.036 C 268.421 57.604,268.394 58.000,268.394 58.917 M279.180 57.695 C 279.160 58.370,279.331 58.669,279.726 58.647 C 280.008 58.632,280.022 58.612,279.792 58.552 C 279.631 58.510,279.456 58.275,279.402 58.029 C 279.241 57.298,279.194 57.226,279.180 57.695 M259.557 58.255 C 259.450 58.485,259.434 58.667,259.521 58.667 C 259.706 58.667,259.889 58.248,259.807 58.011 C 259.776 57.919,259.663 58.029,259.557 58.255 M174.426 59.250 C 174.590 60.721,174.716 60.847,176.000 60.814 L 176.583 60.799 176.083 60.679 C 175.253 60.478,174.843 60.181,174.737 59.704 C 174.508 58.662,174.333 58.406,174.426 59.250 M256.963 58.789 C 257.355 58.824,257.955 58.824,258.296 58.788 C 258.637 58.752,258.317 58.723,257.583 58.724 C 256.850 58.724,256.571 58.754,256.963 58.789 M311.708 58.946 C 311.474 59.109,311.337 59.371,311.344 59.645 L 311.354 60.083 311.519 59.671 C 311.720 59.168,311.956 59.007,312.500 59.000 C 312.729 58.997,313.029 58.922,313.167 58.833 C 313.350 58.715,313.240 58.673,312.750 58.678 C 312.383 58.681,311.915 58.802,311.708 58.946 M136.371 59.048 C 137.193 59.321,137.523 59.676,137.672 60.447 L 137.795 61.083 137.814 60.324 C 137.840 59.281,137.577 58.980,136.573 58.904 L 135.750 58.841 136.371 59.048 M306.083 58.943 C 306.267 58.990,306.517 59.153,306.640 59.306 C 306.844 59.559,306.858 59.554,306.805 59.250 C 306.764 59.013,306.603 58.908,306.249 58.887 C 305.958 58.869,305.889 58.893,306.083 58.943 M215.025 59.861 C 214.988 60.520,215.159 60.833,215.555 60.833 L 215.908 60.833 215.548 60.582 C 215.350 60.443,215.157 60.124,215.119 59.873 L 215.050 59.417 215.025 59.861 M259.881 60.250 C 259.882 60.708,259.915 60.876,259.953 60.623 C 259.991 60.369,259.990 59.994,259.951 59.789 C 259.911 59.584,259.880 59.792,259.881 60.250 M294.048 60.250 C 294.049 60.708,294.081 60.876,294.120 60.623 C 294.158 60.369,294.157 59.994,294.117 59.789 C 294.078 59.584,294.046 59.792,294.048 60.250 M229.583 60.193 C 229.492 60.402,229.229 60.624,229.000 60.686 L 228.583 60.800 229.021 60.817 C 229.514 60.835,229.889 60.484,229.805 60.082 C 229.763 59.876,229.711 59.902,229.583 60.193 M125.188 61.696 C 125.162 62.667,125.462 63.010,126.304 62.973 C 126.901 62.947,126.903 62.945,126.387 62.880 C 125.723 62.797,125.466 62.491,125.322 61.611 L 125.208 60.917 125.188 61.696 M152.885 61.917 C 152.886 62.467,152.917 62.672,152.954 62.372 C 152.991 62.072,152.990 61.622,152.952 61.372 C 152.914 61.122,152.884 61.367,152.885 61.917 M155.782 61.117 C 155.394 61.217,155.162 61.840,155.185 62.719 L 155.203 63.417 155.349 62.674 C 155.549 61.651,155.939 61.318,157.108 61.168 L 158.083 61.044 157.083 61.041 C 156.533 61.040,155.948 61.074,155.782 61.117 M192.116 61.117 C 191.739 61.214,191.495 61.834,191.516 62.636 L 191.533 63.250 191.725 62.563 C 191.984 61.637,192.238 61.375,193.056 61.191 L 193.750 61.036 193.083 61.037 C 192.717 61.038,192.281 61.074,192.116 61.117 M236.870 61.259 C 236.536 61.494,236.500 61.659,236.500 62.978 C 236.500 64.750,236.631 64.970,237.750 65.079 L 238.583 65.161 237.936 64.946 C 236.381 64.429,236.102 61.845,237.548 61.342 C 239.046 60.819,240.075 61.330,240.388 62.750 C 240.428 62.933,240.470 62.731,240.481 62.301 C 240.507 61.227,240.161 61.000,238.500 61.000 C 237.630 61.000,237.126 61.080,236.870 61.259 M345.611 61.111 C 345.550 61.172,345.506 61.378,345.513 61.569 C 345.522 61.808,345.554 61.838,345.616 61.667 C 345.665 61.529,345.823 61.323,345.968 61.208 C 346.198 61.025,346.199 61.000,345.976 61.000 C 345.837 61.000,345.672 61.050,345.611 61.111 M356.695 61.184 C 357.443 61.399,357.837 61.813,357.984 62.535 C 358.091 63.063,358.126 63.084,358.923 63.100 L 359.750 63.117 358.958 63.050 L 358.167 62.982 358.167 62.356 C 358.167 61.443,357.873 61.144,356.907 61.070 C 356.088 61.008,356.087 61.009,356.695 61.184 M377.743 61.178 C 377.566 61.464,377.725 61.492,378.074 61.236 C 378.344 61.039,378.353 61.000,378.125 61.000 C 377.975 61.000,377.804 61.080,377.743 61.178 M334.712 62.333 C 334.712 62.746,334.745 62.915,334.784 62.708 C 334.824 62.502,334.824 62.165,334.784 61.958 C 334.745 61.752,334.712 61.921,334.712 62.333 M377.525 62.365 C 377.501 62.964,377.480 62.983,376.792 63.045 L 376.083 63.108 376.797 63.138 C 377.585 63.170,377.737 63.001,377.621 62.222 C 377.560 61.819,377.546 61.840,377.525 62.365 M176.517 62.195 C 176.487 62.695,176.696 63.000,177.059 62.988 C 177.402 62.977,177.403 62.971,177.087 62.848 C 176.906 62.777,176.707 62.539,176.645 62.318 C 176.579 62.080,176.526 62.030,176.517 62.195 M168.794 63.118 C 169.001 63.158,169.301 63.156,169.460 63.115 C 169.620 63.073,169.450 63.040,169.083 63.042 C 168.717 63.044,168.586 63.078,168.794 63.118 M205.208 63.115 C 205.369 63.157,205.631 63.157,205.792 63.115 C 205.952 63.073,205.821 63.039,205.500 63.039 C 205.179 63.039,205.048 63.073,205.208 63.115 M280.042 63.115 C 280.202 63.157,280.465 63.157,280.625 63.115 C 280.785 63.073,280.654 63.039,280.333 63.039 C 280.012 63.039,279.881 63.073,280.042 63.115 M297.127 63.118 C 297.334 63.158,297.634 63.156,297.794 63.115 C 297.953 63.073,297.783 63.040,297.417 63.042 C 297.050 63.044,296.920 63.078,297.127 63.118 M335.708 63.115 C 335.869 63.157,336.131 63.157,336.292 63.115 C 336.452 63.073,336.321 63.039,336.000 63.039 C 335.679 63.039,335.548 63.073,335.708 63.115 M344.125 63.118 C 344.331 63.157,344.669 63.157,344.875 63.118 C 345.081 63.078,344.912 63.045,344.500 63.045 C 344.087 63.045,343.919 63.078,344.125 63.118 M389.460 63.118 C 389.668 63.158,389.968 63.156,390.127 63.115 C 390.286 63.073,390.117 63.040,389.750 63.042 C 389.383 63.044,389.253 63.078,389.460 63.118 M391.614 63.334 C 392.161 63.555,392.333 64.024,392.333 65.291 C 392.333 66.698,392.150 66.973,391.079 67.168 L 390.250 67.319 391.153 67.265 C 392.341 67.193,392.500 66.962,392.500 65.312 C 392.500 63.643,392.323 63.163,391.712 63.177 C 391.279 63.187,391.273 63.197,391.614 63.334 M227.686 64.283 C 227.675 64.600,227.548 64.886,227.375 64.987 C 227.100 65.147,227.100 65.157,227.372 65.162 C 227.686 65.167,227.914 64.556,227.784 64.055 C 227.739 63.879,227.697 63.976,227.686 64.283 M298.389 65.000 C 298.389 65.688,298.419 65.969,298.455 65.625 C 298.491 65.281,298.491 64.719,298.455 64.375 C 298.419 64.031,298.389 64.313,298.389 65.000 M321.692 64.099 C 321.654 64.620,321.133 65.000,320.455 65.000 C 320.124 65.000,319.816 65.060,319.771 65.133 C 319.649 65.330,321.472 65.095,321.680 64.886 C 321.779 64.788,321.827 64.492,321.788 64.229 C 321.741 63.916,321.708 63.871,321.692 64.099 M152.687 64.167 C 152.637 64.662,152.349 64.892,151.639 65.008 L 150.917 65.125 151.593 65.146 C 152.449 65.172,152.891 64.869,152.789 64.324 C 152.746 64.100,152.701 64.029,152.687 64.167 M283.502 64.425 C 283.499 64.913,283.821 65.170,284.408 65.147 L 284.917 65.127 284.421 65.021 C 284.128 64.958,283.840 64.745,283.715 64.499 C 283.527 64.127,283.505 64.119,283.502 64.425 M375.388 65.250 C 375.389 65.892,375.419 66.134,375.455 65.788 C 375.491 65.442,375.490 64.917,375.454 64.621 C 375.417 64.325,375.387 64.608,375.388 65.250 M150.709 65.750 C 150.711 66.117,150.745 66.247,150.785 66.040 C 150.824 65.832,150.823 65.532,150.781 65.373 C 150.739 65.214,150.707 65.383,150.709 65.750 M285.545 65.833 C 285.545 66.246,285.578 66.415,285.618 66.208 C 285.657 66.002,285.657 65.665,285.618 65.458 C 285.578 65.252,285.545 65.421,285.545 65.833 M217.188 66.083 C 217.165 67.034,217.317 67.177,218.432 67.251 C 219.353 67.312,219.365 67.308,218.626 67.192 C 217.676 67.043,217.488 66.878,217.328 66.050 L 217.205 65.417 217.188 66.083 M266.157 66.493 C 266.100 66.936,265.986 67.097,265.667 67.185 C 265.284 67.291,265.280 67.301,265.615 67.317 C 265.816 67.326,266.031 67.252,266.092 67.152 C 266.173 67.022,266.255 67.022,266.385 67.152 C 266.485 67.252,266.641 67.333,266.732 67.333 C 266.823 67.333,266.775 67.240,266.626 67.125 C 266.476 67.010,266.326 66.692,266.292 66.417 L 266.230 65.917 266.157 66.493 M189.189 66.547 C 189.174 66.859,189.044 67.060,188.792 67.161 C 188.538 67.263,188.504 67.316,188.688 67.323 C 189.076 67.338,189.371 66.916,189.285 66.468 C 189.221 66.131,189.209 66.140,189.189 66.547 M319.523 66.355 C 319.487 66.776,319.034 67.061,318.189 67.193 C 317.442 67.309,317.448 67.311,318.381 67.267 C 319.466 67.216,319.728 67.049,319.620 66.478 C 319.579 66.261,319.535 66.205,319.523 66.355 M129.505 66.872 C 129.500 67.186,130.111 67.414,130.612 67.284 C 130.787 67.239,130.690 67.197,130.383 67.186 C 130.067 67.175,129.781 67.048,129.680 66.875 C 129.520 66.600,129.510 66.600,129.505 66.872 M150.477 66.818 C 150.434 66.947,150.066 67.112,149.658 67.185 L 148.917 67.318 149.717 67.262 C 150.595 67.200,150.737 67.129,150.628 66.802 C 150.571 66.629,150.539 66.632,150.477 66.818 M155.172 66.872 C 155.166 67.186,155.777 67.414,156.278 67.284 C 156.454 67.239,156.357 67.197,156.050 67.186 C 155.733 67.175,155.447 67.048,155.347 66.875 C 155.187 66.600,155.177 66.600,155.172 66.872 M298.527 67.000 C 298.572 67.137,298.828 67.263,299.096 67.280 C 299.402 67.299,299.459 67.277,299.250 67.220 C 299.067 67.171,298.811 67.045,298.681 66.940 C 298.496 66.791,298.463 66.804,298.527 67.000 M146.192 67.980 C 145.965 68.737,145.698 68.995,144.957 69.171 L 144.417 69.299 145.093 69.316 C 145.993 69.339,146.288 69.075,146.424 68.125 C 146.562 67.166,146.456 67.100,146.192 67.980 M304.858 67.969 C 304.827 68.865,305.067 69.337,305.548 69.323 L 305.917 69.312 305.547 69.163 C 305.184 69.017,305.071 68.751,304.946 67.750 C 304.900 67.380,304.877 67.437,304.858 67.969 M315.171 67.984 C 314.923 68.904,314.493 69.141,312.736 69.325 L 311.250 69.482 312.987 69.398 C 315.118 69.295,315.257 69.228,315.394 68.230 C 315.531 67.230,315.410 67.096,315.171 67.984 M135.891 68.654 C 135.906 68.996,136.017 69.257,136.167 69.306 C 136.364 69.370,136.376 69.338,136.224 69.152 C 136.119 69.023,135.994 68.729,135.949 68.500 C 135.890 68.210,135.873 68.257,135.891 68.654 M136.877 69.453 C 137.131 69.491,137.506 69.490,137.711 69.451 C 137.916 69.411,137.708 69.380,137.250 69.381 C 136.792 69.382,136.624 69.415,136.877 69.453 M142.792 69.454 C 143.090 69.491,143.577 69.491,143.875 69.454 C 144.173 69.417,143.929 69.387,143.333 69.387 C 142.737 69.387,142.494 69.417,142.792 69.454 M306.708 69.456 C 307.144 69.490,307.856 69.490,308.292 69.456 C 308.727 69.422,308.371 69.393,307.500 69.393 C 306.629 69.393,306.273 69.422,306.708 69.456 M96.833 70.780 C 96.833 70.873,96.665 71.030,96.458 71.130 C 96.190 71.259,96.160 71.314,96.355 71.322 C 96.663 71.335,97.103 70.881,96.940 70.718 C 96.882 70.659,96.833 70.687,96.833 70.780 M94.748 74.872 C 94.657 75.077,94.396 75.338,94.167 75.453 C 93.862 75.605,93.829 75.662,94.042 75.664 C 94.398 75.667,95.000 75.093,95.000 74.750 C 95.000 74.407,94.941 74.436,94.748 74.872 M90.371 81.502 C 90.260 81.679,89.926 81.893,89.627 81.980 C 89.328 82.066,89.210 82.143,89.364 82.152 C 89.828 82.176,90.447 81.878,90.565 81.572 C 90.721 81.165,90.607 81.124,90.371 81.502 M7.672 81.605 C 7.664 81.880,8.121 82.212,8.369 82.112 C 8.507 82.057,8.482 82.022,8.300 82.013 C 8.144 82.006,7.940 81.869,7.847 81.708 C 7.753 81.548,7.675 81.501,7.672 81.605 M82.000 89.641 C 82.000 89.998,81.563 90.430,81.083 90.547 C 80.782 90.620,80.786 90.630,81.125 90.647 C 81.583 90.671,82.167 90.121,82.167 89.667 C 82.167 89.483,82.129 89.333,82.083 89.333 C 82.037 89.333,82.000 89.472,82.000 89.641 M16.177 90.021 C 16.165 90.330,16.619 90.770,16.782 90.607 C 16.841 90.548,16.799 90.500,16.689 90.500 C 16.579 90.500,16.421 90.331,16.339 90.125 C 16.237 89.871,16.184 89.838,16.177 90.021 M75.214 94.434 C 75.011 94.654,74.912 94.833,74.994 94.833 C 75.190 94.833,75.667 94.352,75.667 94.155 C 75.667 93.953,75.649 93.964,75.214 94.434 M26.846 96.176 C 26.839 96.319,26.950 96.582,27.093 96.760 C 27.348 97.078,27.349 97.078,27.198 96.750 C 27.114 96.567,27.003 96.304,26.952 96.167 C 26.872 95.951,26.858 95.952,26.846 96.176 M71.167 96.447 C 71.167 96.540,70.998 96.697,70.792 96.797 C 70.585 96.896,70.496 96.983,70.593 96.989 C 70.873 97.007,71.429 96.540,71.291 96.403 C 71.223 96.334,71.167 96.354,71.167 96.447 M67.375 97.282 C 67.535 97.323,67.798 97.323,67.958 97.282 C 68.119 97.240,67.987 97.205,67.667 97.205 C 67.346 97.205,67.215 97.240,67.375 97.282 " stroke="none" fill="#000000" fill-rule="evenodd"></path><path id="path1" d="M33.205 0.500 C 33.205 0.821,33.240 0.952,33.282 0.792 C 33.323 0.631,33.323 0.369,33.282 0.208 C 33.240 0.048,33.205 0.179,33.205 0.500 M65.042 0.540 C 65.071 0.918,65.172 1.088,65.378 1.107 C 65.566 1.123,65.585 1.105,65.430 1.056 C 65.296 1.014,65.144 0.759,65.093 0.490 C 65.004 0.022,65.002 0.025,65.042 0.540 M72.750 28.233 C 72.383 28.349,71.558 28.720,70.917 29.057 C 70.275 29.394,69.201 29.824,68.531 30.012 C 67.687 30.249,67.118 30.529,66.683 30.922 C 66.337 31.234,65.572 31.706,64.982 31.971 C 64.392 32.236,63.536 32.776,63.079 33.171 C 62.623 33.566,61.863 34.138,61.389 34.441 C 60.916 34.744,60.367 35.219,60.170 35.496 C 59.973 35.773,59.487 36.222,59.091 36.495 C 58.695 36.767,58.173 37.327,57.932 37.739 C 57.691 38.151,57.182 38.847,56.802 39.285 C 56.422 39.724,55.866 40.619,55.567 41.274 C 55.269 41.929,54.764 42.807,54.446 43.224 C 53.483 44.485,53.472 44.676,53.531 60.038 L 53.583 73.826 54.042 74.285 L 54.501 74.744 55.626 74.449 C 56.244 74.287,57.026 73.973,57.362 73.750 C 57.954 73.359,59.176 72.893,60.604 72.514 C 60.982 72.414,61.661 72.038,62.113 71.678 C 62.564 71.319,63.451 70.813,64.083 70.554 C 64.756 70.279,65.478 69.832,65.825 69.477 C 66.150 69.143,66.792 68.642,67.250 68.363 C 67.708 68.084,68.218 67.626,68.383 67.347 C 68.548 67.067,69.015 66.610,69.421 66.331 C 69.827 66.051,70.345 65.506,70.572 65.118 C 70.799 64.731,71.244 64.162,71.561 63.855 C 71.890 63.536,72.372 62.748,72.682 62.023 C 72.982 61.323,73.487 60.387,73.806 59.943 C 74.672 58.735,74.828 57.782,74.831 53.676 L 74.833 50.102 74.385 49.634 L 73.938 49.167 69.539 49.167 L 65.141 49.167 64.654 48.679 L 64.167 48.192 64.167 45.942 L 64.167 43.692 64.679 43.179 L 65.192 42.667 69.667 42.667 L 74.142 42.667 74.497 42.216 C 74.846 41.772,74.850 41.679,74.801 35.313 L 74.750 28.860 74.346 28.430 C 73.896 27.951,73.713 27.929,72.750 28.233 M24.154 28.597 L 23.750 29.027 23.700 42.828 C 23.645 58.233,23.640 58.150,24.733 59.648 C 25.042 60.071,25.529 60.985,25.817 61.679 C 26.135 62.446,26.573 63.165,26.935 63.512 C 27.262 63.826,27.710 64.435,27.930 64.866 C 28.171 65.339,28.615 65.844,29.051 66.145 C 29.448 66.418,29.954 66.905,30.175 67.228 C 30.397 67.551,30.879 67.980,31.247 68.181 C 31.615 68.381,32.217 68.832,32.583 69.182 C 32.950 69.532,33.821 70.082,34.520 70.404 C 35.218 70.726,36.101 71.250,36.482 71.568 C 36.863 71.886,37.304 72.184,37.462 72.229 C 37.620 72.275,38.313 72.473,39.000 72.671 C 39.688 72.868,40.700 73.274,41.250 73.573 C 42.962 74.503,43.766 74.643,44.304 74.105 L 44.750 73.659 44.750 59.705 C 44.750 44.222,44.772 44.562,43.672 43.083 C 43.331 42.625,42.883 41.822,42.676 41.299 C 42.469 40.776,41.931 39.926,41.480 39.410 C 41.028 38.894,40.514 38.188,40.337 37.840 C 40.160 37.493,39.639 36.939,39.181 36.610 C 38.723 36.280,38.234 35.792,38.096 35.524 C 37.954 35.250,37.453 34.817,36.947 34.531 C 36.453 34.253,35.682 33.706,35.233 33.317 C 34.784 32.928,33.929 32.389,33.333 32.119 C 32.737 31.848,31.978 31.383,31.646 31.083 C 31.213 30.693,30.555 30.388,29.314 30.002 C 28.364 29.707,27.378 29.317,27.123 29.135 C 26.697 28.832,25.032 28.167,24.700 28.167 C 24.622 28.167,24.376 28.360,24.154 28.597 " stroke="none" fill="#ffffff" fill-rule="evenodd"></path><path id="path2" d="M30.708 1.119 C 30.960 1.158,31.373 1.158,31.625 1.119 C 31.877 1.081,31.671 1.050,31.167 1.050 C 30.662 1.050,30.456 1.081,30.708 1.119 M66.044 1.120 C 66.297 1.158,66.672 1.157,66.877 1.117 C 67.082 1.078,66.875 1.046,66.417 1.048 C 65.958 1.049,65.791 1.081,66.044 1.120 M69.428 1.351 C 69.478 1.433,69.671 1.500,69.856 1.500 C 70.249 1.500,71.167 2.359,71.167 2.727 C 71.167 2.866,71.241 3.026,71.331 3.082 C 71.422 3.138,71.466 3.086,71.429 2.967 C 71.392 2.848,71.317 2.546,71.262 2.296 C 71.207 2.047,70.997 1.754,70.794 1.645 C 70.290 1.376,69.313 1.165,69.428 1.351 M27.159 1.681 C 26.903 2.159,27.013 2.173,27.452 1.717 C 27.714 1.445,27.752 1.333,27.583 1.333 C 27.452 1.333,27.261 1.490,27.159 1.681 M23.223 3.500 C 22.865 3.644,22.546 4.269,22.735 4.457 C 22.789 4.511,22.833 4.440,22.833 4.298 C 22.833 3.951,23.223 3.651,23.876 3.496 C 24.324 3.389,24.345 3.366,24.000 3.361 C 23.771 3.357,23.421 3.420,23.223 3.500 M73.732 3.472 C 73.799 3.579,73.988 3.667,74.154 3.667 C 74.623 3.667,75.313 4.300,75.483 4.885 L 75.637 5.417 75.652 4.867 C 75.669 4.241,75.056 3.500,74.521 3.500 C 74.341 3.500,74.063 3.450,73.903 3.388 C 73.705 3.312,73.650 3.339,73.732 3.472 M16.806 7.779 C 16.520 7.855,16.258 8.314,16.413 8.468 C 16.461 8.516,16.500 8.464,16.500 8.353 C 16.500 8.242,16.744 8.045,17.042 7.915 C 17.552 7.693,17.419 7.617,16.806 7.779 M80.796 7.995 C 81.335 8.244,81.590 8.498,81.838 9.037 L 82.166 9.750 82.067 9.167 C 81.941 8.423,81.410 7.893,80.667 7.766 L 80.083 7.667 80.796 7.995 M83.875 10.013 C 84.035 10.107,84.173 10.311,84.180 10.467 C 84.188 10.649,84.224 10.674,84.279 10.536 C 84.379 10.288,84.046 9.831,83.771 9.838 C 83.668 9.841,83.715 9.920,83.875 10.013 M8.000 16.500 C 7.817 16.683,7.671 16.965,7.677 17.125 C 7.686 17.369,7.710 17.361,7.825 17.078 C 7.993 16.664,8.307 16.396,8.750 16.287 C 9.052 16.213,9.048 16.204,8.708 16.186 C 8.502 16.175,8.183 16.317,8.000 16.500 M89.665 16.520 C 90.089 16.689,90.332 16.989,90.525 17.583 C 90.625 17.890,90.635 17.887,90.650 17.534 C 90.670 17.081,89.975 16.329,89.549 16.344 C 89.330 16.352,89.362 16.399,89.665 16.520 M3.778 22.876 C 3.621 22.990,3.458 23.384,3.416 23.751 C 3.348 24.336,3.356 24.355,3.476 23.902 C 3.662 23.205,3.804 23.002,4.225 22.832 C 4.459 22.738,4.493 22.684,4.324 22.677 C 4.181 22.671,3.935 22.761,3.778 22.876 M94.186 23.001 C 94.465 23.164,94.729 23.731,94.911 24.561 C 94.969 24.824,95.046 25.010,95.082 24.973 C 95.378 24.678,94.525 22.827,94.099 22.838 C 93.999 22.841,94.038 22.914,94.186 23.001 M1.873 27.006 C 1.431 27.183,1.123 27.883,1.217 28.490 C 1.275 28.862,1.287 28.850,1.308 28.393 C 1.342 27.697,1.795 27.170,2.504 27.004 C 2.952 26.898,2.989 26.866,2.667 26.861 C 2.438 26.857,2.080 26.923,1.873 27.006 M95.167 26.997 C 95.167 27.067,95.386 27.169,95.654 27.222 C 96.267 27.345,96.762 27.868,96.914 28.553 C 96.978 28.845,97.066 28.995,97.109 28.887 C 97.245 28.542,96.840 27.372,96.540 27.248 C 95.985 27.019,95.167 26.869,95.167 26.997 M1.050 31.167 C 1.050 31.671,1.081 31.877,1.119 31.625 C 1.158 31.373,1.158 30.960,1.119 30.708 C 1.081 30.456,1.050 30.662,1.050 31.167 M98.583 33.532 C 98.767 33.636,98.972 33.803,99.039 33.902 C 99.123 34.027,99.162 34.020,99.164 33.881 C 99.166 33.770,99.022 33.601,98.844 33.506 C 98.406 33.271,98.166 33.296,98.583 33.532 M99.128 64.095 C 99.065 64.395,98.861 64.683,98.635 64.792 C 98.340 64.934,98.317 64.980,98.538 64.989 C 98.893 65.003,99.383 64.290,99.298 63.883 C 99.256 63.681,99.200 63.750,99.128 64.095 M1.050 67.167 C 1.050 67.671,1.081 67.877,1.119 67.625 C 1.158 67.373,1.158 66.960,1.119 66.708 C 1.081 66.456,1.050 66.662,1.050 67.167 M96.914 69.780 C 96.762 70.466,96.267 70.988,95.654 71.111 C 95.386 71.164,95.167 71.266,95.167 71.337 C 95.167 71.464,95.985 71.314,96.540 71.085 C 96.840 70.962,97.245 69.792,97.109 69.446 C 97.066 69.338,96.978 69.489,96.914 69.780 M1.243 70.148 C 1.323 71.046,1.581 71.323,2.428 71.419 C 3.077 71.494,3.078 71.493,2.523 71.348 C 1.787 71.155,1.481 70.827,1.314 70.053 L 1.178 69.417 1.243 70.148 M94.911 73.772 C 94.729 74.602,94.465 75.169,94.186 75.332 C 94.038 75.419,93.999 75.492,94.099 75.495 C 94.525 75.507,95.378 73.655,95.082 73.360 C 95.046 73.324,94.969 73.509,94.911 73.772 M3.348 74.588 C 3.328 75.046,3.787 75.669,4.134 75.655 C 4.348 75.647,4.325 75.600,4.040 75.462 C 3.832 75.362,3.595 75.049,3.513 74.765 C 3.411 74.414,3.359 74.358,3.348 74.588 M90.495 80.792 C 90.487 81.193,90.131 81.626,89.652 81.818 C 89.349 81.939,89.324 81.981,89.549 81.989 C 89.950 82.004,90.667 81.267,90.667 80.841 C 90.667 80.427,90.502 80.380,90.495 80.792 M7.680 81.136 C 7.660 81.461,7.984 82.000,8.198 82.000 C 8.310 82.000,8.283 81.883,8.131 81.708 C 7.991 81.548,7.835 81.304,7.785 81.167 C 7.721 80.994,7.689 80.985,7.680 81.136 M84.180 87.867 C 84.173 88.023,84.035 88.227,83.875 88.320 C 83.715 88.413,83.668 88.492,83.771 88.495 C 84.046 88.502,84.379 88.046,84.279 87.797 C 84.224 87.659,84.188 87.684,84.180 87.867 M81.772 89.768 C 81.710 89.961,81.492 90.200,81.288 90.298 C 81.029 90.423,80.997 90.481,81.183 90.489 C 81.524 90.503,82.057 89.918,81.960 89.635 C 81.913 89.497,81.844 89.546,81.772 89.768 M16.333 90.135 C 16.333 90.377,16.960 90.712,17.218 90.607 C 17.349 90.554,17.336 90.522,17.180 90.513 C 17.050 90.506,16.806 90.376,16.638 90.224 C 16.466 90.069,16.333 90.030,16.333 90.135 M75.519 93.304 C 75.495 93.790,74.639 94.667,74.189 94.667 C 74.004 94.667,73.807 94.741,73.752 94.831 C 73.611 95.058,74.653 94.853,75.122 94.561 C 75.523 94.311,75.744 93.713,75.617 93.222 C 75.556 92.983,75.534 93.002,75.519 93.304 M22.677 94.010 C 22.658 94.486,23.077 94.840,23.751 94.918 C 24.336 94.985,24.355 94.978,23.902 94.857 C 23.205 94.671,23.002 94.529,22.832 94.108 C 22.738 93.874,22.684 93.840,22.677 94.010 M71.278 95.278 C 71.217 95.339,71.167 95.512,71.167 95.663 C 71.167 96.075,70.538 96.667,69.984 96.778 C 69.714 96.832,69.459 96.931,69.418 96.998 C 69.336 97.130,70.401 96.951,70.873 96.754 C 71.033 96.687,71.244 96.333,71.342 95.966 C 71.519 95.310,71.496 95.060,71.278 95.278 M27.000 96.307 C 27.000 96.546,27.444 97.046,27.598 96.981 C 27.682 96.946,27.581 96.751,27.375 96.548 C 27.169 96.345,27.000 96.237,27.000 96.307 M30.708 97.286 C 30.960 97.324,31.373 97.324,31.625 97.286 C 31.877 97.248,31.671 97.217,31.167 97.217 C 30.662 97.217,30.456 97.248,30.708 97.286 M66.044 97.286 C 66.297 97.325,66.672 97.324,66.877 97.284 C 67.082 97.244,66.875 97.213,66.417 97.214 C 65.958 97.216,65.791 97.248,66.044 97.286 " stroke="none" fill="#00ffff" fill-rule="evenodd"></path><path id="path3" d="M122.833 33.347 C 121.496 33.571,121.041 34.177,121.155 35.583 C 121.225 36.436,121.538 36.845,122.273 37.041 L 123.000 37.236 123.000 38.168 C 123.000 39.321,123.171 39.500,124.276 39.500 L 125.151 39.500 125.201 50.716 C 125.255 62.988,125.241 62.830,126.212 62.836 C 127.156 62.841,127.333 62.995,127.336 63.811 C 127.339 64.882,127.488 65.041,128.568 65.131 L 129.500 65.208 129.500 65.905 C 129.500 67.203,129.577 67.235,132.888 67.307 L 135.807 67.371 135.918 68.177 C 136.071 69.288,136.154 69.324,138.770 69.439 C 143.638 69.651,145.818 69.228,146.186 68.001 L 146.386 67.333 147.568 67.323 C 150.179 67.301,150.660 67.079,150.664 65.893 C 150.667 65.154,150.832 65.002,151.639 64.997 C 152.907 64.990,152.882 65.221,152.963 52.627 L 153.035 41.504 153.683 41.329 C 154.357 41.147,154.833 40.532,154.833 39.842 C 154.833 39.514,154.926 39.500,157.083 39.500 L 159.333 39.500 159.333 50.224 L 159.333 60.948 157.736 61.118 C 155.459 61.360,155.167 61.820,155.167 65.158 C 155.167 67.446,154.467 67.241,162.478 67.302 C 167.275 67.338,169.421 67.298,169.664 67.168 C 170.116 66.926,170.119 63.281,169.667 63.221 C 169.529 63.203,169.060 63.141,168.625 63.084 L 167.833 62.980 167.857 56.448 C 167.870 52.856,167.927 50.300,167.984 50.769 C 168.119 51.874,168.359 52.136,169.351 52.268 L 170.167 52.376 170.167 53.262 C 170.167 54.275,170.204 54.314,171.309 54.445 L 172.125 54.542 172.225 55.383 C 172.349 56.431,172.447 56.528,173.490 56.628 L 174.333 56.709 174.333 57.496 C 174.333 57.929,174.402 58.501,174.486 58.767 C 174.570 59.033,174.684 59.455,174.739 59.705 C 174.842 60.178,175.551 60.667,176.135 60.667 C 176.399 60.667,176.470 60.826,176.550 61.607 C 176.669 62.759,176.763 62.860,177.824 62.961 L 178.667 63.042 178.667 63.843 C 178.667 64.888,178.950 65.167,180.012 65.167 L 180.833 65.167 180.833 66.077 C 180.833 66.823,180.895 67.021,181.172 67.170 C 181.682 67.443,188.747 67.320,189.034 67.033 C 189.207 66.860,189.259 64.085,189.296 53.167 L 189.343 39.516 190.296 39.467 L 191.250 39.417 191.350 38.667 C 191.443 37.970,191.452 37.958,191.475 38.508 C 191.509 39.316,191.752 39.500,192.783 39.500 L 193.667 39.500 193.667 50.312 L 193.667 61.124 193.028 61.226 C 191.862 61.413,191.500 62.363,191.500 65.235 C 191.500 66.798,191.535 67.007,191.822 67.161 C 192.210 67.368,205.806 67.399,206.131 67.192 C 206.289 67.092,206.333 66.564,206.297 65.153 L 206.250 63.250 205.208 63.110 L 204.167 62.971 204.167 51.235 L 204.167 39.500 205.292 39.486 C 208.852 39.443,208.562 39.282,208.672 41.366 C 208.772 43.260,209.025 43.667,210.102 43.667 L 210.667 43.667 210.667 44.988 C 210.667 48.195,211.114 49.623,212.205 49.900 L 212.794 50.049 212.864 52.025 C 212.944 54.265,212.965 54.305,214.121 54.442 L 214.967 54.543 215.025 57.369 C 215.091 60.584,215.197 60.833,216.499 60.833 L 217.128 60.833 217.197 63.542 C 217.297 67.434,216.996 67.184,221.708 67.294 C 225.717 67.388,225.667 67.403,225.667 66.063 L 225.667 65.167 226.385 65.167 C 227.596 65.167,227.696 64.998,227.793 62.803 L 227.878 60.881 228.644 60.732 C 229.683 60.530,229.762 60.308,229.900 57.211 C 230.033 54.237,229.954 54.468,230.873 54.344 C 231.906 54.205,231.995 53.920,231.998 50.708 L 232.000 48.000 232.792 47.997 C 234.048 47.993,234.072 47.951,234.167 45.638 L 234.250 43.596 234.798 43.484 C 235.843 43.272,236.333 42.262,236.333 40.321 L 236.333 39.500 238.500 39.500 L 240.667 39.500 240.667 51.250 C 240.667 58.972,240.610 63.000,240.500 63.000 C 240.408 63.000,240.333 62.854,240.333 62.675 C 240.333 61.471,239.003 60.834,237.548 61.342 C 236.122 61.839,236.408 64.623,237.914 64.905 L 238.500 65.015 238.500 65.974 C 238.500 67.452,237.324 67.335,252.075 67.317 C 266.525 67.298,266.037 67.327,266.186 66.493 L 266.289 65.917 266.311 66.452 C 266.325 66.796,266.449 67.050,266.656 67.161 C 267.032 67.362,280.634 67.402,280.947 67.203 C 281.625 66.772,281.381 63.167,280.674 63.167 C 280.418 63.167,279.974 63.120,279.688 63.063 L 279.167 62.958 279.184 60.104 C 279.194 58.338,279.250 57.460,279.331 57.800 C 279.502 58.522,279.520 58.535,280.496 58.629 L 281.333 58.709 281.333 59.449 C 281.333 60.622,281.525 60.833,282.589 60.833 L 283.500 60.833 283.502 62.458 C 283.506 64.570,283.655 64.871,284.796 65.065 L 285.667 65.214 285.667 66.111 C 285.667 67.355,285.548 67.333,292.228 67.333 C 298.871 67.333,298.321 67.512,298.368 65.342 L 298.403 63.750 298.457 65.276 C 298.531 67.322,298.382 67.238,302.025 67.305 L 305.000 67.360 305.000 67.982 C 305.000 69.131,305.166 69.212,307.854 69.369 C 312.596 69.646,314.834 69.234,315.160 68.026 L 315.333 67.383 317.034 67.272 C 319.024 67.142,319.439 66.942,319.589 66.043 C 319.756 65.035,319.786 65.000,320.469 65.000 C 321.757 65.000,321.743 65.065,321.800 58.633 C 321.863 51.491,321.675 50.500,320.261 50.500 C 319.801 50.500,319.500 50.199,319.500 49.739 C 319.500 48.775,318.279 48.167,316.341 48.167 L 315.531 48.167 315.421 47.367 C 315.246 46.093,315.248 46.094,313.110 46.026 L 311.206 45.965 311.126 45.132 C 311.034 44.181,310.907 44.064,309.800 43.912 L 309.000 43.802 309.000 43.080 C 309.000 42.168,308.683 41.839,307.780 41.814 L 307.083 41.794 307.867 41.662 C 308.955 41.479,309.000 41.429,309.000 40.407 L 309.000 39.500 310.167 39.500 L 311.333 39.500 311.333 40.178 C 311.333 41.200,311.540 41.451,312.489 41.582 L 313.317 41.696 313.414 42.473 C 313.747 45.144,313.890 45.452,314.869 45.608 C 315.547 45.717,315.701 45.904,315.908 46.872 C 316.066 47.614,316.726 47.833,318.803 47.833 C 321.789 47.833,321.834 47.735,321.832 41.200 C 321.831 35.269,321.939 35.509,319.228 35.375 L 317.539 35.291 317.455 34.548 C 317.306 33.227,317.118 33.189,310.667 33.179 C 305.116 33.170,305.160 33.161,304.928 34.461 L 304.773 35.333 302.907 35.333 C 300.778 35.333,300.759 35.344,300.586 36.625 L 300.469 37.500 299.746 37.500 C 298.584 37.500,298.553 37.584,298.414 41.088 C 298.162 47.492,298.534 49.578,299.999 49.955 C 300.540 50.093,300.591 50.163,300.697 50.908 C 300.866 52.088,301.324 52.300,303.770 52.323 L 304.791 52.333 304.872 53.176 C 304.986 54.361,305.073 54.409,307.258 54.473 L 309.167 54.529 309.167 55.251 C 309.167 56.376,309.253 56.474,310.349 56.598 L 311.333 56.710 311.333 57.501 C 311.333 58.458,311.511 58.629,312.588 58.702 C 313.445 58.760,313.343 58.835,312.058 59.093 C 311.683 59.168,311.333 59.899,311.333 60.608 L 311.333 61.000 309.083 61.000 L 306.833 61.000 306.833 60.322 C 306.833 59.295,306.616 59.027,305.684 58.903 L 304.874 58.796 304.758 57.013 C 304.617 54.839,304.595 54.800,303.387 54.649 C 299.741 54.194,296.997 54.665,296.656 55.804 C 296.045 57.842,296.638 60.386,297.773 60.599 L 298.333 60.704 298.333 62.003 C 298.333 63.152,298.300 63.295,298.042 63.243 C 297.881 63.211,297.394 63.138,296.958 63.082 L 296.167 62.980 296.167 62.162 C 296.167 61.197,295.928 61.000,294.761 61.000 L 294.000 61.000 294.000 60.089 C 294.000 59.037,293.786 58.833,292.678 58.833 C 292.024 58.833,292.000 58.814,292.000 58.292 C 292.000 56.385,291.405 55.041,290.477 54.851 C 289.949 54.743,289.910 54.686,289.777 53.827 C 289.601 52.692,289.526 52.616,288.454 52.486 L 287.583 52.380 288.446 52.357 C 291.131 52.284,291.971 51.427,291.994 48.736 C 292.000 48.059,292.004 48.055,292.788 47.903 C 293.967 47.674,294.027 47.475,293.953 44.000 C 293.879 40.464,293.636 39.833,292.349 39.833 C 292.103 39.833,292.028 39.648,291.941 38.819 C 291.804 37.504,291.800 37.500,290.761 37.500 L 289.875 37.500 289.797 36.568 C 289.698 35.375,289.627 35.339,287.397 35.336 L 285.543 35.333 285.457 34.566 C 285.298 33.158,285.969 33.250,275.836 33.250 C 268.686 33.250,266.806 33.294,266.633 33.467 C 266.479 33.621,266.400 34.444,266.358 36.313 C 266.290 39.396,266.333 39.500,267.679 39.500 L 268.500 39.500 268.500 50.361 C 268.500 56.335,268.454 61.176,268.398 61.120 C 268.341 61.063,268.308 60.113,268.323 59.008 L 268.351 56.998 267.914 56.832 C 267.675 56.741,266.319 56.667,264.902 56.667 L 262.325 56.667 262.163 57.094 C 262.073 57.329,262.000 57.817,262.000 58.178 L 262.000 58.833 261.200 58.833 C 260.182 58.833,260.000 59.028,260.000 60.117 L 260.000 61.000 255.667 61.000 L 251.333 61.000 251.333 57.750 L 251.333 54.500 252.383 54.500 L 253.433 54.500 253.624 56.015 C 253.929 58.433,254.399 58.729,257.761 58.631 C 260.002 58.566,259.828 59.211,259.831 50.979 C 259.834 42.907,260.209 43.778,256.759 43.857 C 253.493 43.932,253.611 43.842,253.526 46.337 L 253.463 48.167 252.398 48.167 L 251.333 48.167 251.333 43.833 L 251.333 39.500 253.542 39.501 L 255.750 39.502 256.000 40.293 C 256.232 41.026,256.309 41.102,257.059 41.339 C 257.812 41.578,257.887 41.652,258.142 42.421 C 258.365 43.091,258.510 43.273,258.917 43.392 C 259.854 43.667,259.913 43.742,260.000 44.767 L 260.083 45.750 261.000 45.872 C 262.790 46.110,265.494 45.633,265.822 45.021 C 266.140 44.428,266.341 40.862,266.199 38.354 C 266.047 35.693,266.016 35.625,264.854 35.439 C 264.232 35.340,264.210 35.313,264.065 34.464 C 263.949 33.783,263.825 33.545,263.500 33.379 C 262.900 33.074,224.760 33.149,224.222 33.457 C 223.742 33.732,223.654 34.220,223.616 36.828 C 223.575 39.576,223.507 39.500,226.032 39.500 L 227.833 39.500 227.833 41.659 L 227.833 43.818 227.208 43.924 C 225.745 44.171,225.811 44.011,225.707 47.542 L 225.624 50.333 224.907 50.333 C 223.980 50.333,223.675 50.647,223.637 51.637 C 223.621 52.066,223.565 51.533,223.512 50.452 C 223.404 48.229,223.371 48.173,222.139 48.169 L 221.361 48.167 221.305 45.236 C 221.242 41.904,221.213 41.833,219.885 41.833 L 219.167 41.833 219.167 40.667 L 219.167 39.500 220.063 39.500 C 221.351 39.500,221.366 39.462,221.304 36.432 C 221.258 34.215,221.207 33.802,220.952 33.547 C 220.564 33.159,192.190 33.077,191.804 33.463 C 191.683 33.583,191.547 34.304,191.489 35.129 L 191.386 36.583 191.360 35.240 C 191.317 33.075,191.908 33.249,184.638 33.254 C 177.453 33.258,177.235 33.291,176.867 34.414 C 176.431 35.746,176.939 36.880,178.067 37.091 L 178.652 37.201 178.701 38.309 L 178.750 39.417 179.792 39.466 L 180.833 39.516 180.811 45.050 C 180.798 48.339,180.739 50.190,180.665 49.612 C 180.514 48.425,180.444 48.350,179.362 48.222 L 178.500 48.120 178.500 47.233 C 178.500 46.210,178.278 46.000,177.199 46.000 L 176.543 46.000 176.432 45.018 C 176.310 43.936,176.190 43.840,174.958 43.836 L 174.333 43.833 174.333 43.091 C 174.333 41.245,173.771 40.047,172.833 39.897 C 172.214 39.798,172.209 39.792,172.113 38.861 C 171.999 37.759,171.738 37.500,170.742 37.500 L 170.048 37.500 169.959 36.205 C 169.741 33.026,170.842 33.250,155.444 33.250 L 142.971 33.250 142.652 33.643 C 142.370 33.991,142.333 34.323,142.333 36.507 C 142.333 39.382,142.385 39.500,143.657 39.500 L 144.456 39.500 144.551 40.207 C 144.665 41.056,145.140 41.500,145.935 41.500 L 146.500 41.500 146.500 48.083 L 146.500 54.667 145.935 54.667 C 144.737 54.667,144.599 54.976,144.474 57.943 C 144.413 59.395,144.356 60.677,144.348 60.792 C 144.337 60.951,143.548 61.000,141.000 61.000 L 137.667 61.000 137.667 60.522 C 137.667 59.854,137.118 59.226,136.420 59.095 L 135.833 58.985 135.833 49.242 L 135.833 39.500 136.625 39.497 C 137.908 39.493,137.919 39.473,137.902 37.048 C 137.885 34.421,137.767 33.736,137.284 33.460 C 136.835 33.203,124.283 33.105,122.833 33.347 M322.750 33.279 C 322.078 33.445,322.000 33.780,322.000 36.499 C 322.000 39.483,322.007 39.500,323.285 39.500 L 324.169 39.500 324.126 50.281 L 324.083 61.062 323.500 61.212 C 322.298 61.520,322.000 62.324,322.000 65.252 C 322.000 66.798,322.035 67.007,322.322 67.161 C 322.710 67.368,336.306 67.399,336.631 67.192 C 336.789 67.092,336.833 66.564,336.797 65.153 L 336.750 63.250 335.708 63.110 L 334.667 62.971 334.667 51.243 L 334.667 39.516 335.708 39.466 L 336.750 39.417 336.750 36.631 C 336.750 34.179,336.714 33.809,336.453 33.547 C 336.162 33.257,323.816 33.015,322.750 33.279 M337.728 33.348 C 337.401 33.443,337.168 33.639,337.105 33.875 C 336.960 34.415,336.981 45.381,337.128 45.600 C 337.413 46.026,342.341 46.026,342.922 45.599 C 343.104 45.465,343.199 44.916,343.277 43.542 L 343.384 41.667 345.525 41.667 L 347.667 41.667 347.667 51.333 L 347.667 61.000 346.949 61.000 C 345.991 61.000,345.665 61.273,345.547 62.173 C 345.431 63.065,345.311 63.161,344.309 63.164 C 343.358 63.167,343.333 63.221,343.333 65.252 C 343.333 67.543,342.494 67.333,351.668 67.333 C 361.123 67.333,360.333 67.521,360.333 65.275 C 360.333 63.267,360.297 63.209,359.001 63.135 C 358.125 63.085,358.092 63.065,357.984 62.535 C 357.836 61.804,357.409 61.363,356.727 61.235 L 356.167 61.130 356.167 51.398 L 356.167 41.667 358.333 41.667 L 360.500 41.667 360.501 42.958 C 360.503 45.710,360.655 45.836,364.047 45.884 C 367.024 45.926,366.833 46.166,366.833 42.375 C 366.833 40.488,366.891 39.516,367.000 39.583 C 367.092 39.640,367.167 39.861,367.167 40.075 C 367.167 40.971,368.546 41.660,370.350 41.665 L 371.116 41.667 371.216 43.296 C 371.350 45.505,371.573 45.833,372.942 45.833 C 373.304 45.833,373.333 45.900,373.333 46.730 C 373.333 47.802,373.488 47.962,374.588 48.031 L 375.417 48.083 375.530 49.454 C 375.679 51.248,375.894 51.671,376.833 52.017 C 377.568 52.287,377.584 52.310,377.636 53.101 C 377.703 54.134,377.856 54.303,378.851 54.435 L 379.667 54.543 379.667 57.771 L 379.667 61.000 379.037 61.000 C 378.082 61.000,377.694 61.358,377.634 62.295 L 377.583 63.083 376.583 63.167 L 375.583 63.250 375.536 65.127 L 375.489 67.004 375.922 67.169 C 376.491 67.385,389.592 67.385,390.917 67.168 C 392.179 66.962,392.333 66.751,392.333 65.237 C 392.333 63.349,391.997 63.156,388.458 63.012 C 388.187 63.001,388.167 62.632,388.167 57.690 L 388.167 52.380 389.029 52.278 C 390.103 52.150,390.165 52.087,390.279 50.980 L 390.372 50.078 391.144 49.831 C 392.050 49.541,392.309 49.008,392.456 47.139 C 392.551 45.927,392.639 45.840,393.782 45.836 C 394.432 45.833,394.500 45.731,394.619 44.579 L 394.713 43.667 395.431 43.667 C 396.289 43.667,396.667 43.254,396.667 42.315 L 396.667 41.705 397.584 41.590 C 398.631 41.460,398.833 41.231,398.833 40.178 C 398.833 39.514,398.846 39.500,399.417 39.500 L 400.000 39.500 400.000 36.324 L 400.000 33.149 393.422 33.199 C 385.430 33.261,386.270 32.885,386.196 36.432 C 386.134 39.462,386.149 39.500,387.437 39.500 L 388.333 39.500 388.333 40.562 L 388.333 41.624 387.349 41.735 C 386.253 41.859,386.167 41.957,386.167 43.078 C 386.167 43.845,385.977 43.993,384.979 43.998 C 384.477 44.000,384.271 44.209,384.072 44.917 L 383.932 45.417 383.877 44.833 C 383.683 42.761,383.404 42.207,382.457 42.014 C 381.956 41.912,381.905 41.839,381.750 40.994 C 381.523 39.755,381.442 39.671,380.448 39.639 L 379.583 39.611 380.574 39.514 C 381.827 39.391,381.914 39.145,381.775 36.124 C 381.662 33.658,381.572 33.416,380.715 33.275 C 379.706 33.108,338.312 33.179,337.728 33.348 M279.629 41.195 C 279.861 41.427,281.194 41.637,282.542 41.654 L 283.500 41.667 283.499 43.875 L 283.498 46.083 282.707 46.333 C 281.978 46.564,281.897 46.645,281.667 47.374 L 281.417 48.165 280.292 48.166 L 279.167 48.167 279.189 43.792 C 279.201 41.385,279.261 39.773,279.322 40.208 C 279.382 40.643,279.520 41.087,279.629 41.195 " stroke="none" fill="#274962" fill-rule="evenodd"></path><path id="path4" d="M33.333 0.500 C 33.333 0.786,33.244 1.002,33.125 1.005 C 28.945 1.096,27.034 1.476,27.219 2.181 C 27.270 2.378,27.235 2.459,27.127 2.392 C 27.014 2.322,26.982 2.441,27.036 2.725 C 27.117 3.151,26.726 3.316,25.949 3.183 C 24.931 3.010,22.752 3.838,22.885 4.348 C 22.931 4.523,22.901 4.625,22.818 4.574 C 22.735 4.522,22.667 4.663,22.667 4.887 C 22.667 5.264,22.596 5.298,21.670 5.365 C 20.457 5.453,20.462 5.448,20.368 6.584 L 20.292 7.500 19.470 7.500 C 17.627 7.500,16.333 8.153,16.333 9.083 C 16.333 9.583,16.185 9.672,15.226 9.750 C 14.255 9.829,14.138 9.951,14.039 10.990 L 13.958 11.833 13.229 11.833 C 12.242 11.833,11.833 12.248,11.833 13.250 L 11.833 14.000 11.115 14.000 C 10.119 14.000,9.847 14.253,9.724 15.293 C 9.621 16.156,9.610 16.172,8.984 16.272 C 7.937 16.439,7.500 17.397,7.500 19.523 L 7.500 20.333 6.708 20.336 C 5.619 20.339,5.486 20.468,5.381 21.625 L 5.290 22.631 4.648 22.734 C 3.807 22.868,2.971 24.704,3.183 25.949 C 3.305 26.666,3.147 27.000,2.685 27.000 C 1.593 27.000,1.188 27.898,1.174 30.352 C 1.161 32.646,1.032 33.167,0.477 33.167 L 0.000 33.167 0.000 49.167 L 0.000 65.167 0.477 65.167 C 1.019 65.167,1.155 65.738,1.172 68.083 C 1.190 70.434,1.609 71.333,2.685 71.333 C 3.146 71.333,3.299 71.651,3.187 72.373 C 2.960 73.840,3.873 75.667,4.833 75.667 C 5.268 75.667,5.291 75.710,5.380 76.690 C 5.487 77.867,5.616 77.994,6.708 77.997 L 7.500 78.000 7.500 78.811 C 7.500 80.817,8.080 82.149,8.865 81.943 C 9.031 81.900,9.167 81.933,9.167 82.016 C 9.167 82.099,9.269 82.167,9.393 82.167 C 9.543 82.167,9.656 82.466,9.724 83.042 C 9.847 84.080,10.120 84.333,11.115 84.333 L 11.833 84.333 11.833 85.083 C 11.833 86.085,12.242 86.500,13.229 86.500 L 13.958 86.500 14.039 87.343 C 14.139 88.386,14.235 88.484,15.281 88.608 C 16.109 88.706,16.123 88.717,16.352 89.479 C 16.644 90.450,17.036 90.650,18.914 90.783 L 20.333 90.883 20.336 91.650 C 20.340 92.738,20.483 92.882,21.653 92.967 C 22.596 93.035,22.667 93.068,22.667 93.447 C 22.667 93.670,22.735 93.811,22.818 93.760 C 22.901 93.708,22.931 93.810,22.885 93.986 C 22.752 94.495,24.931 95.324,25.949 95.150 C 26.726 95.018,27.117 95.182,27.036 95.608 C 26.982 95.892,27.014 96.011,27.127 95.941 C 27.235 95.874,27.270 95.955,27.219 96.152 C 27.032 96.867,28.502 97.164,33.042 97.329 C 33.110 97.331,33.167 97.558,33.167 97.833 L 33.167 98.333 49.167 98.333 L 65.167 98.333 65.167 97.750 L 65.167 97.167 67.240 97.167 C 68.443 97.167,69.357 97.097,69.417 97.000 C 69.473 96.908,69.671 96.833,69.856 96.833 C 70.340 96.833,71.223 95.901,71.118 95.500 C 71.072 95.323,71.083 95.189,71.142 95.203 C 71.448 95.275,73.681 94.945,73.760 94.816 C 73.811 94.734,74.004 94.667,74.189 94.667 C 74.618 94.667,75.500 93.794,75.500 93.370 C 75.500 93.098,75.660 93.031,76.525 92.940 C 77.803 92.807,77.939 92.692,77.975 91.722 C 78.011 90.777,77.912 90.873,78.917 90.815 C 80.596 90.719,81.720 90.108,81.950 89.167 C 82.078 88.643,82.282 88.506,82.940 88.503 C 83.687 88.499,84.181 88.036,84.252 87.271 C 84.326 86.479,84.333 86.473,85.167 86.410 C 85.879 86.357,86.396 86.070,86.238 85.814 C 86.188 85.733,86.219 85.667,86.307 85.667 C 86.395 85.667,86.467 85.409,86.467 85.094 C 86.467 84.397,86.601 84.152,86.915 84.272 C 87.755 84.595,88.667 83.668,88.667 82.493 C 88.667 82.133,88.764 82.012,89.125 81.923 C 89.906 81.731,90.312 81.365,90.428 80.749 C 90.488 80.427,90.604 80.122,90.686 80.072 C 90.767 80.021,90.833 79.544,90.833 79.011 L 90.833 78.042 91.676 77.961 C 92.856 77.848,92.950 77.717,92.986 76.144 C 92.999 75.587,93.048 75.528,93.579 75.429 C 94.230 75.306,94.583 74.893,94.872 73.917 C 95.127 73.057,95.125 73.070,95.147 72.042 C 95.164 71.273,95.209 71.167,95.513 71.167 C 96.010 71.167,96.891 70.238,96.784 69.828 C 96.736 69.647,96.762 69.539,96.841 69.588 C 96.986 69.678,97.370 68.505,97.320 68.123 C 97.306 68.010,97.303 67.242,97.314 66.417 L 97.334 64.917 97.925 64.904 C 99.443 64.871,99.496 64.334,99.492 49.108 C 99.488 34.061,99.447 33.629,97.997 33.397 L 97.333 33.291 97.314 31.854 C 97.303 31.063,97.306 30.324,97.320 30.210 C 97.370 29.828,96.986 28.656,96.841 28.745 C 96.762 28.794,96.736 28.686,96.784 28.505 C 96.891 28.095,96.010 27.167,95.513 27.167 C 95.202 27.167,95.167 27.067,95.167 26.206 C 95.167 24.467,94.493 23.076,93.567 22.903 C 93.049 22.805,92.999 22.744,92.986 22.190 C 92.950 20.616,92.856 20.485,91.676 20.372 L 90.833 20.291 90.833 19.322 C 90.833 18.789,90.767 18.312,90.686 18.262 C 90.604 18.211,90.488 17.906,90.428 17.584 C 90.313 16.973,89.906 16.602,89.145 16.415 C 88.766 16.322,88.691 16.194,88.597 15.481 C 88.536 15.026,88.416 14.699,88.329 14.753 C 88.238 14.809,88.218 14.728,88.281 14.563 C 88.366 14.340,88.326 14.300,88.104 14.386 C 87.943 14.447,87.858 14.428,87.911 14.342 C 87.964 14.257,87.667 14.137,87.253 14.075 C 86.480 13.959,86.401 13.844,86.491 12.958 C 86.508 12.798,86.437 12.667,86.334 12.667 C 86.231 12.667,86.188 12.600,86.238 12.519 C 86.396 12.264,85.879 11.976,85.167 11.923 C 84.335 11.861,84.326 11.852,84.254 11.079 C 84.177 10.258,83.837 9.952,82.877 9.841 C 82.142 9.757,82.061 9.700,81.776 9.070 C 81.389 8.214,80.027 7.497,78.792 7.499 L 78.000 7.500 78.000 6.687 C 78.000 5.581,77.721 5.417,75.708 5.341 C 75.594 5.337,75.500 5.178,75.500 4.987 C 75.500 4.544,74.629 3.667,74.189 3.667 C 74.004 3.667,73.812 3.601,73.762 3.520 C 73.712 3.439,73.122 3.321,72.450 3.259 C 71.258 3.147,71.226 3.132,71.073 2.614 C 70.787 1.643,69.569 1.186,67.120 1.130 L 65.083 1.083 65.031 0.542 L 64.979 0.000 49.156 0.000 L 33.333 0.000 33.333 0.500 M74.346 28.430 L 74.750 28.860 74.801 35.313 C 74.850 41.679,74.846 41.772,74.497 42.216 L 74.142 42.667 69.667 42.667 L 65.192 42.667 64.679 43.179 L 64.167 43.692 64.167 45.942 L 64.167 48.192 64.654 48.679 L 65.141 49.167 69.539 49.167 L 73.938 49.167 74.385 49.634 L 74.833 50.102 74.831 53.676 C 74.828 57.782,74.672 58.735,73.806 59.943 C 73.487 60.387,72.982 61.323,72.682 62.023 C 72.372 62.748,71.890 63.536,71.561 63.855 C 71.244 64.162,70.799 64.731,70.572 65.118 C 70.345 65.506,69.827 66.051,69.421 66.331 C 69.015 66.610,68.548 67.067,68.383 67.347 C 68.218 67.626,67.708 68.084,67.250 68.363 C 66.792 68.642,66.150 69.143,65.825 69.477 C 65.478 69.832,64.756 70.279,64.083 70.554 C 63.451 70.813,62.564 71.319,62.113 71.678 C 61.661 72.038,60.982 72.414,60.604 72.514 C 59.176 72.893,57.954 73.359,57.362 73.750 C 57.026 73.973,56.244 74.287,55.626 74.449 L 54.501 74.744 54.042 74.285 L 53.583 73.826 53.531 60.038 C 53.472 44.676,53.483 44.485,54.446 43.224 C 54.764 42.807,55.269 41.929,55.567 41.274 C 55.866 40.619,56.422 39.724,56.802 39.285 C 57.182 38.847,57.691 38.151,57.932 37.739 C 58.173 37.327,58.695 36.767,59.091 36.495 C 59.487 36.222,59.973 35.773,60.170 35.496 C 60.367 35.219,60.916 34.744,61.389 34.441 C 61.863 34.138,62.623 33.566,63.079 33.171 C 63.536 32.776,64.392 32.236,64.982 31.971 C 65.572 31.706,66.337 31.234,66.683 30.922 C 67.118 30.529,67.687 30.249,68.531 30.012 C 69.201 29.824,70.275 29.394,70.917 29.057 C 73.036 27.943,73.764 27.810,74.346 28.430 M25.751 28.486 C 26.251 28.662,26.868 28.954,27.123 29.135 C 27.378 29.317,28.364 29.707,29.314 30.002 C 30.555 30.388,31.213 30.693,31.646 31.083 C 31.978 31.383,32.737 31.848,33.333 32.119 C 33.929 32.389,34.784 32.928,35.233 33.317 C 35.682 33.706,36.453 34.253,36.947 34.531 C 37.453 34.817,37.954 35.250,38.096 35.524 C 38.234 35.792,38.723 36.280,39.181 36.610 C 39.639 36.939,40.160 37.493,40.337 37.840 C 40.514 38.188,41.028 38.894,41.480 39.410 C 41.931 39.926,42.469 40.776,42.676 41.299 C 42.883 41.822,43.331 42.625,43.672 43.083 C 44.772 44.562,44.750 44.222,44.750 59.705 L 44.750 73.659 44.304 74.105 C 43.766 74.643,42.962 74.503,41.250 73.573 C 40.700 73.274,39.688 72.868,39.000 72.671 C 38.313 72.473,37.620 72.275,37.462 72.229 C 37.304 72.184,36.863 71.886,36.482 71.568 C 36.101 71.250,35.218 70.726,34.520 70.404 C 33.821 70.082,32.950 69.532,32.583 69.182 C 32.217 68.832,31.615 68.381,31.247 68.181 C 30.879 67.980,30.397 67.551,30.175 67.228 C 29.954 66.905,29.448 66.418,29.051 66.145 C 28.615 65.844,28.171 65.339,27.930 64.866 C 27.710 64.435,27.262 63.826,26.935 63.512 C 26.573 63.165,26.135 62.446,25.817 61.679 C 25.529 60.985,25.042 60.071,24.733 59.648 C 23.640 58.150,23.645 58.233,23.700 42.828 L 23.750 29.027 24.154 28.597 C 24.637 28.082,24.608 28.084,25.751 28.486 " stroke="none" fill="#62a1d2" fill-rule="evenodd"></path></g></svg>