<?xml version="1.0" encoding="UTF-8" standalone="no"?>
<svg width="46px" height="52px" viewBox="0 0 46 52" version="1.1" xmlns="http://www.w3.org/2000/svg" xmlns:xlink="http://www.w3.org/1999/xlink">
    <!-- Generator: sketchtool 3.6 (26304) - http://www.bohemiancoding.com/sketch -->
    <title>ic_1</title>
    <desc>Created with sketchtool.</desc>
    <defs>
        <path d="M10.5,18.1 C10.4,18.1 10.3,18.1 10.2,18 L2.8,11.1 C2.7,11 2.7,10.9 2.6,10.8 L0.8,0.9 C0.8,0.7 0.9,0.5 1.1,0.4 C1.3,0.3 1.5,0.3 1.7,0.5 L9.1,7.4 C9.2,7.5 9.2,7.6 9.3,7.7 L11,17.5 C11,17.6 11.1,17.6 11.1,17.7 C11,17.8 10.8,18.1 10.5,18.1 L10.5,18.1 L10.5,18.1 Z M3.6,10.4 L9.7,16.2 L8.2,7.9 L2.1,2.1 L3.6,10.4 L3.6,10.4 Z" id="path-1"></path>
    </defs>
    <g id="Page-1" stroke="none" stroke-width="1" fill="none" fill-rule="evenodd">
        <g id="Home" transform="translate(-951.000000, -138.000000)">
            <g id="ic_1" transform="translate(951.000000, 138.000000)">
                <g id="Group" transform="translate(22.000000, 10.000000)">
                    <path d="M0.9,5.3 L0.9,0.9" id="Shape" fill="#A4D2FF"></path>
                    <path d="M0.9,5.8 C0.6,5.8 0.4,5.6 0.4,5.3 L0.4,1 C0.4,0.7 0.6,0.5 0.9,0.5 C1.2,0.5 1.4,0.7 1.4,1 L1.4,5.3 C1.4,5.5 1.2,5.8 0.9,5.8 L0.9,5.8 Z" id="Shape" fill="#2D8EFD"></path>
                </g>
                <g id="Group" transform="translate(22.000000, 43.000000)">
                    <path d="M0.9,4.8 L0.9,0.4" id="Shape" fill="#A4D2FF"></path>
                    <path d="M0.9,5.3 C0.6,5.3 0.4,5.1 0.4,4.8 L0.4,0.5 C0.4,0.2 0.6,0 0.9,0 C1.2,0 1.4,0.2 1.4,0.5 L1.4,4.8 C1.4,5 1.2,5.3 0.9,5.3 L0.9,5.3 Z" id="Shape" fill="#2D8EFD"></path>
                </g>
                <g id="Group" transform="translate(4.000000, 28.000000)">
                    <path d="M4.8,1.3 L0.5,1.3" id="Shape" fill="#A4D2FF"></path>
                    <path d="M4.8,1.8 L0.5,1.8 C0.2,1.8 0,1.6 0,1.3 C0,1 0.2,0.8 0.5,0.8 L4.8,0.8 C5.1,0.8 5.3,1 5.3,1.3 C5.3,1.6 5.1,1.8 4.8,1.8 L4.8,1.8 Z" id="Shape" fill="#2D8EFD"></path>
                </g>
                <g id="Group" transform="translate(36.000000, 28.000000)">
                    <path d="M5.3,1.3 L1,1.3" id="Shape" fill="#A4D2FF"></path>
                    <path d="M5.3,1.8 L1,1.8 C0.7,1.8 0.5,1.6 0.5,1.3 C0.5,1 0.7,0.8 1,0.8 L5.3,0.8 C5.6,0.8 5.8,1 5.8,1.3 C5.8,1.6 5.6,1.8 5.3,1.8 L5.3,1.8 Z" id="Shape" fill="#2D8EFD"></path>
                </g>
                <path d="M19.4,8.7 C19,8.7 18.7,8.5 18.5,8.2 C18.2,7.6 18,6.9 18,6.2 C18,3.9 19.9,2 22.2,2 C24.5,2 26.4,3.9 26.4,6.2 C26.4,6.8 26.3,7.3 26.1,7.8 C25.9,8.3 25.3,8.5 24.8,8.3 C24.3,8.1 24.1,7.5 24.3,7 C24.4,6.7 24.5,6.4 24.5,6.1 C24.5,4.9 23.5,3.9 22.3,3.9 C21.1,3.9 20.1,4.9 20.1,6.1 C20.1,6.5 20.2,6.8 20.4,7.2 C20.7,7.7 20.5,8.3 20,8.6 C19.7,8.6 19.5,8.7 19.4,8.7 L19.4,8.7 Z" id="Shape" fill="#1B6FC1"></path>
                <g id="Group" transform="translate(0.000000, 7.000000)">
                    <path d="M6.3,4.3 L1.3,1" id="Shape" fill="#A4D2FF"></path>
                    <path d="M6.3,4.8 C6.2,4.8 6.1,4.8 6,4.7 L1.1,1.4 C0.9,1.2 0.8,0.9 1,0.7 C1.2,0.5 1.5,0.4 1.7,0.6 L6.6,3.9 C6.8,4.1 6.9,4.4 6.7,4.6 C6.6,4.7 6.4,4.8 6.3,4.8 L6.3,4.8 Z" id="Shape" fill="#2D8EFD"></path>
                </g>
                <g id="Group" transform="translate(3.000000, 1.000000)">
                    <path d="M5.8,7 L0.8,1" id="Shape" fill="#A4D2FF"></path>
                    <path d="M5.8,7.5 C5.7,7.5 5.5,7.4 5.4,7.3 L0.4,1.3 C0.2,1.1 0.2,0.8 0.5,0.6 C0.7,0.4 1,0.4 1.2,0.7 L6.2,6.7 C6.4,6.9 6.4,7.2 6.1,7.4 C6.1,7.4 5.9,7.5 5.8,7.5 L5.8,7.5 Z" id="Shape" fill="#2D8EFD"></path>
                </g>
                <g id="Group" transform="translate(11.000000, 0.000000)">
                    <path d="M1.3,6.4 L0.9,1.2" id="Shape" fill="#A4D2FF"></path>
                    <path d="M1.3,6.9 C1,6.9 0.8,6.7 0.8,6.4 L0.4,1.3 C0.4,1 0.6,0.8 0.9,0.8 C1.2,0.8 1.4,1 1.4,1.3 L1.8,6.4 C1.9,6.6 1.7,6.8 1.3,6.9 L1.3,6.9 L1.3,6.9 Z" id="Shape" fill="#2D8EFD"></path>
                </g>
                <g id="Group" transform="translate(17.000000, 20.000000)">
                    <g id="SVGID_3_-link" fill="#2D8EFD">
                        <path d="M10.5,18.1 C10.4,18.1 10.3,18.1 10.2,18 L2.8,11.1 C2.7,11 2.7,10.9 2.6,10.8 L0.8,0.9 C0.8,0.7 0.9,0.5 1.1,0.4 C1.3,0.3 1.5,0.3 1.7,0.5 L9.1,7.4 C9.2,7.5 9.2,7.6 9.3,7.7 L11,17.5 C11,17.6 11.1,17.6 11.1,17.7 C11,17.8 10.8,18.1 10.5,18.1 L10.5,18.1 L10.5,18.1 Z M3.6,10.4 L9.7,16.2 L8.2,7.9 L2.1,2.1 L3.6,10.4 L3.6,10.4 Z" id="SVGID_3_"></path>
                    </g>
                    <g id="Clipped">
                        <mask id="mask-2" fill="white">
                            <use xlink:href="#path-1"></use>
                        </mask>
                        <g id="SVGID_3_"></g>
                        <path d="M1.7,11.4 L10.5,6.6 L15.3,17.7 L6.7,21.1 L1,14.4 L1.7,11.4 Z" id="Shape" fill="#FD5B2D" mask="url(#mask-2)"></path>
                    </g>
                </g>
                <g id="Group" transform="translate(20.000000, 26.000000)">
                    <circle id="Oval" fill="#FFFFFF" cx="2.9" cy="3.2" r="2.4"></circle>
                    <path d="M2.9,6 L2.9,6 C1.8,6 0.9,5.4 0.4,4.5 C-0.4,3.1 0.2,1.3 1.6,0.6 C2,0.4 2.5,0.3 3,0.3 C4.1,0.3 5,0.9 5.5,1.8 C5.9,2.5 5.9,3.3 5.7,4 C5.5,4.7 5,5.3 4.3,5.7 C3.9,5.9 3.4,6 2.9,6 L2.9,6 Z M2.9,1.3 C2.6,1.3 2.3,1.4 2,1.5 C1.1,2 0.7,3.1 1.2,4.1 C1.5,4.7 2.2,5.1 2.9,5.1 L2.9,5.1 C3.2,5.1 3.5,5 3.8,4.9 C4.7,4.4 5.1,3.3 4.6,2.3 C4.3,1.7 3.6,1.3 2.9,1.3 L2.9,1.3 Z" id="Shape" fill="#2D8EFD"></path>
                </g>
                <g id="Group" transform="translate(1.000000, 7.000000)">
                    <path d="M22.4,0.7 C10.4,0.7 0.7,10.4 0.7,22.4 C0.7,34.4 10.4,44.1 22.4,44.1 C34.4,44.1 44.1,34.4 44.1,22.4 C44,10.4 34.3,0.7 22.4,0.7 L22.4,0.7 Z M22.4,40.8 C12.2,40.8 4,32.6 4,22.4 C4,12.2 12.2,4 22.4,4 C32.6,4 40.8,12.2 40.8,22.4 C40.8,32.5 32.5,40.8 22.4,40.8 L22.4,40.8 Z" id="Shape" fill="#A4D2FF"></path>
                    <path d="M22.4,44.5 C10.2,44.5 0.2,34.6 0.2,22.3 C0.2,10 10.1,0.1 22.4,0.1 C34.7,0.1 44.6,10 44.6,22.3 C44.6,34.6 34.6,44.5 22.4,44.5 L22.4,44.5 Z M22.4,1.2 C10.7,1.2 1.2,10.7 1.2,22.4 C1.2,34.1 10.7,43.6 22.4,43.6 C34.1,43.6 43.6,34.1 43.6,22.4 C43.6,10.7 34,1.2 22.4,1.2 L22.4,1.2 Z M22.4,41.3 C12,41.3 3.5,32.8 3.5,22.4 C3.5,12 12,3.5 22.4,3.5 C32.8,3.5 41.3,12 41.3,22.4 C41.3,32.8 32.8,41.3 22.4,41.3 L22.4,41.3 Z M22.4,4.4 C12.5,4.4 4.5,12.4 4.5,22.3 C4.5,32.2 12.5,40.2 22.4,40.2 C32.3,40.2 40.3,32.2 40.3,22.3 C40.3,12.4 32.2,4.4 22.4,4.4 L22.4,4.4 Z" id="Shape" fill="#2D8EFD"></path>
                </g>
            </g>
        </g>
    </g>
</svg>