<?xml version="1.0" encoding="utf-8"?>
<!-- Generator: Adobe Illustrator 21.0.0, SVG Export Plug-In . SVG Version: 6.00 Build 0)  -->
<svg version="1.1" id="Capa_1" xmlns="http://www.w3.org/2000/svg" xmlns:xlink="http://www.w3.org/1999/xlink" x="0px" y="0px"
	 viewBox="0 0 512 512" style="enable-background:new 0 0 512 512;" xml:space="preserve">
<style type="text/css">
	.st0{fill:#686767;}
</style>
<g>
	<g>
		<g>
			<path class="st0" d="M137.3,0H18.6C10.4,0,3.7,6.6,3.7,14.8v118.7c0,8.2,6.6,14.8,14.8,14.8h118.7c8.2,0,14.8-6.6,14.8-14.8V14.8
				C152.1,6.6,145.5,0,137.3,0z"/>
			<path class="st0" d="M315.4,0H196.6c-8.2,0-14.8,6.6-14.8,14.8v118.7c0,8.2,6.6,14.8,14.8,14.8h118.7c8.2,0,14.8-6.6,14.8-14.8
				V14.8C330.2,6.6,323.6,0,315.4,0z"/>
			<path class="st0" d="M137.3,178.1H18.6c-8.2,0-14.8,6.6-14.8,14.8v118.7c0,8.2,6.6,14.8,14.8,14.8h118.7
				c8.2,0,14.8-6.6,14.8-14.8V192.9C152.1,184.7,145.5,178.1,137.3,178.1z"/>
			<path class="st0" d="M315.4,178.1H196.6c-8.2,0-14.8,6.6-14.8,14.8v118.7c0,8.2,6.6,14.8,14.8,14.8h118.7
				c8.2,0,14.8-6.6,14.8-14.8V192.9C330.2,184.7,323.6,178.1,315.4,178.1z"/>
			<path class="st0" d="M493.4,0H374.7c-8.2,0-14.8,6.6-14.8,14.8v118.7c0,8.2,6.6,14.8,14.8,14.8h118.7c8.2,0,14.8-6.6,14.8-14.8
				V14.8C508.3,6.6,501.6,0,493.4,0z"/>
			<path class="st0" d="M493.4,178.1H374.7c-8.2,0-14.8,6.6-14.8,14.8v118.7c0,8.2,6.6,14.8,14.8,14.8h118.7
				c8.2,0,14.8-6.6,14.8-14.8V192.9C508.3,184.7,501.6,178.1,493.4,178.1z"/>
			<path class="st0" d="M137.3,363.6H18.6c-8.2,0-14.8,6.6-14.8,14.8v118.7c0,8.2,6.6,14.8,14.8,14.8h118.7
				c8.2,0,14.8-6.6,14.8-14.8V378.4C152.1,370.2,145.5,363.6,137.3,363.6z"/>
			<path class="st0" d="M315.4,363.6H196.6c-8.2,0-14.8,6.6-14.8,14.8v118.7c0,8.2,6.6,14.8,14.8,14.8h118.7
				c8.2,0,14.8-6.6,14.8-14.8V378.4C330.2,370.2,323.6,363.6,315.4,363.6z"/>
			<path class="st0" d="M493.4,363.6H374.7c-8.2,0-14.8,6.6-14.8,14.8v118.7c0,8.2,6.6,14.8,14.8,14.8h118.7
				c8.2,0,14.8-6.6,14.8-14.8V378.4C508.3,370.2,501.6,363.6,493.4,363.6z"/>
		</g>
	</g>
</g>
</svg>
