<?xml version="1.0" encoding="utf-8"?>
<!-- Generator: Adobe Illustrator 22.1.0, SVG Export Plug-In . SVG Version: 6.00 Build 0)  -->
<svg version="1.1" id="_x2014_лой_1" xmlns="http://www.w3.org/2000/svg" xmlns:xlink="http://www.w3.org/1999/xlink" x="0px"
	 y="0px" viewBox="0 0 229.6 145.3" style="enable-background:new 0 0 229.6 145.3;" xml:space="preserve">
<style type="text/css">
	.st0{fill-rule:evenodd;clip-rule:evenodd;fill:#6E6D6E;stroke:#6E6D6E;stroke-width:0.216;stroke-miterlimit:22.9256;}
	.st1{fill-rule:evenodd;clip-rule:evenodd;fill:#6E6D6E;}
	.st2{fill-rule:evenodd;clip-rule:evenodd;fill:#0079BA;}
</style>
<g>
	<path class="st0" d="M26.4,79.3c1.9,1.5,5.7,2.7,8.3,3.5c-0.2-2.7,3.5-16.5,4.3-20c1.5-6.5,2.9-13.4,4.6-19.7l40.9,0.1
		c0.1-1.2,0.5-4.3-1.3-8c-4.7,1.6-36.6-0.9-46,0.2c-2.2,11.3-6.7,29.3-9.5,41.9C27.4,78.6,27.6,79.4,26.4,79.3z"/>
	<path class="st1" d="M9.3,30L9,30.4L9.3,30L53,29.9l-0.4,3.8l7.6,0l2.6-11.4l-43.1,0c-1.5,0-4.7,0.5-5.8-0.5
		C12.4,23.5,9.9,28,9.3,30z"/>
	<path class="st1" d="M39.1,83.6c1.4,0.8,7.4,0.6,9.4,0.4l8.9-39.2c-4.2-0.1-4.1-0.2-7.6,0.3L41,83.9L39.1,83.6z"/>
	<path class="st1" d="M101,42.4H88.2v-6.1h32.4v6.1h-12.8v45.9H101V42.4L101,42.4z M151,83.6c-1.1,1.6-2.6,2.9-4.5,3.9
		c-1.9,1-4,1.4-6.4,1.4c-2.2,0-4.3-0.4-6.2-1.2c-1.9-0.8-3.6-2-5-3.4c-1.4-1.5-2.6-3.2-3.4-5.2c-0.8-2-1.2-4.2-1.2-6.5
		c0-2.4,0.4-4.6,1.2-6.7c0.8-2.1,2-3.9,3.4-5.4c1.4-1.5,3.1-2.7,5-3.6c1.9-0.9,4-1.3,6.2-1.3c2.2,0,4.2,0.4,6.1,1.3
		c1.9,0.9,3.4,2.2,4.7,3.8v-4.5h6.2v32.1H151V83.6L151,83.6z M141,83.6c1.6,0,3-0.3,4.2-0.8c1.3-0.6,2.4-1.3,3.3-2.3
		c0.9-1,1.6-2.2,2.1-3.6c0.5-1.4,0.7-2.9,0.7-4.6c0-3.5-1-6.2-2.9-8.3c-2-2.1-4.4-3.1-7.5-3.1c-1.5,0-2.8,0.3-4.1,0.9
		c-1.3,0.6-2.4,1.4-3.3,2.4c-1,1-1.7,2.2-2.2,3.6c-0.5,1.4-0.8,2.9-0.8,4.4c0,1.6,0.3,3,0.8,4.4c0.5,1.4,1.3,2.6,2.2,3.6
		c1,1,2.1,1.8,3.3,2.4C138.2,83.3,139.5,83.6,141,83.6L141,83.6z M168.2,33.3h6.2v36.4l12-13.6h8l-14,14.6l14.8,17.5H187l-12.7-15.6
		v15.6h-6.2V33.3L168.2,33.3z M229.1,82c-1.9,2.3-4,4.1-6.4,5.2c-2.3,1.1-5.1,1.7-8.1,1.7c-2.3,0-4.5-0.4-6.5-1.2
		c-2-0.8-3.6-1.9-5-3.3c-1.4-1.4-2.5-3.2-3.3-5.2c-0.8-2.1-1.2-4.4-1.2-6.9c0-2.6,0.4-4.9,1.3-7c0.9-2.1,2-3.8,3.4-5.3
		c1.4-1.4,3.1-2.6,5-3.3c1.9-0.8,3.9-1.2,6-1.2c2.2,0,4.3,0.4,6.2,1.1c1.9,0.8,3.5,1.8,4.8,3.3c1.3,1.4,2.4,3.1,3.2,5.1
		c0.8,2,1.1,4.2,1.1,6.6c0,0.6,0,1.1,0,1.5c0,0.3,0,0.7,0,1h-24.5c0,1.4,0.3,2.6,0.9,3.8c0.5,1.2,1.3,2.2,2.2,3c0.9,0.8,2,1.5,3.2,2
		c1.2,0.5,2.5,0.7,3.9,0.7c2.1,0,3.9-0.4,5.6-1.3c1.7-0.9,3.1-2.1,4.2-3.5L229.1,82L229.1,82z M223.3,69.1c0-1.2-0.2-2.3-0.6-3.3
		c-0.4-1.1-1-2-1.8-2.8c-0.8-0.8-1.7-1.4-2.9-1.9c-1.1-0.5-2.4-0.7-3.8-0.7c-1.3,0-2.5,0.2-3.6,0.7c-1.1,0.5-2,1.1-2.7,1.9
		c-0.8,0.8-1.4,1.7-1.9,2.8c-0.5,1.1-0.7,2.1-0.8,3.2H223.3z"/>
	<path class="st2" d="M98.7,71.8c0-0.2,0-0.5-0.1-1c-0.1-0.4-0.3-0.6-0.6-0.6c-0.5,0-1.4,0.3-2.6,1c-1.3,0.7-2.8,1.6-4.5,2.7
		c-1.8,1.1-3.6,2.4-5.6,3.9c-2,1.4-4,2.9-5.9,4.4c-1.4,1.1-2.8,2.2-4.1,3.3c-1.3,1.1-2.6,2.1-3.8,3c-1.2,0.9-2.2,1.8-3.1,2.6
		c-0.9,0.8-1.7,1.4-2.3,2c-1.1,0-2,0.1-2.8,0.2c-0.8,0.1-1.8,0.2-2.8,0.3c-0.4,0-1.2,0.1-2.4,0.3c-1.2,0.2-2.5,0.4-4,0.6
		c-1.5,0.2-3,0.5-4.6,0.8c-1.6,0.3-3.1,0.7-4.4,1.1c-1.3,0.4-2.4,0.8-3.3,1.3c-0.9,0.5-1.3,0.9-1.3,1.4c0,0.4,0.2,0.8,0.7,1.1
		c0.5,0.3,0.9,0.4,1.4,0.4c0.4,0,0.9-0.1,1.5-0.3c0.6-0.2,1.3-0.5,2-0.8c0.7-0.3,1.4-0.6,2.1-0.9c0.7-0.3,1.2-0.5,1.6-0.7
		c1.1-0.4,2.4-0.7,3.8-1.1c1.4-0.4,2.7-0.7,4-1c1.3-0.3,2.5-0.5,3.7-0.7c1.1-0.2,2-0.3,2.7-0.3c-1.9,1.7-3.7,3.5-5.6,5.4
		c-1.8,1.9-3.7,3.7-5.5,5.5c-1,0.9-1.9,1.9-2.9,2.9c-1,1-2,1.9-3,2.7c-0.1,0.1-0.3,0.2-0.6,0.4c-0.3,0.2-0.6,0.4-0.9,0.7
		c-0.3,0.3-0.6,0.5-0.8,0.7c-0.2,0.2-0.4,0.3-0.4,0.4c0,0.1,0.1,0.1,0.2,0.2c0.1,0.1,0.3,0.1,0.5,0.1c0.2,0,0.4,0.1,0.5,0.1
		c0.2,0,0.3,0,0.4,0c0.6,0,1.1-0.2,1.6-0.5c0.5-0.3,0.9-0.7,1.4-1c1.1-0.8,2.2-1.8,3.2-2.9c1-1.1,2-2.1,3-3.1c2-2,3.9-3.9,5.9-5.8
		c2-1.9,4-3.8,6-5.7c2.1-0.2,4.3-0.3,6.7-0.3c2.4,0,4.6,0,6.6,0.1c-0.4,0.5-1,1.3-1.7,2.6c-0.8,1.2-1.7,2.7-2.7,4.3
		c-1,1.7-2,3.4-3,5.4c-1,1.9-2,3.8-2.8,5.6c-0.9,1.8-1.6,3.4-2.1,5c-0.6,1.5-0.8,2.7-0.8,3.6c0,0.3,0,0.6,0.1,1
		c0.1,0.4,0.1,0.8,0.3,1.1c0.1,0.4,0.3,0.7,0.5,0.9c0.2,0.3,0.5,0.4,0.9,0.4c0.2,0,0.4-0.1,0.6-0.4c0.6-1.3,1.3-2.7,2.2-4.3
		c0.9-1.6,1.9-3.3,3-5c1.1-1.8,2.2-3.5,3.3-5.1c1.1-1.6,2.1-2.9,2.9-3.9c0-0.1,0-0.2-0.1-0.2c-0.1-0.1-0.1-0.1-0.1-0.1
		c-1,0.7-1.9,1.5-2.8,2.4c-0.9,0.9-1.6,1.9-2.3,2.8h-0.2c1.4-2.7,2.7-5.3,3.9-7.9c1.2-2.6,2.6-5.2,4.2-7.7c0.6,0,1.2,0.1,1.8,0.1
		c0.6,0,1.2,0.1,1.8,0.1l-0.6-1l-2.6-0.3c1.1-1.6,2.2-3.2,3.3-4.8c1.1-1.6,2.2-3.1,3.4-4.7c0.1-0.2,0.4-0.6,0.9-1.1
		c0.4-0.6,0.9-1.2,1.5-1.9c0.6-0.7,1.2-1.5,1.8-2.3c0.6-0.8,1.2-1.6,1.8-2.3c0.6-0.7,1-1.3,1.4-1.8c0.4-0.5,0.6-0.8,0.6-0.9
		c0.1-0.4,0.3-0.7,0.3-1.1C98.6,72.5,98.7,72.2,98.7,71.8L98.7,71.8z M93.8,75c-0.2,0.3-0.6,0.9-1.2,1.7c-0.6,0.8-1.3,1.8-2.1,2.9
		c-0.8,1.1-1.7,2.3-2.6,3.7c-0.9,1.3-1.9,2.6-2.7,3.9c-0.9,1.3-1.7,2.5-2.5,3.6c-0.8,1.1-1.4,2-1.8,2.7c-1.9-0.1-3.9-0.2-5.9-0.2
		c-2-0.1-4-0.1-5.9-0.1c0.4-0.4,1.3-1.1,2.6-2.1c1.3-1,2.7-2.2,4.4-3.5c1.7-1.3,3.5-2.7,5.4-4.1c1.9-1.4,3.7-2.7,5.4-4
		c1.7-1.2,3.2-2.2,4.5-3.1C92.4,75.5,93.3,75.1,93.8,75L93.8,75z M109.6,102.9c0,0.8-0.2,1.7-0.6,2.5c-0.4,0.9-0.9,1.8-1.5,2.6
		c-0.6,0.8-1.3,1.7-2,2.5c-0.7,0.8-1.5,1.5-2.2,2.1c-0.7,0.6-1.4,1.1-2,1.4c-0.6,0.4-1.1,0.5-1.5,0.5c-0.4,0-0.9-0.1-1.4-0.4
		c-0.5-0.3-0.9-0.6-1.3-1.1c-0.4-0.4-0.7-0.9-0.9-1.5c-0.2-0.6-0.4-1.1-0.4-1.7c0-0.6,0.1-1.3,0.3-2.2c0.2-0.9,0.4-1.7,0.6-2.6
		c0.2-0.8,0.4-1.5,0.6-2.2c0.2-0.6,0.3-0.9,0.3-1c0-0.1,0-0.1-0.1-0.2c-0.1-0.1-0.2-0.1-0.3-0.1c0,0-0.3,0.1-0.7,0.4
		c-0.4,0.3-0.9,0.6-1.4,1.1c-0.6,0.4-1.1,0.9-1.8,1.4c-0.6,0.5-1.2,1-1.7,1.5c-0.5,0.5-1.1,1.1-1.8,1.8c-0.7,0.7-1.3,1.5-2,2.2
		c-0.6,0.7-1.2,1.3-1.6,1.8c-0.5,0.5-0.7,0.7-0.8,0.7c-0.1,0-0.3-0.1-0.5-0.2c-0.2-0.1-0.4-0.3-0.6-0.5c-0.2-0.2-0.4-0.4-0.5-0.7
		c-0.1-0.3-0.2-0.5-0.2-0.8c0-0.2,0.1-0.6,0.3-1.3c0.2-0.7,0.5-1.5,0.9-2.4c0.4-0.9,0.8-1.9,1.3-2.9c0.5-1,0.9-2,1.4-2.8
		c0.5-0.9,0.9-1.6,1.4-2.1c0.4-0.6,0.8-0.8,1.1-0.8c0.2,0,0.5,0.1,0.8,0.4c0.4,0.2,0.5,0.5,0.5,0.7c0,0.2-0.1,0.7-0.4,1.4
		c-0.3,0.8-0.6,1.6-1,2.5c-0.4,0.9-0.7,1.7-1.1,2.5c-0.4,0.8-0.6,1.2-0.6,1.4l0.3,0.2c0.3-0.3,0.9-0.8,1.7-1.6
		c0.9-0.8,1.8-1.5,2.8-2.3c1-0.8,2-1.5,2.9-2.1c0.9-0.6,1.6-0.9,2-0.9c0.7,0,1.2,0.3,1.6,0.8c0.4,0.5,0.6,1,0.6,1.4
		c0,0.4-0.1,1-0.2,1.7c-0.1,0.7-0.2,1.4-0.4,2.1c-0.1,0.7-0.3,1.4-0.4,2c-0.1,0.6-0.2,1.1-0.2,1.4c0,0.6,0.1,1.2,0.2,1.6
		c0.1,0.5,0.4,0.7,0.9,0.7c0.7,0,1.5-0.4,2.5-1.1c1-0.7,1.9-1.5,2.7-2.5c0.8-1,1.6-2,2.2-3c0.6-1.1,0.9-1.9,0.9-2.6
		c0-0.7-0.2-1.2-0.6-1.6c-0.4-0.4-0.8-0.7-1.4-0.8c-0.1-0.1-0.1-0.3,0-0.5c0.1-0.2,0.2-0.3,0.3-0.3c0.2,0,0.4,0.1,0.7,0.2
		c0.3,0.1,0.6,0.3,0.9,0.6c0.3,0.3,0.6,0.6,0.8,1.1C109.5,101.8,109.6,102.3,109.6,102.9L109.6,102.9z M135.4,101.9
		c0.2-0.4,0.2-0.7,0.1-0.9c-0.1-0.2-0.2-0.3-0.4-0.3c-0.1,0.2-0.4,0.5-0.7,0.8c-0.3,0.4-0.7,0.8-1.2,1.3c-0.5,0.5-1,1-1.5,1.6
		c-0.6,0.6-1.1,1.1-1.7,1.7c-1,1-2,1.8-2.9,2.5c-0.9,0.7-1.6,1.1-2,1.1c-0.3,0-0.5-0.1-0.6-0.3c-0.1-0.2-0.1-0.5-0.1-0.8
		c0-0.4,0.1-0.8,0.2-1.3c0.1-0.5,0.3-1,0.5-1.5c0.2-0.5,0.4-1,0.5-1.4c0.1-0.5,0.2-0.9,0.2-1.2c0-0.5-0.1-0.9-0.4-1.1
		c-0.3-0.2-0.6-0.3-1.1-0.3c-0.2,0-0.5,0.1-0.8,0.3c0.2-0.4,0.5-0.8,0.7-1.3c0.3-0.5,0.5-0.9,0.7-1.4c0.2-0.5,0.4-0.9,0.5-1.3
		c0.1-0.4,0.2-0.7,0.2-0.9c0-0.8-0.2-1.5-0.7-1.9c-0.5-0.4-1.1-0.6-1.9-0.6c-0.9,0-1.8,0.3-2.9,0.9c-1,0.6-2.1,1.4-3.1,2.4
		c-1,1-2,2.1-2.9,3.3c-0.9,1.2-1.8,2.5-2.5,3.8c-0.7,1.3-1.3,2.5-1.7,3.8c-0.4,1.2-0.7,2.3-0.7,3.2c0,0.6,0.1,1.1,0.4,1.5
		c0.2,0.4,0.5,0.7,0.9,0.7c0.3,0,0.7-0.2,1.2-0.6c0.6-0.4,1.2-0.8,1.8-1.4c0.7-0.5,1.3-1.1,2-1.7c0.7-0.6,1.3-1.1,1.7-1.6
		c0.5-0.4,1-0.9,1.6-1.4c0.6-0.5,1.1-1,1.6-1.4c0.5-0.4,0.9-0.8,1.3-1.1c0.4-0.3,0.5-0.4,0.6-0.4c0.1,0,0.1,0,0.2,0.1
		c0.1,0.1,0.1,0.2,0,0.3c-0.1,0.1-0.2,0.6-0.3,1.3c-0.1,0.7-0.2,1.3-0.2,1.8c0,1,0.1,1.8,0.4,2.4c0.3,0.7,0.8,1,1.4,1
		c0.4,0,1-0.2,1.5-0.5c0.6-0.3,1.2-0.7,1.7-1.1c0.6-0.4,1.1-0.9,1.7-1.4c0.5-0.5,1-0.9,1.4-1.2c0.4-0.3,0.8-0.8,1.4-1.4
		c0.6-0.6,1.1-1.1,1.6-1.7c0.5-0.6,1-1.1,1.4-1.5C135.1,102.3,135.4,102,135.4,101.9L135.4,101.9z M124.4,97.2
		c0,0.1-0.1,0.5-0.4,0.9c-0.3,0.5-0.5,1-0.9,1.5c-0.3,0.5-0.6,1-0.9,1.5c-0.3,0.5-0.5,0.7-0.6,0.8c-0.1,0.2-0.3,0.3-0.4,0.5
		c-0.1,0.1-0.2,0.2-0.2,0.3s0.1,0.2,0.3,0.3c0.2,0.1,0.4,0.2,0.7,0.3c-0.6,0.5-1.1,1-1.8,1.6c-0.6,0.6-1.3,1.2-1.9,1.8
		c-0.6,0.6-1.3,1.2-2.1,1.8c-0.8,0.7-1.5,1.3-2.2,1.9c-0.7,0.6-1.3,1-1.9,1.4c-0.5,0.4-0.9,0.6-1,0.6c-0.1,0-0.2-0.2-0.2-0.6
		c0-0.6,0.3-1.4,0.9-2.5c0.6-1.1,1.4-2.4,2.5-3.7c0.8-1.1,1.7-2.1,2.7-3.2c1-1.1,1.9-2,2.8-2.8c0.9-0.8,1.8-1.5,2.5-2
		c0.7-0.5,1.3-0.8,1.7-0.8C124.2,96.7,124.4,96.8,124.4,97.2L124.4,97.2z M147.5,99.2c0,1.4-0.3,3-0.9,4.8c-0.6,1.7-1.4,3.6-2.4,5.5
		c0.8,0.1,1.5,0.2,2,0.5c0.6,0.3,0.8,0.7,0.8,1.2c0,0.6-0.2,0.9-0.7,0.9c-0.1,0-0.2-0.1-0.3-0.2c-0.1-0.1-0.2-0.3-0.4-0.4
		c-0.2-0.2-0.4-0.3-0.7-0.4c-0.3-0.1-0.8-0.2-1.4-0.2c-1.5,2.5-3.3,5.2-5.4,7.9c-2.1,2.7-4.4,5.3-6.9,7.9c-2.5,2.6-5.1,5-7.7,7.2
		c-2.7,2.3-5.3,4.3-8,6c-2.6,1.7-5.1,3.1-7.6,4.1c-2.4,1-4.6,1.5-6.5,1.5c-0.8,0-1.6-0.3-2.3-0.8c-0.7-0.6-1.1-1.3-1.1-2.4
		c0-1.7,0.6-3.6,1.9-5.6c1.3-2,3-4.1,5.1-6.2c2.2-2.1,4.6-4.2,7.5-6.3c2.8-2.1,5.8-4.1,8.9-5.9c3.1-1.9,6.3-3.5,9.6-5
		c3.2-1.5,6.3-2.7,9.3-3.5c0.5-1,1-2,1.5-3c0.5-1,0.9-1.9,1.2-2.9c-0.1-0.3-0.2-0.3-0.4-0.2c-0.1,0.1-0.3,0.3-0.8,0.7
		c-0.5,0.4-1,0.9-1.7,1.4c-0.7,0.6-1.5,1.1-2.3,1.7c-0.8,0.6-1.6,1.2-2.4,1.7c-0.8,0.5-1.5,1-2.2,1.3c-0.6,0.4-1.1,0.5-1.5,0.5
		c-0.5,0-1-0.2-1.5-0.7c-0.5-0.5-0.7-1.1-0.7-1.9c0-0.4,0.3-1.1,0.8-2c0.5-0.9,1.1-1.8,1.8-2.7c0.7-0.9,1.3-1.7,1.9-2.4
		c0.6-0.7,1-1.1,1.2-1.1c0.3,0,0.5,0.2,0.8,0.5c0.3,0.3,0.4,0.6,0.4,0.7c0,0.1-0.2,0.5-0.6,1.2c-0.4,0.7-0.9,1.4-1.4,2.2
		c-0.5,0.8-1,1.5-1.4,2.2c-0.4,0.7-0.6,1-0.6,1.1c0,0.1,0,0.3,0.1,0.4c0,0.1,0.2,0.2,0.4,0.2c0.3,0,0.7-0.2,1.3-0.6
		c0.6-0.4,1.2-0.8,1.9-1.3c0.7-0.5,1.4-1.1,2.1-1.6c0.7-0.6,1.3-1,1.9-1.4c2.1-1.7,3.7-3,4.8-4.2c1-1.1,1.6-1.7,1.8-1.7
		C147.3,97.8,147.5,98.3,147.5,99.2L147.5,99.2z M139.6,110.8c-2.8,0.9-5.7,2.1-8.8,3.5c-3,1.5-6.1,3.1-9,4.9
		c-3,1.8-5.8,3.7-8.5,5.7c-2.7,2-5,4-7,6s-3.6,3.9-4.8,5.8c-1.2,1.9-1.8,3.6-1.8,5c0,0.6,0.2,1.1,0.5,1.5c0.4,0.4,0.8,0.6,1.5,0.6
		c1.1,0,2.3-0.3,3.8-0.9c1.5-0.6,3-1.4,4.6-2.4c1.6-1,3.3-2.1,5-3.4c1.7-1.3,3.4-2.6,5-3.9c1.6-1.3,3.1-2.7,4.5-3.9
		c1.4-1.3,2.6-2.4,3.6-3.5c2.1-2.1,4.1-4.5,6.1-7.1C136.3,116.2,138,113.6,139.6,110.8z"/>
	<path class="st2" d="M48.5,84c-2.1,0.2-8,0.5-9.4-0.4l-4.4-0.8c-2.6-0.8-6.4-2-8.3-3.5C11.8,71.5,1,53,9,30.4L9.3,30
		c0.6-2,3.1-6.5,4.6-8.3C23.8,9.8,37.2,3.2,53.7,6.9c13.7,3,26.6,14.7,29.2,27.9c1.1,1.5,2.3,12.3,1.2,14.5
		c-0.8,10-6.6,19.2-11.6,23.9C67.6,77.7,58.5,83.8,48.5,84L48.5,84z M39.7,0.5C27.4,2.6,18.2,7.1,10.6,16.4
		C4.1,24.3-1.3,36.9,0.7,51.2c3.2,22.5,24,42.1,50.9,38.3C74,86.5,93.4,65.5,89.8,39c-1.7-13.1-8.9-22.8-16-28.7
		C66.4,4.1,53-1.8,39.7,0.5z"/>
</g>
</svg>
