<svg width="19" height="18" viewBox="0 0 19 18" fill="none" xmlns="http://www.w3.org/2000/svg">
<path d="M18.8262 6.80224C18.7643 6.61264 18.6018 6.47721 18.4045 6.44626L12.5232 5.61049L9.87655 0.290198C9.78756 0.11221 9.6057 -1.23986e-08 9.40836 -1.23986e-08C9.21103 -1.23986e-08 9.02917 0.11221 8.94018 0.294067L6.3284 5.62984L0.447057 6.5043C0.249722 6.53525 0.0872116 6.67068 0.0253027 6.86028C-0.0366061 7.04987 0.0175641 7.25881 0.160728 7.39424L4.42857 11.5305L3.4419 17.3887C3.40707 17.586 3.48833 17.7833 3.65084 17.8994C3.73983 17.9652 3.84817 18 3.95652 18C4.04164 18 4.1229 17.9807 4.20028 17.9381L9.45093 15.1561L14.717 17.9071C14.7944 17.9458 14.8757 17.9652 14.9569 17.9652C15.2433 17.9652 15.4793 17.7291 15.4793 17.4428C15.4793 17.4003 15.4754 17.3616 15.4638 17.3229L14.4462 11.4996L18.687 7.34007C18.8379 7.20077 18.8882 6.99183 18.8262 6.80224ZM13.5253 10.9463C13.4015 11.0662 13.3473 11.2403 13.3783 11.4106L14.2643 16.491L9.69082 14.1036C9.53992 14.0224 9.35806 14.0262 9.20329 14.1036L4.64525 16.5181L5.50037 11.4299C5.52745 11.2597 5.47328 11.0894 5.34946 10.9695L1.65041 7.37876L6.75402 6.62038C6.92427 6.59329 7.07131 6.48882 7.14482 6.33405L9.41223 1.70249L11.7106 6.32244C11.788 6.47721 11.935 6.58169 12.1053 6.60877L17.2127 7.3362L13.5253 10.9463Z" fill="black"/>
</svg>
