<?xml version="1.0" encoding="utf-8"?>
<!-- Generator: Adobe Illustrator 22.1.0, SVG Export Plug-In . SVG Version: 6.00 Build 0)  -->
<svg version="1.1" xmlns="http://www.w3.org/2000/svg" xmlns:xlink="http://www.w3.org/1999/xlink" x="0px" y="0px"
	 viewBox="0 0 125 131" style="enable-background:new 0 0 125 131;" xml:space="preserve">
<style type="text/css">
	.st0{display:none;}
	.st1{display:inline;fill:#E9DDB7;stroke:#2C2C54;stroke-miterlimit:10;}
	.st2{display:inline;fill:#296073;}
	.st3{display:inline;fill:#333751;}
	.st4{display:inline;fill:#0C1730;}
	.st5{display:inline;fill:#FFFFFF;}
	.st6{fill:url(#SVGID_1_);}
	.st7{fill:#333751;}
	.st8{fill:#FFFFFF;}
	.st9{fill:url(#SVGID_2_);stroke:url(#SVGID_3_);stroke-miterlimit:10;}
	.st10{display:none;fill:url(#SVGID_4_);}
	.st11{fill:url(#SVGID_5_);}
	.st12{display:none;fill:url(#SVGID_6_);}
	.st13{fill:url(#SVGID_7_);}
	.st14{fill:#000033;}
	.st15{fill:#3B404C;}
	.st16{fill:#296073;}
</style>
<g id="Шар_1" class="st0">
	<ellipse class="st1" cx="-80.5" cy="20" rx="26.5" ry="27"/>
	<circle class="st2" cx="-71.5" cy="81.5" r="35.5"/>
	<circle class="st3" cx="-60.5" cy="81.5" r="24.5"/>
	<rect x="-108" y="-7" class="st4" width="16" height="124"/>
	<circle class="st5" cx="-100" cy="108" r="6"/>
	<circle class="st5" cx="-100" cy="2" r="6"/>
</g>
<g id="Шар_3">
	<linearGradient id="SVGID_1_" gradientUnits="userSpaceOnUse" x1="1.137778e-09" y1="65.5" x2="125" y2="65.5">
		<stop  offset="0" style="stop-color:#339999"/>
		<stop  offset="1" style="stop-color:#3E9C87"/>
	</linearGradient>
	<path class="st6" d="M62.5,0L62.5,0C28,0,0,28,0,62.5l0,6C0,103,28,131,62.5,131h0C97,131,125,103,125,68.5v-6C125,28,97,0,62.5,0z
		"/>
	<g id="Шар_5">
		<rect x="33" y="1" class="st7" width="17" height="124"/>
		<circle class="st7" cx="59.5" cy="28.5" r="26.5"/>
		<circle class="st7" cx="69" cy="89" r="36"/>
	</g>
	<g id="Шар_4">
		<circle class="st8" cx="50.5" cy="34.5" r="26.5"/>
		<circle class="st8" cx="60" cy="95" r="36"/>
		<path class="st8" d="M41,7H24v111c6.1,1.4,12.5,1.4,17,5.1V7z"/>
		<path class="st8" d="M41,131v-7.9c-4.5-3.7-10.9-3.7-17-5.1v13H41z"/>
		<linearGradient id="SVGID_2_" gradientUnits="userSpaceOnUse" x1="24.5" y1="100.5" x2="41" y2="100.5">
			<stop  offset="0" style="stop-color:#339999"/>
			<stop  offset="1" style="stop-color:#3E9C87"/>
		</linearGradient>
		<linearGradient id="SVGID_3_" gradientUnits="userSpaceOnUse" x1="24" y1="100.5" x2="41.5" y2="100.5">
			<stop  offset="0" style="stop-color:#339999"/>
			<stop  offset="1" style="stop-color:#3E9C87"/>
		</linearGradient>
		<path class="st9" d="M24.5,83v35c9.1,0,16.5-7.8,16.5-17.5S33.6,83,24.5,83z"/>
		<circle class="st7" cx="81" cy="72" r="15"/>
		
			<linearGradient id="SVGID_4_" gradientUnits="userSpaceOnUse" x1="19.4638" y1="34.8842" x2="83.7563" y2="34.8842" gradientTransform="matrix(1.0051 -0.3316 5.753895e-02 0.1744 -0.6059 37.8162)">
			<stop  offset="0" style="stop-color:#339999"/>
			<stop  offset="1" style="stop-color:#3E9C87"/>
		</linearGradient>
		<polygon class="st10" points="21.6,39.3 85.9,17.2 85,14.3 20.7,36.4 		"/>
		<linearGradient id="SVGID_5_" gradientUnits="userSpaceOnUse" x1="75" y1="64.5" x2="100" y2="64.5">
			<stop  offset="0" style="stop-color:#339999"/>
			<stop  offset="1" style="stop-color:#3E9C87"/>
		</linearGradient>
		<circle class="st11" cx="87.5" cy="64.5" r="12.5"/>
		
			<linearGradient id="SVGID_6_" gradientUnits="userSpaceOnUse" x1="17.6508" y1="-2.9653" x2="81.9433" y2="-2.9653" gradientTransform="matrix(1.0051 -0.3316 5.753895e-02 0.1744 -0.6059 37.8162)">
			<stop  offset="0" style="stop-color:#339999"/>
			<stop  offset="1" style="stop-color:#3E9C87"/>
		</linearGradient>
		<polygon class="st12" points="17.6,33.3 81.9,11.2 81,8.3 16.7,30.4 		"/>
		<g id="Шар_6">
		</g>
	</g>
</g>
<g id="Шар_2">
	<linearGradient id="SVGID_7_" gradientUnits="userSpaceOnUse" x1="-285" y1="-128" x2="-221" y2="-128">
		<stop  offset="0" style="stop-color:#339999"/>
		<stop  offset="1" style="stop-color:#3E9C87"/>
	</linearGradient>
	<rect x="-285" y="-136" class="st13" width="64" height="16"/>
	<ellipse class="st14" cx="-245.3" cy="-203.5" rx="9.3" ry="13.5"/>
	<circle class="st15" cx="-243.5" cy="-271.5" r="16.5"/>
	<circle class="st16" cx="-245.5" cy="-236.5" r="13.5"/>
	<ellipse class="st8" cx="-239.5" cy="-176.3" rx="13.5" ry="12.3"/>
	
		<image style="overflow:visible;" width="215" height="350" xlink:href="../../maks/img/ipad.png"  transform="matrix(1 0 0 1 -508 -383)">
	</image>
</g>
</svg>
