<svg xmlns="http://www.w3.org/2000/svg" width="30" height="32.048" viewBox="0 0 30 32.048"><defs><style>.a{opacity:0.75;}.b{fill:#fff;}.c{opacity:0.5;}.d{opacity:0.25;}</style></defs><g transform="translate(-1750 -859)"><g class="a" transform="translate(1743.6 825.6)"><path class="b" d="M36.093,33.71a1.061,1.061,0,0,0-1.5,0L21.415,46.916,8.209,33.71a1.06,1.06,0,1,0-1.5,1.5L20.639,49.138a1.035,1.035,0,0,0,.749.31,1.079,1.079,0,0,0,.749-.31L36.067,35.209a1.038,1.038,0,0,0,.026-1.5Z"/></g><g class="c" transform="translate(1743.6 833.6)"><path class="b" d="M36.093,33.71a1.061,1.061,0,0,0-1.5,0L21.415,46.916,8.209,33.71a1.06,1.06,0,1,0-1.5,1.5L20.639,49.138a1.035,1.035,0,0,0,.749.31,1.079,1.079,0,0,0,.749-.31L36.067,35.209a1.038,1.038,0,0,0,.026-1.5Z"/></g><g class="d" transform="translate(1743.6 841.6)"><path class="b" d="M36.093,33.71a1.061,1.061,0,0,0-1.5,0L21.415,46.916,8.209,33.71a1.06,1.06,0,1,0-1.5,1.5L20.639,49.138a1.035,1.035,0,0,0,.749.31,1.079,1.079,0,0,0,.749-.31L36.067,35.209a1.038,1.038,0,0,0,.026-1.5Z"/></g></g></svg>