<svg xmlns="http://www.w3.org/2000/svg" width="30" height="30" viewBox="0 0 30 30"><defs><style>.a{fill:#fff;}</style></defs><path class="a" d="M21.721,0H8.279A8.288,8.288,0,0,0,0,8.279V21.721A8.288,8.288,0,0,0,8.279,30H21.721A8.288,8.288,0,0,0,30,21.721V8.279A8.288,8.288,0,0,0,21.721,0Zm5.618,21.721a5.624,5.624,0,0,1-5.617,5.617H8.279a5.623,5.623,0,0,1-5.617-5.617V8.279A5.624,5.624,0,0,1,8.279,2.662H21.721a5.624,5.624,0,0,1,5.617,5.617V21.721Z"/><path class="a" d="M48.691,40.97a7.723,7.723,0,1,0,7.723,7.723A7.732,7.732,0,0,0,48.691,40.97Zm0,12.786a5.064,5.064,0,1,1,5.064-5.063A5.069,5.069,0,0,1,48.691,53.756Z" transform="translate(-33.691 -33.693)"/><path class="a" d="M120.875,28.251a1.953,1.953,0,1,0,1.382.572A1.962,1.962,0,0,0,120.875,28.251Z" transform="translate(-97.822 -23.239)"/></svg>