<svg width="15" height="18" viewBox="0 0 15 18" fill="none" xmlns="http://www.w3.org/2000/svg">
<path d="M14.3821 15.6005L13.3463 3.92714C13.3277 3.69613 13.1339 3.52101 12.8992 3.52101H10.7158C10.7121 1.5798 9.13227 0 7.19106 0C5.24984 0 3.67005 1.5798 3.66632 3.52101H1.48292C1.25191 3.52101 1.05817 3.69613 1.03581 3.92714L-2.84266e-08 15.6005C-2.84266e-08 15.6154 -2.84266e-08 15.6266 -2.84266e-08 15.6415C-2.84266e-08 16.9418 1.19603 18 2.66404 18H11.7181C13.1861 18 14.3821 16.9418 14.3821 15.6415C14.3821 15.6266 14.3821 15.6154 14.3821 15.6005ZM7.19106 0.894225C8.64045 0.894225 9.81784 2.07162 9.82157 3.52101H4.56055C4.56427 2.07162 5.74167 0.894225 7.19106 0.894225ZM11.7181 17.102H2.66404C1.6953 17.102 0.905403 16.4575 0.894225 15.6564L1.89278 4.41524H3.66632V5.98385C3.66632 6.22977 3.86752 6.43097 4.11343 6.43097C4.35935 6.43097 4.56055 6.22977 4.56055 5.98385V4.41524H9.82157V5.98385C9.82157 6.22977 10.0228 6.43097 10.2687 6.43097C10.5146 6.43097 10.7158 6.22977 10.7158 5.98385V4.41524H12.4893L13.4879 15.6601C13.4767 16.4575 12.6868 17.102 11.7181 17.102Z" fill="black"/>
</svg>
