<svg xmlns="http://www.w3.org/2000/svg" viewBox="0 0 846.52 516.88"><defs><style>.cls-1{fill:#fff;}</style></defs><title>logo</title><g id="Шар_2" data-name="Шар 2"><g id="logo"><path class="cls-1" d="M353.89,368.12h35.87l38.61,104,38.61-104h35L442.3,516.88h-28.7Z"/><path class="cls-1" d="M1.11,416.08H32c18,0,28.94,10.69,28.94,26.35,0,17.5-13.61,26.57-30.56,26.57H17.74v22.68H1.11Zm29.81,38.13c8.32,0,13.18-5,13.18-11.66,0-7.45-5.18-11.45-13.5-11.45H17.74v23.11Z"/><path class="cls-1" d="M68.18,462.85c0-16.63,13.39-30.13,31.43-30.13s31.21,13.28,31.21,30.13c0,16.63-13.39,30.13-31.43,30.13S68.18,479.7,68.18,462.85Zm46.44,0c0-8.53-6.16-16-15.23-16-9.4,0-15,7.24-15,16,0,8.53,6.16,16,15.23,16C109,478.83,114.62,471.6,114.62,462.85Z"/><path class="cls-1" d="M142.69,412.84h16.42V442c3.78-4.86,8.64-9.29,17-9.29,12.42,0,19.66,8.21,19.66,21.49v37.48H179.31V459.39c0-7.78-3.67-11.77-9.94-11.77s-10.26,4-10.26,11.77v32.29H142.69Z"/><path class="cls-1" d="M207.17,462.85c0-16.63,13.39-30.13,31.43-30.13s31.21,13.28,31.21,30.13c0,16.63-13.39,30.13-31.43,30.13S207.17,479.7,207.17,462.85Zm46.44,0c0-8.53-6.16-16-15.23-16-9.4,0-15,7.24-15,16,0,8.53,6.16,16,15.23,16C248,478.83,253.61,471.6,253.61,462.85Z"/><path class="cls-1" d="M279.1,462.63c0-19.33,12.64-29.92,26.35-29.92,8.75,0,14.15,4,18,8.64V412.84H339.9v78.84H323.48v-8.32c-4,5.4-9.5,9.4-18,9.4C291.95,492.76,279.1,482.18,279.1,462.63Zm44.6,0c0-9.61-6.37-16-14-16s-14.15,6.26-14.15,16.2c0,9.61,6.48,16,14.15,16S323.7,472.46,323.7,462.63Z"/><path class="cls-1" d="M502.73,453.88c0-21.49,16.74-39.1,39.64-39.1,13.61,0,21.82,3.67,29.7,10.37l-10.48,12.64c-5.83-4.86-11-7.67-19.76-7.67-12.1,0-21.71,10.69-21.71,23.76,0,13.82,9.5,24,22.9,24,6,0,11.45-1.51,15.66-4.54v-10.8H541.94V448.16h32.83V481a49.07,49.07,0,0,1-32.29,12C518.93,493,502.73,476.46,502.73,453.88Z"/><path class="cls-1" d="M586.21,462.85c0-16.63,13.39-30.13,31.43-30.13s31.21,13.28,31.21,30.13c0,16.63-13.39,30.13-31.43,30.13S586.21,479.7,586.21,462.85Zm46.44,0c0-8.53-6.16-16-15.23-16-9.4,0-15,7.24-15,16,0,8.53,6.16,16,15.23,16C627,478.83,632.66,471.6,632.66,462.85Z"/><path class="cls-1" d="M660.73,433.8h16.42v11.66c3.35-8,8.75-13.18,18.47-12.74v17.17h-.86c-10.91,0-17.6,6.59-17.6,20.41v21.38H660.73Z"/><path class="cls-1" d="M705.12,505.29l5.51-11.88a14.91,14.91,0,0,0,7,2.27c2.81,0,4.32-.86,5.72-3.78l-22.68-58.1h17.39l13.18,39.42,12.64-39.42H761l-22.25,59.29c-4.43,11.77-9.18,16.2-19,16.2A27.19,27.19,0,0,1,705.12,505.29Z"/><path class="cls-1" d="M376.76,164.69l39.59,64.38L469.9,144l66.16,99.31,17.47-36.69-125-187.86L320.37,182.08,339,216.76Z"/><path class="cls-1" d="M170.83,209.53l46.93,66.64L253.3,223,185.2,120.4,100.1,248.79l20,37.84Z"/><path class="cls-1" d="M680.67,399.82,574.37,239l-37.29,59.77-66.43-97.65L415.2,291.9l-40.55-69.22L335.8,275.82l-35.54-63.73L176.88,399.82H340.12L317,345.76h93l18.84,54.06,19.5-54.06H539l-22.27,54.06Z"/><path class="cls-1" d="M171.08,247.86l-53.14,81.3L84.26,272.58,0,399.82H136.23l68-102.65Z"/><path class="cls-1" d="M610.91,165.79a69.55,69.55,0,0,0-41.18,13.43l77,116.45a69.89,69.89,0,0,0-35.84-129.88Z"/><path class="cls-1" d="M604.28,128.68c2.19-.14,4.37-.2,6.54-.2L610.28,0c-4.62,0-9.26.15-13.93.44s-9.3.73-13.88,1.28l15.29,127.57C599.91,129,602.08,128.81,604.28,128.68Z"/><path class="cls-1" d="M670.13,7.51a233.94,233.94,0,0,0-27.37-5.39L624.51,129.33a106.42,106.42,0,0,1,12.89,2.45Z"/><path class="cls-1" d="M583.85,131.93,550.43,7.85A233.91,233.91,0,0,0,524,16.53l48.17,119.14A106.43,106.43,0,0,1,583.85,131.93Z"/><path class="cls-1" d="M662.4,141.64,726.18,30.09A235.31,235.31,0,0,0,701,17.87L650.49,136A107,107,0,0,1,662.4,141.64Z"/><path class="cls-1" d="M713.22,203.64l124-33.79a233.85,233.85,0,0,0-9.5-26.64L708.39,191A106.35,106.35,0,0,1,713.22,203.64Z"/><path class="cls-1" d="M684.29,157.54l90.48-91.25A237.11,237.11,0,0,0,753.51,48l-79.42,101A107.84,107.84,0,0,1,684.29,157.54Z"/><path class="cls-1" d="M701.67,178.59l111-64.74a235.6,235.6,0,0,0-16-23.17L693.84,167.75A107.25,107.25,0,0,1,701.67,178.59Z"/><path class="cls-1" d="M717.9,229c0,.69.07,1.38.1,2.08l128.51-.54c-.07-3.15-.18-6.3-.38-9.47q-.59-9.54-1.93-18.85l-127.64,15.3A108.37,108.37,0,0,1,717.9,229Z"/><path class="cls-1" d="M705.58,286l111.58,63.79a235.24,235.24,0,0,0,12.36-25.9l-118.2-50.58A106.9,106.9,0,0,1,705.58,286Z"/><path class="cls-1" d="M715.51,259.23,839.82,292a234.06,234.06,0,0,0,5.1-28.1L717.66,245.61A106.54,106.54,0,0,1,715.51,259.23Z"/><path class="cls-1" d="M688.77,309.34,780,399.82A237.11,237.11,0,0,0,798.78,378l-101-79.42A107.86,107.86,0,0,1,688.77,309.34Z"/><path class="cls-1" d="M478.22,40.88l70.9,107.19a106.85,106.85,0,0,1,9.82-6.18L494.54,30.67Q486.15,35.45,478.22,40.88Z"/><path class="cls-1" d="M667.35,326.81l48.29,73H738l-60.19-80.36A107.17,107.17,0,0,1,667.35,326.81Z"/></g></g></svg>