<?xml version="1.0" encoding="UTF-8" standalone="no"?>
<svg width="45px" height="48px" viewBox="0 0 45 48" version="1.1" xmlns="http://www.w3.org/2000/svg" xmlns:xlink="http://www.w3.org/1999/xlink">
    <!-- Generator: sketchtool 3.6 (26304) - http://www.bohemiancoding.com/sketch -->
    <title>ic_2</title>
    <desc>Created with sketchtool.</desc>
    <defs></defs>
    <g id="Page-1" stroke="none" stroke-width="1" fill="none" fill-rule="evenodd">
        <g id="Home" transform="translate(-950.000000, -263.000000)">
            <g id="ic_2" transform="translate(950.000000, 263.000000)">
                <g id="Group" transform="translate(4.000000, 3.000000)">
                    <path d="M37,44 L3.6,44 C1.9,44 0.6,42.7 0.6,41 L0.6,3.8 C0.6,2.2 1.9,0.8 3.6,0.8 L37,0.8 C38.6,0.8 40,2.2 40,3.8 L40,41 C40,42.7 38.7,44 37,44 L37,44 Z" id="Shape" fill="#A4D2FF"></path>
                    <path d="M37,44.5 L3.6,44.5 C1.7,44.5 0.1,42.9 0.1,41 L0.1,3.8 C0.1,1.9 1.7,0.3 3.6,0.3 L37,0.3 C38.9,0.3 40.5,1.9 40.5,3.8 L40.5,41 C40.5,42.9 38.9,44.5 37,44.5 L37,44.5 Z M3.6,1.3 C2.2,1.3 1.1,2.4 1.1,3.8 L1.1,41 C1.1,42.4 2.2,43.5 3.6,43.5 L37,43.5 C38.4,43.5 39.5,42.4 39.5,41 L39.5,3.8 C39.5,2.4 38.4,1.3 37,1.3 L3.6,1.3 L3.6,1.3 Z" id="Shape" fill="#2D8EFD"></path>
                </g>
                <g id="Group">
                    <path d="M37.6,44.4 L4.2,44.4 C2.6,44.4 1.2,43 1.2,41.4 L1.2,4.2 C1.2,2.6 2.6,1.2 4.2,1.2 L37.6,1.2 C39.2,1.2 40.6,2.6 40.6,4.2 L40.6,41.4 C40.6,43.1 39.3,44.4 37.6,44.4 L37.6,44.4 Z" id="Shape" fill="#FFFFFF"></path>
                    <path d="M37.6,44.9 L4.2,44.9 C2.3,44.9 0.7,43.3 0.7,41.4 L0.7,4.2 C0.7,2.3 2.3,0.7 4.2,0.7 L37.6,0.7 C39.5,0.7 41.1,2.3 41.1,4.2 L41.1,41.4 C41.1,43.3 39.5,44.9 37.6,44.9 L37.6,44.9 Z M4.2,1.7 C2.8,1.7 1.7,2.8 1.7,4.2 L1.7,41.4 C1.7,42.8 2.8,43.9 4.2,43.9 L37.6,43.9 C39,43.9 40.1,42.8 40.1,41.4 L40.1,4.2 C40.1,2.8 39,1.7 37.6,1.7 L4.2,1.7 L4.2,1.7 Z" id="Shape" fill="#2D8EFD"></path>
                </g>
                <path d="M33.4,15 L22.5,15 C22.2,15 22,14.8 22,14.5 C22,14.2 22.2,14 22.5,14 L33.4,14 C33.7,14 33.9,14.2 33.9,14.5 C33.9,14.8 33.7,15 33.4,15 L33.4,15 Z" id="Shape" fill="#2D8EFD"></path>
                <path d="M30.3,18 L22.5,18 C22.2,18 22,17.8 22,17.5 C22,17.2 22.2,17 22.5,17 L30.3,17 C30.6,17 30.8,17.2 30.8,17.5 C30.8,17.8 30.6,18 30.3,18 L30.3,18 Z" id="Shape" fill="#2D8EFD"></path>
                <path d="M33.4,22 L22.5,22 C22.2,22 22,21.8 22,21.5 C22,21.2 22.2,21 22.5,21 L33.4,21 C33.7,21 33.9,21.2 33.9,21.5 C33.9,21.8 33.7,22 33.4,22 L33.4,22 Z" id="Shape" fill="#2D8EFD"></path>
                <path d="M27.6,29 L22.5,29 C22.2,29 22,28.8 22,28.5 C22,28.2 22.2,28 22.5,28 L27.6,28 C27.9,28 28.1,28.2 28.1,28.5 C28.1,28.8 27.9,29 27.6,29 L27.6,29 Z" id="Shape" fill="#2D8EFD"></path>
                <path d="M34.2,33 L22.5,33 C22.2,33 22,32.8 22,32.5 C22,32.2 22.2,32 22.5,32 L34.2,32 C34.5,32 34.7,32.2 34.7,32.5 C34.7,32.8 34.5,33 34.2,33 L34.2,33 Z" id="Shape" fill="#2D8EFD"></path>
                <path d="M30.5,36 L22.5,36 C22.2,36 22,35.8 22,35.5 C22,35.2 22.2,35 22.5,35 L30.5,35 C30.8,35 31,35.2 31,35.5 C31,35.8 30.8,36 30.5,36 L30.5,36 Z" id="Shape" fill="#2D8EFD"></path>
                <g id="Group" transform="translate(7.000000, 15.000000)" fill="#2D8EFD">
                    <path d="M2.7,6.6 L1.8,6.6 L1.8,0.9 L0.4,0.9 L0.4,0.2 L2.7,2.84217094e-14 L2.7,6.6 L2.7,6.6 Z" id="Shape"></path>
                    <path d="M8.6,4.4 L9.5,4.4 L9.5,5.1 L8.6,5.1 L8.6,6.6 L7.7,6.6 L7.7,5.1 L5,5.1 L5,4.6 L7.7,0.1 L8.6,0.1 L8.6,4.4 L8.6,4.4 Z M5.9,4.4 L7.7,4.4 L7.7,1.4 L7.7,1.4 L7.6,1.6 L5.9,4.4 L5.9,4.4 Z" id="Shape"></path>
                </g>
                <g id="Group" transform="translate(7.000000, 28.000000)" fill="#2D8EFD">
                    <path d="M2.7,7 L1.8,7 L1.8,1.3 L0.4,1.3 L0.4,0.6 L2.7,0.4 L2.7,7 L2.7,7 Z" id="Shape"></path>
                    <path d="M5.4,4.1 L5.8,0.5 L9,0.5 L9,1.3 L6.5,1.3 L6.3,3.2 C6.4,3.1 6.6,3 6.8,2.9 C7,2.8 7.2,2.8 7.4,2.8 C8,2.8 8.5,3 8.8,3.4 C9.1,3.8 9.3,4.3 9.3,5 C9.3,5.6 9.1,6.2 8.8,6.6 C8.5,7 7.9,7.2 7.3,7.2 C6.8,7.2 6.3,7.1 5.9,6.8 C5.5,6.5 5.4,6.1 5.4,5.5 L5.4,5.5 L6.2,5.5 C6.2,5.9 6.3,6.1 6.5,6.3 C6.7,6.5 7,6.6 7.3,6.6 C7.7,6.6 8,6.5 8.2,6.2 C8.4,5.9 8.5,5.6 8.5,5.1 C8.5,4.7 8.4,4.4 8.2,4.1 C8,3.8 7.7,3.7 7.3,3.7 C7,3.7 6.7,3.8 6.6,3.9 C6.5,4 6.3,4.2 6.3,4.4 L5.4,4.1 L5.4,4.1 Z" id="Shape"></path>
                </g>
                <g id="Group" transform="translate(7.000000, 0.000000)">
                    <path d="M0.6,1.2 C1.4,3.2 3.4,4.6 5.7,4.6 C8,4.6 10,3.2 10.8,1.2 L0.6,1.2 L0.6,1.2 Z" id="Shape" fill="#FD5B2D"></path>
                    <path d="M5.7,5.1 C3.2,5.1 1.1,3.6 0.1,1.4 C-9.47852907e-15,1.2 0.1,1.1 0.1,0.9 C0.1,0.7 0.3,0.7 0.5,0.7 L10.7,0.7 C10.9,0.7 11,0.8 11.1,0.9 C11.2,1 11.2,1.2 11.1,1.4 C10.3,3.7 8.1,5.1 5.7,5.1 L5.7,5.1 Z M1.4,1.7 C2.3,3.2 3.9,4.1 5.7,4.1 C7.5,4.1 9.1,3.2 10,1.7 L1.4,1.7 L1.4,1.7 Z" id="Shape" fill="#2D8EFD"></path>
                </g>
                <g id="Group" transform="translate(22.000000, 0.000000)">
                    <path d="M1.4,1.2 C2.2,3.2 4.2,4.6 6.5,4.6 C8.8,4.6 10.8,3.2 11.6,1.2 L1.4,1.2 L1.4,1.2 Z" id="Shape" fill="#FD5B2D"></path>
                    <path d="M6.5,5.1 C4,5.1 1.9,3.6 0.9,1.4 C0.8,1.2 0.9,1.1 0.9,0.9 C0.9,0.7 1.1,0.7 1.3,0.7 L11.5,0.7 C11.7,0.7 11.8,0.8 11.9,0.9 C12,1 12,1.2 11.9,1.4 C11.2,3.7 9,5.1 6.5,5.1 L6.5,5.1 Z M2.2,1.7 C3.1,3.2 4.7,4.1 6.5,4.1 C8.3,4.1 9.9,3.2 10.8,1.7 L2.2,1.7 L2.2,1.7 Z" id="Shape" fill="#2D8EFD"></path>
                </g>
            </g>
        </g>
    </g>
</svg>