<?xml version="1.0" encoding="UTF-8" standalone="no"?>
<svg width="39px" height="50px" viewBox="0 0 39 50" version="1.1" xmlns="http://www.w3.org/2000/svg" xmlns:xlink="http://www.w3.org/1999/xlink">
    <!-- Generator: sketchtool 3.6 (26304) - http://www.bohemiancoding.com/sketch -->
    <title>ic_3</title>
    <desc>Created with sketchtool.</desc>
    <defs></defs>
    <g id="Page-1" stroke="none" stroke-width="1" fill="none" fill-rule="evenodd">
        <g id="Home" transform="translate(-954.000000, -374.000000)">
            <g id="ic_3" transform="translate(954.000000, 374.000000)">
                <path d="M25.4,8.2 C24.8,8.2 24.4,7.8 24.4,7.2 C24.4,4.4 22.1,2 19.2,2 C16.3,2 14,4.3 14,7.2 C14,7.8 13.6,8.2 13,8.2 C12.4,8.2 12,7.8 12,7.2 C12,3.2 15.2,0 19.2,0 C23.2,0 26.4,3.2 26.4,7.2 C26.4,7.7 26,8.2 25.4,8.2 L25.4,8.2 Z" id="Shape" fill="#1B6FC1"></path>
                <path d="M31.3,49.2 L6.5,49.2 C4.6,49.2 3,47.6 3,45.7 L3,15.5 C3,13.6 4.6,12 6.5,12 L31.3,12 C33.2,12 34.8,13.6 34.8,15.5 L34.8,45.7 C34.8,47.6 33.2,49.2 31.3,49.2 L31.3,49.2 Z M6.5,13 C5.1,13 4,14.1 4,15.5 L4,45.7 C4,47.1 5.1,48.2 6.5,48.2 L31.3,48.2 C32.7,48.2 33.8,47.1 33.8,45.7 L33.8,15.5 C33.8,14.1 32.7,13 31.3,13 L6.5,13 L6.5,13 Z" id="Shape" fill="#2D8EFD"></path>
                <path d="M31.3,34.7 L6.5,34.7 C4.6,34.7 3,33.1 3,31.2 L3,15.5 C3,13.6 4.6,12 6.5,12 L31.3,12 C33.2,12 34.8,13.6 34.8,15.5 L34.8,31.2 C34.8,33.1 33.2,34.7 31.3,34.7 L31.3,34.7 Z M6.5,13 C5.1,13 4,14.1 4,15.5 L4,31.2 C4,32.6 5.1,33.7 6.5,33.7 L31.3,33.7 C32.7,33.7 33.8,32.6 33.8,31.2 L33.8,15.5 C33.8,14.1 32.7,13 31.3,13 L6.5,13 L6.5,13 Z" id="Shape" fill="#2D8EFD"></path>
                <g id="Group" transform="translate(0.000000, 6.000000)">
                    <path d="M37.2,10.7 L1.8,10.7 C1.3,10.7 0.8,10.3 0.8,9.7 L0.8,2 C0.8,1.5 1.2,1 1.8,1 L37.1,1 C37.6,1 38.1,1.4 38.1,2 L38.1,9.7 C38.2,10.3 37.7,10.7 37.2,10.7 L37.2,10.7 Z" id="Shape" fill="#A4D2FF"></path>
                    <path d="M37.2,11.2 L1.8,11.2 C1,11.2 0.3,10.5 0.3,9.7 L0.3,2 C0.3,1.2 1,0.5 1.8,0.5 L37.1,0.5 C37.9,0.5 38.6,1.2 38.6,2 L38.6,9.7 C38.7,10.6 38,11.2 37.2,11.2 L37.2,11.2 Z M1.8,1.6 C1.5,1.6 1.3,1.8 1.3,2.1 L1.3,9.8 C1.3,10.1 1.5,10.3 1.8,10.3 L37.1,10.3 C37.4,10.3 37.6,10.1 37.6,9.8 L37.6,2.1 C37.6,1.8 37.4,1.6 37.1,1.6 L1.8,1.6 L1.8,1.6 Z" id="Shape" fill="#2D8EFD"></path>
                </g>
                <g id="Group" transform="translate(6.000000, 6.000000)">
                    <rect id="Rectangle-path" fill="#FFFFFF" x="1.3" y="1.1" width="4.8" height="9.7"></rect>
                    <path d="M6.1,11.2 L1.3,11.2 C1,11.2 0.8,11 0.8,10.7 L0.8,1 C0.8,0.7 1,0.5 1.3,0.5 L6.1,0.5 C6.4,0.5 6.6,0.7 6.6,1 L6.6,10.7 C6.6,11 6.4,11.2 6.1,11.2 L6.1,11.2 Z M1.8,10.2 L5.6,10.2 L5.6,1.5 L1.8,1.5 L1.8,10.2 L1.8,10.2 Z" id="Shape" fill="#2D8EFD"></path>
                </g>
                <g id="Group" transform="translate(25.000000, 6.000000)">
                    <rect id="Rectangle-path" fill="#FFFFFF" x="1.3" y="1.1" width="4.8" height="9.7"></rect>
                    <path d="M6.2,11.2 L1.4,11.2 C1.1,11.2 0.9,11 0.9,10.7 L0.9,1 C0.9,0.7 1.1,0.5 1.4,0.5 L6.2,0.5 C6.5,0.5 6.7,0.7 6.7,1 L6.7,10.7 C6.7,11 6.4,11.2 6.2,11.2 L6.2,11.2 Z M1.8,10.2 L5.6,10.2 L5.6,1.5 L1.8,1.5 L1.8,10.2 L1.8,10.2 Z" id="Shape" fill="#2D8EFD"></path>
                </g>
                <g id="Group" transform="translate(9.000000, 28.000000)">
                    <g transform="translate(2.000000, 0.000000)" id="Shape">
                        <path d="M3.5,11.2 L1.7,11.2 C1.3,11.2 1,10.9 1,10.5 L1,1.3 L4.2,1.3 L4.2,10.5 C4.2,10.9 3.9,11.2 3.5,11.2 L3.5,11.2 Z" fill="#FFFFFF"></path>
                        <path d="M3.5,11.7 L1.7,11.7 C1,11.7 0.5,11.2 0.5,10.5 L0.5,1.3 C0.5,1 0.7,0.8 1,0.8 L4.2,0.8 C4.5,0.8 4.7,1 4.7,1.3 L4.7,10.5 C4.7,11.2 4.1,11.7 3.5,11.7 L3.5,11.7 Z M1.5,1.8 L1.5,10.5 C1.5,10.6 1.6,10.7 1.7,10.7 L3.5,10.7 C3.6,10.7 3.7,10.6 3.7,10.5 L3.7,1.8 L1.5,1.8 L1.5,1.8 Z" fill="#2D8EFD"></path>
                    </g>
                    <path d="M7.8,2 L1.4,2 C1.1,2 0.8,1.7 0.8,1.4 L0.8,1.4 C0.8,1.1 1.1,0.8 1.4,0.8 L7.8,0.8 C8.1,0.8 8.4,1.1 8.4,1.4 L8.4,1.4 C8.4,1.7 8.1,2 7.8,2 L7.8,2 Z" id="Shape" fill="#1B6FC1"></path>
                </g>
                <g id="Group" transform="translate(21.000000, 28.000000)">
                    <g transform="translate(2.000000, 0.000000)" id="Shape">
                        <path d="M3,11.2 L1.2,11.2 C0.8,11.2 0.5,10.9 0.5,10.5 L0.5,1.3 L3.7,1.3 L3.7,10.5 C3.8,10.9 3.4,11.2 3,11.2 L3,11.2 Z" fill="#FFFFFF"></path>
                        <path d="M3,11.7 L1.2,11.7 C0.5,11.7 0,11.2 0,10.5 L0,1.3 C0,1 0.2,0.8 0.5,0.8 L3.7,0.8 C4,0.8 4.2,1 4.2,1.3 L4.2,10.5 C4.3,11.2 3.7,11.7 3,11.7 L3,11.7 Z M1.1,1.8 L1.1,10.5 C1.1,10.6 1.2,10.7 1.3,10.7 L3,10.7 C3.1,10.7 3.2,10.6 3.2,10.5 L3.2,1.8 L1.1,1.8 L1.1,1.8 Z" fill="#2D8EFD"></path>
                    </g>
                    <path d="M7.4,2 L1,2 C0.7,2 0.4,1.7 0.4,1.4 L0.4,1.4 C0.4,1.1 0.7,0.8 1,0.8 L7.4,0.8 C7.7,0.8 8,1.1 8,1.4 L8,1.4 C8,1.7 7.7,2 7.4,2 L7.4,2 Z" id="Shape" fill="#1B6FC1"></path>
                </g>
                <path d="M24,44 L16,44" id="Shape"></path>
                <path d="M21.4,44 L17,44" id="Shape"></path>
                <g id="Group" transform="translate(15.000000, 20.000000)">
                    <path d="M7.3,5.2 L1.1,5.2 C0.8,5.2 0.6,5 0.6,4.7 L0.6,1.3 C0.6,1 0.8,0.8 1.1,0.8 L7.3,0.8 C7.6,0.8 7.8,1 7.8,1.3 L7.8,4.7 C7.8,5 7.6,5.2 7.3,5.2 L7.3,5.2 Z" id="Shape" fill="#FD5B2D"></path>
                    <path d="M7.3,5.7 L1.1,5.7 C0.5,5.7 0.1,5.2 0.1,4.7 L0.1,1.3 C0.1,0.7 0.6,0.3 1.1,0.3 L7.3,0.3 C7.9,0.3 8.3,0.8 8.3,1.3 L8.3,4.7 C8.3,5.3 7.9,5.7 7.3,5.7 L7.3,5.7 Z M1.1,1.2 L1.1,4.7 L7.3,4.7 L7.3,4.7 L7.3,1.3 L1.1,1.2 L1.1,1.2 Z" id="Shape" fill="#2D8EFD"></path>
                </g>
            </g>
        </g>
    </g>
</svg>