<svg xmlns="http://www.w3.org/2000/svg" xmlns:xlink="http://www.w3.org/1999/xlink" viewBox="0 0 200 200">
  <defs>
    <style>
      .cls-1 {
        fill: #fff;
      }

      .cls-2 {
        clip-path: url(#clip-path);
      }
    </style>
    <clipPath id="clip-path">
      <rect id="Rectangle_63" data-name="Rectangle 63" class="cls-1" width="111" height="117"/>
    </clipPath>
  </defs>
  <g id="stead_logo" transform="translate(-169 -59)">
    <rect id="Rectangle_64" data-name="Rectangle 64" width="200" height="200" transform="translate(169 59)"/>
    <g id="stead_logo-2" data-name="stead_logo" class="cls-2" transform="translate(213 100)">
      <path id="Path_468" data-name="Path 468" class="cls-1" d="M55.488,117l-.765-.671a36.843,36.843,0,0,0-13.4-7.545c-.973-.209-2.318-.371-3.964-.556C27.814,107.164,9.9,105.08,1.113,83.463L.9,82.977l.232-.463c.394-.787,1.02-1.921,1.808-3.31,5.169-9.258,17.291-30.9,12.238-47.263a24.851,24.851,0,0,0-5.164-8.93,24.893,24.893,0,0,0-8.349-6.069L0,16.2,14.649,5.023h.51c.116,0,12.794,2.453,16.526-4.074l.278-.486H32.5A114.406,114.406,0,0,1,48.187,0H49l.255.764A5.741,5.741,0,0,0,51.645,3.8a5.755,5.755,0,0,0,3.773.834,5.8,5.8,0,0,0,3.817-.742A5.788,5.788,0,0,0,61.723.9l.255-.764h.811A114.034,114.034,0,0,1,78.481.533h.533l.278.486c3.732,6.527,16.41,4.1,16.526,4.074h.51L111,16.2l-1.669.833A24.868,24.868,0,0,0,95.818,32.01c-5.053,16.364,6.954,38.028,12.238,47.263.788,1.389,1.414,2.523,1.808,3.31l.232.463-.209.486C101.08,105.08,83.209,107.164,73.614,108.3c-1.6.185-2.99.347-3.964.555a36.756,36.756,0,0,0-13.4,7.453ZM3.454,83.092c8.344,19.882,25.125,21.85,34.188,22.891,1.669.185,3.083.37,4.2.6a37.1,37.1,0,0,1,13.652,7.337,37.1,37.1,0,0,1,13.652-7.337,40.033,40.033,0,0,1,4.2-.6c9.039-1.065,25.82-3.009,34.187-22.891-.371-.717-.9-1.643-1.506-2.754-5.331-9.513-17.778-31.732-12.424-49.091a26.583,26.583,0,0,1,13.026-15.507L95.726,7.5c-2.6.44-13.907,1.852-18.172-4.791a114.2,114.2,0,0,0-13.907-.324,8.244,8.244,0,0,1-3.4,3.566,8.261,8.261,0,0,1-4.829.994A8.1,8.1,0,0,1,50.666,5.9a8.082,8.082,0,0,1-3.29-3.581,113.5,113.5,0,0,0-13.907.324c-4.427,6.62-15.645,5.3-18.241,4.861L4.334,15.739A26.581,26.581,0,0,1,17.407,31.247c5.331,17.359-7.116,39.579-12.423,49.091C4.357,81.449,3.848,82.375,3.454,83.092Z"/>
      <path id="Path_469" data-name="Path 469" class="cls-1" d="M63.74,20.368l.209.185v1.157l-.185.162a17.39,17.39,0,0,0-3.245.255,1.484,1.484,0,0,0-.881.625,4,4,0,0,0-.3,1.713q0,1.273-.139,7.245V48.027a14.659,14.659,0,0,0,.3,3.472,1.413,1.413,0,0,0,.811.718,14.919,14.919,0,0,0,3.384.3l.185.162v1.157l-.209.185q-3.871-.208-6.768-.208-1.947,0-6.629.208l-.209-.185V52.7l.185-.185a17.424,17.424,0,0,0,3.245-.255,1.483,1.483,0,0,0,.881-.625,4.208,4.208,0,0,0,.3-1.736q0-1.3.116-7.221V25.275L46.588,42.426q-3.083,6.435-5.4,12.105H40.26q-1.344-3.055-2.179-4.884L26.794,26.062V48a13.871,13.871,0,0,0,.3,3.495,1.506,1.506,0,0,0,.834.718,13.925,13.925,0,0,0,3.384.278l.185.185v1.134l-.209.208h-1.53q-2.318-.116-4.056-.116l-5.679.185-.185-.185V52.772l.185-.208a16.614,16.614,0,0,0,3.245-.231,1.506,1.506,0,0,0,.881-.648,3.813,3.813,0,0,0,.3-1.69V26.571a15.115,15.115,0,0,0-.278-3.587,1.437,1.437,0,0,0-.811-.718,13.929,13.929,0,0,0-3.384-.278l-.186-.185V20.6L20,20.391q1.646.116,4.427.116t4.636-.116q1.993,4.629,3.824,8.332L41.906,47.24,50.042,30.3q3.314-6.943,4.45-9.883,2.318.116,4.5.116T63.74,20.368Z"/>
      <path id="Path_470" data-name="Path 470" class="cls-1" d="M51.687,55.919,58.5,56.1l6.838-.185.185.162v1.18l-.185.162a17.344,17.344,0,0,0-2.526.139,3.086,3.086,0,0,0-1.3.347,1.689,1.689,0,0,0-.533,1.227,20.8,20.8,0,0,0-.139,2.662v8.8q5.215.139,9.874.139,6.374,0,9.712-.139V62.678a32.6,32.6,0,0,0-.139-3.495,2.312,2.312,0,0,0-.325-1.042,1.646,1.646,0,0,0-.858-.417,20.678,20.678,0,0,0-3.2-.255l-.162-.162V56.128l.162-.162,6.838.185,6.837-.185.185.162v1.181l-.185.162a12.694,12.694,0,0,0-2.55.139,3.088,3.088,0,0,0-1.3.347,1.666,1.666,0,0,0-.533,1.227,26.062,26.062,0,0,0-.139,2.662V82.93A32.245,32.245,0,0,0,85.2,86.4a2.313,2.313,0,0,0,.348,1.041,1.763,1.763,0,0,0,.858.44,18.778,18.778,0,0,0,3.175.278l.185.139v1.18l-.185.185-6.837-.185-6.838.185-.162-.185V88.3l.162-.139a25.044,25.044,0,0,0,2.9-.208,2.087,2.087,0,0,0,.973-.37,2.013,2.013,0,0,0,.394-.972,19.442,19.442,0,0,0,.139-3.287V72.885q-6.954-.139-9.874-.139t-9.712.139V82.93a32.217,32.217,0,0,0,.139,3.472,2.312,2.312,0,0,0,.348,1.041,1.762,1.762,0,0,0,.858.44,18.882,18.882,0,0,0,3.175.278l.185.139v1.18l-.185.185-6.837-.185-6.814.185-.185-.185V88.3l.185-.139a24.8,24.8,0,0,0,2.944-.231,2.182,2.182,0,0,0,1-.37,1.874,1.874,0,0,0,.394-.972,21.666,21.666,0,0,0,.278-3.263V62.678a26.319,26.319,0,0,0-.139-3.495,2.152,2.152,0,0,0-.325-1.042,1.717,1.717,0,0,0-.858-.417,20.441,20.441,0,0,0-3.175-.255l-.186-.162V56.128Z"/>
    </g>
  </g>
</svg>
