<svg xmlns="http://www.w3.org/2000/svg" xmlns:xlink="http://www.w3.org/1999/xlink" viewBox="0 0 1289.994 510.032">
  <defs>
    <style>
      .cls-1 {
        fill: #fff;
      }

      .cls-2 {
        font-size: 60px;
      }

      .cls-2, .cls-3, .cls-4, .cls-5, .cls-6, .cls-7 {
        font-family: SegoeUI, Segoe UI;
      }

      .cls-3 {
        font-size: 88px;
      }

      .cls-4 {
        font-size: 51px;
      }

      .cls-5 {
        font-size: 62px;
      }

      .cls-6 {
        font-size: 78px;
      }

      .cls-7 {
        font-size: 64px;
      }

      .cls-8 {
        filter: url(#Path_176-6);
      }

      .cls-9 {
        filter: url(#Path_176-5);
      }

      .cls-10 {
        filter: url(#Path_171);
      }

      .cls-11 {
        filter: url(#Path_176-4);
      }

      .cls-12 {
        filter: url(#Path_176-3);
      }

      .cls-13 {
        filter: url(#Path_176-2);
      }

      .cls-14 {
        filter: url(#Path_172);
      }

      .cls-15 {
        filter: url(#Path_176);
      }
    </style>
    <filter id="Path_176" x="110.16" y="377.75" width="431.327" height="126.164" filterUnits="userSpaceOnUse">
      <feOffset dy="3" input="SourceAlpha"/>
      <feGaussianBlur stdDeviation="3" result="blur"/>
      <feFlood flood-opacity="0.161"/>
      <feComposite operator="in" in2="blur"/>
      <feComposite in="SourceGraphic"/>
    </filter>
    <filter id="Path_172" x="30.897" y="141.917" width="421.234" height="295.259" filterUnits="userSpaceOnUse">
      <feOffset dy="3" input="SourceAlpha"/>
      <feGaussianBlur stdDeviation="3" result="blur-2"/>
      <feFlood flood-opacity="0.161"/>
      <feComposite operator="in" in2="blur-2"/>
      <feComposite in="SourceGraphic"/>
    </filter>
    <filter id="Path_176-2" x="327.147" y="252.448" width="216.464" height="174.537" filterUnits="userSpaceOnUse">
      <feOffset dy="3" input="SourceAlpha"/>
      <feGaussianBlur stdDeviation="3" result="blur-3"/>
      <feFlood flood-opacity="0.161"/>
      <feComposite operator="in" in2="blur-3"/>
      <feComposite in="SourceGraphic"/>
    </filter>
    <filter id="Path_176-3" x="790.794" y="150.979" width="499.2" height="356.72" filterUnits="userSpaceOnUse">
      <feOffset dy="3" input="SourceAlpha"/>
      <feGaussianBlur stdDeviation="3" result="blur-4"/>
      <feFlood flood-opacity="0.161"/>
      <feComposite operator="in" in2="blur-4"/>
      <feComposite in="SourceGraphic"/>
    </filter>
    <filter id="Path_176-4" x="506.339" y="75.274" width="358.599" height="224.994" filterUnits="userSpaceOnUse">
      <feOffset dy="3" input="SourceAlpha"/>
      <feGaussianBlur stdDeviation="3" result="blur-5"/>
      <feFlood flood-opacity="0.161"/>
      <feComposite operator="in" in2="blur-5"/>
      <feComposite in="SourceGraphic"/>
    </filter>
    <filter id="Path_171" x="319.408" y="0" width="484.753" height="190.136" filterUnits="userSpaceOnUse">
      <feOffset dy="3" input="SourceAlpha"/>
      <feGaussianBlur stdDeviation="3" result="blur-6"/>
      <feFlood flood-opacity="0.161"/>
      <feComposite operator="in" in2="blur-6"/>
      <feComposite in="SourceGraphic"/>
    </filter>
    <filter id="Path_176-5" x="573.158" y="240.653" width="452.042" height="227.656" filterUnits="userSpaceOnUse">
      <feOffset dy="3" input="SourceAlpha"/>
      <feGaussianBlur stdDeviation="3" result="blur-7"/>
      <feFlood flood-opacity="0.161"/>
      <feComposite operator="in" in2="blur-7"/>
      <feComposite in="SourceGraphic"/>
    </filter>
    <filter id="Path_176-6" x="0" y="33.125" width="357.486" height="215.346" filterUnits="userSpaceOnUse">
      <feOffset dy="3" input="SourceAlpha"/>
      <feGaussianBlur stdDeviation="3" result="blur-8"/>
      <feFlood flood-opacity="0.161"/>
      <feComposite operator="in" in2="blur-8"/>
      <feComposite in="SourceGraphic"/>
    </filter>
  </defs>
  <g id="tags" transform="translate(-196.578 -2858.287)">
    <g id="Group_119" data-name="Group 119" transform="translate(-905.832 67.405) rotate(-2)">
      <g class="cls-15" transform="matrix(1, 0.03, -0.03, 1, 1004.34, 2827.65)">
        <path id="Path_176-7" data-name="Path 176" class="cls-1" d="M42.328,20.677,408.749,7.333l32.085,90.8-410.3,3.1Z" transform="translate(88.39 391.81) rotate(-2)"/>
      </g>
      <text id="_Bootstrap" data-name="#Bootstrap" class="cls-2" transform="translate(1154.801 3297.629)"><tspan x="0" y="0">#Bootstrap</tspan></text>
    </g>
    <g id="Group_114" data-name="Group 114" transform="matrix(0.998, 0.07, -0.07, 0.998, 231.389, -751.414)">
      <g class="cls-14" transform="matrix(1, -0.07, 0.07, 1, 217.07, 3603.34)">
        <path id="Path_172-2" data-name="Path 172" class="cls-1" d="M0,0,375.357,17.982h0l-.185,129.4H0Z" transform="matrix(0.93, -0.37, 0.37, 0.93, 39.9, 288.53)"/>
      </g>
      <text id="_Vue.js" data-name="#Vue.js" class="cls-3" transform="translate(324.243 3882.721) rotate(-26)"><tspan x="0" y="95">#Vue.js</tspan></text>
    </g>
    <g id="Group_117" data-name="Group 117" transform="translate(-1876.032 841.039) rotate(-27)">
      <g class="cls-13" transform="matrix(0.89, 0.45, -0.45, 0.89, 930.9, 2738.33)">
        <path id="Path_176-8" data-name="Path 176" class="cls-1" d="M0,0H174l2.927,42.144L174,84H0L-3.015,43.11Z" transform="translate(338.83 338.77) rotate(-27)"/>
      </g>
      <text id="_Sass" data-name="#Sass" class="cls-4" transform="translate(1103 3252)"><tspan x="0" y="0">#Sass</tspan></text>
    </g>
    <g id="Group_120" data-name="Group 120" transform="matrix(0.883, 0.469, -0.469, 0.883, 1600.512, -313.595)">
      <g class="cls-12" transform="matrix(0.88, -0.47, 0.47, 0.88, 249.51, 3459.71)">
        <path id="Path_176-9" data-name="Path 176" class="cls-1" d="M4.615,0,480.041,9.737l-35.021,121.1H4.615Z" transform="matrix(0.88, 0.47, -0.47, 0.88, 857.14, 154.81)"/>
      </g>
      <text id="_NativeScript_" data-name="#NativeScript
" class="cls-5" transform="translate(1113.498 3282.768)"><tspan x="0" y="0">#NativeScript</tspan><tspan x="0" y="83"></tspan></text>
    </g>
    <g id="Group_118" data-name="Group 118" transform="translate(-1233.805 275.274) rotate(-17)">
      <g class="cls-11" transform="matrix(0.96, 0.29, -0.29, 0.96, 612.68, 2888.35)">
        <path id="Path_176-10" data-name="Path 176" class="cls-1" d="M2.094,25.528,281.986,12.182l13.3,118.653H2.065L-24.6,84.513Z" transform="translate(535.31 155.96) rotate(-17)"/>
      </g>
      <text id="_PHP" data-name="#PHP" class="cls-6" transform="translate(1122.199 3297.856)"><tspan x="0" y="0">#PHP</tspan></text>
    </g>
    <g id="Group_115" data-name="Group 115" transform="translate(-1375.949 259.858) rotate(-31)">
      <g class="cls-10" transform="matrix(0.86, 0.52, -0.52, 0.86, 9.63, 3037.2)">
        <path id="Path_171-2" data-name="Path 171" class="cls-1" d="M0,0,455.024,15.041,436.358,66.387l19.814,58.751H0Z" transform="translate(328.41 53.68) rotate(-6)"/>
      </g>
      <text id="_WordPress" data-name="#WordPress" class="cls-7" transform="matrix(0.906, 0.423, -0.423, 0.906, 265.957, 3351.961)"><tspan x="0" y="0">#WordPress</tspan></text>
    </g>
    <g id="Group_134" data-name="Group 134" transform="translate(484.516 -259.667) rotate(13)">
      <g class="cls-9" transform="matrix(0.97, -0.22, 0.22, 0.97, 420.83, 3102.81)">
        <path id="Path_176-11" data-name="Path 176" class="cls-1" d="M6.385,25.528l384-13.345L392.455,60.8l16.17,70.038H6.345L-9.442,103.822,22.436,48.344Z" transform="translate(620.79 236.91) rotate(13)"/>
      </g>
      <text id="_Firebase" data-name="#Firebase" class="cls-6" transform="translate(1122.199 3297.856)"><tspan x="0" y="0">#Firebase</tspan></text>
    </g>
    <g id="Group_135" data-name="Group 135" transform="matrix(0.966, 0.259, -0.259, 0.966, 47.43, -472.476)">
      <g class="cls-8" transform="matrix(0.97, -0.26, 0.26, 0.97, 1006.13, 3178.67)">
        <path id="Path_176-12" data-name="Path 176" class="cls-1" d="M2.094,25.528,281.986,12.182l13.3,118.653H2.065L-24.386,99.021l.522-46.6Z" transform="matrix(0.97, 0.26, -0.26, 0.97, 66.42, 33.67)"/>
      </g>
      <text id="_jQuery" data-name="#jQuery" class="cls-5" transform="matrix(0.999, -0.035, 0.035, 0.999, 1107.019, 3294.315)"><tspan x="0" y="0">#jQuery</tspan></text>
    </g>
  </g>
</svg>
