<svg xmlns="http://www.w3.org/2000/svg" xmlns:xlink="http://www.w3.org/1999/xlink" viewBox="0 0 537 317"><defs><style>.a{clip-path:url(#g);}.b{fill:#63788a;}.c{fill:#394b5b;}.ae,.c{opacity:0.1;}.d{opacity:0.37;}.e{fill:#ffebb7;}.ac,.f{fill:#fff;}.g{fill:#5d647f;}.h{fill:#b4b6bc;}.i{fill:#868491;}.j{fill:#60dc4d;}.k{fill:#00c37a;}.l{fill:#ff4f19;}.m{fill:#5c546a;}.n{fill:#eff2fa;}.o{fill:#ff6464;}.p{fill:#e4eaf6;}.q{fill:#d2555a;}.r{fill:#c7cfe2;}.s{fill:#afb9d2;}.t{fill:#6edcf9;}.u{fill:#8dd83d;}.v{fill:#ffa92c;}.w{fill:#ff8828;}.x{fill:#e8c018;}.y{fill:#f2d422;}.z{fill:#ea473b;}.aa{fill:#d63322;}.ab{fill:url(#a);}.ac{font-size:52px;font-family:SegoeUI, Segoe UI;}.ad{fill:#00b494;}.af{fill:#414042;}.ag{fill:#00997c;}.ah{fill:#f0d355;}.ai{fill:#ed5d51;}.aj{fill:#dac04e;}.ak{fill:#db4655;}.al{fill:#e5646e;}.am{fill:#ffc269;}.an{fill:#ffa95f;}.ao{fill:#ff8b5a;}.ap{fill:#ff8086;}.aq{filter:url(#d);}.ar{filter:url(#b);}</style><linearGradient id="a" x1="0.729" y1="0.44" x2="0.2" y2="1" gradientUnits="objectBoundingBox"><stop offset="0" stop-color="#4d5d68"/><stop offset="1" stop-color="#313644"/></linearGradient><filter id="b" x="39.346" y="6.508" width="317.819" height="166.077" filterUnits="userSpaceOnUse"><feOffset dx="5" dy="5" input="SourceAlpha"/><feGaussianBlur stdDeviation="5" result="c"/><feFlood flood-opacity="0.161"/><feComposite operator="in" in2="c"/><feComposite in="SourceGraphic"/></filter><filter id="d" x="54.127" y="-22.268" width="351.856" height="193.272" filterUnits="userSpaceOnUse"><feOffset dx="5" dy="5" input="SourceAlpha"/><feGaussianBlur stdDeviation="5" result="e"/><feFlood flood-opacity="0.161"/><feComposite operator="in" in2="e"/><feComposite in="SourceGraphic"/></filter><clipPath id="g"><rect width="537" height="317"/></clipPath></defs><g id="f" class="a"><rect class="f" width="537" height="317"/><path class="b" d="M0,0H573.717V344.256H0Z" transform="translate(-24.851 -7.765)"/><path class="c" d="M67.255,123.487,349.433,8.25,483.366,342.864,2.065,539.314Z" transform="translate(219.164 -197.577) rotate(22)"/><g class="d" transform="translate(445.944 118.154) rotate(19)"><g transform="translate(12.827 38.464)"><path class="e" d="M107.751,53.875A53.875,53.875,0,1,1,53.875,0,53.936,53.936,0,0,1,107.751,53.875Z"/></g><g transform="translate(25.655 51.292)"><path class="f" d="M82.1,41.048A41.048,41.048,0,1,1,41.048,0,41.094,41.094,0,0,1,82.1,41.048Z"/></g><g transform="translate(92.955 21.192)"><path class="g" d="M2.564,15.165a2.566,2.566,0,0,0,2.275-1.373L10.1,3.758A2.566,2.566,0,1,0,5.558,1.375L.295,11.408a2.564,2.564,0,0,0,2.27,3.757Z"/></g><g transform="translate(79.46 0)"><path class="h" d="M.293,12.721a23.766,23.766,0,0,1,42.09,22.087,2.566,2.566,0,0,1-3.465,1.078L1.373,16.185a2.565,2.565,0,0,1-1.08-3.464Z"/></g><g transform="translate(99.594 2.715)"><path class="i" d="M12.235,0l.013.006A23.611,23.611,0,0,1,23.893,13.978a23.615,23.615,0,0,1-1.644,18.115,2.566,2.566,0,0,1-3.465,1.078L0,23.314Z"/></g><g transform="translate(29.983 21.192)"><path class="g" d="M7.833,15.165a2.567,2.567,0,0,1-2.275-1.373L.295,3.758A2.566,2.566,0,1,1,4.839,1.375L10.1,11.408a2.564,2.564,0,0,1-2.27,3.757Z"/></g><g transform="translate(23.089 146.215)"><g transform="translate(0 0)"><path class="h" d="M2.563,17.958a2.565,2.565,0,0,1-2.2-3.873L7.96,1.257a2.566,2.566,0,1,1,4.415,2.615L4.773,16.7A2.562,2.562,0,0,1,2.563,17.958Z"/></g></g><g transform="translate(97.488 146.054)"><path class="h" d="M10.265,18.119a2.562,2.562,0,0,1-2.21-1.258L.359,3.873A2.566,2.566,0,1,1,4.773,1.258l7.7,12.988a2.565,2.565,0,0,1-2.2,3.873Z"/></g><g transform="translate(0 25.637)"><path class="j" d="M66.7,0a66.7,66.7,0,1,0,66.7,66.7A66.778,66.778,0,0,0,66.7,0Zm51.31,66.7A51.31,51.31,0,1,1,66.7,15.393,51.368,51.368,0,0,1,118.013,66.7Z"/></g><g transform="translate(0 25.639)"><path class="k" d="M66.633,118.007a51.306,51.306,0,0,1,0-102.613V0a66.7,66.7,0,0,0,0,133.4Z"/></g><g transform="translate(20.524 89.774)"><g transform="translate(0 0)"><path class="i" d="M12.827,5.131H2.565A2.566,2.566,0,0,1,2.565,0H12.827a2.566,2.566,0,0,1,0,5.131Z"/></g></g><g transform="translate(97.489 89.774)"><path class="i" d="M12.827,5.131H2.565A2.566,2.566,0,0,1,2.565,0H12.827a2.566,2.566,0,1,1,0,5.131Z"/></g><g transform="translate(64.137 123.125)"><path class="i" d="M2.565,15.393A2.565,2.565,0,0,1,0,12.827V2.566a2.565,2.565,0,1,1,5.131,0V12.827A2.565,2.565,0,0,1,2.565,15.393Z"/></g><g transform="translate(64.137 46.161)"><path class="i" d="M2.565,15.393A2.565,2.565,0,0,1,0,12.827V2.565a2.565,2.565,0,1,1,5.131,0V12.827A2.565,2.565,0,0,1,2.565,15.393Z"/></g><g transform="translate(8.761 0)"><path class="h" d="M44.822,12.721A23.766,23.766,0,0,0,2.732,34.808,2.566,2.566,0,0,0,6.2,35.886l37.545-19.7a2.565,2.565,0,0,0,1.08-3.464Z"/></g><g transform="translate(43.613 89.774)"><path class="g" d="M15.393,5.131H2.565A2.566,2.566,0,0,1,2.565,0H15.393a2.566,2.566,0,0,1,0,5.131Z"/></g><g transform="translate(64.137 66.685)"><path class="g" d="M2.565,23.089A2.565,2.565,0,0,1,0,20.524V2.565a2.565,2.565,0,1,1,5.131,0V20.524A2.565,2.565,0,0,1,2.565,23.089Z"/></g><g transform="translate(64.137 89.774)"><path class="l" d="M28.22,30.786a2.556,2.556,0,0,1-1.814-.752L.752,4.379A2.565,2.565,0,0,1,4.38.752L30.034,26.407a2.565,2.565,0,0,1-1.814,4.379Z"/></g><g transform="translate(8.76 2.715)"><path class="i" d="M12.746,0l-.013.006a23.769,23.769,0,0,0-10,32.087A2.566,2.566,0,0,0,6.2,33.171l18.784-9.857Z"/></g><g transform="translate(59.006 84.643)"><ellipse class="m" cx="7.696" cy="7.696" rx="7.696" ry="7.696" transform="translate(0 0)"/></g></g><g transform="translate(435.068 105.088) rotate(19)"><g transform="translate(12.827 38.464)"><path class="e" d="M107.751,53.875A53.875,53.875,0,1,1,53.875,0,53.936,53.936,0,0,1,107.751,53.875Z"/></g><g transform="translate(25.655 51.292)"><path class="f" d="M82.1,41.048A41.048,41.048,0,1,1,41.048,0,41.094,41.094,0,0,1,82.1,41.048Z"/></g><g transform="translate(92.955 21.192)"><path class="g" d="M2.564,15.165a2.566,2.566,0,0,0,2.275-1.373L10.1,3.758A2.566,2.566,0,1,0,5.558,1.375L.295,11.408a2.564,2.564,0,0,0,2.27,3.757Z"/></g><g transform="translate(79.46 0)"><path class="h" d="M.293,12.721a23.766,23.766,0,0,1,42.09,22.087,2.566,2.566,0,0,1-3.465,1.078L1.373,16.185a2.565,2.565,0,0,1-1.08-3.464Z"/></g><g transform="translate(99.594 2.715)"><path class="i" d="M12.235,0l.013.006A23.611,23.611,0,0,1,23.893,13.978a23.615,23.615,0,0,1-1.644,18.115,2.566,2.566,0,0,1-3.465,1.078L0,23.314Z"/></g><g transform="translate(29.983 21.192)"><path class="g" d="M7.833,15.165a2.567,2.567,0,0,1-2.275-1.373L.295,3.758A2.566,2.566,0,1,1,4.839,1.375L10.1,11.408a2.564,2.564,0,0,1-2.27,3.757Z"/></g><g transform="translate(23.089 146.215)"><g transform="translate(0 0)"><path class="h" d="M2.563,17.958a2.565,2.565,0,0,1-2.2-3.873L7.96,1.257a2.566,2.566,0,1,1,4.415,2.615L4.773,16.7A2.562,2.562,0,0,1,2.563,17.958Z"/></g></g><g transform="translate(97.488 146.054)"><path class="h" d="M10.265,18.119a2.562,2.562,0,0,1-2.21-1.258L.359,3.873A2.566,2.566,0,1,1,4.773,1.258l7.7,12.988a2.565,2.565,0,0,1-2.2,3.873Z"/></g><g transform="translate(0 25.637)"><path class="j" d="M66.7,0a66.7,66.7,0,1,0,66.7,66.7A66.778,66.778,0,0,0,66.7,0Zm51.31,66.7A51.31,51.31,0,1,1,66.7,15.393,51.368,51.368,0,0,1,118.013,66.7Z"/></g><g transform="translate(0 25.639)"><path class="k" d="M66.633,118.007a51.306,51.306,0,0,1,0-102.613V0a66.7,66.7,0,0,0,0,133.4Z"/></g><g transform="translate(20.524 89.774)"><g transform="translate(0 0)"><path class="i" d="M12.827,5.131H2.565A2.566,2.566,0,0,1,2.565,0H12.827a2.566,2.566,0,0,1,0,5.131Z"/></g></g><g transform="translate(97.489 89.774)"><path class="i" d="M12.827,5.131H2.565A2.566,2.566,0,0,1,2.565,0H12.827a2.566,2.566,0,1,1,0,5.131Z"/></g><g transform="translate(64.137 123.125)"><path class="i" d="M2.565,15.393A2.565,2.565,0,0,1,0,12.827V2.566a2.565,2.565,0,1,1,5.131,0V12.827A2.565,2.565,0,0,1,2.565,15.393Z"/></g><g transform="translate(64.137 46.161)"><path class="i" d="M2.565,15.393A2.565,2.565,0,0,1,0,12.827V2.565a2.565,2.565,0,1,1,5.131,0V12.827A2.565,2.565,0,0,1,2.565,15.393Z"/></g><g transform="translate(8.761 0)"><path class="h" d="M44.822,12.721A23.766,23.766,0,0,0,2.732,34.808,2.566,2.566,0,0,0,6.2,35.886l37.545-19.7a2.565,2.565,0,0,0,1.08-3.464Z"/></g><g transform="translate(43.613 89.774)"><path class="g" d="M15.393,5.131H2.565A2.566,2.566,0,0,1,2.565,0H15.393a2.566,2.566,0,0,1,0,5.131Z"/></g><g transform="translate(64.137 66.685)"><path class="g" d="M2.565,23.089A2.565,2.565,0,0,1,0,20.524V2.565a2.565,2.565,0,1,1,5.131,0V20.524A2.565,2.565,0,0,1,2.565,23.089Z"/></g><g transform="translate(64.137 89.774)"><path class="l" d="M28.22,30.786a2.556,2.556,0,0,1-1.814-.752L.752,4.379A2.565,2.565,0,0,1,4.38.752L30.034,26.407a2.565,2.565,0,0,1-1.814,4.379Z"/></g><g transform="translate(8.76 2.715)"><path class="i" d="M12.746,0l-.013.006a23.769,23.769,0,0,0-10,32.087A2.566,2.566,0,0,0,6.2,33.171l18.784-9.857Z"/></g><g transform="translate(59.006 84.643)"><ellipse class="m" cx="7.696" cy="7.696" rx="7.696" ry="7.696" transform="translate(0 0)"/></g></g><g transform="matrix(0.995, -0.105, 0.105, 0.995, 2.887, 162.828)"><path class="n" d="M151.244,179.177H5.4a5.4,5.4,0,0,1-5.4-5.4V49.54a5.4,5.4,0,0,1,5.4-5.4H151.244a5.4,5.4,0,0,1,5.4,5.4V173.775A5.4,5.4,0,0,1,151.244,179.177Z" transform="translate(0 -12.253)"/><path class="o" d="M156.645,71.146H0V49.54a5.4,5.4,0,0,1,5.4-5.4H151.244a5.4,5.4,0,0,1,5.4,5.4Z" transform="translate(0 -12.253)"/><rect class="p" width="156.645" height="5.402" transform="translate(0 58.892)"/><circle class="q" cx="8.102" cy="8.102" r="8.102" transform="translate(14.854 35.936)"/><path class="r" d="M65.844,48.089h0a4.051,4.051,0,0,1-4.051-4.051v-13.5a4.051,4.051,0,0,1,4.051-4.051h0A4.051,4.051,0,0,1,69.9,30.534v13.5A4.051,4.051,0,0,1,65.844,48.089Z" transform="translate(-42.888 0)"/><path class="s" d="M65.844,61.43a4.051,4.051,0,0,1-4.051-4.051v8.1a4.051,4.051,0,1,0,8.1,0v-8.1A4.051,4.051,0,0,1,65.844,61.43Z" transform="translate(-42.888 -21.443)"/><circle class="q" cx="8.102" cy="8.102" r="8.102" transform="translate(125.586 35.936)"/><path class="r" d="M427.776,48.089h0a4.051,4.051,0,0,1-4.051-4.051v-13.5a4.051,4.051,0,0,1,4.051-4.051h0a4.051,4.051,0,0,1,4.051,4.051v13.5A4.051,4.051,0,0,1,427.776,48.089Z" transform="translate(-294.087 0)"/><path class="s" d="M427.776,61.43a4.051,4.051,0,0,1-4.051-4.051v8.1a4.051,4.051,0,1,0,8.1,0v-8.1A4.051,4.051,0,0,1,427.776,61.43Z" transform="translate(-294.087 -21.443)"/><g transform="translate(39.365 80.915)"><path class="o" d="M161.226,237.13a.282.282,0,0,1-.041-.546,15.445,15.445,0,0,0,10.209-15c0-9.961-8.665-17.19-20.6-17.19-10.331,0-18.213,5.4-20.571,14.1a3.619,3.619,0,0,0,.618,3.175,3.533,3.533,0,0,0,2.828,1.4,3.573,3.573,0,0,0,3.445-2.691c1.484-5.76,6.622-9.337,13.41-9.337,8.153,0,13.419,4.438,13.419,11.307,0,6.948-5.628,11.8-13.686,11.8h-4.939a3.233,3.233,0,1,0,0,6.467h5.205c10.117,0,16.156,4.73,16.156,12.653,0,7.281-6.549,12.564-15.573,12.564-7.784,0-13.808-3.792-15.349-9.663a3.654,3.654,0,0,0-3.49-2.767,3.567,3.567,0,0,0-2.835,1.391,3.658,3.658,0,0,0-.647,3.176c2.279,8.814,11.057,14.509,22.365,14.509,13.127,0,23.025-8.335,23.025-19.389C174.175,244.928,169.21,238.975,161.226,237.13Z" transform="translate(-128.665 -204.395)"/><path class="o" d="M314.569,207.48a8.991,8.991,0,0,0-5.062,1.57c-1.89,1.29-4.641,3.2-7.3,5.052s-5.225,3.63-6.753,4.668a3.373,3.373,0,0,0,.317,5.773,3.3,3.3,0,0,0,3.46-.191c2.7-1.833,9.9-6.9,11.818-8.25a.3.3,0,0,1,.475.259V270a3.591,3.591,0,1,0,7.181,0V211.576A4.109,4.109,0,0,0,314.569,207.48Z" transform="translate(-243.396 -206.536)"/></g></g><path class="c" d="M59.894,109.461,310.211,8.25l118.81,293.887L2.065,474.676Z" transform="translate(244.157 -109.886) rotate(22)"/><g transform="translate(236.77 76.846) rotate(16)"><circle class="t" cx="3.087" cy="3.087" r="3.087" transform="translate(102.83 31.241)"/><circle class="u" cx="2.602" cy="2.602" r="2.602" transform="translate(48.974 66.622)"/><path class="v" d="M201.171,7.523l-6.634-.964L191.571.548a.983.983,0,0,0-1.762,0l-2.967,6.011-6.634.964a.983.983,0,0,0-.544,1.676l4.8,4.679-1.133,6.607a.983.983,0,0,0,1.426,1.036L190.69,18.4c6.463,3.4,6.057,3.232,6.39,3.232a.983.983,0,0,0,.969-1.149l-1.133-6.607,4.8-4.679A.983.983,0,0,0,201.171,7.523Z" transform="translate(-103.785)"/><path class="w" d="M190.189,15.611l-4.8-4.679a.983.983,0,0,1,.544-1.676l6.634-.964,1.413-2.862L191.57.548a.983.983,0,0,0-1.762,0l-2.967,6.011-6.634.964a.983.983,0,0,0-.544,1.676l4.8,4.679-1.133,6.607a.983.983,0,0,0,1.426,1.036l4.858-2.554Z" transform="translate(-103.784 0)"/><path class="v" d="M392.078,147.133l-3.993-3.961,1-5.535a.825.825,0,0,0-1.188-.88l-5,2.573-4.955-2.661a.825.825,0,0,0-1.2.858l.9,5.551-4.062,3.89a.825.825,0,0,0,.445,1.41l5.558.858,2.444,5.065a.824.824,0,0,0,1.479.013l2.533-5.021,5.573-.76A.825.825,0,0,0,392.078,147.133Z" transform="translate(-257.078 -107.939)"/><path class="w" d="M380.555,147.024l-.9-5.551a.825.825,0,0,1,1.2-.859l4.955,2.661L388.3,142l.787-4.358a.825.825,0,0,0-1.189-.88l-5,2.573-4.955-2.661a.825.825,0,0,0-1.2.859l.9,5.551-4.062,3.89a.825.825,0,0,0,.445,1.41l4.407.681Z" transform="translate(-257.077 -107.94)"/><path class="x" d="M114.878,303.657s-3.262-27.148-12.647-42.4a4.122,4.122,0,0,0-5.861-1.522h0c-2.787,1.479-1.259,4.443-1.259,4.443h0C99.413,269.53,108.977,283.028,114.878,303.657Z" transform="translate(-36.861 -204.777)"/><path class="y" d="M325.933,351.064h0q.493-.3.952-.571c1.169-.84,2.808-2.584,1.189-5.082-1.9-2.929-5.187-.91-5.706-.564C305.333,357.092,295.9,379.1,295.9,379.1a105.3,105.3,0,0,1,30.034-28.036Z" transform="translate(-195.886 -271.76)"/><path class="x" d="M53.737,381.017c-.585-.422-3.6-2.414-5.194.147-.981,1.582-.442,2.987,1.174,3.958h0a83.619,83.619,0,0,1,24.152,22.456S66.706,390.865,53.737,381.017Z" transform="translate(0 -300.239)"/><path class="z" d="M106.745,170.516c.129-.386.031-.355-2.5-2.863.64-3.542.729-3.537.4-3.778s-.327-.139-3.5,1.49c-3.169-1.7-3.139-1.786-3.468-1.552s-.233.269.337,3.784l-2.419,2.317a.491.491,0,0,0,.265.84l3.31.511c1.563,3.24,1.488,3.29,1.893,3.294s.347-.079,1.952-3.26l3.319-.452A.492.492,0,0,0,106.745,170.516Z" transform="translate(-37.465 -129.395)"/><path class="aa" d="M102.436,170.346c-3.555-.549-3.582-.463-3.7-.849s-.025-.355,2.548-2.819l-.218-1.343c-3.105-1.668-3.085-1.757-3.414-1.523s-.233.269.337,3.784c-2.6,2.488-2.669,2.433-2.548,2.819s.183.305,3.7.849c1.516,3.141,1.447,3.08,1.605,3.2a.492.492,0,0,0,.731-.173l1.463-2.9Z" transform="translate(-37.424 -129.394)"/><path class="y" d="M209.043,136.508h0c-3.791-1.993-4.532-2.1-8.529,0h0c-3.439,1.808-3.38,4.358-3.3,5.037,1.985,12.28,5.727,37.239,7.562,61.266,1.828-23.947,5.552-48.819,7.542-61.142C212.543,140.265,212.792,138.479,209.043,136.508Z" transform="translate(-117.871 -106.675)"/><path class="x" d="M201.449,141.546c-.084-.679-.143-3.229,3.3-5.037h0c.848-.445,1.548-.791,2.163-1.041-2.145-.893-3.282-.6-6.4,1.041h0c-3.439,1.808-3.38,4.358-3.3,5.037,1.985,12.28,5.727,37.239,7.562,61.266.562-7.36,1.3-14.807,2.118-21.951C205.049,164.684,202.826,150.064,201.449,141.546Z" transform="translate(-117.871 -106.676)"/><path class="y" d="M295.866,229.833a2.531,2.531,0,0,0,.494-2.525l-.995-2.061a2.343,2.343,0,0,0-1.634-1.32l-.179-.028h0l-1.861-.287a2.9,2.9,0,0,0-2.822,1.408c-11.122,19.5-16.979,51.334-16.979,51.334,7.624-22.826,17.831-38.447,23.975-46.518Z" transform="translate(-176.91 -176.707)"/></g><g transform="matrix(1, 0.017, -0.017, 1, 1065.858, -2091.519)"><g class="ar" transform="matrix(1, -0.02, 0.02, 1, -1029.19, 2109.8)"><path class="ab" d="M-14.288,58.988,47.639,40.873l97.97-30.048L232.994,5.2l33.071,42.719L212.982,82.533,128.2,112.451-2.419,122Z" transform="translate(63.24 29.89) rotate(-4)"/></g><g class="aq" transform="matrix(1, -0.02, 0.02, 1, -1029.19, 2109.8)"><text class="ac" transform="translate(64.13 85.38) rotate(-18)"><tspan x="0" y="56">EventTime</tspan></text></g></g><g transform="translate(263.911 218.302) rotate(-9)"><rect class="ad" width="101.38" height="74.921" transform="translate(5.013 37.961)"/><g class="ae" transform="translate(5.012 37.96)"><path class="af" d="M33.028,230.436V165.057H23.035v74.92h101.38v-9.541Z" transform="translate(-23.035 -165.057)"/></g><g transform="translate(10.366 48.839)"><path class="ag" d="M120.354,220.022a4.062,4.062,0,0,0-2.482-2.482,4.066,4.066,0,0,0,2.483-2.485,4.061,4.061,0,0,0,2.482,2.484A4.074,4.074,0,0,0,120.354,220.022Z" transform="translate(-102.59 -215.055)"/><path class="ag" d="M84.406,271.433a4.065,4.065,0,0,0-2.483-2.483,4.07,4.07,0,0,0,2.483-2.482,4.069,4.069,0,0,0,2.483,2.482A4.064,4.064,0,0,0,84.406,271.433Z" transform="translate(-74.463 -255.281)"/><path class="ag" d="M50.124,220.022a4.069,4.069,0,0,0-2.484-2.482,4.075,4.075,0,0,0,2.484-2.485,4.06,4.06,0,0,0,2.482,2.484A4.067,4.067,0,0,0,50.124,220.022Z" transform="translate(-47.64 -215.055)"/><path class="ag" d="M159.15,266.46a4.065,4.065,0,0,0,2.482,2.482,4.066,4.066,0,0,0-2.483,2.485,4.06,4.06,0,0,0-2.482-2.484A4.076,4.076,0,0,0,159.15,266.46Z" transform="translate(-132.944 -255.275)"/><path class="ag" d="M195.094,215.055a4.066,4.066,0,0,0,2.484,2.483,4.07,4.07,0,0,0-2.484,2.482,4.068,4.068,0,0,0-2.483-2.482A4.064,4.064,0,0,0,195.094,215.055Z" transform="translate(-161.067 -215.055)"/><path class="ag" d="M229.377,266.46a4.069,4.069,0,0,0,2.484,2.482,4.075,4.075,0,0,0-2.484,2.485,4.058,4.058,0,0,0-2.482-2.484A4.066,4.066,0,0,0,229.377,266.46Z" transform="translate(-187.891 -255.275)"/><path class="ag" d="M335,220.022a4.063,4.063,0,0,0-2.482-2.482A4.066,4.066,0,0,0,335,215.055a4.061,4.061,0,0,0,2.482,2.484A4.074,4.074,0,0,0,335,220.022Z" transform="translate(-270.53 -215.055)"/><path class="ag" d="M299.048,271.433a4.066,4.066,0,0,0-2.484-2.483,4.07,4.07,0,0,0,2.484-2.482,4.068,4.068,0,0,0,2.483,2.482A4.065,4.065,0,0,0,299.048,271.433Z" transform="translate(-242.401 -255.281)"/><path class="ag" d="M264.765,220.022a4.069,4.069,0,0,0-2.484-2.482,4.075,4.075,0,0,0,2.484-2.485,4.06,4.06,0,0,0,2.482,2.484A4.069,4.069,0,0,0,264.765,220.022Z" transform="translate(-215.578 -215.055)"/><path class="ag" d="M373.792,266.46a4.064,4.064,0,0,0,2.482,2.482,4.066,4.066,0,0,0-2.483,2.485,4.059,4.059,0,0,0-2.482-2.484A4.076,4.076,0,0,0,373.792,266.46Z" transform="translate(-300.883 -255.275)"/><path class="ag" d="M409.736,215.055a4.067,4.067,0,0,0,2.484,2.483,4.071,4.071,0,0,0-2.484,2.482,4.067,4.067,0,0,0-2.483-2.482A4.062,4.062,0,0,0,409.736,215.055Z" transform="translate(-329.006 -215.055)"/><path class="ag" d="M444.02,266.46a4.069,4.069,0,0,0,2.484,2.482,4.074,4.074,0,0,0-2.484,2.485,4.057,4.057,0,0,0-2.482-2.484A4.066,4.066,0,0,0,444.02,266.46Z" transform="translate(-355.831 -255.275)"/><path class="ag" d="M120.354,318.551a4.062,4.062,0,0,0-2.482-2.482,4.066,4.066,0,0,0,2.483-2.485,4.061,4.061,0,0,0,2.482,2.484A4.074,4.074,0,0,0,120.354,318.551Z" transform="translate(-102.59 -292.145)"/><path class="ag" d="M84.406,369.961a4.065,4.065,0,0,0-2.483-2.483A4.07,4.07,0,0,0,84.406,365a4.069,4.069,0,0,0,2.483,2.482A4.064,4.064,0,0,0,84.406,369.961Z" transform="translate(-74.463 -332.371)"/><path class="ag" d="M50.124,318.551a4.069,4.069,0,0,0-2.484-2.482,4.075,4.075,0,0,0,2.484-2.485,4.06,4.06,0,0,0,2.482,2.484A4.067,4.067,0,0,0,50.124,318.551Z" transform="translate(-47.64 -292.145)"/><path class="ag" d="M159.15,364.989a4.064,4.064,0,0,0,2.482,2.482,4.066,4.066,0,0,0-2.483,2.485,4.061,4.061,0,0,0-2.482-2.484A4.076,4.076,0,0,0,159.15,364.989Z" transform="translate(-132.944 -332.365)"/><path class="ag" d="M195.094,313.584a4.066,4.066,0,0,0,2.484,2.483,4.07,4.07,0,0,0-2.484,2.482,4.068,4.068,0,0,0-2.483-2.482A4.064,4.064,0,0,0,195.094,313.584Z" transform="translate(-161.067 -292.145)"/><path class="ag" d="M229.377,364.989a4.069,4.069,0,0,0,2.484,2.482,4.075,4.075,0,0,0-2.484,2.485,4.058,4.058,0,0,0-2.482-2.484A4.067,4.067,0,0,0,229.377,364.989Z" transform="translate(-187.891 -332.365)"/><path class="ag" d="M335,318.551a4.063,4.063,0,0,0-2.482-2.482A4.066,4.066,0,0,0,335,313.584a4.061,4.061,0,0,0,2.482,2.484A4.074,4.074,0,0,0,335,318.551Z" transform="translate(-270.53 -292.145)"/><path class="ag" d="M299.048,369.961a4.066,4.066,0,0,0-2.484-2.483A4.07,4.07,0,0,0,299.048,365a4.068,4.068,0,0,0,2.483,2.482A4.065,4.065,0,0,0,299.048,369.961Z" transform="translate(-242.401 -332.371)"/><path class="ag" d="M264.765,318.551a4.068,4.068,0,0,0-2.484-2.482,4.075,4.075,0,0,0,2.484-2.485,4.06,4.06,0,0,0,2.482,2.484A4.069,4.069,0,0,0,264.765,318.551Z" transform="translate(-215.578 -292.145)"/><path class="ag" d="M373.792,364.989a4.063,4.063,0,0,0,2.482,2.482,4.066,4.066,0,0,0-2.483,2.485,4.06,4.06,0,0,0-2.482-2.484A4.076,4.076,0,0,0,373.792,364.989Z" transform="translate(-300.883 -332.365)"/><path class="ag" d="M409.736,313.584a4.067,4.067,0,0,0,2.484,2.483,4.071,4.071,0,0,0-2.484,2.482,4.067,4.067,0,0,0-2.483-2.482A4.062,4.062,0,0,0,409.736,313.584Z" transform="translate(-329.006 -292.145)"/><path class="ag" d="M444.02,364.989a4.069,4.069,0,0,0,2.484,2.482,4.074,4.074,0,0,0-2.484,2.485,4.058,4.058,0,0,0-2.482-2.484A4.067,4.067,0,0,0,444.02,364.989Z" transform="translate(-355.831 -332.365)"/><path class="ag" d="M120.354,417.079a4.062,4.062,0,0,0-2.482-2.482,4.066,4.066,0,0,0,2.483-2.485,4.061,4.061,0,0,0,2.482,2.484A4.075,4.075,0,0,0,120.354,417.079Z" transform="translate(-102.59 -369.235)"/><path class="ag" d="M84.406,468.49a4.066,4.066,0,0,0-2.483-2.483,4.07,4.07,0,0,0,2.483-2.482,4.069,4.069,0,0,0,2.483,2.482A4.064,4.064,0,0,0,84.406,468.49Z" transform="translate(-74.463 -409.461)"/><path class="ag" d="M50.124,417.079A4.069,4.069,0,0,0,47.64,414.6a4.075,4.075,0,0,0,2.484-2.485,4.06,4.06,0,0,0,2.482,2.484A4.067,4.067,0,0,0,50.124,417.079Z" transform="translate(-47.64 -369.235)"/><path class="ag" d="M159.15,463.517A4.064,4.064,0,0,0,161.632,466a4.067,4.067,0,0,0-2.483,2.485A4.061,4.061,0,0,0,156.667,466,4.076,4.076,0,0,0,159.15,463.517Z" transform="translate(-132.944 -409.455)"/><path class="ag" d="M195.094,412.112a4.066,4.066,0,0,0,2.484,2.483,4.07,4.07,0,0,0-2.484,2.482,4.068,4.068,0,0,0-2.483-2.482A4.064,4.064,0,0,0,195.094,412.112Z" transform="translate(-161.067 -369.235)"/><path class="ag" d="M229.377,463.517A4.069,4.069,0,0,0,231.861,466a4.075,4.075,0,0,0-2.484,2.485A4.059,4.059,0,0,0,226.895,466,4.066,4.066,0,0,0,229.377,463.517Z" transform="translate(-187.891 -409.455)"/><path class="ag" d="M335,417.079a4.063,4.063,0,0,0-2.482-2.482A4.066,4.066,0,0,0,335,412.112a4.061,4.061,0,0,0,2.482,2.484A4.075,4.075,0,0,0,335,417.079Z" transform="translate(-270.53 -369.235)"/><path class="ag" d="M299.048,468.49a4.066,4.066,0,0,0-2.484-2.483,4.07,4.07,0,0,0,2.484-2.482,4.068,4.068,0,0,0,2.483,2.482A4.065,4.065,0,0,0,299.048,468.49Z" transform="translate(-242.401 -409.461)"/><path class="ag" d="M264.765,417.079a4.069,4.069,0,0,0-2.484-2.482,4.075,4.075,0,0,0,2.484-2.485,4.06,4.06,0,0,0,2.482,2.484A4.069,4.069,0,0,0,264.765,417.079Z" transform="translate(-215.578 -369.235)"/><path class="ag" d="M373.792,463.517A4.063,4.063,0,0,0,376.274,466a4.067,4.067,0,0,0-2.483,2.485A4.06,4.06,0,0,0,371.309,466,4.076,4.076,0,0,0,373.792,463.517Z" transform="translate(-300.883 -409.455)"/><path class="ag" d="M409.736,412.112a4.067,4.067,0,0,0,2.484,2.483,4.071,4.071,0,0,0-2.484,2.482,4.067,4.067,0,0,0-2.483-2.482A4.062,4.062,0,0,0,409.736,412.112Z" transform="translate(-329.006 -369.235)"/><path class="ag" d="M444.02,463.517A4.069,4.069,0,0,0,446.5,466a4.074,4.074,0,0,0-2.484,2.485A4.059,4.059,0,0,0,441.538,466,4.066,4.066,0,0,0,444.02,463.517Z" transform="translate(-355.831 -409.455)"/></g><rect class="ah" width="22.92" height="74.921" transform="translate(44.241 37.961)"/><path class="ai" d="M111.4,113.4a3.41,3.41,0,0,1-3.41,3.41H3.41A3.41,3.41,0,0,1,0,113.4V97.481a3.41,3.41,0,0,1,3.41-3.41H107.994a3.41,3.41,0,0,1,3.41,3.41V113.4Z" transform="translate(0 -71.556)"/><g class="ae" transform="translate(0 22.515)"><path class="af" d="M11.6,113.4V97.481a3.41,3.41,0,0,1,3.41-3.41H3.41A3.41,3.41,0,0,0,0,97.481V113.4a3.41,3.41,0,0,0,3.41,3.41h11.6A3.41,3.41,0,0,1,11.6,113.4Z" transform="translate(0 -94.071)"/></g><path class="aj" d="M133.507,2.615c-6.078,0-12.5,3.152-18.586,9.114a55.551,55.551,0,0,0-6.188,7.252,6.377,6.377,0,0,0-11.04,0A55.556,55.556,0,0,0,91.5,11.729C85.422,5.767,79,2.615,72.917,2.615c-6.725,0-12.2,4.636-12.2,10.334,0,4.294,3.124,8.018,7.587,9.566H89.344V45.25h27.738V22.515h21.034c4.463-1.548,7.588-5.271,7.588-9.566C145.7,7.251,140.232,2.615,133.507,2.615ZM72.494,19.866a1.624,1.624,0,0,0-.171-.017c-4.589-.243-8.184-3.274-8.184-6.9,0-3.814,3.938-6.917,8.778-6.917,6.5,0,12.368,4.4,16.142,8.086A51.921,51.921,0,0,1,94.1,19.866Zm61.607-.018c-.057,0-.114.009-.171.017h-21.6a51.878,51.878,0,0,1,5.038-5.747c6.838-6.684,12.552-8.086,16.142-8.086,4.84,0,8.778,3.1,8.778,6.917C142.285,16.575,138.69,19.6,134.1,19.848Z" transform="translate(-47.51)"/></g><g transform="translate(224 242.721)"><path class="ak" d="M125.633,69.434,108.76,75.058,91.887,69.434a1.228,1.228,0,1,0-.776,2.33l17.261,5.753a1.211,1.211,0,0,0,.777,0l17.261-5.753a1.228,1.228,0,1,0-.776-2.33Zm0,0" transform="translate(-76.822 -59.036)"/><path class="ak" d="M144.194,3.662,141.251.72a2.456,2.456,0,0,0-3.7.263s-7.375,9.834-7.376,9.833L122.8.983a2.457,2.457,0,0,0-3.7-.263l-2.943,2.942a2.458,2.458,0,0,0,.263,3.7l10.729,8.047,6.116-.044,10.671-8a2.457,2.457,0,0,0,.263-3.7Zm0,0" transform="translate(-98.235 0)"/><path class="al" d="M142.348,14.861l12.609-12.61L153.426.72a2.456,2.456,0,0,0-3.7.263s-7.375,9.834-7.376,9.833L134.972.983a2.457,2.457,0,0,0-3.7-.263l-1.531,1.531Zm0,0" transform="translate(-110.41 0)"/><path class="am" d="M61.42,116.234H2.456A2.457,2.457,0,0,0,0,118.691v11.056a1.228,1.228,0,0,0,1.229,1.229h61.42a1.228,1.228,0,0,0,1.229-1.229V118.691a2.457,2.457,0,0,0-2.457-2.457Zm0,0" transform="translate(0 -98.917)"/><path class="an" d="M8.246,215.176v41.766A2.457,2.457,0,0,0,10.7,259.4H67.209a2.457,2.457,0,0,0,2.457-2.457V215.176Zm0,0" transform="translate(-7.018 -183.118)"/><path class="ao" d="M69.666,217.633v-2.457H8.246v41.766A2.457,2.457,0,0,0,10.7,259.4H13.16V229.917a12.284,12.284,0,0,1,12.284-12.284Zm0,0" transform="translate(-7.018 -183.118)"/><path class="an" d="M6.142,126.061v-9.827H2.457A2.457,2.457,0,0,0,0,118.691v11.056a1.228,1.228,0,0,0,1.229,1.229h61.42a1.228,1.228,0,0,0,1.229-1.229v-1.229H8.6a2.456,2.456,0,0,1-2.457-2.457Zm0,0" transform="translate(0 -98.917)"/><path class="ap" d="M199.9,78.079a3.071,3.071,0,1,1-3.07-3.071A3.071,3.071,0,0,1,199.9,78.079Zm0,0" transform="translate(-164.894 -63.833)"/><path class="al" d="M189.637,116.234h7.371V175.2h-7.371Zm0,0" transform="translate(-161.384 -98.917)"/><path class="ak" d="M189.637,198.688h7.371V203.6h-7.371Zm0,0" transform="translate(-161.384 -169.087)"/><path class="al" d="M198.365,81.167a3.072,3.072,0,0,1-2.8-4.335,3.071,3.071,0,1,0,4.063,4.063A3.065,3.065,0,0,1,198.365,81.167Zm0,0" transform="translate(-164.891 -65.386)"/></g></g></svg>