<svg xmlns="http://www.w3.org/2000/svg" viewBox="0 0 260.376 141.89">
  <defs>
    <style>
      .cls-1 {
        fill: #fff;
      }
    </style>
  </defs>
  <g id="logo" transform="translate(0 0)">
    <g id="Шар_1-2" transform="translate(0 0)">
      <g id="Group_75" data-name="Group 75" transform="translate(89.269 91.46)">
        <path id="Path_96" data-name="Path 96" class="cls-1" d="M97.035,92.4v8.323H95.45V97.156H91.685v3.567H90.1V92.4h1.585v3.369H95.45V92.4Z" transform="translate(-90.1 -92.301)"/>
        <path id="Path_97" data-name="Path 97" class="cls-1" d="M114.162,100.821a3.256,3.256,0,0,1-1.684-.4,4.087,4.087,0,0,1-1.288-.991,3.194,3.194,0,0,1-.793-1.387,4.376,4.376,0,0,1,0-3.17,4.156,4.156,0,0,1,.892-1.387,3.77,3.77,0,0,1,1.288-.892,4.107,4.107,0,0,1,1.585-.3,3.256,3.256,0,0,1,1.684.4,4.087,4.087,0,0,1,1.288.991,3.887,3.887,0,0,1,.793,1.387,4.32,4.32,0,0,1-.793,4.458,3.77,3.77,0,0,1-1.288.892A4.667,4.667,0,0,1,114.162,100.821Zm-2.477-4.26a2.931,2.931,0,0,0,.2.991,4.016,4.016,0,0,0,.5.892,1.541,1.541,0,0,0,.793.594,1.629,1.629,0,0,0,.991.2,2.931,2.931,0,0,0,.991-.2,5.5,5.5,0,0,0,.793-.594,4.016,4.016,0,0,0,.5-.892,3.52,3.52,0,0,0,.2-.991,2.931,2.931,0,0,0-.2-.991,4.016,4.016,0,0,0-.5-.892,1.541,1.541,0,0,0-.793-.594,1.629,1.629,0,0,0-.991-.2,2.931,2.931,0,0,0-.991.2,5.5,5.5,0,0,0-.793.594,4.016,4.016,0,0,0-.5.892A3.521,3.521,0,0,0,111.685,96.56Z" transform="translate(-90.285 -92.3)"/>
        <path id="Path_98" data-name="Path 98" class="cls-1" d="M137.435,93.887H134.76v6.836h-1.585V93.887H130.5V92.5h6.935Z" transform="translate(-90.473 -92.302)"/>
        <path id="Path_99" data-name="Path 99" class="cls-1" d="M156.047,99.335v1.387H150.3V92.4h5.647v1.387h-4.062v1.982h3.468v1.288h-3.468v2.18h4.161Z" transform="translate(-90.655 -92.301)"/>
        <path id="Path_100" data-name="Path 100" class="cls-1" d="M169.1,100.723V92.4h1.585v6.836h4.26v1.387H169.1Z" transform="translate(-90.829 -92.301)"/>
      </g>
      <path id="Path_101" data-name="Path 101" class="cls-1" d="M260.376,79.658S232.733,76.091,212.422,64.2a5.228,5.228,0,0,0-5.945.4c-5.053,3.864-15.258,11.1-17.834,8.422-5.746-5.746-9.313-22.788-12.979-21.7-3.071.892-19.122,11-19.122,11-3.963.793-16.348-42.108-23.779-53.106C131.872,7.827,34.281,85.7,20.41,85.7,2.972,85.6-15.654,32.7,21.6,11.988S83.522,23.679,83.522,23.679,66.283,2.576,38.244,9.809C-1.882,20.212.694,70.345,20.41,81.045,24.868,83.423,129.891.693,134.151,0S150.9,30.516,157.434,52.214c19.419-9.412,19.419-11.493,21.4-10.4C182.7,43.99,187.554,64,192.111,64.8c5.251.991,9.809-5.449,15.654-8.323,2.675-1.288,11.889,6.143,23.779,11.493C240.56,72.029,260.376,79.658,260.376,79.658Z" transform="translate(0 0.011)"/>
      <g id="Group_76" data-name="Group 76" transform="translate(14.763 107.907)">
        <path id="Path_102" data-name="Path 102" class="cls-1" d="M53.639,121.484a9.16,9.16,0,0,0-.5.892q-.446.743-1.189,2.081c-.5.793-.991,1.684-1.585,2.675s-1.09,1.882-1.585,2.774a26.451,26.451,0,0,0-1.189,2.378,5.787,5.787,0,0,0-.5,1.288c0,.694.5.991,1.486.991a3.809,3.809,0,0,0,1.684-.594,19.689,19.689,0,0,0,2.378-1.585,27.293,27.293,0,0,0,2.675-2.279c.892-.892,1.684-1.783,2.477-2.675,1.09-1.387,2.279-2.774,3.468-4.359,1.189-1.486,2.675-3.468,4.458-5.846l3.468-6.836a.814.814,0,0,1,.5-.5c.2-.1.5-.3.694-.4a2.521,2.521,0,0,1,.694-.2c.2,0,.3-.1.4-.1.2,0,.2.1.2.2s-.1.2-.2.5c-.1.1-.2.5-.5.991a17,17,0,0,0-.892,1.882,26.963,26.963,0,0,1-1.189,2.477c-.4.892-.793,1.684-1.189,2.576L66.618,120c-.3.694-.5,1.09-.694,1.486-1.585,3.369-2.774,6.044-3.567,8.124a14.055,14.055,0,0,0-1.189,4.062c0,.2.1.3.2.5a.545.545,0,0,0,.5.3,2.889,2.889,0,0,0,1.486-.594,20.307,20.307,0,0,0,1.882-1.486,19.735,19.735,0,0,0,1.882-2.081,14.883,14.883,0,0,0,1.486-2.279c.2-.1.3-.2.5-.2s.2.1.2.3a13.372,13.372,0,0,1-1.486,2.576,14.875,14.875,0,0,1-1.982,2.279,15.519,15.519,0,0,1-2.081,1.684,4.106,4.106,0,0,1-1.982.594c-1.783,0-2.675-.892-2.675-2.576,0-1.783,1.189-4.954,3.468-9.511q-1.338,1.635-2.378,2.972a23.07,23.07,0,0,1-1.882,2.18c-4.26,4.756-7.728,7.035-10.2,7.035-1.783,0-2.675-.892-2.675-2.774a4.62,4.62,0,0,1,.5-1.585c.3-.694.793-1.585,1.189-2.477a27.663,27.663,0,0,1,1.585-2.774c.594-.991,1.09-1.783,1.486-2.477-.2.2-.5.594-.991,1.09-.4.5-.892.991-1.387,1.585-.5.5-.892,1.09-1.288,1.486-.4.5-.594.793-.793.892-4.26,4.756-7.728,7.035-10.2,7.035-1.783,0-2.675-.892-2.675-2.774,0-1.387.892-3.666,2.774-6.737,0,0,.5-.694,1.288-2.081.793-1.288,2.081-3.27,3.765-5.945,1.783-2.873,2.774-4.756,2.774-5.548a1.272,1.272,0,0,0-.4-.991,2.7,2.7,0,0,0-.991-.793,5.222,5.222,0,0,0-1.486-.5,10.974,10.974,0,0,0-1.882-.2,23.316,23.316,0,0,0-11.1,2.972,29.335,29.335,0,0,0-4.359,2.774,40.643,40.643,0,0,0-3.666,3.27,14.235,14.235,0,0,0-2.477,3.27,5.975,5.975,0,0,0-.892,2.873c0,1.982,1.09,2.972,3.369,2.972a13.776,13.776,0,0,0,2.675-.3,15.973,15.973,0,0,0,2.873-.892,15.359,15.359,0,0,0,2.873-1.387,15.714,15.714,0,0,0,2.675-1.783,16.852,16.852,0,0,0,2.378-2.279l2.378-2.675c.694-.892,1.387-1.783,1.882-2.576a10.657,10.657,0,0,0,1.09-2.081c.2-.793.5-1.189.694-1.189.1,0,.2.1.2.4a5.258,5.258,0,0,1-.694,2.18,28.329,28.329,0,0,1-1.882,2.972,39.938,39.938,0,0,1-2.576,3.17,25.972,25.972,0,0,1-2.972,2.774,15.714,15.714,0,0,1-2.675,1.783c-.991.5-1.982.991-2.972,1.387a16.945,16.945,0,0,1-2.972.892,14.9,14.9,0,0,1-2.873.3q-4.756,0-4.756-4.161a7.4,7.4,0,0,1,.892-3.27,18.062,18.062,0,0,1,2.378-3.468,22.933,22.933,0,0,1,3.567-3.27,25.81,25.81,0,0,1,4.458-2.774A25.544,25.544,0,0,1,37.49,109c5.053,0,7.629,1.486,7.629,4.558,0,1.387-.892,3.666-2.774,6.737a2.209,2.209,0,0,0-.3.5,15,15,0,0,1-.892,1.387c-.4.594-.793,1.189-1.288,1.982-.5.694-.991,1.486-1.486,2.279L36.9,128.815c-.5.793-.892,1.486-1.288,2.18a14.543,14.543,0,0,0-.892,1.684c-.2.5-.4.793-.4.892,0,.694.5.991,1.486.991a3.809,3.809,0,0,0,1.684-.594,19.689,19.689,0,0,0,2.378-1.585,27.3,27.3,0,0,0,2.675-2.279c.892-.892,1.684-1.783,2.477-2.675q.743-.892,1.783-2.081a33.888,33.888,0,0,0,2.675-3.17c.991-1.288,2.18-2.873,3.468-4.756s2.675-4.26,4.161-6.935a.814.814,0,0,1,.5-.5c.2-.1.5-.3.694-.4a2.52,2.52,0,0,1,.694-.2c.2,0,.3-.1.4-.1.2,0,.2.1.2.2s-.1.2-.2.5c-.1.1-.2.4-.5.892A14.543,14.543,0,0,1,58,112.567c-.4.694-.694,1.387-1.189,2.18-.4.793-.892,1.585-1.288,2.477-.4.793-.892,1.585-1.288,2.378S53.937,120.988,53.639,121.484Z" transform="translate(-14.9 -108.901)"/>
        <path id="Path_103" data-name="Path 103" class="cls-1" d="M81.693,124.9c0,.1-.1.2-.2.4,0,.1-.694,1.486-1.882,4.161a16.663,16.663,0,0,0-1.585,4.359c0,.4.1.5.4.5.5,0,1.387-.694,2.675-2.18a.35.35,0,0,1,.4.4q-1.932,2.675-3.864,2.675a1.476,1.476,0,0,1-1.684-1.684,6.815,6.815,0,0,1,.594-2.081c-1.882,2.378-3.468,3.666-4.558,3.666-1.189,0-1.783-.694-1.783-2.18,0-2.081.991-3.963,3.071-5.846a8.986,8.986,0,0,1,6.044-2.675,11.217,11.217,0,0,1,2.279.2C81.594,124.7,81.693,124.8,81.693,124.9Zm-2.972,1.09c0-.4-.2-.594-.5-.594-.991,0-2.279,1.09-3.864,3.369-1.585,2.18-2.378,3.864-2.378,4.954a.525.525,0,0,0,.594.594c.594,0,1.783-1.189,3.666-3.468a17.564,17.564,0,0,0,1.882-2.873A4.806,4.806,0,0,0,78.721,125.985Z" transform="translate(-15.41 -109.043)"/>
        <path id="Path_104" data-name="Path 104" class="cls-1" d="M93.993,124.4h1.982c.3,0,.4.1.4.4v.2c-.5,1.09-1.09,2.081-1.486,3.071s-.892,1.982-1.288,2.774a16.309,16.309,0,0,0-.892,2.081,6.413,6.413,0,0,0-.3.991c0,.3.1.5.4.5a3.9,3.9,0,0,0,.594-.2,3.476,3.476,0,0,0,.793-.5,5.663,5.663,0,0,0,.793-.694l.694-.694h0a.35.35,0,0,1,.4.4,8.934,8.934,0,0,1-.892.991c-.3.3-.694.594-.991.892-.4.2-.694.4-1.09.594a4.36,4.36,0,0,1-.991.2c-1.189,0-1.783-.594-1.783-1.684a3.229,3.229,0,0,1,.3-.991c.2-.5.4-1.09.694-1.882.3-.694.594-1.585,1.09-2.576.4-.991.892-1.982,1.387-3.071a1.881,1.881,0,0,0-1.486.793,10.3,10.3,0,0,0-1.288,1.882c-.4.793-.793,1.486-1.288,2.378a13.643,13.643,0,0,1-1.387,2.378,10.359,10.359,0,0,1-1.684,1.882,3.2,3.2,0,0,1-2.081.793,1.783,1.783,0,0,1-1.486-.694,2.25,2.25,0,0,1-.594-1.585,2.148,2.148,0,0,1,.5-1.387,1.591,1.591,0,0,1,1.09-.5c.694,0,1.09.3,1.09.991a.9.9,0,0,1-.3.694,2.626,2.626,0,0,0-.5.594c-.1.2-.4.4-.4.5-.1.2,0,.3.3.5a2.6,2.6,0,0,0,1.882-.5,9.259,9.259,0,0,0,1.585-1.783,14.677,14.677,0,0,0,1.387-2.477,19.945,19.945,0,0,1,1.387-2.477,10.7,10.7,0,0,1,1.585-1.982,2.9,2.9,0,0,1,1.882-.793Z" transform="translate(-15.524 -109.043)"/>
        <path id="Path_105" data-name="Path 105" class="cls-1" d="M105.521,125.985c0,1.486-.892,2.873-2.576,4.062a8.894,8.894,0,0,1-3.864,1.585,4.446,4.446,0,0,0-.4,1.684c0,.793.4,1.189,1.288,1.189a4.448,4.448,0,0,0,2.378-.892,7.737,7.737,0,0,0,1.585-1.486q.446-.3.594.3a6.75,6.75,0,0,1-1.684,1.684,5.5,5.5,0,0,1-3.17,1.189A2.364,2.364,0,0,1,97,132.623a8.537,8.537,0,0,1,2.378-5.449c1.585-1.783,2.972-2.774,4.359-2.774C104.926,124.4,105.521,124.994,105.521,125.985Zm-1.387-.2c0-.4-.2-.694-.5-.694-.5,0-1.189.694-2.081,1.982a23.345,23.345,0,0,0-2.18,3.765c1.09,0,2.081-.694,3.17-1.783A4.811,4.811,0,0,0,104.134,125.787Z" transform="translate(-15.657 -109.043)"/>
        <path id="Path_106" data-name="Path 106" class="cls-1" d="M156.4,113.656c0,2.378-1.585,4.657-4.657,6.737a27.465,27.465,0,0,1-10.9,4.062c1.783,1.882,3.17,3.27,4.26,4.359,3.567,3.468,5.846,5.152,6.935,5.152a3.036,3.036,0,0,0,1.684-.4c.4.1.4.4.2.694a5.083,5.083,0,0,1-3.071.793q-2.972,0-6.242-2.972a71.288,71.288,0,0,1-6.143-6.143,21.339,21.339,0,0,1-1.882,2.18,22.132,22.132,0,0,1-7.926,5.449,20.724,20.724,0,0,1-7.728,1.585,8.167,8.167,0,0,1-5.152-1.486,4.821,4.821,0,0,1-2.081-4.161c0-3.864,2.18-7.53,6.44-10.9a44.4,44.4,0,0,1,13.871-7.134,43.757,43.757,0,0,1,13.177-2.576C153.43,109,156.4,110.584,156.4,113.656Zm-2.774,0a2.986,2.986,0,0,0-1.486-2.576,8.5,8.5,0,0,0-4.954-1.189,36.3,36.3,0,0,0-12.385,2.774A46.209,46.209,0,0,0,121.626,120c-4.062,3.369-6.143,6.836-6.143,10.2a3.713,3.713,0,0,0,1.486,3.27,6.375,6.375,0,0,0,4.062,1.09,15.368,15.368,0,0,0,7.629-2.279,19.675,19.675,0,0,0,6.737-6.044c.3-.4.594-.892,1.09-1.486H135.6c-.4,0-.694-.1-.694-.3s.2-.4.694-.4h1.387q.149-.149,3.567-5.35a38.275,38.275,0,0,1,3.071-4.062,24.238,24.238,0,0,1,2.774-2.774c.694-.5,1.09-.793,1.387-.793a.468.468,0,0,1,.5.5,12.083,12.083,0,0,0-2.081,2.279c-.4.594-1.288,1.982-2.576,4.062-1.387,2.378-2.576,4.26-3.567,5.746h0a24.094,24.094,0,0,0,9.214-3.765C152.241,118.015,153.628,115.835,153.628,113.656Z" transform="translate(-15.811 -108.9)"/>
        <path id="Path_107" data-name="Path 107" class="cls-1" d="M164.021,125.985c0,1.486-.892,2.873-2.576,4.062a8.894,8.894,0,0,1-3.864,1.585,4.446,4.446,0,0,0-.4,1.684c0,.793.4,1.189,1.288,1.189a4.448,4.448,0,0,0,2.378-.892,7.737,7.737,0,0,0,1.585-1.486q.446-.3.594.3a6.749,6.749,0,0,1-1.684,1.684,5.5,5.5,0,0,1-3.17,1.189,2.364,2.364,0,0,1-2.675-2.675,8.537,8.537,0,0,1,2.378-5.449c1.585-1.882,2.972-2.774,4.359-2.774C163.426,124.4,164.021,124.994,164.021,125.985Zm-1.387-.2c0-.4-.2-.694-.5-.694-.5,0-1.189.694-2.081,1.982a23.344,23.344,0,0,0-2.18,3.765c1.09,0,2.081-.694,3.17-1.783A5.535,5.535,0,0,0,162.634,125.787Z" transform="translate(-16.197 -109.043)"/>
        <path id="Path_108" data-name="Path 108" class="cls-1" d="M175.894,125.293a2.22,2.22,0,0,1-1.09,1.585,3.635,3.635,0,0,1-1.982.793,1.257,1.257,0,0,1-.594-.1,7.291,7.291,0,0,0-1.09,1.585h1.982a.3.3,0,0,1,0,.594h-2.378a6.6,6.6,0,0,0-.594,1.189,3.564,3.564,0,0,1,1.783,1.189,8.687,8.687,0,0,1,.793,1.387c.3.4.5.694.793.694.5,0,.991-.5,1.486-1.684.3,0,.5.1.5.4a6.467,6.467,0,0,1-.991,1.486,2.378,2.378,0,0,1-1.684.892,2.056,2.056,0,0,1-1.783-1.288,17.651,17.651,0,0,0-1.288-2.081c-1.288,2.279-2.576,3.369-3.864,3.369-.892,0-1.387-.4-1.387-1.09a2.9,2.9,0,0,1,1.288-2.279,4.778,4.778,0,0,1,2.972-1.09h.594a9.656,9.656,0,0,0,.5-1.09h-1.288a.3.3,0,1,1,0-.594h1.684a6.488,6.488,0,0,1,1.486-1.783c-.594-.3-1.09-.594-1.684-.892a4.162,4.162,0,0,0-2.081-.594,2.087,2.087,0,0,0-1.288.5,1.262,1.262,0,0,0-.5,1.09c0,.3,0,.594.1.694a.434.434,0,0,1-.3.1h-.4a2.332,2.332,0,0,1-.2-.793,2.888,2.888,0,0,1,1.09-1.982,3.38,3.38,0,0,1,2.378-.991,3.928,3.928,0,0,1,2.18.793,5.521,5.521,0,0,0,1.387.793A4.688,4.688,0,0,1,175,124.8C175.6,124.8,175.894,125,175.894,125.293Zm-6.935,6.143a1.257,1.257,0,0,0-.594-.1,2.919,2.919,0,0,0-2.576,2.576c0,.5.2.694.5.694C166.977,134.606,167.869,133.516,168.958,131.435Z" transform="translate(-16.28 -109.044)"/>
        <path id="Path_109" data-name="Path 109" class="cls-1" d="M187.9,124.9c-2.576,4.855-3.864,7.827-3.864,9.016,0,.4.1.594.4.594.4,0,.793-.3,1.486-.991a5.9,5.9,0,0,0,1.189-1.684c.4-.1.594-.1.694.1a9.147,9.147,0,0,1-1.387,1.982,3.566,3.566,0,0,1-2.675,1.387.966.966,0,0,1-.892-.4,1.334,1.334,0,0,1-.5-1.189,8.029,8.029,0,0,1,.594-2.378c-2.081,2.675-3.567,3.963-4.657,3.963s-1.585-.5-1.585-1.486a15.3,15.3,0,0,1,1.387-3.963c.594-1.288,1.189-2.576,1.783-3.765.1-.3,0-.4-.3-.4-.5,0-.793-.2-.793-.5,0-.4.2-.5.594-.5a12.774,12.774,0,0,0,2.774-.1c.2,0,.3,0,.4.1s.1.2,0,.4l-2.081,4.161a25.609,25.609,0,0,0-1.982,4.558c0,.2.1.3.4.3.594,0,2.279-1.882,5.152-5.747.5-1.09,1.09-2.081,1.585-3.27q.3-.594.594-.594H187.4C187.9,124.4,187.995,124.6,187.9,124.9Z" transform="translate(-16.393 -109.044)"/>
        <path id="Path_110" data-name="Path 110" class="cls-1" d="M200.076,124.9c0,.1-.1.2-.2.4-.694,1.585-1.684,4.161-3.17,7.827A8.061,8.061,0,0,0,198,131.932a.628.628,0,0,1,.594.5,11.422,11.422,0,0,1-2.378,1.882l-.2.694a18.138,18.138,0,0,1-3.17,5.251c-1.585,1.882-3.17,2.774-4.558,2.774a1.314,1.314,0,0,1-1.486-1.486,3.3,3.3,0,0,1,.991-2.081,13.809,13.809,0,0,1,2.477-2.279c.694-.5,1.882-1.189,3.666-2.279.3-.793.694-1.982,1.189-3.27-1.882,2.378-3.369,3.666-4.558,3.666s-1.783-.694-1.783-2.18c0-2.081.991-3.963,3.071-5.846A8.986,8.986,0,0,1,197.9,124.6a10.513,10.513,0,0,1,2.081.2C200.076,124.7,200.076,124.8,200.076,124.9Zm-6.539,11.1c-1.09.694-1.882,1.189-2.18,1.387a13.239,13.239,0,0,0-1.982,2.081,3.8,3.8,0,0,0-.991,2.081.525.525,0,0,0,.594.594c.594,0,1.288-.594,2.18-1.684a15.339,15.339,0,0,0,2.081-3.765Zm3.765-10.007c0-.4-.2-.594-.5-.594-.892,0-2.18,1.09-3.765,3.369-1.585,2.18-2.378,3.864-2.378,4.954a.525.525,0,0,0,.594.594c.594,0,1.783-1.189,3.666-3.468a27.968,27.968,0,0,0,1.882-2.873A6.36,6.36,0,0,0,197.3,125.987Z" transform="translate(-16.486 -109.045)"/>
        <path id="Path_111" data-name="Path 111" class="cls-1" d="M209.021,125.985c0,1.486-.892,2.873-2.576,4.062a8.894,8.894,0,0,1-3.864,1.585,4.446,4.446,0,0,0-.4,1.684c0,.793.4,1.189,1.288,1.189a4.448,4.448,0,0,0,2.378-.892,7.737,7.737,0,0,0,1.585-1.486q.446-.3.594.3a6.749,6.749,0,0,1-1.684,1.684,5.5,5.5,0,0,1-3.17,1.189,2.364,2.364,0,0,1-2.675-2.675,8.537,8.537,0,0,1,2.378-5.449c1.585-1.882,2.972-2.774,4.359-2.774C208.426,124.4,209.021,124.994,209.021,125.985Zm-1.387-.2c0-.4-.2-.694-.5-.694-.5,0-1.189.694-2.081,1.982a23.344,23.344,0,0,0-2.18,3.765c1.09,0,2.081-.694,3.17-1.783A5.006,5.006,0,0,0,207.634,125.787Z" transform="translate(-16.612 -109.043)"/>
        <path id="Path_112" data-name="Path 112" class="cls-1" d="M218.517,125a2.448,2.448,0,0,1,.892-.4,3.056,3.056,0,0,1,.892-.1c.3,0,.4.1.4.4l-.3.594c-.2.4-.5.892-.793,1.585-.3.594-.594,1.288-.991,2.081-.3.694-.694,1.486-.892,2.081-.3.694-.5,1.288-.694,1.783a3.229,3.229,0,0,0-.3.991c0,.4.2.5.594.5.793,0,1.684-.694,2.576-2.18.2,0,.3-.1.4-.1a.263.263,0,0,1,.3.3,5.459,5.459,0,0,1-1.684,1.982,3.37,3.37,0,0,1-1.882.793,1.793,1.793,0,0,1-1.387-.4,1.579,1.579,0,0,1-.4-1.189,4.933,4.933,0,0,1,.4-1.882c.2-.594.4-1.09.594-1.684h-2.675c0,.1-.1.2-.1.3l-1.882,4.161a1.147,1.147,0,0,1-.694.5,2.743,2.743,0,0,1-.892.1c-.3,0-.4-.1-.4-.4,0-.1.594-1.486,1.882-4.161a19.143,19.143,0,0,0,1.684-4.26c0-.4-.2-.694-.5-.694a8.251,8.251,0,0,0-1.387.4c-.2-.1-.3-.2-.3-.4a.506.506,0,0,1,.4-.5,7.856,7.856,0,0,1,.892-.4,4.36,4.36,0,0,1,.991-.2,5.586,5.586,0,0,0,.694-.1,1.6,1.6,0,0,1,.892.3.966.966,0,0,1,.4.892,11.463,11.463,0,0,1-1.288,3.765h2.576a.1.1,0,0,1,.1-.1c.4-.793.694-1.684,1.09-2.477S218.22,125.491,218.517,125Z" transform="translate(-16.696 -109.044)"/>
        <path id="Path_113" data-name="Path 113" class="cls-1" d="M232.8,132.428h0v.1l-.1.2a29.293,29.293,0,0,1-.793,3.17,7.385,7.385,0,0,1-.991,1.982c-.4.5-.594.793-.892.892a4.307,4.307,0,0,0-.694.4c-.3.2-1.189,0-2.576-.594a7.525,7.525,0,0,0-1.09-.4,1.456,1.456,0,0,0-1.09.1,2.565,2.565,0,0,0-1.09.694,7.56,7.56,0,0,0-.793,1.09,5.5,5.5,0,0,1-.594.793c-.2.2-.3.2-.5-.1,0-.2.1-.4.4-.793a8.263,8.263,0,0,1,.793-1.189,11.873,11.873,0,0,1,1.09-1.189,2.54,2.54,0,0,1,1.09-.793,4.47,4.47,0,0,1,1.288-.1,13.512,13.512,0,0,1,1.684.4,2.572,2.572,0,0,0,1.684.2,3.023,3.023,0,0,0,1.288-.991,4.566,4.566,0,0,0,.892-1.684,6.825,6.825,0,0,1,.3-.793c-.1.1-.2.2-.2.3a3.566,3.566,0,0,1-2.675,1.387.966.966,0,0,1-.892-.4,1.334,1.334,0,0,1-.5-1.189,8.029,8.029,0,0,1,.594-2.378c-2.081,2.675-3.567,3.963-4.657,3.963s-1.585-.5-1.585-1.486a16.665,16.665,0,0,1,1.387-3.963c.3-.694.594-1.288.892-1.882s.594-1.288.892-1.882c.1-.3,0-.4-.3-.4-.5,0-.793-.2-.793-.5,0-.4.2-.5.594-.5a12.529,12.529,0,0,0,2.774-.1c.2,0,.3,0,.4.1a.3.3,0,0,1,0,.4l-1.09,2.081c-.4.694-.694,1.387-1.09,2.081a29.542,29.542,0,0,0-1.982,4.558c0,.2.1.3.4.3.594,0,2.279-1.882,5.152-5.746.3-.5.5-1.09.793-1.585l.793-1.684q.3-.594.594-.594H232.8c.5,0,.594.2.4.5-2.576,4.855-3.864,7.827-3.864,9.016,0,.4.1.594.4.594.4,0,.793-.3,1.486-.991l.4-.4c.1-.1.2-.2.2-.3s.1-.1.1-.2.1-.1.1-.3c.1,0,.1,0,.2-.1h.1c.3-.3.4-.2.5-.1Z" transform="translate(-16.807 -109.046)"/>
        <path id="Path_114" data-name="Path 114" class="cls-1" d="M240.843,124.949c-.793,1.486-1.486,3.071-2.279,4.558a20.348,20.348,0,0,0-1.783,4.359c0,.3.1.5.4.5a2.886,2.886,0,0,0,1.585-.892,7.815,7.815,0,0,0,1.288-1.288.364.364,0,0,1,.3.1c.1.1.2.2.1.3a6.345,6.345,0,0,1-1.387,1.486,4.038,4.038,0,0,1-2.576,1.189c-1.189,0-1.783-.594-1.783-1.684a16.072,16.072,0,0,1,1.684-4.359c.4-.892.991-1.982,1.486-3.27.1-.3,0-.4-.2-.4-.5,0-.793-.2-.793-.5,0-.4.2-.5.594-.5a13.706,13.706,0,0,0,2.873-.1c.2,0,.3,0,.4.1S240.942,124.751,240.843,124.949Zm1.486-4.062a1.9,1.9,0,0,1-.4,1.189,1.162,1.162,0,0,1-1.09.5c-.793,0-1.189-.5-1.189-1.387a1.9,1.9,0,0,1,.4-1.189,1.162,1.162,0,0,1,1.09-.5A1.2,1.2,0,0,1,242.329,120.887Z" transform="translate(-16.928 -108.998)"/>
        <path id="Path_115" data-name="Path 115" class="cls-1" d="M247.745,130.74a1.368,1.368,0,0,1,.4-.3c.2-.1.2-.2.4-.3a1.727,1.727,0,0,1-1.189-.594,2.148,2.148,0,0,1-.5-1.387,2.477,2.477,0,0,1,.4-1.387,4.087,4.087,0,0,1,.991-1.288,4.156,4.156,0,0,1,1.387-.892,4.628,4.628,0,0,1,1.684-.3,3.354,3.354,0,0,1,.793.3,1.264,1.264,0,0,1,.5.694c.1-.2.1-.3.2-.4a.515.515,0,0,0,.2-.4h1.982c.3,0,.4.1.4.4v.2c-.5,1.09-1.09,2.081-1.486,3.071-.5.991-.892,1.982-1.288,2.774a16.31,16.31,0,0,0-.892,2.081,6.412,6.412,0,0,0-.3.991c0,.3.1.5.4.5a3.9,3.9,0,0,0,.594-.2c.3-.2.5-.3.793-.5a2.671,2.671,0,0,0,.793-.694l.694-.694a.35.35,0,0,1,.4.4,8.938,8.938,0,0,1-.892.991c-.3.3-.694.594-.991.892-.4.2-.694.4-1.09.594a4.36,4.36,0,0,1-.991.2c-1.189,0-1.783-.594-1.783-1.684a8.835,8.835,0,0,1,.2-1.09,12.2,12.2,0,0,1,.793-2.18h-.2a1.848,1.848,0,0,0-1.585.694c-.4.5-.793.991-1.189,1.585a20.752,20.752,0,0,1-1.387,1.684,3.439,3.439,0,0,1-2.081.991,1.783,1.783,0,0,1-1.486-.694,2.429,2.429,0,0,1-.594-1.585,2.148,2.148,0,0,1,.5-1.387,1.591,1.591,0,0,1,1.09-.5c.694,0,1.09.3,1.09.991a1.409,1.409,0,0,1-.2.594.989.989,0,0,1-.4.5c-.1.2-.3.3-.4.5s-.2.3-.2.4a.364.364,0,0,0,.1.3.742.742,0,0,0,.5.1,2.058,2.058,0,0,0,1.189-.5l1.189-1.189c.4-.5.694-.892.991-1.288A2.772,2.772,0,0,1,247.745,130.74Zm4.458-4.558a2.283,2.283,0,0,0-.4-1.09.856.856,0,0,0-.594-.3,2.675,2.675,0,0,0-1.09.5,2.81,2.81,0,0,0-.892.991,3.348,3.348,0,0,0-.594,1.189,2.926,2.926,0,0,0-.2,1.288c0,.4.1.594.3.694a1.408,1.408,0,0,0,.594.2h.793c.3,0,.5,0,.594.1.2-.5.4-.991.694-1.684A10.735,10.735,0,0,1,252.2,126.182Z" transform="translate(-16.993 -109.042)"/>
      </g>
    </g>
  </g>
</svg>
