<svg xmlns="http://www.w3.org/2000/svg" viewBox="0 0 1336.716 553.002">
  <defs>
    <style>
      .cls-1 {
        fill: #fff;
      }

      .cls-2 {
        font-size: 64px;
      }

      .cls-2, .cls-3, .cls-4, .cls-5, .cls-6, .cls-7 {
        font-family: SegoeUI, Segoe UI;
      }

      .cls-3 {
        font-size: 88px;
      }

      .cls-4 {
        font-size: 65px;
      }

      .cls-5 {
        font-size: 51px;
      }

      .cls-6 {
        font-size: 78px;
      }

      .cls-7 {
        font-size: 79px;
      }
    </style>
  </defs>
  <g id="tags" transform="translate(-147.475 -2836.662)">
    <g id="Group_115" data-name="Group 115" transform="translate(-1402.949 232.858) rotate(-31)">
      <path id="Path_171" data-name="Path 171" class="cls-1" d="M0,0,497.895,10.287l-5.976,114.851H0Z" transform="matrix(0.906, 0.423, -0.423, 0.906, 231.083, 3237.25)"/>
      <text id="_WordPress" data-name="#WordPress" class="cls-2" transform="matrix(0.906, 0.423, -0.423, 0.906, 265.957, 3351.961)"><tspan x="0" y="0">#WordPress</tspan></text>
    </g>
    <g id="Group_114" data-name="Group 114" transform="matrix(0.998, 0.07, -0.07, 0.998, 142.389, -735.414)">
      <path id="Path_172" data-name="Path 172" class="cls-1" d="M0,0,579.363,17.982h0l-.286,129.4H0Z" transform="translate(277 3888.379) rotate(-26)"/>
      <text id="_HTML_CSS" data-name="#HTML/ CSS" class="cls-3" transform="translate(324.243 3882.721) rotate(-26)"><tspan x="0" y="95">#HTML/ CSS</tspan></text>
    </g>
    <g id="Group_116" data-name="Group 116" transform="matrix(0.819, 0.574, -0.574, 0.819, 2744.457, -211.53)">
      <path id="Path_172-2" data-name="Path 172" class="cls-1" d="M0,0,579.363,17.982h0l-.286,129.4H0Z" transform="translate(277 3888.379) rotate(-26)"/>
      <text id="_JavaScipt_Jquery" data-name="#JavaScipt/ Jquery" class="cls-4" transform="translate(343.658 3968.025) rotate(-26)"><tspan x="0" y="0">#JavaScipt/ Jquery</tspan></text>
    </g>
    <g id="Group_117" data-name="Group 117" transform="translate(-2225.395 1276.356) rotate(-36)">
      <path id="Path_176" data-name="Path 176" class="cls-1" d="M0,0H174l2.927,42.144L174,84H0L-3.015,43.11Z" transform="translate(1079 3194)"/>
      <text id="_Sass" data-name="#Sass" class="cls-5" transform="translate(1103 3252)"><tspan x="0" y="0">#Sass</tspan></text>
    </g>
    <g id="Group_118" data-name="Group 118" transform="translate(-1182.805 273.274) rotate(-17)">
      <path id="Path_176-2" data-name="Path 176" class="cls-1" d="M2.065,0H295.282l4.932,65.641-4.932,65.194H2.065l-5.08-63.688Z" transform="translate(1079 3194)"/>
      <text id="_PHP" data-name="#PHP" class="cls-6" transform="translate(1133.125 3291.785)"><tspan x="0" y="0">#PHP</tspan></text>
    </g>
    <g id="Group_119" data-name="Group 119" transform="translate(-976.832 104.405) rotate(-2)">
      <path id="Path_176-3" data-name="Path 176" class="cls-1" d="M5.947,0H523.183l8.7,65.641-8.7,65.194H5.947L-3.015,67.147Z" transform="translate(1079 3194)"/>
      <text id="_Bootstrap" data-name="#Bootstrap" class="cls-7" transform="translate(1156.289 3283.673)"><tspan x="0" y="0">#Bootstrap</tspan></text>
    </g>
    <g id="Group_120" data-name="Group 120" transform="matrix(0.883, 0.469, -0.469, 0.883, 1631.512, -328.595)">
      <path id="Path_176-4" data-name="Path 176" class="cls-1" d="M4.615,0H445.021l7.408,65.641-7.408,65.194H4.615l-7.63-63.688Z" transform="translate(1079 3194)"/>
      <text id="_c_Java" data-name="#c++/Java" class="cls-7" transform="translate(1130.968 3283.673)"><tspan x="0" y="0">#c++/Java</tspan></text>
    </g>
  </g>
</svg>
