<svg width="180" height="180" viewBox="0 0 180 180" fill="none" xmlns="http://www.w3.org/2000/svg">
<circle cx="90" cy="90" r="90" fill="#54CA95"/>
<path d="M107.102 109.801C107.102 106.35 105.376 103.648 101.926 101.695C98.5404 99.6771 93.0716 97.8867 85.5195 96.3242C60.3893 91.0508 47.8242 80.3737 47.8242 64.293C47.8242 54.918 51.6979 47.1055 59.4453 40.8555C67.2578 34.5404 77.4466 31.3828 90.0117 31.3828C103.423 31.3828 114.133 34.5404 122.141 40.8555C130.214 47.1706 134.25 55.3737 134.25 65.4648H106.027C106.027 61.4284 104.725 58.1081 102.121 55.5039C99.5169 52.8346 95.4479 51.5 89.9141 51.5C85.1615 51.5 81.4831 52.5742 78.8789 54.7227C76.2747 56.8711 74.9727 59.6055 74.9727 62.9258C74.9727 66.0508 76.4375 68.5898 79.3672 70.543C82.362 72.431 87.375 74.0911 94.4062 75.5234C101.438 76.8906 107.362 78.4531 112.18 80.2109C127.089 85.6797 134.543 95.1523 134.543 108.629C134.543 118.264 130.409 126.077 122.141 132.066C113.872 137.991 103.195 140.953 90.1094 140.953C81.2552 140.953 73.3776 139.391 66.4766 136.266C59.6406 133.076 54.2695 128.746 50.3633 123.277C46.457 117.743 44.5039 111.786 44.5039 105.406H71.2617C71.5221 110.419 73.3776 114.26 76.8281 116.93C80.2786 119.599 84.901 120.934 90.6953 120.934C96.099 120.934 100.168 119.924 102.902 117.906C105.702 115.823 107.102 113.121 107.102 109.801Z" fill="white"/>
</svg>
