<svg xmlns="http://www.w3.org/2000/svg" version="1.1" xmlns:xlink="http://www.w3.org/1999/xlink" xmlns:svgjs="http://svgjs.com/svgjs" height="276.03515625" width="254.43632812500002"><defs id="SvgjsDefs1036"></defs><g id="SvgjsG1037" rel="mainfill" name="main_text" xmlns:name="main_text" transform="translate(67.21816406250001,-83.146484375)" fill="#000000"><path d="M12.65 240C15.55 240 18.03 237.58 18.03 234.62L18.03 225.90C18.03 223.75 16.68 221.81 14.74 220.95C16.68 220.14 18.03 218.15 18.03 216.00L18.03 207.71C18.03 204.86 15.61 202.33 12.65 202.33L2.15 202.33L2.15 240ZM12.65 223.05L12.65 234.62L7.53 234.62L7.53 223.05ZM12.65 207.71L12.65 218.85L7.53 218.85L7.53 207.71ZM38.21 225.90C38.21 223.75 36.86 221.81 34.92 220.95C36.86 220.14 38.21 218.15 38.21 216.00L38.21 207.71C38.21 204.75 35.73 202.33 32.83 202.33L22.33 202.33L22.33 240L27.71 240L27.71 223.05L32.83 223.05L32.83 240L38.21 240ZM32.83 207.71L32.83 218.85L27.71 218.85L27.71 207.71ZM47.89 202.33C44.93 202.33 42.51 204.86 42.51 207.71L42.51 234.62C42.51 237.58 44.99 240 47.89 240L53.00 240C55.91 240 58.39 237.58 58.39 234.62L58.39 207.71C58.39 204.86 55.96 202.33 53.00 202.33ZM47.89 234.62L47.89 207.71L53.00 207.71L53.00 234.62ZM68.07 202.33C65.11 202.33 62.69 204.86 62.69 207.71L62.69 234.62C62.69 237.58 65.17 240 68.07 240L73.18 240C76.09 240 78.57 237.58 78.57 234.62L78.57 207.71C78.57 204.86 76.14 202.33 73.18 202.33ZM68.07 234.62L68.07 207.71L73.18 207.71L73.18 234.62ZM87.71 216.97C84.75 216.97 82.33 218.91 82.33 221.17L82.33 234.62C82.33 237.58 84.81 240 87.71 240L98.21 240L98.21 202.33L92.83 202.33L92.83 216.97ZM87.71 234.62L87.71 221.17L92.83 221.17L92.83 234.62ZM107.35 216.97C104.39 216.97 101.97 218.91 101.97 221.17L101.97 234.62C101.97 237.58 104.45 240 107.35 240L117.85 240L117.85 202.33L112.47 202.33L112.47 216.97ZM107.35 234.62L107.35 221.17L112.47 221.17L112.47 234.62Z" fill="#000000" style="fill: rgb(0, 0, 0);"></path></g><g id="SvgjsG1038" transform="translate(0,0) scale(2.1)" rel="mainfill" name="outline_container" xmlns:name="outlineContainer_mainfill" fill="#141414"><g fill="#141414"><path d="M61.2 128.8a24.6 24.6 0 0 0-4.3-5.3l-5.8-5.7-2-2.2c-1.2-1.4-2.6-2.7-3.9-4l-3.4-3.4-5-5.1-4.7-4.9L28 94l-9.8-9.9a37.1 37.1 0 0 0-3.7-3.5l-.9-.8c-1.9-1.9-4-3.7-5.8-5.6l-3.8-4 1-1 1.3-1.3L8.2 70l.6.6 9 8.5 7.6 7 4.1 3.7 1.7 1.5A28.7 28.7 0 0 1 35 95l2.6 3c1.8 2.1 3.3 4 5.4 6.2l1.5 1.7c1.6 1.8 3.2 3.7 5 5.4s3.4 3.5 5.2 5.2a32 32 0 0 0 5.4 4.2c1.5.8 2 .8 1.1-.7a24.6 24.6 0 0 0-4.3-5.3l-5.8-5.7-2-2.2c-1.2-1.4-2.6-2.7-3.9-4l-3.4-3.4-5-5.1-4.7-4.9-4.1-4.2-9.8-9.9a36.9 36.9 0 0 0-3.7-3.5l-.9-.8-5.3-5.2 2.3-2.4 11.7-12c2-2 4.2-4.1 6.2-5.9s4.2-3.9 6-5.8l6.9-7.3 9.3-10 .8-.9 3-3.2c2-2.1 3.9-4.2 6-6.3a47 47 0 0 0 4.2 4l1.1 1a55.8 55.8 0 0 0 5.6 4.8 8 8 0 0 0-1-1.7L67 15.5a83.3 83.3 0 0 0-5.7-6.2l-.5-.5-.5.5-2.3 2.3-6.3 6.5-5.9 6c-2.2 2.3-4.3 4.6-6.7 6.8l-.8.9a54.4 54.4 0 0 1-6.5 6.2l-4.9 4.6-3.9 4a34.4 34.4 0 0 0-2.6 2.8L18.8 51c-2.5 2.5-4.9 5-7.1 7.6l-2.9 3-2.3 2.3L4 61.4l1-1 5.7-5.7 11.7-12c2-2 4.2-4.1 6.2-5.9s4.2-3.9 6-5.8l6.9-7.3 9.3-10 .8-.9 3-3.2c2-2.1 3.9-4.2 6-6.3a47.1 47.1 0 0 0 4.2 4l1.1 1a55.8 55.8 0 0 0 5.7 4.7 8.1 8.1 0 0 0-1-1.7L67 6.7A83.3 83.3 0 0 0 61.3.5l-.5-.5-.5.5L58 2.8l-6.3 6.5-5.9 6c-2.2 2.3-4.3 4.6-6.7 6.8l-.8.9a54.6 54.6 0 0 1-6.5 6.2l-4.9 4.6-3.9 4a34 34 0 0 0-2.6 2.8l-1.6 1.7c-2.5 2.5-4.9 5-7.1 7.6l-2.9 3-6.9 6.6-1.7 1.7-.2.2.2.2 4.2 4.3-2.5 2.4L.2 70l-.2.2.2.2c2.7 2.8 5.4 5.5 8.1 8.3l.6.6 9 8.5 7.6 7 4.1 3.7 1.7 1.5a28.3 28.3 0 0 1 3.7 3.7l2.6 3c1.8 2.1 3.3 4 5.4 6.2l1.5 1.7c1.6 1.8 3.2 3.7 5 5.4s3.4 3.5 5.2 5.2a31.8 31.8 0 0 0 5.4 4.2c1.4.9 2 .9 1.1-.6z" fill="#141414" style="fill: rgb(20, 20, 20);"></path><path d="M119.9 71.4a10.5 10.5 0 0 1-1.4.9c-.4 0-1.3.9-2.1 1.6s-3.9 3.6-5.7 5.6l-2.7 2.8c-2.7 2.6-5 5.3-7.7 7.9s-4.7 4.9-7 7.4l-1.5 1.5a25.9 25.9 0 0 0-3.6 3.7c-2.3 2.3-4.1 4.5-6.1 6.7a13.9 13.9 0 0 1-1.6 1.5 75.8 75.8 0 0 0-6.2 5.8c-2.3 2.3-4.5 4.7-6.9 7a32.5 32.5 0 0 0-3.4 3.6l-2 2.4c-1.1 1.6-.6 2.1.9 1.2l1.1-.7a20 20 0 0 0 4-3.2c1.5-1.2 3.2-3.3 4.8-4.3l1-1c.7-1.1 2.2-2.5 3.2-3.7a8.1 8.1 0 0 1 2-1.9l2.7-3.7a24.5 24.5 0 0 1 4.3-4.4l1.5-1.2 5.4-5.2 3.2-3.1 1.4-1.5a13.8 13.8 0 0 0 2-2l.8-.8a16.3 16.3 0 0 0 2.4-2.5l1.6-1.6 5-4.7 3-3 3-2.9c3-3.1 5.1-5.5 5.5-7l.3-.7c.2-1.2-.3-1-1.2-.5zM92 43.1a39.9 39.9 0 0 0 2.8 3c1.7 1.5 3.4 3.1 5 4.3s2.6 1.4 2 .3-2.9-4.7-6-8a40.8 40.8 0 0 0-6.7-6.2l-1.5-1.2c-1.9-1.5-3.4-2.6-4-2.4s-.7-.4-1.2-.7a26.7 26.7 0 0 0 3.2 4zM67.3 114.9a32.3 32.3 0 0 0-3.4 3.6l-1.9 2.4c-1.1 1.6-.6 2.1.9 1.2l1.1-.7a20 20 0 0 0 4-3.2c1.5-1.2 3.2-3.3 4.8-4.3l1-1c.7-1.1 2.2-2.5 3.2-3.7a8.1 8.1 0 0 1 2-1.9l2.7-3.7a24.5 24.5 0 0 1 4.3-4.4l1.3-1.2 5.4-5.2 3.2-3.1 1.4-1.5a13.8 13.8 0 0 0 2-2l.8-.8a16.4 16.4 0 0 0 2.4-2.5l1.6-1.6 5-4.7 3-3 3-2.9c3-3.1 5.1-5.5 5.5-7l.3-.7c.6-1 .1-.9-.8-.3a10.1 10.1 0 0 1-1.4.9c-.4 0-1.3.9-2.1 1.6s-3.9 3.6-5.7 5.6l-2.7 2.8c-2.7 2.6-5 5.3-7.7 7.9s-4.7 4.9-7 7.4L92 90.4a25.8 25.8 0 0 0-3.9 3.6c-2.3 2.3-4.1 4.5-6.1 6.7a13.5 13.5 0 0 1-1.6 1.5 76.9 76.9 0 0 0-6.2 5.8c-2.3 2.3-4.5 4.7-6.9 6.9zM92 34.3a40.1 40.1 0 0 0 2.8 3c1.7 1.5 3.4 3.1 5 4.3s2.6 1.4 2 .3-2.9-4.7-6-8a40.7 40.7 0 0 0-6.7-6.2l-1.5-1.2c-1.9-1.5-3.4-2.6-4-2.4s-.7-.4-1.2-.7a26.8 26.8 0 0 0 3.2 4z" fill="#141414" style="fill: rgb(20, 20, 20);"></path></g></g></svg>