<svg id="skills" xmlns="http://www.w3.org/2000/svg" xmlns:xlink="http://www.w3.org/1999/xlink" viewBox="0 0 1379.097 570.065">
  <defs>
    <style>
      #skills .cls-1 {
        fill: #fff;
      }

      #skills .cls-2 {
        font-size: 79px;
      }

      #skills .cls-2, #skills .cls-3, #skills .cls-4, #skills .cls-5, #skills .cls-6, #skills .cls-7 {
        font-family: 'SegoeUI, Segoe UI', 'Open Sans', Arial;
      }

      #skills .cls-3 {
        font-size: 88px;
      }

      #skills .cls-4 {
        font-size: 65px;
      }

      #skills .cls-5 {
        font-size: 51px;
      }

      #skills .cls-6 {
        font-size: 78px;
      }

      #skills .cls-7 {
        font-size: 64px;
      }

      #skills .cls-8 {
        filter: url(#Path_176-6);
      }

      #skills .cls-9 {
        filter: url(#Path_176-5);
      }

      #skills .cls-10 {
        filter: url(#Path_171);
      }

      #skills .cls-11 {
        filter: url(#Path_176-4);
      }

      #skills .cls-12 {
        filter: url(#Path_176-3);
      }

      #skills .cls-13 {
        filter: url(#Path_176-2);
      }

      #skills .cls-14 {
        filter: url(#Path_172-2);
      }

      #skills .cls-15 {
        filter: url(#Path_172);
      }

      #skills .cls-16 {
        filter: url(#Path_176);
      }
    </style>
    <filter id="Path_176" x="71.448" y="403.258" width="539.488" height="166.807" filterUnits="userSpaceOnUse">
      <feOffset dy="3" input="SourceAlpha"/>
      <feGaussianBlur stdDeviation="3" result="blur"/>
      <feFlood flood-opacity="0.161"/>
      <feComposite operator="in" in2="blur"/>
      <feComposite in="SourceGraphic"/>
    </filter>
    <filter id="Path_172" x="0" y="108.496" width="610.385" height="371.681" filterUnits="userSpaceOnUse">
      <feOffset dy="3" input="SourceAlpha"/>
      <feGaussianBlur stdDeviation="3" result="blur-2"/>
      <feFlood flood-opacity="0.161"/>
      <feComposite operator="in" in2="blur-2"/>
      <feComposite in="SourceGraphic"/>
    </filter>
    <filter id="Path_172-2" x="570.55" y="295.237" width="613.285" height="254.197" filterUnits="userSpaceOnUse">
      <feOffset dy="3" input="SourceAlpha"/>
      <feGaussianBlur stdDeviation="3" result="blur-3"/>
      <feFlood flood-opacity="0.161"/>
      <feComposite operator="in" in2="blur-3"/>
      <feComposite in="SourceGraphic"/>
    </filter>
    <filter id="Path_176-2" x="375.007" y="284.854" width="212.95" height="191.724" filterUnits="userSpaceOnUse">
      <feOffset dy="3" input="SourceAlpha"/>
      <feGaussianBlur stdDeviation="3" result="blur-4"/>
      <feFlood flood-opacity="0.161"/>
      <feComposite operator="in" in2="blur-4"/>
      <feComposite in="SourceGraphic"/>
    </filter>
    <filter id="Path_176-3" x="879.897" y="162.979" width="499.2" height="356.72" filterUnits="userSpaceOnUse">
      <feOffset dy="3" input="SourceAlpha"/>
      <feGaussianBlur stdDeviation="3" result="blur-5"/>
      <feFlood flood-opacity="0.161"/>
      <feComposite operator="in" in2="blur-5"/>
      <feComposite in="SourceGraphic"/>
    </filter>
    <filter id="Path_176-4" x="615.441" y="100.274" width="358.599" height="224.994" filterUnits="userSpaceOnUse">
      <feOffset dy="3" input="SourceAlpha"/>
      <feGaussianBlur stdDeviation="3" result="blur-6"/>
      <feFlood flood-opacity="0.161"/>
      <feComposite operator="in" in2="blur-6"/>
      <feComposite in="SourceGraphic"/>
    </filter>
    <filter id="Path_171" x="314.96" y="0" width="520.304" height="193.872" filterUnits="userSpaceOnUse">
      <feOffset dy="3" input="SourceAlpha"/>
      <feGaussianBlur stdDeviation="3" result="blur-7"/>
      <feFlood flood-opacity="0.161"/>
      <feComposite operator="in" in2="blur-7"/>
      <feComposite in="SourceGraphic"/>
    </filter>
    <filter id="Path_176-5" x="992.261" y="72.653" width="341.605" height="202.16" filterUnits="userSpaceOnUse">
      <feOffset dy="3" input="SourceAlpha"/>
      <feGaussianBlur stdDeviation="3" result="blur-8"/>
      <feFlood flood-opacity="0.161"/>
      <feComposite operator="in" in2="blur-8"/>
      <feComposite in="SourceGraphic"/>
    </filter>
    <filter id="Path_176-6" x="35.103" y="37.126" width="357.486" height="215.346" filterUnits="userSpaceOnUse">
      <feOffset dy="3" input="SourceAlpha"/>
      <feGaussianBlur stdDeviation="3" result="blur-9"/>
      <feFlood flood-opacity="0.161"/>
      <feComposite operator="in" in2="blur-9"/>
      <feComposite in="SourceGraphic"/>
    </filter>
  </defs>
  <g id="tags" transform="translate(-138.475 -2831.287)">
    <g id="Group_119" data-name="Group 119" transform="translate(-976.832 104.405) rotate(-2)">
      <g class="cls-16" transform="matrix(1, 0.03, -0.03, 1, 1019.46, 2764.14)">
        <path id="Path_176-7" data-name="Path 176" class="cls-1" d="M5.947,0H523.183V130.835H5.947Z" transform="translate(74.5 427.52) rotate(-2)"/>
      </g>
      <text id="_Bootstrap" data-name="#Bootstrap" class="cls-2" transform="translate(1156.289 3283.673)"><tspan x="0" y="0">#Bootstrap</tspan></text>
    </g>
    <g id="Group_114" data-name="Group 114" transform="matrix(0.998, 0.07, -0.07, 0.998, 142.389, -735.414)">
      <g class="cls-15" transform="matrix(1, -0.07, 0.07, 1, 244.9, 3558.29)">
        <path id="Path_172-3" data-name="Path 172" class="cls-1" d="M0,0,579.363,17.982h0l-.286,129.4H0Z" transform="matrix(0.93, -0.37, 0.37, 0.93, 9, 331.53)"/>
      </g>
      <text id="_HTML_CSS" data-name="#HTML/ CSS" class="cls-3" transform="translate(324.243 3882.721) rotate(-26)"><tspan x="0" y="95">#HTML/ CSS</tspan></text>
    </g>
    <g id="Group_116" data-name="Group 116" transform="matrix(0.819, 0.574, -0.574, 0.819, 2744.457, -211.53)">
      <g class="cls-14" transform="matrix(0.82, -0.57, 0.57, 0.82, -389.41, 3987.26)">
        <path id="Path_172-4" data-name="Path 172" class="cls-1" d="M0,0,579.363,17.982h0l-.286,129.4H0Z" transform="matrix(0.99, 0.16, -0.16, 0.99, 602.61, 301.24)"/>
      </g>
      <text id="_JavaScipt_Jquery" data-name="#JavaScipt/ Jquery" class="cls-4" transform="translate(343.658 3968.025) rotate(-26)"><tspan x="0" y="0">#JavaScipt/ Jquery</tspan></text>
    </g>
    <g id="Group_117" data-name="Group 117" transform="translate(-2225.395 1276.356) rotate(-36)">
      <g class="cls-13" transform="matrix(0.81, 0.59, -0.59, 0.81, 998.45, 2647.41)">
        <path id="Path_176-8" data-name="Path 176" class="cls-1" d="M0,0H174l2.927,42.144L174,84H0L-3.015,43.11Z" transform="translate(386.45 394.85) rotate(-36)"/>
      </g>
      <text id="_Sass" data-name="#Sass" class="cls-5" transform="translate(1103 3252)"><tspan x="0" y="0">#Sass</tspan></text>
    </g>
    <g id="Group_120" data-name="Group 120" transform="matrix(0.883, 0.469, -0.469, 0.883, 1631.512, -328.595)">
      <g class="cls-12" transform="matrix(0.88, -0.47, 0.47, 0.88, 165.2, 3490.95)">
        <path id="Path_176-9" data-name="Path 176" class="cls-1" d="M4.615,0,480.041,9.737l-35.021,121.1H4.615Z" transform="matrix(0.88, 0.47, -0.47, 0.88, 946.25, 166.81)"/>
      </g>
      <text id="_c_Java" data-name="#c++/Java" class="cls-2" transform="translate(1130.968 3283.673)"><tspan x="0" y="0">#c++/Java</tspan></text>
    </g>
    <g id="Group_118" data-name="Group 118" transform="translate(-1182.805 273.274) rotate(-17)">
      <g class="cls-11" transform="matrix(0.96, 0.29, -0.29, 0.96, 515.66, 2832.54)">
        <path id="Path_176-10" data-name="Path 176" class="cls-1" d="M2.094,25.528,281.986,12.182l13.3,118.653H2.065L-24.6,84.513Z" transform="translate(644.41 180.96) rotate(-17)"/>
      </g>
      <text id="_PHP" data-name="#PHP" class="cls-6" transform="translate(1122.199 3297.856)"><tspan x="0" y="0">#PHP</tspan></text>
    </g>
    <g id="Group_115" data-name="Group 115" transform="translate(-1402.949 232.858) rotate(-31)">
      <g class="cls-10" transform="matrix(0.86, 0.52, -0.52, 0.86, -17.03, 3021.18)">
        <path id="Path_171-2" data-name="Path 171" class="cls-1" d="M0,0,490.681,15.041,470.551,66.387l21.367,58.751H0Z" transform="translate(323.96 57.42) rotate(-6)"/>
      </g>
      <text id="_WordPress" data-name="#WordPress" class="cls-7" transform="matrix(0.906, 0.423, -0.423, 0.906, 265.957, 3351.961)"><tspan x="0" y="0">#WordPress</tspan></text>
    </g>
    <g id="Group_134" data-name="Group 134" transform="translate(845.516 -454.667) rotate(13)">
      <g class="cls-9" transform="matrix(0.97, -0.22, 0.22, 0.97, 50.26, 3360.78)">
        <path id="Path_176-11" data-name="Path 176" class="cls-1" d="M2.094,25.528,281.986,12.182l13.3,118.653H2.065L-9.442,103.822,13.793,48.344Z" transform="translate(1039.89 68.91) rotate(13)"/>
      </g>
      <text id="_SQL" data-name="#SQL" class="cls-6" transform="translate(1122.199 3297.856)"><tspan x="0" y="0">#SQL</tspan></text>
    </g>
    <g id="Group_135" data-name="Group 135" transform="matrix(0.966, 0.259, -0.259, 0.966, 24.43, -495.476)">
      <g class="cls-8" transform="matrix(0.97, -0.26, 0.26, 0.97, 971.19, 3183.89)">
        <path id="Path_176-12" data-name="Path 176" class="cls-1" d="M2.094,25.528,281.986,12.182l13.3,118.653H2.065L-24.386,99.021l.522-46.6Z" transform="matrix(0.97, 0.26, -0.26, 0.97, 101.52, 37.67)"/>
      </g>
      <text id="_Vue" data-name="#Vue" class="cls-6" transform="translate(1122.199 3297.856)"><tspan x="0" y="0">#Vue</tspan></text>
    </g>
  </g>
</svg>
